<?xml version="1.0" encoding="utf-8" ?>
<svg xmlns="http://www.w3.org/2000/svg" xmlns:xlink="http://www.w3.org/1999/xlink" width="16" height="16">
	<path fill="#FFFFFF" fill-opacity="0.7019608" transform="translate(1.99985 2.11765)" d="M6.8728328 0.16676416C6.9547729 0.25842214 7.000071 0.37705684 7.000072 0.5L7.0001421 11.265758C7.0001421 11.5419 6.776288 11.765761 6.5001454 11.765761C6.3773227 11.765761 6.2587962 11.720555 6.16717 11.638762L2.9506495 8.7674217L1.0001495 8.7678623C0.48731372 8.7679396 0.064584665 8.3819628 0.0067451829 7.8846326L0 7.7678628L0.00046884789 4.0409217C0.00046884789 3.4887614 0.44798955 3.0410979 1.0001496 3.0409217L2.9086494 3.039993L6.166831 0.12724403C6.3727012 -0.056799732 6.6887889 -0.039105963 6.8728328 0.16676416ZM5.9991493 1.6173501L3.5751309 3.7855146L3.2906809 4.0398073L2.9091361 4.0399928L1.0004689 4.0409217L1 7.7678628L2.9504232 7.7674217L3.331964 7.7673354L3.6165938 8.0214205L5.9991493 10.14835L5.9991493 1.6173501ZM9.5980234 1.8275199C10.974923 2.5747166 11.860095 4.1428947 11.860095 5.88235C11.860095 7.6181984 10.978603 9.1836576 9.606144 9.9327602C9.3637562 10.065059 9.0600138 9.9758129 8.9277153 9.7334251C8.7954178 9.4910374 8.8846636 9.187294 9.1270514 9.0549965C10.170435 8.4855061 10.860095 7.2607241 10.860095 5.88235C10.860095 4.5011711 10.167619 3.2743752 9.1210613 2.7064438C8.8783531 2.5747344 8.7883701 2.271209 8.9200802 2.0285008C9.0517893 1.7857927 9.3553152 1.6958104 9.5980234 1.8275199ZM8.8887215 4.0073462C9.4227839 4.4786425 9.735095 5.155827 9.735095 5.88235C9.735095 6.6421332 9.3934164 7.3470163 8.8166485 7.8185816C8.6028652 7.993371 8.2878647 7.96176 8.1130762 7.7479768C7.9382863 7.5341935 7.9698973 7.2191935 8.1836805 7.044404C8.5305643 6.7607913 8.735095 6.3388448 8.735095 5.88235C8.735095 5.445776 8.5482121 5.0405569 8.2270489 4.7571387C8.0199995 4.5744228 8.0002728 4.2584558 8.1829891 4.0514059C8.3657045 3.8443565 8.6816721 3.82463 8.8887215 4.0073462Z"/>
</svg>
