<?xml version="1.0" encoding="UTF-8"?>
<svg width="161px" height="160px" viewBox="0 0 161 160" version="1.1" xmlns="http://www.w3.org/2000/svg" xmlns:xlink="http://www.w3.org/1999/xlink">
    <title>restart-light</title>
    <defs>
        <path d="M13.4941326,-5.45179109e-16 L136.505867,-3.6165503e-16 C141.198071,2.10131987e-16 142.899578,0.488555848 144.614977,1.4059616 C146.330377,2.32336735 147.676633,3.669623 148.594038,5.38502261 C149.511444,7.10042222 150,8.80192874 150,13.4941326 L150,23.2981379 C150,27.9903418 149.511444,29.6918483 148.594038,31.4072479 C147.676633,33.1226475 146.330377,34.4689032 144.614977,35.3863089 C142.899578,36.3037147 141.198071,36.7922705 136.505867,36.7922705 L13.4941326,36.7922705 C8.80192874,36.7922705 7.10042222,36.3037147 5.38502261,35.3863089 C3.669623,34.4689032 2.32336735,33.1226475 1.4059616,31.4072479 C0.488555848,29.6918483 2.11176508e-16,27.9903418 -3.6345274e-16,23.2981379 L1.27028688e-15,13.4941326 C-7.38073258e-16,8.80192874 0.488555848,7.10042222 1.4059616,5.38502261 C2.32336735,3.669623 3.669623,2.32336735 5.38502261,1.4059616 C7.10042222,0.488555848 8.80192874,3.16764763e-16 13.4941326,-5.45179109e-16 Z" id="path-1"></path>
        <filter x="-10.8%" y="-41.2%" width="121.5%" height="187.8%" filterUnits="objectBoundingBox" id="filter-2">
            <feMorphology radius="0.657894737" operator="dilate" in="SourceAlpha" result="shadowSpreadOuter1"></feMorphology>
            <feOffset dx="0" dy="1" in="shadowSpreadOuter1" result="shadowOffsetOuter1"></feOffset>
            <feGaussianBlur stdDeviation="5" in="shadowOffsetOuter1" result="shadowBlurOuter1"></feGaussianBlur>
            <feComposite in="shadowBlurOuter1" in2="SourceAlpha" operator="out" result="shadowBlurOuter1"></feComposite>
            <feColorMatrix values="0 0 0 0 0   0 0 0 0 0   0 0 0 0 0  0 0 0 0.1 0" type="matrix" in="shadowBlurOuter1"></feColorMatrix>
        </filter>
        <rect id="path-3" x="0" y="0" width="131.578947" height="102.492754" rx="5.26315789"></rect>
        <filter x="-13.4%" y="-13.3%" width="126.8%" height="134.5%" filterUnits="objectBoundingBox" id="filter-5">
            <feMorphology radius="0.657894737" operator="dilate" in="SourceAlpha" result="shadowSpreadOuter1"></feMorphology>
            <feOffset dx="0" dy="4" in="shadowSpreadOuter1" result="shadowOffsetOuter1"></feOffset>
            <feGaussianBlur stdDeviation="5" in="shadowOffsetOuter1" result="shadowBlurOuter1"></feGaussianBlur>
            <feComposite in="shadowBlurOuter1" in2="SourceAlpha" operator="out" result="shadowBlurOuter1"></feComposite>
            <feColorMatrix values="0 0 0 0 0   0 0 0 0 0   0 0 0 0 0  0 0 0 0.2 0" type="matrix" in="shadowBlurOuter1"></feColorMatrix>
        </filter>
    </defs>
    <g id="restart-light" stroke="none" stroke-width="1" fill="none" fill-rule="evenodd">
        <g id="编组-41" transform="translate(5, 12)">
            <g id="DDE/任务栏/任务栏模式/高效模式-Light" transform="translate(0, 99.2077)">
                <g id="bg">
                    <use fill="black" fill-opacity="1" filter="url(#filter-2)" xlink:href="#path-1"></use>
                    <use fill-opacity="0.6" fill="#F5F5F5" fill-rule="evenodd" xlink:href="#path-1"></use>
                    <path stroke-opacity="0.1" stroke="#000000" stroke-width="0.657894737" d="M136.505867,-0.328947368 C141.291228,-0.328947368 143.021893,0.180935301 144.770109,1.11589147 C146.543681,2.06440852 147.935591,3.45631873 148.884109,5.22989141 C149.819065,6.97810745 150.328947,8.70877176 150.328947,13.4941326 L150.328947,23.2981379 C150.328947,28.0834988 149.819065,29.8141631 148.884109,31.5623791 C147.935591,33.3359518 146.543681,34.727862 144.770109,35.6763791 C143.021893,36.6113352 141.291228,37.1212179 136.505867,37.1212179 L13.4941326,37.1212179 C8.70877176,37.1212179 6.97810745,36.6113352 5.22989141,35.6763791 C3.45631873,34.727862 2.06440852,33.3359518 1.11589147,31.5623791 C0.180935301,29.8141631 -0.328947368,28.0834988 -0.328947368,23.2981379 L-0.328947368,13.4941326 C-0.328947368,8.70877176 0.180935301,6.97810745 1.11589147,5.22989141 C2.06440852,3.45631873 3.45631873,2.06440852 5.22989141,1.11589147 C6.97810745,0.180935301 8.70877176,-0.328947368 13.4941326,-0.328947368 Z"></path>
                    <path stroke-opacity="0.1" stroke="#FFFFFF" stroke-width="0.657894737" d="M136.505867,0.328947368 C141.104914,0.328947368 142.777263,0.796176396 144.459846,1.69603173 C146.117073,2.58232618 147.417674,3.88292727 148.303968,5.54015382 C149.203824,7.222737 149.671053,8.89508572 149.671053,13.4941326 L149.671053,23.2981379 C149.671053,27.8971848 149.203824,29.5695335 148.303968,31.2521167 C147.417674,32.9093433 146.117073,34.2099443 144.459846,35.0962388 C142.777263,35.9960941 141.104914,36.4633232 136.505867,36.4633232 L13.4941326,36.4633232 C8.89508572,36.4633232 7.222737,35.9960941 5.54015382,35.0962388 C3.88292727,34.2099443 2.58232618,32.9093433 1.69603173,31.2521167 C0.796176396,29.5695335 0.328947368,27.8971848 0.328947368,23.2981379 L0.328947368,13.4941326 C0.328947368,8.89508572 0.796176396,7.222737 1.69603173,5.54015382 C2.58232618,3.88292727 3.88292727,2.58232618 5.54015382,1.69603173 C7.222737,0.796176396 8.89508572,0.328947368 13.4941326,0.328947368 Z" stroke-linejoin="square"></path>
                </g>
                <g id="UDE-/-TaskBar-/-TrayExpanded-Light" transform="translate(14.3684, 10.3961)" fill="#000000">
                    <rect id="矩形" fill-opacity="0.1" x="0" y="0" width="16" height="16" rx="4"></rect>
                    <path d="M11.1578947,3.39473684 C11.9572542,3.39473684 12.6052632,4.04274577 12.6052632,4.84210529 L12.6052632,11.1578947 C12.6052632,11.9572542 11.9572542,12.6052632 11.1578947,12.6052632 L4.84210529,12.6052632 C4.04274577,12.6052632 3.39473684,11.9572542 3.39473684,11.1578947 L3.39473684,4.84210529 C3.39473684,4.04274577 4.04274577,3.39473684 4.84210529,3.39473684 L11.1578947,3.39473684 Z M11.1578947,4.05263158 L4.84210529,4.05263158 C4.406091,4.05263158 4.05263158,4.406091 4.05263158,4.84210529 L4.05263158,11.1578947 C4.05263158,11.593909 4.406091,11.9473684 4.84210529,11.9473684 L11.1578947,11.9473684 C11.593909,11.9473684 11.9473684,11.593909 11.9473684,11.1578947 L11.9473684,4.84210529 C11.9473684,4.406091 11.593909,4.05263158 11.1578947,4.05263158 Z M10.6315789,9.31578947 L10.6315789,10.6315789 L5.36842105,10.6315789 L5.36842105,9.31578947 L10.6315789,9.31578947 Z M6.02631579,7.34210526 L6.02631579,8.65789474 L4.71052632,8.65789474 L4.71052632,7.34210526 L6.02631579,7.34210526 Z M8.65789474,7.34210526 L8.65789474,8.65789474 L6.68421053,8.65789474 L6.68421053,7.34210526 L8.65789474,7.34210526 Z M11.2894737,7.34210526 L11.2894737,8.65789474 L9.31578947,8.65789474 L9.31578947,7.34210526 L11.2894737,7.34210526 Z M7.34210526,5.36842105 L7.34210526,6.68421053 L4.71052632,6.68421053 L4.71052632,5.36842105 L7.34210526,5.36842105 Z M9.31578947,5.36842105 L9.31578947,6.68421053 L8,6.68421053 L8,5.36842105 L9.31578947,5.36842105 Z M11.2894737,5.36842105 L11.2894737,6.68421053 L9.97368421,6.68421053 L9.97368421,5.36842105 L11.2894737,5.36842105 Z" id="形状"></path>
                    <g id="2" transform="translate(19.1842, 3.3947)" fill-rule="nonzero">
                        <path d="M4.60526316,-8.8817842e-16 C7.14867977,-8.8817842e-16 9.21052632,2.06184655 9.21052632,4.60526316 C9.21052632,7.14867977 7.14867977,9.21052632 4.60526316,9.21052632 C2.06184655,9.21052632 0,7.14867977 0,4.60526316 C0,2.06184655 2.06184655,-8.8817842e-16 4.60526316,-8.8817842e-16 Z M4.60526316,0.657894737 C2.42519178,0.657894737 0.657894737,2.42519178 0.657894737,4.60526316 C0.657894737,6.78533454 2.42519178,8.55263158 4.60526316,8.55263158 C6.78533454,8.55263158 8.55263158,6.78533454 8.55263158,4.60526316 C8.55263158,2.42519178 6.78533454,0.657894737 4.60526316,0.657894737 Z M5.89460393,2.02351048 C6.04875826,2.17766481 6.04875826,2.42759835 5.89460393,2.58175268 L3.84736842,4.62828947 L5.89460393,6.67552878 C6.03163,6.81255485 6.04685512,7.02525832 5.94027929,7.17910159 L5.89460393,7.23377097 C5.7404496,7.3879253 5.49051606,7.3879253 5.33636174,7.23377097 L3.01035259,4.90776183 C2.85619826,4.7536075 2.85619826,4.50367396 3.01035259,4.34951963 L5.33636174,2.02351048 C5.49051606,1.86935616 5.7404496,1.86935616 5.89460393,2.02351048 Z" id="形状结合"></path>
                    </g>
                    <g id="3" transform="translate(34.9737, 4.0526)" fill-rule="nonzero">
                        <path d="M7.56578947,-6.66133815e-16 C8.47415255,-8.32997405e-16 9.21052632,0.736373767 9.21052632,1.64473684 C9.21052632,2.55309992 8.47415255,3.28947368 7.56578947,3.28947368 L1.64473684,3.28947368 C0.736373767,3.28947368 -6.99418496e-15,2.55309992 -7.10542736e-15,1.64473684 C-7.21666975e-15,0.736373767 0.736373767,-7.2131483e-16 1.64473684,-8.8817842e-16 L7.56578947,-6.66133815e-16 Z M7.56578947,0.657894737 C7.02077163,0.657894737 6.57894737,1.099719 6.57894737,1.64473684 C6.57894737,2.18975469 7.02077163,2.63157895 7.56578947,2.63157895 C8.11080732,2.63157895 8.55263158,2.18975469 8.55263158,1.64473684 C8.55263158,1.099719 8.11080732,0.657894737 7.56578947,0.657894737 Z M7.56578947,4.60526316 C8.47415255,4.60526316 9.21052632,5.34163692 9.21052632,6.25 C9.21052632,7.15836308 8.47415255,7.89473684 7.56578947,7.89473684 L1.64473684,7.89473684 C0.736373767,7.89473684 -7.10542736e-15,7.15836308 -7.10542736e-15,6.25 C-7.10542736e-15,5.34163692 0.736373767,4.60526316 1.64473684,4.60526316 L7.56578947,4.60526316 Z M6.69575422,5.26289168 L1.64473684,5.26315789 C1.099719,5.26315789 0.657894737,5.70498215 0.657894737,6.25 C0.657894737,6.79501785 1.099719,7.23684211 1.64473684,7.23684211 L6.69575422,7.23710832 C6.42241466,6.99600166 6.25,6.64313563 6.25,6.25 C6.25,5.85686437 6.42241466,5.50399834 6.69575422,5.26289168 Z" id="形状结合"></path>
                    </g>
                    <g id="5" transform="translate(66.5526, 3.0658)" fill-rule="nonzero">
                        <path d="M4.60273968,-4.4408921e-16 C6.88348063,-4.4408921e-16 8.51303037,1.6380583 8.66046163,4.37211777 L8.66665594,4.51455866 C8.68098972,4.76009379 8.67516467,5.02226053 8.64997133,5.29682983 L8.6403858,5.38421053 L8.71824979,5.51367289 C9.3065422,6.53026916 9.41616958,7.83612046 8.79178043,8.19577782 C8.52460043,8.34967736 8.36161359,8.3309284 8.03320195,8.10058293 L7.9028858,8.00460526 L7.85761973,8.10474314 C7.7670828,8.29785933 7.65872785,8.51503794 7.5324596,8.75662216 L7.32983367,9.13723752 C7.1959449,9.38463917 6.93744423,9.53897632 6.65555648,9.53946664 L2.55997432,9.53936435 C2.27749193,9.54003317 2.01747263,9.38548434 1.8833468,9.13754691 L1.69588732,8.78377366 C1.57934013,8.55758331 1.47963165,8.35062955 1.39668454,8.16242994 L1.32657001,7.99802632 L1.30879004,8.01306841 C0.931084735,8.30261476 0.747996723,8.36117612 0.483242609,8.22951844 L0.420570057,8.19577779 C-0.20381904,7.83612046 -0.0941916536,6.53026916 0.49410092,5.5136726 L0.599596325,5.34013158 L0.574362814,5.15761842 C0.561425154,5.05424026 0.550260885,4.95106327 0.540878472,4.84769834 L0.518085259,4.53665058 C0.494843608,1.91972778 2.3065241,-4.4408921e-16 4.60273968,-4.4408921e-16 Z M4.60273968,0.657894737 C2.67958697,0.657894737 1.15589698,2.27245648 1.17543364,4.5150042 C1.1910725,4.78929071 1.22223907,5.07471798 1.2683045,5.36596733 C1.28144548,5.44905139 1.2622585,5.5340129 1.21468781,5.60338636 C1.16201527,5.68019997 1.11148112,5.76031979 1.06352409,5.84319154 C0.635390746,6.58302561 0.557133223,7.51520771 0.748946183,7.62569481 C0.730908844,7.61530504 0.822977263,7.55827635 1.04027115,7.38583637 L1.2726998,7.19669607 C1.45549865,7.04832548 1.73043155,7.1344212 1.79595399,7.36055403 C1.89325518,7.69636256 2.11525512,8.1862941 2.46171529,8.82399464 C2.48091642,8.8594886 2.51806204,8.88157895 2.55920363,8.88147054 L3.00727322,8.88158645 C2.76781969,8.38503662 2.62119092,7.81839819 2.6395136,7.28255003 C2.68609733,5.92020574 3.4652435,5.61210036 4.49806806,5.59307371 L4.60579727,5.59210526 C5.69174575,5.59210526 6.51271306,5.84251845 6.57208093,7.28255003 C6.59445643,7.82529188 6.45157403,8.38956372 6.21548209,8.88203971 L6.65499185,8.88157895 C6.69517854,8.88157895 6.73210721,8.85945427 6.75123417,8.82411117 L6.84325541,8.65275262 C7.1409467,8.09505441 7.34708726,7.66425976 7.4605585,7.36439736 C7.53889532,7.15738221 7.7952104,7.08525569 7.97000992,7.22103882 L8.4343171,7.58173235 C8.46456597,7.60693954 8.47382053,7.61969494 8.4634043,7.62569484 C8.65521732,7.51520771 8.5769598,6.58302561 8.14882662,5.84319183 C8.11011133,5.77629019 8.06926355,5.71039852 8.02662515,5.64591206 C7.98337191,5.5804957 7.96491266,5.50177868 7.97457557,5.42395342 C8.00562992,5.17384095 8.01949783,4.93612351 8.01575253,4.71283278 L8.00335834,4.40420449 C7.87447206,2.01433128 6.52508125,0.657894737 4.60273968,0.657894737 Z M4.60579727,6.21052632 C3.60287059,6.21052632 3.28735166,6.43281784 3.25757344,7.30368384 C3.24034092,7.8076501 3.41572763,8.39491134 3.70918999,8.88183064 L5.51381579,8.88157895 L5.58581942,8.75672707 C5.8075414,8.34733054 5.94384013,7.880508 5.95516429,7.45131314 L5.95418475,7.3080239 C5.91881384,6.45006431 5.64768284,6.22793336 4.72460735,6.21153562 L4.60579727,6.21052632 Z M5.15324656,4.23246372 C5.27175561,4.25069985 5.35304287,4.36155372 5.33480674,4.48006277 C5.27731971,4.85364722 4.98386038,5.1011434 4.60069177,5.1011434 C4.2350812,5.1011434 3.9560483,4.84810936 3.87030954,4.49879552 C3.8417276,4.382348 3.91295672,4.2647784 4.02940424,4.23619646 C4.13129582,4.21118726 4.23404649,4.26259591 4.27728977,4.35384958 L4.2920033,4.39529117 C4.33282009,4.5615855 4.44899175,4.66693287 4.60069177,4.66693287 C4.74978902,4.66693287 4.85257185,4.59596653 4.89245439,4.47089125 L4.90564751,4.41402391 C4.92388364,4.29551486 5.03473751,4.21422759 5.15324656,4.23246372 Z M6.50858651,2.96052632 C6.83559721,2.96052632 7.10069177,3.22562087 7.10069177,3.55263158 C7.10069177,3.87964229 6.83559721,4.14473684 6.50858651,4.14473684 C6.1815758,4.14473684 5.91648124,3.87964229 5.91648124,3.55263158 C5.91648124,3.22562087 6.1815758,2.96052632 6.50858651,2.96052632 Z M2.69279703,2.96052632 C3.01980774,2.96052632 3.2849023,3.22562087 3.2849023,3.55263158 C3.2849023,3.87964229 3.01980774,4.14473684 2.69279703,4.14473684 C2.36578633,4.14473684 2.10069177,3.87964229 2.10069177,3.55263158 C2.10069177,3.22562087 2.36578633,2.96052632 2.69279703,2.96052632 Z M2.84630581,1.79585938 C2.99107437,1.79585938 3.12641612,1.83085783 3.24889656,1.93348102 C3.34080373,2.01048766 3.3528839,2.14741937 3.27587636,2.23932654 C3.19886972,2.33123371 3.06193801,2.34331298 2.97003084,2.26630634 C2.93938009,2.24062487 2.89856323,2.23006991 2.84630581,2.23006991 C2.80736907,2.23006991 2.77252896,2.23644266 2.74968552,2.24694837 L2.73113356,2.25874878 C2.64340031,2.340479 2.50602302,2.33561258 2.42429281,2.24787933 C2.34256259,2.16014608 2.34742901,2.02276879 2.43516226,1.94103858 C2.5520953,1.83210653 2.6948936,1.79585938 2.84630581,1.79585938 Z M6.35507774,1.79585938 C6.4998463,1.79585938 6.63518805,1.83085783 6.75766849,1.93348102 C6.84957566,2.01048766 6.86165583,2.14741937 6.78464829,2.23932654 C6.70764165,2.33123371 6.57070994,2.34331298 6.47880277,2.26630634 C6.44815202,2.24062487 6.40733516,2.23006991 6.35507774,2.23006991 C6.30316208,2.23006991 6.25852934,2.24139924 6.23990549,2.25874878 C6.15217224,2.340479 6.01479495,2.33561258 5.93306474,2.24787933 C5.85133452,2.16014608 5.85620094,2.02276879 5.94393419,1.94103858 C6.06086723,1.83210653 6.20366553,1.79585938 6.35507774,1.79585938 Z" id="形状"></path>
                    </g>
                    <g id="4" transform="translate(50.7632, 3.6448)" fill-rule="nonzero">
                        <path d="M2.55552827,1.97195647 L3.37977706,1.10311822 C3.50481245,0.971318782 3.71301821,0.965835435 3.84481765,1.09087082 C3.91029023,1.1529833 3.94736842,1.23926726 3.94736842,1.32951481 L3.94736842,7.51286043 C3.94736842,7.69453304 3.80009367,7.84180779 3.61842105,7.84180779 C3.5226065,7.84180779 3.43155386,7.8000319 3.36906359,7.72739999 L2.56010907,6.78715921 C2.31014796,6.49663159 1.94593741,6.32952799 1.5626792,6.32952799 L0.986842105,6.32952799 C0.44182426,6.32952799 1.07607373e-13,5.88770373 1.080247e-13,5.34268589 L0,3.36900168 C-6.6745436e-17,2.82398383 0.44182426,2.38215957 0.986842105,2.38215957 L1.60095231,2.38215957 C1.96194251,2.38215957 2.30707835,2.23384682 2.55552827,1.97195647 Z M4.85584795,1.94143717 C5.02823846,1.88410957 5.21446177,1.97738649 5.27178936,2.149777 C5.47844026,2.77119945 5.59210526,3.54282816 5.59210526,4.35518433 C5.59210526,5.24957312 5.50606516,5.86727671 5.26470356,6.5817321 C5.20655817,6.75384849 5.01989411,6.84624025 4.84777772,6.78809486 C4.67566133,6.72994947 4.58326958,6.54328541 4.64141497,6.37116902 C4.85789103,5.73037737 4.93421053,5.18246052 4.93421053,4.35518433 C4.93421053,3.61052031 4.83081388,2.90859957 4.64750812,2.35737858 C4.59018053,2.18498807 4.68345745,1.99876476 4.85584795,1.94143717 Z M6.03937833,0.902216756 C6.21601713,0.808757075 6.43497521,0.876187071 6.52843489,1.05282587 C6.57104016,1.13334983 6.6121039,1.21640365 6.65154508,1.30181988 C7.04792187,2.16023747 7.26973684,3.23017394 7.26973684,4.35518433 C7.26973684,5.48858009 7.04458065,6.56602886 6.64281082,7.42736876 C6.60605099,7.50617683 6.56790417,7.58294584 6.52843489,7.65754278 C6.43497521,7.83418158 6.21601713,7.90161158 6.03937833,7.8081519 C5.86273954,7.71469222 5.79530954,7.49573414 5.88876922,7.31909534 C5.92252986,7.25528774 5.95528712,7.189365 5.98696531,7.12145126 C6.34270972,6.35878364 6.54605263,5.38571878 6.54605263,4.35518433 C6.54605263,3.3321702 6.34569017,2.36571109 5.99452282,1.60520179 C5.96050591,1.5315327 5.92522306,1.46017108 5.88876922,1.39127331 C5.79530954,1.21463451 5.86273954,0.995676436 6.03937833,0.902216756 Z M7.67121327,0.0560577273 C7.85829379,-0.0558707872 8.1006885,0.00505194813 8.21261702,0.192132465 C8.23697397,0.232843375 8.26098826,0.274067744 8.28465138,0.315791509 C8.91624298,1.42943933 9.27631579,2.85361122 9.27631579,4.35518433 C9.27631579,5.86014556 8.91460133,7.28734046 8.28046266,8.40195118 C8.25815558,8.44115982 8.23553801,8.47992539 8.21261702,8.51823619 C8.1006885,8.7053167 7.85829379,8.76623944 7.67121327,8.65431092 C7.48413276,8.54238241 7.42321002,8.2999877 7.53513853,8.11290718 C7.55509334,8.07955414 7.57480672,8.04576626 7.59427106,8.01155423 C8.15926524,7.01847715 8.48684211,5.72597691 8.48684211,4.35518433 C8.48684211,2.98744264 8.16073651,1.69761898 7.59793053,0.705256754 C7.57727869,0.668842589 7.55634499,0.63290654 7.53513853,0.597461472 C7.42321002,0.410380955 7.48413276,0.167986242 7.67121327,0.0560577273 Z" id="形状结合"></path>
                    </g>
                </g>
                <g id="时间" transform="translate(102.4342, 8.5411)" fill="#000000">
                    <path d="M3.36842105,9.44772947 L3.36842105,0.0919806763 L2.02631579,0.0919806763 L0.197368421,1.66879227 L0.197368421,3.15362319 L2.02631579,1.5505314 L2.02631579,9.44772947 L3.36842105,9.44772947 Z M11.9210526,6.84599034 L11.9210526,2.69371981 C11.9210526,1.02492754 10.6973684,0.0131400966 9.21052632,0.0131400966 C7.72368421,0.0131400966 6.51315789,1.02492754 6.51315789,2.69371981 L6.51315789,6.84599034 C6.51315789,8.51478261 7.72368421,9.52657005 9.21052632,9.52657005 C10.6973684,9.52657005 11.9210526,8.51478261 11.9210526,6.84599034 Z M10.5789474,6.80657005 C10.5789474,7.71323671 10.0657895,8.33082126 9.21052632,8.33082126 C8.35526316,8.33082126 7.85526316,7.71323671 7.85526316,6.80657005 L7.85526316,2.7331401 C7.85526316,1.82647343 8.35526316,1.20888889 9.21052632,1.20888889 C10.0657895,1.20888889 10.5789474,1.82647343 10.5789474,2.7331401 L10.5789474,6.80657005 Z M15.6842105,5.70280193 L15.6842105,4.09971014 L14.0921053,4.09971014 L14.0921053,5.70280193 L15.6842105,5.70280193 Z M15.6842105,9.44772947 L15.6842105,7.84463768 L14.0921053,7.84463768 L14.0921053,9.44772947 L15.6842105,9.44772947 Z M23,6.81971014 C23,5.66338164 22.4868421,4.96695652 21.6842105,4.61217391 C22.4078947,4.2573913 22.8552632,3.61352657 22.8552632,2.61487923 C22.8552632,1.06434783 21.7236842,0 20.1315789,0 C18.6315789,0 17.4605263,0.959227053 17.3815789,2.54917874 L18.7236842,2.54917874 C18.7894737,1.72135266 19.3157895,1.20888889 20.1315789,1.20888889 C20.8947368,1.20888889 21.5131579,1.70821256 21.5131579,2.65429952 C21.5131579,3.5084058 21.0657895,4.07342995 20.0921053,4.07342995 L19.8684211,4.07342995 L19.8684211,5.24289855 L20.0921053,5.24289855 C21.1447368,5.24289855 21.6578947,5.8342029 21.6578947,6.78028986 C21.6578947,7.7657971 21,8.33082126 20.1315789,8.33082126 C19.3552632,8.33082126 18.6578947,7.91033816 18.6052632,6.91169082 L17.2631579,6.91169082 C17.3157895,8.73816425 18.6315789,9.53971014 20.1315789,9.53971014 C21.6973684,9.53971014 23,8.61990338 23,6.81971014 Z M29.9342105,6.84599034 L29.9342105,2.69371981 C29.9342105,1.02492754 28.7105263,0.0131400966 27.2236842,0.0131400966 C25.7368421,0.0131400966 24.5263158,1.02492754 24.5263158,2.69371981 L24.5263158,6.84599034 C24.5263158,8.51478261 25.7368421,9.52657005 27.2236842,9.52657005 C28.7105263,9.52657005 29.9342105,8.51478261 29.9342105,6.84599034 Z M28.5921053,6.80657005 C28.5921053,7.71323671 28.0789474,8.33082126 27.2236842,8.33082126 C26.3684211,8.33082126 25.8684211,7.71323671 25.8684211,6.80657005 L25.8684211,2.7331401 C25.8684211,1.82647343 26.3684211,1.20888889 27.2236842,1.20888889 C28.0789474,1.20888889 28.5921053,1.82647343 28.5921053,2.7331401 L28.5921053,6.80657005 Z" id="形状结合" fill-rule="nonzero"></path>
                    <text id="5/12-星期四" opacity="0.699999988" font-family="DIN-Medium, DIN" font-size="6.57894737" font-weight="400">
                        <tspan x="0.226973684" y="18.8206763">2024/8/15</tspan>
                    </text>
                </g>
            </g>
            <g id="补全菜单" transform="translate(15, 0)">
                <mask id="mask-4" fill="white">
                    <use xlink:href="#path-3"></use>
                </mask>
                <g id="Mask">
                    <use fill="black" fill-opacity="1" filter="url(#filter-5)" xlink:href="#path-3"></use>
                    <rect stroke-opacity="0.05" stroke="#000000" stroke-width="0.657894737" fill="#FFFFFF" fill-rule="evenodd" x="-0.328947368" y="-0.328947368" width="132.236842" height="103.150648" rx="5.26315789"></rect>
                </g>
                <rect id="矩形" fill-opacity="0.2" fill="#FFFFFF" mask="url(#mask-4)" transform="translate(65.7895, 1.971) scale(1, -1) translate(-65.7895, -1.971)" x="0" y="0" width="131.578947" height="3.94202899"></rect>
                <rect id="矩形" fill-opacity="0.2" fill="#FFFFFF" mask="url(#mask-4)" x="0" y="98.5507246" width="131.578947" height="3.94202899"></rect>
                <rect id="Rectangle" fill-opacity="0.2" fill="#FFFFFF" mask="url(#mask-4)" x="0" y="26.2801932" width="131.578947" height="23.6521739"></rect>
                <text id="拼音" mask="url(#mask-4)" font-family="SourceHanSansSC-Medium, Source Han Sans SC" font-size="9.21052632" font-weight="400" fill="#000000">
                    <tspan x="40.0526316" y="41.8558454">拼音</tspan>
                </text>
                <g id="menuitem" mask="url(#mask-4)">
                    <g transform="translate(0, 51.2464)">
                        <rect id="Rectangle" fill-opacity="0.2" fill="#FFFFFF" fill-rule="evenodd" x="0" y="0" width="131.578947" height="23.6521739"></rect>
                        <text id="配置" fill="none" font-family="SourceHanSansSC-Medium, Source Han Sans SC" font-size="9.21052632" font-weight="400">
                            <tspan x="40" y="16" fill="#000000">配置</tspan>
                        </text>
                    </g>
                </g>
                <rect id="Rectangle" fill-opacity="0.2" fill="#FFFFFF" mask="url(#mask-4)" x="0" y="74.8985507" width="131.578947" height="23.6521739"></rect>
                <text id="重新启动" mask="url(#mask-4)" font-family="SourceHanSansSC-Medium, Source Han Sans SC" font-size="9.21052632" font-weight="400" fill="#000000">
                    <tspan x="40" y="90.8985507">重新启动</tspan>
                </text>
                <path d="M32.2368421,82.1256039 L32.2368421,85.410628 L28.9473684,85.410628 L28.9473684,84.7536232 L31.0510533,84.7535459 C30.3553376,83.5508398 29.0634581,82.7826087 27.6315789,82.7826087 C25.4515076,82.7826087 23.6842105,84.5475152 23.6842105,86.7246377 C23.6842105,88.9017602 25.4515076,90.6666667 27.6315789,90.6666667 C29.8116503,90.6666667 31.5789474,88.9017602 31.5789474,86.7246377 L32.2368421,86.7246377 C32.2368421,89.2646139 30.1749956,91.3236715 27.6315789,91.3236715 C25.0881623,91.3236715 23.0263158,89.2646139 23.0263158,86.7246377 C23.0263158,84.1846614 25.0881623,82.1256039 27.6315789,82.1256039 C29.2740027,82.1256039 30.7587233,82.9922098 31.5794202,84.3549201 L31.5789474,82.1256039 L32.2368421,82.1256039 Z" id="路径" fill="#000000" fill-rule="nonzero" mask="url(#mask-4)"></path>
                <g id="menuitem_seperater" mask="url(#mask-4)" fill="#000000" fill-opacity="0.1">
                    <g transform="translate(0, 49.9315)">
                        <rect x="0" y="0" width="131.578947" height="1.31578947"></rect>
                    </g>
                </g>
                <path d="M30.7894737,33.5072464 C31.5888332,33.5072464 32.2368421,34.1543788 32.2368421,34.952657 L32.2368421,41.2599034 C32.2368421,42.0581816 31.5888332,42.705314 30.7894737,42.705314 L24.4736842,42.705314 C23.6743247,42.705314 23.0263158,42.0581816 23.0263158,41.2599034 L23.0263158,34.952657 C23.0263158,34.1543788 23.6743247,33.5072464 24.4736842,33.5072464 L30.7894737,33.5072464 Z M29.6052632,42.0483092 L29.6052632,38.763285 L28.2625,38.763285 C28.1993421,39.4991304 27.9488158,40.0976618 27.6534211,40.6101256 C27.3810526,41.078789 26.9772807,41.5223403 26.7383626,41.7659674 L26.5406579,41.9596135 L26.0909211,41.481314 L26.3119053,41.2580969 C26.5357384,41.0231177 26.8775762,40.6384805 27.0842105,40.2816232 C27.3480263,39.8217198 27.5473026,39.3545894 27.6058553,38.763285 L26.3157895,38.763285 L26.3157895,38.146029 L25.6578947,38.4745314 L25.6578947,42.0483092 L29.6052632,42.0483092 Z M30.7894737,42.0483092 C31.2254879,42.0483092 31.5789474,41.6953279 31.5789474,41.2599034 L31.5789474,38.763285 L30.2631579,38.763285 L30.2631579,42.0483092 L30.7894737,42.0483092 Z M25,38.8030338 L23.8307237,39.386914 L23.6842105,39.0924444 L23.6842105,41.2599034 C23.6842105,41.6505048 23.9686445,41.9747629 24.3419528,42.0373828 L24.3421053,41.3913043 L25,41.3913043 L25,38.8030338 Z M23.6842105,38.7232077 L25,38.0665314 L25,36.1352657 L23.6842105,36.1352657 L23.6842105,38.7232077 Z M31.5789474,38.1062802 L31.5789474,36.1352657 L30.2631579,36.1352657 L30.2631579,38.1062802 L31.5789474,38.1062802 Z M24.4736842,34.1642512 C24.0376699,34.1642512 23.6842105,34.5172325 23.6842105,34.952657 L23.6842105,35.4782609 L25,35.4782609 L25,34.1642512 L24.4736842,34.1642512 Z M29.6052632,36.1352657 L28.2894737,36.1352657 L28.2894737,38.1062802 L29.6052632,38.1062802 L29.6052632,36.1352657 Z M30.7894737,34.1642512 L30.5927632,34.1642512 L30.8552632,34.3618783 L30.0164474,35.4782609 L31.5789474,35.4782609 L31.5789474,34.952657 C31.5789474,34.5172325 31.2254879,34.1642512 30.7894737,34.1642512 Z M30.1802632,34.1642512 L27.7144737,34.1642512 L28.5528947,35.2806338 L28.2907895,35.4782609 L29.6039474,35.4782609 L29.3421053,35.2806338 L30.1802632,34.1642512 Z M25.6578947,35.4782609 L26.3157895,35.4782609 L26.3157895,36.1352657 L25.6578947,36.1352657 L25.6578947,37.738029 L26.1692763,37.4826512 L26.4623026,38.0729043 L26.3928947,38.1062802 L27.6315789,38.1062802 L27.6315789,36.1352657 L26.9736842,36.1352657 L26.9736842,35.4782609 L27.8782895,35.4782609 L27.0392105,34.3618783 L27.3019737,34.1642512 L25.6578947,34.1642512 L25.6578947,35.4782609 Z" id="形状" fill="#000000" mask="url(#mask-4)"></path>
                <rect id="Rectangle" fill-opacity="0.2" fill="#FFFFFF" mask="url(#mask-4)" x="0" y="3.94202899" width="131.578947" height="22.3381643"></rect>
                <text id="键盘-英语（美国）" mask="url(#mask-4)" font-family="SourceHanSansSC-Medium, Source Han Sans SC" font-size="9.21052632" font-weight="400" fill="#000000">
                    <tspan x="40.0526316" y="18.8745894">键盘-英语（美国）</tspan>
                </text>
                <polyline id="Path-1112" stroke="#000000" stroke-width="1.31578947" mask="url(#mask-4)" points="7.19419254 15.6414061 9.9127773 18.2906423 15.4174755 11.826087"></polyline>
                <path d="M30.7894737,10.5120773 C31.5888332,10.5120773 32.2368421,11.1592097 32.2368421,11.957488 L32.2368421,18.2647343 C32.2368421,19.0630125 31.5888332,19.7101449 30.7894737,19.7101449 L24.4736842,19.7101449 C23.6743247,19.7101449 23.0263158,19.0630125 23.0263158,18.2647343 L23.0263158,11.957488 C23.0263158,11.1592097 23.6743247,10.5120773 24.4736842,10.5120773 L30.7894737,10.5120773 Z M30.7894737,11.1690821 L24.4736842,11.1690821 C24.0376699,11.1690821 23.6842105,11.5220634 23.6842105,11.957488 L23.6842105,18.2647343 C23.6842105,18.7001588 24.0376699,19.0531401 24.4736842,19.0531401 L30.7894737,19.0531401 C31.2254879,19.0531401 31.5789474,18.7001588 31.5789474,18.2647343 L31.5789474,11.957488 C31.5789474,11.5220634 31.2254879,11.1690821 30.7894737,11.1690821 Z M30.2631579,16.4251208 L30.2631579,17.7391304 L25,17.7391304 L25,16.4251208 L30.2631579,16.4251208 Z M25.6578947,14.4541063 L25.6578947,15.7681159 L24.3421053,15.7681159 L24.3421053,14.4541063 L25.6578947,14.4541063 Z M28.2894737,14.4541063 L28.2894737,15.7681159 L26.3157895,15.7681159 L26.3157895,14.4541063 L28.2894737,14.4541063 Z M30.9210526,14.4541063 L30.9210526,15.7681159 L28.9473684,15.7681159 L28.9473684,14.4541063 L30.9210526,14.4541063 Z M26.9736842,12.4830918 L26.9736842,13.7971014 L24.3421053,13.7971014 L24.3421053,12.4830918 L26.9736842,12.4830918 Z M28.9473684,12.4830918 L28.9473684,13.7971014 L27.6315789,13.7971014 L27.6315789,12.4830918 L28.9473684,12.4830918 Z M30.9210526,12.4830918 L30.9210526,13.7971014 L29.6052632,13.7971014 L29.6052632,12.4830918 L30.9210526,12.4830918 Z" id="形状" fill="#000000" mask="url(#mask-4)"></path>
            </g>
            <rect id="矩形" stroke="#0081FF" stroke-width="2" fill-opacity="0" fill="#FFFFFF" x="15.1315789" y="74.8985507" width="131.578947" height="23.6521739" rx="5.26315789"></rect>
        </g>
    </g>
</svg>