<?xml version="1.0" encoding="UTF-8"?>
<svg width="16px" height="16px" viewBox="0 0 16 16" version="1.1" xmlns="http://www.w3.org/2000/svg" xmlns:xlink="http://www.w3.org/1999/xlink">
    <title>yixin ai</title>
    <defs>
        <linearGradient x1="91.2818327%" y1="50%" x2="15.5821473%" y2="50%" id="linearGradient-1">
            <stop stop-color="#A50D4B" offset="0%"></stop>
            <stop stop-color="#FFD46C" offset="100%"></stop>
        </linearGradient>
        <linearGradient x1="32.7502954%" y1="-6.47487146%" x2="68.9402532%" y2="87.6739146%" id="linearGradient-2">
            <stop stop-color="#1818FF" offset="0%"></stop>
            <stop stop-color="#CD28FF" offset="100%"></stop>
        </linearGradient>
        <linearGradient x1="50%" y1="30.5915898%" x2="4.34899893%" y2="108.183476%" id="linearGradient-3">
            <stop stop-color="#53C7FF" offset="0%"></stop>
            <stop stop-color="#299733" offset="100%"></stop>
        </linearGradient>
        <linearGradient x1="100%" y1="50%" x2="0%" y2="50%" id="linearGradient-4">
            <stop stop-color="#C35156" offset="0%"></stop>
            <stop stop-color="#E79E63" offset="100%"></stop>
        </linearGradient>
    </defs>
    <g id="yixin-ai" stroke="none" stroke-width="1" fill="none" fill-rule="evenodd">
        <g id="编组-34" transform="translate(1, 1.5)" fill-rule="nonzero">
            <path d="M10.8290161,9.40035257 C10.8294987,9.39469618 10.8294987,9.38900896 10.8290161,9.38335257 C10.8294987,9.38900896 10.8294987,9.39469618 10.8290161,9.40035257 Z M10.8232247,9.36481594 C10.8232247,9.35781594 10.8232247,9.35181594 10.8232247,9.34581594 C10.8232247,9.33981594 10.8222247,9.35781594 10.8232247,9.36481594 L10.8232247,9.36481594 Z M10.8104671,9.3091304 C10.8104671,9.2991304 10.8054671,9.2891304 10.8024671,9.2801304 C10.8054671,9.2891304 10.8074671,9.2991304 10.8104671,9.3091304 L10.8104671,9.3091304 Z M10.8022574,9.28172968 C10.7972574,9.26572968 10.7912574,9.24972968 10.7852574,9.23472968 C10.7912574,9.24972968 10.7972574,9.26572968 10.8022574,9.28172968 L10.8022574,9.28172968 Z M10.7893503,9.24491243 C10.7823503,9.22691243 10.7733503,9.20891243 10.7653503,9.19091243 C10.7733503,9.20891243 10.7823503,9.22691243 10.7893503,9.24491243 L10.7893503,9.24491243 Z M10.7771661,9.21475711 C10.7631661,9.18675711 10.7491661,9.15875711 10.7331661,9.13075711 C10.7491661,9.15875711 10.7631661,9.18675711 10.7771661,9.21475711 L10.7771661,9.21475711 Z M10.5535741,12.989527 L10.434334,12.989527 C9.94304632,12.9793901 10.0137585,12.981694 10.3622353,12.989527 L3.45000757,12.989527 C0.79807104,12.9936739 -0.85927375,10.1263111 0.466694516,7.83306586 C0.454215902,7.85472198 0.442199459,7.8763781 0.430183016,7.89803422 C-0.370296955,9.75631391 2.35882211,10.1465849 4.13263397,10.1696233 C4.18326916,10.1698743 4.23337509,10.1593494 4.27960431,10.1387518 L4.27220957,10.1387518 C4.47245811,10.1390487 4.65771234,10.0330087 4.75841334,9.86044761 C4.85856282,9.68731967 5.04369084,9.58054868 5.24415494,9.58030031 L8.75665366,9.58030031 C8.9577782,9.57988952 9.14376465,9.68674891 9.24424394,9.86044761 L9.24424394,9.86044761 C9.34418354,10.0337844 9.52944449,10.140632 9.72998554,10.1405949 L10.131612,10.1405949 C10.3231045,10.141075 10.5058832,10.060856 10.6348487,9.91973165 C10.7638141,9.77860727 10.8269553,9.58972083 10.8086924,9.39967903 C11.6059372,10.9358815 12.303353,12.9268625 10.604875,12.9913701" id="形状" fill="url(#linearGradient-1)"></path>
            <path d="M9.98128881,1.71900117 L13.5332878,7.81140973 C14.850937,10.0894496 13.222709,12.9323917 10.5998892,12.9683317 C12.2988294,12.9038241 11.6014135,10.912843 10.8037066,9.37433675 C10.7944281,9.27825928 10.7643076,9.18534176 10.7154319,9.10202252 L7.58514854,3.69167786 C7.47105351,3.49508698 7.26538512,3.36893671 7.03793452,3.35603466 C6.81048392,3.34313261 6.59179042,3.44521111 6.45606508,3.62763103 L5.54605061,3.46590126 L7.56182424,0.0468719979 C8.58108134,0.209235649 9.47117981,0.824396393 9.98128881,1.71900117 Z M10.4307347,13.000174 L10.358636,13.000174 C10.0101592,12.983174 9.93944703,12.978174 10.4307347,13.000174 Z" id="形状" fill="url(#linearGradient-2)"></path>
            <path d="M9.89501895,1.58513819 C9.92274921,1.62891121 9.95047946,1.67360576 9.9768232,1.71922185 L10.0193429,1.79202328 C9.99346135,1.75239719 9.9657311,1.7067811 9.93661433,1.65379271 C9.92274921,1.63075428 9.90842191,1.60771585 9.89501895,1.58513819 Z M9.77901406,1.41419305 C8.78303581,0.0973164485 7.43026163,2.0689452 6.47541659,3.64200913 C6.44996084,3.67220887 6.42722638,3.70458813 6.40747747,3.73877053 L3.2767319,9.15095827 C3.15552961,9.35986942 3.15533223,9.61737719 3.2762141,9.82647279 C3.39709597,10.0355684 3.62069044,10.164482 3.86276458,10.1646491 L4.26993713,10.1646491 C4.22370791,10.1852467 4.17360198,10.1957716 4.12296679,10.195525 C2.34915494,10.1724822 -0.379964134,9.78082892 0.420978008,7.92439231 C0.432994451,7.90273619 0.444548723,7.8806193 0.457027337,7.85896317 L4.00834841,1.71968262 C5.27423446,-0.466664293 8.34674649,-0.568033381 9.77901406,1.41419305 Z" id="形状" fill="url(#linearGradient-3)"></path>
            <path d="M7.18860593,6.39362481 C7.13976438,6.30865819 7.04904748,6.2562484 6.95081901,6.2562484 C6.85259053,6.2562484 6.76187363,6.30865819 6.71303209,6.39362481 L5.91856034,7.76671518 C5.87106651,7.85168358 5.87185627,7.95528388 5.92063998,8.03952279 C5.9694237,8.12376171 6.05902268,8.1762432 6.15657834,8.17772076 L7.74505967,8.17772076 C7.84324818,8.17774705 7.93397496,8.1254905 7.98299792,8.04067376 C8.03202088,7.95585703 8.03187507,7.85139556 7.9826155,7.76671518 L7.18860593,6.39362481 Z" id="路径" fill="url(#linearGradient-4)"></path>
        </g>
    </g>
</svg>