<svg xmlns="http://www.w3.org/2000/svg" width="24" height="24" viewBox="0 0 24 24">
  <g fill="none" transform="translate(0 1)">
    <path fill="#0081FF" d="M0.154928266,14.486497 L2.50315499,13.1307477 C2.71306948,15.3855793 4.90570508,19.1833356 6.75313514,20.4919293 L4.40490842,21.8476786 C3.20828114,21.6323084 1.92039974,20.3777153 1.05482045,18.8784879 C0.187116172,17.37558 -0.256091534,15.6275889 0.154928266,14.486497 Z M15.7772487,10.37849 C18.6246114,15.3031921 18.4039727,19.3835324 16.224227,19.8241001 L16.0991025,19.8387296 C14.9807314,19.9249119 8.37961394,19.7900749 8.37961394,19.7900749 C6.37079294,19.1341101 3.51338961,14.1849424 3.94971796,12.11727 L7.18384089,6.3551895 C7.52688262,5.75248433 7.76849312,5.3357916 7.81177769,5.28022703 C9.07790634,3.66097807 12.9287213,5.4503709 15.7772487,10.37849 Z M10.9774052,6.85750658 C9.52962919,5.84163431 8.3475039,6.55521521 8.50351929,8.28744107 C8.59296362,9.27536278 9.01531124,10.58064 9.46019328,11.6586149 L9.78347319,11.4719691 C10.7569935,10.9099069 12.0016805,11.2439355 12.5640945,12.2180652 C13.1265086,13.1921949 12.7934423,14.4371397 11.819922,14.9992019 L11.5040033,15.1815977 C12.2048451,16.0880747 13.1349147,17.1337528 13.9756721,17.7541544 C15.386054,18.7973415 16.6445044,18.0388764 16.4489445,16.3245741 C16.0686161,12.9900773 13.5773715,8.82862962 11.1937407,7.01575509 L10.9774052,6.85750658 Z"/>
    <path fill="#858EA1" d="M12.4434283 4.39926647C15.4428938 5.80662686 17.5492191 8.57867809 18.7600585 12.757606 18.8415472 13.0388454 19.1425272 13.2027242 19.4323161 13.1236395 19.7221049 13.0445549 19.8909655 12.7524544 19.8094767 12.471215 18.5197105 8.01988949 16.223307 4.99768399 12.9179206 3.44678435 12.6469044 3.31962251 12.3209836 3.42975786 12.1899561 3.69277853 12.0589287 3.95579921 12.1724121 4.27210463 12.4434283 4.39926647zM13.4652451 1.3447197C17.77035 3.29263249 20.7886911 7.12324691 22.5223496 12.893119 22.6347108 13.2670739 23.0381634 13.4818247 23.4234861 13.3727783 23.8088089 13.263732 24.0300879 12.8721821 23.9177267 12.4982273 22.0740609 6.36223458 18.7939328 2.19938302 14.0794233.0662286348 13.7156454-.0983683891 13.2832568.0543993334 13.1136562.407444893 12.9440556.760490453 13.1014673 1.18012268 13.4652451 1.3447197z"/>
  </g>
</svg>
