<?xml version="1.0" encoding="UTF-8"?>
<svg width="16px" height="17px" viewBox="0 0 16 17" version="1.1" xmlns="http://www.w3.org/2000/svg" xmlns:xlink="http://www.w3.org/1999/xlink">
    <title>翻译</title>
    <defs>
        <filter x="-15.0%" y="-7.5%" width="130.0%" height="130.0%" filterUnits="objectBoundingBox" id="filter-1">
            <feOffset dx="0" dy="1" in="SourceAlpha" result="shadowOffsetOuter1"></feOffset>
            <feGaussianBlur stdDeviation="0.5" in="shadowOffsetOuter1" result="shadowBlurOuter1"></feGaussianBlur>
            <feColorMatrix values="0 0 0 0 0   0 0 0 0 0   0 0 0 0 0  0 0 0 0.15 0" type="matrix" in="shadowBlurOuter1" result="shadowMatrixOuter1"></feColorMatrix>
            <feMerge>
                <feMergeNode in="shadowMatrixOuter1"></feMergeNode>
                <feMergeNode in="SourceGraphic"></feMergeNode>
            </feMerge>
        </filter>
        <linearGradient x1="23.1561783%" y1="-17.2542723%" x2="23.1561783%" y2="120.736428%" id="linearGradient-2">
            <stop stop-color="#00F34A" offset="0%"></stop>
            <stop stop-color="#00AEA2" offset="100%"></stop>
        </linearGradient>
        <linearGradient x1="66.1637766%" y1="95.8394378%" x2="66.1637766%" y2="-10.611406%" id="linearGradient-3">
            <stop stop-color="#E0F6FF" offset="0%"></stop>
            <stop stop-color="#CCE8FF" offset="100%"></stop>
        </linearGradient>
        <linearGradient x1="47.1097156%" y1="-8.1491358%" x2="47.1097156%" y2="100.363712%" id="linearGradient-4">
            <stop stop-color="#0CC8EF" offset="0%"></stop>
            <stop stop-color="#047AFA" offset="100%"></stop>
        </linearGradient>
        <path d="M9.06638889,6.79472222 C8.9625,7.08805556 8.81888889,7.33555556 8.63861111,7.54333333 C8.43388889,7.32638889 8.27194444,7.07583333 8.15277778,6.79472222 L9.06638889,6.79472222 Z M10.0288889,6.79472222 L10.0288889,6.36083333 L8.74555556,6.36083333 L8.99305556,6.28444444 C8.9625,6.15611111 8.87694444,5.96361111 8.80055556,5.82 L8.32388889,5.96055556 C8.38194444,6.08277778 8.43694444,6.23861111 8.4675,6.36083333 L7.20861111,6.36083333 L7.20861111,6.79472222 L7.69138889,6.79472222 C7.85027778,7.20722222 8.04583333,7.55861111 8.29944444,7.85194444 C7.99083333,8.07805556 7.60888889,8.23694444 7.14138889,8.34083333 C7.22694444,8.44472222 7.36138889,8.6525 7.41027778,8.75944444 C7.89305556,8.625 8.29638889,8.4325 8.62944444,8.16972222 C8.94416667,8.42333333 9.32611111,8.61277778 9.79666667,8.735 C9.86388889,8.61277778 9.99527778,8.41722222 10.0961111,8.31944444 C9.65305556,8.22166667 9.28333333,8.05972222 8.97777778,7.83972222 C9.22833333,7.55555556 9.42388889,7.21027778 9.5675,6.79472222 L10.0288889,6.79472222 Z" id="path-5"></path>
        <linearGradient x1="66.1637766%" y1="95.8394378%" x2="66.1637766%" y2="-10.611406%" id="linearGradient-6">
            <stop stop-color="#E0F6FF" offset="0%"></stop>
            <stop stop-color="#CCE8FF" offset="100%"></stop>
        </linearGradient>
        <path d="M9.23611111,3.81944444 L8.40277778,3.125 L9.23611111,2.43055556 L9.23577778,2.78155556 L9.28004832,2.78431863 C9.76357204,2.84047915 10.1388889,3.2514096 10.1388889,3.75 L10.1389352,3.84482033 C9.98964702,3.62024023 9.73433146,3.47222222 9.44444444,3.47222222 L9.23577778,3.47155556 L9.23611111,3.81944444 Z" id="path-7"></path>
        <filter x="-57.6%" y="-141.4%" width="330.4%" height="382.8%" filterUnits="objectBoundingBox" id="filter-8">
            <feOffset dx="1" dy="0" in="SourceAlpha" result="shadowOffsetOuter1"></feOffset>
            <feGaussianBlur stdDeviation="0.5" in="shadowOffsetOuter1" result="shadowBlurOuter1"></feGaussianBlur>
            <feColorMatrix values="0 0 0 0 0   0 0 0 0 0   0 0 0 0 0  0 0 0 0.0783503606 0" type="matrix" in="shadowBlurOuter1"></feColorMatrix>
        </filter>
        <linearGradient x1="66.1637766%" y1="95.8394378%" x2="66.1637766%" y2="-10.611406%" id="linearGradient-9">
            <stop stop-color="#FFEFD9" offset="0%"></stop>
            <stop stop-color="#FFF9F0" offset="100%"></stop>
        </linearGradient>
        <path d="M3.68062607,10.763995 L2.84729273,10.0695505 L3.68062607,9.37510609 L3.68029273,9.72610609 L3.72456327,9.72886916 C4.20808699,9.78502968 4.58340384,10.1959601 4.58340384,10.6945505 L4.58345015,10.7893709 C4.43416198,10.5647908 4.17884642,10.4167728 3.8889594,10.4167728 L3.68029273,10.4161061 L3.68062607,10.763995 Z" id="path-10"></path>
        <filter x="-57.6%" y="-141.4%" width="330.4%" height="382.8%" filterUnits="objectBoundingBox" id="filter-11">
            <feOffset dx="1" dy="0" in="SourceAlpha" result="shadowOffsetOuter1"></feOffset>
            <feGaussianBlur stdDeviation="0.5" in="shadowOffsetOuter1" result="shadowBlurOuter1"></feGaussianBlur>
            <feColorMatrix values="0 0 0 0 0   0 0 0 0 0   0 0 0 0 0  0 0 0 0.0783503606 0" type="matrix" in="shadowBlurOuter1"></feColorMatrix>
        </filter>
        <linearGradient x1="66.1637766%" y1="95.8394378%" x2="66.1637766%" y2="-10.611406%" id="linearGradient-12">
            <stop stop-color="#FFF5E8" offset="0%"></stop>
            <stop stop-color="#FFF9F0" offset="100%"></stop>
        </linearGradient>
        <path d="M3.61111111,2.63888889 L7.2206811,2.63888889 C7.52750596,2.63888889 7.77623666,2.88761958 7.77623666,3.19444444 C7.77623666,3.23587211 7.77160282,3.2771698 7.76242158,3.31756728 L6.62605794,8.31756728 C6.56857203,8.57050527 6.34370571,8.75 6.08431747,8.75 L3.61111111,8.75 C2.99746139,8.75 2.5,8.25253861 2.5,7.63888889 L2.5,3.75 C2.5,3.13635028 2.99746139,2.63888889 3.61111111,2.63888889 Z" id="path-13"></path>
        <filter x="-18.5%" y="-32.7%" width="171.3%" height="165.5%" filterUnits="objectBoundingBox" id="filter-14">
            <feOffset dx="1" dy="0" in="SourceAlpha" result="shadowOffsetOuter1"></feOffset>
            <feGaussianBlur stdDeviation="0.5" in="shadowOffsetOuter1" result="shadowBlurOuter1"></feGaussianBlur>
            <feColorMatrix values="0 0 0 0 0   0 0 0 0 0   0 0 0 0 0  0 0 0 0.0783503606 0" type="matrix" in="shadowBlurOuter1"></feColorMatrix>
        </filter>
        <linearGradient x1="50%" y1="33.0695522%" x2="50%" y2="100%" id="linearGradient-15">
            <stop stop-color="#FFCC33" offset="0%"></stop>
            <stop stop-color="#FF9933" offset="100%"></stop>
        </linearGradient>
        <path d="M4.52888889,5.66555556 C4.61444444,5.36611111 4.7,5.03944444 4.77388889,4.72444444 L4.79333333,4.72444444 C4.875,5.03555556 4.95277778,5.36611111 5.04222222,5.66555556 L5.12777778,5.98055556 L4.44333333,5.98055556 L4.52888889,5.66555556 Z M3.53333333,7.16666667 L4.11666667,7.16666667 L4.31888889,6.42777778 L5.25222222,6.42777778 L5.45444444,7.16666667 L6.05722222,7.16666667 L5.13166667,4.285 L4.455,4.285 L3.53333333,7.16666667 Z" id="path-16"></path>
    </defs>
    <g id="v2.8" stroke="none" stroke-width="1" fill="none" fill-rule="evenodd">
        <g id="切图" transform="translate(-363, -479)">
            <g id="翻译" transform="translate(363, 479)">
                <rect id="矩形" x="0" y="0" width="16" height="16"></rect>
                <g id="编组" filter="url(#filter-1)" transform="translate(1.3333, 1.3333)">
                    <path d="M2.94294294,0 L10.3903904,0 C12.0157329,0 13.3333333,1.31760044 13.3333333,2.94294294 L13.3333333,10.3903904 C13.3333333,12.0157329 12.0157329,13.3333333 10.3903904,13.3333333 L2.94294294,13.3333333 C1.31760044,13.3333333 0,12.0157329 0,10.3903904 L0,2.94294294 C0,1.31760044 1.31760044,0 2.94294294,0 Z" id="蒙版备份-2" fill="url(#linearGradient-2)"></path>
                    <path d="M6.52777778,4.44444444 L10.1373478,4.44444444 C10.4441726,4.44444444 10.6929033,4.69317514 10.6929033,5 C10.6929033,5.04142767 10.6882695,5.08272535 10.6790882,5.12312284 L9.54272461,10.1231228 C9.4852387,10.3760608 9.26037237,10.5555556 9.00098413,10.5555556 L6.52777778,10.5555556 C5.91412806,10.5555556 5.41666667,10.0580942 5.41666667,9.44444444 L5.41666667,5.55555556 C5.41666667,4.94190583 5.91412806,4.44444444 6.52777778,4.44444444 Z" id="矩形" fill="url(#linearGradient-3)" fill-rule="nonzero" opacity="0.998" transform="translate(8.125, 7.5) scale(-1, -1) translate(-8.125, -7.5)"></path>
                    <g id="形状" fill-rule="nonzero">
                        <use fill="#FFFFFF" xlink:href="#path-5"></use>
                        <use fill="url(#linearGradient-4)" xlink:href="#path-5"></use>
                    </g>
                    <g id="形状结合" opacity="0.998" fill-rule="nonzero">
                        <use fill="black" fill-opacity="1" filter="url(#filter-8)" xlink:href="#path-7"></use>
                        <use fill="url(#linearGradient-6)" xlink:href="#path-7"></use>
                    </g>
                    <g id="形状结合" opacity="0.998" fill-rule="nonzero" transform="translate(3.7154, 10.0822) scale(-1, -1) translate(-3.7154, -10.0822)">
                        <use fill="black" fill-opacity="1" filter="url(#filter-11)" xlink:href="#path-10"></use>
                        <use fill="url(#linearGradient-9)" xlink:href="#path-10"></use>
                    </g>
                    <g id="矩形" opacity="0.998" fill-rule="nonzero">
                        <use fill="black" fill-opacity="1" filter="url(#filter-14)" xlink:href="#path-13"></use>
                        <use fill="url(#linearGradient-12)" xlink:href="#path-13"></use>
                    </g>
                    <g id="形状" fill-rule="nonzero">
                        <use fill="#FFFFFF" xlink:href="#path-16"></use>
                        <use fill="url(#linearGradient-15)" xlink:href="#path-16"></use>
                    </g>
                </g>
            </g>
        </g>
    </g>
</svg>