<?xml version="1.0" encoding="UTF-8"?>
<svg width="36px" height="36px" viewBox="0 0 36 36" version="1.1" xmlns="http://www.w3.org/2000/svg" xmlns:xlink="http://www.w3.org/1999/xlink">
    <title>写作36</title>
    <defs>
        <filter x="-6.7%" y="-3.3%" width="113.3%" height="113.3%" filterUnits="objectBoundingBox" id="filter-1">
            <feOffset dx="0" dy="1" in="SourceAlpha" result="shadowOffsetOuter1"></feOffset>
            <feGaussianBlur stdDeviation="0.5" in="shadowOffsetOuter1" result="shadowBlurOuter1"></feGaussianBlur>
            <feColorMatrix values="0 0 0 0 0   0 0 0 0 0   0 0 0 0 0  0 0 0 0.15 0" type="matrix" in="shadowBlurOuter1" result="shadowMatrixOuter1"></feColorMatrix>
            <feMerge>
                <feMergeNode in="shadowMatrixOuter1"></feMergeNode>
                <feMergeNode in="SourceGraphic"></feMergeNode>
            </feMerge>
        </filter>
        <linearGradient x1="50%" y1="3.58929639%" x2="50%" y2="97.2180704%" id="linearGradient-2">
            <stop stop-color="#EFF5FF" offset="0%"></stop>
            <stop stop-color="#E1EEFF" offset="100%"></stop>
        </linearGradient>
        <linearGradient x1="64.1867976%" y1="11.4861714%" x2="92.7708671%" y2="91.4090245%" id="linearGradient-3">
            <stop stop-color="#00E0E3" offset="0%"></stop>
            <stop stop-color="#0D94EC" offset="100%"></stop>
        </linearGradient>
        <path d="M6.62162162,0 L23.3783784,0 C27.035399,0 30,2.96460098 30,6.62162162 L30,23.3783784 C30,27.035399 27.035399,30 23.3783784,30 L6.62162162,30 C2.96460098,30 0,27.035399 0,23.3783784 L0,6.62162162 C0,2.96460098 2.96460098,0 6.62162162,0 Z" id="path-4"></path>
        <linearGradient x1="50%" y1="3.58929639%" x2="50%" y2="97.2180704%" id="linearGradient-5">
            <stop stop-color="#EFF5FF" offset="0%"></stop>
            <stop stop-color="#E1EEFF" offset="100%"></stop>
        </linearGradient>
        <rect id="path-6" x="6.25" y="6.25" width="16.875" height="18.125" rx="2.5"></rect>
        <path d="M1.25,0 C1.94035594,-1.26816328e-16 2.5,0.559644063 2.5,1.25 L2.5,11.25 L2.5,11.25 L1.25,13.125 L0,11.25 L0,1.25 C-8.45442189e-17,0.559644063 0.559644063,1.26816328e-16 1.25,0 Z" id="path-7"></path>
    </defs>
    <g id="v2.8" stroke="none" stroke-width="1" fill="none" fill-rule="evenodd">
        <g id="切图" transform="translate(-585, -404)">
            <g id="写作36" transform="translate(585, 404)">
                <rect id="矩形" x="0" y="0" width="36" height="36"></rect>
                <g id="编组-6备份" filter="url(#filter-1)" transform="translate(3, 3)">
                    <g id="编组-4备份">
                        <g id="蒙版备份-2">
                            <use fill="url(#linearGradient-2)" xlink:href="#path-4"></use>
                            <use fill="url(#linearGradient-3)" xlink:href="#path-4"></use>
                        </g>
                        <g id="message-fill" transform="translate(4.0625, 6.25)"></g>
                    </g>
                    <g id="矩形">
                        <use fill="url(#linearGradient-5)" xlink:href="#path-6"></use>
                        <use fill="#C4F8FE" xlink:href="#path-6"></use>
                    </g>
                    <rect id="矩形" fill="#21B8FC" x="9.375" y="10" width="10.625" height="1.25" rx="0.625"></rect>
                    <rect id="矩形备份-2" fill="#21B8FC" x="9.375" y="13.125" width="10.625" height="1.25" rx="0.625"></rect>
                    <rect id="矩形备份-3" fill="#21B8FC" x="9.375" y="16.25" width="6.25" height="1.25" rx="0.625"></rect>
                    <rect id="矩形备份-4" fill="#21B8FC" x="9.375" y="19.375" width="5.3125" height="1.25" rx="0.625"></rect>
                    <g id="编组-5" transform="translate(20.625, 15.625) rotate(-315) translate(-20.625, -15.625)translate(19.375, 9.0625)">
                        <g id="椭圆形" transform="translate(0, 0)">
                            <mask id="mask-8" fill="white">
                                <use xlink:href="#path-7"></use>
                            </mask>
                            <use id="蒙版" fill="#FFD05C" xlink:href="#path-7"></use>
                            <path d="M1.25,14.375 C2.28553391,14.375 3.125,13.5355339 3.125,12.5 C3.125,11.4644661 2.28553391,10.625 1.25,10.625 C0.214466094,10.625 -0.625,11.4644661 -0.625,12.5 C-0.625,13.5355339 0.214466094,14.375 1.25,14.375 Z" fill="#565F85" mask="url(#mask-8)"></path>
                        </g>
                        <rect id="矩形" fill="#1689FC" x="0" y="2.1875" width="2.5" height="1.5625"></rect>
                        <path d="M1.25,2.27373675e-13 C1.94035594,2.27246859e-13 2.5,0.559644063 2.5,1.25 L2.5,2.1875 L2.5,2.1875 L0,2.1875 L0,1.25 C-8.45442189e-17,0.559644063 0.559644063,2.27500492e-13 1.25,2.27373675e-13 Z" id="矩形备份-5" fill="#FD5E5E"></path>
                    </g>
                </g>
            </g>
        </g>
    </g>
</svg>