<?xml version="1.0" encoding="UTF-8"?>
<svg width="120px" height="120px" viewBox="0 0 120 120" version="1.1" xmlns="http://www.w3.org/2000/svg" xmlns:xlink="http://www.w3.org/1999/xlink">
    <title>编组</title>
    <g id="v2.10" stroke="none" stroke-width="1" fill="none" fill-rule="evenodd">
        <g id="dark" transform="translate(-1398, -647)">
            <g id="编组" transform="translate(1338, 647)">
                <rect id="矩形-2" fill-opacity="0.05" fill="#FFFFFF" x="60" y="0" width="120" height="120" rx="8"></rect>
                <g transform="translate(80, 24)">
                    <rect id="矩形-6" opacity="0.218195565" x="0" y="0" width="80" height="72"></rect>
                    <path d="M69,12 L69.0005264,28.7615374 C67.7365339,28.1739142 66.3971133,27.7212196 65.0007695,27.4219587 L65,16 L9,16 L9,41.954 L26.4291004,27 L42.3028001,42.6030429 C42.1038655,43.7052386 42,44.8404897 42,46 C42,51.5404083 44.3714049,56.5269452 48.1545765,59.9999726 L5,60 L5,12 L69,12 Z M61,32 C68.7319865,32 75,38.2680135 75,46 C75,53.7319865 68.7319865,60 61,60 C53.2680135,60 47,53.7319865 47,46 C47,38.2680135 53.2680135,32 61,32 Z M61,50.5 C60.1715729,50.5 59.5,51.1715729 59.5,52 C59.5,52.8284271 60.1715729,53.5 61,53.5 C61.8284271,53.5 62.5,52.8284271 62.5,52 C62.5,51.1715729 61.8284271,50.5 61,50.5 Z M61.4591482,39 L60.515296,39.0003266 L60.4897569,39.0013062 C59.9381935,39.0295252 59.5139391,39.4995316 59.542158,40.051095 L59.9514523,48.051095 C59.9786566,48.5828258 60.4177199,49 60.9501461,49 L61.0498539,49 C61.5822801,49 62.0213434,48.5828258 62.0485477,48.051095 L62.457842,40.051095 C62.4587126,40.0340772 62.4591482,40.01704 62.4591482,40 C62.4591482,39.4477153 62.0114329,39 61.4591482,39 Z" id="形状结合" fill-opacity="0.2" fill="#FFFFFF" fill-rule="nonzero"></path>
                </g>
            </g>
        </g>
    </g>
</svg>