<?xml version="1.0" encoding="UTF-8"?>
<svg width="36px" height="36px" viewBox="0 0 36 36" version="1.1" xmlns="http://www.w3.org/2000/svg" xmlns:xlink="http://www.w3.org/1999/xlink">
    <title>UOSAI-36</title>
    <defs>
        <filter x="-6.7%" y="-3.3%" width="113.3%" height="113.3%" filterUnits="objectBoundingBox" id="filter-1">
            <feOffset dx="0" dy="1" in="SourceAlpha" result="shadowOffsetOuter1"></feOffset>
            <feGaussianBlur stdDeviation="0.5" in="shadowOffsetOuter1" result="shadowBlurOuter1"></feGaussianBlur>
            <feColorMatrix values="0 0 0 0 0   0 0 0 0 0   0 0 0 0 0  0 0 0 0.2 0" type="matrix" in="shadowBlurOuter1" result="shadowMatrixOuter1"></feColorMatrix>
            <feMerge>
                <feMergeNode in="shadowMatrixOuter1"></feMergeNode>
                <feMergeNode in="SourceGraphic"></feMergeNode>
            </feMerge>
        </filter>
        <linearGradient x1="108.214078%" y1="39.0940622%" x2="50%" y2="22.6773233%" id="linearGradient-2">
            <stop stop-color="#6448FF" offset="0%"></stop>
            <stop stop-color="#FF37DF" offset="100%"></stop>
        </linearGradient>
        <linearGradient x1="7.56318058%" y1="59.477802%" x2="56.6767213%" y2="26.2923136%" id="linearGradient-3">
            <stop stop-color="#FF02AA" offset="0%"></stop>
            <stop stop-color="#FF8BF4" stop-opacity="0" offset="100%"></stop>
        </linearGradient>
        <linearGradient x1="50%" y1="34.5476641%" x2="22.8225671%" y2="92.5161165%" id="linearGradient-4">
            <stop stop-color="#FB6060" stop-opacity="0" offset="0%"></stop>
            <stop stop-color="#FCA506" offset="100%"></stop>
        </linearGradient>
        <path d="M6.62162162,0 L23.3783784,0 C27.035399,0 30,2.96460098 30,6.62162162 L30,23.3783784 C30,27.035399 27.035399,30 23.3783784,30 L6.62162162,30 C2.96460098,30 0,27.035399 0,23.3783784 L0,6.62162162 C0,2.96460098 2.96460098,0 6.62162162,0 Z" id="path-5"></path>
        <filter x="-12.8%" y="-9.0%" width="125.7%" height="128.2%" filterUnits="objectBoundingBox" id="filter-6">
            <feOffset dx="0" dy="1" in="SourceAlpha" result="shadowOffsetOuter1"></feOffset>
            <feGaussianBlur stdDeviation="0.5" in="shadowOffsetOuter1" result="shadowBlurOuter1"></feGaussianBlur>
            <feColorMatrix values="0 0 0 0 0.402470336   0 0 0 0 0.462433474   0 0 0 0 0.713599164  0 0 0 0.244004043 0" type="matrix" in="shadowBlurOuter1" result="shadowMatrixOuter1"></feColorMatrix>
            <feMerge>
                <feMergeNode in="shadowMatrixOuter1"></feMergeNode>
                <feMergeNode in="SourceGraphic"></feMergeNode>
            </feMerge>
        </filter>
    </defs>
    <g id="UOSAI-36" stroke="none" stroke-width="1" fill="none" fill-rule="evenodd">
        <g id="apps/48/UosAiAssistant" transform="translate(3, 3)" fill-rule="nonzero">
            <g id="编组-3" filter="url(#filter-1)">
                <g id="矩形备份">
                    <use fill="url(#linearGradient-2)" xlink:href="#path-5"></use>
                    <use fill="url(#linearGradient-3)" xlink:href="#path-5"></use>
                    <use fill="url(#linearGradient-4)" xlink:href="#path-5"></use>
                </g>
                <g id="编组-2" filter="url(#filter-6)" transform="translate(4.2637, 5.25)" stroke="#FFFFFF" stroke-width="1.5">
                    <path d="M7.39444539,19.5 C5.95400256,19.5 4.6217322,18.7129684 3.89468812,17.4694723 L2.45703733,15.1016725 C2.43785186,15.0700742 2.44791447,15.0289058 2.47951279,15.0097203 C2.48998451,15.0033622 2.50200036,15 2.51425116,15 L7.08199646,15 C7.79532928,15 8.45511456,14.621562 8.81527694,14.0058293 L13.3495202,6.25409797 C13.7096826,5.63836525 14.3694679,5.25992724 15.0828007,5.25992724 L19.459636,5.25992724 C19.4840514,5.25992724 19.5065299,5.27322134 19.5182916,5.29461696 L20.9099545,7.82618112 L20.9099545,7.82618112 C21.6285497,9.0888555 21.61654,10.6395238 20.8784737,11.8909166 L17.5804169,17.4827775 C16.851443,18.718754 15.5234086,19.5 14.0884729,19.5 L7.39444539,19.5 Z" id="路径"></path>
                    <path d="M6.75022757,5.52262274 L6.75022757,10.0916961 C6.75022757,10.8050289 7.12866558,11.4648142 7.7443983,11.8249766 L15.5479122,16.3895092 C15.8350915,16.5574899 15.9317211,16.92647 15.7637405,17.2136493 C15.7063437,17.3117746 15.6223535,17.3916567 15.5214754,17.4440646 L13.1539836,18.674018 C12.3381685,19.0978482 11.3619523,19.0734679 10.5683107,18.6094426 L3.57622662,14.5213206 C2.75500225,14.0411683 2.25022757,13.1613154 2.25022757,12.2100238 L2.25022757,10.363773 C2.25022757,8.94682395 2.996912,7.63473525 4.21511142,6.91104008 L6.64910739,5.4650772 C6.68088892,5.44619676 6.72195856,5.45665516 6.740839,5.48843669 C6.74698428,5.49878107 6.75022757,5.51059067 6.75022757,5.52262274 Z" id="路径-70" opacity="0.847593762" stroke-linejoin="round" transform="translate(9.3703, 12.38) rotate(-90) translate(-9.3703, -12.38)"></path>
                    <path d="M5.41737175,15 C3.97692891,15 2.64465855,14.2507048 1.91761447,13.0072088 L0.0591727152,9.84088829 C0.0404605331,9.8090074 0.051135875,9.76799362 0.0830167588,9.74928144 C0.0932899386,9.74325169 0.104986149,9.74007276 0.116898162,9.74007276 L4.41642107,9.74007276 C5.1297539,9.74007276 5.78953918,9.36163475 6.14970156,8.74590203 L10.6839449,0.994170728 C11.0441072,0.378438009 11.7038925,3.24128357e-12 12.4172253,3.24051896e-12 L17.0653242,3.24071325e-12 C17.0892096,3.24070887e-12 17.1112851,0.01272815 17.1232518,0.0333996326 L19.0004484,3.27607977 L19.0004484,3.27607977 C19.7190436,4.53875415 19.6394663,6.08942249 18.9014,7.34081521 L15.6033432,13.020514 C14.8743694,14.2564904 13.546335,15 12.1113992,15 L5.41737175,15 Z" id="路径" transform="translate(9.7496, 7.5) rotate(180) translate(-9.7496, -7.5)"></path>
                    <path d="M18.4604839,5.36118731 L11.2691621,1.10469132 C10.4079828,0.594964937 9.33442559,0.608052957 8.48592876,1.13862245 L5.71226278,2.87301028 C5.39882885,3.06900216 5.30362325,3.48197338 5.49961512,3.79540732 C5.55699451,3.88716952 5.63576896,3.96364979 5.7291865,4.01829279 L13.5200162,8.57540605 C14.1357489,8.93556843 14.514187,9.59535371 14.514187,10.3086865 L14.514187,14.608058 C14.514187,14.6450247 14.5441544,14.6749921 14.5811211,14.6749921 C14.5930584,14.6749921 14.6047786,14.6717996 14.6150669,14.6657456 L17.7948164,12.7946459 C19.0211715,12.0730065 19.7741142,10.7563139 19.7741142,9.33339077 L19.7741142,7.66520785 C19.7741142,6.71903753 19.2747158,5.8431258 18.4604839,5.36118731 Z" id="路径-71" opacity="0.900085449" stroke-linejoin="round" transform="translate(12.2741, 7.5) rotate(-90) translate(-12.2741, -7.5)"></path>
                </g>
            </g>
        </g>
    </g>
</svg>