<?xml version="1.0" encoding="UTF-8"?>
<svg width="24px" height="24px" viewBox="0 0 24 24" version="1.1" xmlns="http://www.w3.org/2000/svg" xmlns:xlink="http://www.w3.org/1999/xlink">
    <title>翻译</title>
    <defs>
        <path d="M17.5855856,2 C20.0235993,2 22,3.97640065 22,6.41441441 L22,17.5855856 C22,20.0235993 20.0235993,22 17.5855856,22 L6.41441441,22 C3.97640065,22 2,20.0235993 2,17.5855856 L2,6.41441441 C2,3.97640065 3.97640065,2 6.41441441,2 L17.5855856,2 Z" id="path-1"></path>
        <linearGradient x1="23.1561783%" y1="-17.2542723%" x2="23.1561783%" y2="120.736428%" id="linearGradient-2">
            <stop stop-color="#00D275" offset="0%"></stop>
            <stop stop-color="#00AEA2" offset="100%"></stop>
        </linearGradient>
        <linearGradient x1="66.1637766%" y1="95.8394378%" x2="66.1637766%" y2="-10.611406%" id="linearGradient-3">
            <stop stop-color="#FFF5E8" offset="0%"></stop>
            <stop stop-color="#FFF9F0" offset="100%"></stop>
        </linearGradient>
    </defs>
    <g id="翻译" stroke="none" fill="none" xlink:href="#path-1">
        <path d="M6.41441441,2 L17.5855856,2 C20.0235993,2 22,3.97640065 22,6.41441441 L22,17.5855856 C22,20.0235993 20.0235993,22 17.5855856,22 L6.41441441,22 C3.97640065,22 2,20.0235993 2,17.5855856 L2,6.41441441 C2,3.97640065 3.97640065,2 6.41441441,2 Z" id="蒙版备份-2" fill="url(#linearGradient-2)" fill-rule="evenodd"></path>
        <path d="M6.64577442,16.4423098 C6.86970815,16.7871326 7.2526763,17.0144 7.6875,17.0144 L8.001,17.0159355 L8,16.481257 L9.25,17.547543 L8,18.6138291 L8.001,18.0764209 L7.96371943,18.0738524 C7.22419675,18.0015165 6.64583333,17.3638394 6.64583333,16.5878856 L6.64577442,16.4423098 Z M17.6666667,9 C18.4030463,9 19,9.61106242 19,10.3648461 L19,16.6351539 C19,17.3889376 18.4030463,18 17.6666667,18 L11.9510355,18 C11.5261607,18 11.2096947,17.5986142 11.299396,17.173501 L12.9862772,9.53834711 C13.0525597,9.22422027 13.323966,9 13.6379167,9 L17.6666667,9 Z M15.7233333,11.1695764 L15.0083333,11.3853927 C15.0954167,11.5730591 15.1779167,11.8123337 15.22375,12 L13.3354167,12 L13.3354167,12.6662155 L14.0595833,12.6662155 C14.2979167,13.2995894 14.59125,13.8391302 14.9716667,14.2895294 C14.50875,14.6367121 13.9358333,14.8806783 13.2345833,15.0401947 C13.3629167,15.1997111 13.5645833,15.5187439 13.6379167,15.682952 C14.3620833,15.476519 14.9670833,15.1809445 15.4666667,14.7774619 C15.93875,15.1668695 16.5116667,15.4577524 17.2175,15.6454187 C17.3183333,15.4577524 17.5154167,15.1574862 17.6666667,15.0073531 C17.0020833,14.8572201 16.4475,14.6085622 15.9891667,14.2707627 C16.365,13.8344385 16.6583333,13.3042811 16.87375,12.6662155 L17.5658333,12.6662155 L17.5658333,12 L15.6408333,12 L16.0120833,11.8827085 C15.96625,11.6856589 15.8379167,11.3900844 15.7233333,11.1695764 Z M11.6267468,6 C12.0534089,6 12.3702566,6.4045705 12.2774516,6.83085963 L10.6507048,14.4660135 C10.5827716,14.778057 10.3123165,15 10,15 L6.33333333,15 C5.59695367,15 5,14.3889376 5,13.6351539 L5,7.36484612 C5,6.61106242 5.59695367,6 6.33333333,6 L11.6267468,6 Z M16.1220833,12.6662155 C15.96625,13.1166147 15.7508333,13.4966391 15.4804167,13.8156719 C15.1733333,13.4825641 14.9304167,13.0978481 14.7516667,12.6662155 L16.1220833,12.6662155 Z M8.09881947,8.19887413 L6.71631947,12.6235347 L7.59131947,12.6235347 L7.8946528,11.4890063 L9.2946528,11.4890063 L9.59798614,12.6235347 L10.5021528,12.6235347 L9.11381947,8.19887413 L8.09881947,8.19887413 Z M8.5771528,8.87361994 L8.60631947,8.87361994 L8.85045527,9.84582005 C8.8921528,10.0068213 8.93493058,10.1653899 8.9796528,10.3186508 L9.10798614,10.8023181 L8.08131947,10.8023181 L8.2096528,10.3186508 C8.33798614,9.85886823 8.46631947,9.35728728 8.5771528,8.87361994 Z M16.0120833,5.7792703 L16.0110833,6.31667847 L16.0483639,6.31924694 C16.7878866,6.39158282 17.36625,7.02925996 17.36625,7.80521377 L17.3663089,7.95078959 C17.1423752,7.60596676 16.759407,7.37869936 16.3245833,7.37869936 L16.0110833,7.3771639 L16.0120833,7.91184237 L14.7620833,6.84555634 L16.0120833,5.7792703 Z" id="形状" fill="url(#linearGradient-3)" fill-rule="nonzero" opacity="0.998"></path>
    </g>
</svg>