<?xml version="1.0" encoding="UTF-8"?>
<svg width="16px" height="16px" viewBox="0 0 16 16" version="1.1" xmlns="http://www.w3.org/2000/svg" xmlns:xlink="http://www.w3.org/1999/xlink">
    <defs>
        <path d="M0,0 L16,0 L16,16 L0,16 L0,0 Z" id="path-1"></path>
    </defs>
    <g id="icon/首页/AI翻译" stroke="none" fill="none" xlink:href="#path-1" fill-rule="nonzero">
        <path d="M2,10.0052032 L2,11.5055442 C2,12.3339713 2.67157288,13.0055442 3.5,13.0055442 L6.00390546,13.0055442 L6.00390546,14 L3.5,14 C2.11928813,14 1,12.8807119 1,11.5 L1,10.0052032 L2,10.0052032 Z M10.6576496,7.00200216 C10.9800007,7.00207937 11.2710618,7.19490938 11.3968291,7.49171373 L14.0368252,13.7219688 C14.0799207,13.8236718 14.0324098,13.9410543 13.9307067,13.9841497 C13.9060215,13.9946098 13.8794853,14 13.8526754,14 L13.3336014,14 C13.1309304,14 12.9483068,13.8776554 12.8712006,13.690225 L12.1766376,12.0018748 L9.1466376,12.0018748 L8.45948071,13.6886383 C8.38278209,13.8769103 8.19972585,14 7.9964304,14 L7.45875536,14 C7.34829841,14 7.25875536,13.9104569 7.25875536,13.8 C7.25875536,13.7731582 7.26415844,13.746591 7.27464266,13.7218814 L9.91823791,7.49136056 C10.0301561,7.22758775 10.2726382,7.04602983 10.5515387,7.0089943 L10.6576496,7.00200216 Z M10.6555749,8.2997423 L9.5536376,11.0018748 L11.7656376,11.0018748 L10.6555749,8.2997423 Z M5.00390546,1.5018748 L5.00390546,2.0018748 L7.50390546,2.0018748 C7.78004783,2.0018748 8.00390546,2.22573243 8.00390546,2.5018748 C8.00390546,2.77801718 7.78004783,3.0018748 7.50390546,3.0018748 L7.13490546,3.0018748 L7.09114769,3.1727157 C6.76981509,4.3211111 6.19935472,5.39955683 5.3701955,6.42020924 L5.18486242,6.61940521 L5.49882784,6.89346763 C5.6737896,7.04094342 5.87502811,7.19849046 6.09943025,7.34092849 C6.22614609,7.42136067 6.48494492,7.5615369 6.87582675,7.76145716 L7.05143014,7.85080319 C7.29752478,7.97538929 7.39926467,8.27357035 7.28064728,8.52259683 C7.17693905,8.74032287 6.93379461,8.84667439 6.70901241,8.78567778 L6.61809605,8.75105409 L6.17445611,8.52638395 C5.96286605,8.41689689 5.80940337,8.33295975 5.71406698,8.27457476 C5.21313456,7.96779854 4.76520069,7.60737815 4.46805842,7.34092849 L4.41225569,7.36485774 C4.16425296,7.57993344 3.58464629,7.94965386 2.67343566,8.47401901 L2.2293367,8.72702436 C2.02148686,8.84434999 1.75788005,8.77096562 1.64055442,8.56311578 L1.61326042,8.50508266 C1.51095385,8.2376347 1.61976824,7.93558722 1.86913284,7.79483087 L2.67824857,7.32810992 C3.20526057,7.01560338 3.55266731,6.78754972 3.72047265,6.64395577 L3.75748944,6.61940521 C3.57724585,6.39415011 3.38567877,6.16136346 3.21234441,5.92273302 C2.90614444,5.50118573 2.63128184,5.05296257 2.39369464,4.53552959 L2.37456169,4.49007996 L2.29745802,4.26511725 C2.26177947,4.16058123 2.31759947,4.04691487 2.42213549,4.01123631 C2.44182045,4.00451776 2.46243299,4.00091105 2.48322972,4.00054627 L3.05630732,4.00162716 C3.17876577,4.00136305 3.28909224,4.07555537 3.33503814,4.189068 L3.37967956,4.29126394 L3.40003252,4.33129263 C3.59322683,4.68801974 3.78507886,4.98565974 3.97644186,5.25389862 C4.13873617,5.4813911 4.30005671,5.6863423 4.46805842,5.90285015 L4.61085903,5.77004398 C5.31585498,4.90137983 5.81105083,3.97994179 6.09943025,3.00313093 L1.50390546,3.00199806 C1.22774314,3.00192998 1.00390546,2.77803712 1.00390546,2.5018748 C1.00390546,2.22573243 1.22776308,2.0018748 1.50390546,2.0018748 L4.00390546,2.0018748 L4.00390546,1.5018748 C4.00390546,1.22573243 4.22776308,1.0018748 4.50390546,1.0018748 C4.78004783,1.0018748 5.00390546,1.22573243 5.00390546,1.5018748 Z M14,3.5 L14,6.0018748 L13,6.0018748 L13,3.5 C13,2.67157288 12.3284271,2 11.5,2 L9.00390546,2 L9.00390546,1 L11.5,1 C12.8807119,1 14,2.11928813 14,3.5 Z" id="形状" fill="currentColor"></path>
    </g>
</svg>