<?xml version="1.0" encoding="UTF-8"?>
<svg width="36px" height="36px" viewBox="0 0 36 36" version="1.1" xmlns="http://www.w3.org/2000/svg" xmlns:xlink="http://www.w3.org/1999/xlink">
    <defs>
        <path d="M0,0 L36,0 L36,36 L0,36 L0,0 Z" id="path-1"></path>
        <filter x="-5.0%" y="-5.0%" width="110.0%" height="110.0%" filterUnits="objectBoundingBox" id="filter-2">
            <feOffset dx="0" dy="0" in="SourceAlpha" result="shadowOffsetOuter1"></feOffset>
            <feGaussianBlur stdDeviation="0.5" in="shadowOffsetOuter1" result="shadowBlurOuter1"></feGaussianBlur>
            <feColorMatrix values="0 0 0 0 0   0 0 0 0 0   0 0 0 0 0  0 0 0 0.2 0" type="matrix" in="shadowBlurOuter1" result="shadowMatrixOuter1"></feColorMatrix>
            <feMerge>
                <feMergeNode in="shadowMatrixOuter1"></feMergeNode>
                <feMergeNode in="SourceGraphic"></feMergeNode>
            </feMerge>
        </filter>
        <linearGradient x1="23.1561783%" y1="-17.2542723%" x2="23.1561783%" y2="120.736428%" id="linearGradient-3">
            <stop stop-color="#00D275" offset="0%"></stop>
            <stop stop-color="#00AEA2" offset="100%"></stop>
        </linearGradient>
        <linearGradient x1="66.1637766%" y1="95.8394378%" x2="66.1637766%" y2="-10.611406%" id="linearGradient-4">
            <stop stop-color="#FFF5E8" offset="0%"></stop>
            <stop stop-color="#FFF9F0" offset="100%"></stop>
        </linearGradient>
    </defs>
    <g id="icon/智能体/ai翻译" stroke="none" fill="none" xlink:href="#path-1" fill-rule="evenodd" stroke-width="1">
        <g id="编组" filter="url(#filter-2)" transform="translate(3, 3)">
            <path d="M6.62162162,0 L23.3783784,0 C27.035399,0 30,2.96460098 30,6.62162162 L30,23.3783784 C30,27.035399 27.035399,30 23.3783784,30 L6.62162162,30 C2.96460098,30 0,27.035399 0,23.3783784 L0,6.62162162 C0,2.96460098 2.96460098,0 6.62162162,0 Z" id="蒙版备份-2" fill="url(#linearGradient-3)"></path>
            <path d="M6.40613292,21.0935738 C6.74199261,21.5991116 7.31658854,21.9323344 7.96901283,21.9323344 L8.43876283,21.9330844 L8.43776283,21.1510844 L10.3127628,22.7135844 L8.43776283,24.2760844 L8.59401283,23.4948344 C7.38588994,23.4948344 6.40651283,22.5154573 6.40651283,21.3073344 L6.40613292,21.0935738 Z M23,10 C24.1045695,10 25,10.8954305 25,12 L25,22.0229079 C25,23.1274774 24.1045695,24.0229079 23,24.0229079 L14.4265533,24.0229079 C13.8742685,24.0229079 13.4265533,23.5751927 13.4265533,23.0229079 C13.4265533,22.9519327 13.4341094,22.8811592 13.449094,22.8117838 L16.0459547,10.7888759 C16.1453785,10.3285649 16.5524879,10 17.023414,10 L23,10 Z M20.085,13.818125 L19.0125,14.134375 C19.143125,14.409375 19.266875,14.76 19.335625,15.035 L16.503125,15.035 L16.503125,16.01125 L17.589375,16.01125 C17.946875,16.939375 18.386875,17.73 18.9575,18.39 C18.263125,18.89875 17.40375,19.25625 16.351875,19.49 C16.544375,19.72375 16.846875,20.19125 16.956875,20.431875 C18.043125,20.129375 18.950625,19.69625 19.7,19.105 C20.408125,19.675625 21.2675,20.101875 22.32625,20.376875 C22.4775,20.101875 22.773125,19.661875 23,19.441875 C22.003125,19.221875 21.17125,18.8575 20.48375,18.3625 C21.0475,17.723125 21.4875,16.94625 21.810625,16.01125 L22.84875,16.01125 L22.84875,15.035 L19.96125,15.035 L20.518125,14.863125 C20.449375,14.574375 20.256875,14.14125 20.085,13.818125 Z M14.9401202,5.95875 C15.492405,5.95875 15.9401202,6.40646525 15.9401202,6.95875 C15.9401202,7.03191222 15.9320912,7.10485349 15.9161774,7.176264 L13.2368767,19.1991719 C13.1349769,19.6564301 12.7292943,19.9816579 12.2608195,19.9816579 L7,19.9816579 C5.8954305,19.9816579 5,19.0862274 5,17.9816579 L5,7.95875 C5,6.8541805 5.8954305,5.95875 7,5.95875 L14.9401202,5.95875 Z M20.683125,16.01125 C20.449375,16.67125 20.12625,17.228125 19.720625,17.695625 C19.26,17.2075 18.895625,16.64375 18.6275,16.01125 L20.683125,16.01125 Z M11.1707292,9.18090684 L9.64822921,9.18090684 L7.57447921,15.6646568 L8.88697921,15.6646568 L9.34197921,14.0021568 L11.4419792,14.0021568 L11.8969792,15.6646568 L13.2532292,15.6646568 L11.1707292,9.18090684 Z M10.3657292,10.1696568 L10.4094792,10.1696568 L10.6829167,11.2382506 C10.7747917,11.5959068 10.8688542,11.9502818 10.9694792,12.2871568 L11.1619792,12.9959068 L9.62197921,12.9959068 L9.81447921,12.2871568 C10.0069792,11.6134068 10.1994792,10.8784068 10.3657292,10.1696568 Z M20.78125,5.46875 L20.625,6.25 C21.8331229,6.25 22.8125,7.22937711 22.8125,8.4375 L22.8128799,8.65126064 C22.4770202,8.14572284 21.9024243,7.8125 21.25,7.8125 L20.78025,7.81175 L20.78125,8.59375 L18.90625,7.03125 L20.78125,5.46875 Z" id="形状" fill="url(#linearGradient-4)" fill-rule="nonzero" opacity="0.998"></path>
        </g>
    </g>
</svg>