<?xml version="1.0" encoding="UTF-8"?>
<svg width="24px" height="24px" viewBox="0 0 24 24" version="1.1" xmlns="http://www.w3.org/2000/svg" xmlns:xlink="http://www.w3.org/1999/xlink">
    <title>写作</title>
    <defs>
        <path d="M12,1 C18.0751322,1 23,5.81115799 23,11.7460221 L23,12.2539779 C23,18.188842 18.0751322,23 12,23 C5.92486775,23 1,18.188842 1,12.2539779 L1,11.7460221 C1,5.81115799 5.92486775,1 12,1 Z" id="path-1"></path>
        <linearGradient x1="50%" y1="0%" x2="50%" y2="100%" id="linearGradient-2">
            <stop stop-color="#00B9F1" offset="0%"></stop>
            <stop stop-color="#0086DD" offset="100%"></stop>
        </linearGradient>
        <linearGradient x1="66.1637766%" y1="95.8394378%" x2="66.1637766%" y2="-10.611406%" id="linearGradient-3">
            <stop stop-color="#E8F6FF" offset="0%"></stop>
            <stop stop-color="#E8F6FF" offset="100%"></stop>
        </linearGradient>
    </defs>
    <g id="写作" stroke="none" fill="none" xlink:href="#path-1" fill-rule="evenodd" stroke-width="1">
        <g id="编组-6备份" transform="translate(0.3529, 0.3613)">
            <path d="M11.6470588,0.638717203 C17.7221911,0.638717203 22.6470588,5.44987519 22.6470588,11.3847393 L22.6470588,11.8926951 C22.6470588,17.8275592 17.7221911,22.6387172 11.6470588,22.6387172 C5.57192658,22.6387172 0.647058824,17.8275592 0.647058824,11.8926951 L0.647058824,11.3847393 C0.647058824,5.44987519 5.57192658,0.638717203 11.6470588,0.638717203 Z" id="矩形-2" fill="url(#linearGradient-2)"></path>
            <path d="M15.2351675,13.3399028 C15.3339652,13.3399028 15.4232976,13.4000521 15.4624214,13.4929173 L16.0863109,14.984992 C16.1112996,15.0447384 16.1578033,15.0923412 16.2161703,15.1179205 L17.6733241,15.7565555 C17.7644117,15.7962757 17.8235294,15.8878321 17.8235294,15.9891804 C17.8235294,16.0905287 17.7644117,16.1820851 17.6733241,16.2218053 L16.2161703,16.8604402 C16.1578033,16.8860196 16.1112996,16.9336224 16.0863109,16.9933688 L15.4624214,18.4849618 C15.4236182,18.5782023 15.3341758,18.6387172 15.2351675,18.6387172 C15.1361592,18.6387172 15.0467168,18.5782023 15.0079136,18.4849618 L14.384024,16.9933688 C14.3589946,16.9336506 14.312504,16.8860613 14.2541647,16.8604402 L12.7965404,16.2218053 C12.7058193,16.1817569 12.6470588,16.0903131 12.6470588,15.9891804 C12.6470588,15.8880477 12.7058193,15.7966039 12.7965404,15.7565555 L14.2541647,15.1179205 C14.312504,15.0922995 14.3589946,15.0447102 14.384024,14.984992 L15.0079136,13.4929173 C15.0470374,13.4000521 15.1363698,13.3399028 15.2351675,13.3399028 Z M12.3501663,8.29914176 L14.7947008,10.8008451 L9.26899598,16.4565455 C9.15517823,16.5730409 8.99919245,16.6387172 8.83632547,16.6387172 L6.94950747,16.6387172 C6.78246969,16.6387172 6.64705882,16.5033063 6.64705882,16.3362686 L6.64705882,14.3834372 C6.64705882,14.2254545 6.70886552,14.0737408 6.81926426,13.9607334 L12.3501663,8.29914176 Z M15.202008,6.21381593 L16.8312944,7.88219218 C17.0562064,8.11250134 17.056264,8.48582935 16.8312944,8.71609134 L15.6093152,9.96694008 L13.1648383,7.4652367 L14.3868175,6.21381593 C14.611787,5.98351266 14.9770385,5.98351266 15.202008,6.21381593 Z M6.64899887,6.64326227 C6.73879899,6.64326227 6.81995187,6.69807459 6.85529162,6.78259661 L7.20256186,7.61154859 C7.22519586,7.66584097 7.26723043,7.70887762 7.32025866,7.7320512 L8.12861583,8.0895864 C8.21116982,8.12576863 8.26470588,8.20885614 8.26470588,8.30079701 C8.26470588,8.39273789 8.21116982,8.4758254 8.12861583,8.51200763 L7.31831861,8.86755652 C7.26544876,8.89079081 7.22331511,8.9339289 7.20062181,8.98805912 L6.85335156,9.81568691 C6.81801181,9.90020893 6.73685893,9.95502125 6.64705881,9.95502125 C6.5572587,9.95502125 6.47610582,9.90020893 6.44076607,9.81568691 L6.09349583,8.98607282 C6.07080253,8.9319426 6.02866887,8.88880451 5.97579903,8.86557022 L5.16550181,8.51002131 C5.08294782,8.47383909 5.02941176,8.39075158 5.02941176,8.29881071 C5.02941176,8.20686983 5.08294782,8.12378233 5.16550181,8.0876001 L5.97579903,7.7320512 C6.02866887,7.7088169 6.07080253,7.66567882 6.09349583,7.61154859 L6.44270613,6.7819345 C6.47804588,6.69807459 6.55919876,6.64326227 6.64899887,6.64326227 Z" id="形状" fill="url(#linearGradient-3)" fill-rule="nonzero" opacity="0.998"></path>
        </g>
    </g>
</svg>