<?xml version="1.0" encoding="UTF-8"?>
<svg width="16px" height="16px" viewBox="0 0 16 16" version="1.1" xmlns="http://www.w3.org/2000/svg" xmlns:xlink="http://www.w3.org/1999/xlink">
    <g id="icon/首页/写作" stroke="none" fill="none" fill-rule="nonzero">
        <path d="M11.9578647,9 C11.9940842,9 12.0270243,9.02123904 12.0423358,9.05446513 L12.9423902,10.9621339 C12.9515628,10.9814761 12.966974,10.9970761 12.9860821,11.0063611 L14.8735747,11.908597 L14.884393,11.9164184 C14.9276977,11.9477268 14.9374225,12.0082127 14.9061141,12.0515174 L14.8940376,12.0652673 L14.8795882,12.0764974 L12.9889949,12.9906904 C12.9698868,12.9999754 12.9544756,13.0155755 12.9453029,13.0349177 L12.053987,14.9455349 C12.0386755,14.978761 12.0057354,15 11.9695159,15 C11.9332964,15 11.9003563,14.978761 11.8850448,14.9455349 L10.9849905,13.0378661 C10.9758178,13.0185239 10.9604066,13.0029239 10.9412985,12.9936389 L9.05380593,12.091403 C9.02098199,12.0759039 9,12.0425602 9,12.005897 C9,11.9692337 9.02098199,11.93589 9.05380593,11.9203909 L10.9383857,11.0093096 C10.9574938,11.0000246 10.972905,10.9844245 10.9820776,10.9650823 L11.8733936,9.05446513 C11.8887051,9.02123904 11.9216452,9 11.9578647,9 Z M9.1695047,2.71 L11.290825,4.83132034 C11.6813493,5.22184464 11.6813493,5.85500961 11.290825,6.24553391 L4.68198052,12.8543784 C4.58821233,12.9481466 4.46103537,13.000825 4.32842712,13.000825 L1.5,13.000825 C1.22385763,13.000825 1,12.7769674 1,12.500825 L1,9.67239791 C1,9.53978967 1.05267842,9.41261271 1.14644661,9.31884452 L7.75529113,2.71 C8.14581542,2.31947571 8.7789804,2.31947571 9.1695047,2.71 Z M6.34107757,5.53842712 L2.00278745,9.87671725 L2.00278745,11.9980376 L4.12410779,11.9980376 L8.46239791,7.65974747 L6.34107757,5.53842712 Z M8.46239791,3.41710678 L7.04818435,4.83132034 L9.1695047,6.95264069 L10.5837183,5.53842712 L8.46239791,3.41710678 Z" id="形状结合" fill="currentColor"></path>
    </g>
</svg>