<?xml version="1.0" encoding="UTF-8"?>
<svg width="36px" height="36px" viewBox="0 0 36 36" version="1.1" xmlns="http://www.w3.org/2000/svg" xmlns:xlink="http://www.w3.org/1999/xlink">
    <defs>
        <filter x="-1.4%" y="-1.4%" width="102.8%" height="102.8%" filterUnits="objectBoundingBox" id="filter-1">
            <feOffset dx="0" dy="0" in="SourceAlpha" result="shadowOffsetOuter1"></feOffset>
            <feGaussianBlur stdDeviation="0.5" in="shadowOffsetOuter1" result="shadowBlurOuter1"></feGaussianBlur>
            <feColorMatrix values="0 0 0 0 0   0 0 0 0 0   0 0 0 0 0  0 0 0 0.2 0" type="matrix" in="shadowBlurOuter1" result="shadowMatrixOuter1"></feColorMatrix>
            <feMerge>
                <feMergeNode in="shadowMatrixOuter1"></feMergeNode>
                <feMergeNode in="SourceGraphic"></feMergeNode>
            </feMerge>
        </filter>
        <linearGradient x1="50%" y1="0%" x2="50%" y2="100%" id="linearGradient-2">
            <stop stop-color="#00B9F1" offset="0%"></stop>
            <stop stop-color="#0086DD" offset="100%"></stop>
        </linearGradient>
        <linearGradient x1="66.1637766%" y1="95.8394378%" x2="66.1637766%" y2="-10.611406%" id="linearGradient-3">
            <stop stop-color="#E8F6FF" offset="0%"></stop>
            <stop stop-color="#E8F6FF" offset="100%"></stop>
        </linearGradient>
    </defs>
    <g id="icon/智能体/主页-写作" stroke="none" fill="none" fill-rule="evenodd" stroke-width="1">
        <g id="编组-6备份" filter="url(#filter-1)" transform="translate(0, 0)">
            <rect id="矩形-2" fill="url(#linearGradient-2)" x="1" y="1" width="34" height="34" rx="17"></rect>
            <path d="M23.9998043,20 C24.1524916,20 24.2905508,20.0908117 24.3510148,20.2310169 L25.3152078,22.483709 C25.3538267,22.5739125 25.425696,22.6457819 25.5158995,22.6844008 L27.7678645,23.6485937 C27.9086363,23.7085623 28,23.8467915 28,23.9998043 C28,24.1528171 27.9086363,24.2910463 27.7678645,24.3510148 L25.5158995,25.3152078 C25.425696,25.3538267 25.3538267,25.425696 25.3152078,25.5158995 L24.3510148,27.7678645 C24.2910463,27.9086363 24.1528171,28 23.9998043,28 C23.8467915,28 23.7085623,27.9086363 23.6485937,27.7678645 L22.6844008,25.5158995 C22.6457189,25.4257387 22.5738699,25.3538897 22.4837091,25.3152078 L20.2310169,24.3510148 C20.0908117,24.2905508 20,24.1524916 20,23.9998043 C20,23.847117 20.0908117,23.7090578 20.2310169,23.6485937 L22.4837091,22.6844008 C22.5738699,22.6457189 22.6457189,22.5738699 22.6844008,22.483709 L23.6485937,20.2310169 C23.7090578,20.0908117 23.847117,20 23.9998043,20 Z M18.8138933,12.409145 L22.5918103,16.1861459 L14.0508204,24.7262265 C13.8755065,24.9015217 13.6377411,25 13.389823,25 L10.4674206,25 C10.2092713,25 10,24.7907287 10,24.5325794 L10,21.6102155 C10,21.3622793 10.0984926,21.124498 10.2738105,20.9491811 L18.8138933,12.409145 Z M10.5029983,10 C10.6417803,10 10.7671983,10.0827541 10.8218143,10.210363 L11.3585047,11.4618913 C11.3934845,11.5438604 11.458447,11.6088359 11.5403997,11.6438227 L12.789679,12.1836193 C12.9172625,12.2382461 13,12.3636893 13,12.5024991 C13,12.6413088 12.9172625,12.766752 12.789679,12.8213789 L11.5374015,13.3581765 C11.4556935,13.393255 11.3905779,13.4583837 11.3555064,13.5401079 L10.8188161,14.789637 C10.7642001,14.9172459 10.638782,15 10.5,15 C10.361218,15 10.2357999,14.9172459 10.1811839,14.789637 L9.64449356,13.5371091 C9.60942209,13.4553848 9.54430644,13.3902561 9.4625985,13.3551777 L8.21032097,12.81838 C8.08273754,12.7637531 8,12.6383099 8,12.4995002 C8,12.3606905 8.08273754,12.2352473 8.21032097,12.1806204 L9.4625985,11.6438227 C9.54430644,11.6087442 9.60942209,11.5436156 9.64449356,11.4618913 L10.1841822,10.210363 C10.2387982,10.0827541 10.3642163,10 10.5029983,10 Z M23.2212851,9.26077902 L25.7392732,11.7796463 C26.0868644,12.1273605 26.0869534,12.6910006 25.7392732,13.0386436 L23.8507599,14.9271397 L20.0729319,11.1501387 L21.9614452,9.26077902 C22.3091254,8.91307366 22.8736049,8.91307366 23.2212851,9.26077902 Z" id="形状结合" fill="url(#linearGradient-3)" fill-rule="nonzero" opacity="0.998"></path>
        </g>
    </g>
</svg>