<?xml version="1.0" encoding="utf-8" ?>
<svg xmlns="http://www.w3.org/2000/svg" xmlns:xlink="http://www.w3.org/1999/xlink" width="16" height="16">
	<defs>
		<linearGradient id="gradient_0" gradientUnits="userSpaceOnUse" x1="6.5" y1="-9.25" x2="6.5" y2="9.25">
			<stop offset="0" stop-color="#FFB897"/>
			<stop offset="1" stop-color="#FF702F"/>
		</linearGradient>
	</defs>
	<path fill="url(#gradient_0)" fill-opacity="1" transform="translate(1.5 5.25)" d="M0 0L13 0L13 6.6861148C13 7.5776334 12.907174 7.9009199 12.732867 8.2268457C12.55856 8.5527716 12.302772 8.8085604 11.976846 8.9828672C11.65092 9.1571741 11.327634 9.25 10.436115 9.25L2.5638852 9.25C1.6723665 9.25 1.3490802 9.1571741 1.0231543 8.9828672C0.69722837 8.8085604 0.44143981 8.5527716 0.2671327 8.2268457C0.092825614 7.9009199 0 7.5776334 0 6.6861148L0 0L0 0Z"/>
	<defs>
		<linearGradient id="gradient_1" gradientUnits="userSpaceOnUse" x1="6.5" y1="0.482721" x2="6.5" y2="3.7172012">
			<stop offset="0" stop-color="#F8734F"/>
			<stop offset="1" stop-color="#E51C1C"/>
		</linearGradient>
	</defs>
	<path fill="url(#gradient_1)" fill-opacity="1" transform="translate(1.5 1.5)" d="M2.5638852 -1.1335426e-16L10.436115 0C11.327634 0 11.65092 0.092825614 11.976846 0.2671327C12.302772 0.44143981 12.55856 0.69722837 12.732867 1.0231543C12.907174 1.3490802 13 1.6723665 13 2.5638852L13 3.75L13 3.75L0 3.75L0 2.5638852C0 1.6723665 0.092825614 1.3490802 0.2671327 1.0231543C0.44143981 0.69722837 0.69722837 0.44143981 1.0231543 0.2671327C1.3490802 0.092825614 1.6723665 6.5862092e-17 2.5638852 -1.1335426e-16Z"/>
	<defs>
		<linearGradient id="gradient_2" gradientUnits="userSpaceOnUse" x1="4.625" y1="0" x2="4.625" y2="9.25">
			<stop offset="0" stop-color="#CE6D00"/>
			<stop offset="1" stop-color="#B00000"/>
		</linearGradient>
	</defs>
	<path fill="url(#gradient_2)" fill-opacity="1" transform="translate(3.375 5.25)" d="M7.375 0L9.25 0L9.25 9.25L7.375 9.25L7.375 0ZM3.625 0L5.75 0L5.75 9.25L3.625 9.25L3.625 0ZM0 0L1.875 0L1.875 9.25L0 9.25L0 0Z"/>
	<defs>
		<linearGradient id="gradient_3" gradientUnits="userSpaceOnUse" x1="4.3333335" y1="0" x2="4.3333335" y2="5.7777777">
			<stop offset="0" stop-color="white"/>
			<stop offset="1" stop-color="#FFDBDB"/>
		</linearGradient>
	</defs>
	<path fill="url(#gradient_3)" fill-opacity="1" transform="translate(3.66667 2.94444)" d="M0.54166669 0C0.69124377 0 0.82666045 0.060628105 0.92468286 0.15865049C1.0227052 0.25667289 1.0833334 0.39208955 1.0833334 0.54166669C1.0833334 1.8667958 1.3510326 2.9400678 1.9312615 3.6674562C2.46541 4.3370771 3.2658718 4.6944447 4.3333335 4.6944447C5.400795 4.6944447 6.2012568 4.3370771 6.735405 3.6674562C7.3156343 2.9400678 7.5833335 1.8667958 7.5833335 0.54166669C7.5833335 0.39208955 7.6439614 0.25667289 7.7419839 0.15865049C7.8400064 0.060628105 7.9754229 0 8.125 0L8.125 0.0001031746L8.1803827 0.002796564C8.2896376 0.013892063 8.3892946 0.057457242 8.4695501 0.12369034L8.5080166 0.15865049C8.6060381 0.25667289 8.666667 0.39208955 8.666667 0.54166669C8.666667 2.1606781 8.2906599 3.4823613 7.5497046 4.3895569C6.8303032 5.2703624 5.7668529 5.7777777 4.3333335 5.7777777C2.8998139 5.7777777 1.8363633 5.2703624 1.1169621 4.3895569C0.37600631 3.4823613 0 2.1606781 0 0.54166669C0 0.39208955 0.060628105 0.25667289 0.15865049 0.15865049C0.25667289 0.060628105 0.39208955 0 0.54166669 0Z"/>
	<defs>
		<linearGradient id="gradient_4" gradientUnits="userSpaceOnUse" x1="6.5" y1="0" x2="6.5" y2="13">
			<stop offset="0" stop-color="white" stop-opacity="0.3019608"/>
			<stop offset="1" stop-color="black" stop-opacity="0.40000001"/>
		</linearGradient>
	</defs>
	<path fill="none" fill-opacity="1" stroke="url(#gradient_4)" stroke-width="0.25" stroke-miterlimit="5" transform="translate(1.5 1.5)" d="M2.5638852 -1.1335426e-16L10.436115 0C11.327634 0 11.65092 0.092825614 11.976846 0.2671327C12.302772 0.44143981 12.55856 0.69722837 12.732867 1.0231543C12.907174 1.3490802 13 1.6723665 13 2.5638852L13 10.436115C13 11.327634 12.907174 11.65092 12.732867 11.976846C12.55856 12.302772 12.302772 12.55856 11.976846 12.732867C11.65092 12.907174 11.327634 13 10.436115 13L2.5638852 13C1.6723665 13 1.3490802 12.907174 1.0231543 12.732867C0.69722837 12.55856 0.44143981 12.302772 0.2671327 11.976846C0.092825614 11.65092 0 11.327634 0 10.436115L0 2.5638852C0 1.6723665 0.092825614 1.3490802 0.2671327 1.0231543C0.44143981 0.69722837 0.69722837 0.44143981 1.0231543 0.2671327C1.3490802 0.092825614 1.6723665 6.5862092e-17 2.5638852 -1.1335426e-16Z" fill-rule="evenodd"/>
</svg>
