<?xml version="1.0" encoding="UTF-8"?>
<svg width="16px" height="16px" viewBox="0 0 16 16" version="1.1" xmlns="http://www.w3.org/2000/svg" xmlns:xlink="http://www.w3.org/1999/xlink">
    <title>icon/mcp/等待批准</title>
    <defs>
        <path fill="currentColor" d="M12.1809857,1.16349021 C12.4632289,1.30730028 12.6926997,1.53677111 12.8365098,1.81901425 C12.9893901,2.11905873 13,2.24891792 13,2.8 L13,2.91666667 C13,3.49634244 12.9947546,3.64389086 12.9470772,3.89434675 C12.8979482,4.15242783 12.8151317,4.40293752 12.7007528,4.6394475 C12.5861536,4.87641306 12.4971277,5.0038297 12.1050408,5.52661224 L10.5449592,7.60672109 C10.3758447,7.83220713 10.3191694,7.90970746 10.2721774,7.98119365 C10.267707,7.98799412 10.2636542,7.99426529 10.2600157,8 C10.2624457,8.00382761 10.2650862,8.00793658 10.2679224,8.01229866 C10.3142867,8.08360765 10.3718042,8.16240555 10.5449592,8.39327891 L12.1050408,10.4733878 C12.4971277,10.9961703 12.5861536,11.1235869 12.7007528,11.3605525 C12.8151317,11.5970625 12.8979482,11.8475722 12.9470772,12.1056532 C12.9947546,12.3561091 13,12.5036576 13,13.0833333 L13,13.2 C13,13.7510821 12.9893901,13.8809413 12.8365098,14.1809857 C12.6926997,14.4632289 12.4632289,14.6926997 12.1809857,14.8365098 C11.8809413,14.9893901 11.7510821,15 11.2,15 L4.8,15 C4.24891792,15 4.11905873,14.9893901 3.81901425,14.8365098 C3.53677111,14.6926997 3.30730028,14.4632289 3.16349021,14.1809857 C3.01060992,13.8809413 3,13.7510821 3,13.2 L3,13.0833333 C3,12.5036576 3.00524537,12.3561091 3.05292281,12.1056532 C3.10205181,11.8475722 3.18486832,11.5970625 3.29924718,11.3605525 C3.41384637,11.1235869 3.50287228,10.9961703 3.89495918,10.4733878 L5.45504082,8.39327891 C5.62819584,8.16240555 5.68571329,8.08360765 5.7320776,8.01229866 C5.73491379,8.00793655 5.73755438,8.00382756 5.73998426,8 C5.73634572,7.99426524 5.73229297,7.98799409 5.72782265,7.98119365 C5.68083061,7.90970746 5.62415534,7.83220713 5.45504082,7.60672109 L3.89495918,5.52661224 C3.50287228,5.0038297 3.41384637,4.87641306 3.29924718,4.6394475 C3.18486832,4.40293752 3.10205181,4.15242783 3.05292281,3.89434675 C3.00524537,3.64389086 3,3.49634244 3,2.91666667 L3,2.8 C3,2.24891792 3.01060992,2.11905873 3.16349021,1.81901425 C3.30730028,1.53677111 3.53677111,1.30730028 3.81901425,1.16349021 C4.11905873,1.01060992 4.24891792,1 4.80000001,1 L11.2,1 C11.7510821,1 11.8809413,1.01060992 12.1809857,1.16349021 Z M4.74910975,2 C4.50260124,2.00021288 4.37327588,2.00340605 4.27300475,2.05449674 C4.1789237,2.10243343 4.10243343,2.1789237 4.05449674,2.27300475 C4,2.37996062 4,2.51997375 4,2.8 L4,2.91666667 C4,3.32022352 4,3.52200195 4.03528188,3.70734228 C4.06803454,3.87939633 4.12324554,4.04640279 4.19949812,4.20407611 C4.28380872,4.37841163 4.42085887,4.56114517 4.69495918,4.92661224 L6.25504082,7.00672109 C6.52987422,7.37316562 6.66729092,7.55638789 6.71705501,7.7454325 C6.76098166,7.91230177 6.76098166,8.08769823 6.71705501,8.2545675 C6.66729092,8.44361211 6.52987422,8.62683438 6.25504082,8.99327891 L4.69495918,11.0733878 C4.42085887,11.4388548 4.28380872,11.6215884 4.19949812,11.7959239 C4.12324554,11.9535972 4.06803454,12.1206037 4.03528188,12.2926577 C4,12.477998 4,12.6797765 4,13.0833333 L4,13.2 C4,13.4800263 4,13.6200394 4.05449674,13.7269952 C4.10243343,13.8210763 4.1789237,13.8975666 4.27300475,13.9455033 C4.37996062,14 4.51997375,14 4.8,14 L11.2,14 C11.4800263,14 11.6200394,14 11.7269952,13.9455033 C11.8210763,13.8975666 11.8975666,13.8210763 11.9455033,13.7269952 C12,13.6200394 12,13.4800263 12,13.2 L12,13.0833333 C12,12.6797765 12,12.477998 11.9647181,12.2926577 C11.9319655,12.1206037 11.8767545,11.9535972 11.8005019,11.7959239 C11.7161913,11.6215884 11.5791411,11.4388548 11.3050408,11.0733878 L9.74495918,8.99327891 C9.47012578,8.62683438 9.33270908,8.44361211 9.28294499,8.2545675 C9.23901834,8.08769823 9.23901834,7.91230177 9.28294499,7.7454325 C9.33270908,7.55638789 9.47012578,7.37316562 9.74495918,7.00672109 L11.3050408,4.92661224 C11.5791411,4.56114517 11.7161913,4.37841163 11.8005019,4.20407611 C11.8767545,4.04640279 11.9319655,3.87939633 11.9647181,3.70734228 C12,3.52200195 12,3.32022352 12,2.91666667 L12,2.8 C12,2.51997375 12,2.37996062 11.9455033,2.27300475 C11.8975666,2.1789237 11.8210763,2.10243343 11.7269952,2.05449674 C11.6200394,2 11.4800263,2 11.2,2 Z M10,13 L6,13 L6,12 L10,12 Z" id="path-1"></path>
    </defs>
    <g id="icon/mcp/等待批准" stroke="none" fill="currentColor" xlink:href="#path-1">
        <g id="图形"></g>
        <path d="M13,2.8 L13,2.91666667 C13,3.49634244 12.9947546,3.64389086 12.9470772,3.89434675 C12.8979482,4.15242783 12.8151317,4.40293752 12.7007528,4.6394475 C12.5861536,4.87641306 12.4971277,5.0038297 12.1050408,5.52661224 L10.5449592,7.60672109 C10.3758447,7.83220713 10.3191694,7.90970746 10.2721774,7.98119365 C10.267707,7.98799412 10.2636542,7.99426529 10.2600157,8 C10.2624457,8.00382761 10.2650862,8.00793658 10.2679224,8.01229866 C10.3142867,8.08360765 10.3718042,8.16240555 10.5449592,8.39327891 L12.1050408,10.4733878 C12.4971277,10.9961703 12.5861536,11.1235869 12.7007528,11.3605525 C12.8151317,11.5970625 12.8979482,11.8475722 12.9470772,12.1056532 C12.9947546,12.3561091 13,12.5036576 13,13.0833333 L13,13.2 C13,13.7510821 12.9893901,13.8809413 12.8365098,14.1809857 C12.6926997,14.4632289 12.4632289,14.6926997 12.1809857,14.8365098 C11.8809413,14.9893901 11.7510821,15 11.2,15 L4.8,15 C4.24891792,15 4.11905873,14.9893901 3.81901425,14.8365098 C3.53677111,14.6926997 3.30730028,14.4632289 3.16349021,14.1809857 C3.01060992,13.8809413 3,13.7510821 3,13.2 L3,13.0833333 C3,12.5036576 3.00524537,12.3561091 3.05292281,12.1056532 C3.10205181,11.8475722 3.18486832,11.5970625 3.29924718,11.3605525 C3.41384637,11.1235869 3.50287228,10.9961703 3.89495918,10.4733878 L5.45504082,8.39327891 C5.62819584,8.16240555 5.68571329,8.08360765 5.7320776,8.01229866 C5.73491379,8.00793655 5.73755438,8.00382756 5.73998426,8 C5.73634572,7.99426524 5.73229297,7.98799409 5.72782265,7.98119365 C5.68083061,7.90970746 5.62415534,7.83220713 5.45504082,7.60672109 L3.89495918,5.52661224 C3.50287228,5.0038297 3.41384637,4.87641306 3.29924718,4.6394475 C3.18486832,4.40293752 3.10205181,4.15242783 3.05292281,3.89434675 C3.00524537,3.64389086 3,3.49634244 3,2.91666667 L3,2.8 C3,2.24891792 3.01060992,2.11905873 3.16349021,1.81901425 C3.30730028,1.53677111 3.53677111,1.30730028 3.81901425,1.16349021 C4.11905873,1.01060992 4.24891792,1 4.80000001,1 L11.2,1 C11.7510821,1 11.8809413,1.01060992 12.1809857,1.16349021 C12.4632289,1.30730028 12.6926997,1.53677111 12.8365098,1.81901425 C12.9893901,2.11905873 13,2.24891792 13,2.8 Z M4,2.8 L4,2.91666667 C4,3.32022352 4,3.52200195 4.03528188,3.70734228 C4.06803454,3.87939633 4.12324554,4.04640279 4.19949812,4.20407611 C4.28380872,4.37841163 4.42085887,4.56114517 4.69495918,4.92661224 L6.25504082,7.00672109 C6.52987422,7.37316562 6.66729092,7.55638789 6.71705501,7.7454325 C6.76098166,7.91230177 6.76098166,8.08769823 6.71705501,8.2545675 C6.66729092,8.44361211 6.52987422,8.62683438 6.25504082,8.99327891 L4.69495918,11.0733878 C4.42085887,11.4388548 4.28380872,11.6215884 4.19949812,11.7959239 C4.12324554,11.9535972 4.06803454,12.1206037 4.03528188,12.2926577 C4,12.477998 4,12.6797765 4,13.0833333 L4,13.2 C4,13.4800263 4,13.6200394 4.05449674,13.7269952 C4.10243343,13.8210763 4.1789237,13.8975666 4.27300475,13.9455033 C4.37996062,14 4.51997375,14 4.8,14 L11.2,14 C11.4800263,14 11.6200394,14 11.7269952,13.9455033 C11.8210763,13.8975666 11.8975666,13.8210763 11.9455033,13.7269952 C12,13.6200394 12,13.4800263 12,13.2 L12,13.0833333 C12,12.6797765 12,12.477998 11.9647181,12.2926577 C11.9319655,12.1206037 11.8767545,11.9535972 11.8005019,11.7959239 C11.7161913,11.6215884 11.5791411,11.4388548 11.3050408,11.0733878 L9.74495918,8.99327891 C9.47012578,8.62683438 9.33270908,8.44361211 9.28294499,8.2545675 C9.23901834,8.08769823 9.23901834,7.91230177 9.28294499,7.7454325 C9.33270908,7.55638789 9.47012578,7.37316562 9.74495918,7.00672109 L11.3050408,4.92661224 C11.5791411,4.56114517 11.7161913,4.37841163 11.8005019,4.20407611 C11.8767545,4.04640279 11.9319655,3.87939633 11.9647181,3.70734228 C12,3.52200195 12,3.32022352 12,2.91666667 L12,2.8 C12,2.51997375 12,2.37996062 11.9455033,2.27300475 C11.8975666,2.1789237 11.8210763,2.10243343 11.7269952,2.05449674 C11.6200394,2 11.4800263,2 11.2,2 L4.8,2 L4.74910975,2 C4.50260124,2.00021288 4.37327588,2.00340605 4.27300475,2.05449674 C4.1789237,2.10243343 4.10243343,2.1789237 4.05449674,2.27300475 C4,2.37996062 4,2.51997375 4,2.8 Z M10,12 L10,13 L6,13 L6,12 L10,12 Z" id="形状" fill="currentColor"></path>
    </g>
</svg>