<?xml version="1.0" encoding="UTF-8"?>
<svg width="16px" height="16px" viewBox="0 0 16 16" version="1.1" xmlns="http://www.w3.org/2000/svg" xmlns:xlink="http://www.w3.org/1999/xlink">
    <defs>
        <path fill="currentColor" d="M10.8001227,1.04242195 C10.9548825,1.08003079 11.1026654,1.14204636 11.237919,1.22613868 C11.3808858,1.31502665 11.4277861,1.35899326 11.6226492,1.55749324 L13.4665769,3.43583533 C13.6568991,3.62970969 13.6990164,3.67624581 13.7840056,3.8169718 C13.8644166,3.95011723 13.9236293,4.09495947 13.9595205,4.24630498 C13.9974551,4.40626726 14,4.4689809 14,4.74066054 L14,13.2 C14,13.7510821 13.9893901,13.8809413 13.8365098,14.1809857 C13.6926997,14.4632289 13.4632289,14.6926997 13.1809857,14.8365098 C12.8809413,14.9893901 12.7510821,15 12.2,15 L3.8,15 C3.24891792,15 3.11905873,14.9893901 2.81901425,14.8365098 C2.53677111,14.6926997 2.30730028,14.4632289 2.16349021,14.1809857 C2.01060992,13.8809413 2,13.7510821 2,13.2 L2,2.8 C2,2.24891792 2.01060992,2.11905873 2.16349021,1.81901425 C2.30730028,1.53677111 2.53677111,1.30730028 2.81901425,1.16349021 C3.11905873,1.01060992 3.24891792,1 3.8,1 L10.2941448,1 C10.5723064,1 10.6365371,1.00266833 10.8001227,1.04242195 Z M3.74910975,2 C3.50260124,2.00021288 3.37327588,2.00340605 3.27300475,2.05449674 C3.1789237,2.10243343 3.10243343,2.1789237 3.05449674,2.27300475 C3,2.37996062 3,2.51997375 3,2.8 L3,13.2 C3,13.4800263 3,13.6200394 3.05449674,13.7269952 C3.10243343,13.8210763 3.1789237,13.8975666 3.27300475,13.9455033 C3.37996062,14 3.51997375,14 3.8,14 L12.2,14 C12.4800263,14 12.6200394,14 12.7269952,13.9455033 C12.8210763,13.8975666 12.8975666,13.8210763 12.9455033,13.7269952 C13,13.6200394 13,13.4800263 13,13.2 L13,4.74066054 C13,4.60285374 13,4.53395035 12.9865068,4.47705249 C12.9745431,4.42660399 12.9548055,4.37832325 12.9280019,4.33394144 C12.8977716,4.28388584 12.8495021,4.23471543 12.752963,4.13637459 L10.9090353,2.25803249 C10.8101902,2.1573426 10.7607677,2.10699766 10.7099133,2.07537956 C10.6648288,2.04734879 10.6155679,2.02667693 10.5639812,2.01414065 C10.5057927,2 10.4352434,2 10.2941448,2 Z M10,12 L5,12 L5,11 L10,11 Z M8,6 L10,6 L10,7 L8,7 L8,9 L7,9 L7,7 L5,7 L5,6 L7,6 L7,4 L8,4 Z" id="path-1"></path>
    </defs>
    <g id="icon/mcp/文件更改" stroke="none"  xlink:href="#path-1" >
        <g id="图形" fill="currentColor" >
            <path d="M11.6226492,1.55749324 L13.4665769,3.43583533 C13.6568991,3.62970969 13.6990164,3.67624581 13.7840056,3.8169718 C13.8644166,3.95011723 13.9236293,4.09495947 13.9595205,4.24630498 C13.9974551,4.40626726 14,4.4689809 14,4.74066054 L14,13.2 C14,13.7510821 13.9893901,13.8809413 13.8365098,14.1809857 C13.6926997,14.4632289 13.4632289,14.6926997 13.1809857,14.8365098 C12.8809413,14.9893901 12.7510821,15 12.2,15 L3.8,15 C3.24891792,15 3.11905873,14.9893901 2.81901425,14.8365098 C2.53677111,14.6926997 2.30730028,14.4632289 2.16349021,14.1809857 C2.01060992,13.8809413 2,13.7510821 2,13.2 L2,2.8 C2,2.24891792 2.01060992,2.11905873 2.16349021,1.81901425 C2.30730028,1.53677111 2.53677111,1.30730028 2.81901425,1.16349021 C3.11905873,1.01060992 3.24891792,1 3.8,1 L10.2941448,1 C10.5723064,1 10.6365371,1.00266833 10.8001227,1.04242195 C10.9548825,1.08003079 11.1026654,1.14204636 11.237919,1.22613868 C11.3808858,1.31502665 11.4277861,1.35899326 11.6226492,1.55749324 Z M3,2.8 L3,13.2 C3,13.4800263 3,13.6200394 3.05449674,13.7269952 C3.10243343,13.8210763 3.1789237,13.8975666 3.27300475,13.9455033 C3.37996062,14 3.51997375,14 3.8,14 L12.2,14 C12.4800263,14 12.6200394,14 12.7269952,13.9455033 C12.8210763,13.8975666 12.8975666,13.8210763 12.9455033,13.7269952 C13,13.6200394 13,13.4800263 13,13.2 L13,4.74066054 C13,4.60285374 13,4.53395035 12.9865068,4.47705249 C12.9745431,4.42660399 12.9548055,4.37832325 12.9280019,4.33394144 C12.8977716,4.28388584 12.8495021,4.23471543 12.752963,4.13637459 L10.9090353,2.25803249 C10.8101902,2.1573426 10.7607677,2.10699766 10.7099133,2.07537956 C10.6648288,2.04734879 10.6155679,2.02667693 10.5639812,2.01414065 C10.5057927,2 10.4352434,2 10.2941448,2 L3.8,2 L3.74910975,2 C3.50260124,2.00021288 3.37327588,2.00340605 3.27300475,2.05449674 C3.1789237,2.10243343 3.10243343,2.1789237 3.05449674,2.27300475 C3,2.37996062 3,2.51997375 3,2.8 Z M10,11 L10,12 L5,12 L5,11 L10,11 Z M8,4 L8,6 L10,6 L10,7 L8,7 L8,9 L7,9 L7,7 L5,7 L5,6 L7,6 L7,4 L8,4 Z" id="形状"></path>
        </g>
    </g>
</svg>