<?xml version="1.0" encoding="utf-8" ?>
<svg xmlns="http://www.w3.org/2000/svg" xmlns:xlink="http://www.w3.org/1999/xlink" width="16" height="16">
	<path fill-opacity="1"  fill="currentColor" transform="translate(2 1)" d="M6 0C9.3137083 0 12 2.6862915 12 6L12 8C12 11.313708 9.3137083 14 6 14C2.6862915 14 0 11.313708 0 8L0 6C0 2.6862915 2.6862915 0 6 0ZM6 1C3.2385762 1 1 3.2385762 1 6L1 8C1 10.761424 3.2385762 13 6 13C8.7614241 13 11 10.761424 11 8L11 6C11 3.2385762 8.7614241 1 6 1ZM5.515008 1.999297C5.5373302 1.9998995 5.5597501 2.0020325 5.5821257 2.0057695C5.5946779 2.0080457 5.5994563 2.008986 5.6042094 2.0099938C5.6228828 2.0139644 5.6423397 2.0193698 5.661633 2.026068L5.6951337 2.0386274C5.7071409 2.0442383 5.7197967 2.0503011 5.732327 2.0569692C5.7508435 2.0660324 5.7679515 2.0764334 5.784348 2.0877895L9.2906189 4.5931334C9.5857983 4.8039751 9.5652685 5.2491121 9.251936 5.4318895L6.5619187 6.9991183L9.251936 8.5672293C9.5367832 8.7333899 9.5796452 9.1163778 9.3633118 9.3430471L9.2906189 9.4059849L5.7906189 11.905985C5.7679515 11.922685 5.7508435 11.933086 5.7331038 11.942451C5.7197967 11.948817 5.7071409 11.954881 5.6943874 11.960353C5.6842566 11.965106 5.6731825 11.969347 5.6619277 11.973197C5.6423397 11.979749 5.6228828 11.985154 5.6033568 11.989316L5.5898757 11.991944C5.5597501 11.997086 5.5373302 11.999219 5.515008 11.999822L5.5 12L5.4293308 11.994658L5.447 11.996C5.4179072 11.993715 5.3980222 11.990005 5.3785872 11.985157L5.340508 11.97314L5.3255339 11.968719C5.3116059 11.963532 5.2979717 11.957743 5.2846627 11.951383C5.2785339 11.947452 5.2722287 11.944281 5.2659917 11.940979C5.2492533 11.933088 5.2331457 11.923326 5.2176652 11.912716C5.2115197 11.907711 5.2055273 11.903443 5.1996274 11.899047C5.1839733 11.887986 5.1688724 11.875165 5.1545796 11.861505L5.1406202 11.847513C5.12889 11.835495 5.1179066 11.822943 5.1075635 11.809861C5.0956335 11.795319 5.0842347 11.779236 5.0737939 11.762413C5.0714417 11.757751 5.0689945 11.753646 5.0666051 11.749505L5.0689998 11.755L5.0528316 11.725067C5.0463619 11.71225 5.0404224 11.699069 5.035049 11.685545C5.0335345 11.680464 5.031846 11.67604 5.0302191 11.671586C5.0107102 11.619309 5 11.561195 5 11.499119L5 7.9109998L3.2519355 8.9318895C3.0399125 9.0555696 2.774451 9.0056534 2.6203547 8.8255091L2.5681105 8.751936C2.4289703 8.5134096 2.5095384 8.2072506 2.7480645 8.0681105L4.5789185 6.9991183L2.7480645 5.9310079C2.5360415 5.8073277 2.4488246 5.5516825 2.5297832 5.3288746L2.5681105 5.2471828L2.6203547 5.1736093C2.774451 4.9934654 3.0399125 4.9435487 3.2519355 5.0672293L5 6.0881186L5 2.5C5 2.4060445 5.0245347 2.3211691 5.066349 2.2491081L5.0700002 2.243L5.0860529 2.2179279C5.0929847 2.2078242 5.1002727 2.1980138 5.107892 2.1885092C5.1179066 2.1761756 5.12889 2.1636236 5.1404657 2.151648L5.1547499 2.1377382C5.1688724 2.1239533 5.1839733 2.1111321 5.1998043 2.0992291L5.2175994 2.0872736C5.2331457 2.0757918 5.2492533 2.0660298 5.2659211 2.057183C5.272872 2.054498 5.2798352 2.0510135 5.2868743 2.0476892C5.299336 2.0407979 5.3123026 2.0353267 5.3255339 2.0303998L5.340508 2.0259786C5.3881097 2.0097816 5.4382305 2.0005879 5.4891548 1.9992806L5.515008 1.999297ZM6 7.8281183L6 10.528118L8.0810003 9.0421181L6 7.8281183ZM6 3.471L6 6.171L8.0810003 4.9569998L6 3.471Z"/>
</svg>
