<?xml version="1.0" encoding="utf-8" ?>
<svg xmlns="http://www.w3.org/2000/svg" xmlns:xlink="http://www.w3.org/1999/xlink" width="16" height="16">
	<path fill="white" fill-opacity="1" transform="translate(1 2.25)" d="M13 2L13 9.75C13 10.854569 12.104569 11.75 11 11.75L2 11.75C0.89543051 11.75 0 10.854569 0 9.75L0 2C0 0.89543051 0.89543051 6.6613381e-16 2 4.4408921e-16L11 0C12.104569 0 13 0.89543051 13 2Z" fill-rule="evenodd"/>
	<path fill="white" fill-opacity="0.80000001" transform="translate(1 1.875)" d="M13 2L13 9.75C13 10.854569 12.104569 11.75 11 11.75L2 11.75C0.89543051 11.75 0 10.854569 0 9.75L0 2C0 0.89543051 0.89543051 6.6613381e-16 2 4.4408921e-16L11 0C12.104569 0 13 0.89543051 13 2Z" fill-rule="evenodd"/>
	<path fill="white" fill-opacity="1" transform="translate(1 1.25)" d="M13 2L13 10.125C13 11.229569 12.104569 12.125 11 12.125L2 12.125C0.89543051 12.125 0 11.229569 0 10.125L0 2C0 0.89543051 0.89543051 2.220446e-16 2 0L11 0C12.104569 0 13 0.89543051 13 2Z" fill-rule="evenodd"/>
	<path fill="white" transform="translate(1 1)" d="M2.5638852 -1.1335426e-16L10.436115 0C11.327634 0 11.65092 0.092825614 11.976846 0.2671327C12.302772 0.44143981 12.55856 0.69722837 12.732867 1.0231543C12.907174 1.3490802 13 1.6723665 13 2.5638852L13 9.5611153C13 10.452634 12.907174 10.77592 12.732867 11.101846C12.55856 11.427772 12.302772 11.68356 11.976846 11.857867C11.65092 12.032174 11.327634 12.125 10.436115 12.125L2.5638852 12.125C1.6723665 12.125 1.3490802 12.032174 1.0231543 11.857867C0.69722837 11.68356 0.44143981 11.427772 0.2671327 11.101846C0.092825614 10.77592 0 10.452634 0 9.5611153L0 2.5638852C0 1.6723665 0.092825614 1.3490802 0.2671327 1.0231543C0.44143981 0.69722837 0.69722837 0.44143981 1.0231543 0.2671327C1.3490802 0.092825614 1.6723665 6.5862092e-17 2.5638852 -1.1335426e-16Z" fill-rule="evenodd"/>
	<defs>
		<linearGradient id="gradient_0" gradientUnits="userSpaceOnUse" x1="6.5" y1="0" x2="6.5" y2="3.75">
			<stop offset="0" stop-color="#FF6A6F"/>
			<stop offset="1" stop-color="#E5484B"/>
		</linearGradient>
	</defs>
	<path fill="url(#gradient_0)" transform="translate(1 1)" d="M2.5638852 -1.1335426e-16L10.436115 0C11.327634 0 11.65092 0.092825614 11.976846 0.2671327C12.302772 0.44143981 12.55856 0.69722837 12.732867 1.0231543C12.907174 1.3490802 13 1.6723665 13 2.5638852L13 3.75L13 3.75L0 3.75L0 2.5638852C0 1.6723665 0.092825614 1.3490802 0.2671327 1.0231543C0.44143981 0.69722837 0.69722837 0.44143981 1.0231543 0.2671327C1.3490802 0.092825614 1.6723665 6.5862092e-17 2.5638852 -1.1335426e-16Z"/>
	<defs>
		<linearGradient id="gradient_1" gradientUnits="userSpaceOnUse" x1="6.5" y1="0" x2="6.5" y2="3.7195764">
			<stop offset="0" stop-color="white" stop-opacity="0.3019608"/>
			<stop offset="1" stop-color="#C80000" stop-opacity="0.40000001"/>
		</linearGradient>
	</defs>
	<path fill="url(#gradient_1)" transform="translate(1 1)" d="M10.436115 0C11.327634 0 11.65092 0.092825614 11.976846 0.2671327C12.302772 0.44143981 12.55856 0.69722837 12.732867 1.0231543C12.907174 1.3490802 13 1.6723665 13 2.5638852L13 3.75L0 3.75L0 2.5638852C0 1.6723665 0.092825614 1.3490802 0.2671327 1.0231543C0.44143981 0.69722837 0.69722837 0.44143981 1.0231543 0.2671327C1.3490802 0.092825614 1.6723665 0 2.5638852 0L10.436115 0ZM2.5638852 0.125C1.7699392 0.125 1.4319237 0.19027379 1.0821042 0.37735936C0.77796179 0.54001647 0.54001647 0.77796179 0.37735936 1.0821042C0.19483685 1.4233916 0.12825654 1.7534436 0.125 2.5065985L0.125 3.625L12.875 3.625L12.875 2.5638852C12.875 1.7893037 12.812872 1.4486835 12.636113 1.1076864L12.622641 1.0821042C12.459984 0.77796179 12.222038 0.54001647 11.917896 0.37735936C11.568076 0.19027379 11.230061 0.125 10.436115 0.125L2.5638852 0.125Z"/>
	<path fill="white" transform="translate(4.12497 2.10951)" d="M0 1.515487L0.25003505 1.515487L0.25003505 0.89298695C0.25003505 0.75079948 0.22566283 0.53267449 0.21144569 0.39048699L0.21956977 0.39048699L0.3393999 0.75283074L0.59918571 1.390487L0.79213256 1.390487L1.0316082 0.75283074L1.1534693 0.39048699L1.1636244 0.39048699C1.1473763 0.53267449 1.125035 0.75079948 1.125035 0.89298695L1.125035 1.515487L1.375035 1.515487L1.375035 0.015486972L1.0419478 0.015486972L0.79213256 0.73658073C0.75963622 0.83001822 0.73323298 0.9200182 0.70073664 1.015487L0.69058156 1.015487C0.66011626 0.9200182 0.63168198 0.83001822 0.59918571 0.73658073L0.34327728 0.015486972L0 0.015486972L0 1.515487ZM2.0614846 0.73658073C2.1061671 0.58017445 2.1508493 0.43001822 2.1894388 0.26548699L2.1995938 0.26548699C2.2422452 0.42798698 2.2828658 0.58017445 2.3295791 0.73658073L2.3742616 0.90111196L2.0168021 0.90111196L2.0614846 0.73658073ZM1.5415436 1.515487L1.8461965 1.515487L1.9518095 1.1295495L2.439254 1.1295495L2.544867 1.515487L2.8596752 1.515487L2.3762925 0.015486972L2.0228951 0.015486972L1.5415436 1.515487ZM3.000035 1.515487L3.250035 1.515487L3.250035 0.92688429L3.500035 0.92688429L3.8087499 1.515487L4.143868 1.515487L3.7925019 0.88838702C3.9651384 0.82135576 4.0788755 0.69798696 4.0788755 0.47251824C4.0788755 0.12720571 3.8290601 0.015486972 3.5142522 0.015486972L3.000035 0.015486972L3.000035 1.515487ZM3.250035 0.71423697L3.250035 0.26548699L3.4858179 0.26548699C3.6787648 0.26548699 3.7870882 0.31724238 3.7870882 0.47974241C3.7870882 0.64021116 3.6787648 0.71423697 3.4858179 0.71423697L3.250035 0.71423697ZM5.0355768 1.5293854C5.2305546 1.5293854 5.3903251 1.4667369 5.5142174 1.3225182L5.3557978 1.1356432C5.2745571 1.2229869 5.1750369 1.2766747 5.0450521 1.2766747C4.8074226 1.2766747 4.6250353 1.0935339 4.6250353 0.76650262C4.6250353 0.44353384 4.8236709 0.25796875 5.0511451 0.25796875C5.1648822 0.25796875 5.2522159 0.29986197 5.3293943 0.37298697L5.4857831 0.18204947C5.3882942 0.080486976 5.2359676 0 5.0450521 0C4.6652513 0 4.3750353 0.27904651 4.3750353 0.77467149C4.3750353 1.2763902 4.6557765 1.5293854 5.0355768 1.5293854ZM5.7500353 1.515487L6.0000353 1.515487L6.0000353 0.88565856L6.625185 0.88565856L6.625185 1.515487L6.8750353 1.515487L6.8750353 0.015486972L6.625185 0.015486972L6.625185 0.64048696L6.0000353 0.64048696L6.0000353 0.015486972L5.7500353 0.015486972L5.7500353 1.515487Z"/>
	<path transform="translate(4.09489 5.95238)" d="M3.0301135 5.2976189L3.0301135 4.5494981L1.0170472 4.5494981L2.6762474 2.4090216C2.8875616 2.1417503 2.9932187 1.8362974 2.9932187 1.4926628C2.9884162 1.0631195 2.8431375 0.70874637 2.5573831 0.42954326C2.2764311 0.14795378 1.910233 0.0047727027 1.4587889 0C1.0553707 0.0047727027 0.71558702 0.14556743 0.43943766 0.4223842C0.1656896 0.70635998 0.019210389 1.1133031 0 1.5476191L0.74920517 1.5476191C0.77561945 1.3089839 0.85966492 1.0762445 1.0013416 0.94499516C1.1382155 0.8137458 1.3099084 0.74812114 1.5164201 0.74812114C1.749346 0.75289387 1.9294435 0.82806391 2.0567124 0.97363138C2.1791785 1.1191988 2.2404115 1.2898229 2.2404115 1.4855037C2.2404115 1.5594807 2.2308064 1.6382302 2.211596 1.7217525C2.1827805 1.8100475 2.1287513 1.9055016 2.0495083 2.0081146L0.030113488 4.592452L0.030113488 5.2976189L3.0301135 5.2976189ZM4.9953785 5.2976189L6.7801137 0.79761904L6.7801137 0.048114434L3.7801135 0.047619049L3.7801135 1.5538006L4.5338278 1.5538006L4.5338278 0.79712367L5.929461 0.79712367L4.1551137 5.2976189L4.9953785 5.2976189Z"/>
</svg>
