<?xml version="1.0" encoding="utf-8" ?>
<svg xmlns="http://www.w3.org/2000/svg" xmlns:xlink="http://www.w3.org/1999/xlink" width="16" height="16">
	<path fill="currentColor" fill-opacity="1" transform="translate(1 1)" d="M5.1018901 2.9232728L7.195015 1.3120856C7.413837 1.143647 7.7277737 1.1844907 7.8962121 1.4033127C7.9635091 1.4907393 8 1.5979697 8 1.7082978L8 11.612247C8 11.88839 7.7761426 12.112247 7.5 12.112247C7.3814788 12.112247 7.2668114 12.070145 7.1764503 11.99345L5.1326871 10.258784C4.5905199 9.7986135 3.9025149 9.5459995 3.1913877 9.5459995L1.5 9.5459995C0.67157286 9.5459995 1.1790569e-13 8.8744268 1.1790569e-13 8.0459995L-4.6629367e-15 5.046C-4.6629367e-15 4.2175727 0.67157286 3.546 1.5 3.546L3.2719793 3.546C3.9339483 3.546 4.5773301 3.3270543 5.1018901 2.9232728ZM13 0.5C13 0.22385763 13.223858 0 13.5 0C13.776142 0 14 0.22385763 14 0.5L14 12.635C14 12.911142 13.776142 13.135 13.5 13.135C13.223858 13.135 13 12.911142 13 12.635L13 0.5ZM11 2.3429999C11 2.0668576 11.223858 1.8430001 11.5 1.8430001C11.776142 1.8430001 12 2.0668576 12 2.3429999L12 10.792C12 11.068142 11.776142 11.292 11.5 11.292C11.223858 11.292 11 11.068142 11 10.792L11 2.3429999ZM9.0139999 4.164C9.0139999 3.8878577 9.2378578 3.664 9.5139999 3.664C9.7901421 3.664 10.014 3.8878577 10.014 4.164L10.014 8.9280005C10.014 9.2041426 9.7901421 9.4280005 9.5139999 9.4280005C9.2378578 9.4280005 9.0139999 9.2041426 9.0139999 8.9280005L9.0139999 4.164Z"/>
</svg>
