<?xml version="1.0" encoding="utf-8" ?>
<svg xmlns="http://www.w3.org/2000/svg" xmlns:xlink="http://www.w3.org/1999/xlink" width="16" height="16">
	<path fill="currentColor" fill-opacity="1" transform="translate(1.5 1.5)" d="M6.5 11C6.7761426 11 7 11.223858 7 11.5L7 12.5C7 12.776142 6.7761426 13 6.5 13C6.2238574 13 6 12.776142 6 12.5L6 11.5C6 11.223858 6.2238574 11 6.5 11ZM10.389088 9.6819801L11.096194 10.389088C11.291456 10.58435 11.291456 10.900932 11.096194 11.096194C10.900932 11.291456 10.58435 11.291456 10.389088 11.096194L9.6819801 10.389088C9.4867182 10.193825 9.4867182 9.877243 9.6819801 9.6819801C9.877243 9.4867182 10.193825 9.4867182 10.389088 9.6819801ZM3.3180194 9.6819801C3.5132816 9.877243 3.5132816 10.193825 3.3180194 10.389088L2.6109128 11.096194C2.4156506 11.291456 2.0990682 11.291456 1.903806 11.096194C1.7085438 10.900932 1.7085438 10.58435 1.903806 10.389088L2.6109128 9.6819801C2.8061748 9.4867182 3.1227574 9.4867182 3.3180194 9.6819801ZM6.5 3.5C8.1568546 3.5 9.5 4.8431458 9.5 6.5C9.5 8.1568546 8.1568546 9.5 6.5 9.5C4.8431458 9.5 3.5 8.1568546 3.5 6.5C3.5 4.8431458 4.8431458 3.5 6.5 3.5ZM12.5 6C12.776142 6 13 6.2238574 13 6.5C13 6.7761426 12.776142 7 12.5 7L11.5 7C11.223858 7 11 6.7761426 11 6.5C11 6.2238574 11.223858 6 11.5 6L12.5 6ZM1.5 6C1.7761424 6 2 6.2238574 2 6.5C2 6.7761426 1.7761424 7 1.5 7L0.5 7C0.22385763 7 1.4389172e-17 6.7761426 -9.1848507e-17 6.5C-1.4257505e-16 6.2238574 0.22385763 6 0.5 6L1.5 6ZM11.096194 1.903806C11.291456 2.0990682 11.291456 2.4156506 11.096194 2.6109128L10.389088 3.3180194C10.193825 3.5132816 9.877243 3.5132816 9.6819801 3.3180194C9.4867182 3.1227574 9.4867182 2.8061748 9.6819801 2.6109128L10.389088 1.903806C10.58435 1.7085438 10.900932 1.7085438 11.096194 1.903806ZM2.6109128 1.903806L3.3180194 2.6109128C3.5132816 2.8061748 3.5132816 3.1227574 3.3180194 3.3180194C3.1227574 3.5132816 2.8061748 3.5132816 2.6109128 3.3180194L1.903806 2.6109128C1.7085438 2.4156506 1.7085438 2.0990682 1.903806 1.903806C2.0990682 1.7085438 2.4156506 1.7085438 2.6109128 1.903806ZM6.5 0C6.7761426 0 7 0.22385763 7 0.5L7 1.5C7 1.7761424 6.7761426 2 6.5 2C6.2238574 2 6 1.7761424 6 1.5L6 0.5C6 0.22385763 6.2238574 5.5511151e-17 6.5 0Z"/>
</svg>
