<?xml version="1.0" encoding="utf-8" ?>
<svg xmlns="http://www.w3.org/2000/svg" xmlns:xlink="http://www.w3.org/1999/xlink" width="16" height="16">
	<path fill="currentColor" fill-opacity="1" transform="translate(1 2.20827)" d="M5.1018901 1.7149998L7.195015 0.10381262C7.413837 -0.064626023 7.7277737 -0.023782305 7.8962121 0.19503962C7.9635091 0.28246632 8 0.3896966 8 0.50002474L8 10.403975C8 10.680117 7.7761426 10.903975 7.5 10.903975C7.3814788 10.903975 7.2668114 10.861872 7.1764503 10.785177L5.1326871 9.0505104C4.5905199 8.5903406 3.9025149 8.3377266 3.1913877 8.3377266L1.5 8.3377266C0.67157286 8.3377266 1.1790569e-13 7.6661539 1.1790569e-13 6.8377271L-4.6629367e-15 3.8377271C-4.6629367e-15 3.0092998 0.67157286 2.3377271 1.5 2.3377271L3.2719793 2.3377271C3.9339483 2.3377271 4.5773301 2.1187813 5.1018901 1.7149998ZM9.6240978 3.956455C9.8199453 3.7606072 10.137478 3.7606072 10.333325 3.956455L11.475712 5.100069L12.619497 3.956455C12.793585 3.7823679 13.063817 3.763025 13.259271 3.8984261L13.328726 3.956455C13.524573 4.1523032 13.524573 4.4698353 13.328726 4.6656833L12.184711 5.8090692L13.328326 6.9514551C13.502413 7.1255422 13.521756 7.3957748 13.386354 7.5912275L13.328326 7.6606832C13.132478 7.8565311 12.814945 7.8565311 12.619098 7.6606832L11.476712 6.5170693L10.333726 7.6606832C10.159638 7.8347702 9.8894062 7.8541131 9.6939535 7.7187123L9.6244974 7.6606832C9.4286499 7.4648352 9.4286499 7.1473031 9.6244974 6.9514551L10.767712 5.8080692L9.6240978 4.6656833C9.4500103 4.4915962 9.4306679 4.2213635 9.5660686 4.0259109L9.6240978 3.956455Z"/>
</svg>
