<?xml version="1.0" encoding="utf-8" ?>
<svg xmlns="http://www.w3.org/2000/svg" xmlns:xlink="http://www.w3.org/1999/xlink" width="16" height="16">
	<path fill="currentColor" fill-opacity="1" transform="translate(0.5 0.5)" d="M7.5 12C7.7761426 12 8 12.223858 8 12.5L8 14.5C8 14.776142 7.7761426 15 7.5 15C7.2238574 15 7 14.776142 7 14.5L7 12.5C7 12.223858 7.2238574 12 7.5 12ZM11.389088 10.68198L12.803301 12.096194C12.998563 12.291456 12.998563 12.608039 12.803301 12.803301C12.608039 12.998563 12.291456 12.998563 12.096194 12.803301L10.68198 11.389088C10.486718 11.193825 10.486718 10.877243 10.68198 10.68198C10.877243 10.486718 11.193825 10.486718 11.389088 10.68198ZM4.3180194 10.68198C4.5132818 10.877243 4.5132818 11.193825 4.3180194 11.389088L2.903806 12.803301C2.7085438 12.998563 2.3919613 12.998563 2.1966991 12.803301C2.0014369 12.608039 2.0014369 12.291456 2.1966991 12.096194L3.6109128 10.68198C3.8061748 10.486718 4.1227574 10.486718 4.3180194 10.68198ZM7.5 4C9.4329967 4 11 5.5670033 11 7.5C11 9.4329967 9.4329967 11 7.5 11C5.5670033 11 4 9.4329967 4 7.5C4 5.5670033 5.5670033 4 7.5 4ZM14.5 7C14.776142 7 15 7.2238574 15 7.5C15 7.7761426 14.776142 8 14.5 8L12.5 8C12.223858 8 12 7.7761426 12 7.5C12 7.2238574 12.223858 7 12.5 7L14.5 7ZM2.5 7C2.7761424 7 3 7.2238574 3 7.5C3 7.7761426 2.7761424 8 2.5 8L0.5 8C0.22385763 8 1.4389172e-17 7.7761426 -9.1848507e-17 7.5C-1.4257505e-16 7.2238574 0.22385763 7 0.5 7L2.5 7ZM12.803301 2.1966991C12.998563 2.3919613 12.998563 2.7085438 12.803301 2.903806L11.389088 4.3180194C11.193825 4.5132818 10.877243 4.5132818 10.68198 4.3180194C10.486718 4.1227574 10.486718 3.8061748 10.68198 3.6109128L12.096194 2.1966991C12.291456 2.0014369 12.608039 2.0014369 12.803301 2.1966991ZM2.903806 2.1966991L4.3180194 3.6109128C4.5132818 3.8061748 4.5132818 4.1227574 4.3180194 4.3180194C4.1227574 4.5132818 3.8061748 4.5132818 3.6109128 4.3180194L2.1966991 2.903806C2.0014369 2.7085438 2.0014369 2.3919613 2.1966991 2.1966991C2.3919613 2.0014369 2.7085438 2.0014369 2.903806 2.1966991ZM7.5 0C7.7761426 0 8 0.22385763 8 0.5L8 2.5C8 2.7761424 7.7761426 3 7.5 3C7.2238574 3 7 2.7761424 7 2.5L7 0.5C7 0.22385763 7.2238574 5.5511151e-17 7.5 0Z"/>
</svg>
