<?xml version="1.0" encoding="utf-8" ?>
<svg xmlns="http://www.w3.org/2000/svg" xmlns:xlink="http://www.w3.org/1999/xlink" width="128" height="130">
	<path fill="white" d="M0 0L128 0L128 128L0 128L0 0Z"/>
	<defs>
		<linearGradient id="gradient_0" gradientUnits="userSpaceOnUse" x1="60.974094" y1="116" x2="55.750225" y2="2.9247854">
			<stop offset="0" stop-color="#3F3F3F"/>
			<stop offset="1" stop-color="#616161"/>
		</linearGradient>
	</defs>
	<path fill="url(#gradient_0)" transform="translate(6 6)" d="M116 58Q116 59.42382 115.93015 60.845924Q115.86028 62.268028 115.72072 63.68499Q115.58116 65.101952 115.37224 66.510361Q115.16331 67.91877 114.88554 69.315231Q114.60777 70.711693 114.26181 72.09285Q113.91585 73.473999 113.50254 74.83651Q113.08923 76.19902 112.60955 77.539604Q112.12988 78.880188 111.58501 80.195633Q111.04013 81.511063 110.43137 82.798187Q109.82262 84.085312 109.15143 85.341011Q108.48024 86.59671 107.74825 87.817955Q107.01627 89.0392 106.22523 90.223068Q105.4342 91.406929 104.58603 92.550552Q103.73787 93.694183 102.83461 94.794815Q101.93134 95.895432 100.97516 96.950409Q100.01898 98.005394 99.012192 99.012192Q98.005394 100.01898 96.950409 100.97517Q95.895432 101.93134 94.794807 102.83461Q93.694176 103.73787 92.550552 104.58604Q91.406929 105.4342 90.223068 106.22523Q89.0392 107.01627 87.817963 107.74825Q86.59671 108.48024 85.341011 109.15143Q84.085312 109.82262 82.798187 110.43137Q81.511063 111.04013 80.195633 111.58501Q78.880188 112.12988 77.539604 112.60956Q76.199013 113.08923 74.836502 113.50254Q73.473991 113.91585 72.092842 114.26181Q70.711693 114.60777 69.315231 114.88554Q67.91877 115.16331 66.510361 115.37224Q65.101952 115.58116 63.684994 115.72072Q62.268028 115.86028 60.845924 115.93013Q59.42382 116 58 116Q56.57618 116 55.154076 115.93013Q53.731972 115.86028 52.31501 115.72072Q50.898041 115.58116 49.489632 115.37224Q48.081223 115.16331 46.684761 114.88554Q45.2883 114.60777 43.90715 114.26181Q42.526001 113.91585 41.16349 113.50254Q39.80098 113.08923 38.460388 112.60955Q37.119797 112.12988 35.804359 111.58501Q34.488922 111.04013 33.201801 110.43137Q31.914684 109.82262 30.658987 109.15143Q29.40329 108.48024 28.182039 107.74825Q26.960789 107.01627 25.776924 106.22523Q24.593061 105.4342 23.44944 104.58603Q22.305817 103.73787 21.205189 102.83461Q20.104561 101.93134 19.04958 100.97516Q17.994598 100.01898 16.987806 99.012192Q15.981013 98.005394 15.024835 96.950409Q14.068655 95.895432 13.165394 94.794807Q12.262132 93.694176 11.413962 92.550552Q10.565794 91.406929 9.7747622 90.223068Q8.9837294 89.0392 8.2517395 87.817963Q7.5197501 86.59671 6.8485665 85.341011Q6.177382 84.085312 5.5686202 82.798187Q4.9598589 81.511063 4.4149866 80.195633Q3.8701141 78.880188 3.3904436 77.539604Q2.9107733 76.199013 2.4974604 74.836502Q2.084147 73.473991 1.7381871 72.092842Q1.3922271 70.711693 1.1144536 69.315231Q0.83668005 67.91877 0.62776232 66.510361Q0.41884455 65.101952 0.27928582 63.684994Q0.13972706 62.268028 0.069863528 60.845924Q0 59.42382 0 58Q0 56.57618 0.069863528 55.154076Q0.13972706 53.731972 0.27928582 52.31501Q0.41884455 50.898041 0.62776232 49.489632Q0.83668005 48.081223 1.1144536 46.684761Q1.3922271 45.2883 1.7381871 43.90715Q2.084147 42.526001 2.4974604 41.16349Q2.9107733 39.80098 3.3904438 38.460388Q3.8701141 37.119797 4.4149866 35.804359Q4.9598589 34.488922 5.5686202 33.201801Q6.1773815 31.914684 6.8485661 30.658987Q7.5197496 29.40329 8.2517395 28.182039Q8.9837284 26.960789 9.7747612 25.776924Q10.565794 24.593061 11.413962 23.44944Q12.262132 22.305817 13.165394 21.205189Q14.068655 20.104561 15.024835 19.04958Q15.981013 17.994598 16.987806 16.987806Q17.994598 15.981013 19.04958 15.024835Q20.104561 14.068655 21.205189 13.165394Q22.305817 12.262132 23.449438 11.413962Q24.593061 10.565794 25.776924 9.7747622Q26.960789 8.9837294 28.182037 8.2517395Q29.40329 7.5197501 30.658989 6.8485665Q31.914684 6.177382 33.201805 5.5686202Q34.488922 4.9598589 35.804359 4.4149866Q37.119797 3.8701141 38.460388 3.3904436Q39.80098 2.9107733 41.16349 2.4974604Q42.526001 2.084147 43.90715 1.7381871Q45.2883 1.3922271 46.684761 1.1144536Q48.081223 0.83668005 49.489632 0.62776232Q50.898041 0.41884455 52.31501 0.27928582Q53.731972 0.13972706 55.154076 0.069863528Q56.57618 0 58 0Q59.42382 0 60.845924 0.069863528Q62.268028 0.13972706 63.68499 0.27928582Q65.101952 0.41884455 66.510361 0.62776232Q67.91877 0.83668005 69.315231 1.1144536Q70.711693 1.3922271 72.09285 1.7381871Q73.473999 2.084147 74.83651 2.4974604Q76.19902 2.9107733 77.539604 3.3904438Q78.880188 3.8701141 80.195633 4.4149866Q81.511063 4.9598589 82.798187 5.5686202Q84.085312 6.1773815 85.341011 6.8485661Q86.59671 7.5197496 87.817955 8.2517395Q89.0392 8.9837284 90.223068 9.7747612Q91.406929 10.565794 92.550552 11.413962Q93.694183 12.262132 94.794815 13.165394Q95.895432 14.068655 96.950409 15.024835Q98.005394 15.981013 99.012192 16.987806Q100.01898 17.994598 100.97517 19.04958Q101.93134 20.104561 102.83461 21.205189Q103.73787 22.305817 104.58604 23.449438Q105.4342 24.593061 106.22523 25.776924Q107.01627 26.960789 107.74825 28.182037Q108.48024 29.40329 109.15143 30.658989Q109.82262 31.914684 110.43137 33.201805Q111.04013 34.488922 111.58501 35.804359Q112.12988 37.119797 112.60956 38.460388Q113.08923 39.80098 113.50254 41.16349Q113.91585 42.526001 114.26181 43.90715Q114.60777 45.2883 114.88554 46.684761Q115.16331 48.081223 115.37224 49.489632Q115.58116 50.898041 115.72072 52.31501Q115.86028 53.731972 115.93013 55.154076Q116 56.57618 116 58Z"/>
	<defs>
		<linearGradient id="gradient_1" gradientUnits="userSpaceOnUse" x1="58" y1="0" x2="58" y2="116">
			<stop offset="0" stop-color="#7A7A7A"/>
			<stop offset="1" stop-color="black"/>
		</linearGradient>
	</defs>
	<path fill="url(#gradient_1)" transform="translate(6 6)" d="M58 0C90.032516 0 116 25.967485 116 58C116 90.032516 90.032516 116 58 116C25.967485 116 0 90.032516 0 58C0 25.967485 25.967485 0 58 0ZM58 1C26.51977 1 1 26.51977 1 58C1 89.480232 26.51977 115 58 115C89.480232 115 115 89.480232 115 58C115 26.51977 89.480232 1 58 1Z"/>
	<defs>
		<radialGradient id="gradient_2" gradientUnits="userSpaceOnUse" cx="44.817997" cy="44.76342" r="44.76342" gradientTransform="matrix(1.80468e-14 1 -0.95123 1.71667e-14 87.3983 -0.0545774)">
			<stop offset="0" stop-color="white"/>
			<stop offset="0.46062389" stop-color="#C9C9C9"/>
			<stop offset="1" stop-color="white"/>
		</radialGradient>
	</defs>
	<path fill="url(#gradient_2)" transform="translate(19.182 19.2354)" d="M53.539356 0.066643022L55.609032 0.53675091C56.929855 0.8367644 57.815964 2.0792816 57.669369 3.4257941L57.120358 8.4686069C56.997898 9.5934134 57.598595 10.673047 58.618935 11.162015L61.311539 12.452365C62.339481 12.944974 63.566868 12.729743 64.36586 11.916767L67.855034 8.3665466C68.811111 7.3937454 70.347153 7.2992177 71.415291 8.1474495L73.090355 9.4776535C74.146339 10.31623 74.410141 11.81114 73.704956 12.9605L71.080475 17.238091C70.488571 18.202827 70.57016 19.436119 71.283997 20.314472L73.319786 22.819448C74.031807 23.69557 75.218384 24.028379 76.282173 23.650337L80.971039 21.984039C82.244148 21.53161 83.654449 22.102829 84.25386 23.313692L85.200836 25.226637C85.803001 26.443054 85.395401 27.917704 84.253998 28.652191L80.139709 31.299719C79.180862 31.916731 78.720398 33.075104 78.993965 34.182014L79.843903 37.621029C80.110695 38.700542 81.019356 39.501179 82.123871 39.629951L87.282578 40.231388C88.525848 40.376335 89.480873 41.400925 89.538185 42.651299L89.633202 44.723911C89.636131 44.787834 89.636757 44.851845 89.635086 44.915813L89.605049 46.063179C89.586372 46.776669 89.046021 47.367912 88.33709 47.450562L82.434669 48.138706C81.285316 48.272709 80.353546 49.132656 80.127968 50.267593L79.383957 54.011002C79.170464 55.085186 79.635445 56.180687 80.556435 56.773335L84.892113 59.563328C86.002586 60.277912 86.422836 61.697613 85.880249 62.901516L85.077812 64.681969C84.507462 65.947479 83.061661 66.563805 81.7537 66.098991L77.284607 64.510796C76.18647 64.120544 74.96212 64.488602 74.2612 65.419678L71.860886 68.608131C71.201958 69.483421 71.145432 70.672676 71.718384 71.606514L74.448051 76.05555C75.139816 77.183044 74.90049 78.647232 73.885727 79.495789L72.494186 80.659416C71.428001 81.550972 69.855843 81.474159 68.881653 80.482925L65.493973 77.035973C64.680443 76.208214 63.42495 76.001686 62.389133 76.525246L58.752998 78.363136C57.761623 78.864227 57.184711 79.927383 57.304935 81.031677L57.864895 86.175072C58.010475 87.512238 57.137421 88.748497 55.828575 89.05854L54.156635 89.454597C52.823059 89.7705 51.467155 89.024124 51.020729 87.728394L49.40918 83.050919C49.028214 81.945168 47.959381 81.226799 46.791645 81.291656L44.965878 81.393059C44.867367 81.398529 44.768631 81.398529 44.67012 81.393059L42.844353 81.291656C41.676617 81.226799 40.607784 81.945168 40.226818 83.050919L38.615265 87.728394C38.168842 89.024124 36.812939 89.7705 35.479362 89.454597L33.807423 89.05854C32.498577 88.748497 31.625523 87.512238 31.771101 86.175072L32.331062 81.031677C32.451286 79.927383 31.874374 78.864227 30.882999 78.363136L27.246862 76.525246C26.211048 76.001686 24.955553 76.208214 24.142025 77.035973L20.754347 80.482925C19.780151 81.474159 18.207994 81.550972 17.141815 80.659416L15.75027 79.495789C14.73551 78.647232 14.496181 77.183044 15.187946 76.05555L17.917612 71.606514C18.490562 70.672676 18.43404 69.483421 17.775108 68.608131L15.3748 65.419678C14.673876 64.488602 13.449528 64.120544 12.351394 64.510796L7.882298 66.098991C6.5743346 66.563805 5.1285334 65.947479 4.5581813 64.681969L3.7557504 62.901516C3.2131646 61.697613 3.6334074 60.277912 4.7438812 59.563328L9.079566 56.773335C10.00055 56.180687 10.465537 55.085186 10.25204 54.011002L9.5080261 50.267593C9.2824535 49.132656 8.3506784 48.272709 7.2013254 48.138706L1.2989073 47.450562C0.58997554 47.367912 0.049627122 46.776669 0.030949263 46.063179L0.00091326103 44.915813C-0.00076131988 44.851845 -0.00013283415 44.787834 0.0027974974 44.723911L0.09780883 42.651299C0.15512766 41.400925 1.1101518 40.376335 2.3534179 40.231388L7.5121284 39.629951C8.6166401 39.501179 9.525301 38.700542 9.792098 37.621029L10.642035 34.182014C10.915602 33.075104 10.455136 31.916731 9.4962912 31.299719L5.3819985 28.652191C4.2405944 27.917704 3.8329959 26.443054 4.435163 25.226637L5.382134 23.313692C5.9815512 22.102829 7.391849 21.53161 8.6649551 21.984039L13.353822 23.650337C14.417612 24.028379 15.604187 23.69557 16.31621 22.819448L18.351999 20.314472C19.065838 19.436119 19.147427 18.202827 18.555521 17.238091L15.93104 12.9605C15.225859 11.81114 15.489658 10.31623 16.545641 9.4776535L18.220707 8.1474495C19.288847 7.2992177 20.824888 7.3937454 21.780962 8.3665466L25.270134 11.916767C26.06913 12.729743 27.296518 12.944974 28.324457 12.452365L31.017063 11.162015C32.037403 10.673047 32.6381 9.5934134 32.51564 8.4686069L31.966629 3.4257941C31.820034 2.0792816 32.706142 0.8367644 34.026966 0.53675091L36.096642 0.066643022C37.423885 -0.23482835 38.765175 0.51160675 39.208527 1.798424L40.809399 6.4493985C41.193523 7.5694809 42.270252 8.3021059 43.453144 8.2482491C43.995026 8.2230597 44.449978 8.2105122 44.817997 8.2105122C45.112415 8.2105122 45.462467 8.2185421 45.868156 8.2346029L46.182854 8.2482491C47.365746 8.3021059 48.442474 7.5694809 48.826599 6.4493985L50.427471 1.798424C50.870823 0.51160675 52.212112 -0.23482835 53.539356 0.066643022ZM38.056339 50.32333C33.576267 42.440567 25.138206 38.326481 16.764545 39.075954L16.444016 39.107304C16.033777 41.080734 15.817999 43.127022 15.817999 45.224506C15.817999 58.962433 25.074667 70.504066 37.598408 73.763382C41.87627 66.874382 42.343807 57.867199 38.056339 50.32333ZM73.191322 39.106956C64.713348 38.222309 56.116783 42.340183 51.579659 50.32333C47.292191 57.867199 47.759727 66.874382 52.038433 73.763969C64.561333 70.504066 73.818001 58.962433 73.818001 45.224506C73.818001 43.127022 73.602219 41.080734 73.191322 39.106956ZM44.819397 40.280949C42.344082 40.280949 40.33744 42.288612 40.33744 44.76519C40.33744 47.241772 42.344082 49.249432 44.819397 49.249432C47.294716 49.249432 49.301357 47.241772 49.301357 44.76519C49.301357 42.288612 47.294716 40.280949 44.819397 40.280949ZM44.817997 15.764641C36.764111 15.764641 29.477037 19.09984 24.222031 24.485575C27.585018 32.672245 35.540058 38.426075 44.817997 38.426075C54.09594 38.426075 62.05098 32.672245 65.413864 24.484827C60.158958 19.09984 52.871887 15.764641 44.817997 15.764641Z" fill-rule="evenodd"/>
	<path fill="white" fill-opacity="0.2" transform="translate(19.1824 19.2354)" d="M53.538986 0.066643022L55.608662 0.53675091C56.929485 0.8367644 57.815594 2.0792816 57.668999 3.4257941L57.119987 8.4686069C56.997528 9.5934134 57.598225 10.673047 58.618565 11.162015L61.311169 12.452365C62.339111 12.944974 63.566498 12.729743 64.365494 11.916767L67.854668 8.3665466C68.810738 7.3937454 70.346779 7.2992177 71.414925 8.1474495L73.089989 9.4776535C74.145966 10.31623 74.409767 11.81114 73.70459 12.9605L71.080109 17.238091C70.488197 18.202827 70.569794 19.436119 71.28363 20.314472L73.31942 22.819448C74.031441 23.69557 75.218018 24.028379 76.281807 23.650337L80.970673 21.984039C82.243782 21.53161 83.654076 22.102829 84.253494 23.313692L85.200462 25.226637C85.802635 26.443054 85.395035 27.917704 84.253632 28.652191L80.139336 31.299719C79.180489 31.916731 78.720024 33.075104 78.993591 34.182014L79.843529 37.621029C80.110329 38.700542 81.01899 39.501179 82.123497 39.629951L87.282211 40.231388C88.525475 40.376335 89.480499 41.400925 89.537819 42.651299L89.632828 44.723911C89.635628 44.787834 89.635628 44.851845 89.634712 44.915813L89.604675 46.063179C89.585999 46.776669 89.045654 47.367912 88.336723 47.450562L82.434303 48.138706C81.28495 48.272709 80.353172 49.132656 80.127602 50.267593L79.383591 54.011002C79.17009 55.085186 79.635078 56.180687 80.556061 56.773335L84.891747 59.563328C86.00222 60.277912 86.422462 61.697613 85.879875 62.901516L85.077446 64.681969C84.507095 65.947479 83.061295 66.563805 81.753326 66.098991L77.284233 64.510796C76.186096 64.120544 74.961754 64.488602 74.260826 65.419678L71.860519 68.608131C71.201584 69.483421 71.145065 70.672676 71.718018 71.606514L74.447678 76.05555C75.13945 77.183044 74.900116 78.647232 73.885361 79.495789L72.493813 80.659416C71.427635 81.550972 69.855476 81.474159 68.881279 80.482925L65.493607 77.035973C64.680077 76.208214 63.42458 76.001686 62.388763 76.525246L58.752628 78.363136C57.761253 78.864227 57.184341 79.927383 57.304565 81.031677L57.864525 86.175072C58.010105 87.512238 57.137051 88.748497 55.828205 89.05854L54.156265 89.454597C52.822689 89.7705 51.466785 89.024124 51.020359 87.728394L49.40881 83.050919C49.027843 81.945168 47.959011 81.226799 46.791275 81.291656L44.965508 81.393059C44.866997 81.398529 44.768261 81.398529 44.66975 81.393059L42.843983 81.291656C41.676247 81.226799 40.607414 81.945168 40.226448 83.050919L38.614899 87.728394C38.168472 89.024124 36.812569 89.7705 35.478992 89.454597L33.807053 89.05854C32.498207 88.748497 31.625154 87.512238 31.770731 86.175072L32.330692 81.031677C32.450916 79.927383 31.874004 78.864227 30.882629 78.363136L27.246492 76.525246C26.210678 76.001686 24.955183 76.208214 24.141655 77.035973L20.753977 80.482925C19.779783 81.474159 18.207624 81.550972 17.141445 80.659416L15.749901 79.495789C14.73514 78.647232 14.495811 77.183044 15.187576 76.05555L17.917242 71.606514C18.490192 70.672676 18.43367 69.483421 17.77474 68.608131L15.37443 65.419678C14.673506 64.488602 13.449158 64.120544 12.351025 64.510796L7.881928 66.098991C6.5739646 66.563805 5.1281633 65.947479 4.5578117 64.681969L3.7553806 62.901516C3.2127948 61.697613 3.6330376 60.277912 4.7435117 59.563328L9.079196 56.773335C10.000181 56.180687 10.465167 55.085186 10.25167 54.011002L9.5076561 50.267593C9.2820835 49.132656 8.3503084 48.272709 7.2009559 48.138706L1.2985375 47.450562C0.58960569 47.367912 0.049257256 46.776669 0.030579399 46.063179L0.0005433975 44.915813C-0.00036986353 44.851845 -0.00036986353 44.787834 0.0024276341 44.723911L0.097438969 42.651299C0.1547578 41.400925 1.109782 40.376335 2.3530478 40.231388L7.5117583 39.629951C8.6162701 39.501179 9.524931 38.700542 9.791728 37.621029L10.641665 34.182014C10.915232 33.075104 10.454766 31.916731 9.4959211 31.299719L5.381629 28.652191C4.2402244 27.917704 3.8326261 26.443054 4.434793 25.226637L5.3817639 23.313692C5.9811811 22.102829 7.391479 21.53161 8.6645851 21.984039L13.353452 23.650337C14.417242 24.028379 15.603817 23.69557 16.31584 22.819448L18.351629 20.314472C19.065468 19.436119 19.147057 18.202827 18.555151 17.238091L15.93067 12.9605C15.22549 11.81114 15.489288 10.31623 16.545271 9.4776535L18.220337 8.1474495C19.288477 7.2992177 20.824518 7.3937454 21.780592 8.3665466L25.269764 11.916767C26.06876 12.729743 27.296148 12.944974 28.324087 12.452365L31.016693 11.162015C32.037033 10.673047 32.63773 9.5934134 32.51527 8.4686069L31.966259 3.4257941C31.819664 2.0792816 32.705772 0.8367644 34.026596 0.53675091L36.096272 0.066643022C37.423515 -0.23482835 38.764805 0.51160675 39.208157 1.798424L40.809029 6.4493985C41.193153 7.5694809 42.269882 8.3021059 43.452774 8.2482491C43.994656 8.2230597 44.449608 8.2105122 44.817627 8.2105122C45.112045 8.2105122 45.462097 8.2185421 45.867786 8.2346029L46.182484 8.2482491C47.365376 8.3021059 48.442104 7.5694809 48.826229 6.4493985L50.427101 1.798424C50.870453 0.51160675 52.211742 -0.23482835 53.538986 0.066643022ZM36.539268 2.0169642L34.469597 2.4870722C34.139389 2.5620756 33.917862 2.8727047 33.95451 3.2093329L34.503521 8.2521458C34.717823 10.220557 33.666607 12.109917 31.881012 12.96561L29.188406 14.25596C27.389511 15.118026 25.241583 14.741371 23.84334 13.318664L20.354168 9.7684431C20.115149 9.5252428 19.731138 9.5016108 19.464104 9.7136688L17.789038 11.043873C17.525042 11.253517 17.459091 11.627245 17.635387 11.914585L20.259869 16.192177C21.295704 17.880466 21.152924 20.038723 19.903708 21.575844L17.867918 24.080818C16.621878 25.614033 14.54537 26.196449 12.683737 25.534874L7.9948707 23.868576C7.6765943 23.755468 7.3240194 23.898273 7.1741652 24.200989L6.2271943 26.113934C6.0766525 26.418039 6.1785522 26.786701 6.4639034 26.970324L10.578196 29.617851C12.256175 30.697622 13.06199 32.724777 12.583246 34.661869L11.73331 38.10088C11.266416 39.990028 9.676259 41.391144 7.7433634 41.616493L2.5846529 42.217934C2.3149498 42.249374 2.107775 42.471642 2.0953407 42.742886L1.9998585 44.815498L1.9998585 44.863472L2.0166302 45.521L7.4325609 46.152164C9.3720932 46.378288 10.957577 47.785698 11.422301 49.66679L11.469287 49.877712L12.213301 53.621124C12.58692 55.500942 11.773194 57.418068 10.16147 58.455204L5.8257861 61.245197C5.5481677 61.423843 5.4431067 61.778767 5.5787535 62.079742L6.3811841 63.860199C6.5237722 64.176575 6.8852224 64.330658 7.2122135 64.214455L11.68131 62.626255C13.603044 61.943321 15.745652 62.587425 16.972269 64.216797L19.37258 67.405251C20.525709 68.937012 20.624622 71.018211 19.62196 72.652428L16.892294 77.101463C16.719353 77.383339 16.779184 77.749382 17.032875 77.961525L18.424419 79.125153C18.690964 79.348038 19.084003 79.328835 19.327553 79.081024L22.715231 75.634079C24.138905 74.185493 26.336023 73.824081 28.148697 74.740295L31.784834 76.578194C33.519741 77.455101 34.529339 79.315628 34.318943 81.248138L33.758984 86.391533C33.722588 86.725822 33.940853 87.034889 34.268063 87.112404L35.940002 87.508461C36.273399 87.587433 36.612373 87.400841 36.72398 87.076904L38.335529 82.399429C39.007854 80.448029 40.894096 79.180275 42.954891 79.294731L44.780659 79.396133C44.805286 79.397499 44.829971 79.397499 44.854599 79.396133L46.680367 79.294731C48.741161 79.180275 50.627403 80.448029 51.299728 82.399429L52.911278 87.076904C53.022884 87.400841 53.361858 87.587433 53.695255 87.508461L55.367195 87.112404C55.694405 87.034889 55.91267 86.725822 55.876274 86.391533L55.316315 81.248138C55.105919 79.315628 56.115517 77.455101 57.850422 76.578194L61.486561 74.740295C63.299236 73.824081 65.496353 74.185493 66.920029 75.634079L70.307709 79.081024C70.551254 79.328835 70.94429 79.348038 71.210838 79.125153L72.602386 77.961525C72.856071 77.749382 72.915909 77.383339 72.742966 77.101463L70.013298 72.652428C69.010635 71.018211 69.10955 68.937012 70.26268 67.405251L72.662987 64.216797C73.889603 62.587425 76.032211 61.943321 77.953949 62.626255L82.423042 64.214455C82.750038 64.330658 83.111488 64.176575 83.254074 63.860199L84.056503 62.079742C84.192154 61.778767 84.08709 61.423843 83.809471 61.245197L79.473785 58.455204C77.862061 57.418068 77.04834 55.500942 77.421959 53.621124L78.16597 49.877712C78.560722 47.891571 80.19133 46.386662 82.202698 46.152164L87.61763 45.521L87.635399 44.863472L87.635399 44.815498L87.539917 42.742886C87.527481 42.471642 87.320305 42.249374 87.050606 42.217934L81.891891 41.616493C79.959 41.391144 78.368843 39.990028 77.901947 38.10088L77.05201 34.661869C76.573265 32.724777 77.379082 30.697622 79.05706 29.617851L83.171356 26.970324C83.456703 26.786701 83.558601 26.418039 83.408066 26.113934L82.46109 24.200989C82.311241 23.898273 81.958664 23.755468 81.640388 23.868576L76.951523 25.534874C75.08989 26.196449 73.013382 25.614033 71.767342 24.080818L69.731552 21.575844C68.482338 20.038723 68.339554 17.880466 69.375389 16.192177L71.99987 11.914585C72.176163 11.627245 72.110214 11.253517 71.846222 11.043873L70.171158 9.7136688C69.904121 9.5016108 69.520111 9.5252428 69.28109 9.7684431L65.791916 13.318664C64.393677 14.741371 62.245747 15.118026 60.44685 14.25596L57.754246 12.96561C55.968651 12.109917 54.917435 10.220557 55.131737 8.2521458L55.680748 3.2093329C55.717396 2.8727047 55.495869 2.5620756 55.165661 2.4870722L53.095989 2.0169642C52.764175 1.9415964 52.428856 2.1282051 52.318211 2.449347L50.718071 7.0981913C50.045853 9.0583353 48.161579 10.340428 46.09584 10.246371L45.788673 10.233037C45.407642 10.217953 45.083275 10.210512 44.817627 10.210512C44.483547 10.210512 44.058205 10.222265 43.543739 10.246179C41.473679 10.340428 39.589405 9.0583353 38.917919 7.1003213L37.317242 2.4499094C37.206402 2.1282051 36.871082 1.9415964 36.539268 2.0169642ZM73.398521 37.117756L74.85128 37.269348L75.148972 38.699341C75.592331 40.829041 75.817627 43.012295 75.817627 45.224506C75.817627 59.667286 66.145416 72.158264 52.541904 75.699463L51.116257 76.070587L50.33905 74.819122C45.567142 67.135376 45.287674 57.345867 49.840492 49.335106C54.673939 40.830578 63.933731 36.130138 73.398521 37.117756ZM39.794765 49.335106C44.347454 57.345634 44.068237 67.135101 39.297104 74.818451L38.51997 76.069931L37.094315 75.698906C23.490137 72.158409 13.817629 59.667576 13.817629 45.224506C13.817629 43.013214 14.042739 40.83017 14.485509 38.700245L14.784909 37.259991L16.24897 37.116802L16.58588 37.08392C25.938641 36.246811 35.024296 40.941383 39.794765 49.335106ZM16.764175 39.075954L16.443645 39.107304C16.033407 41.080734 15.817629 43.127022 15.817629 45.224506C15.817629 58.962433 25.074297 70.504066 37.598038 73.763382C41.8759 66.874382 42.343437 57.867199 38.055969 50.32333C33.575897 42.440567 25.137836 38.326481 16.764175 39.075954ZM51.579288 50.32333C47.291821 57.867199 47.759357 66.874382 52.038063 73.763969C64.560959 70.504066 73.817627 58.962433 73.817627 45.224506C73.817627 43.127022 73.601852 41.080734 73.190956 39.106956C64.712975 38.222309 56.116413 42.340183 51.579288 50.32333ZM44.817627 13.764641C53.2038 13.764641 61.062378 17.162352 66.844894 23.088007L67.762939 24.028784L67.263519 25.244701C64.10006 32.946598 57.32856 38.472893 49.327522 40.000397L49.233631 40.016998L49.24704 40.029728C50.458405 41.163727 51.234341 42.757435 51.296898 44.532639L51.300987 44.76519C51.300987 48.346111 48.399143 51.249432 44.819031 51.249432C41.238914 51.249432 38.33707 48.346111 38.33707 44.76519C38.33707 42.896885 39.126984 41.213028 40.391018 40.029728L40.403629 40.016998L40.307812 40.000412C32.440224 38.498421 25.76136 33.129986 22.532846 25.628777L22.37167 25.245529L21.872204 24.029655L22.790182 23.08884C28.572626 17.162548 36.431198 13.764641 44.817627 13.764641ZM44.819031 40.280949C42.343712 40.280949 40.33707 42.288612 40.33707 44.76519C40.33707 47.241772 42.343712 49.249432 44.819031 49.249432C47.294346 49.249432 49.300987 47.241772 49.300987 44.76519C49.300987 42.288612 47.294346 40.280949 44.819031 40.280949ZM44.817627 15.764641C36.763741 15.764641 29.476667 19.09984 24.221663 24.485575C27.584648 32.672245 35.539688 38.426075 44.817627 38.426075C54.09557 38.426075 62.05061 32.672245 65.413498 24.484827C60.158588 19.09984 52.871517 15.764641 44.817627 15.764641Z"/>
	<path fill-opacity="0.2" transform="translate(18.182 18.2352)" d="M54.760811 0.091634154L56.830482 0.56174207C58.646618 0.97426057 59.865017 2.6827216 59.663448 4.5341763L59.114437 9.5769892C59.037903 10.279993 59.413334 10.954764 60.051048 11.260369L62.743652 12.550719C63.386116 12.8586 64.153236 12.72408 64.652603 12.215971L68.141777 8.6657505C69.456383 7.3281484 71.568436 7.198173 73.037132 8.3644915L74.712196 9.6946955C76.164169 10.847738 76.526894 12.903239 75.557274 14.483609L72.932793 18.7612C72.562851 19.364161 72.613846 20.134968 73.05999 20.683939L75.095779 23.188913C75.540794 23.73649 76.282402 23.944496 76.947273 23.70822L81.636139 22.041922C83.386658 21.419832 85.325821 22.205257 86.150017 23.870193L87.096992 25.783138C87.924973 27.455713 87.364525 29.483356 85.79509 30.493277L81.680801 33.140804C81.08152 33.52644 80.793732 34.25042 80.964706 34.942242L81.814644 38.381252C81.981392 39.05595 82.549309 39.556347 83.239624 39.636829L88.398338 40.238266C90.128387 40.439968 91.457336 41.865719 91.537094 43.605659L91.632103 45.678272C91.635956 45.766167 91.637001 45.854176 91.634697 45.942135L91.60466 47.0895C91.57296 48.300343 90.655952 49.303722 89.45285 49.443989L83.55043 50.132133C82.832085 50.215881 82.249725 50.753349 82.108742 51.462685L81.364731 55.206097C81.231293 55.877457 81.521912 56.562145 82.097527 56.932552L86.433205 59.722546C87.960106 60.705097 88.537941 62.657188 87.791885 64.312553L86.989456 66.09301C86.205223 67.833092 84.217247 68.680534 82.4188 68.041412L77.949699 66.453217C77.263367 66.209305 76.498146 66.439346 76.060074 67.021263L73.65976 70.209717C73.247932 70.756775 73.212608 71.500061 73.570702 72.08371L76.300362 76.532738C77.251541 78.083046 76.922462 80.096313 75.527168 81.263077L74.135628 82.426704C72.669624 83.652588 70.507912 83.546974 69.168396 82.184021L65.780716 78.737076C65.272263 78.219719 64.487579 78.090645 63.840191 78.41787L60.204056 80.25576C59.584446 80.568947 59.223873 81.233414 59.299015 81.923599L59.858978 87.066994C60.059147 88.905594 58.858696 90.605453 57.059036 91.031769L55.387093 91.427826C53.553425 91.86219 51.68906 90.835922 51.075226 89.054283L49.463676 84.376808C49.228386 83.693886 48.568264 83.250214 47.847054 83.290268L46.021286 83.39167C45.885834 83.399193 45.750072 83.399193 45.61462 83.39167L43.788853 83.290268C43.067646 83.250214 42.40752 83.693886 42.17223 84.376808L40.56068 89.054283C39.946846 90.835922 38.082481 91.86219 36.248814 91.427826L34.57687 91.031769C32.77721 90.605453 31.576761 88.905594 31.77693 87.066994L32.336891 81.923599C32.412033 81.233414 32.05146 80.568947 31.431852 80.25576L27.795715 78.41787C27.148331 78.090645 26.363646 78.219719 25.85519 78.737076L22.467514 82.184021C21.127996 83.546974 18.96628 83.652588 17.500282 82.426704L16.108738 81.263077C14.713442 80.096313 14.384365 78.083046 15.335543 76.532738L18.065208 72.08371C18.423302 71.500061 18.387976 70.756775 17.976145 70.209717L15.575834 67.021263C15.137757 66.439346 14.37254 66.209305 13.686206 66.453217L9.2171097 68.041412C7.4186602 68.680534 5.4306836 67.833092 4.64645 66.09301L3.8440189 64.312553C3.0979631 62.657188 3.6757972 60.705097 5.2026992 59.722546L9.5383835 56.932552C10.113998 56.562145 10.404615 55.877457 10.271179 55.206097L9.5271654 51.462685C9.3861828 50.753349 8.8038235 50.215881 8.0854778 50.132133L2.1830595 49.443989C0.97995299 49.303722 0.062944129 48.300343 0.031246506 47.0895L0.0012105023 45.942135C-0.0010920464 45.854176 -4.5231554e-05 45.766167 0.0038013274 45.678272L0.098812662 43.605659C0.17857379 41.865719 1.5075227 40.439968 3.23757 40.238266L8.3962803 39.636829C9.0866003 39.556347 9.6545134 39.05595 9.8212614 38.381252L10.671198 34.942242C10.842177 34.25042 10.554387 33.52644 9.9551086 33.140804L5.840816 30.493277C4.2713852 29.483356 3.7109375 27.455713 4.5389171 25.783138L5.485888 23.870193C6.3100867 22.205257 8.2492466 21.419832 9.9997673 22.041922L14.688634 23.70822C15.353502 23.944496 16.095112 23.73649 16.540127 23.188913L18.575916 20.683939C19.022064 20.134968 19.073057 19.364161 18.703117 18.7612L16.078636 14.483609C15.109013 12.903239 15.471737 10.847738 16.923712 9.6946955L18.598778 8.3644915C20.067471 7.198173 22.179527 7.3281484 23.494127 8.6657505L26.983301 12.215971C27.482674 12.72408 28.24979 12.8586 28.892254 12.550719L31.584858 11.260369C32.222572 10.954764 32.598007 10.279993 32.521469 9.5769892L31.972458 4.5341763C31.770889 2.6827216 32.989288 0.97426057 34.805424 0.56174207L36.875099 0.091634154C38.700058 -0.322889 40.544331 0.70345926 41.154037 2.4731143L42.755276 7.125154C42.995354 7.8252053 43.668308 8.2830963 44.406666 8.2494793C44.962257 8.2236519 45.432316 8.2106638 45.817955 8.2106638C46.126755 8.2106638 46.489651 8.2189884 46.911434 8.235693L47.228291 8.2494354C47.967598 8.2830963 48.640553 7.8252053 48.880997 7.1240888L50.481964 2.4728329C51.091576 0.70345926 52.935848 -0.322889 54.760811 0.091634154ZM54.53931 1.0667948C53.212067 0.7653234 51.870777 1.5117584 51.427425 2.7985756L49.826553 7.4495502C49.442429 8.5696325 48.3657 9.3022575 47.182808 9.2484007L46.868114 9.2347546C46.462421 9.2186937 46.11237 9.2106638 45.817955 9.2106638C45.449932 9.2106638 44.99498 9.2232113 44.453098 9.2484007C43.270206 9.3022575 42.193478 8.5696325 41.809353 7.4495502L40.208481 2.7985756C39.765129 1.5117584 38.42384 0.7653234 37.096596 1.0667948L35.02692 1.5369027C33.706097 1.8369161 32.819988 3.0794332 32.966583 4.4259458L33.515594 9.4687586C33.638054 10.593565 33.037357 11.6732 32.017017 12.162167L29.324413 13.452517C28.296473 13.945126 27.069086 13.729895 26.270088 12.916919L22.780916 9.3666983C21.824842 8.3938971 20.288801 8.2993698 19.220661 9.1476011L17.545595 10.477805C16.489613 11.316382 16.225815 12.811292 16.930994 13.960652L19.555475 18.238243C20.147381 19.20298 20.065792 20.43627 19.351955 21.314625L17.316166 23.819599C16.604141 24.695721 15.417566 25.028532 14.353776 24.650488L9.6649094 22.98419C8.3918037 22.531763 6.9815059 23.10298 6.3820887 24.313843L5.4351177 26.226788C4.8329506 27.443205 5.2405491 28.917854 6.3819537 29.652344L10.496245 32.29987C11.455091 32.916882 11.915557 34.075256 11.641989 35.182167L10.792052 38.621181C10.525256 39.700691 9.6165943 40.501331 8.5120831 40.6301L3.3533726 41.231541C2.1101065 41.376488 1.1550825 42.401077 1.0977635 43.651451L1.0027523 45.724064C0.99995476 45.787987 0.99995476 45.851997 1.0008681 45.915962L1.0309041 47.063332C1.0495819 47.776821 1.5899303 48.368061 2.298862 48.450714L8.2012806 49.138859C9.3506327 49.272858 10.282409 50.132809 10.50798 51.267746L11.251995 55.011154C11.465491 56.085335 11.000505 57.180836 10.07952 57.773487L5.7438364 60.56348C4.6333623 61.278065 4.2131195 62.697765 4.7557054 63.901669L5.558136 65.682121C6.1284881 66.947632 7.5742893 67.563957 8.8822527 67.099144L13.351349 65.510941C14.449482 65.120697 15.67383 65.488754 16.374754 66.41983L18.775064 69.608276C19.433996 70.483574 19.490517 71.672829 18.917568 72.606667L16.187901 77.055695C15.496136 78.183197 15.735465 79.647385 16.750225 80.495941L18.141769 81.659569C19.207951 82.551125 20.780107 82.474312 21.754301 81.483078L25.141979 78.036125C25.955507 77.208366 27.211002 77.001839 28.246817 77.525391L31.882954 79.363289C32.874329 79.86438 33.451241 80.927536 33.331017 82.03183L32.771057 87.175224C32.625477 88.51239 33.498531 89.74865 34.807377 90.058693L36.479317 90.45475C37.812893 90.770653 39.168797 90.024277 39.615223 88.728546L41.226772 84.051064C41.607742 82.94532 42.676571 82.226952 43.844307 82.291809L45.670074 82.393211C45.768585 82.398682 45.867321 82.398682 45.965832 82.393211L47.791599 82.291809C48.959335 82.226952 50.028168 82.94532 50.409134 84.051064L52.020687 88.728546C52.46711 90.024277 53.823013 90.770653 55.15659 90.45475L56.828529 90.058693C58.137375 89.74865 59.010429 88.51239 58.864853 87.175224L58.30489 82.03183C58.184666 80.927536 58.761578 79.86438 59.752953 79.363289L63.389091 77.525391C64.424904 77.001839 65.680397 77.208366 66.493927 78.036125L69.881607 81.483078C70.855797 82.474312 72.427956 82.551125 73.494141 81.659569L74.885681 80.495941C75.900444 79.647385 76.139771 78.183197 75.448006 77.055695L72.718338 72.606667C72.145393 71.672829 72.201912 70.483574 72.86084 69.608276L75.261154 66.41983C75.962074 65.488754 77.186424 65.120697 78.284561 65.510941L82.753654 67.099144C84.061615 67.563957 85.507416 66.947632 86.077774 65.682121L86.880203 63.901669C87.422791 62.697765 87.002548 61.278065 85.892067 60.56348L81.556389 57.773487C80.635399 57.180836 80.170418 56.085335 80.383911 55.011154L81.12793 51.267746C81.3535 50.132809 82.285271 49.272858 83.434624 49.138859L89.337044 48.450714C90.045975 48.368061 90.586327 47.776821 90.605003 47.063332L90.63504 45.915962C90.635956 45.851997 90.635956 45.787987 90.633156 45.724064L90.538147 43.651451C90.480827 42.401077 89.525803 41.376488 88.282532 41.231541L83.123825 40.6301C82.01931 40.501331 81.110649 39.700691 80.843857 38.621181L79.993919 35.182167C79.720352 34.075256 80.180817 32.916882 81.139664 32.29987L85.253952 29.652344C86.395355 28.917854 86.802956 27.443205 86.20079 26.226788L85.253815 24.313843C84.654404 23.10298 83.244102 22.531763 81.971001 22.98419L77.282127 24.650488C76.218338 25.028532 75.031761 24.695721 74.31974 23.819599L72.283951 21.314625C71.570114 20.43627 71.488525 19.20298 72.080429 18.238243L74.70491 13.960652C75.410095 12.811292 75.146294 11.316382 74.090309 10.477805L72.415245 9.1476011C71.347107 8.2993698 69.811066 8.3938971 68.854988 9.3666983L65.365814 12.916919C64.566818 13.729895 63.339436 13.945126 62.311493 13.452517L59.618889 12.162167C58.598549 11.6732 57.997852 10.593565 58.120312 9.4687586L58.669323 4.4259458C58.815918 3.0794332 57.92981 1.8369161 56.608986 1.5369027L54.53931 1.0667948ZM17.7645 40.076107C26.138161 39.326633 34.576221 43.44072 39.056293 51.323483C43.343761 58.867352 42.876225 67.874535 38.598362 74.763527C26.074623 71.504219 16.817953 59.962585 16.817953 46.224659C16.817953 44.127174 17.033733 42.080887 17.443972 40.107456L17.7645 40.076107ZM52.579613 51.323483C57.116737 43.340332 65.713303 39.222458 74.191277 40.107109C74.602173 42.080887 74.817955 44.127174 74.817955 46.224659C74.817955 59.962585 65.561287 71.504219 53.038391 74.764122C48.759682 67.874535 48.292145 58.867352 52.579613 51.323483ZM53.449013 51.817593C49.587494 58.612 49.678242 66.86441 53.453297 73.50544L53.506954 73.598152L53.565628 73.581345C65.308525 70.155045 73.635361 59.262714 73.814987 46.641365L73.817955 46.224659C73.817955 44.663986 73.69445 43.120377 73.450638 41.603889L73.351952 41.038151L73.299004 41.034374C65.290482 40.501884 57.556007 44.591267 53.449013 51.817593ZM18.652651 41.015579L18.281956 41.037151L18.184927 41.604252C17.976162 42.90432 17.855667 44.224072 17.8255 45.557079L17.817953 46.224659C17.817953 59.022652 26.198551 70.117439 38.07103 73.58078L38.128956 73.597153L38.183353 73.504929C41.887867 66.987213 42.043697 58.916912 38.397354 52.196529L38.186893 51.817593C34.135448 44.689003 26.551476 40.607925 18.652651 41.015579ZM45.819355 41.281101C48.29467 41.281101 50.301311 43.288765 50.301311 45.765343C50.301311 48.24192 48.29467 50.249584 45.819355 50.249584C43.344036 50.249584 41.337395 48.24192 41.337395 45.765343C41.337395 43.288765 43.344036 41.281101 45.819355 41.281101ZM45.819355 42.281101C43.896435 42.281101 42.337395 43.840935 42.337395 45.765343C42.337395 47.689751 43.896435 49.249584 45.819355 49.249584C47.742271 49.249584 49.301311 47.689751 49.301311 45.765343C49.301311 43.840935 47.742271 42.281101 45.819355 42.281101ZM45.817955 16.764793C53.871841 16.764793 61.158916 20.099993 66.413818 25.484978C63.050934 33.672398 55.095894 39.426228 45.817955 39.426228C36.540012 39.426228 28.584974 33.672398 25.221987 25.485725C30.476992 20.099993 37.764065 16.764793 45.817955 16.764793ZM45.817955 17.764793C38.57222 17.764793 31.766514 20.574144 26.614723 25.513018L26.407955 25.713152L26.462879 25.83672C29.85487 33.309711 37.173847 38.266972 45.41832 38.422462L45.817955 38.426228C54.225094 38.426228 61.726383 33.430107 65.172928 25.836061L65.226952 25.712152L65.021111 25.512381C59.98373 20.683746 53.365147 17.890697 46.300323 17.768948L45.817955 17.764793Z"/>
</svg>
