<?xml version="1.0" encoding="utf-8" ?>
<svg xmlns="http://www.w3.org/2000/svg" xmlns:xlink="http://www.w3.org/1999/xlink" width="16" height="16">
	<path fill-opacity="1" fill="currentColor"  transform="translate(1 1)" d="M12 5C13.104569 5 14 5.8954306 14 7L14 12C14 13.104569 13.104569 14 12 14L7 14C5.8954306 14 5 13.104569 5 12L5 7C5 5.8954306 5.8954306 5 7 5L12 5ZM7 0C8.1045694 0 9 0.89543051 9 2L9 4L8 4L8 2C8 1.4871641 7.6139598 1.0644928 7.116621 1.0067277L7 1L2 1C1.4871641 1 1.0644928 1.3860402 1.0067277 1.8833789L1 2L1 7C1 7.512836 1.3860402 7.9355073 1.8833789 7.9932723L2 8L4 8L4 9L2 9C0.89543051 9 0 8.1045694 0 7L0 2C0 0.89543051 0.89543051 0 2 0L7 0Z"/>
</svg>
