<?xml version="1.0" encoding="UTF-8"?>
<svg width="16px" height="16px" viewBox="0 0 16 16" version="1.1" xmlns="http://www.w3.org/2000/svg" xmlns:xlink="http://www.w3.org/1999/xlink">
    <defs>
        <path text="1" d="M7.94222858,2.27897364 L8.01596804,2.3235674 C10.6241654,0.760101368 13.1346957,0.406773664 14.3805195,1.65259742 C15.6261841,2.89826207 15.2731058,5.40831023 13.7101485,8.01614957 C15.2730155,10.6241654 15.6263432,13.1346957 14.3805195,14.3805195 C13.1346957,15.6263432 10.6241654,15.2730155 8.01596804,13.7095495 C5.40831023,15.2731058 2.89826207,15.6261841 1.65259742,14.3805195 C0.406773664,13.1346957 0.760101368,10.6241654 2.3235674,8.01596804 C0.760011144,5.40831023 0.406932773,2.89826207 1.65259742,1.65259742 C2.886488,0.418706842 5.36097305,0.753479358 7.94222858,2.27897364 Z M2.44809255,13.5850244 C3.19627174,14.3332035 4.96468195,14.1023657 6.96236439,13.0168181 C6.24030362,12.4949921 5.52288363,11.8868447 4.83457794,11.198539 C4.16154671,10.5255077 3.56515555,9.82464006 3.05307117,9.11893609 L3.0168413,9.06975432 C1.93082813,11.0678458 1.69978875,12.8367206 2.44809255,13.5850244 Z M11.198539,11.198539 C10.5096643,11.8874137 9.79162709,12.4959976 9.0690905,13.0160696 C11.0678458,14.1022888 12.8367206,14.3333282 13.5850244,13.5850244 C14.3184992,12.8515496 14.1110611,11.137552 13.0798314,9.18826557 L13.0160696,9.0690905 C12.4959976,9.79162709 11.8874137,10.5096643 11.198539,11.198539 Z M5.63007307,5.63007307 C4.85146344,6.40868269 4.19112235,7.21963978 3.65632002,8.01668433 C4.19095171,8.81326756 4.85136284,9.62433361 5.63007307,10.4030438 C6.40868269,11.1816535 7.21963978,11.8419946 8.01668433,12.3767969 C8.81326756,11.8421652 9.62433361,11.1817541 10.4030438,10.4030438 C11.1817541,9.62433361 11.8421652,8.81326756 12.3770042,8.01612362 C11.8419946,7.21963978 11.1816535,6.40868269 10.4030438,5.63007307 C9.67473031,4.90175953 8.91811345,4.27692838 8.17105508,3.76152999 L8.01668433,3.65632002 C7.21963978,4.19112235 6.40868269,4.85146344 5.63007307,5.63007307 Z M9.70405845,8.01655845 C9.70405845,8.94853897 8.94853897,9.70405845 8.01655845,9.70405845 C7.08457794,9.70405845 6.32905845,8.94853897 6.32905845,8.01655845 C6.32905845,7.08457794 7.08457794,6.32905845 8.01655845,6.32905845 C8.94853897,6.32905845 9.70405845,7.08457794 9.70405845,8.01655845 Z M2.44809255,2.44809255 C1.69978875,3.19639636 1.93082813,4.96527106 3.0168413,6.96336259 C3.53756248,6.24096699 4.14595403,5.52320185 4.83457794,4.83457794 C5.52320185,4.14595403 6.24096699,3.53756248 6.96323725,3.01761534 L6.84485133,2.95328555 C4.8955649,1.92205579 3.18156735,1.71461775 2.44809255,2.44809255 Z M9.06975432,3.0168413 C9.79162709,3.53711934 10.5096643,4.14570323 11.198539,4.83457794 C11.8868447,5.52288363 12.4949921,6.24030362 13.0147807,6.96223595 C14.1023657,4.96468195 14.3332035,3.19627174 13.5850244,2.44809255 C12.8367206,1.69978875 11.0678458,1.93082813 9.06975432,3.0168413 Z" id="path-deep-think"></path>
    </defs>
    <g id="icon/输入框/深度思考" stroke="none" xlink:href="#path-1">
        <path text="2" d="M8.01596804,2.3235674 C10.6241654,0.760101368 13.1346957,0.406773664 14.3805195,1.65259742 C15.6261841,2.89826207 15.2731058,5.40831023 13.7101485,8.01614957 C15.2730155,10.6241654 15.6263432,13.1346957 14.3805195,14.3805195 C13.1346957,15.6263432 10.6241654,15.2730155 8.01596804,13.7095495 C5.40831023,15.2731058 2.89826207,15.6261841 1.65259742,14.3805195 C0.406773664,13.1346957 0.760101368,10.6241654 2.3235674,8.01596804 C0.760011144,5.40831023 0.406932773,2.89826207 1.65259742,1.65259742 C2.886488,0.418706842 5.36097305,0.753479358 7.94222858,2.27897364 Z M3.0168413,9.06975432 C1.93082813,11.0678458 1.69978875,12.8367206 2.44809255,13.5850244 C3.19627174,14.3332035 4.96468195,14.1023657 6.96236439,13.0168181 C6.24030362,12.4949921 5.52288363,11.8868447 4.83457794,11.198539 C4.16154671,10.5255077 3.56515555,9.82464006 3.05307117,9.11893609 Z M13.0160696,9.0690905 C12.4959976,9.79162709 11.8874137,10.5096643 11.198539,11.198539 C10.5096643,11.8874137 9.79162709,12.4959976 9.0690905,13.0160696 C11.0678458,14.1022888 12.8367206,14.3333282 13.5850244,13.5850244 C14.3184992,12.8515496 14.1110611,11.137552 13.0798314,9.18826557 Z M8.01668433,3.65632002 C7.21963978,4.19112235 6.40868269,4.85146344 5.63007307,5.63007307 C4.85146344,6.40868269 4.19112235,7.21963978 3.65632002,8.01668433 C4.19095171,8.81326756 4.85136284,9.62433361 5.63007307,10.4030438 C6.40868269,11.1816535 7.21963978,11.8419946 8.01668433,12.3767969 C8.81326756,11.8421652 9.62433361,11.1817541 10.4030438,10.4030438 C11.1817541,9.62433361 11.8421652,8.81326756 12.3770042,8.01612362 C11.8419946,7.21963978 11.1816535,6.40868269 10.4030438,5.63007307 C9.67473031,4.90175953 8.91811345,4.27692838 8.17105508,3.76152999 Z M8.01655845,6.32905845 C8.94853897,6.32905845 9.70405845,7.08457794 9.70405845,8.01655845 C9.70405845,8.94853897 8.94853897,9.70405845 8.01655845,9.70405845 C7.08457794,9.70405845 6.32905845,8.94853897 6.32905845,8.01655845 C6.32905845,7.08457794 7.08457794,6.32905845 8.01655845,6.32905845 Z M6.84485133,2.95328555 C4.8955649,1.92205579 3.18156735,1.71461775 2.44809255,2.44809255 C1.69978875,3.19639636 1.93082813,4.96527106 3.0168413,6.96336259 C3.53756248,6.24096699 4.14595403,5.52320185 4.83457794,4.83457794 C5.52320185,4.14595403 6.24096699,3.53756248 6.96323725,3.01761534 Z M13.5850244,2.44809255 C12.8367206,1.69978875 11.0678458,1.93082813 9.06975432,3.0168413 C9.79162709,3.53711934 10.5096643,4.14570323 11.198539,4.83457794 C11.8868447,5.52288363 12.4949921,6.24030362 13.0147807,6.96223595 C14.1023657,4.96468195 14.3332035,3.19627174 13.5850244,2.44809255 Z" id="形状结合" fill="currentColor" ></path>
    </g>
</svg>