<?xml version="1.0" encoding="UTF-8"?>
<svg width="16px" height="16px" viewBox="0 0 16 16" version="1.1" xmlns="http://www.w3.org/2000/svg" xmlns:xlink="http://www.w3.org/1999/xlink">
    <g id="icon/聊天/卡片/大纲" stroke="none" fill-rule="nonzero">
        <path d="M9,1 L9,2 L3,2 L3,14 L13,14 L13,7 L14,7 L14,14 C14,14.5522847 13.5522847,15 13,15 L3,15 C2.44771525,15 2,14.5522847 2,14 L2,2 C2,1.44771525 2.44771525,1 3,1 L9,1 Z M11,11 L11,12 L5,12 L5,11 L11,11 Z M11,8 L11,9 L5,9 L5,8 L11,8 Z M8,5 L8,6 L5,6 L5,5 L8,5 Z M12.4648873,1 C12.4950702,1 12.5225203,1.0176992 12.5352799,1.04538761 L13.2853251,2.63511154 C13.292969,2.65123006 13.3058117,2.66423009 13.3217351,2.67196759 L14.8946456,3.42383084 L14.9036608,3.43034868 C14.939748,3.45643904 14.9478521,3.50684393 14.9217618,3.54293117 L14.911698,3.55438943 L14.8996568,3.56374784 L13.3241624,4.32557534 C13.308239,4.33331284 13.2953963,4.34631288 13.2877525,4.36243138 L12.5449892,5.95461239 C12.5322296,5.9823008 12.5047795,6 12.4745966,6 C12.4444136,6 12.4169636,5.9823008 12.404204,5.95461239 L11.6541587,4.36488846 C11.6465148,4.34876995 11.6336722,4.33576991 11.6177487,4.32803241 L10.0448383,3.57616916 C10.017485,3.56325324 10,3.53546686 10,3.50491415 C10,3.47436142 10.017485,3.44657504 10.0448383,3.43365912 L11.6153214,2.67442466 C11.6312448,2.66668716 11.6440875,2.65368712 11.6517314,2.63756862 L12.3944946,1.04538761 C12.4072542,1.0176992 12.4347043,1 12.4648873,1 Z" id="形状结合" fill="currentColor"></path>
    </g>
</svg>