<?xml version="1.0" encoding="utf-8" ?>
<svg xmlns="http://www.w3.org/2000/svg" xmlns:xlink="http://www.w3.org/1999/xlink" width="24" height="25">
	<defs>
		<linearGradient id="gradient_0" gradientUnits="userSpaceOnUse" x1="8.625" y1="0.50773346" x2="8.625" y2="20.219748">
			<stop offset="0" stop-color="white"/>
			<stop offset="1" stop-color="#EDF5FF"/>
		</linearGradient>
	</defs>
	<path fill="url(#gradient_0)" transform="translate(3.375 1.3125)" d="M11.8125 0L17.249001 5.4359999L17.25 18.851175C17.25 19.728764 17.158625 20.046999 16.987041 20.367832C16.815458 20.688665 16.563665 20.940458 16.242832 21.112041C15.921999 21.283625 15.603765 21.375 14.726175 21.375L2.5238245 21.375C1.6462357 21.375 1.3280009 21.283625 1.0071675 21.112041C0.68633419 20.940458 0.4345423 20.688665 0.26295877 20.367832C0.091375209 20.046999 -2.220446e-16 19.728764 -2.220446e-16 18.851175L-1.1335426e-16 2.5238245C6.5862092e-17 1.6462357 0.091375209 1.3280009 0.26295877 1.0071675C0.4345423 0.68633419 0.68633419 0.4345423 1.0071675 0.26295877C1.3280009 0.091375209 1.6462357 2.8790671e-16 2.5238245 1.0869033e-16L11.8125 0Z" fill-rule="evenodd"/>
	<defs>
		<linearGradient id="gradient_1" gradientUnits="userSpaceOnUse" x1="7.0324068" y1="0" x2="7.0324068" y2="21.375">
			<stop offset="0" stop-color="white" stop-opacity="0.2"/>
			<stop offset="1" stop-color="black" stop-opacity="0.2"/>
		</linearGradient>
	</defs>
	<path fill="url(#gradient_1)" transform="translate(3.375 1.3125)" d="M11.8125 0L17.25 5.4375L17.25 18.851175C17.25 19.728764 17.158625 20.046999 16.987041 20.367832C16.815458 20.688665 16.563665 20.940458 16.242832 21.112041C15.921999 21.283625 15.603765 21.375 14.726175 21.375L2.5238245 21.375C1.6462357 21.375 1.3280009 21.283625 1.0071675 21.112041C0.68633419 20.940458 0.4345423 20.688665 0.26295877 20.367832C0.091375209 20.046999 0 19.728764 0 18.851175L0 2.5238245C0 1.6462357 0.091375209 1.3280009 0.26295877 1.0071675C0.4345423 0.68633419 0.68633419 0.4345423 1.0071675 0.26295877C1.3280009 0.091375209 1.6462357 0 2.5238245 0L11.8125 0ZM2.5238245 0.375C1.7803199 0.375 1.4868799 0.43166587 1.1840171 0.59363872C0.92853445 0.73027235 0.73027235 0.92853445 0.59363872 1.1840171C0.43166587 1.4868799 0.375 1.7803199 0.375 2.5238245L0.375 18.851175C0.375 19.594681 0.43166587 19.888121 0.59363872 20.190983C0.73027235 20.446466 0.92853445 20.644728 1.1840171 20.781361C1.4868799 20.943335 1.7803199 21 2.5238245 21L14.726175 21C15.46968 21 15.76312 20.943335 16.065983 20.781361C16.321466 20.644728 16.519728 20.446466 16.656361 20.190983C16.818335 19.888121 16.875 19.594681 16.875 18.851175L16.875 5.5929375L11.657063 0.375L2.5238245 0.375Z"/>
	<path transform="translate(15.1875 1.3125)" d="M0 0L5.4375 5.4375L1.5 5.4375C0.67157286 5.4375 0 4.7659273 0 3.9375L0 0L0 0Z" fill-rule="evenodd"/>
	<defs>
		<linearGradient id="gradient_2" gradientUnits="userSpaceOnUse" x1="2.8872488" y1="2.9099388" x2="0.4948754" y2="4.9768796">
			<stop offset="0" stop-color="white" stop-opacity="0.3019608"/>
			<stop offset="1" stop-color="white"/>
		</linearGradient>
	</defs>
	<path fill="url(#gradient_2)" transform="translate(15.1875 1.3125)" d="M0 0L5.4375 5.4375L1.5 5.4375C0.67157286 5.4375 0 4.7659273 0 3.9375L0 0L0 0Z" fill-rule="evenodd"/>
	<path fill="white" fill-opacity="0.19607843" transform="translate(15.1875 1.3125)" d="M0 0L5.4375 5.4375L1.5 5.4375C0.67157286 5.4375 0 4.7659273 0 3.9375L0 0ZM0.1875 0.45262501L0.1875 3.9375C0.1875 4.6623735 0.77512628 5.25 1.5 5.25L4.9846873 5.25L0.1875 0.45262501Z"/>
	<path fill="#7B83D6" transform="translate(6.50203 8.06156)" d="M5.1229687 10.500937L5.1229687 11.063437L0.060468748 11.063437L0.060468748 10.500937L5.1229687 10.500937ZM6.2479687 10.500937L6.2479687 11.063437L5.6854687 11.063437L5.6854687 10.500937L6.2479687 10.500937ZM11.122969 8.4384375L11.122969 9.0009375L0.060468748 9.0009375L0.060468748 8.4384375L11.122969 8.4384375ZM11.122969 6.3759375L11.122969 6.9384375L0.060468748 6.9384375L0.060468748 6.3759375L11.122969 6.3759375ZM11.122969 4.5009375L11.122969 5.0634375L0.060468748 5.0634375L0.060468748 4.5009375L11.122969 4.5009375ZM1.7698714 0L3.0009375 3.0009375L2.5007813 3.0009375L2.2507031 2.5007813L0.75023437 2.5007813L0.50015622 3.0009375L0 3.0009375L1.2503906 0L1.7698714 0ZM4.7514844 0C5.1658273 0 5.5017185 0.33300266 5.5017185 0.75023437C5.5017185 0.86716336 5.4751987 0.97784454 5.4277501 1.0764922C5.8232799 1.235076 6.0018749 1.6178505 6.0018749 2.0006249C6.0018749 2.5007813 5.6921344 3.0009375 5.0015626 3.0009375L3.5010939 3.0009375L3.5010939 0L4.7514844 0ZM7.7524219 0C8.1157303 0 8.4544382 0.15635352 8.6902161 0.42354339L8.315196 0.75447506C8.1733465 0.59372818 7.9706421 0.50015622 7.7524219 0.50015622C7.335844 0.50015622 7.0021877 0.8355189 7.0021877 1.2528322L7.0021877 1.7481054C7.0021877 2.1650782 7.3375025 2.5007813 7.7524219 2.5007813C7.9789448 2.5007813 8.186635 2.4021387 8.3279591 2.2337441L8.7110748 2.5552695C8.475544 2.835917 8.1280956 3.0009375 7.7524219 3.0009375C7.0611444 3.0009375 6.5020313 2.4411776 6.5020313 1.7481054L6.5020313 1.2528322C6.5020313 0.55985975 7.0590425 0 7.7524219 0ZM5.0015626 1.5004687L4.0012498 1.5004687L4.0012498 2.5007813L5.0015626 2.5007813C5.2791014 2.5007813 5.5017185 2.2787557 5.5017185 2.0006249C5.5017185 1.7230864 5.2796931 1.5004687 5.0015626 1.5004687ZM1.5004687 0.50015622L0.90028089 2.0006249L2.1006567 2.0006249L1.5004687 0.50015622ZM4.7514844 0.50015622L4.0007281 0.50015622L4.0008588 0.8424167C4.0009246 0.87175328 4.0009899 0.89913416 4.0010481 0.92260343L4.0012498 1.0008343L4.026978 1.0010424L4.195755 1.0010802C4.2328038 1.0010544 4.2729397 1.0010159 4.314105 1.0009696L4.7514844 1.0003124C4.891191 1.0003124 5.0015626 0.88964677 5.0015626 0.75023437C5.0015626 0.61052763 4.8908968 0.50015622 4.7514844 0.50015622Z" fill-rule="evenodd"/>
</svg>
