<?xml version="1.0" encoding="UTF-8"?>
<svg width="6px" height="10px" viewBox="0 0 6 10" version="1.1" xmlns="http://www.w3.org/2000/svg" xmlns:xlink="http://www.w3.org/1999/xlink">
    <g id="控件" stroke="none" stroke-width="1" fill-rule="evenodd">
        <g id="icon/大纲/拖拽" transform="translate(-5, -3)" fill="currentColor">
            <path d="M6,9 C6.55228475,9 7,8.55228475 7,8 C7,7.44771525 6.55228475,7 6,7 C5.44771525,7 5,7.44771525 5,8 C5,8.55228475 5.44771525,9 6,9 Z M6,13 C6.55228475,13 7,12.5522847 7,12 C7,11.4477153 6.55228475,11 6,11 C5.44771525,11 5,11.4477153 5,12 C5,12.5522847 5.44771525,13 6,13 Z M10,5 C10.5522847,5 11,4.55228475 11,4 C11,3.44771525 10.5522847,3 10,3 C9.44771525,3 9,3.44771525 9,4 C9,4.55228475 9.44771525,5 10,5 Z M10,9 C10.5522847,9 11,8.55228475 11,8 C11,7.44771525 10.5522847,7 10,7 C9.44771525,7 9,7.44771525 9,8 C9,8.55228475 9.44771525,9 10,9 Z M10,13 C10.5522847,13 11,12.5522847 11,12 C11,11.4477153 10.5522847,11 10,11 C9.44771525,11 9,11.4477153 9,12 C9,12.5522847 9.44771525,13 10,13 Z M6,5 C6.55228475,5 7,4.55228475 7,4 C7,3.44771525 6.55228475,3 6,3 C5.44771525,3 5,3.44771525 5,4 C5,4.55228475 5.44771525,5 6,5 Z" id="形状结合"></path>
        </g>
    </g>
</svg>