<?xml version="1.0" encoding="utf-8" ?>
<svg xmlns="http://www.w3.org/2000/svg" xmlns:xlink="http://www.w3.org/1999/xlink" width="16" height="16">
	<path fill-opacity="1" fill="currentColor" transform="translate(1 1.00001)" d="M9.56036 2.2573123L9.6447849 2.3278565L11.672792 4.3562255C11.884338 4.5678062 11.907819 4.8962154 11.74325 5.1337309L11.672716 5.2181382L3.5349803 13.354321L0.36499977 13.993913C0.20002639 14.027199 0.039305452 13.920445 0.0060195066 13.755472C-0.0020060427 13.715695 -0.0020065068 13.674716 0.0060181422 13.634939L0.64562976 10.464496L8.7828579 2.327806C8.9944286 2.1162498 9.3228369 2.0927544 9.56036 2.2573123ZM9.2132931 3.3108876L1.565293 10.957888L1.1922929 12.805887L3.040293 12.433887L10.689293 4.7868876L9.2132931 3.3108876ZM10.931319 0.17858082C11.169286 -0.059467472 11.555172 -0.059535634 11.793222 0.17842858L13.821529 2.2059901C14.059375 2.4440467 14.059511 2.8298211 13.821686 3.0678973L13.252879 3.6382L13.168159 3.709007C12.930603 3.8735163 12.6022 3.8499534 12.390673 3.6383538L10.363022 1.6091202C10.125111 1.3711282 10.125111 0.98535264 10.363021 0.74736011L10.931319 0.17858082Z"/>
</svg>
