<?xml version="1.0" encoding="utf-8" ?>
<svg xmlns="http://www.w3.org/2000/svg" xmlns:xlink="http://www.w3.org/1999/xlink" width="16" height="16">
	<path fill-opacity="1"  fill="currentColor" transform="translate(0.5 0.5)" d="M7.5 0C11.642136 0 15 3.3578644 15 7.5C15 11.560917 11.772526 14.868017 7.7427311 14.996146L7.5 15C3.3578644 15 0 11.642136 0 7.5C0 7.4219489 0.0011922619 7.3441763 0.003559567 7.2666998L0 7.5C0 7.3999095 0.0019606568 7.3002768 0.0058456589 7.201138C0.0069898968 7.1719165 0.008312949 7.142509 0.0098048728 7.1131463C0.20192182 3.312278 3.2266996 0.25648472 7.0164633 0.015336667L7.1139069 0.010804061L7.133121 0.0088163372C7.185977 0.0062703844 7.238977 0.0042715841 7.2921143 0.0028254783L7.1139069 0.010804061C7.2412753 0.0032946568 7.3702531 0 7.5 0ZM7.5 1C3.9101491 1 1 3.9101491 1 7.5C1 7.8895044 1.03426 8.2710066 1.0999309 8.6416588C2.0622025 9.5852528 3.3798697 10.166667 4.8333335 10.166667C7.778852 10.166667 10.166667 7.778852 10.166667 4.8333335C10.166667 3.3794973 9.5849552 2.0615275 8.6415901 1.0994823C8.2703247 1.0341988 7.8891559 1 7.5 1Z"/>
</svg>
