<?xml version="1.0" encoding="UTF-8"?>
<svg width="16px" height="16px" viewBox="0 0 16 16" version="1.1" xmlns="http://www.w3.org/2000/svg" xmlns:xlink="http://www.w3.org/1999/xlink">
    <defs>
        <path d="M0,0 L16,0 L16,16 L0,16 L0,0 Z" id="path-1"></path>
    </defs>
    <g id="对话管理/批量">
        <path d="M12.7180574,9 C13.1638168,9 13.3254599,9.04641281 13.4884229,9.13356635 C13.6513858,9.2207199 13.7792801,9.34861419 13.8664336,9.51157715 C13.9535872,9.67454011 14,9.83618323 14,10.2819426 L14,12.7180574 C14,13.1638168 13.9535872,13.3254599 13.8664336,13.4884229 C13.7792801,13.6513858 13.6513858,13.7792801 13.4884229,13.8664336 C13.3254599,13.9535872 13.1638168,14 12.7180574,14 L10.2819426,14 C9.83618323,14 9.67454011,13.9535872 9.51157715,13.8664336 C9.34861419,13.7792801 9.2207199,13.6513858 9.13356635,13.4884229 C9.04641281,13.3254599 9,13.1638168 9,12.7180574 L9,10.2819426 C9,9.83618323 9.04641281,9.67454011 9.13356635,9.51157715 C9.2207199,9.34861419 9.34861419,9.2207199 9.51157715,9.13356635 C9.67454011,9.04641281 9.83618323,9 10.2819426,9 L12.7180574,9 Z M12.8631984,10.0007661 L10.2586693,10.000013 C10.0952836,10.0002008 10.0354065,10.0024411 10.0074135,10.0074135 C10.0039458,10.0269375 10.0018068,10.0619677 10.0007661,10.1368016 L10.0007661,12.8631984 C10.0018068,12.9380323 10.0039458,12.9730625 10.0074135,12.9925865 C10.0366996,12.997788 10.1008743,13 10.2819426,13 L12.7180574,13 C12.8991257,13 12.9633004,12.997788 12.9925865,12.9925865 C12.997788,12.9633004 13,12.8991257 13,12.7180574 L13,10.2819426 C13,10.1008743 12.997788,10.0366995 12.9925865,10.0074135 C12.9730625,10.0039458 12.9380323,10.0018068 12.8631984,10.0007661 Z M5.7180574,9 C6.16381677,9 6.32545989,9.04641281 6.48842285,9.13356635 C6.65138581,9.2207199 6.7792801,9.34861419 6.86643365,9.51157715 C6.95358719,9.67454011 7,9.83618323 7,10.2819426 L7,12.7180574 C7,13.1638168 6.95358719,13.3254599 6.86643365,13.4884229 C6.7792801,13.6513858 6.65138581,13.7792801 6.48842285,13.8664336 C6.32545989,13.9535872 6.16381677,14 5.7180574,14 L3.2819426,14 C2.83618323,14 2.67454011,13.9535872 2.51157715,13.8664336 C2.34861419,13.7792801 2.2207199,13.6513858 2.13356635,13.4884229 C2.04641281,13.3254599 2,13.1638168 2,12.7180574 L2,10.2819426 C2,9.83618323 2.04641281,9.67454011 2.13356635,9.51157715 C2.2207199,9.34861419 2.34861419,9.2207199 2.51157715,9.13356635 C2.67454011,9.04641281 2.83618323,9 3.2819426,9 L5.7180574,9 Z M5.86319839,10.0007661 L3.25866931,10.000013 C3.09528363,10.0002008 3.03540651,10.0024411 3.00741345,10.0074135 C3.00394581,10.0269375 3.00180683,10.0619677 3.00076613,10.1368016 L3.00076613,12.8631984 C3.00180683,12.9380323 3.00394581,12.9730625 3.00741345,12.9925865 C3.03669959,12.997788 3.10087435,13 3.2819426,13 L5.7180574,13 C5.89912565,13 5.96330041,12.997788 5.99258655,12.9925865 C5.997788,12.9633004 6,12.8991257 6,12.7180574 L6,10.2819426 C6,10.1008743 5.997788,10.0366995 5.99258655,10.0074135 C5.97306247,10.0039458 5.93803234,10.0018068 5.86319839,10.0007661 Z M12.7180574,2 C13.1638168,2 13.3254599,2.04641281 13.4884229,2.13356635 C13.6513858,2.2207199 13.7792801,2.34861419 13.8664336,2.51157715 C13.9535872,2.67454011 14,2.83618323 14,3.2819426 L14,5.7180574 C14,6.16381677 13.9535872,6.32545989 13.8664336,6.48842285 C13.7792801,6.65138581 13.6513858,6.7792801 13.4884229,6.86643365 C13.3254599,6.95358719 13.1638168,7 12.7180574,7 L10.2819426,7 C9.83618323,7 9.67454011,6.95358719 9.51157715,6.86643365 C9.34861419,6.7792801 9.2207199,6.65138581 9.13356635,6.48842285 C9.04641281,6.32545989 9,6.16381677 9,5.7180574 L9,3.2819426 C9,2.83618323 9.04641281,2.67454011 9.13356635,2.51157715 C9.2207199,2.34861419 9.34861419,2.2207199 9.51157715,2.13356635 C9.67454011,2.04641281 9.83618323,2 10.2819426,2 L12.7180574,2 Z M12.8631984,3.00076613 L10.2586693,3.00001297 C10.0952836,3.00020084 10.0354065,3.00244114 10.0074135,3.00741345 C10.0039458,3.02693754 10.0018068,3.06196769 10.0007661,3.13680163 L10.0007661,5.86319837 C10.0018068,5.93803231 10.0039458,5.97306246 10.0074135,5.99258655 C10.0366996,5.997788 10.1008743,6 10.2819426,6 L12.7180574,6 C12.8991257,6 12.9633004,5.997788 12.9925865,5.99258655 C12.997788,5.96330041 13,5.89912565 13,5.7180574 L13,3.2819426 C13,3.10087429 12.997788,3.03669954 12.9925865,3.00741345 C12.9730625,3.00394582 12.9380323,3.00180683 12.8631984,3.00076613 Z M7.27886107,1.77593618 C7.54067929,1.9299469 7.62807453,2.26704285 7.47406382,2.52886107 L5.10511031,6.55608203 C5.07291267,6.61081803 5.03389362,6.66124314 4.98898974,6.70614702 C4.69609652,6.99904024 4.22122278,6.99904024 3.92832956,6.70614702 L2.11109127,4.88890873 C1.89630291,4.67412037 1.89630291,4.32587963 2.11109127,4.11109127 C2.32587963,3.89630291 2.67412037,3.89630291 2.88890873,4.11109127 L4.38631404,5.60849657 L6.52593618,1.97113893 C6.6799469,1.70932071 7.01704285,1.62192547 7.27886107,1.77593618 Z" id="形状结合" fill="currentColor" ></path>
    </g>
</svg>