<?xml version="1.0" encoding="UTF-8"?>
<svg width="16px" height="16px" viewBox="0 0 16 16" version="1.1" xmlns="http://www.w3.org/2000/svg" xmlns:xlink="http://www.w3.org/1999/xlink">
    <g id="icon/模型/智能推荐" stroke="none" fill="none" fill-rule="nonzero">
        <path d="M8.5953131,0.390038483 C9.00153023,0.478079635 9.32530302,0.621446786 9.92506946,0.975745899 L13.1315276,2.86989199 L13.4797411,3.08282705 C13.8399473,3.31318005 14.0526964,3.49077452 14.2617665,3.72576359 C14.5255964,4.02230124 14.7168247,4.35736696 14.8379545,4.73534627 C14.9613681,5.12045233 15,5.46253909 15,6.14378415 L15,9.92817993 C15,10.6150798 14.960418,10.9607056 14.8343035,11.3492985 C14.710671,11.7302434 14.515752,12.0674404 14.2473451,12.3646974 C13.9735496,12.6679223 13.6938005,12.8747179 13.0985642,13.2175372 L9.89540297,15.0623602 C9.30157891,15.4043661 8.98334133,15.5422912 8.58492185,15.627122 C8.19420943,15.7103117 7.80579057,15.7103117 7.41507815,15.627122 C7.06092751,15.5517169 6.77013045,15.4343607 6.2928195,15.1690107 L2.90143584,13.2175372 L2.54795365,13.0065917 C2.18216056,12.7780468 1.96560697,12.600539 1.75265492,12.3646974 C1.48424805,12.0674404 1.28932897,11.7302434 1.1656965,11.3492985 C1.05359468,11.0038826 1.00986429,10.692416 1.0015304,10.1450339 L1,6.14378415 C1,5.46253909 1.03863192,5.12045233 1.16204554,4.73534627 C1.28317529,4.35736696 1.47440365,4.02230124 1.73823353,3.72576359 C2.00703787,3.42363478 2.281924,3.21638278 2.86847235,2.86989198 L6.07493053,0.975745894 L6.43782036,0.769088058 C6.82266732,0.560460201 7.08874024,0.458514935 7.4046869,0.390038483 C7.802105,0.303904383 8.197895,0.303904383 8.5953131,0.390038483 Z M7.6165033,1.36734796 C7.35867568,1.42322803 7.13976426,1.50816573 6.58354456,1.83674053 L3.37708638,3.73088662 C2.83290336,4.05235101 2.65644824,4.19814694 2.48534144,4.39046635 C2.31423465,4.58278576 2.19289929,4.79538665 2.11434063,5.04052503 L2.07228267,5.18872128 C2.02907323,5.36688249 2.00613889,5.57735712 2.00108045,5.96592592 L2,9.92817993 C2,10.5653684 2.03666735,10.7935158 2.11685866,11.0406068 C2.19704997,11.2876978 2.32076524,11.501717 2.49486108,11.6945258 L2.60289496,11.806307 C2.73653644,11.9342127 2.90878816,12.0605199 3.24568548,12.2605313 L6.60367903,14.1958054 C7.15455176,14.5130741 7.36991033,14.5950891 7.62332818,14.6490463 C7.87674603,14.7030036 8.12325397,14.7030036 8.37667182,14.6490463 L8.527144,14.6116475 C8.70433996,14.5602197 8.89949706,14.4747385 9.240751,14.2841356 L12.5994822,12.3509825 C13.1516408,12.0329732 13.3310431,11.8873346 13.5051389,11.6945258 C13.6792348,11.501717 13.80295,11.2876978 13.8831413,11.0406068 L13.9260881,10.8912016 C13.9765329,10.6858952 14,10.4379307 14,9.92817993 L14,6.14378415 L13.9956502,5.80987514 C13.9839761,5.42054958 13.9485063,5.23663574 13.8856594,5.04052503 C13.8071007,4.79538665 13.6857654,4.58278576 13.5146586,4.39046635 L13.4084536,4.27887999 C13.2770347,4.1510616 13.1074819,4.02426491 12.7754991,3.82227807 L9.41645544,1.83674053 L9.12019082,1.66711547 C8.77111453,1.47535296 8.5897588,1.41205201 8.3834967,1.36734796 C8.12566907,1.31146789 7.87433093,1.31146789 7.6165033,1.36734796 Z M11.2159513,5.59705909 C11.4384894,5.4335617 11.7514331,5.48142367 11.9149304,5.70396178 C12.0784278,5.9264999 12.0305659,6.23944351 11.8080278,6.40294091 L8.51198954,8.82452001 L8.51198954,12 C8.51198954,12.2761424 8.28813191,12.5 8.01198954,12.5 C7.73584716,12.5 7.51198954,12.2761424 7.51198954,12 L7.51198954,8.82452001 L4.21595132,6.40294091 C3.9934132,6.23944351 3.94555124,5.9264999 4.10904863,5.70396178 C4.27254602,5.48142367 4.58548964,5.4335617 4.80802775,5.59705909 L8.012,7.95043791 L11.2159513,5.59705909 Z" id="形状" fill="currentColor"></path>
    </g>
</svg>