<?xml version="1.0" encoding="UTF-8"?>
<svg width="16px" height="16px" viewBox="0 0 16 16" version="1.1" xmlns="http://www.w3.org/2000/svg" xmlns:xlink="http://www.w3.org/1999/xlink">
    <g id="icon_titlebar_minimodel" stroke="none" fill="none" fill-rule="evenodd" stroke-width="1">
        <g fill="currentColor" id="形状结合">
            <path d="M13.7180574,8 C14.1638168,8 14.3254599,8.04641281 14.4884229,8.13356635 C14.6513858,8.2207199 14.7792801,8.34861419 14.8664336,8.51157715 C14.9535872,8.67454011 15,8.83618323 15,9.2819426 L15,12.7180574 C15,13.1638168 14.9535872,13.3254599 14.8664336,13.4884229 C14.7792801,13.6513858 14.6513858,13.7792801 14.4884229,13.8664336 C14.3254599,13.9535872 14.1638168,14 13.7180574,14 L8.2819426,14 C7.83618323,14 7.67454011,13.9535872 7.51157715,13.8664336 C7.34861419,13.7792801 7.2207199,13.6513858 7.13356635,13.4884229 C7.04641281,13.3254599 7,13.1638168 7,12.7180574 L7,9.2819426 C7,8.83618323 7.04641281,8.67454011 7.13356635,8.51157715 C7.2207199,8.34861419 7.34861419,8.2207199 7.51157715,8.13356635 C7.67454011,8.04641281 7.83618323,8 8.2819426,8 L13.7180574,8 Z M13.8631984,9.00076613 L8.25866932,9.00001297 C8.09528363,9.00020084 8.03540651,9.00244114 8.00741345,9.00741346 C8.00394581,9.02693754 8.00180683,9.06196769 8.00076613,9.13680163 L8.00076613,12.8631984 C8.00180683,12.9380323 8.00394581,12.9730625 8.00741345,12.9925865 C8.03669959,12.997788 8.10087435,13 8.2819426,13 L13.7180574,13 C13.8991257,13 13.9633004,12.997788 13.9925866,12.9925865 C13.997788,12.9633004 14,12.8991257 14,12.7180574 L14,9.2819426 C14,9.10087435 13.997788,9.03669959 13.9925866,9.00741346 C13.9730625,9.00394582 13.9380324,9.00180683 13.8631984,9.00076613 Z M12,2 C13.1045695,2 14,2.8954305 14,4 L14,6.8 C14,6.91045695 13.9104569,7 13.8,7 L13.2,7 C13.0895431,7 13,6.91045695 13,6.8 L13,4 C13,3.44771525 12.5522847,3 12,3 L3,3 C2.44771525,3 2,3.44771525 2,4 L2,11 C2,11.5522847 2.44771525,12 3,12 L5.8,12 C5.91045695,12 6,12.0895431 6,12.2 L6,12.8 C6,12.9104569 5.91045695,13 5.8,13 L3,13 C1.8954305,13 1,12.1045695 1,11 L1,4 C1,2.8954305 1.8954305,2 3,2 L12,2 Z M6.5,4 C6.77614237,4 7,4.22385763 7,4.5 L7,7.3 C7,7.68659932 6.68659932,8 6.3,8 L3.5,8 C3.22385763,8 3,7.77614237 3,7.5 C3,7.22385763 3.22385763,7 3.5,7 L5.293,7 L3.14644661,4.85355339 C2.95118446,4.65829124 2.95118446,4.34170876 3.14644661,4.14644661 C3.34170876,3.95118446 3.65829124,3.95118446 3.85355339,4.14644661 L6,6.293 L6,4.5 C6,4.22385763 6.22385763,4 6.5,4 Z" fill-rule="nonzero"></path>
        </g>
    </g>
</svg>