<?xml version="1.0" encoding="UTF-8"?>
<svg width="16px" height="16px" viewBox="0 0 16 16" version="1.1" xmlns="http://www.w3.org/2000/svg" xmlns:xlink="http://www.w3.org/1999/xlink">
    <g id="控件" stroke="none" stroke-width="1" fill="none" fill-rule="evenodd">
        <g id="画框" transform="translate(-106, -50)">
            <g id="icon_titlebar_menu" transform="translate(106, 50)">
                <rect id="矩形" x="0" y="0" width="16" height="16"></rect>
                <path d="M11.6581197,14 L11.8290598,14 C11.9234675,14 12,13.9234675 12,13.8290598 L12,13.1709402 C12,13.0765325 11.9234675,13 11.8290598,13 L11.6581197,13 L2.34188034,13 L2.17094017,13 C2.07653252,13 2,13.0765325 2,13.1709402 L2,13.8290598 C2,13.9234675 2.07653252,14 2.17094017,14 L2.34188034,14 L11.6581197,14 Z M13.5897436,9 L13.7948718,9 C13.908161,9 14,8.90816097 14,8.79487179 L14,8.20512821 C14,8.09183903 13.908161,8 13.7948718,8 L13.5897436,8 L2.41025641,8 L2.20512821,8 C2.09183903,8 2,8.09183903 2,8.20512821 L2,8.79487179 C2,8.90816097 2.09183903,9 2.20512821,9 L2.41025641,9 L13.5897436,9 Z M13.5897436,4 L13.7948718,4 C13.908161,4 14,3.90816097 14,3.79487179 L14,3.20512821 C14,3.09183903 13.908161,3 13.7948718,3 L13.5897436,3 L2.41025641,3 L2.20512821,3 C2.09183903,3 2,3.09183903 2,3.20512821 L2,3.79487179 C2,3.90816097 2.09183903,4 2.20512821,4 L2.41025641,4 L13.5897436,4 Z" id="形状结合" fill="currentColor" fill-rule="nonzero"></path>
            </g>
        </g>
    </g>
</svg>