<?xml version="1.0" encoding="UTF-8"?>
<svg width="16px" height="16px" viewBox="0 0 16 16" version="1.1" xmlns="http://www.w3.org/2000/svg" xmlns:xlink="http://www.w3.org/1999/xlink">
    <g id="控件" stroke="none" stroke-width="1" fill="none" fill-rule="evenodd">
        <g id="画框" transform="translate(-150, -80)">
            <g id="icon_titlebar_unmaxmize" transform="translate(150, 80)">
                <rect id="矩形-3" x="0" y="0" width="16" height="16"></rect>
                <g id="形状结合" transform="translate(2, 2)" fill="currentColor" fill-rule="nonzero">
                    <path d="M10,2 C10.5522847,2 11,2.4477153 11,3 L11,10 C11,10.5522847 10.5522847,11 10,11 L1,11 C0.4477153,11 0,10.5522847 0,10 L0,3 C0,2.4477153 0.4477153,2 1,2 L10,2 Z M10,3 L1,3 L1,10 L10,10 L10,3 Z M12,0 C12.5522847,0 13,0.4477153 13,1 L13,8.75 C13,8.8880712 12.8880712,9 12.75,9 L12.25,9 C12.1119288,9 12,8.8880712 12,8.75 L12,1 L2.25,1 C2.1119288,1 2,0.8880712 2,0.75 L2,0.25 C2,0.1119288 2.1119288,0 2.25,0 L12,0 Z"></path>
                </g>
            </g>
        </g>
    </g>
</svg>