<?xml version="1.0" encoding="UTF-8"?>
<svg width="16px" height="16px" viewBox="0 0 16 16" version="1.1" xmlns="http://www.w3.org/2000/svg" xmlns:xlink="http://www.w3.org/1999/xlink">
    <g id="icon/首页/更多" stroke="none" fill="none" fill-rule="nonzero">
        <path d="M5.7180574,9 C6.16381677,9 6.32545989,9.04641281 6.48842285,9.13356635 C6.65138581,9.2207199 6.7792801,9.34861419 6.86643365,9.51157715 C6.95358719,9.67454011 7,9.83618323 7,10.2819426 L7,12.7180574 C7,13.1638168 6.95358719,13.3254599 6.86643365,13.4884229 C6.7792801,13.6513858 6.65138581,13.7792801 6.48842285,13.8664336 C6.32545989,13.9535872 6.16381677,14 5.7180574,14 L3.2819426,14 C2.83618323,14 2.67454011,13.9535872 2.51157715,13.8664336 C2.34861419,13.7792801 2.2207199,13.6513858 2.13356635,13.4884229 C2.04641281,13.3254599 2,13.1638168 2,12.7180574 L2,10.2819426 C2,9.83618323 2.04641281,9.67454011 2.13356635,9.51157715 C2.2207199,9.34861419 2.34861419,9.2207199 2.51157715,9.13356635 C2.67454011,9.04641281 2.83618323,9 3.2819426,9 L5.7180574,9 Z M12.7180574,9 C13.1638168,9 13.3254599,9.04641281 13.4884229,9.13356635 C13.6513858,9.2207199 13.7792801,9.34861419 13.8664336,9.51157715 C13.9535872,9.67454011 14,9.83618323 14,10.2819426 L14,12.7180574 C14,13.1638168 13.9535872,13.3254599 13.8664336,13.4884229 C13.7792801,13.6513858 13.6513858,13.7792801 13.4884229,13.8664336 C13.3254599,13.9535872 13.1638168,14 12.7180574,14 L10.2819426,14 C9.83618323,14 9.67454011,13.9535872 9.51157715,13.8664336 C9.34861419,13.7792801 9.2207199,13.6513858 9.13356635,13.4884229 C9.04641281,13.3254599 9,13.1638168 9,12.7180574 L9,10.2819426 C9,9.83618323 9.04641281,9.67454011 9.13356635,9.51157715 C9.2207199,9.34861419 9.34861419,9.2207199 9.51157715,9.13356635 C9.67454011,9.04641281 9.83618323,9 10.2819426,9 L12.7180574,9 Z M3.13680163,10.0007661 C3.06196769,10.0018068 3.02693755,10.0039458 3.00741346,10.0074134 C3.00394582,10.0269375 3.00180683,10.0619677 3.00076613,10.1368016 L3.00076613,12.8631984 C3.00180683,12.9380323 3.00394582,12.9730625 3.00741346,12.9925865 C3.03669959,12.997788 3.10087435,13 3.2819426,13 L5.7180574,13 C5.89912565,13 5.96330041,12.997788 5.99258655,12.9925865 C5.997788,12.9633004 6,12.8991257 6,12.7180574 L6,10.2819426 C6,10.1008743 5.997788,10.0366995 5.99258655,10.0074134 C5.97306247,10.0039458 5.93803234,10.0018068 5.86319839,10.0007661 L3.13680163,10.0007661 Z M10.1368016,10.0007661 C10.0619677,10.0018068 10.0269375,10.0039458 10.0074134,10.0074134 C10.0039458,10.0269375 10.0018068,10.0619677 10.0007661,10.1368016 L10.0007661,12.8631984 C10.0018068,12.9380323 10.0039458,12.9730625 10.0074134,12.9925865 C10.0366996,12.997788 10.1008743,13 10.2819426,13 L12.7180574,13 C12.8991257,13 12.9633004,12.997788 12.9925865,12.9925865 C12.997788,12.9633004 13,12.8991257 13,12.7180574 L13,10.2819426 C13,10.1008743 12.997788,10.0366995 12.9925865,10.0074134 C12.9730625,10.0039458 12.9380323,10.0018068 12.8631984,10.0007661 L10.1368016,10.0007661 Z M5.7180574,2 C6.16381677,2 6.32545989,2.04641281 6.48842285,2.13356635 C6.65138581,2.2207199 6.7792801,2.34861419 6.86643365,2.51157715 C6.95358719,2.67454011 7,2.83618323 7,3.2819426 L7,5.7180574 C7,6.16381677 6.95358719,6.32545989 6.86643365,6.48842285 C6.7792801,6.65138581 6.65138581,6.7792801 6.48842285,6.86643365 C6.32545989,6.95358719 6.16381677,7 5.7180574,7 L3.2819426,7 C2.83618323,7 2.67454011,6.95358719 2.51157715,6.86643365 C2.34861419,6.7792801 2.2207199,6.65138581 2.13356635,6.48842285 C2.04641281,6.32545989 2,6.16381677 2,5.7180574 L2,3.2819426 C2,2.83618323 2.04641281,2.67454011 2.13356635,2.51157715 C2.2207199,2.34861419 2.34861419,2.2207199 2.51157715,2.13356635 C2.67454011,2.04641281 2.83618323,2 3.2819426,2 L5.7180574,2 Z M11.5,2 C12.8807119,2 14,3.11928813 14,4.5 C14,5.88071187 12.8807119,7 11.5,7 C10.1192881,7 9,5.88071187 9,4.5 C9,3.11928813 10.1192881,2 11.5,2 Z M3.25866932,3.00001297 C3.09528363,3.00020084 3.03540651,3.00244114 3.00741346,3.00741347 C3.00394582,3.02693755 3.00180683,3.06196769 3.00076613,3.13680163 L3.00076613,5.86319837 C3.00180683,5.93803231 3.00394582,5.97306246 3.00741346,5.99258656 C3.03669959,5.997788 3.10087435,6 3.2819426,6 L5.7180574,6 C5.89912565,6 5.96330041,5.997788 5.99258655,5.99258656 C5.997788,5.96330041 6,5.89912565 6,5.7180574 L6,3.2819426 C6,3.10087435 5.997788,3.03669959 5.99258655,3.00741347 C5.97306247,3.00394582 5.93803234,3.00180683 5.86319839,3.00076613 L3.25866932,3.00001297 Z M11.5,3 C10.6715729,3 10,3.67157288 10,4.5 C10,5.32842712 10.6715729,6 11.5,6 C12.3284271,6 13,5.32842712 13,4.5 C13,3.67157288 12.3284271,3 11.5,3 Z" id="形状结合" fill="currentColor"></path>
    </g>
</svg>