<?xml version="1.0" encoding="UTF-8"?>
<svg width="16px" height="16px" viewBox="0 0 16 16" version="1.1" xmlns="http://www.w3.org/2000/svg" xmlns:xlink="http://www.w3.org/1999/xlink">
    <g id="icon/模型/本地" stroke="none" fill="none" fill-rule="nonzero">
        <path d="M13.3759398,1.99999127 C13.8424949,1.9986524 14.2480566,2.30858874 14.3533835,2.74698598 L14.9874687,5.31426665 C14.9949875,5.35052768 15,5.3892061 15,5.42546713 C15,6.17002687 14.6716792,6.83964716 14.1453634,7.3086231 L14,7.42999562 L14,13.0020941 C14,14.1066636 13.1045695,15.0020941 12,15.0020941 L4,15.0020941 C2.8954305,15.0020941 2,14.1066636 2,13.0020941 L2.00095145,7.43402581 L1.85463659,7.3110405 C1.3283208,6.84206456 1,6.17002687 1,5.42788453 C1,5.3892061 1.00501253,5.35052768 1.01503759,5.31426665 L1.64661654,2.74698598 C1.75244255,2.30924363 2.15805665,2.00027039 2.62406015,2.00242624 L13.3759398,1.99999127 Z M10.1654135,6.92909102 C9.67418546,7.5890417 8.87969925,7.9975826 8,7.9975826 C7.12030075,7.9975826 6.32330827,7.5842069 5.83458647,6.92909102 C5.34085213,7.5890417 4.54636591,7.99999562 3.66917293,7.99999562 C3.43788638,7.99999562 3.21328599,7.97097763 2.99946704,7.91688696 L3,13.0020941 C3,13.5543789 3.44771525,14.0020941 4,14.0020941 L12,14.0020941 C12.5522847,14.0020941 13,13.5543789 13,13.0020941 L13,7.91499562 L12.947995,7.92925323 C12.7501566,7.97446619 12.5438596,7.9975826 12.3333333,7.9975826 C11.4511278,7.9975826 10.6541353,7.5866243 10.1654135,6.92909102 Z M11,9 L11,12 L10,12 L10,9 L11,9 Z M13.3841138,2.99307239 L2.61943394,3.00241554 L2.0029855,5.48281826 C2.01633497,5.8962286 2.20304217,6.28209589 2.52556253,6.56951613 C2.70300054,6.73006078 2.91408309,6.84971274 3.15503354,6.92211252 C3.31945616,6.97342194 3.49237425,7 3.66917293,7 C4.21803442,7 4.72106486,6.74815892 5.03387148,6.33004552 C5.40748544,5.8306539 6.131354,5.79783889 6.55107356,6.23115318 L6.63611964,6.33114071 C6.94459696,6.74464465 7.45024609,6.9975826 8,6.9975826 C8.49726761,6.9975826 8.95330707,6.79482673 9.26487582,6.45154647 L9.36323969,6.33200048 C9.76328136,5.79455609 10.5683309,5.79483469 10.9680005,6.33255584 C11.2752277,6.74590375 11.7796082,6.9975826 12.3333333,6.9975826 C12.5131579,6.9975826 12.6859554,6.97173322 12.8497169,6.92064306 C13.0840621,6.84879054 13.2968192,6.72780648 13.4800969,6.5620171 C13.7992092,6.27767075 13.9851876,5.89203812 13.99729,5.47569677 L13.3841138,2.99307239 Z" id="形状" fill="currentColor"></path>
    </g>
</svg>