<?xml version="1.0" encoding="UTF-8"?>
<svg width="32px" height="32px" viewBox="0 0 32 32" version="1.1" xmlns="http://www.w3.org/2000/svg" xmlns:xlink="http://www.w3.org/1999/xlink">
    <defs>
        <path d="M0,0 L32,0 L32,32 L0,32 L0,0 Z" id="path-1"></path>
    </defs>
    <g id="ICON/mcp/我的mcp" stroke="none" fill="none" xlink:href="#path-1" fill-rule="nonzero">
        <path d="M24.0027152,5.01069293 C25.6595694,5.01069293 27.0027152,6.35383868 27.0027152,8.01069293 L27.0027152,16.0110001 L26.0027152,16.0110001 L26.0027152,8.01069293 C26.0027152,6.90612343 25.1072847,6.01069293 24.0027152,6.01069293 L7.00134849,6.01069293 C5.89677899,6.01069293 5.00134849,6.90612343 5.00134849,8.01069293 L5.001,8.99999987 L26,9 L26,10 L5.001,9.99999987 L5.00134849,24.0113073 C5.00134849,25.1158768 5.89677899,26.0113073 7.00134849,26.0113073 L16,26.0113073 L16,27.0113073 L7.00134849,27.0113073 C5.34449424,27.0113073 4.00134849,25.6681616 4.00134849,24.0113073 L4.00134849,8.01069293 C4.00134849,6.35383868 5.34449424,5.01069293 7.00134849,5.01069293 L24.0027152,5.01069293 Z M23.4944999,22.0110001 C26.5290285,22.0110001 28.9889999,24.2495764 28.9889999,27.0110001 L18,27.0110001 C18,24.2495764 20.4599714,22.0110001 23.4944999,22.0110001 Z M23.4944999,23.0110001 C21.3871663,23.0110001 19.6414847,24.296956 19.1481553,26.0110001 L27.8408446,26.0110001 C27.3475151,24.296956 25.6018336,23.0110001 23.4944999,23.0110001 Z M23.5,17 C24.8807119,17 26,18.1192881 26,19.5 C26,20.8807119 24.8807119,22 23.5,22 C22.1192881,22 21,20.8807119 21,19.5 C21,18.1192881 22.1192881,17 23.5,17 Z M23.5,18 C22.6715729,18 22,18.6715729 22,19.5 C22,20.3284271 22.6715729,21 23.5,21 C24.3284271,21 25,20.3284271 25,19.5 C25,18.6715729 24.3284271,18 23.5,18 Z M13.9041535,12.7861717 L14.8080947,13.2138283 L12.0958465,18.9467293 L11.1919053,18.5190727 L13.9041535,12.7861717 Z M9.67214172,13.3240485 L10.3278583,14.0790556 L8.51252459,15.6556558 L10.3278583,17.232256 L9.67214172,17.9872631 L7.85680802,16.410663 C7.82142547,16.3799335 7.78824684,16.3467549 7.75751744,16.3113724 C7.39537518,15.8943934 7.43982908,15.2627909 7.85680802,14.9006487 L9.67214172,13.3240485 Z M16.3278583,13.3240485 L18.143192,14.9006487 C18.5601709,15.2627909 18.6046248,15.8943934 18.2424826,16.3113724 C18.2117532,16.3467549 18.1785745,16.3799335 18.143192,16.410663 L16.3278583,17.9872631 L15.6721417,17.232256 L17.4874754,15.6556558 L15.6721417,14.0790557 L16.3278583,13.3240485 Z" id="形状结合" fill="currentColor"></path>
    </g>
</svg>