<?xml version="1.0" encoding="UTF-8"?>
<svg width="16px" height="16px" viewBox="0 0 16 16" version="1.1" xmlns="http://www.w3.org/2000/svg" xmlns:xlink="http://www.w3.org/1999/xlink">
    <defs>
        <path d="M0,0 L16,0 L16,16 L0,16 L0,0 Z" id="path-1"></path>
    </defs>
    <g id="icon/输入框/mcp" stroke="none" xlink:href="#path-1" >
        <path d="M11.5857864,11.5857864 C11.7810486,11.7810486 11.7810486,12.0976311 11.5857864,12.2928932 L10.8786797,13 L11.5857864,13.7071068 C11.7810486,13.9023689 11.7810486,14.2189514 11.5857864,14.4142136 C11.3905243,14.6094757 11.0739418,14.6094757 10.8786797,14.4142136 L9.81801948,13.3535534 C9.62275734,13.1582912 9.62275734,12.8417088 9.81801948,12.6464466 L10.8786797,11.5857864 C11.052246,11.4122201 11.3216704,11.3929349 11.5165386,11.527931 L11.5857864,11.5857864 Z M14.1213203,11.5857864 L15.1819805,12.6464466 C15.3772427,12.8417088 15.3772427,13.1582912 15.1819805,13.3535534 L14.1213203,14.4142136 C13.9260582,14.6094757 13.6094757,14.6094757 13.4142136,14.4142136 C13.2189514,14.2189514 13.2189514,13.9023689 13.4142136,13.7071068 L14.1213203,13 L13.4142136,12.2928932 C13.2189514,12.0976311 13.2189514,11.7810486 13.4142136,11.5857864 C13.6094757,11.3905243 13.9260582,11.3905243 14.1213203,11.5857864 Z M13,1 C14.1045695,1 15,1.8954305 15,3 L15,9.5 C15,9.77614237 14.7761424,10 14.5,10 C14.2238576,10 14,9.77614237 14,9.5 L14,6 L2,6 L2,12 C2,12.5522847 2.44771525,13 3,13 L7.5,13 C7.77614237,13 8,13.2238576 8,13.5 C8,13.7761424 7.77614237,14 7.5,14 L3,14 C1.8954305,14 1,13.1045695 1,12 L1,3 C1,1.8954305 1.8954305,1 3,1 L13,1 Z M13,2 L3,2 C2.44771525,2 2,2.44771525 2,3 L2,5 L14,5 L14,3 C14,2.44771525 13.5522847,2 13,2 Z M4,3 L4,4 L3,4 L3,3 L4,3 Z M6,3 L6,4 L5,4 L5,3 L6,3 Z" id="形状" fill="currentColor"></path>
    </g>
</svg>