<?xml version="1.0" encoding="UTF-8"?>
<svg width="16px" height="16px" viewBox="0 0 16 16" version="1.1" xmlns="http://www.w3.org/2000/svg" xmlns:xlink="http://www.w3.org/1999/xlink">
    <defs>
        <path d="M0,0 L16,0 L16,16 L0,16 L0,0 Z" id="path-1"></path>
    </defs>
    <g id="icon/首页/历史记录" stroke="none" fill="none" xlink:href="#path-1" fill-rule="nonzero">
        <path d="M8,1.5 C11.5898509,1.5 14.5,4.41014913 14.5,8 C14.5,11.5898509 11.5898509,14.5 8,14.5 C4.41014913,14.5 1.5,11.5898509 1.5,8 L2.5,8 C2.5,11.0375661 4.96243388,13.5 8,13.5 C11.0375661,13.5 13.5,11.0375661 13.5,8 C13.5,4.96243388 11.0375661,2.5 8,2.5 C6.50996315,2.5 5.12312251,3.09703036 4.10998781,4.11102015 L6,6 L2,6 L2,2 L3.40286377,3.40393336 C4.60004683,2.20589714 6.23942788,1.5 8,1.5 Z M8,4.5 L8,8.190983 L10.7236068,9.5527864 L10.2763932,10.4472136 L7,8.80901699 L7,4.5 L8,4.5 Z" id="形状结合" fill="currentColor"></path>
    </g>
</svg>