<?xml version="1.0" encoding="UTF-8"?>
<svg width="16px" height="16px" viewBox="0 0 16 16" version="1.1" xmlns="http://www.w3.org/2000/svg" xmlns:xlink="http://www.w3.org/1999/xlink">
    <g id="控件" stroke="none" stroke-width="1" fill="none" fill-rule="evenodd">
        <g id="画框" transform="translate(-226, -50)">
            <g id="icon_titlebar_close" transform="translate(229, 53)">
                <rect id="矩形-2" x="-3" y="-3" width="16" height="16"></rect>
                <path d="M9.52022006,0.353553391 L9.64644661,0.479779943 C9.84170876,0.675042089 9.84170876,0.991624578 9.64644661,1.18688672 L5.83333333,5 L5.83333333,5 L9.64644661,8.81311328 C9.84170876,9.00837542 9.84170876,9.32495791 9.64644661,9.52022006 L9.52022006,9.64644661 C9.32495791,9.84170876 9.00837542,9.84170876 8.81311328,9.64644661 L5,5.83333333 L5,5.83333333 L1.18688672,9.64644661 C0.991624578,9.84170876 0.675042089,9.84170876 0.479779943,9.64644661 L0.353553391,9.52022006 C0.158291245,9.32495791 0.158291245,9.00837542 0.353553391,8.81311328 L4.16666667,5 L4.16666667,5 L0.353553391,1.18688672 C0.158291245,0.991624578 0.158291245,0.675042089 0.353553391,0.479779943 L0.479779943,0.353553391 C0.675042089,0.158291245 0.991624578,0.158291245 1.18688672,0.353553391 L5,4.16666667 L5,4.16666667 L8.81311328,0.353553391 C9.00837542,0.158291245 9.32495791,0.158291245 9.52022006,0.353553391 Z" id="Combined-Shape" fill="currentColor" fill-rule="nonzero"></path>
            </g>
        </g>
    </g>
</svg>