<?xml version="1.0" encoding="UTF-8"?>
<svg width="16px" height="16px" viewBox="0 0 16 16" version="1.1" xmlns="http://www.w3.org/2000/svg" xmlns:xlink="http://www.w3.org/1999/xlink">
    <g id="icon_titlebar_voice_chat" stroke="none" fill="none" fill-rule="evenodd" stroke-width="1">
        <g fill="currentColor" id="形状结合" fill-rule="nonzero">
            <path d="M7.25638852,2 L7.74361148,2 C7.83276335,2 7.86509198,2.00928256 7.89768457,2.02671327 C7.93027716,2.04414398 7.95585602,2.06972284 7.97328673,2.10231543 C7.99071744,2.13490802 8,2.16723665 8,2.25638852 L8,13.7436115 C8,13.8327634 7.99071744,13.865092 7.97328673,13.8976846 C7.95585602,13.9302772 7.93027716,13.955856 7.89768457,13.9732867 C7.86509198,13.9907174 7.83276335,14 7.74361148,14 L7.25638852,14 C7.16723665,14 7.13490802,13.9907174 7.10231543,13.9732867 C7.06972284,13.955856 7.04414398,13.9302772 7.02671327,13.8976846 C7.00928256,13.865092 7,13.8327634 7,13.7436115 L7,2.25638852 C7,2.16723665 7.00928256,2.13490802 7.02671327,2.10231543 C7.04414398,2.06972284 7.06972284,2.04414398 7.10231543,2.02671327 C7.13490802,2.00928256 7.16723665,2 7.25638852,2 Z M10.2563885,5 L10.7436115,5 C10.8327634,5 10.865092,5.00928256 10.8976846,5.02671327 C10.9302772,5.04414398 10.955856,5.06972284 10.9732867,5.10231543 C10.9907174,5.13490802 11,5.16723665 11,5.25638852 L11,10.7436115 C11,10.8327634 10.9907174,10.865092 10.9732867,10.8976846 C10.955856,10.9302772 10.9302772,10.955856 10.8976846,10.9732867 C10.865092,10.9907174 10.8327634,11 10.7436115,11 L10.2563885,11 C10.1672366,11 10.134908,10.9907174 10.1023154,10.9732867 C10.0697228,10.955856 10.044144,10.9302772 10.0267133,10.8976846 C10.0092826,10.865092 10,10.8327634 10,10.7436115 L10,5.25638852 C10,5.16723665 10.0092826,5.13490802 10.0267133,5.10231543 C10.044144,5.06972284 10.0697228,5.04414398 10.1023154,5.02671327 C10.134908,5.00928256 10.1672366,5 10.2563885,5 Z M4.74361148,4.5 L4.25638852,4.5 C4.16723665,4.5 4.13490802,4.50928256 4.10231543,4.52671327 C4.06972284,4.54414398 4.04414398,4.56972284 4.02671327,4.60231543 C4.00928256,4.63490802 4,4.66723665 4,4.75638852 L4,11.2436115 C4,11.3327634 4.00928256,11.365092 4.02671327,11.3976846 C4.04414398,11.4302772 4.06972284,11.455856 4.10231543,11.4732867 C4.13490802,11.4907174 4.16723665,11.5 4.25638852,11.5 L4.74361148,11.5 C4.83276335,11.5 4.86509198,11.4907174 4.89768457,11.4732867 C4.93027716,11.455856 4.95585602,11.4302772 4.97328673,11.3976846 C4.99071744,11.365092 5,11.3327634 5,11.2436115 L5,4.75638852 C5,4.66723665 4.99071744,4.63490802 4.97328673,4.60231543 C4.95585602,4.56972284 4.93027716,4.54414398 4.89768457,4.52671327 C4.86509198,4.50928256 4.83276335,4.5 4.74361148,4.5 Z M1.25638852,6 L1.74361148,6 C1.83276335,6 1.86509198,6.00928256 1.89768457,6.02671327 C1.93027716,6.04414398 1.95585602,6.06972284 1.97328673,6.10231543 C1.99071744,6.13490802 2,6.16723665 2,6.25638852 L2,9.74361148 C2,9.83276335 1.99071744,9.86509198 1.97328673,9.89768457 C1.95585602,9.93027716 1.93027716,9.95585602 1.89768457,9.97328673 C1.86509198,9.99071744 1.83276335,10 1.74361148,10 L1.25638852,10 C1.16723665,10 1.13490802,9.99071744 1.10231543,9.97328673 C1.06972284,9.95585602 1.04414398,9.93027716 1.02671327,9.89768457 C1.00928256,9.86509198 1,9.83276335 1,9.74361148 L1,6.25638852 C1,6.16723665 1.00928256,6.13490802 1.02671327,6.10231543 C1.04414398,6.06972284 1.06972284,6.04414398 1.10231543,6.02671327 C1.13490802,6.00928256 1.16723665,6 1.25638852,6 Z M13.2563885,6.5 L13.7436115,6.5 C13.8327634,6.5 13.865092,6.50928256 13.8976846,6.52671327 C13.9302772,6.54414398 13.955856,6.56972284 13.9732867,6.60231543 C13.9907174,6.63490802 14,6.66723665 14,6.75638852 L14,9.24361148 C14,9.33276335 13.9907174,9.36509198 13.9732867,9.39768457 C13.955856,9.43027716 13.9302772,9.45585602 13.8976846,9.47328673 C13.865092,9.49071744 13.8327634,9.5 13.7436115,9.5 L13.2563885,9.5 C13.1672366,9.5 13.134908,9.49071744 13.1023154,9.47328673 C13.0697228,9.45585602 13.044144,9.43027716 13.0267133,9.39768457 C13.0092826,9.36509198 13,9.33276335 13,9.24361148 L13,6.75638852 C13,6.66723665 13.0092826,6.63490802 13.0267133,6.60231543 C13.044144,6.56972284 13.0697228,6.54414398 13.1023154,6.52671327 C13.134908,6.50928256 13.1672366,6.5 13.2563885,6.5 Z"></path>
        </g>
    </g>
</svg>