<?xml version="1.0" encoding="UTF-8"?>
<svg width="32px" height="32px" viewBox="0 0 32 32" version="1.1" xmlns="http://www.w3.org/2000/svg" xmlns:xlink="http://www.w3.org/1999/xlink">
    <defs>
        <path d="M27.0027152,8.01069293 L27.0027152,16.0110001 L26.0027152,16.0110001 L26.0027152,8.01069293 C26.0027152,6.90612343 25.1072847,6.01069293 24.0027152,6.01069293 L7.00134849,6.01069293 C5.89677899,6.01069293 5.00134849,6.90612343 5.00134849,8.01069293 L5.001,8.99999987 L26,9 L26,10 L5.001,9.99999987 L5.00134849,24.0113073 C5.00134849,25.1158768 5.89677899,26.0113073 7.00134849,26.0113073 L16,26.0113073 L16,27.0113073 L7.00134849,27.0113073 C5.34449424,27.0113073 4.00134849,25.6681616 4.00134849,24.0113073 L4.00134849,8.01069293 C4.00134849,6.35383868 5.34449424,5.01069293 7.00134849,5.01069293 L24.0027152,5.01069293 C25.6595694,5.01069293 27.0027152,6.35383868 27.0027152,8.01069293 Z M28.9889999,27.0110001 L18,27.0110001 C18,24.2495764 20.4599714,22.0110001 23.4944999,22.0110001 C26.5290285,22.0110001 28.9889999,24.2495764 28.9889999,27.0110001 Z M19.1481553,26.0110001 L27.8408446,26.0110001 C27.3475151,24.296956 25.6018336,23.0110001 23.4944999,23.0110001 C21.3871663,23.0110001 19.6414847,24.296956 19.1481553,26.0110001 Z M11.9799794,14.2472155 C12.103522,14.9675291 11.6901369,15.6720805 11.0010738,15.9156097 L11.0010738,17.5006097 C11.4190738,17.1866097 11.9380738,17.0006097 12.5010738,17.0006097 L14.5010738,17.0006097 C15.1775401,17.0008093 15.7704377,16.5482001 15.9485738,15.8956097 C15.2706165,15.6271463 14.8838013,14.9101545 15.0317127,14.196137 C15.1796241,13.4821195 15.819439,12.977798 16.5482544,13.0007528 C17.2770697,13.0237076 17.8838797,13.5672929 17.986565,14.2892032 C18.0892503,15.0111135 17.6580817,15.702342 16.9645738,15.9276097 C16.7568721,17.1257933 15.7171264,18.0007244 14.5010738,18.0006097 L12.5010738,18.0006097 C11.8246657,18.0005823 11.2318607,18.4531209 11.0535738,19.1056097 C11.7280533,19.372977 12.1146146,20.0846347 11.9717509,20.7959699 C11.8288872,21.5073051 11.1975281,22.014525 10.4721194,22.0007405 C9.74671073,21.986956 9.13507723,21.4561163 9.01934107,20.7398671 C8.9036049,20.0236179 9.31692373,19.3271598 10.0010738,19.0856097 L10.0010738,15.9156097 C9.31201071,15.6720805 8.89862564,14.9675291 9.02216824,14.2472155 C9.14571084,13.5269018 9.77024246,13.0003659 10.5010738,13.0003659 C11.2319052,13.0003659 11.8564368,13.5269018 11.9799794,14.2472155 Z M26,19.5 C26,20.8807119 24.8807119,22 23.5,22 C22.1192881,22 21,20.8807119 21,19.5 C21,18.1192881 22.1192881,17 23.5,17 C24.8807119,17 26,18.1192881 26,19.5 Z M10.0010738,20.5006097 C10.0010738,20.7767521 10.2249315,21.0006097 10.5010738,21.0006097 C10.7772162,21.0006097 11.0010738,20.7767521 11.0010738,20.5006097 C11.0010738,20.2244674 10.7772162,20.0006097 10.5010738,20.0006097 C10.2249315,20.0006097 10.0010738,20.2244674 10.0010738,20.5006097 Z M22,19.5 C22,20.3284271 22.6715729,21 23.5,21 C24.3284271,21 25,20.3284271 25,19.5 C25,18.6715729 24.3284271,18 23.5,18 C22.6715729,18 22,18.6715729 22,19.5 Z M10.0010738,14.5006097 C10.0010738,14.7767521 10.2249315,15.0006097 10.5010738,15.0006097 C10.7772162,15.0006097 11.0010738,14.7767521 11.0010738,14.5006097 C11.0010738,14.2244674 10.7772162,14.0006097 10.5010738,14.0006097 C10.2249315,14.0006097 10.0010738,14.2244674 10.0010738,14.5006097 Z M16.0010738,14.5006097 C16.0010738,14.7767521 16.2249315,15.0006097 16.5010738,15.0006097 C16.7772162,15.0006097 17.0010738,14.7767521 17.0010738,14.5006097 C17.0010738,14.2244674 16.7772162,14.0006097 16.5010738,14.0006097 C16.2249315,14.0006097 16.0010738,14.2244674 16.0010738,14.5006097 Z" id="path-1"></path>
    </defs>
    <g id="ICON/mcp/我的skill" stroke="none" xlink:href="#path-1">
        <path d="M24.0027152,5.01069293 C25.6595694,5.01069293 27.0027152,6.35383868 27.0027152,8.01069293 L27.0027152,16.0110001 L26.0027152,16.0110001 L26.0027152,8.01069293 C26.0027152,6.90612343 25.1072847,6.01069293 24.0027152,6.01069293 L7.00134849,6.01069293 C5.89677899,6.01069293 5.00134849,6.90612343 5.00134849,8.01069293 L5.001,8.99999987 L26,9 L26,10 L5.001,9.99999987 L5.00134849,24.0113073 C5.00134849,25.1158768 5.89677899,26.0113073 7.00134849,26.0113073 L16,26.0113073 L16,27.0113073 L7.00134849,27.0113073 C5.34449424,27.0113073 4.00134849,25.6681616 4.00134849,24.0113073 L4.00134849,8.01069293 C4.00134849,6.35383868 5.34449424,5.01069293 7.00134849,5.01069293 L24.0027152,5.01069293 Z M23.4944999,22.0110001 C26.5290285,22.0110001 28.9889999,24.2495764 28.9889999,27.0110001 L18,27.0110001 C18,24.2495764 20.4599714,22.0110001 23.4944999,22.0110001 Z M23.4944999,23.0110001 C21.3871663,23.0110001 19.6414847,24.296956 19.1481553,26.0110001 L27.8408446,26.0110001 C27.3475151,24.296956 25.6018336,23.0110001 23.4944999,23.0110001 Z M16.5482544,13.0007528 C17.2770697,13.0237076 17.8838797,13.5672929 17.986565,14.2892032 C18.0892503,15.0111135 17.6580817,15.702342 16.9645738,15.9276097 C16.7568721,17.1257933 15.7171264,18.0007244 14.5010738,18.0006097 L12.5010738,18.0006097 C11.8246657,18.0005823 11.2318607,18.4531209 11.0535738,19.1056097 C11.7280533,19.372977 12.1146146,20.0846347 11.9717509,20.7959699 C11.8288872,21.5073051 11.1975281,22.014525 10.4721194,22.0007405 C9.74671073,21.986956 9.13507723,21.4561163 9.01934107,20.7398671 C8.9036049,20.0236179 9.31692373,19.3271598 10.0010738,19.0856097 L10.0010738,15.9156097 C9.31201071,15.6720805 8.89862564,14.9675291 9.02216824,14.2472155 C9.14571084,13.5269018 9.77024246,13.0003659 10.5010738,13.0003659 C11.2319052,13.0003659 11.8564368,13.5269018 11.9799794,14.2472155 C12.103522,14.9675291 11.6901369,15.6720805 11.0010738,15.9156097 L11.0010738,17.5006097 C11.4190738,17.1866097 11.9380738,17.0006097 12.5010738,17.0006097 L14.5010738,17.0006097 C15.1775401,17.0008093 15.7704377,16.5482001 15.9485738,15.8956097 C15.2706165,15.6271463 14.8838013,14.9101545 15.0317127,14.196137 C15.1796241,13.4821195 15.819439,12.977798 16.5482544,13.0007528 Z M23.5,17 C24.8807119,17 26,18.1192881 26,19.5 C26,20.8807119 24.8807119,22 23.5,22 C22.1192881,22 21,20.8807119 21,19.5 C21,18.1192881 22.1192881,17 23.5,17 Z M10.5010738,20.0006097 C10.2249315,20.0006097 10.0010738,20.2244674 10.0010738,20.5006097 C10.0010738,20.7767521 10.2249315,21.0006097 10.5010738,21.0006097 C10.7772162,21.0006097 11.0010738,20.7767521 11.0010738,20.5006097 C11.0010738,20.2244674 10.7772162,20.0006097 10.5010738,20.0006097 Z M23.5,18 C22.6715729,18 22,18.6715729 22,19.5 C22,20.3284271 22.6715729,21 23.5,21 C24.3284271,21 25,20.3284271 25,19.5 C25,18.6715729 24.3284271,18 23.5,18 Z M10.5010738,14.0006097 C10.2249315,14.0006097 10.0010738,14.2244674 10.0010738,14.5006097 C10.0010738,14.7767521 10.2249315,15.0006097 10.5010738,15.0006097 C10.7772162,15.0006097 11.0010738,14.7767521 11.0010738,14.5006097 C11.0010738,14.2244674 10.7772162,14.0006097 10.5010738,14.0006097 Z M16.5010738,14.0006097 C16.2249315,14.0006097 16.0010738,14.2244674 16.0010738,14.5006097 C16.0010738,14.7767521 16.2249315,15.0006097 16.5010738,15.0006097 C16.7772162,15.0006097 17.0010738,14.7767521 17.0010738,14.5006097 C17.0010738,14.2244674 16.7772162,14.0006097 16.5010738,14.0006097 Z" id="形状" fill="currentColor"></path>
    </g>
</svg>