<?xml version="1.0" encoding="UTF-8"?>
<svg width="16px" height="16px" viewBox="0 0 16 16" version="1.1" xmlns="http://www.w3.org/2000/svg" xmlns:xlink="http://www.w3.org/1999/xlink">
    <defs>
        <path d="M0,0 L16,0 L16,16 L0,16 L0,0 Z" id="path-1"></path>
    </defs>
    <g id="icon/输入框/上传" stroke="none" xlink:href="#path-1">
        <rect id="矩形备份" opacity="0" x="0" y="0" width="16" height="16"></rect>
        <path d="M12.5167101,1.92561745 C13.0967849,2.51619503 13.4221839,3.31591511 13.4221839,4.14923815 C13.4221839,4.98261367 13.0967917,5.78233657 12.5167149,6.37291617 C10.8415907,8.07841668 10.8415907,8.07841668 9.77560259,9.16373519 C8.76365626,10.1940319 8.76365626,10.1940319 7.17345007,11.8130746 C6.83568265,12.1569575 6.37628175,12.3506996 5.89673861,12.3506996 C5.41715365,12.3506996 4.95780828,12.1569715 4.62002714,11.8130746 C4.28394231,11.4709046 4.09564574,11.0081469 4.09564574,10.5260494 C4.09564574,10.0440367 4.28396977,9.58116627 4.62002187,9.23902968 L9.50163136,4.26888525 C9.69513093,4.07187629 10.0117006,4.06903137 10.2087096,4.26253094 C10.4057185,4.4560305 10.4085635,4.77260021 10.2150639,4.96960917 L5.33344915,9.93975896 C5.18151718,10.0944418 5.09564574,10.3055001 5.09564574,10.5260494 C5.09564574,10.7466714 5.18148106,10.9576203 5.33344915,11.1123399 C5.48368914,11.2653001 5.6861784,11.3506996 5.89673861,11.3506996 C6.10726335,11.3506996 6.30980616,11.2652817 6.46002326,11.1123448 C8.05022463,9.49330708 8.05022463,9.49330708 9.06217096,8.46301035 C10.1281591,7.37769184 10.1281591,7.37769184 11.8032881,5.67218643 C12.1992487,5.26905666 12.4221839,4.72114422 12.4221839,4.14923815 C12.4221839,3.57738759 12.199244,3.02947715 11.8032881,2.6263521 C11.4090375,2.22496332 10.8756309,2 10.3199981,2 C9.76434948,2 9.23091717,2.22495541 8.83692347,2.62613281 L3.49994172,8.06642846 C2.859987,8.71802448 2.5,9.60284143 2.5,10.5260494 C2.5,11.4492778 2.86000062,12.3341427 3.49994172,12.9856704 C4.13812577,13.6354635 5.00253391,14 5.90321749,14 C6.80393865,14 7.66829258,13.6354805 8.30629062,12.9858768 L13.6430717,7.54572336 C13.836452,7.34859732 14.15302,7.3455608 14.350146,7.5389411 C14.547272,7.73232139 14.5503086,8.04888932 14.3569283,8.24601535 L9.0199445,13.6863753 C8.19419032,14.5271506 7.07296306,15 5.90321749,15 C4.73351162,15 3.61222949,14.5271352 2.78650509,13.6863902 C1.96244913,12.847414 1.5,11.7107355 1.5,10.5260494 C1.5,9.34138877 1.96243096,8.20477342 2.78628984,7.36592799 L8.12326428,1.92563978 C8.705011,1.3332859 9.49532524,1 10.3199981,1 C11.1446557,1 11.9349184,1.33329195 12.5167101,1.92561745 Z" id="路径" fill="currentColor"></path>
    </g>
</svg>