<?xml version="1.0" encoding="UTF-8"?>
<svg width="16px" height="16px" viewBox="0 0 16 16" version="1.1" xmlns="http://www.w3.org/2000/svg" xmlns:xlink="http://www.w3.org/1999/xlink">
    <g id="icon/模型/在线" stroke="none" fill="none" fill-rule="nonzero">
        <path d="M7.5,2.5 C8.35426724,2.5 9.18617377,2.73116379 9.90508871,3.16970911 C10.6010262,3.59412307 11.1649104,4.19595581 11.5319055,4.90764438 C12.7394069,4.97804095 13.8638408,5.47882188 14.6979739,6.32283895 C15.5332944,7.1661721 15.996875,8.27929538 15.996875,9.4484375 C15.996875,10.0632757 15.877947,10.6604351 15.6432886,11.2192322 C15.4170898,11.761709 15.0917952,12.249651 14.6784366,12.6670026 C13.8304123,13.5250508 12.6980445,14 11.4984375,14 L3.97162427,13.9983129 C2.90599512,13.9363345 1.91027057,13.5148834 1.1683623,12.8055831 C0.422867325,12.0959901 0.003125,11.1551102 0.003125,10.1671875 C0.003125,9.32748676 0.301849452,8.52641294 0.854809909,7.86499099 C1.12467667,7.54073248 1.44840407,7.25884384 1.81149355,7.03038961 C2.10729632,6.84288622 2.42575167,6.69160901 2.76331511,6.57766183 L3.02008817,6.49916784 C3.1023032,5.41311074 3.60631919,4.40573707 4.43200611,3.66505128 C5.26675478,2.91257351 6.35716507,2.5 7.5,2.5 Z M7.5,3.5 C6.603125,3.5 5.7515625,3.821875 5.1015625,4.4078125 C4.4640625,4.9796875 4.0796875,5.7484375 4.0171875,6.575 C3.984375,6.996875 3.690625,7.353125 3.2828125,7.4640625 C2.946875,7.55625 2.6328125,7.69375 2.346875,7.875 C2.06875,8.05 1.825,8.2625 1.6234375,8.5046875 C1.2171875,8.990625 1.003125,9.565625 1.003125,10.1671875 C1.003125,10.875 1.30625,11.55625 1.8578125,12.08125 C2.4265625,12.625 3.196875,12.9515625 4.0296875,13 L11.4984375,13 C12.4296875,13 13.30625,12.6328125 13.9671875,11.9640625 C14.290625,11.6375 14.54375,11.2578125 14.7203125,10.834375 C14.9046875,10.3953125 14.996875,9.9296875 14.996875,9.4484375 C14.996875,8.5453125 14.6390625,7.684375 13.9875,7.0265625 C13.328125,6.359375 12.4375,5.9625 11.475,5.9078125 C11.121875,5.8875 10.80625,5.68125 10.64375,5.3671875 C10.3609375,4.81875 9.925,4.353125 9.384375,4.0234375 C8.8234375,3.68125 8.171875,3.5 7.5,3.5 Z" id="-path" fill="currentColor"></path>
    </g>
</svg>