<?xml version="1.0" encoding="UTF-8"?>
<svg width="16px" height="16px" viewBox="0 0 16 16" version="1.1" xmlns="http://www.w3.org/2000/svg" xmlns:xlink="http://www.w3.org/1999/xlink">
    <g id="icon/输入框/截图问答" stroke="none">
        <path d="M2,10.5 L2,12.5 C2,13.3284271 2.67157288,14 3.5,14 L6,14 L6,15 L3.5,15 C2.11928813,15 1,13.8807119 1,12.5 L1,10.5 L2,10.5 Z M15,10.5 L15,12.5 C15,13.8807119 13.8807119,15 12.5,15 L9.5,15 L9.5,14 L12.5,14 C13.3284271,14 14,13.3284271 14,12.5 L14,10.5 L15,10.5 Z M10.106486,7.55990117 L12.6672567,10.8437678 L12.6666667,11.3333302 C12.6666667,11.7015232 12.3681898,12 12,12 L3.99900423,12 C3.6308144,12 3.33233756,11.7015232 3.33233756,11.3333302 L3.3311819,11.2092296 L5.36243489,8.92875447 C5.55893776,8.69409677 5.9554346,8.66610623 6.19449066,8.87001581 L7.19449224,9.71638812 C7.34357135,9.82439904 7.55198399,9.7911067 7.65999491,9.64202759 L9.18213243,7.5411391 C9.40491986,7.25608991 9.89984616,7.26613568 10.106486,7.55990117 Z M5.5,4 C6.32842712,4 7,4.67157288 7,5.5 C7,6.32842712 6.32842712,7 5.5,7 C4.67157288,7 4,6.32842712 4,5.5 C4,4.67157288 4.67157288,4 5.5,4 Z M6,1 L6,2 L3.5,2 C2.67157288,2 2,2.67157288 2,3.5 L2,6 L1,6 L1,3.5 C1,2.11928813 2.11928813,1 3.5,1 L6,1 Z M9.5,2 L12.5,2 C13.3284271,2 14,2.67157288 14,3.5 L14,6 L15,6 L15,3.5 C15,2.11928813 13.8807119,1 12.5,1 L9.5,1 L9.5,2 Z" id="形状结合" fill="currentColor"></path>
    </g>
</svg>