<?xml version="1.0" encoding="UTF-8"?>
<svg width="25px" height="24px" viewBox="0 0 25 24" version="1.1" xmlns="http://www.w3.org/2000/svg" xmlns:xlink="http://www.w3.org/1999/xlink">
    <defs>
        <path d="M12,5.125 C12.3796958,5.125 12.6875,5.43280423 12.6875,5.8125 L12.6875,14.0625 C12.6875,14.4421958 12.3796958,14.75 12,14.75 C11.6203042,14.75 11.3125,14.4421958 11.3125,14.0625 L11.3125,5.8125 C11.3125,5.43280423 11.6203042,5.125 12,5.125 Z M12,18.875 C12.7593915,18.875 13.375,18.2593915 13.375,17.5 C13.375,16.7406085 12.7593915,16.125 12,16.125 C11.2406085,16.125 10.625,16.7406085 10.625,17.5 C10.625,18.2593915 11.2406085,18.875 12,18.875 Z" id="path-1"></path>
    </defs>
    <g id="报错" transform="translate(0.4624, 0)" xlink:href="#path-1"  fill="currentColor">
        <path d="M12,5.125 C12.3796958,5.125 12.6875,5.43280423 12.6875,5.8125 L12.6875,14.0625 C12.6875,14.4421958 12.3796958,14.75 12,14.75 C11.6203042,14.75 11.3125,14.4421958 11.3125,14.0625 L11.3125,5.8125 C11.3125,5.43280423 11.6203042,5.125 12,5.125 Z M12,18.875 C12.7593915,18.875 13.375,18.2593915 13.375,17.5 C13.375,16.7406085 12.7593915,16.125 12,16.125 C11.2406085,16.125 10.625,16.7406085 10.625,17.5 C10.625,18.2593915 11.2406085,18.875 12,18.875 Z" id="形状"></path>
    </g>
</svg>