<?xml version="1.0" encoding="UTF-8"?>
<svg width="16px" height="16px" viewBox="0 0 16 16" version="1.1" xmlns="http://www.w3.org/2000/svg" xmlns:xlink="http://www.w3.org/1999/xlink">
    <defs>
        <path d="M0,0 L16,0 L16,16 L0,16 L0,0 Z" id="path-1"></path>
    </defs>
    <g id="icon/编辑器/有序列表" stroke="none" xlink:href="#path-1" fill-rule="nonzero">
        <path d="M5,2 L15,2 L15,3 L5,3 L5,2 Z M2.89208984,4 L2.17919922,4 L2.17919922,1.55859375 L1.34667969,1.55859375 L1.34667969,1.08496094 C1.56640625,1.07519531 1.72021484,1.06054687 1.80810547,1.04101563 C1.94807943,1.01009115 2.06201172,0.948242188 2.14990234,0.85546875 C2.2101237,0.791992188 2.25569661,0.707356771 2.28662109,0.6015625 C2.30452474,0.538085938 2.31347656,0.490885417 2.31347656,0.459960938 L2.89208984,0.459960938 L2.89208984,4 Z M2.73828125,6.73730469 C2.65527344,6.63802083 2.53645833,6.58837891 2.38183594,6.58837891 C2.1702474,6.58837891 2.02620443,6.66731771 1.94970703,6.82519531 C1.90576172,6.91634115 1.87972005,7.06119792 1.87158203,7.25976563 L1.1953125,7.25976563 C1.20670573,6.95865885 1.26123047,6.71533203 1.35888672,6.52978516 C1.54443359,6.17659505 1.87402344,6 2.34765625,6 C2.72200521,6 3.01985677,6.10375977 3.24121094,6.3112793 C3.4625651,6.51879883 3.57324219,6.79345703 3.57324219,7.13525391 C3.57324219,7.39729818 3.49511719,7.63004557 3.33886719,7.83349609 C3.23632813,7.96858724 3.06787109,8.11914062 2.83349609,8.28515625 L2.55517578,8.48291016 C2.38102214,8.60660807 2.26180013,8.6961263 2.19750977,8.75146484 C2.1332194,8.80680339 2.07910156,8.87109375 2.03515625,8.94433594 L3.58056641,8.94433594 L3.58056641,9.55712891 L1.15625,9.55712891 C1.16276042,9.30322266 1.21728516,9.07128906 1.31982422,8.86132812 C1.41910807,8.62532552 1.65348307,8.37548828 2.02294922,8.11181641 C2.34358724,7.88232422 2.55110677,7.7179362 2.64550781,7.61865234 C2.79036458,7.46402995 2.86279297,7.29475911 2.86279297,7.11083984 C2.86279297,6.96110026 2.82128906,6.83658854 2.73828125,6.73730469 Z M1.95703125,12.1655273 C1.87890625,12.269694 1.84147135,12.4088542 1.84472656,12.5830078 L1.1953125,12.5830078 C1.20182292,12.4072266 1.23193359,12.2403971 1.28564453,12.0825195 C1.34261068,11.9441732 1.43212891,11.8164062 1.55419922,11.6992188 C1.64534505,11.6162109 1.75358073,11.5527344 1.87890625,11.5087891 C2.00423177,11.4648438 2.15804036,11.4428711 2.34033203,11.4428711 C2.6788737,11.4428711 2.9519043,11.5303548 3.15942383,11.7053223 C3.36694336,11.8802897 3.47070312,12.1150716 3.47070312,12.409668 C3.47070312,12.6180013 3.40885417,12.7937826 3.28515625,12.9370117 C3.20703125,13.0265299 3.12565104,13.0875651 3.04101563,13.1201172 C3.10449219,13.1201172 3.19563802,13.1746419 3.31445313,13.2836914 C3.49186198,13.4480794 3.58056641,13.6726888 3.58056641,13.9575195 C3.58056641,14.2569987 3.47680664,14.5202637 3.26928711,14.7473145 C3.06176758,14.9743652 2.75455729,15.0878906 2.34765625,15.0878906 C1.84635417,15.0878906 1.49804688,14.9243164 1.30273438,14.597168 C1.20019531,14.4230143 1.14322917,14.1951497 1.13183594,13.9135742 L1.81542969,13.9135742 C1.81542969,14.0551758 1.83821615,14.1723633 1.88378906,14.2651367 C1.96842448,14.4360352 2.12223307,14.5214844 2.34521484,14.5214844 C2.48193359,14.5214844 2.6011556,14.4746908 2.70288086,14.3811035 C2.80460612,14.2875163 2.85546875,14.152832 2.85546875,13.9770508 C2.85546875,13.7443034 2.76106771,13.5888672 2.57226562,13.5107422 C2.46484375,13.4667969 2.29557292,13.4448242 2.06445312,13.4448242 L2.06445312,12.9467773 C2.2906901,12.9435221 2.44856771,12.9215495 2.53808594,12.8808594 C2.69270833,12.8125 2.77001953,12.6741536 2.77001953,12.4658203 C2.77001953,12.3307292 2.73055013,12.2208659 2.65161133,12.1362305 C2.57267253,12.0515951 2.46158854,12.0092773 2.31835937,12.0092773 C2.15397135,12.0092773 2.03352865,12.0613607 1.95703125,12.1655273 Z M5,7.5 L15,7.5 L15,8.5 L5,8.5 L5,7.5 Z M5,13 L15,13 L15,14 L5,14 L5,13 Z" id="形状结合" fill="currentColor"></path>
    </g>
</svg>