<?xml version="1.0" encoding="UTF-8"?>
<svg width="16px" height="16px" viewBox="0 0 16 16" version="1.1" xmlns="http://www.w3.org/2000/svg" xmlns:xlink="http://www.w3.org/1999/xlink">
    <defs>
        <path d="M0,0 L16,0 L16,16 L0,16 L0,0 Z" id="path-1"></path>
    </defs>
    <g id="icon/编辑器/H2" stroke="none" xlink:href="#path-1" fill-rule="nonzero">
        <path d="M1,1 L1,7 L8,7 L8,1 L9,1 L9,14 L8,14 L8,8 L1,8 L1,14 L0,14 L0,1 L1,1 Z M9.5,14 C9.5390625,13.2773438 9.68847656,12.6484375 9.94824219,12.1132812 C10.2080078,11.578125 10.7148437,11.0917969 11.46875,10.6542969 L12.59375,10.0039063 C13.0976562,9.7109375 13.4511719,9.4609375 13.6542969,9.25390625 C13.9746094,8.9296875 14.1347656,8.55859375 14.1347656,8.140625 C14.1347656,7.65234375 13.9882812,7.26464844 13.6953125,6.97753906 C13.4023438,6.69042969 13.0117187,6.546875 12.5234375,6.546875 C11.8007813,6.546875 11.3007812,6.8203125 11.0234375,7.3671875 C10.875,7.66015625 10.7929688,8.06640625 10.7773437,8.5859375 L9.70507812,8.5859375 C9.71679688,7.85546875 9.8515625,7.25976563 10.109375,6.79882813 C10.5664062,5.98632812 11.3730469,5.58007812 12.5292969,5.58007812 C13.4902344,5.58007812 14.1923828,5.83984375 14.6357422,6.359375 C15.0791016,6.87890625 15.3007812,7.45703125 15.3007812,8.09375 C15.3007812,8.765625 15.0644531,9.33984375 14.5917969,9.81640625 C14.3183594,10.09375 13.828125,10.4296875 13.1210937,10.8242188 L12.3183594,11.2695312 C11.9355469,11.4804688 11.6347656,11.6816406 11.4160156,11.8730469 C11.0253906,12.2128906 10.7792969,12.5898438 10.6777344,13.0039062 L15.2597656,13.0039062 L15.2597656,14 L9.5,14 Z" id="形状结合" fill="currentColor"></path>
    </g>
</svg>