<?xml version="1.0" encoding="UTF-8"?>
<svg width="16px" height="16px" viewBox="0 0 16 16" version="1.1" xmlns="http://www.w3.org/2000/svg" xmlns:xlink="http://www.w3.org/1999/xlink">
    <defs>
        <path d="M0,0 L16,0 L16,16 L0,16 L0,0 Z" id="path-1"></path>
    </defs>
    <g id="icon/编辑器/斜体" stroke="none" xlink:href="#path-1" fill-rule="nonzero">
        <path d="M8.6171106,1 C9.15600577,1 9.6673702,1.06948311 10.1516177,1.20830656 C10.6352892,1.3469649 11.0835946,1.55060244 11.49703,1.81937765 C11.9012292,2.08214844 12.2249693,2.43985231 12.4693398,2.89468 C12.691537,3.30823805 12.8223172,3.77337783 12.8603162,4.29197194 L11.648424,4.29197194 C11.5539966,3.64559835 11.2568327,3.11421063 10.76224,2.70302196 C10.2328338,2.26289042 9.50434593,2.04506085 8.58252678,2.04506085 C7.71552646,2.04506085 7.00318651,2.24415959 6.44989844,2.64521385 C5.88424672,3.05522997 5.59906165,3.63808191 5.59906165,4.37833727 C5.59906165,5.43870539 6.26005466,6.14406704 7.54018728,6.47505086 L9.505,7 L15,7 L15,8 L11.8505382,8.00013923 C11.9739811,8.09004974 12.08824,8.18397082 12.1933159,8.28187972 C12.7306933,8.78260415 13,9.47605646 13,10.3729588 C13,11.537171 12.5756481,12.4238149 11.7232823,13.0483708 C10.8584872,13.6820342 9.75262635,14 8.4009617,14 C7.62910932,14 6.94714975,13.8900435 6.35455021,13.6710031 C5.76562845,13.4533222 5.31260011,13.1692267 4.99346273,12.8202044 C4.66794331,12.4642025 4.42263847,12.0889124 4.25678676,11.6940892 C4.11217613,11.3498319 4.02662735,10.9956264 4,10.6308441 L5.21451876,10.6308441 C5.31266594,11.2922149 5.64521989,11.8406288 6.20424837,12.2706531 C6.79904572,12.7281921 7.59913444,12.9549392 8.59981869,12.9549392 C9.54258876,12.9549392 10.307718,12.7368191 10.8904611,12.2972772 C11.4830727,11.8502918 11.7821408,11.2384549 11.7821408,10.4758708 C11.7821408,9.90379716 11.594795,9.43063373 11.2210053,9.06609995 C10.8558234,8.70996075 10.2945967,8.43684159 9.53829046,8.24191124 L8.627,8 L2,8 L2,7 L5.76515518,7.00037296 C5.55220426,6.8608843 5.35618676,6.70455711 5.17696305,6.53138914 C4.65238629,6.02453714 4.38984842,5.34449353 4.38984842,4.48124922 C4.38984842,3.75346485 4.59130123,3.12273184 4.99453336,2.58399762 C5.40123689,2.04062548 5.91728552,1.64234998 6.54511349,1.3872154 C7.18011998,1.12916363 7.87041168,1 8.6171106,1 Z" id="形状结合" fill="currentColor"></path>
    </g>
</svg>