<?xml version="1.0" encoding="UTF-8"?>
<svg width="16px" height="16px" viewBox="0 0 16 16" version="1.1" xmlns="http://www.w3.org/2000/svg" xmlns:xlink="http://www.w3.org/1999/xlink">
    <defs>
        <path d="M0,0 L16,0 L16,16 L0,16 L0,0 Z" id="path-1"></path>
    </defs>
    <g id="icon/编辑器/退出全屏" stroke="none" xlink:href="#path-1" fill-rule="nonzero">
        <g id="图标/单色图标/动作/Copy" fill="currentColor">
            <path d="M7,8 C7.55228475,8 8,8.44771525 8,9 L8,13.5 C8,13.7761424 7.77614237,14 7.5,14 C7.22385763,14 7,13.7761424 7,13.5 L7,9.706 L2.70744661,14.0004466 L2.00044661,13.2934466 L6.292,9 L2.5,9 C2.22385763,9 2,8.77614237 2,8.5 C2,8.22385763 2.22385763,8 2.5,8 L7,8 Z M13.2934466,2.00044661 L14.0004466,2.70744661 L9.706,7 L13.5,7 C13.7761424,7 14,7.22385763 14,7.5 C14,7.77614237 13.7761424,8 13.5,8 L9,8 C8.44771525,8 8,7.55228475 8,7 L8,2.5 C8,2.22385763 8.22385763,2 8.5,2 C8.77614237,2 9,2.22385763 9,2.5 L9,6.292 L13.2934466,2.00044661 Z" id="形状结合"></path>
        </g>
    </g>
</svg>