<?xml version="1.0" encoding="UTF-8"?>
<svg width="6px" height="4px" viewBox="0 0 6 4" version="1.1" xmlns="http://www.w3.org/2000/svg" xmlns:xlink="http://www.w3.org/1999/xlink">
    <defs>
        <path d="M0,0 L6,0 L6,4 L0,4 L0,0 Z" id="path-1"></path>
    </defs>
    <g id="icon/编辑器/三角形" stroke="none" xlink:href="#path-1" fill-rule="nonzero">
        <path d="M3.3796283,0.442899685 L5.29251798,2.67460431 C5.47222906,2.88426723 5.44794829,3.19991723 5.23828537,3.3796283 C5.14766381,3.45730392 5.03224532,3.5 4.91288968,3.5 L1.08711032,3.5 C0.810967943,3.5 0.587110318,3.27614237 0.587110318,3 C0.587110318,2.88064436 0.629806399,2.76522587 0.707482017,2.67460431 L2.6203717,0.442899685 C2.80008277,0.233236763 3.11573277,0.208955995 3.32539569,0.38866707 C3.34483509,0.405329416 3.36296595,0.423460281 3.3796283,0.442899685 Z" id="三角形" fill="currentColor" transform="translate(3, 1.75) scale(1, -1) translate(-3, -1.75)"></path>
    </g>
</svg>