<?xml version="1.0" encoding="UTF-8"?>
<svg width="16px" height="16px" viewBox="0 0 16 16" version="1.1" xmlns="http://www.w3.org/2000/svg" xmlns:xlink="http://www.w3.org/1999/xlink">
    <defs>
        <path d="M0,0 L16,0 L16,16 L0,16 L0,0 Z" id="path-1"></path>
    </defs>
    <g id="icon/编辑器/链接" stroke="none" xlink:href="#path-1" fill-rule="nonzero">
        <path d="M8.77318675,5.39716009 L9.68812394,6.31201766 C11.6168706,8.24059698 11.6168706,11.3673431 9.68812435,13.2959079 L9.43043159,13.5535765 C7.5016855,15.4821411 4.3746095,15.4821411 2.44588522,13.5535771 C0.556316239,11.6642343 0.517955453,8.62472915 2.33575999,6.69155625 L3.13473562,7.49047931 C1.75842268,8.98228015 1.79654703,11.3065339 3.2448581,12.7546939 C4.73232289,14.2420035 7.14394692,14.2420035 8.63147027,12.7546963 L8.88916601,12.4970248 C10.3766163,11.0096383 10.3766163,8.59822612 8.88916601,7.11091583 L7.97422718,6.19605015 L8.77318675,5.39716009 Z M6.56959577,2.44640712 C8.49831276,0.517864542 11.6254244,0.517864542 13.5540976,2.44640563 C15.4436899,4.33579944 15.4820502,7.37527343 13.6642219,9.30847278 L12.865261,8.50958702 C14.2415603,7.01772148 14.203438,4.69348075 12.7551413,3.24530546 C11.2676904,1.7579793 8.85604814,1.7579793 7.36859726,3.24530546 L7.11084039,3.50300164 C5.62336677,4.99033531 5.62336677,7.40177209 7.11083279,8.88908292 L8.02576979,9.80393384 L7.22681063,10.6028178 L6.31185845,9.68796468 C4.38313519,7.75947227 4.38313519,4.63266198 6.31185927,2.70411937 Z" id="形状结合" fill="currentColor"></path>
    </g>
</svg>