<?xml version="1.0" encoding="UTF-8"?>
<svg width="16px" height="16px" viewBox="0 0 16 16" version="1.1" xmlns="http://www.w3.org/2000/svg" xmlns:xlink="http://www.w3.org/1999/xlink">
    <defs>
        <path d="M0,0 L16,0 L16,16 L0,16 L0,0 Z" id="path-1"></path>
    </defs>
    <g id="icon/编辑器/向右缩进" stroke="none" xlink:href="#path-1" fill-rule="nonzero">
        <path d="M2,2 L15,2 L15,3 L2,3 L2,2 Z M2,7.5 L9,7.5 L9,8.5 L2,8.5 L2,7.5 Z M2,13 L15,13 L15,14 L2,14 L2,13 Z M14.4842602,7.77222302 L11.7452374,5.42448921 C11.6194397,5.31666257 11.4300497,5.33123103 11.322223,5.45702878 C11.2756176,5.51140171 11.25,5.58065281 11.25,5.65226619 L11.25,10.3477338 C11.25,10.5134192 11.3843146,10.6477338 11.55,10.6477338 C11.6216134,10.6477338 11.6908645,10.6221162 11.7452374,10.5755108 L14.4842602,8.22777698 C14.6100579,8.11995034 14.6246264,7.93056034 14.5167998,7.80476259 C14.5068024,7.79309895 14.4959238,7.78222043 14.4842602,7.77222302 Z" id="形状结合" fill="currentColor"></path>
    </g>
</svg>