<?xml version="1.0" encoding="UTF-8"?>
<svg width="16px" height="16px" viewBox="0 0 16 16" version="1.1" xmlns="http://www.w3.org/2000/svg" xmlns:xlink="http://www.w3.org/1999/xlink">
    <defs>
        <path d="M0,0 L16,0 L16,16 L0,16 L0,0 Z" id="path-1"></path>
    </defs>
    <g id="icon/编辑器/全屏" stroke="none" xlink:href="#path-1" fill-rule="nonzero">
        <g id="图标/单色图标/视图图标/退出全屏" fill="currentColor">
            <path d="M7.29344661,8.00044661 L8.00044661,8.70744661 L3.706,13 L7.5,13 C7.77614237,13 8,13.2238576 8,13.5 C8,13.7761424 7.77614237,14 7.5,14 L3,14 C2.44771525,14 2,13.5522847 2,13 L2,8.5 C2,8.22385763 2.22385763,8 2.5,8 C2.77614237,8 3,8.22385763 3,8.5 L3,12.292 L7.29344661,8.00044661 Z M13,2 C13.5522847,2 14,2.44771525 14,3 L14,7.5 C14,7.77614237 13.7761424,8 13.5,8 C13.2238576,8 13,7.77614237 13,7.5 L13,3.706 L8.70744661,8.00044661 L8.00044661,7.29344661 L12.292,3 L8.5,3 C8.22385763,3 8,2.77614237 8,2.5 C8,2.22385763 8.22385763,2 8.5,2 L13,2 Z" id="形状结合"></path>
        </g>
    </g>
</svg>