<?xml version="1.0" encoding="UTF-8"?>
<svg width="16px" height="16px" viewBox="0 0 16 16" version="1.1" xmlns="http://www.w3.org/2000/svg" xmlns:xlink="http://www.w3.org/1999/xlink">
    <defs>
        <path d="M0,0 L16,0 L16,16 L0,16 L0,0 Z" id="path-1"></path>
    </defs>
    <g id="icon/编辑器/目录/收起" stroke="none" xlink:href="#path-1" fill-rule="nonzero">
        <path d="M2,2 L15,2 L15,3 L2,3 L2,2 Z M8,6 L15,6 L15,7 L8,7 L8,6 Z M8,9 L15,9 L15,10 L8,10 L8,9 Z M2,13 L15,13 L15,14 L2,14 L2,13 Z M2.51573981,7.77222302 L5.25476259,5.42448921 C5.38056034,5.31666257 5.56995034,5.33123103 5.67777698,5.45702878 C5.72438235,5.51140171 5.75,5.58065281 5.75,5.65226619 L5.75,10.3477338 C5.75,10.5134192 5.61568542,10.6477338 5.45,10.6477338 C5.37838662,10.6477338 5.30913552,10.6221162 5.25476259,10.5755108 L2.51573981,8.22777698 C2.38994206,8.11995034 2.3753736,7.93056034 2.48320024,7.80476259 C2.49319765,7.79309895 2.50407617,7.78222043 2.51573981,7.77222302 Z" id="形状结合" fill="currentColor"></path>
    </g>
</svg>