<?xml version="1.0" encoding="UTF-8"?>
<svg width="16px" height="16px" viewBox="0 0 16 16" version="1.1" xmlns="http://www.w3.org/2000/svg" xmlns:xlink="http://www.w3.org/1999/xlink">
    <defs>
        <path d="M0,0 L16,0 L16,16 L0,16 L0,0 Z" id="path-1"></path>
    </defs>
    <g id="icon/编辑器/加粗" stroke="none" xlink:href="#path-1" fill-rule="evenodd" stroke-width="1">
        <g id="编组" fill="currentColor">
            <path d="M8.44326241,1.5 C10.4702751,1.5 12.1134752,3.07696071 12.1134752,5.02225131 C12.1134752,5.94029256 11.7463591,6.80216889 11.0992142,7.45320946 L10.8197279,7.73437828 L11.1698913,7.92949337 C12.2938346,8.55576759 13,9.70759604 13,10.9777487 C13,12.9230502 11.3568063,14.5 9.32978723,14.5 L3,14.5 L3,1.5 Z M9.32978723,8.54450262 L4.13475176,8.54450262 L4.13475176,13.4109948 L9.32978723,13.4109948 C10.7300731,13.4109948 11.8652482,12.3215833 11.8652482,10.9777487 C11.8652482,9.63391409 10.7300731,8.54450262 9.32978723,8.54450262 Z M8.44326241,2.58900524 L4.13475176,2.58900524 L4.13475176,7.45549738 L8.44326241,7.45549738 C9.84355119,7.45549738 10.9787234,6.36609166 10.9787234,5.02225131 C10.9787234,3.67841095 9.84355119,2.58900524 8.44326241,2.58900524 Z" id="形状结合" fill-rule="nonzero"></path>
        </g>
    </g>
</svg>