<?xml version="1.0" encoding="UTF-8"?>
<svg width="16px" height="16px" viewBox="0 0 16 16" version="1.1" xmlns="http://www.w3.org/2000/svg" xmlns:xlink="http://www.w3.org/1999/xlink">
    <defs>
        <path d="M0,0 L16,0 L16,16 L0,16 L0,0 Z" id="path-1"></path>
    </defs>
    <g id="icon/编辑器/分享" stroke="none" xlink:href="#path-1">
        <rect id="矩形备份" opacity="0" x="0" y="0" width="16" height="16"></rect>
        <g id="图标/单色图标/动作/Share" fill="currentColor" fill-rule="nonzero">
            <path d="M8.879,4.99923305 L7.879,5.99923305 L3,6 C2.48716416,6 2.06449284,6.38604019 2.00672773,6.88337887 L2,7 L2,13 C2,13.5522847 2.44771525,14 3,14 L9,14 C9.55228475,14 10,13.5522847 10,13 L10,8.12023305 L11,7.12023305 L11,13 C11,14.0543618 10.1841222,14.9181651 9.14926234,14.9945143 L9,15 L3,15 C1.8954305,15 1,14.1045695 1,13 L1,7 C1,5.8954305 1.8954305,5 3,5 L8.879,4.99923305 Z M15,1 L15,7 L14,7 L14,2.706 L5.85355339,10.8535534 L5.14644661,10.1464466 L13.292,2 L9,2 L9,1 L15,1 Z" id="形状结合"></path>
        </g>
    </g>
</svg>