<?xml version="1.0" encoding="UTF-8"?>
<svg width="16px" height="16px" viewBox="0 0 16 16" version="1.1" xmlns="http://www.w3.org/2000/svg" xmlns:xlink="http://www.w3.org/1999/xlink">
    <defs>
        <path d="M0,0 L16,0 L16,16 L0,16 L0,0 Z" id="path-1"></path>
    </defs>
    <g id="icon/编辑器/H5" stroke="none" xlink:href="#path-1" fill-rule="nonzero">
        <path d="M1,1 L1,7 L8,7 L8,1 L9,1 L9,14 L8,14 L8,8 L1,8 L1,14 L0,14 L0,1 L1,1 Z M11.0957031,11.6113281 C11.1660156,12.2128906 11.4453125,12.6289062 11.9335938,12.859375 C12.1835938,12.9765625 12.4726562,13.0351563 12.8007812,13.0351563 C13.4257812,13.0351563 13.8886719,12.8359375 14.1894531,12.4375 C14.4902344,12.0390625 14.640625,11.5976563 14.640625,11.1132813 C14.640625,10.5273438 14.4619141,10.0742188 14.1044922,9.75390625 C13.7470703,9.43359375 13.3183594,9.2734375 12.8183594,9.2734375 C12.4550781,9.2734375 12.1435547,9.34375 11.8837891,9.484375 C11.6240234,9.625 11.4023437,9.8203125 11.21875,10.0703125 L10.3046875,10.0175781 L10.9433594,5.5 L15.3027344,5.5 L15.3027344,6.51953125 L11.734375,6.51953125 L11.3769531,8.8515625 C11.5722656,8.703125 11.7578125,8.59179688 11.9335938,8.51757812 C12.2460938,8.38867188 12.6074219,8.32421875 13.0175781,8.32421875 C13.7871094,8.32421875 14.4394531,8.57226562 14.9746094,9.06835938 C15.5097656,9.56445312 15.7773438,10.1933594 15.7773438,10.9550781 C15.7773438,11.7480469 15.5322266,12.4472656 15.0419922,13.0527344 C14.5517578,13.6582031 13.7695312,13.9609375 12.6953125,13.9609375 C12.0117188,13.9609375 11.4072266,13.7685547 10.8818359,13.3837891 C10.3564453,12.9990234 10.0625,12.4082031 10,11.6113281 L11.0957031,11.6113281 Z" id="形状结合" fill="currentColor"></path>
    </g>
</svg>