<?xml version="1.0" encoding="UTF-8"?>
<svg width="16px" height="16px" viewBox="0 0 16 16" version="1.1" xmlns="http://www.w3.org/2000/svg" xmlns:xlink="http://www.w3.org/1999/xlink">
    <defs>
        <path d="M0,0 L16,0 L16,16 L0,16 L0,0 Z" id="path-1"></path>
    </defs>
    <g id="icon/编辑器/H6" stroke="none" xlink:href="#path-1" fill-rule="nonzero">
        <path d="M1,1 L1,7 L8,7 L8,1 L9,1 L9,14 L8,14 L8,8 L1,8 L1,14 L0,14 L0,1 L1,1 Z M13.0585937,5.57421875 C13.9960938,5.57421875 14.6494141,5.81738281 15.0185547,6.30371094 C15.3876953,6.79003906 15.5722656,7.29101562 15.5722656,7.80664063 L14.5292969,7.80664063 C14.4667969,7.47460938 14.3671875,7.21484375 14.2304688,7.02734375 C13.9765625,6.67578125 13.5917969,6.5 13.0761719,6.5 C12.4863281,6.5 12.0175781,6.77246094 11.6699219,7.31738281 C11.3222656,7.86230469 11.1289063,8.64257813 11.0898438,9.65820312 C11.3320312,9.30273438 11.6367188,9.03710938 12.0039063,8.86132812 C12.3398438,8.70507813 12.7148438,8.62695313 13.1289063,8.62695313 C13.8320312,8.62695313 14.4453125,8.8515625 14.96875,9.30078125 C15.4921875,9.75 15.7539062,10.4199219 15.7539062,11.3105469 C15.7539062,12.0722656 15.5058594,12.7470703 15.0097656,13.3349609 C14.5136719,13.9228516 13.8066406,14.2167969 12.8886719,14.2167969 C12.1035156,14.2167969 11.4257812,13.9189453 10.8554688,13.3232422 C10.2851562,12.7275391 10,11.7246094 10,10.3144531 C10,9.27148438 10.1269531,8.38671875 10.3808594,7.66015625 C10.8691406,6.26953125 11.7617188,5.57421875 13.0585937,5.57421875 Z M12.9824219,13.2792969 C13.5371094,13.2792969 13.9521484,13.0927734 14.2275391,12.7197266 C14.5029297,12.3466797 14.640625,11.90625 14.640625,11.3984375 C14.640625,10.96875 14.5175781,10.5595703 14.2714844,10.1708984 C14.0253906,9.78222656 13.578125,9.58789062 12.9296875,9.58789062 C12.4765625,9.58789062 12.0791016,9.73828125 11.7373047,10.0390625 C11.3955078,10.3398438 11.2246094,10.7929687 11.2246094,11.3984375 C11.2246094,11.9296875 11.3798828,12.3759766 11.6904297,12.7373047 C12.0009766,13.0986328 12.4316406,13.2792969 12.9824219,13.2792969 Z" id="形状结合" fill="currentColor"></path>
    </g>
</svg>