<?xml version="1.0" encoding="UTF-8"?>
<svg width="16px" height="16px" viewBox="0 0 16 16" version="1.1" xmlns="http://www.w3.org/2000/svg" xmlns:xlink="http://www.w3.org/1999/xlink">
    <defs>
        <path d="M0,0 L16,0 L16,16 L0,16 L0,0 Z" id="path-1"></path>
    </defs>
    <g id="icon/编辑器/引用" stroke="none" xlink:href="#path-1" fill-rule="nonzero">
        <path d="M3.88799969,10.3104245 C3.31022029,9.67068514 3,8.95274048 3,7.78890268 C3,5.74197072 4.37764705,3.90692427 6.38204383,3 L6.88267755,3.8058072 C5.01222576,4.86137421 4.64665306,6.23047024 4.50053838,7.09382883 C4.8016903,6.93139341 5.19591503,6.87424562 5.5823893,6.91162273 C6.59430661,7.00948174 7.39185248,7.87588197 7.39185248,8.95274048 C7.39185248,10.0834127 6.51303333,11 5.42897842,11 C4.82719054,11 4.25171609,10.7130912 3.88799969,10.3104245 Z M9.49614159,10.3104245 C8.91839024,9.67068514 8.60814752,8.95274048 8.60814752,7.78890268 C8.60814752,5.74197072 9.98578895,3.90692427 11.990197,3 L12.4908363,3.8058072 C10.6203508,4.86137421 10.2548118,6.23047024 10.1086635,7.09382883 C10.409821,6.93139341 10.8040738,6.87424562 11.1905312,6.91162273 C12.2024653,7.00948174 13,7.87588197 13,8.95274048 C13,10.0834127 12.1212033,11 11.0371484,11 C10.4353381,11 9.85988604,10.7130912 9.49614159,10.3104245 Z" id="形状" fill="currentColor"></path>
    </g>
</svg>