<?xml version="1.0" encoding="UTF-8"?>
<svg width="16px" height="16px" viewBox="0 0 16 16" version="1.1" xmlns="http://www.w3.org/2000/svg" xmlns:xlink="http://www.w3.org/1999/xlink">
    <defs>
        <path d="M0,0 L16,0 L16,16 L0,16 L0,0 Z" id="path-1"></path>
    </defs>
    <g id="icon/编辑器/导出" stroke="none" xlink:href="#path-1" fill-rule="nonzero">
        <path d="M7.51937515,2 C7.82315887,2 8.11047178,2.13808972 8.30024396,2.37530495 L9.6,4 L15,4 C15.5522847,4 16,4.44771525 16,5 L16,14 C16,14.5522847 15.5522847,15 15,15 L2,15 C1.44771525,15 1,14.5522847 1,14 L1,3 C1,2.44771525 1.44771525,2 2,2 L7.51937515,2 Z M7.51937516,3.00000001 L2,3.00000001 L2,14 L15,14 L15,5.00000001 L9.11937515,5.00000001 L8.81913119,4.62469505 L7.51937516,3.00000001 Z M9.5,7 L12.5,9.5 L9.5,12 L9.5,10 L5,10 L5,9 L9.5,9 L9.5,7 Z" id="形状结合" fill="currentColor"></path>
    </g>
</svg>