<?xml version="1.0" encoding="UTF-8"?>
<svg width="16px" height="16px" viewBox="0 0 16 16" version="1.1" xmlns="http://www.w3.org/2000/svg" xmlns:xlink="http://www.w3.org/1999/xlink">
    <defs>
        <path d="M0,0 L16,0 L16,16 L0,16 L0,0 Z" id="path-1"></path>
    </defs>
    <g id="icon/编辑器/H3" stroke="none" xlink:href="#path-1" fill-rule="nonzero">
        <path d="M1,1 L1,7 L8,7 L8,1 L9,1 L9,14 L8,14 L8,8 L1,8 L1,14 L0,14 L0,1 L1,1 Z M12.3300781,14.2285156 C11.3378906,14.2285156 10.6181641,13.9560547 10.1708984,13.4111328 C9.72363281,12.8662109 9.5,12.203125 9.5,11.421875 L10.6015625,11.421875 C10.6484375,11.9648438 10.75,12.359375 10.90625,12.6054688 C11.1796875,13.046875 11.6738281,13.2675781 12.3886719,13.2675781 C12.9433594,13.2675781 13.3886719,13.1191406 13.7246094,12.8222656 C14.0605469,12.5253906 14.2285156,12.1425781 14.2285156,11.6738281 C14.2285156,11.0957031 14.0517578,10.6914063 13.6982422,10.4609375 C13.3447266,10.2304687 12.8535156,10.1152344 12.2246094,10.1152344 C12.1542969,10.1152344 12.0830078,10.1162109 12.0107422,10.1181641 C11.9384766,10.1201172 11.8652344,10.1230469 11.7910156,10.1269531 L11.7910156,9.1953125 C11.9003906,9.20703125 11.9921875,9.21484375 12.0664063,9.21875 C12.140625,9.22265625 12.2207031,9.22460937 12.3066406,9.22460937 C12.7011719,9.22460937 13.0253906,9.16210938 13.2792969,9.03710937 C13.7246094,8.81835937 13.9472656,8.42773438 13.9472656,7.86523438 C13.9472656,7.44726562 13.7988281,7.125 13.5019531,6.8984375 C13.2050781,6.671875 12.859375,6.55859375 12.4648438,6.55859375 C11.7617188,6.55859375 11.2753906,6.79296875 11.0058594,7.26171875 C10.8574219,7.51953125 10.7734375,7.88671875 10.7539063,8.36328125 L9.7109375,8.36328125 C9.7109375,7.73828125 9.8359375,7.20703125 10.0859375,6.76953125 C10.515625,5.98828125 11.2714844,5.59765625 12.3535156,5.59765625 C13.2089844,5.59765625 13.8710937,5.78808594 14.3398438,6.16894531 C14.8085938,6.54980469 15.0429688,7.1015625 15.0429688,7.82421875 C15.0429688,8.33984375 14.9042969,8.7578125 14.6269531,9.078125 C14.4550781,9.27734375 14.2324219,9.43359375 13.9589844,9.546875 C14.4003906,9.66796875 14.7451172,9.90136719 14.9931641,10.2470703 C15.2412109,10.5927734 15.3652344,11.015625 15.3652344,11.515625 C15.3652344,12.3164062 15.1015625,12.96875 14.5742188,13.4726563 C14.046875,13.9765625 13.2988281,14.2285156 12.3300781,14.2285156 Z" id="形状结合" fill="currentColor"></path>
    </g>
</svg>