<?xml version="1.0" encoding="UTF-8"?>
<svg width="16px" height="16px" viewBox="0 0 16 16" version="1.1" xmlns="http://www.w3.org/2000/svg" xmlns:xlink="http://www.w3.org/1999/xlink">
    <defs>
        <path d="M0,0 L16,0 L16,16 L0,16 L0,0 Z" id="path-1"></path>
    </defs>
    <g id="icon/编辑器/更多" stroke="none" xlink:href="#path-1" fill-rule="nonzero">
        <path d="M2,9.5 C2.82842712,9.5 3.5,8.82842712 3.5,8 C3.5,7.17157288 2.82842712,6.5 2,6.5 C1.17157288,6.5 0.5,7.17157288 0.5,8 C0.5,8.82842712 1.17157288,9.5 2,9.5 Z M8,9.5 C8.82842712,9.5 9.5,8.82842712 9.5,8 C9.5,7.17157288 8.82842712,6.5 8,6.5 C7.17157288,6.5 6.5,7.17157288 6.5,8 C6.5,8.82842712 7.17157288,9.5 8,9.5 Z M14,9.5 C14.8284271,9.5 15.5,8.82842712 15.5,8 C15.5,7.17157288 14.8284271,6.5 14,6.5 C13.1715729,6.5 12.5,7.17157288 12.5,8 C12.5,8.82842712 13.1715729,9.5 14,9.5 Z" id="形状结合" fill="currentColor"></path>
    </g>
</svg>