<?xml version="1.0" encoding="UTF-8"?>
<svg width="16px" height="16px" viewBox="0 0 16 16" version="1.1" xmlns="http://www.w3.org/2000/svg" xmlns:xlink="http://www.w3.org/1999/xlink">
    <defs>
        <path d="M0,0 L16,0 L16,16 L0,16 L0,0 Z" id="path-1"></path>
    </defs>
    <g id="icon/编辑器/打印" stroke="none" xlink:href="#path-1">
        <rect id="矩形备份" opacity="0" x="0" y="0" width="16" height="16"></rect>
        <g id="图标/单色图标/动作/Share" fill-rule="nonzero">
            <path d="M11.5,1 C11.7761424,1 12,1.22385763 12,1.5 L12,4 L13,4 C13.5522847,4 14,4.44771525 14,5 L14,11 C14,11.5522847 13.5522847,12 13,12 L12,12 L12,14.5 C12,14.7761424 11.7761424,15 11.5,15 L4.5,15 C4.22385763,15 4,14.7761424 4,14.5 L4,12 L3,12 C2.44771525,12 2,11.5522847 2,11 L2,5 C2,4.44771525 2.44771525,4 3,4 L4,4 L4,1.5 C4,1.22385763 4.22385763,1 4.5,1 L11.5,1 Z M11,11 L5,11 L5,14 L11,14 L11,11 Z M9,12 L9,13 L6,13 L6,12 L9,12 Z M12.5,5 C12.2238576,5 12,5.22385763 12,5.5 C12,5.77614237 12.2238576,6 12.5,6 C12.7761424,6 13,5.77614237 13,5.5 C13,5.22385763 12.7761424,5 12.5,5 Z M11,2 L5,2 L5,4 L11,4 L11,2 Z" id="形状结合" fill="currentColor" ></path>
        </g>
    </g>
</svg>