<?xml version="1.0" encoding="utf-8" ?>
<svg xmlns="http://www.w3.org/2000/svg" xmlns:xlink="http://www.w3.org/1999/xlink" width="16" height="16">
	<path fill-opacity="1" fill="currentColor" transform="translate(0.00312471 2.5)" d="M7.4968748 1C8.1687498 1 8.8203125 1.18125 9.3812504 1.5234375C9.921875 1.853125 10.357813 2.3187499 10.640625 2.8671875C10.803125 3.1812501 11.11875 3.3875 11.471875 3.4078126C12.434375 3.4625001 13.325 3.859375 13.984375 4.5265627C14.635938 5.1843748 14.99375 6.0453124 14.99375 6.9484377C14.99375 7.4296875 14.901563 7.8953123 14.717188 8.3343754C14.540625 8.7578125 14.2875 9.1374998 13.964063 9.4640627C13.303125 10.132812 12.426562 10.5 11.495313 10.5L4.0265627 10.5C3.1937499 10.451563 2.4234376 10.125 1.8546875 9.5812502C1.303125 9.0562496 1 8.375 1 7.6671877C1 7.0656252 1.2140625 6.4906249 1.6203125 6.0046873C1.821875 5.7624998 2.065625 5.5500002 2.34375 5.375C2.6296875 5.1937499 2.9437499 5.0562501 3.2796874 4.9640627C3.6875 4.8531251 3.98125 4.4968748 4.0140624 4.0749998C4.0765624 3.2484374 4.4609375 2.4796875 5.0984373 1.9078125C5.7484374 1.321875 6.5999999 1 7.4968748 1M7.4968748 0C5.3218751 0 3.5093751 1.4828125 3.0921874 3.45C3.0234375 3.7750001 2.8031249 4.0484376 2.4953125 4.1734376C1.025 4.7750001 0 6.1125002 0 7.6671877C0 9.7078123 1.76875 11.384375 3.9984374 11.5L11.496875 11.5C13.979688 11.5 15.995313 9.4609375 15.995313 6.9484377C15.995313 5.2602487 15.036779 3.7903399 13.614005 3.0060771C13.122086 2.7349205 12.57467 2.5457268 11.992188 2.4578125C11.709375 2.4156251 11.459375 2.2546875 11.301562 2.0171876C10.504687 0.80624998 9.1015625 0 7.4968748 0Z"/>
</svg>
