<?xml version="1.0" encoding="UTF-8"?>
<svg width="16px" height="16px" viewBox="0 0 16 16" version="1.1" xmlns="http://www.w3.org/2000/svg" xmlns:xlink="http://www.w3.org/1999/xlink">
    <g id="icon/首页/知识库" stroke="none" fill="none" fill-rule="nonzero">
        <path d="M6,2 C6.59757013,2 7.13392965,2.26207377 7.50041196,2.67755469 C7.86607035,2.26207377 8.40242987,2 9,2 L12,2 C13.1045695,2 14,2.8954305 14,4 L14,12 C14,13.1045695 13.1045695,14 12,14 L8,14 L8,15 L7,15 L7,14 L3,14 C1.8954305,14 1,13.1045695 1,12 L1,4 C1,2.8954305 1.8954305,2 3,2 L6,2 Z M6,3.00000001 L3,3.00000001 C2.44771525,3.00000001 2,3.44771526 2,4.00000001 L2,12 C2,12.5522848 2.44771525,13 3,13 L7,13 L7,3.999 L6.99327227,3.88337888 C6.93550716,3.3860402 6.51283584,3.00000001 6,3.00000001 Z M12,3.00000001 L9,3.00000001 C8.44771525,3.00000001 8,3.44771526 8,4.00000001 L8,13 L12,13 C12.5522848,13 13,12.5522848 13,12 L13,4.00000001 C13,3.44771526 12.5522848,3.00000001 12,3.00000001 Z M12,7 L12,8 L9,8 L9,7 L12,7 Z M12,5 L12,6 L9,6 L9,5 L12,5 Z" id="形状结合" fill="currentColor"></path>
    </g>
</svg>