<?xml version="1.0" encoding="utf-8" ?>
<svg xmlns="http://www.w3.org/2000/svg" xmlns:xlink="http://www.w3.org/1999/xlink" width="16" height="16">
	<path fill-opacity="1" fill="currentColor" transform="translate(1.5 1.5)" d="M6.5 0C8.2605724 0 9.8999529 0.70589715 11.097136 1.9039334L12.5 0.5L12.5 4.5L8.5 4.5L10.390012 2.6110201C9.3768778 1.5970304 7.990037 1 6.5 1C3.4624338 1 1 3.4624338 1 6.5C1 9.5375662 3.4624338 12 6.5 12C9.5375662 12 12 9.5375662 12 6.5L13 6.5C13 10.08985 10.08985 13 6.5 13C2.9101491 13 0 10.08985 0 6.5C0 2.9101491 2.9101491 0 6.5 0Z"/>
</svg>
