<?xml version="1.0" encoding="utf-8" ?>
<svg xmlns="http://www.w3.org/2000/svg" xmlns:xlink="http://www.w3.org/1999/xlink" width="16" height="16">
	<path fill-opacity="1" fill="currentColor" transform="translate(1 1)" d="M6 0C9.3137083 0 12 2.6862915 12 6C12 7.3864584 11.529739 8.6630821 10.740022 9.6790676L14.03033 12.96967C14.323223 13.262563 14.323223 13.737437 14.03033 14.03033C13.764064 14.296597 13.3474 14.320803 13.053788 14.102948L12.96967 14.03033L9.6790676 10.740022C8.6630821 11.529739 7.3864584 12 6 12C2.6862915 12 0 9.3137083 0 6C0 2.6862915 2.6862915 0 6 0ZM6 1.3C4.7021308 1.3 3.5271308 1.8260654 2.6765981 2.6765981C1.8260654 3.5271308 1.3 4.7021308 1.3 6C1.3 7.2978692 1.8260654 8.4728689 2.6765981 9.3234015C3.5271308 10.173935 4.7021308 10.7 6 10.7C7.2978692 10.7 8.4728689 10.173935 9.3234015 9.3234015C10.173935 8.4728689 10.7 7.2978692 10.7 6C10.7 4.7021308 10.173935 3.5271308 9.3234015 2.6765981C8.4728689 1.8260654 7.2978692 1.3 6 1.3Z"/>
</svg>
