<?xml version="1.0" encoding="UTF-8"?>
<svg width="16px" height="16px" viewBox="0 0 16 16" version="1.1" xmlns="http://www.w3.org/2000/svg" xmlns:xlink="http://www.w3.org/1999/xlink">
    <defs>
        <path text="3" d="M16,8 C16,12.418278 12.418278,16 8,16 C3.76682352,16 0.301577139,12.7121004 0.0186575081,8.55069786 L1.03455795e-08,8.55050822 L1.03455795e-08,7.4502228 L0.018589347,7.45030563 C0.301020076,3.28842818 3.76648326,0 8,0 C12.418278,0 16,3.581722 16,8 Z M5.60710412,8.55136291 C5.70570364,12.3469113 6.8157144,14.9 8,14.9 C9.1842856,14.9 10.2942964,12.3469113 10.3928959,8.55136291 Z M11.4932236,8.5509743 C11.4315168,11.0427231 10.9500925,13.2212673 10.1193014,14.5682675 C12.7256746,13.728237 14.6549795,11.3794268 14.8783457,8.5506835 Z M5.87996846,14.5681914 C5.15366514,13.3896328 4.69428674,11.5743651 4.5494519,9.46968609 L4.50677641,8.55097428 L1.12165434,8.5506835 C1.34499189,11.3790649 3.27383171,13.727636 5.87996846,14.5681914 Z M5.73363055,1.48083479 C3.20156784,2.36099254 1.34034302,4.67469347 1.1215753,7.45031839 L4.5067517,7.45002418 C4.56066747,5.26884503 4.93618009,3.32759174 5.5861065,1.97390599 L5.88130967,1.43074201 Z M11.4932483,7.45002418 L14.8784247,7.45031839 C14.6554351,4.62112778 12.7259824,2.27186218 10.1190311,1.43148604 C10.8461004,2.60954959 11.3057572,4.42541343 11.4505902,6.53093745 Z M5.60707826,7.4496335 L10.3929217,7.4496335 C10.2944906,3.65353555 9.18438923,1.1 8,1.1 C6.81561077,1.1 5.70550938,3.65353555 5.60707826,7.4496335 Z" id="path-search-online"></path>
    </defs>
    <g id="icon/输入框/联网搜索" stroke="none" xlink:href="#path-1">
        <path text="4" d="M8,0 C12.418278,0 16,3.581722 16,8 C16,12.418278 12.418278,16 8,16 C3.76682352,16 0.301577139,12.7121004 0.0186575081,8.55069786 L-0.05,8.55 L-0.05,7.45 L0.018589347,7.45030563 C0.301020076,3.28842818 3.76648326,0 8,0 Z M10.3928959,8.55136291 L5.60710412,8.55136291 C5.70570364,12.3469113 6.8157144,14.9 8,14.9 C9.1842856,14.9 10.2942964,12.3469113 10.3928959,8.55136291 Z M4.50677641,8.5509743 L1.12165434,8.5506835 C1.34499189,11.3790649 3.27383171,13.727636 5.87996846,14.5681914 C5.04990752,13.2212673 4.56848322,11.0427231 4.50677641,8.5509743 Z M14.8783457,8.5506835 L11.4932236,8.5509743 C11.4315168,11.0427231 10.9500925,13.2212673 10.1193014,14.5682675 C12.7256746,13.728237 14.6549795,11.3794268 14.8783457,8.5506835 Z M5.88130965,1.430742 L5.73363055,1.48083479 C3.20156784,2.36099254 1.34034302,4.67469347 1.1215753,7.45031839 L4.5067517,7.45002418 C4.56836972,4.957248 5.05003261,2.77784439 5.88130965,1.430742 Z M8,1.1 C6.81561077,1.1 5.70550938,3.65353555 5.60707826,7.4496335 L10.3929217,7.4496335 C10.2944906,3.65353555 9.18438923,1.1 8,1.1 Z M11.4932483,7.45002418 L14.8784247,7.45031839 C14.6554351,4.62112778 12.7259824,2.27186218 10.1190311,1.43148604 C10.9499674,2.77784439 11.4316303,4.957248 11.4932483,7.45002418 Z" id="形状结合" fill="currentColor" ></path>
    </g>
</svg>