<?xml version="1.0" encoding="utf-8" ?>
<svg xmlns="http://www.w3.org/2000/svg" xmlns:xlink="http://www.w3.org/1999/xlink" width="22" height="22">
	<defs>
		<linearGradient id="gradient_0" gradientUnits="userSpaceOnUse" x1="17.584787" y1="6.3527851" x2="8.125" y2="3.685065">
			<stop offset="0" stop-color="#6448FF"/>
			<stop offset="1" stop-color="#FF37DF"/>
		</linearGradient>
	</defs>
	<path fill="url(#gradient_0)" transform="translate(2 1.875)" d="M7.6407218 -2.3439408e-16L8.6092777 2.3439408e-16C10.492057 -2.1964378e-16 11.751661 0.30951539 12.83842 0.89072055C13.925179 1.4719257 14.778074 2.3248208 15.35928 3.4115798C15.940485 4.4983392 16.25 5.7579432 16.25 7.6407218L16.25 8.6092777C16.25 10.492057 15.940485 11.751661 15.35928 12.83842C14.778074 13.925179 13.925179 14.778074 12.83842 15.35928C11.751661 15.940485 10.492057 16.25 8.6092777 16.25L7.6407218 16.25C5.7579432 16.25 4.4983392 15.940485 3.4115798 15.35928C2.3248208 14.778074 1.4719257 13.925179 0.89072055 12.83842C0.30951539 11.751661 0 10.492057 0 8.6092777L2.3439408e-16 7.6407218C-2.1964378e-16 5.7579432 0.30951539 4.4983392 0.89072055 3.4115798C1.4719257 2.3248208 2.3248208 1.4719257 3.4115798 0.89072055C4.4983392 0.30951539 5.7579432 2.1964378e-16 7.6407218 -2.3439408e-16Z"/>
	<defs>
		<linearGradient id="gradient_1" gradientUnits="userSpaceOnUse" x1="1.2290169" y1="9.665143" x2="9.2099676" y2="4.272501">
			<stop offset="0" stop-color="#FF02AA"/>
			<stop offset="1" stop-color="#FF8BF4" stop-opacity="0"/>
		</linearGradient>
	</defs>
	<path fill="url(#gradient_1)" transform="translate(2 1.875)" d="M7.6407218 -2.3439408e-16L8.6092777 2.3439408e-16C10.492057 -2.1964378e-16 11.751661 0.30951539 12.83842 0.89072055C13.925179 1.4719257 14.778074 2.3248208 15.35928 3.4115798C15.940485 4.4983392 16.25 5.7579432 16.25 7.6407218L16.25 8.6092777C16.25 10.492057 15.940485 11.751661 15.35928 12.83842C14.778074 13.925179 13.925179 14.778074 12.83842 15.35928C11.751661 15.940485 10.492057 16.25 8.6092777 16.25L7.6407218 16.25C5.7579432 16.25 4.4983392 15.940485 3.4115798 15.35928C2.3248208 14.778074 1.4719257 13.925179 0.89072055 12.83842C0.30951539 11.751661 0 10.492057 0 8.6092777L2.3439408e-16 7.6407218C-2.1964378e-16 5.7579432 0.30951539 4.4983392 0.89072055 3.4115798C1.4719257 2.3248208 2.3248208 1.4719257 3.4115798 0.89072055C4.4983392 0.30951539 5.7579432 2.1964378e-16 7.6407218 -2.3439408e-16Z"/>
	<defs>
		<linearGradient id="gradient_2" gradientUnits="userSpaceOnUse" x1="8.125" y1="5.6139956" x2="3.708667" y2="15.033869">
			<stop offset="0" stop-color="#FBAB60" stop-opacity="0"/>
			<stop offset="1" stop-color="#FCA506"/>
		</linearGradient>
	</defs>
	<path fill="url(#gradient_2)" transform="translate(2 1.875)" d="M7.6407218 -2.3439408e-16L8.6092777 2.3439408e-16C10.492057 -2.1964378e-16 11.751661 0.30951539 12.83842 0.89072055C13.925179 1.4719257 14.778074 2.3248208 15.35928 3.4115798C15.940485 4.4983392 16.25 5.7579432 16.25 7.6407218L16.25 8.6092777C16.25 10.492057 15.940485 11.751661 15.35928 12.83842C14.778074 13.925179 13.925179 14.778074 12.83842 15.35928C11.751661 15.940485 10.492057 16.25 8.6092777 16.25L7.6407218 16.25C5.7579432 16.25 4.4983392 15.940485 3.4115798 15.35928C2.3248208 14.778074 1.4719257 13.925179 0.89072055 12.83842C0.30951539 11.751661 0 10.492057 0 8.6092777L2.3439408e-16 7.6407218C-2.1964378e-16 5.7579432 0.30951539 4.4983392 0.89072055 3.4115798C1.4719257 2.3248208 2.3248208 1.4719257 3.4115798 0.89072055C4.4983392 0.30951539 5.7579432 2.1964378e-16 7.6407218 -2.3439408e-16Z"/>
	<defs>
		<linearGradient id="gradient_3" gradientUnits="userSpaceOnUse" x1="6.6247311" y1="0" x2="6.6247311" y2="16.25">
			<stop offset="0" stop-color="white" stop-opacity="0.40392157"/>
			<stop offset="1" stop-color="black" stop-opacity="0.23921569"/>
		</linearGradient>
	</defs>
	<path fill="url(#gradient_3)" transform="translate(2 1.875)" d="M13.044142 0C14.158889 0 14.563123 0.11606827 14.970657 0.33402023C15.378192 0.55197221 15.698028 0.87180781 15.915979 1.2793425C16.133932 1.6868773 16.25 2.0911114 16.25 3.205858L16.25 13.044142C16.25 14.158889 16.133932 14.563123 15.915979 14.970657C15.698028 15.378192 15.378192 15.698028 14.970657 15.915979C14.563123 16.133932 14.158889 16.25 13.044142 16.25L3.205858 16.25C2.0911114 16.25 1.6868773 16.133932 1.2793425 15.915979C0.87180781 15.698028 0.55197221 15.378192 0.33402023 14.970657C0.11606827 14.563123 0 14.158889 0 13.044142L0 3.205858C0 2.0911114 0.11606827 1.6868773 0.33402023 1.2793425C0.55197221 0.87180781 0.87180781 0.55197221 1.2793425 0.33402023C1.6868773 0.11606827 2.0911114 0 3.205858 0L13.044142 0ZM3.205858 0.15625C2.2131081 0.15625 1.790449 0.2378692 1.3530298 0.47180355C0.97272462 0.67519301 0.67519301 0.97272462 0.47180355 1.3530298C0.2378692 1.790449 0.15625 2.2131081 0.15625 3.205858L0.15625 13.044142C0.15625 14.036892 0.2378692 14.459551 0.47180355 14.89697C0.67519301 15.277275 0.97272462 15.574807 1.3530298 15.778196C1.790449 16.012131 2.2131081 16.09375 3.205858 16.09375L13.044142 16.09375C14.036892 16.09375 14.459551 16.012131 14.89697 15.778196C15.277275 15.574807 15.574807 15.277275 15.778196 14.89697C16.012131 14.459551 16.09375 14.036892 16.09375 13.044142L16.09375 3.205858C16.09375 2.2131081 16.012131 1.790449 15.778196 1.3530298C15.574807 0.97272462 15.277275 0.67519301 14.89697 0.47180355C14.459551 0.2378692 14.036892 0.15625 13.044142 0.15625L3.205858 0.15625Z"/>
	<path fill="white" transform="translate(3.91882 4.37615)" d="M4.3959866 11.4057C4.2998266 11.4057 4.2040467 11.399094 4.1090746 11.386263C3.2960269 11.285027 2.5711715 10.802565 2.1671655 10.075585L1.2316414 8.3921795L0.32133415 6.894856C-0.13123079 6.0996346 -0.099801943 5.1116157 0.37801871 4.3014698L2.1644661 1.2725451C2.6295667 0.48396644 3.4768803 1.7763568e-15 4.3923993 0L8.028327 2.1138646e-13C8.9397802 2.1138646e-13 9.7839575 0.47971168 10.250448 1.26274L11.194589 2.8475313C11.19754 2.8525491 11.198985 2.8550808 11.200404 2.8576326L12.056384 4.3971615C12.514863 5.202774 12.5072 6.1921325 12.036299 6.9905472L10.249851 10.019472C9.7643194 10.842691 8.9090261 11.4057 8.0219183 11.4057L4.3959866 11.4057ZM7.8176146 3.8457L7.8549747 3.7829826C7.3694167 4.5967374 6.959743 5.2833171 6.6259532 5.8427215L6.4877954 6.0742631C6.4570174 6.125844 6.4269776 6.1761885 6.3976755 6.2252965L6.2336874 6.5001268C6.0414696 6.8222685 5.8883405 7.0788999 5.7743011 7.270021C5.6664186 7.4508228 5.5665216 7.6182423 5.4746099 7.7722788C5.4620209 7.7933764 5.4431381 7.8250227 5.4179606 7.867218C5.3929586 7.9091196 5.3660765 7.9495101 5.3374581 7.988307L5.4179606 7.867218C5.3841047 7.9239583 5.3468013 7.9779267 5.3064075 8.0289211C5.2878504 8.0523491 5.2686272 8.0751648 5.2487855 8.097332C5.2348661 8.1128807 5.2206926 8.1280603 5.2062283 8.1429157C5.1951361 8.1542959 5.1844535 8.1649265 5.1736221 8.1753826C5.1587429 8.1897449 5.1436934 8.2036791 5.1283784 8.2172842C5.1142535 8.2298393 5.0995588 8.2423954 5.0846367 8.254653C5.0587902 8.2758722 5.0325665 8.2959757 5.0057263 8.3151722L4.9853868 8.329464C4.9121146 8.3800182 4.8347435 8.4237776 4.7539549 8.4603891C4.7402143 8.4665461 4.7345467 8.4690323 4.7288628 8.4714823L4.7539549 8.4603891C4.7248445 8.4735832 4.6952081 8.4858799 4.6651697 8.4972181L4.642231 8.5056629L4.6104703 8.516655C4.6024432 8.5193329 4.5943894 8.5219421 4.5863113 8.5244846L4.6189771 8.5137892C4.5925927 8.5227594 4.5662818 8.530899 4.539722 8.538312C4.5149989 8.5452223 4.4895301 8.5516205 4.46386 8.5573492L4.403635 8.5694876C4.3743701 8.5747719 4.3442988 8.579258 4.3140235 8.5828247L4.2828898 8.5861607L4.2518721 8.5888281C4.2310295 8.5904045 4.2098804 8.5915527 4.1886582 8.5922489L4.1396346 8.5930538L2.2490001 8.5930004L2.8375008 9.6166573C3.1476905 10.147189 3.660794 10.52496 4.1835933 10.60751C4.1990819 10.609975 4.2151036 10.611948 4.2311721 10.613708L4.1835933 10.60751C4.2225337 10.613658 4.2615275 10.618169 4.3004961 10.620983L4.2311721 10.613708C4.2961164 10.620822 4.3618274 10.62445 4.4280648 10.62445L5.4129415 10.62445C5.8010144 10.62445 6.158865 10.414972 6.3488541 10.076587L8.5139809 6.2203279C8.6921558 5.9029846 8.6973848 5.5169725 8.5278702 5.1949196L7.8176146 3.8457ZM10.629177 3.4380817L8.4860001 3.438L9.219202 4.8310342C9.5120993 5.3874993 9.5030651 6.0544777 9.1952028 6.6028051L7.0300756 10.459064C6.9976382 10.516838 6.9623685 10.572436 6.9244967 10.625727L8.0219183 10.62445C8.6117897 10.62445 9.2235289 10.221765 9.5769243 9.6225824L11.363372 6.593658C11.692042 6.036397 11.69739 5.3458652 11.375486 4.7801952L10.629177 3.4380817ZM5.5929999 0.78100002L4.3923993 0.78125C3.7534044 0.78125 3.162014 1.1190388 2.8373928 1.6694345L1.0509454 4.6983595C0.71187437 5.2732549 0.6899327 5.9630289 0.99462724 6.4987478L1.7927281 7.8118038L4.0379391 7.8119416C3.8506539 7.5277295 3.6053727 7.1555057 3.3020952 6.6952705C2.9123516 6.1038198 2.8935323 5.3420234 3.2535961 4.7320495L5.5086451 0.91183376L5.5929999 0.78100002ZM8.0702295 0.78199339L7.1057405 0.78125C6.7259727 0.78125 6.374475 0.98193133 6.1814251 1.3089716L3.9263761 5.1291871C3.7179902 5.4822083 3.7288816 5.9230962 3.9544449 6.2653971L4.7464781 7.4677415L7.1840801 3.3826678L7.21 3.342L7.2506967 3.2807207C7.2539077 3.2762196 7.2571416 3.2717392 7.2603984 3.2672796L7.1840801 3.3826678C7.2177677 3.3262095 7.254869 3.2724955 7.2950311 3.2217255C7.312397 3.1997728 7.3303328 3.1783729 7.3488126 3.1575394C7.3616395 3.1430793 7.3747191 3.1289017 7.3880506 3.1150022C7.3935285 3.1092854 7.3995361 3.1031239 7.4055934 3.0970185L7.4568119 3.0478022C7.4662147 3.0391893 7.4757218 3.0307031 7.4853306 3.0223455L7.4055934 3.0970185C7.4645429 3.0375741 7.5284572 2.9832451 7.5963144 2.9347134C7.6070509 2.9270306 7.6181874 2.9192896 7.6294246 2.9117038C7.6587138 2.8919446 7.6882939 2.8734667 7.7184834 2.8560491L7.727397 2.8509474C7.7309632 2.848922 7.7345386 2.8469117 7.7381215 2.8449161L7.7184834 2.8560491C7.7399311 2.8436666 7.7620664 2.8316247 7.7844982 2.8201489C7.8052583 2.8095324 7.8260655 2.7994945 7.847105 2.7899418C7.8765059 2.7765894 7.9064832 2.764138 7.9368711 2.7526674L7.9598098 2.7442229L7.9915705 2.7332304C7.9995975 2.7305532 8.0076513 2.7279432 8.0157299 2.7254012L7.9830637 2.7360961C8.0094481 2.7271264 8.035759 2.7189865 8.0623188 2.7115738C8.0870419 2.7046638 8.1125107 2.6982648 8.1381807 2.6925364L8.1984053 2.6803977C8.2276707 2.6751142 8.2577419 2.6706276 8.2880173 2.6670606L8.3191509 2.6637254L8.3501682 2.6610575C8.3710108 2.6594818 8.3921604 2.6583335 8.4133825 2.6576364L8.4624062 2.6568317L10.165541 2.6569602L9.5768166 1.6753596C9.2618046 1.1365813 8.6916504 0.79980397 8.0702295 0.78199339Z"/>
</svg>
