<?xml version="1.0" encoding="UTF-8"?>
<svg width="16px" height="16px" viewBox="0 0 16 16" version="1.1" xmlns="http://www.w3.org/2000/svg" xmlns:xlink="http://www.w3.org/1999/xlink">
    <g id="icon/首页/mcp" stroke="none" fill="none" fill-rule="nonzero">
        <path d="M10.232233,11.232233 L10.9393398,11.9393398 L9.87867966,13 L10.9393398,14.0606602 L10.232233,14.767767 L8.46446609,13 L10.232233,11.232233 Z M12.767767,11.232233 L14.5355339,13 L12.767767,14.767767 L12.0606602,14.0606602 L13.1213203,13 L12.0606602,11.9393398 L12.767767,11.232233 Z M12,2 C13.1045695,2 14,2.8954305 14,4 L14,10 L13,10 L13,7 L2,7 L2,12 C2,12.5522847 2.44771525,13 3,13 L7,13 L7,14 L3,14 C1.8954305,14 1,13.1045695 1,12 L1,4 C1,2.8954305 1.8954305,2 3,2 L12,2 Z M12,3 L3,3 C2.44771525,3 2,3.44771525 2,4 L2,6 L13,6 L13,4 C13,3.44771525 12.5522847,3 12,3 Z M4,4 L4,5 L3,5 L3,4 L4,4 Z M6,4 L6,5 L5,5 L5,4 L6,4 Z" id="形状" fill="currentColor"></path>
    </g>
</svg>