<?xml version="1.0" encoding="UTF-8"?>
<svg width="24px" height="24px" viewBox="0 0 24 24" version="1.1" xmlns="http://www.w3.org/2000/svg" xmlns:xlink="http://www.w3.org/1999/xlink">
    <title>MCP</title>
    <defs>
        <path d="M12,1 C18.0751322,1 23,5.92486775 23,12 C23,18.0751322 18.0751322,23 12,23 C5.92486775,23 1,18.0751322 1,12 C1,5.92486775 5.92486775,1 12,1 Z" id="path-1"></path>
        <linearGradient x1="64.1867976%" y1="100%" x2="64.1867976%" y2="5.70879881%" id="linearGradient-2">
            <stop stop-color="#141414" offset="0%"></stop>
            <stop stop-color="#3C3C3C" offset="100%"></stop>
        </linearGradient>
        <linearGradient x1="64.1867976%" y1="100%" x2="64.1867976%" y2="4.59262649%" id="linearGradient-3">
            <stop stop-color="#F45057" offset="0%"></stop>
            <stop stop-color="#FF7884" offset="100%"></stop>
        </linearGradient>
    </defs>
    <g id="MCP" stroke="none" fill="none" xlink:href="#path-1">
        <circle id="椭圆形-2" fill="url(#linearGradient-2)" fill-rule="evenodd" cx="12" cy="12" r="11"></circle>
        <path d="M18.0009112,13 L19,13 L19,17 C19,18.1045695 18.1045695,19 17,19 L7,19 C5.8954305,19 5,18.1045695 5,17 L5,14.8029911 L5,8 C5,6.8954305 5.8954305,6 7,6 L11,6 L11,7 L7,7 C6.44771525,7 6,7.44771525 6,8 L6,17 C6,17.5522847 6.44771525,18 7,18 L17.0009112,18 C17.5531959,18 18.0009112,17.5522847 18.0009112,17 L18.0009112,13 Z M18,15 L18,16.0369419 L6.00000003,16.0369419 L6.00000003,15 L18,15 Z M16.9701915,5.76509943 C17.0858391,5.76509943 17.1904073,5.8355072 17.2362036,5.94421063 L17.9664979,7.69075947 C17.9957484,7.76069569 18.0501834,7.81641717 18.1185048,7.84635904 L19.824177,8.59391352 C19.9307997,8.6404081 20,8.74757943 20,8.86621278 C20,8.98484611 19.9307997,9.09201745 19.824177,9.13851202 L18.1185048,9.8860665 C18.0501834,9.91600837 17.9957484,9.97172985 17.9664979,10.0416661 L17.2362036,11.7876512 C17.1907825,11.8967938 17.0860857,11.9676296 16.9701915,11.9676296 C16.8542972,11.9676296 16.7496004,11.8967938 16.7041793,11.7876512 L15.973885,10.0416661 C15.9445868,9.97176292 15.8901673,9.91605719 15.8218781,9.8860665 L14.1156551,9.13851202 C14.0094615,9.09163329 13.9406794,8.98459373 13.9406794,8.86621278 C13.9406794,8.74783182 14.0094615,8.64079226 14.1156551,8.59391352 L15.8218781,7.84635904 C15.8901673,7.81636835 15.9445868,7.76066262 15.973885,7.69075947 L16.7041793,5.94421063 C16.7499757,5.8355072 16.8545438,5.76509943 16.9701915,5.76509943 Z M14.0016523,5 C14.0781305,5 14.1472444,5.04667156 14.1773415,5.11864034 L14.4730941,5.82447609 C14.4923704,5.87070496 14.5281691,5.90734978 14.5733306,5.92708161 L15.2617679,6.23151556 C15.332075,6.26232399 15.3776689,6.33307132 15.3776689,6.4113571 C15.3776689,6.48964288 15.332075,6.56039021 15.2617679,6.59119863 L14.5716783,6.89394128 C14.5266517,6.91372481 14.4907686,6.95045602 14.4714419,6.9965468 L14.1756892,7.70125502 C14.1455921,7.7732238 14.0764783,7.81989537 14,7.81989537 C13.9235218,7.81989537 13.8544079,7.7732238 13.8243108,7.70125502 L13.5285582,6.9948555 C13.5092314,6.94876472 13.4733483,6.91203351 13.4283217,6.89224998 L12.7382322,6.58950733 C12.6679251,6.5586989 12.6223311,6.48795158 12.6223311,6.4096658 C12.6223311,6.33138001 12.6679251,6.2606327 12.7382322,6.22982426 L13.4283217,5.92708161 C13.4733483,5.90729808 13.5092314,5.87056688 13.5285582,5.82447609 L13.8259631,5.11807658 C13.8560602,5.04667156 13.925174,5 14.0016523,5 Z" id="形状" fill="url(#linearGradient-3)" fill-rule="nonzero"></path>
    </g>
</svg>