<?xml version="1.0" encoding="UTF-8"?>
<svg width="24px" height="24px" viewBox="0 0 24 24" version="1.1" xmlns="http://www.w3.org/2000/svg" xmlns:xlink="http://www.w3.org/1999/xlink">
    <title>AI LOGO</title>
    <defs>
        <path d="M14.8281671,2 C16.7288734,2 18.4838532,2.98608238 19.4268676,4.58390288 L22.3021421,9.45569775 C23.2326193,11.0322755 23.2326193,12.9677245 22.3021421,14.5443022 L19.4268676,19.4160971 C18.4838532,21.0139176 16.7288734,22 14.8281671,22 L9.17183287,22 C7.27112664,22 5.51614679,21.0139176 4.57313241,19.4160971 L1.69785788,14.5443022 C0.767380705,12.9677245 0.767380705,11.0322755 1.69785788,9.45569775 L4.57313241,4.58390288 C5.51614679,2.98608238 7.27112664,2 9.17183287,2 L14.8281671,2 Z" id="path-1"></path>
        <linearGradient x1="108.214078%" y1="40.9868282%" x2="50%" y2="27.4192755%" id="linearGradient-2">
            <stop stop-color="#6448FF" offset="0%"></stop>
            <stop stop-color="#FF37DF" offset="100%"></stop>
        </linearGradient>
        <linearGradient x1="7.56318058%" y1="57.8328942%" x2="56.6767213%" y2="30.4068707%" id="linearGradient-3">
            <stop stop-color="#FF02AA" offset="0%"></stop>
            <stop stop-color="#FF8BF4" stop-opacity="0" offset="100%"></stop>
        </linearGradient>
        <linearGradient x1="40.5487738%" y1="64.8366205%" x2="27.9179699%" y2="91.322314%" id="linearGradient-4">
            <stop stop-color="#FB6060" stop-opacity="0" offset="0%"></stop>
            <stop stop-color="#FCA506" offset="100%"></stop>
        </linearGradient>
        <path d="M15.9268676,0.0839028802 L18.8021421,4.95569775 C19.7326193,6.53227554 19.7326193,8.46772446 18.8021421,10.0443022 L15.9268676,14.9160971 C14.9838532,16.5139176 13.2288734,17.5 11.3281671,17.5 L5.67183287,17.5 C3.77112664,17.5 2.01614679,16.5139176 1.07313241,14.9160971 L-1.80214212,10.0443022 C-2.73261929,8.46772446 -2.73261929,6.53227554 -1.80214212,4.95569775 L1.07313241,0.0839028802 C2.01614679,-1.51391762 3.77112664,-2.5 5.67183287,-2.5 L11.3281671,-2.5 C13.2288734,-2.5 14.9838532,-1.51391762 15.9268676,0.0839028802 Z" id="path-5"></path>
    </defs>
    <g id="AI-LOGO" stroke="none" fill="none" xlink:href="#path-1" fill-rule="evenodd" stroke-width="1">
        <g id="编组" transform="translate(3.5, 4.5)">
            <g id="多边形" fill-rule="nonzero">
                <use fill="url(#linearGradient-2)" xlink:href="#path-5"></use>
                <use fill="url(#linearGradient-3)" xlink:href="#path-5"></use>
                <use fill="url(#linearGradient-4)" xlink:href="#path-5"></use>
            </g>
            <path d="M14.3696313,1.25495401 L15.8110979,3.67209382 L15.8518713,3.74768567 C15.8651711,3.76426172 15.8776149,3.78167609 15.8891172,3.79988161 L17.0019717,5.56127765 L17.0089509,5.5726579 C17.6739462,6.69019401 17.6628071,8.06573926 16.9798903,9.17313256 L14.3730489,13.7190645 L14.3648979,13.732766 C13.6920073,14.8239014 12.4744236,15.5 11.1705931,15.5 L5.86297334,15.5 L5.79159048,15.5 C4.96481824,15.5 4.17859774,15.2146266 3.55347789,14.713333 C3.20185997,14.4419608 2.89758956,14.1072772 2.6614567,13.7210205 L2.6525801,13.7059118 L1.33275247,11.3665406 L1.29672662,11.2935795 C1.28338767,11.2759966 1.27099384,11.2575319 1.25964006,11.2382396 L-0.0342092028,9.03972986 C-0.690427584,7.93694353 -0.644738495,6.56326426 0.0495351813,5.43746338 L2.66341743,1.23861791 C3.33149376,0.155289243 4.5443108,-0.5 5.85772217,-0.5 L11.2713491,-0.5 C12.2330746,-0.5 13.1410246,-0.113744838 13.8039963,0.550935735 C14.0197884,0.758129619 14.2102448,0.994222877 14.3696313,1.25495401 Z M10.9268821,5.10071697 L10.8342689,5.22481374 L7.05191678,10.8549455 C6.77329041,11.2696883 6.30644627,11.518471 5.80680218,11.518471 L5.24218522,11.518471 L2.57830853,11.518471 L3.56225283,13.2155885 C3.71589668,13.4805951 3.91270721,13.711643 4.14087117,13.9019261 C4.620333,14.2814551 5.22777304,14.5 5.86297334,14.5 L7.05792708,14.5 C7.56630591,14.5 8.04008567,14.2425029 8.31661325,13.81591 L12.2560601,7.73861321 C12.3577144,7.58179331 12.3634279,7.38137339 12.2708726,7.21901701 L11.010457,5.007507 C10.9814624,5.03734021 10.9535748,5.06842578 10.9268821,5.10071697 Z M13.5115793,13.2111123 L16.1287278,8.64823039 C16.6157027,7.85856923 16.6241084,6.88356519 16.1510037,6.0865986 L15.1706767,4.53496337 L12.1287825,4.53496337 C12.0518877,4.53496337 11.9757401,4.54063092 11.9008639,4.55168673 L13.1396217,6.7237646 C13.4172878,7.21083373 13.4001472,7.81209352 13.0951842,8.28255321 L9.15573736,14.35985 L9.05706622,14.4996816 L11.1705931,14.5 C12.1269974,14.5 13.020891,14.0043801 13.5115793,13.2111123 Z M5.85772217,0.5 C4.88617177,0.5 3.99776067,0.980011596 3.51346978,1.7653119 L0.899587528,5.96415738 C0.396989129,6.77915295 0.364554735,7.75431913 0.826386254,8.53044645 L1.99636861,10.518471 L5.24218522,10.518471 L5.39684073,10.5107975 L3.95306307,8.30832931 C3.63145887,7.82076966 3.62211249,7.19086509 3.9291097,6.69397839 L7.64110733,0.68596852 C7.68087137,0.621608898 7.7232975,0.559447733 7.76819445,0.499591687 L5.85772217,0.5 Z M6.53669885,9.8286206 L10.319051,4.19848884 C10.5976773,3.78374608 11.0645215,3.53496337 11.5641656,3.53496337 L14.5596128,3.53496339 L13.4765362,1.74362548 C13.3563072,1.54477459 13.2115479,1.36584748 13.0474548,1.20977472 C12.5504823,0.760119141 11.8804989,0.5 11.165342,0.5 L9.76791744,0.5 C9.24797666,0.5 8.76511879,0.769254989 8.49183137,1.21158111 L4.77983374,7.21959099 C4.67750134,7.38521988 4.6806168,7.59518807 4.7878182,7.75770796 L6.32232859,10.083879 C6.40188627,10.007489 6.47389198,9.9221103 6.53669885,9.8286206 Z" id="形状" fill="#FFEDFC" fill-rule="nonzero"></path>
        </g>
    </g>
</svg>