<?xml version="1.0" encoding="UTF-8"?>
<svg width="36px" height="36px" viewBox="0 0 36 36" version="1.1" xmlns="http://www.w3.org/2000/svg" xmlns:xlink="http://www.w3.org/1999/xlink">
    <defs>
        <path d="M0,0 L36,0 L36,36 L0,36 L0,0 Z" id="path-1"></path>
        <filter x="-4.4%" y="-4.4%" width="108.8%" height="108.8%" filterUnits="objectBoundingBox" id="filter-2">
            <feOffset dx="0" dy="0" in="SourceAlpha" result="shadowOffsetOuter1"></feOffset>
            <feGaussianBlur stdDeviation="0.5" in="shadowOffsetOuter1" result="shadowBlurOuter1"></feGaussianBlur>
            <feColorMatrix values="0 0 0 0 0   0 0 0 0 0   0 0 0 0 0  0 0 0 0.2 0" type="matrix" in="shadowBlurOuter1" result="shadowMatrixOuter1"></feColorMatrix>
            <feMerge>
                <feMergeNode in="shadowMatrixOuter1"></feMergeNode>
                <feMergeNode in="SourceGraphic"></feMergeNode>
            </feMerge>
        </filter>
        <linearGradient x1="50%" y1="3.58929639%" x2="50%" y2="97.2180704%" id="linearGradient-3">
            <stop stop-color="#EFF5FF" offset="0%"></stop>
            <stop stop-color="#E1EEFF" offset="100%"></stop>
        </linearGradient>
        <linearGradient x1="64.1867976%" y1="100%" x2="64.1867976%" y2="5.70879881%" id="linearGradient-4">
            <stop stop-color="#141414" offset="0%"></stop>
            <stop stop-color="#3C3C3C" offset="100%"></stop>
        </linearGradient>
        <circle id="path-5" cx="17" cy="17" r="17"></circle>
        <linearGradient x1="50%" y1="3.58929639%" x2="50%" y2="97.2180704%" id="linearGradient-6">
            <stop stop-color="#EFF5FF" offset="0%"></stop>
            <stop stop-color="#E1EEFF" offset="100%"></stop>
        </linearGradient>
        <linearGradient x1="64.1867976%" y1="100%" x2="64.1867976%" y2="4.59262649%" id="linearGradient-7">
            <stop stop-color="#F45057" offset="0%"></stop>
            <stop stop-color="#FF7884" offset="100%"></stop>
        </linearGradient>
        <path d="M16,8 L16,10 L9,10 C8.44771525,10 8,10.4477153 8,11 L8,25 C8,25.5522847 8.44771525,26 9,26 L25.0013667,26 C25.5536514,26 26.0013667,25.5522847 26.0013667,25 L26.0013667,18 L28.0013667,18 L28.0013667,25 C28.0013667,26.6568542 26.6582209,28 25.0013667,28 L9,28 C7.34314575,28 6,26.6568542 6,25 L6,11 C6,9.34314575 7.34314575,8 9,8 L16,8 Z M26,21.9866065 L26,23.9866065 L8,23.9866065 L8,21.9866065 L26,21.9866065 Z M25.0232518,7.44798443 C25.1967233,7.44798443 25.3535755,7.55115763 25.42227,7.710448 L26.5177114,10.2697824 C26.5615872,10.3722646 26.6432397,10.453917 26.7457219,10.4977929 L29.3042302,11.5932343 C29.4641642,11.6613659 29.5679646,11.8184112 29.5679646,11.9922525 C29.5679646,12.1660939 29.4641642,12.3231391 29.3042302,12.3912708 L26.7457219,13.4867122 C26.6432397,13.530588 26.5615872,13.6122404 26.5177114,13.7147226 L25.42227,16.2732309 C25.3541384,16.4331649 25.1970931,16.5369653 25.0232518,16.5369653 C24.8494104,16.5369653 24.6923652,16.4331649 24.6242335,16.2732309 L23.5287921,13.7147226 C23.4848448,13.6122888 23.4032155,13.5306595 23.3007817,13.4867122 L20.7414473,12.3912708 C20.5821569,12.3225762 20.4789837,12.165724 20.4789837,11.9922525 C20.4789837,11.818781 20.5821569,11.6619288 20.7414473,11.5932343 L23.3007817,10.4977929 C23.4032155,10.4538455 23.4848448,10.3722162 23.5287921,10.2697824 L24.6242335,7.710448 C24.6929281,7.55115763 24.8497803,7.44798443 25.0232518,7.44798443 Z M20.0689817,6.62207631 C20.1836991,6.62207631 20.2873699,6.69046727 20.3325155,6.79592792 L20.7761445,7.83023609 C20.8050589,7.89797831 20.858757,7.95167642 20.9264992,7.98059079 L21.9591551,8.42669815 C22.0646158,8.47184379 22.1330068,8.57551456 22.1330068,8.69023194 C22.1330068,8.80494932 22.0646158,8.90862009 21.9591551,8.95376573 L20.9240209,9.39739471 C20.856481,9.42638484 20.8026563,9.48020952 20.7736662,9.54774941 L20.3300372,10.5804053 C20.2848915,10.685866 20.1812207,10.754257 20.0665034,10.754257 C19.951786,10.754257 19.8481152,10.685866 19.8029696,10.5804053 L19.3593406,9.54527105 C19.3303505,9.47773115 19.2765258,9.42390647 19.2089859,9.39491634 L18.1738516,8.95128735 C18.068391,8.90614171 18,8.80247094 18,8.68775357 C18,8.57303619 18.068391,8.46936543 18.1738516,8.42421978 L19.2089859,7.98059079 C19.2765258,7.95160067 19.3303505,7.89777598 19.3593406,7.83023609 L19.805448,6.79510179 C19.8505936,6.69046727 19.9542644,6.62207631 20.0689817,6.62207631 Z" id="path-8"></path>
    </defs>
    <g id="icon/智能体/mcp" stroke="none" fill="none" xlink:href="#path-1" fill-rule="evenodd" stroke-width="1">
        <g id="编组" filter="url(#filter-2)" transform="translate(1, 1)">
            <g id="椭圆形-2">
                <use fill="url(#linearGradient-3)" xlink:href="#path-5"></use>
                <use fill="url(#linearGradient-4)" xlink:href="#path-5"></use>
            </g>
            <g id="形状">
                <use fill="url(#linearGradient-6)" xlink:href="#path-8"></use>
                <use fill="url(#linearGradient-7)" xlink:href="#path-8"></use>
            </g>
        </g>
    </g>
</svg>