<?xml version="1.0" encoding="utf-8" ?>
<svg xmlns="http://www.w3.org/2000/svg" xmlns:xlink="http://www.w3.org/1999/xlink" width="16" height="16">
	<path fill-opacity="1" fill="currentColor" transform="translate(1 0)" d="M10.65 5.4499998C11.214911 6.2032146 11.5 7.0584817 11.5 8C11.5 8.9415188 11.214911 9.7967854 10.65 10.55C10.484315 10.770914 10.170914 10.815685 9.9499998 10.65C9.7290859 10.484315 9.6843147 10.170914 9.8500004 9.9499998C10.285089 9.3698816 10.5 8.7251482 10.5 8C10.5 7.2748518 10.285089 6.6301184 9.8500004 6.0500002C9.6843147 5.8290863 9.7290859 5.5156856 9.9499998 5.3499999C10.170914 5.1843147 10.484315 5.2290859 10.65 5.4499998ZM1 5L3 5L3 5L6.2928934 1.7071068C6.6834173 1.3165824 7.3165827 1.3165824 7.7071066 1.7071068C7.8946433 1.8946432 8 2.1489971 8 2.4142137L8 13.585787C8 14.138071 7.5522847 14.585787 7 14.585787C6.7347836 14.585787 6.4804296 14.48043 6.2928934 14.292893L3 11L3 11L1 11C0.44771525 11 0 10.552285 0 10L0 6C0 5.4477153 0.44771525 5 1 5ZM12.353554 3.6464467C13.451967 4.7448602 14 6.2062817 14 8C14 9.7937183 13.451967 11.25514 12.353554 12.353554C12.158291 12.548816 11.841709 12.548816 11.646446 12.353554C11.451184 12.158291 11.451184 11.841709 11.646446 11.646446C12.548033 10.74486 13 9.5396147 13 8C13 6.4603848 12.548033 5.2551398 11.646446 4.3535533C11.451184 4.1582913 11.451184 3.8417087 11.646446 3.6464467C11.841709 3.4511845 12.158291 3.4511845 12.353554 3.6464467Z"/>
</svg>
