<?xml version="1.0" encoding="UTF-8"?>
<svg width="16px" height="16px" viewBox="0 0 16 16" version="1.1" xmlns="http://www.w3.org/2000/svg" xmlns:xlink="http://www.w3.org/1999/xlink">
    <defs>
        <path d="M0,0 L16,0 L16,16 L0,16 L0,0 Z" id="path-1"></path>
    </defs>
    <g id="icon/输入框/语音输入-激活" stroke="none"  xlink:href="#path-1" >
        <path fill="currentColor" d="M7.98764126,12.7467624 C10.231709,12.7533163 12.1450771,11.1382501 12.4932866,8.9435657 C12.5345647,8.67868358 12.7154504,8.45572333 12.9678058,8.35867194 C13.2201613,8.26162054 13.5056476,8.30522241 13.716725,8.47305314 C13.9278024,8.64088387 14.0324031,8.90744598 13.991125,9.17232811 C13.5753469,11.8166198 11.4415938,13.8690329 8.75967623,14.2043507 L8.75891861,15.7509344 C8.75847396,16.147776 8.44585713,16.4755972 8.0456878,16.498854 C7.64551846,16.5221107 7.29630316,16.2327533 7.24895809,15.8386892 L7.24365466,15.7509344 L7.24365466,14.2043507 C4.54824328,13.8676335 2.40809027,11.7970421 2.00614485,9.13707618 C1.95405656,8.73207748 2.23874393,8.36022119 2.64669307,8.30039741 C3.0546422,8.24057364 3.43599582,8.51475822 3.50474088,8.91731429 C3.83986429,11.1139944 5.74357351,12.7402085 7.98764126,12.7467624 Z M11,3.00016252 L11.0318145,8.25052816 C11.0318145,9.90747217 9.67500098,11.2506907 8.00128664,11.2506907 C6.3275723,11.2506907 4.97075874,9.90747217 4.97075874,8.25052816 L4.93894421,3.00016252 C4.93894421,1.34321851 6.29575777,-2.84217094e-14 7.96947211,-2.84217094e-14 C9.64318645,-2.84217094e-14 11,1.34321851 11,3.00016252 Z" id="voice"></path>
    </g>
</svg>