<?xml version="1.0" encoding="UTF-8"?>
<svg width="16px" height="16px" viewBox="0 0 16 16" version="1.1" xmlns="http://www.w3.org/2000/svg" xmlns:xlink="http://www.w3.org/1999/xlink">
    <title>icon/聊天/网页链接</title>
    <defs>
        <path d="M9.51154077,6.00013238 L9.52584889,6.00068346 C9.52633859,6.00068159 9.52682138,6.00070687 9.52730113,6.0007432 C9.53482152,6.00115001 9.54233434,6.00172774 9.54982857,6.00253475 C9.55186707,6.00265355 9.55387901,6.00286502 9.55586956,6.00314557 C9.56189848,6.00378638 9.56791468,6.00456945 9.57391777,6.00546187 L9.57251475,6.00535821 C9.58356748,6.00682679 9.59446184,6.00878622 9.60522765,6.01109223 C9.62047425,6.01439613 9.63583471,6.01844802 9.65101164,6.02324135 C9.66473685,6.0275581 9.67802507,6.03240845 9.69103656,6.03779224 C9.70453886,6.04335147 9.71827569,6.04974961 9.73175819,6.05680497 C9.74404667,6.06329334 9.75568247,6.07001934 9.76701032,6.07718801 C9.77883464,6.08460935 9.79060915,6.09277454 9.80209251,6.10150261 C9.81575424,6.11192025 9.82881868,6.1229392 9.84128643,6.13458875 C9.845325,6.13835695 9.84946578,6.142359 9.85355339,6.14644661 C9.85710275,6.14999597 9.86058759,6.15358541 9.86399697,6.15721999 L9.864439,6.15767597 C9.86590215,6.15923304 9.86735544,6.16079949 9.86876871,6.16240317 C9.8889922,6.18439231 9.90684574,6.20777521 9.92237068,6.23221148 C9.92937409,6.2433003 9.93614746,6.25495531 9.94245158,6.26689639 C9.94976195,6.28071752 9.95620386,6.29446847 9.96198611,6.30842823 C9.96720543,6.32096249 9.97209395,6.33426621 9.97642002,6.34782112 C9.98126983,6.3631642 9.98535607,6.37852594 9.98870011,6.39401578 C9.99104028,6.4046222 9.99303855,6.41562107 9.99467092,6.42673888 C9.99728086,6.44478548 9.99892508,6.46259444 9.99961939,6.48043349 L10,6.5 L10,11 C10,11.2761424 9.77614237,11.5 9.5,11.5 C9.22385763,11.5 9,11.2761424 9,11 L9,7.706 L3.85355339,12.8535534 C3.65829124,13.0488155 3.34170876,13.0488155 3.14644661,12.8535534 C2.95118446,12.6582912 2.95118446,12.3417088 3.14644661,12.1464466 L8.292,7 L5,7 C4.72385763,7 4.5,6.77614237 4.5,6.5 C4.5,6.22385763 4.72385763,6 5,6 L9.5,6 Z" id="path-1"></path>
    </defs>
    <g id="icon/聊天/网页链接" stroke="none" fill="none" xlink:href="#path-1" fill-rule="evenodd" stroke-width="1">
        <g id="编组" transform="translate(3.5, 4.5)" fill="currentColor">
            <path d="M6,1.5 L6.01154077,1.50013238 C6.03240118,1.500611 6.05323734,1.5023875 6.07391777,1.50546187 L6,1.5 C6.03609704,1.5 6.07130067,1.50382515 6.10522765,1.51109223 C6.12047425,1.51439613 6.13583471,1.51844802 6.15101164,1.52324135 C6.16473685,1.5275581 6.17802507,1.53240845 6.19103656,1.53779224 C6.20453886,1.54335147 6.21827569,1.54974961 6.23175819,1.55680497 C6.24404667,1.56329334 6.25568247,1.57001934 6.26701032,1.57718801 C6.27883464,1.58460935 6.29060915,1.59277454 6.30209251,1.60150261 C6.31575424,1.61192025 6.32881868,1.6229392 6.34128643,1.63458875 C6.345325,1.63835695 6.34946578,1.642359 6.35355339,1.64644661 L6.364439,1.65767597 C6.3761699,1.67015987 6.38726662,1.68324664 6.39767771,1.69688485 L6.35355339,1.64644661 C6.38010219,1.67299541 6.40304129,1.70178699 6.42237068,1.73221148 C6.42937409,1.7433003 6.43614746,1.75495531 6.44245158,1.76689639 C6.44976195,1.78071752 6.45620386,1.79446847 6.46198611,1.80842823 C6.46720543,1.82096249 6.47209395,1.83426621 6.47642002,1.84782112 C6.48126983,1.8631642 6.48535607,1.87852594 6.48870011,1.89401578 C6.49104028,1.9046222 6.49303855,1.91562107 6.49467092,1.92673888 C6.49728086,1.94478548 6.49892508,1.96259444 6.49961939,1.98043349 L6.5,2 L6.5,6.5 C6.5,6.77614237 6.27614237,7 6,7 C5.72385763,7 5.5,6.77614237 5.5,6.5 L5.5,3.206 L0.353553391,8.35355339 C0.158291245,8.54881554 -0.158291245,8.54881554 -0.353553391,8.35355339 C-0.548815536,8.15829124 -0.548815536,7.84170876 -0.353553391,7.64644661 L4.792,2.5 L1.5,2.5 C1.22385763,2.5 1,2.27614237 1,2 C1,1.72385763 1.22385763,1.5 1.5,1.5 L6,1.5 Z" id="形状结合" fill-rule="nonzero"></path>
        </g>
    </g>
</svg>