<?xml version="1.0" encoding="utf-8" ?>
<svg xmlns="http://www.w3.org/2000/svg" xmlns:xlink="http://www.w3.org/1999/xlink" width="16" height="16">
	<path fill="currentColor" transform="translate(0.32 2.87)" d="M7.6835194 8.0092478C8.4838028 8.0092478 9.2252998 8.2609415 9.833169 8.6894884L7.6835194 10.951948L5.5348873 8.6887712C6.1425667 8.2606611 6.8836827 8.0092478 7.6835194 8.0092478ZM7.6835194 5.3392477C9.1967945 5.3392477 10.587497 5.8640461 11.683556 6.7415729L10.991258 7.469243C10.07708 6.7608752 8.9295378 6.3392477 7.6835194 6.3392477C6.4379616 6.3392477 5.2908072 6.7605634 4.3767948 7.4684572L3.6844778 6.7407765C4.7803836 5.8637285 6.170702 5.3392477 7.6835194 5.3392477ZM7.6835194 2.6702061C9.9090557 2.6702061 11.947493 3.4712689 13.526226 4.8007879L12.83606 5.5272589C11.437844 4.3674479 9.6421061 3.6702061 7.6835194 3.6702061C5.7250657 3.6702061 3.9294398 4.3673525 2.531265 5.5270214L1.841805 4.7999525C3.4203994 3.4709334 5.4584494 2.6702061 7.6835194 2.6702061ZM9.1568966 0.091517009L9.4068022 0.1255203L9.7607679 0.1831069L10.043463 0.23715129L10.335938 0.30072194C12.229173 0.73771536 13.947322 1.6323726 15.367603 2.8619106L14.678204 3.587913C12.798476 1.9747251 10.354827 1 7.6835194 1C5.0126805 1 2.5694208 1.9743826 0.68982565 3.5870628L0 2.8614216C1.4368999 1.6176562 3.178628 0.71663278 5.098062 0.28547329L5.3785071 0.22608413L5.6963148 0.16740121C5.9751949 0.11987953 6.2574263 0.082188658 6.5426388 0.054697778L6.9909964 0.019983971C7.1066546 0.01329053 7.2227602 0.0082628736 7.3392882 0.0049246349L7.6835194 0L8.1028433 0.0073115556L8.4732161 0.026006099C8.5907631 0.033773217 8.70784 0.043261636 8.8244219 0.054446373L9.1568966 0.091517009Z"/>
</svg>
