<?xml version="1.0" encoding="UTF-8"?>
<svg width="16px" height="16px" viewBox="0 0 16 16" version="1.1" xmlns="http://www.w3.org/2000/svg" xmlns:xlink="http://www.w3.org/1999/xlink">
    <title>book-light</title>
    <g id="book-light" stroke="none" stroke-width="1" fill="none" fill-rule="evenodd" fill-opacity="0.7">
        <path d="M13.3363033,1.66089364e-13 C14.1170099,0.000803609249 14.7490863,0.624827119 14.7500001,1.39411467 L14.7500001,12.0185991 L14.742811,12.090758 C14.733306,12.1377518 14.714537,12.1821875 14.6874682,12.2220622 L14.748,12.2630002 L14.6661755,12.2648536 C14.6661755,12.4420209 14.5384136,12.5903398 14.3680275,12.6246757 L14.2923947,12.6320775 L14.2311392,12.6432552 C13.7129574,12.8086913 13.3606088,13.2826836 13.3586229,13.8208318 L13.3683592,13.9294756 C13.4324421,14.2969706 13.8045448,14.7105338 14.2366985,14.9474997 L14.322,14.9900002 L14.3217688,15.0147149 L14.415,15.0240002 L14.4801605,15.044313 C14.6142779,15.1001687 14.7081437,15.2308317 14.7081437,15.3826894 C14.7081437,15.5851663 14.5412711,15.7500002 14.3346117,15.7500002 L3.93210358,15.7500002 C2.86216419,15.7396074 2,14.8799054 2,13.8237715 C2,13.6727051 2.01761124,13.5239786 2.05214278,13.3796139 C2.04731797,13.3000594 2.04463569,13.275259 2.04463569,13.2494751 L2.04463569,1.39396619 C2.04554828,0.625181749 2.67706327,0.00130541387 3.45740882,1.66089364e-13 Z M12.7831291,12.6324726 L3.93210793,12.6321643 C3.27154247,12.641046 2.7415013,13.171587 2.7415013,13.8237715 C2.7415013,14.475956 3.27154247,15.006497 3.93042088,15.0153673 L12.8814311,15.016317 L12.9817346,14.8167058 C12.7425834,14.4952455 12.6116251,14.1529677 12.6116251,13.8212931 C12.6128467,13.4663461 12.7098894,13.122888 12.8903491,12.8217217 L12.7831291,12.6324726 Z M13.3356285,0.734621658 L3.45719972,0.734621658 C3.08981681,0.735292586 2.79171263,1.0296372 2.79095561,1.39373197 L2.79095561,12.045625 L2.97781645,12.1542455 C3.26614734,11.990036 3.59287493,11.9008419 3.93331702,11.8975369 L13.8770068,11.8970002 L14.002,11.7720098 L14.0028023,1.39397585 C14.0021183,1.02916041 13.7032635,0.734621658 13.3356285,0.734621658 Z M11.7773858,8.10359757 C11.9112508,8.10357402 12.0347364,8.17395005 12.1013339,8.28782992 C12.167624,8.40118418 12.167624,8.54063245 12.1013339,8.65398671 C12.0347364,8.76786658 11.9112508,8.83824261 11.7773858,8.83821906 L5.29557865,8.83821906 C5.16169166,8.83824261 5.03820603,8.76786658 4.97160853,8.65398671 C4.90531843,8.54063245 4.90531843,8.40118418 4.97160853,8.28782992 C5.03820603,8.17395005 5.16169166,8.10357402 5.29555666,8.10359757 Z M11.7773858,5.79629989 C11.9112508,5.79627635 12.0347364,5.86665238 12.1013339,5.98053225 C12.167624,6.09388651 12.167624,6.23333478 12.1013339,6.34668904 C12.0347364,6.46056891 11.9112508,6.53094494 11.7773858,6.5309214 L5.29557865,6.53092139 C5.08894124,6.53088504 4.92206861,6.36608758 4.92206861,6.16361065 C4.92206861,5.96113371 5.08894124,5.79633625 5.29560064,5.79629989 Z M7.62230638,3.48900223 C7.82899196,3.48900224 7.99590523,3.65381048 7.99590523,3.85631298 C7.99590523,4.05881549 7.82899196,4.22362373 7.62230638,4.22362373 L5.29557865,4.22362373 C5.08889306,4.22362373 4.92197978,4.05881549 4.92197978,3.85631298 C4.92197978,3.65381047 5.08889306,3.48900223 5.29557865,3.48900223 Z" id="形状结合" fill="#000000" fill-rule="nonzero"></path>
    </g>
</svg>