<?xml version="1.0" encoding="UTF-8"?>
<svg width="37px" height="38px" viewBox="0 0 37 38" version="1.1" xmlns="http://www.w3.org/2000/svg" xmlns:xlink="http://www.w3.org/1999/xlink">
    <title>编组 2</title>
    <defs>
        <filter x="-19.1%" y="-18.5%" width="138.2%" height="151.9%" filterUnits="objectBoundingBox" id="filter-1">
            <feOffset dx="0" dy="2" in="SourceAlpha" result="shadowOffsetOuter1"></feOffset>
            <feGaussianBlur stdDeviation="2" in="shadowOffsetOuter1" result="shadowBlurOuter1"></feGaussianBlur>
            <feColorMatrix values="0 0 0 0 0   0 0 0 0 0   0 0 0 0 0  0 0 0 0.2 0" type="matrix" in="shadowBlurOuter1" result="shadowMatrixOuter1"></feColorMatrix>
            <feMerge>
                <feMergeNode in="shadowMatrixOuter1"></feMergeNode>
                <feMergeNode in="SourceGraphic"></feMergeNode>
            </feMerge>
        </filter>
        <linearGradient x1="108.214078%" y1="41.7269212%" x2="50%" y2="29.2734326%" id="linearGradient-2">
            <stop stop-color="#6448FF" offset="0%"></stop>
            <stop stop-color="#FF37DF" offset="100%"></stop>
        </linearGradient>
        <linearGradient x1="7.56318058%" y1="57.1897166%" x2="56.6767213%" y2="32.0157093%" id="linearGradient-3">
            <stop stop-color="#FF02AA" offset="0%"></stop>
            <stop stop-color="#FF8BF4" stop-opacity="0" offset="100%"></stop>
        </linearGradient>
        <linearGradient x1="40.5487738%" y1="63.6183502%" x2="27.9179699%" y2="87.9292404%" id="linearGradient-4">
            <stop stop-color="#FB6060" stop-opacity="0" offset="0%"></stop>
            <stop stop-color="#FCA506" offset="100%"></stop>
        </linearGradient>
        <path d="M25.2678287,3.51492737 L28.9993102,10.0149274 C30.2382813,12.1731351 30.2382813,14.8268649 28.9993102,16.9850726 L25.2678287,23.4850726 C24.0196679,25.6592881 21.7040708,27 19.197057,27 L11.802943,27 C9.29592916,27 6.98033208,25.6592881 5.73217132,23.4850726 L2.00068984,16.9850726 C0.761718747,14.8268649 0.761718747,12.1731351 2.00068984,10.0149274 L5.73217132,3.51492737 C6.98033208,1.34071185 9.29592916,1.77635684e-15 11.802943,1.77635684e-15 L19.197057,1.77635684e-15 C21.7040708,8.8817842e-16 24.0196679,1.34071185 25.2678287,3.51492737 Z" id="path-5"></path>
    </defs>
    <g id="控件" stroke="none" stroke-width="1" fill="none" fill-rule="evenodd">
        <g id="随航/图标/48/UosAiAssistant" transform="translate(0.5, 0.8502)">
            <g id="编组-2" filter="url(#filter-1)" transform="translate(2.5, 4)">
                <g id="多边形" fill-rule="nonzero">
                    <use fill="url(#linearGradient-2)" xlink:href="#path-5"></use>
                    <use fill="url(#linearGradient-3)" xlink:href="#path-5"></use>
                    <use fill="url(#linearGradient-4)" xlink:href="#path-5"></use>
                </g>
                <path d="M19.2834955,2 C20.873785,2 22.3563436,2.7552813 23.2927547,4.01225693 C23.4523668,4.21346478 23.5990727,4.42762588 23.7309211,4.65403581 L25.2754462,7.38673213 L25.3221956,7.47870264 C25.3406574,7.505223 25.3580315,7.53269798 25.3742379,7.56108108 L27.3007154,10.9350348 C28.2477088,12.6055386 28.2318858,14.6565476 27.2592173,16.3121519 L23.7212863,22.334156 C22.7562917,23.9766985 21.0006542,25 19.1131554,25 L13.8248107,24.9998718 C13.8141189,24.9999572 13.8034207,25 13.7927165,25 L11.7146177,25 C9.94981775,25 8.31572725,24.0696514 7.41495798,22.5520435 L5.69284171,19.6506376 L5.64452974,19.558 L5.61339528,19.513188 C5.60160618,19.4951907 5.59030709,19.4767793 5.57952139,19.4579674 L3.66511163,16.1189205 C2.72879695,14.467254 2.79369601,12.4190709 3.77567644,10.7476619 L7.31702263,4.62520469 C8.2761721,2.99261149 10.0263573,2 11.9251535,2 L19.2834955,2 Z M18.5154289,10.1472775 L14.0427017,18.6674432 C13.6108268,19.4901283 12.7583222,20.0054317 11.8291685,20.0054317 L8.24991908,20.0054317 L9.04208546,21.3100074 C9.64922382,22.3524804 10.7553784,23 11.9322581,23 L13.8155297,22.999 L13.9559206,22.9933483 C14.6040307,22.9403921 15.1902872,22.5743386 15.5209736,22.0065424 L20.2286136,13.9234136 C20.3281865,13.7524446 20.3319788,13.5420698 20.2386326,13.3676232 L18.5154289,10.1472775 Z M23.8995939,9.01193765 L20.1755297,9.011 L22.002044,12.4240236 C22.4229208,13.2105636 22.405822,14.1590959 21.9568707,14.929956 L17.2565297,22.999 L19.1131554,23 C20.2854279,23 21.3880653,22.3573101 21.9968645,21.3210572 L25.5347955,15.299053 C26.1456216,14.2593499 26.1555651,12.9704578 25.5623686,11.9240448 L23.8995939,9.01193765 Z M13.9555297,4 L11.9251535,4 C10.7325309,4 9.63987801,4.61969431 9.04485968,5.63244505 L5.50351349,11.7549023 C4.87111367,12.8313264 4.83031625,14.1188734 5.40257647,15.128369 L7.05212389,18.0054317 L10.9355297,18.005 L9.069418,15.0046456 C8.56399883,14.1921578 8.5518118,13.1661538 9.0377894,12.3418901 L13.9555297,4 Z M19.1060509,4 L17.3965297,4 L17.258039,4.00658174 C16.6133103,4.05898299 16.0294599,4.42124428 15.6975313,4.9842264 L10.7606371,13.3576637 C10.6528521,13.540477 10.6555551,13.7680343 10.7676519,13.9482359 L12.6623359,16.9940395 L13.3525297,15.679 L17.2001303,8.34992617 C17.6320052,7.5272411 18.4845098,7.01193765 19.4136635,7.01193765 L22.7512775,7.01193765 L21.8839637,5.50415068 C21.8278602,5.40661721 21.7667425,5.31300496 21.7010419,5.22356344 C21.0743406,4.45411471 20.1269113,4 19.1060509,4 Z" id="形状结合" fill="#FDEEF9" fill-rule="nonzero"></path>
            </g>
        </g>
    </g>
</svg>