<?xml version="1.0" encoding="UTF-8"?>
<svg width="22px" height="22px" viewBox="0 0 22 22" version="1.1" xmlns="http://www.w3.org/2000/svg" xmlns:xlink="http://www.w3.org/1999/xlink">
    <title>info-light</title>
    <g id="AI助手设置备份" stroke="none" stroke-width="1" fill="none" fill-rule="evenodd">
        <g id="体验计划" transform="translate(-337.000000, -661.000000)">
            <g id="体验计划说明" transform="translate(62.000000, 52.000000)">
                <g id="编组-26" transform="translate(26.000000, 560.000000)">
                    <g id="option_checkbox" transform="translate(0.000000, 50.000000)">
                        <g id="info-light" transform="translate(250.000000, 0.000000)">
                            <circle id="清除" stroke-opacity="0.05" stroke="#000000" fill="#FFFFFF" cx="10" cy="10" r="10.5"></circle>
                            <path d="M10.023,5.768 C10.2666667,5.768 10.4749167,5.68016667 10.64775,5.5045 C10.8205833,5.32883333 10.907,5.122 10.907,4.884 C10.907,4.63466667 10.8205833,4.425 10.64775,4.255 C10.4749167,4.085 10.2666667,4 10.023,4 C9.77366667,4 9.564,4.085 9.394,4.255 C9.224,4.425 9.139,4.63466667 9.139,4.884 C9.139,5.122 9.22541667,5.32883333 9.39825,5.5045 C9.57108333,5.68016667 9.77933333,5.768 10.023,5.768 Z M11.961,15.3985 C12.0516667,15.3985 12.097,15.3191667 12.097,15.1605 C12.097,15.0188333 12.0516667,14.9423333 11.961,14.931 C11.468,14.8686667 11.1520833,14.7525 11.01325,14.5825 C10.8744167,14.4125 10.805,14.0498333 10.805,13.4945 L10.805,13.4945 L10.805,10.8255 C10.805,10.1228333 10.8503333,9.13683333 10.941,7.8675 C10.941,7.77683333 10.8616667,7.7315 10.703,7.7315 C10.635,7.7315 10.5726667,7.7655 10.516,7.8335 C10.4196667,7.94683333 10.1816667,8.08991667 9.802,8.26275 C9.42233333,8.43558333 8.935,8.5985 8.34,8.7515 C8.24933333,8.7515 8.204,8.8195 8.204,8.9555 C8.204,9.10283333 8.24933333,9.1765 8.34,9.1765 C8.731,9.22183333 8.98458333,9.31533333 9.10075,9.457 C9.21691667,9.59866667 9.275,9.89616667 9.275,10.3495 L9.275,10.3495 L9.275,13.4945 C9.275,14.0498333 9.20558333,14.4125 9.06675,14.5825 C8.92791667,14.7525 8.61766667,14.8686667 8.136,14.931 C8.04533333,14.9423333 8,15.0188333 8,15.1605 C8,15.3191667 8.04533333,15.3985 8.136,15.3985 C8.36833333,15.3985 8.663,15.3815 9.02,15.3475 C9.41666667,15.3135 9.75666667,15.2965 10.04,15.2965 C10.3176667,15.2965 10.6605,15.3135 11.0685,15.3475 C11.4311667,15.3815 11.7286667,15.3985 11.961,15.3985 Z" id="i" stroke="#536076" stroke-width="0.2" fill="#536076" fill-rule="nonzero"></path>
                        </g>
                    </g>
                </g>
            </g>
        </g>
    </g>
</svg>