<?xml version="1.0" encoding="UTF-8"?>
<svg width="13.0000033px" height="15.9999932px" viewBox="0 0 13.0000033 15.9999932" version="1.1" xmlns="http://www.w3.org/2000/svg" xmlns:xlink="http://www.w3.org/1999/xlink">
    <title>bigmodel-dark</title>
    <g id="AI助手设置备份" stroke="none" stroke-width="1" fill="none" fill-rule="evenodd">
        <g id="画板" transform="translate(-252.000000, -114.000000)" fill="#C5CFE0">
            <path d="M264.097216,129.999993 L252.902777,129.999993 C252.404419,129.99943 252.00056,129.592746 252,129.090903 L252,114.909097 C252.00056,114.407254 252.404419,114.00057 252.902777,114.000003 L260.803433,114.000003 C261.042996,113.999344 261.272867,114.095217 261.441809,114.266257 L264.735592,117.583072 C264.905444,117.753195 265.000652,117.984674 265,118.225912 L265,129.090903 C264.999434,129.592746 264.595574,129.99943 264.097216,129.999993 L264.097216,129.999993 Z M252.902777,114.727279 C252.803059,114.727279 252.722222,114.808682 252.722222,114.909097 L252.722222,129.090903 C252.722222,129.191318 252.803059,129.272721 252.902777,129.272721 L264.097216,129.272721 C264.196934,129.272721 264.277771,129.191318 264.277771,129.090903 L264.277771,118.363639 L261.569439,118.363639 C261.071081,118.363076 260.667222,117.956392 260.666662,117.454549 L260.666662,114.727279 L252.902777,114.727279 Z M261.388884,115.241483 L261.388884,117.454549 C261.388884,117.554965 261.469721,117.636367 261.569439,117.636367 L263.767138,117.636367 L261.388884,115.241483 Z M261.749995,125.563633 L255.249998,125.563633 C255.050562,125.563633 254.888887,125.400828 254.888887,125.199997 C254.888887,124.999166 255.050562,124.836361 255.249998,124.836361 L261.749995,124.836361 C261.949431,124.836361 262.111106,124.999166 262.111106,125.199997 C262.111106,125.400828 261.949431,125.563633 261.749995,125.563633 L261.749995,125.563633 Z M261.749995,122.727272 L255.249998,122.727272 C255.050562,122.727272 254.888887,122.564467 254.888887,122.363636 C254.888887,122.162805 255.050562,122 255.249998,122 L261.749995,122 C261.949431,122 262.111106,122.162805 262.111106,122.363636 C262.111106,122.564467 261.949431,122.727272 261.749995,122.727272 L261.749995,122.727272 Z M258.138886,119.963639 L255.249998,119.963639 C255.050562,119.963639 254.888887,119.800833 254.888887,119.600003 C254.888887,119.399172 255.050562,119.236367 255.249998,119.236367 L258.138886,119.236367 C258.338322,119.236367 258.499997,119.399172 258.499997,119.600003 C258.499997,119.800833 258.338322,119.963639 258.138886,119.963639 L258.138886,119.963639 Z" id="bigmodel-dark"></path>
        </g>
    </g>
</svg>