<?xml version="1.0" encoding="UTF-8"?>
<svg width="32px" height="32px" viewBox="0 0 32 32" version="1.1" xmlns="http://www.w3.org/2000/svg" xmlns:xlink="http://www.w3.org/1999/xlink">
    <title>编组 11备份 9</title>
    <g id="AI随航" stroke="none" stroke-width="1" fill="none" fill-rule="evenodd">
        <g id="切图" transform="translate(-344, -502)">
            <g id="编组-11备份-9" transform="translate(344, 502)">
                <rect id="矩形" x="0" y="0" width="32" height="32"></rect>
                <path d="M16.5279736,6.60467748 L24.0664352,10.8450621 C24.4055335,11.0358049 24.6153846,11.3946183 24.6153846,11.7836819 L24.6153846,20.2163181 C24.6153846,20.6053817 24.4055335,20.9641951 24.0664352,21.1549379 L16.5279736,25.3953225 C16.2001437,25.5797269 15.7998563,25.5797269 15.4720264,25.3953225 L7.93356482,21.1549379 C7.59446653,20.9641951 7.38461538,20.6053817 7.38461538,20.2163181 L7.38461538,11.7836819 C7.38461538,11.3946183 7.59446653,11.0358049 7.93356482,10.8450621 L15.4720264,6.60467748 C15.7998563,6.42027312 16.2001437,6.42027312 16.5279736,6.60467748 Z M16,8.16107692 L9,12.0983077 L8.99892308,19.9006154 L15.9989231,23.8378462 L23,19.9006154 L23,12.0983077 L16,8.16107692 Z M20.5093688,13.3894867 C20.7256308,13.7796336 20.5846692,14.2712253 20.1945222,14.4874873 L17.0087692,16.2532235 L17.0093688,20.5769231 C17.0093688,21.0229992 16.6477526,21.3846154 16.2016765,21.3846154 C15.7556004,21.3846154 15.3939842,21.0229992 15.3939842,20.5769231 L15.3937692,16.4752235 L11.8070324,14.4874873 C11.4168854,14.2712253 11.2759238,13.7796336 11.4921858,13.3894867 C11.7084478,12.9993397 12.2000394,12.858378 12.5901864,13.0746401 L16.0007692,14.9652235 L19.4113682,13.0746401 C19.8015152,12.858378 20.2931068,12.9993397 20.5093688,13.3894867 Z" id="形状结合" fill-opacity="0.7" fill="#FFFFFF" fill-rule="nonzero"></path>
            </g>
        </g>
    </g>
</svg>