<?xml version="1.0" encoding="UTF-8"?>
<svg width="24px" height="24px" viewBox="0 0 24 24" version="1.1" xmlns="http://www.w3.org/2000/svg" xmlns:xlink="http://www.w3.org/1999/xlink">
    <title>official accounts</title>
    <g id="official-accounts" stroke="none" stroke-width="1" fill="none" fill-rule="evenodd">
        <path d="M9.375,3.5 C11.3125,3.5 13.1375,4.1625 14.525,5.3875 C15.8025502,6.50535646 16.5700584,7.96671063 16.7230398,9.55309459 C19.6983092,9.92345605 22,12.2210967 22,15 C22,16.2125 21.55,17.4 20.725,18.3625 L20.9875,19.925 C21.025,20.1125 20.9375,20.3 20.7875,20.4125 C20.7,20.4625 20.6,20.5 20.5,20.5 C20.425,20.5 20.3375,20.475 20.2625,20.4375 L18.95,19.75 C18.0125,20.2375 16.9625,20.5 15.875,20.5 C13.1632473,20.5 10.8549845,18.9102499 10.0524811,16.7098246 C9.83526703,16.7284889 9.61763351,16.7375 9.4,16.7375 C8.06249999,16.7375 6.77499999,16.4125 5.6375,15.8125 L3.9875,16.6875 L3.80416667,16.7180556 C3.7763889,16.7222222 3.75000001,16.725 3.72500002,16.725 C3.62500001,16.725 3.51250001,16.6875 3.42500001,16.625 C3.275,16.5125 3.2,16.325 3.225,16.1375 L3.56250001,14.1875 C2.55,13.025 2,11.5875 2,10.1125 C2,6.4625 5.31250001,3.5 9.375,3.5 Z M15.9916667,10.512963 L15.8875,10.5125 C13.0625,10.5125 10.7625,12.525 10.7625,15.0125 C10.7625,15.265625 10.790625,15.5257812 10.8416016,15.7824219 L10.9,16.0375 C10.9089118,16.0701765 10.9142938,16.1035589 10.9163138,16.137144 C11.4898732,18.0731866 13.4963305,19.5 15.875,19.5 C16.8875,19.5 17.8625,19.2375 18.7,18.75 C18.85,18.6625 19.0375,18.6625 19.1875,18.7375 L19.8375,19.075 L19.7,18.275 C19.675,18.125 19.725,17.9625 19.825,17.85 C20.575,17.05 21,16.025 21,14.9875 C21,12.6505022 18.9493382,10.7258657 16.3423486,10.5185019 L16.2841412,10.5262935 L15.9916667,10.512963 Z M9.375,4.48749999 C5.8625,4.48749999 3.00000001,6.99999999 3.00000001,10.1 C3.00000001,11.4 3.52500001,12.675 4.4625,13.675 C4.575,13.7875 4.6125,13.95 4.5875,14.1 L4.3875,15.3 L5.38750001,14.775 C5.46250001,14.75 5.53750002,14.725 5.61249999,14.725 C5.7,14.725 5.7875,14.75 5.8625,14.7875 C7.025,15.4625 8.40000001,15.7875 9.80000001,15.7 L9.77037038,15.4625 C9.75555557,15.3041667 9.75000001,15.1458333 9.75000001,14.9875 C9.75000001,12 12.4125,9.5625 15.7125,9.48749999 C15.3625,6.68750001 12.6375,4.48749999 9.375,4.48749999 Z M18.125,12.8625 C18.5392136,12.8625 18.875,13.1982864 18.875,13.6125 C18.875,14.0267136 18.5392136,14.3625 18.125,14.3625 C17.7107864,14.3625 17.375,14.0267136 17.375,13.6125 C17.375,13.1982864 17.7107864,12.8625 18.125,12.8625 Z M14.0000387,12.9628693 C14.2321091,13.0968737 14.3750479,13.3445189 14.375,13.6125 C14.3750479,13.8804811 14.2321091,14.1281263 14.0000387,14.2621307 C13.7679682,14.396135 13.4820318,14.396135 13.2499613,14.2621307 C13.0178909,14.1281263 12.8749521,13.8804811 12.875,13.6125 C12.8749521,13.3445189 13.0178909,13.0968737 13.2499613,12.9628693 C13.4820318,12.8288649 13.7679682,12.8288649 14.0000387,12.9628693 Z M6.31245823,7.2296072 C6.5832054,7.07327135 6.9167946,7.07327135 7.18754177,7.2296072 C7.45828895,7.38594305 7.6250517,7.67485816 7.62500002,7.98750001 C7.6250517,8.30014186 7.45828895,8.58905697 7.18754177,8.74539282 C6.9167946,8.90172867 6.5832054,8.90172867 6.31245823,8.74539282 C6.04171106,8.58905697 5.87494831,8.30014186 5.87499998,7.98750001 C5.87494831,7.67485816 6.04171106,7.38594305 6.31245823,7.2296072 Z M11.5625,7.22972774 C11.8332259,7.07342404 12.1667741,7.07342404 12.4375,7.22972774 C12.708226,7.38603145 12.875,7.67489261 12.875,7.98750001 C12.875,8.30010741 12.708226,8.58896857 12.4375,8.74527228 C12.1667741,8.90157598 11.8332259,8.90157598 11.5625,8.74527228 C11.291774,8.58896857 11.125,8.30010741 11.125,7.98750001 C11.125,7.67489261 11.291774,7.38603145 11.5625,7.22972774 Z" id="形状" fill="#FFFFFF" fill-rule="nonzero"></path>
    </g>
</svg>