<?xml version="1.0" encoding="utf-8" ?>
<svg xmlns="http://www.w3.org/2000/svg" xmlns:xlink="http://www.w3.org/1999/xlink" width="16" height="16">
	<path fill-opacity="0.7019608" transform="translate(0.00195408 0.0586014)" d="M9.56036 2.2573123L9.6238604 2.3103721C9.6378031 2.3220227 9.6512175 2.3342907 9.6640644 2.3471396L11.672792 4.3562255C11.884338 4.5678062 11.907819 4.8962154 11.74325 5.1337309L11.690196 5.1972194C11.678549 5.2111583 11.666284 5.2245693 11.653438 5.2374129L3.6650534 13.224272C3.5802274 13.309082 3.4722612 13.366975 3.3546801 13.390698L0.36499977 13.993913C0.20002639 14.027199 0.039305452 13.920445 0.0060195066 13.755472C-0.0020060427 13.715695 -0.0020065068 13.674716 0.0060181422 13.634939L0.60924554 10.644846C0.6329729 10.527234 0.69088745 10.419241 0.77573037 10.334404L8.7828579 2.327806C8.9944286 2.1162498 9.3228369 2.0927544 9.56036 2.2573123ZM8.7823391 3.7418413L1.6953832 10.827814C1.6105467 10.91264 1.5526317 11.020617 1.5288959 11.138214L1.3737581 11.906833C1.3071626 12.236774 1.5206472 12.558232 1.8505892 12.624827C1.9300699 12.64087 2.0119529 12.640891 2.0914419 12.62489L2.8598416 12.470212C2.9775176 12.446525 3.0855782 12.388614 3.1704679 12.303747L10.258339 5.2178411C10.469931 5.0063052 10.493481 4.6779013 10.328962 4.440351L10.258396 4.3558774L9.6442184 3.7418694C9.4062204 3.5038712 9.0203533 3.5038586 8.7823391 3.7418413ZM10.931319 0.17858082C11.169286 -0.059467472 11.555172 -0.059535634 11.793222 0.17842858L13.821529 2.2059901C14.059375 2.4440467 14.059511 2.8298211 13.821686 3.0678973L13.252879 3.6382L13.168159 3.709007C12.930603 3.8735163 12.6022 3.8499534 12.390673 3.6383538L10.363022 1.6091202C10.125111 1.3711282 10.125111 0.98535264 10.363021 0.74736011L10.931319 0.17858082Z"/>
</svg>
