<?xml version="1.0" encoding="UTF-8"?>
<svg width="20px" height="20px" viewBox="0 0 20 20" version="1.1" xmlns="http://www.w3.org/2000/svg" xmlns:xlink="http://www.w3.org/1999/xlink">
    <title>解释</title>
    <g id="解释" stroke="none" fill="none" fill-opacity="1" fill-rule="evenodd">
        <path d="M14.4958277,3.010667 C15.3242548,3.010667 15.9958277,3.68223987 15.9958277,4.510667 L15.9958277,13.0985668 C15.9958277,13.1776483 15.9770696,13.255602 15.9410939,13.3260267 L15.099641,14.9732207 L15.9153247,16.2308983 C16.1310715,16.5635518 15.8923186,17.0029687 15.4958277,17.0029687 L6.01643562,17.0029687 C4.91186612,17.0029687 4.01643562,16.1075382 4.01643562,15.0029687 L4.01643562,5.010667 C4.01643562,3.9060975 4.91186612,3.010667 6.01643562,3.010667 L14.4958277,3.010667 Z M14.4714356,14.002667 L6.01643562,14.0029687 C5.50359978,14.0029687 5.08092846,14.3890089 5.02316335,14.8863476 L5.01643562,15.0029687 C5.01643562,15.5552534 5.46415087,16.0029687 6.01643562,16.0029687 L14.5755942,16.0029687 L14.1034857,15.2750391 C14.0062407,15.1250999 13.9964164,14.9346586 14.0777165,14.7755088 L14.4714356,14.002667 Z M14.4958277,4.010667 L6.01643562,4.010667 C5.46415087,4.010667 5.01643562,4.45838225 5.01643562,5.010667 L5.01636314,13.270575 C5.31055289,13.100379 5.65211856,13.0029687 6.01643562,13.0029687 L14.9824356,13.002667 L14.9958277,12.9782515 L14.9958277,4.510667 C14.9958277,4.23452462 14.77197,4.010667 14.4958277,4.010667 Z M9.52492493,10.6 C9.91152524,10.6 10.2249231,10.9131684 10.2249231,11.2994797 C10.2249231,11.8379387 9.6415913,12.1744732 9.17492584,11.9052437 C8.70825555,11.6360142 8.70825555,10.9629452 9.17492584,10.6937157 C9.28133922,10.6323211 9.40204874,10.6 9.52492493,10.6 Z M9.5,5.01069808 C10.8787499,5.01069808 12,5.93835409 12,7.07853465 C12,8.07684327 11.1400039,8.91259279 10,9.10501591 L10,9.54320356 C10,9.70737231 9.90470328,9.8590735 9.75000181,9.94115549 C9.41666952,10.1180251 9,9.89693808 9,9.54320356 L9,8.68685304 C9,8.43305892 9.22385102,8.22732533 9.5,8.22733486 C10.3268769,8.22733486 11,7.71037452 11,7.07853465 C11,6.44669477 10.3268769,5.92973444 9.5,5.92973444 C8.67312832,5.92973444 8,6.44669477 8,7.07853465 L8,7.30829374 C8,7.47246724 7.90470431,7.62416843 7.75000285,7.70625042 C7.41667055,7.8831239 7,7.66203301 7,7.30829374 L7,7.07853465 C7,5.93835409 8.12125009,5.01069808 9.5,5.01069808 Z" id="形状结合" fill="#FFFFFF"></path>
    </g>
</svg>