<?xml version="1.0" encoding="UTF-8"?>
<svg width="20px" height="20px" viewBox="0 0 20 20" version="1.1" xmlns="http://www.w3.org/2000/svg" xmlns:xlink="http://www.w3.org/1999/xlink">
    <title>解释</title>
    <g id="AI随航" stroke="none" stroke-width="1" fill="none" fill-rule="evenodd">
        <g id="切图" transform="translate(-92, -197)">
            <g id="解释" transform="translate(92, 197)">
                <rect id="矩形" x="0" y="0" width="20" height="20"></rect>
                <path d="M13.8214286,3 C14.4712688,3 15,3.59042633 15,4.32131588 L15,13.2578036 C15,13.3471647 14.9825678,13.4278662 14.9454295,13.5108096 L14.5528998,14.387474 C14.4156113,14.6938445 14.4156113,15.054161 14.5529364,15.3606132 L14.9439051,16.2353997 C15.0221953,16.4019803 15.0169883,16.5964222 14.9326816,16.7522651 C14.8492561,16.9064791 14.7008982,17 14.5416667,17 L5.89880952,17 C4.8511928,17 4,16.0494856 4,14.8744049 L4,5.12559511 C4,3.95051441 4.8511928,3 5.89880952,3 L13.8214286,3 Z M13.7492035,13.7828831 L5.89851374,13.7828831 C5.37778324,13.7835282 4.94939731,14.2351425 4.91913768,14.8107358 C4.8889014,15.3858852 5.26644421,15.8895969 5.78305394,15.9582133 L5.88288463,15.9653952 L13.7632273,15.9659267 L13.6424628,15.5844673 C13.5135814,15.1773689 13.4984983,14.7359826 13.5992384,14.319035 L13.7492035,13.7828831 Z M14.0833333,4.0340733 L5.89880952,4.0340733 C5.39977519,4.0340733 4.98135208,4.44958274 4.92344408,4.99847919 L4.91711765,5.1087456 L4.91666667,13.0063761 L5.26693436,12.8686952 C5.4267148,12.8058898 5.5948621,12.7669862 5.76665858,12.7537316 L5.90773575,12.7486429 L14.0833333,12.7488098 L14.0833333,4.0340733 Z M9.50000217,10.5249305 C9.84715329,10.5249305 10.1285716,10.8335333 10.1285716,11.2142125 C10.1285716,11.7448215 9.60476375,12.0764497 9.18571743,11.8111452 C8.76666678,11.5458407 8.76666678,10.8825844 9.18571743,10.6172799 C9.28127226,10.5567804 9.38966443,10.5249305 9.50000217,10.5249305 Z M9.5,5.01069808 C10.6555237,5.01069808 11.5952381,5.93835409 11.5952381,7.07853465 C11.5952381,8.07684327 10.8744795,8.91259279 9.91904849,9.10501591 L9.91904849,9.14637598 C9.91904849,9.31054472 9.83917989,9.46224591 9.70952533,9.5443279 C9.43016112,9.72119754 9.08095586,9.50011049 9.08095586,9.14637598 L9.08095586,8.68685304 C9.08095586,8.43305892 9.26856086,8.22732533 9.5,8.22733486 C10.1930016,8.22733486 10.7571455,7.71037452 10.7571455,7.07853465 C10.7571455,6.44669477 10.1930016,5.92973444 9.5,5.92973444 C8.80700278,5.92973444 8.24285888,6.44669477 8.24285888,7.07853465 L8.24285888,7.30829374 C8.24285888,7.47246724 8.16299028,7.62416843 8.03333572,7.70625042 C7.75397151,7.8831239 7.4047619,7.66203301 7.4047619,7.30829374 L7.4047619,7.07853465 C7.4047619,5.93835409 8.34447627,5.01069808 9.5,5.01069808 Z" id="形状" fill-opacity="0.7" fill="#FFFFFF" fill-rule="nonzero"></path>
            </g>
        </g>
    </g>
</svg>