<?xml version="1.0" encoding="UTF-8"?>
<svg width="16px" height="16px" viewBox="0 0 16 16" version="1.1" xmlns="http://www.w3.org/2000/svg" xmlns:xlink="http://www.w3.org/1999/xlink">
    <title>insert</title>
    <g id="insert" stroke="none" stroke-width="1" fill="none" fill-rule="evenodd" fill-opacity="0.7">
        <path d="M2.5,3.5 L13.5,3.5 L13.5,4.3 L2.5,4.3 L2.5,3.5 Z M2.5,6.23480663 L13.5,6.23480663 L13.5,7.03480663 L2.5,7.03480663 L2.5,6.23480663 Z M9.1,8.96961326 L13.5,8.96961326 L13.5,9.76961326 L9.1,9.76961326 L9.1,8.96961326 Z M9.1,11.7044199 L13.5,11.7044199 L13.5,12.5044199 L9.1,12.5044199 L9.1,11.7044199 Z M3.73735831,8.19003675 L3.73735831,9.6554158 C3.73735831,10.0420151 4.05075899,10.3554158 4.43735831,10.3554158 L6.494,10.355 L5.67366019,9.52397385 L6.24324414,8.962214 L8.01332394,10.7569472 L6.2417128,12.5338054 L5.67519152,11.968957 L6.485,11.155 L4.43735831,11.1554158 C3.60893119,11.1554158 2.93735831,10.4838429 2.93735831,9.6554158 L2.93735831,8.19003675 L3.73735831,8.19003675 Z" id="形状" fill="#000000"></path>
    </g>
</svg>