<?xml version="1.0" encoding="UTF-8"?>
<svg width="21px" height="20px" viewBox="0 0 21 20" version="1.1" xmlns="http://www.w3.org/2000/svg" xmlns:xlink="http://www.w3.org/1999/xlink">
    <title>自定义技能</title>
    <g id="自定义技能" stroke="none" fill="none" transform="translate(0.5, 0)">
        <rect id="矩形" opacity="0.27011399" x="0" y="0" width="20" height="20"></rect>
        <path d="M9,5 L9,9 C9,9.55228475 8.55228475,10 8,10 L4,10 C3.44771525,10 3,9.55228475 3,9 L3,5 C3,4.44771525 3.44771525,4 4,4 L8,4 C8.55228475,4 9,4.44771525 9,5 Z M8,5 L4,5 L4,9 L8,9 L8,5 Z M13.126,4 L13.1278638,4.0115751 C13.3826725,5.46823297 14.5317744,6.61732923 15.9884275,6.87213646 L16,6.8728 L16,7.126 L15.9884275,7.12786354 C14.5317744,7.38267077 13.3826725,8.53176703 13.1278638,9.9884249 L13.126,10 L12.8728,10 L12.8721362,9.9884249 C12.6173275,8.53176703 11.4682256,7.38267077 10,7.126 L10,6.8728 L10.0115725,6.87213646 C11.4682256,6.61732923 12.6173275,5.46823297 12.8728,4 L13.126,4 Z M9,12 L9,16 C9,16.5522847 8.55228475,17 8,17 L4,17 C3.44771525,17 3,16.5522847 3,16 L3,12 C3,11.4477153 3.44771525,11 4,11 L8,11 C8.55228475,11 9,11.4477153 9,12 Z M8,12 L4,12 L4,16 L8,16 L8,12 Z M16,12 L16,16 C16,16.5522847 15.5522847,17 15,17 L11,17 C10.4477153,17 10,16.5522847 10,16 L10,12 C10,11.4477153 10.4477153,11 11,11 L15,11 C15.5522847,11 16,11.4477153 16,12 Z M15,12 L11,12 L11,16 L15,16 L15,12 Z" id="形状结合" fill-opacity="1" fill="#000000" fill-rule="evenodd"></path>
    </g>
</svg>