<?xml version="1.0" encoding="UTF-8"?>
<svg width="13.0000033px" height="15.9999932px" viewBox="0 0 13.0000033 15.9999932" version="1.1" xmlns="http://www.w3.org/2000/svg" xmlns:xlink="http://www.w3.org/1999/xlink">
    <title>bigmodel</title>
    <g id="AI助手设置备份" stroke="none" stroke-width="1" fill="none" fill-rule="evenodd">
        <g id="画板" transform="translate(-115.000000, -116.000000)" fill="#536076" fill-rule="nonzero">
            <path d="M127.097216,131.999993 L115.902777,131.999993 C115.404419,131.99943 115.00056,131.592746 115,131.090903 L115,116.909097 C115.00056,116.407254 115.404419,116.00057 115.902777,116.000003 L123.803433,116.000003 C124.042996,115.999344 124.272867,116.095217 124.441809,116.266257 L127.735592,119.583072 C127.905444,119.753195 128.000652,119.984674 128,120.225912 L128,131.090903 C127.999434,131.592746 127.595574,131.99943 127.097216,131.999993 L127.097216,131.999993 Z M115.902777,116.727279 C115.803059,116.727279 115.722222,116.808682 115.722222,116.909097 L115.722222,131.090903 C115.722222,131.191318 115.803059,131.272721 115.902777,131.272721 L127.097216,131.272721 C127.196934,131.272721 127.277771,131.191318 127.277771,131.090903 L127.277771,120.363639 L124.569439,120.363639 C124.071081,120.363076 123.667222,119.956392 123.666662,119.454549 L123.666662,116.727279 L115.902777,116.727279 Z M124.388884,117.241483 L124.388884,119.454549 C124.388884,119.554965 124.469721,119.636367 124.569439,119.636367 L126.767138,119.636367 L124.388884,117.241483 Z M124.749995,127.563633 L118.249998,127.563633 C118.050562,127.563633 117.888887,127.400828 117.888887,127.199997 C117.888887,126.999166 118.050562,126.836361 118.249998,126.836361 L124.749995,126.836361 C124.949431,126.836361 125.111106,126.999166 125.111106,127.199997 C125.111106,127.400828 124.949431,127.563633 124.749995,127.563633 L124.749995,127.563633 Z M124.749995,124.727272 L118.249998,124.727272 C118.050562,124.727272 117.888887,124.564467 117.888887,124.363636 C117.888887,124.162805 118.050562,124 118.249998,124 L124.749995,124 C124.949431,124 125.111106,124.162805 125.111106,124.363636 C125.111106,124.564467 124.949431,124.727272 124.749995,124.727272 L124.749995,124.727272 Z M121.138886,121.963639 L118.249998,121.963639 C118.050562,121.963639 117.888887,121.800833 117.888887,121.600003 C117.888887,121.399172 118.050562,121.236367 118.249998,121.236367 L121.138886,121.236367 C121.338322,121.236367 121.499997,121.399172 121.499997,121.600003 C121.499997,121.800833 121.338322,121.963639 121.138886,121.963639 L121.138886,121.963639 Z" id="bigmodel"></path>
        </g>
    </g>
</svg>