<?xml version="1.0" encoding="UTF-8"?>
<svg width="13px" height="16px" viewBox="0 0 13 16" version="1.1" xmlns="http://www.w3.org/2000/svg" xmlns:xlink="http://www.w3.org/1999/xlink">
    <title>24gl-fileText</title>
    <g id="bug修复相关问题" stroke="none" stroke-width="1" fill="none" fill-rule="evenodd" fill-opacity="0.7">
        <g id="安装交互优化" transform="translate(-442, -1079)" fill="#000000">
            <g id="编组-4备份" transform="translate(215, 895)">
                <g id="编组-5" transform="translate(210, 105)">
                    <g id="选项-copy-6" transform="translate(0, 69)">
                        <g id="24gl-fileText" transform="translate(17, 10)">
                            <path d="M12.0972159,15.9999932 L0.902777304,15.9999932 C0.404419189,15.9994296 0.000559708903,15.5927461 0,15.0909031 L0,0.909096929 C0.000559708903,0.407253958 0.404419189,0.000570418112 0.902777304,3.38018162e-06 L8.80343293,3.38018162e-06 C9.04299643,-0.000656129934 9.27286729,0.095216879 9.44180933,0.26625657 L12.7355923,3.58307193 C12.9054443,3.75319533 13.0006516,3.98467361 13,4.22591231 L13,15.0909031 C12.9994335,15.5927461 12.5955741,15.9994296 12.0972159,15.9999932 L12.0972159,15.9999932 Z M0.902777304,0.727278896 C0.803059279,0.727278896 0.722221853,0.808681609 0.722221853,0.909096929 L0.722221853,15.0909031 C0.722221853,15.1913184 0.803059279,15.2727211 0.902777304,15.2727211 L12.0972159,15.2727211 C12.196934,15.2727211 12.2777714,15.1913184 12.2777714,15.0909031 L12.2777714,4.36363947 L9.56943947,4.36363947 C9.07108135,4.36307584 8.66722187,3.95639229 8.66666217,3.45454931 L8.66666217,0.727278896 L0.902777304,0.727278896 Z M9.38888402,1.24148301 L9.38888402,3.45454931 C9.38888402,3.55496463 9.46972145,3.63636735 9.56943947,3.63636735 L11.767138,3.63636735 L9.38888402,1.24148301 Z M9.74999494,11.563633 L3.24999831,11.563633 C3.05056226,11.563633 2.88888739,11.4008276 2.88888739,11.199997 C2.88888739,10.9991663 3.05056226,10.8363609 3.24999831,10.8363609 L9.74999494,10.8363609 C9.949431,10.8363609 10.1111059,10.9991663 10.1111059,11.199997 C10.1111059,11.4008276 9.949431,11.563633 9.74999494,11.563633 L9.74999494,11.563633 Z M9.74999494,8.72727213 L3.24999831,8.72727213 C3.05056226,8.72727213 2.88888739,8.56446673 2.88888739,8.36363608 C2.88888739,8.16280543 3.05056226,8.00000002 3.24999831,8.00000002 L9.74999494,8.00000002 C9.94943099,8.00000002 10.1111058,8.16280543 10.1111058,8.36363608 C10.1111058,8.56446672 9.94943099,8.72727213 9.74999494,8.72727213 L9.74999494,8.72727213 Z M6.13888571,5.96363879 L3.24999831,5.96363879 C3.05056226,5.96363879 2.88888739,5.80083338 2.88888739,5.60000273 C2.88888739,5.39917208 3.05056226,5.23636667 3.24999831,5.23636667 L6.13888571,5.23636667 C6.33832177,5.23636667 6.49999663,5.39917208 6.49999663,5.60000273 C6.49999663,5.80083338 6.33832177,5.96363879 6.13888571,5.96363879 L6.13888571,5.96363879 Z" id="形状"></path>
                        </g>
                    </g>
                </g>
            </g>
        </g>
    </g>
</svg>