<?xml version="1.0" encoding="UTF-8"?>
<svg width="16px" height="16px" viewBox="0 0 16 16" version="1.1" xmlns="http://www.w3.org/2000/svg" xmlns:xlink="http://www.w3.org/1999/xlink">
    <title>model-light</title>
    <g id="model-light" stroke="none" stroke-width="1" fill="none" fill-rule="evenodd" fill-opacity="0.5">
        <path d="M13.9431257,9.58539058 C14.0628055,9.79799892 13.9874552,10.0673622 13.7748261,10.1870303 L9.0123885,12.8636124 C8.85242762,12.9531872 8.67212746,13.0001516 8.48878986,13.0000013 C8.30449397,13.0002826 8.12322803,12.9531239 7.96244123,12.8630624 L3.22475352,10.1870303 C3.01212445,10.0669066 2.93714353,9.797174 3.05727896,9.58456566 C3.17741439,9.37195732 3.44717332,9.29698371 3.6598024,9.41710743 L8.39749009,12.0931395 C8.45385109,12.1247845 8.52262862,12.1247845 8.57898963,12.0931395 L13.3414273,9.41710743 C13.5540563,9.2974393 13.8234459,9.37278224 13.9431257,9.58539058 Z M3.6598024,7.17938146 L8.39749009,9.85706339 C8.45393426,9.88838875 8.52254545,9.88838875 8.57898963,9.85706339 L13.3414273,7.1810313 C13.4789742,7.10361959 13.6473754,7.10546146 13.7831959,7.1858631 C13.9190164,7.26626474 14.0016217,7.41301122 13.9999476,7.57082457 C13.9981689,7.72863791 13.912373,7.87354252 13.7748261,7.95095422 L9.0123885,10.6275363 C8.85230758,10.7173711 8.67180937,10.7645271 8.48823986,10.764474 C8.30412713,10.7646867 8.1230562,10.7175295 7.96244123,10.6275363 L3.22475352,7.94930438 C3.01212445,7.82918067 2.93714353,7.55944804 3.05727896,7.3468397 C3.17741439,7.13423135 3.44717332,7.05925775 3.6598024,7.17938146 Z M8.45688993,2 C8.55765177,2 8.65671491,2.0259525 8.74453919,2.07534246 L13.5080768,4.75962372 C13.6807684,4.85286771 13.7887213,5.03299321 13.7895327,5.22923379 C13.7903262,5.42547438 13.68385,5.60647654 13.5119268,5.70112945 L8.83143896,8.37551172 C8.74406905,8.42448242 8.64560005,8.45023334 8.54543971,8.45030423 C8.4399332,8.44996779 8.34277394,8.42421268 8.25669046,8.37551172 L3.49260283,5.69288028 C3.3195384,5.59998739 3.2111964,5.41983817 3.21026686,5.22343628 C3.20936068,5.02703439 3.31601418,4.84588061 3.48820283,4.75137454 L8.16924068,2.07534246 C8.2279615,2.04259506 8.29165262,2.02031421 8.35747139,2.00923221 L8.45688993,2 Z M8.45743993,2.928857 L4.44960035,5.21882775 L8.54268971,7.523647 L12.5510793,5.23367626 L8.45743993,2.928857 Z" id="形状" fill="#000000" fill-rule="nonzero"></path>
    </g>
</svg>