<?xml version="1.0" encoding="UTF-8"?>
<svg width="16px" height="16px" viewBox="0 0 16 16" version="1.1" xmlns="http://www.w3.org/2000/svg" xmlns:xlink="http://www.w3.org/1999/xlink">
    <title>send</title>
    <g id="send" stroke="none" stroke-width="1" fill="none" fill-rule="evenodd">
        <path d="M3.30932946,1.66567282 C3.5004928,1.54826015 3.73877461,1.53827209 3.93907937,1.63927465 L15.4942394,7.42069264 C15.6806095,7.51466668 15.8083204,7.69177664 15.841471,7.89405156 L15.8500021,7.99618994 C15.8480373,8.24152746 15.7077161,8.46468607 15.4875611,8.57261925 L3.9320669,14.3542013 C3.73285258,14.451883 3.49683146,14.4403063 3.30760696,14.3232773 C3.11836671,14.2062387 3.00245372,14.0001331 3.00067779,13.7775051 L3.00068018,9.27590602 C2.98952529,8.99856605 3.14008353,8.74321309 3.38537033,8.62029375 L4.50454018,8.06395021 L4.50293685,7.92885747 L3.39077285,7.40853932 C3.14272312,7.28927409 2.98901022,7.03291577 3.00061396,6.7569592 L3.00068018,2.21547775 C3.00135874,1.99121692 3.1181502,1.78309527 3.30932946,1.66567282 Z M3.98477745,2.61815458 L3.87618206,2.68520941 L3.87618206,6.60927548 L4.90059039,7.15369949 L5.63546283,7.52108406 L8.32804809,7.52979248 C8.64773014,7.52979248 8.79470875,7.67686872 8.79470875,7.99679056 C8.79470875,8.31671239 8.64773014,8.46378863 8.32807044,8.46378863 L5.65402179,8.46299993 L4.88576592,8.83284122 L3.90317952,9.32445915 L3.86173836,13.3083717 L3.97029719,13.3754448 L14.5864447,8.06386368 L14.5864447,7.92973573 L3.98477745,2.61815458 Z" id="形状" fill="#FFFFFF" fill-rule="nonzero"></path>
    </g>
</svg>