<?xml version="1.0" encoding="UTF-8"?>
<svg width="16px" height="16px" viewBox="0 0 16 16" version="1.1" xmlns="http://www.w3.org/2000/svg" xmlns:xlink="http://www.w3.org/1999/xlink">
    <title>禁用</title>
    <defs>
        <path d="M0,0 L16,0 L16,16 L0,16 L0,0 Z" id="path-1"></path>
    </defs>
    <g id="AI随航" stroke="none" stroke-width="1" fill="none" fill-rule="evenodd">
        <g id="切图" transform="translate(-34, -121)">
            <g id="禁用" transform="translate(34, 121)" xlink:href="#path-1">
                <rect id="矩形" opacity="0.27011399" x="0" y="0" width="16" height="16"></rect>
                <path d="M7.5,1 C11.0898509,1 14,3.91014913 14,7.5 C14,11.0898509 11.0898509,14 7.5,14 C3.91014913,14 1,11.0898509 1,7.5 C1,3.91014913 3.91014913,1 7.5,1 Z M12.9679863,8.09688504 L2.03201366,8.09688504 C2.32952527,10.8537006 4.6641151,13 7.5,13 C10.3358849,13 12.6704747,10.8537006 12.9679863,8.09688504 Z M7.5,2 C4.59809086,2 2.22109052,4.24740177 2.01456582,7.09663847 L12.9854342,7.09663847 C12.7789095,4.24740177 10.4019091,2 7.5,2 Z" id="形状结合" fill-opacity="0.7" fill="#000000" fill-rule="nonzero"></path>
            </g>
        </g>
    </g>
</svg>