<?xml version="1.0" encoding="UTF-8"?>
<svg width="15px" height="17px" viewBox="0 0 15 17" version="1.1" xmlns="http://www.w3.org/2000/svg" xmlns:xlink="http://www.w3.org/1999/xlink">
    <title>agreement-checked</title>
    <g id="AI助手设置备份" stroke="none" stroke-width="1" fill="none" fill-rule="evenodd">
        <g id="画板" transform="translate(-91.000000, -279.000000)" fill="#FFFFFF">
            <path d="M101.531915,285.925926 L106,288.23428 L105.716543,290.642438 C105.44452,292.95346 103.955211,294.941997 101.814751,295.88323 L101.531915,296 L101.249078,295.88323 C99.2016823,294.98292 97.7500461,293.124396 97.3896248,290.941987 L97.3472867,290.642438 L97.0638298,288.23428 L101.531915,285.925926 Z M98.9348404,279 C99.0207677,279 99.0904255,279.070474 99.0904255,279.157407 L99.0904255,281.833333 C99.0904255,282.70267 99.7870038,283.407407 100.646277,283.407407 L103.291223,283.407407 C103.377151,283.407407 103.446809,283.477881 103.446809,283.564815 L103.446809,285.849111 L101.531915,284.859787 L96.0369072,287.698682 L96.3962291,290.751365 L96.4413499,291.0724 C96.6244844,292.181992 97.0493507,293.215418 97.6677617,294.112461 L92.2446809,294.111111 C91.5572626,294.111111 91,293.547322 91,292.851852 L91,280.259259 C91,279.56379 91.5572626,279 92.2446809,279 L98.9348404,279 Z M102.94284,289.289043 L102.87521,289.381029 L101.511489,291.634148 L100.675718,290.994665 L100.608594,290.90232 C100.410823,290.676363 100.071648,290.615038 99.8017063,290.772006 C99.531765,290.928973 99.4219212,291.251397 99.5265751,291.531499 L99.5759812,291.634148 L100.958552,293.188394 L101.02712,293.282817 C101.275235,293.566199 101.726121,293.570231 101.979813,293.293844 L102.056525,293.191327 L103.971419,290.026378 L104.021388,289.923995 C104.127578,289.644456 104.019506,289.32145 103.750431,289.163043 C103.481356,289.004635 103.141849,289.064147 102.94284,289.289043 Z M99.8111338,279.233579 C99.8697776,279.210123 99.9366163,279.224799 99.9803723,279.270741 L103.179202,282.507037 C103.224612,282.551306 103.239118,282.618927 103.215934,282.678258 C103.192749,282.737588 103.136459,282.776893 103.073404,282.777778 L100.646277,282.777778 C100.130713,282.777778 99.712766,282.354936 99.712766,281.833333 L99.712766,279.377778 C99.7136409,279.313985 99.75249,279.257035 99.8111338,279.233579 Z" id="agreement-checked"></path>
        </g>
    </g>
</svg>