<?xml version="1.0" encoding="UTF-8"?>
<svg width="17.25px" height="12.5357143px" viewBox="0 0 17.25 12.5357143" version="1.1" xmlns="http://www.w3.org/2000/svg" xmlns:xlink="http://www.w3.org/1999/xlink">
    <g id="v1.1.3" stroke="none" stroke-width="1"  fill-rule="evenodd" fill-opacity="0.7">
        <g id="语音按钮状态" transform="translate(-372.375010, -63.375000)" fill-rule="nonzero">
            <g id="编组-4" transform="translate(55.000000, 30.000000)">
                <g id="编组-28" transform="translate(300.000000, 0.000000)">
                    <path d="M18.0000101,36.375 C18.345188,36.375 18.6250101,36.654822 18.6250101,37 L18.6250101,41.2857143 C18.6250101,41.6308923 18.345188,41.9107143 18.0000101,41.9107143 C17.6548321,41.9107143 17.3750101,41.6308923 17.3750101,41.2857143 L17.3750101,37 C17.3750101,36.654822 17.6548321,36.375 18.0000101,36.375 Z M22.0000101,35.375 C22.345188,35.375 22.6250101,35.654822 22.6250101,36 L22.6250101,43.2857143 C22.6250101,43.6308923 22.345188,43.9107143 22.0000101,43.9107143 C21.6548321,43.9107143 21.3750101,43.6308923 21.3750101,43.2857143 L21.3750101,36 C21.3750101,35.654822 21.6548321,35.375 22.0000101,35.375 Z M26.0000101,33.375 C26.345188,33.375 26.6250101,33.654822 26.6250101,34 L26.6250101,45.2857143 C26.6250101,45.6308923 26.345188,45.9107143 26.0000101,45.9107143 C25.6548321,45.9107143 25.3750101,45.6308923 25.3750101,45.2857143 L25.3750101,34 C25.3750101,33.654822 25.6548321,33.375 26.0000101,33.375 Z M30.0000101,35.375 C30.345188,35.375 30.6250101,35.654822 30.6250101,36 L30.6250101,42.2857143 C30.6250101,42.6308923 30.345188,42.9107143 30.0000101,42.9107143 C29.6548321,42.9107143 29.3750101,42.6308923 29.3750101,42.2857143 L29.3750101,36 C29.3750101,35.654822 29.6548321,35.375 30.0000101,35.375 Z M34.0000101,37.375 C34.345188,37.375 34.6250101,37.654822 34.6250101,38 L34.6250101,41.2857143 C34.6250101,41.6308923 34.345188,41.9107143 34.0000101,41.9107143 C33.6548321,41.9107143 33.3750101,41.6308923 33.3750101,41.2857143 L33.3750101,38 C33.3750101,37.654822 33.6548321,37.375 34.0000101,37.375 Z" id="voice"></path>
                </g>
            </g>
        </g>
    </g>
</svg>