<?xml version="1.0" encoding="UTF-8"?>
<svg width="458px" height="116px" viewBox="0 0 458 116" version="1.1" xmlns="http://www.w3.org/2000/svg" xmlns:xlink="http://www.w3.org/1999/xlink">
    <title>英文-dark</title>
    <defs>
        <path d="M420,0 C425.522847,0 430,4.4771525 430,10 L430,22 C430,27.5228475 425.522847,32 420,32 L223.198554,32 C222.080277,32 221.01306,32.4681225 220.255668,33.2908632 L216.471443,37.4015982 C215.723336,38.2142538 214.458087,38.2665803 213.645432,37.5184728 C213.60488,37.4811418 213.565888,37.4421503 213.528557,37.4015982 L209.744332,33.2908632 C208.98694,32.4681225 207.919723,32 206.801446,32 L10,32 L10,32 C4.4771525,32 0,27.5228475 0,22 L0,10 C0,4.4771525 4.4771525,0 10,0 L420,0 Z" id="path-1"></path>
        <filter x="-1.9%" y="-15.4%" width="103.7%" height="138.6%" filterUnits="objectBoundingBox" id="filter-2">
            <feMorphology radius="1" operator="dilate" in="SourceAlpha" result="shadowSpreadOuter1"></feMorphology>
            <feOffset dx="0" dy="2" in="shadowSpreadOuter1" result="shadowOffsetOuter1"></feOffset>
            <feGaussianBlur stdDeviation="2" in="shadowOffsetOuter1" result="shadowBlurOuter1"></feGaussianBlur>
            <feComposite in="shadowBlurOuter1" in2="SourceAlpha" operator="out" result="shadowBlurOuter1"></feComposite>
            <feColorMatrix values="0 0 0 0 0   0 0 0 0 0   0 0 0 0 0  0 0 0 0.2 0" type="matrix" in="shadowBlurOuter1"></feColorMatrix>
        </filter>
        <filter x="-15.4%" y="-7.7%" width="130.8%" height="130.8%" filterUnits="objectBoundingBox" id="filter-3">
            <feOffset dx="0" dy="1" in="SourceAlpha" result="shadowOffsetOuter1"></feOffset>
            <feGaussianBlur stdDeviation="0.5" in="shadowOffsetOuter1" result="shadowBlurOuter1"></feGaussianBlur>
            <feColorMatrix values="0 0 0 0 0   0 0 0 0 0   0 0 0 0 0  0 0 0 0.20036604 0" type="matrix" in="shadowBlurOuter1" result="shadowMatrixOuter1"></feColorMatrix>
            <feMerge>
                <feMergeNode in="shadowMatrixOuter1"></feMergeNode>
                <feMergeNode in="SourceGraphic"></feMergeNode>
            </feMerge>
        </filter>
        <linearGradient x1="108.214078%" y1="39.0940622%" x2="50%" y2="22.6773233%" id="linearGradient-4">
            <stop stop-color="#6448FF" offset="0%"></stop>
            <stop stop-color="#FF37DF" offset="100%"></stop>
        </linearGradient>
        <linearGradient x1="7.56318058%" y1="59.477802%" x2="56.6767213%" y2="26.2923136%" id="linearGradient-5">
            <stop stop-color="#FF02AA" offset="0%"></stop>
            <stop stop-color="#FF8BF4" stop-opacity="0" offset="100%"></stop>
        </linearGradient>
        <linearGradient x1="50%" y1="34.5476641%" x2="22.8225671%" y2="92.5161165%" id="linearGradient-6">
            <stop stop-color="#FBAB60" stop-opacity="0" offset="0%"></stop>
            <stop stop-color="#FCA506" offset="100%"></stop>
        </linearGradient>
        <path d="M2.56468628,-5.47705605e-16 L10.4353137,-1.70662219e-16 C11.327111,9.91596639e-17 11.6504983,0.0928546143 11.976526,0.267216169 C12.3025538,0.441577723 12.5584223,0.697446218 12.7327838,1.02347398 C12.9071454,1.34950174 13,1.67288899 13,2.56468628 L13,10.4353137 C13,11.327111 12.9071454,11.6504983 12.7327838,11.976526 C12.5584223,12.3025538 12.3025538,12.5584223 11.976526,12.7327838 C11.6504983,12.9071454 11.327111,13 10.4353137,13 L2.56468628,13 C1.67288899,13 1.34950174,12.9071454 1.02347398,12.7327838 C0.697446218,12.5584223 0.441577723,12.3025538 0.267216169,11.976526 C0.0928546143,11.6504983 -1.12865176e-16,11.327111 -1.01415396e-15,10.4353137 L2.95786132e-16,2.56468628 C-1.71860261e-16,1.67288899 0.0928546143,1.34950174 0.267216169,1.02347398 C0.441577723,0.697446218 0.697446218,0.441577723 1.02347398,0.267216169 C1.34950174,0.0928546143 1.67288899,-3.838851e-16 2.56468628,-5.47705605e-16 Z" id="path-7"></path>
        <filter x="-7.7%" y="-7.7%" width="115.4%" height="115.4%" filterUnits="objectBoundingBox" id="filter-8">
            <feGaussianBlur stdDeviation="0.5" in="SourceAlpha" result="shadowBlurInner1"></feGaussianBlur>
            <feOffset dx="0" dy="-1" in="shadowBlurInner1" result="shadowOffsetInner1"></feOffset>
            <feComposite in="shadowOffsetInner1" in2="SourceAlpha" operator="arithmetic" k2="-1" k3="1" result="shadowInnerInner1"></feComposite>
            <feColorMatrix values="0 0 0 0 0.0909605101   0 0 0 0 0   0 0 0 0 0.376470588  0 0 0 0.19774537 0" type="matrix" in="shadowInnerInner1"></feColorMatrix>
        </filter>
        <linearGradient x1="40.7675756%" y1="0%" x2="40.7675756%" y2="100%" id="linearGradient-9">
            <stop stop-color="#FFFFFF" stop-opacity="0.403222998" offset="0%"></stop>
            <stop stop-color="#000000" stop-opacity="0.23738493" offset="100%"></stop>
        </linearGradient>
    </defs>
    <g id="AI随航" stroke="none" stroke-width="1" fill="none" fill-rule="evenodd">
        <g id="切图" transform="translate(-131, -723)">
            <g id="英文-dark" transform="translate(131, 723)">
                <g id="编组-5">
                    <rect id="Rectangle-430" x="0" y="0" width="458" height="116" rx="8"></rect>
                </g>
                <g transform="translate(4, 14)">
                    <rect id="Rectangle-430" x="0" y="0" width="450" height="88"></rect>
                    <g id="随航2" transform="translate(10, 16)">
                        <g id="路径">
                            <use fill="black" fill-opacity="1" filter="url(#filter-2)" xlink:href="#path-1"></use>
                            <path stroke-opacity="0.3" stroke="#000000" stroke-width="1" d="M420,-0.5 C422.899495,-0.5 425.524495,0.675252532 427.424621,2.5753788 C429.324747,4.47550506 430.5,7.10050506 430.5,10 L430.5,22 C430.5,24.8994949 429.324747,27.5244949 427.424621,29.4246212 C425.524495,31.3247475 422.899495,32.5 420,32.5 L223.198554,32.5 C222.220061,32.5 221.286247,32.9096072 220.623529,33.6295053 L216.839304,37.7402403 C216.371737,38.24815 215.742563,38.5184569 215.103304,38.5448946 C214.457418,38.5716063 213.801238,38.3493674 213.291042,37.8717144 L209.376471,33.6295053 C208.713753,32.9096072 207.779939,32.5 206.801446,32.5 L10,32.5 C7.10050506,32.5 4.47550506,31.3247475 2.5753788,29.4246212 C0.675252532,27.5244949 -0.5,24.8994949 -0.5,22 L-0.5,10 C-0.5,7.10050506 0.675252532,4.47550506 2.5753788,2.5753788 C4.47550506,0.675252532 7.10050506,-0.5 10,-0.5 Z" fill="#202020" fill-rule="evenodd"></path>
                        </g>
                        <g id="编组-7" transform="translate(42, 0)">
                            <rect id="矩形" x="0" y="0" width="72" height="32" rx="4"></rect>
                            <g id="编组-24" transform="translate(8, 7)">
                                <text id="Search" font-family="SourceHanSansSC-Medium, Source Han Sans SC" font-size="12" font-weight="400" fill="#FFFFFF" fill-opacity="0.7">
                                    <tspan x="16" y="14">Search</tspan>
                                </text>
                                <g id="编组-25" transform="translate(0, 1)">
                                    <path d="M6.36075234,3.5 C6.57814134,3.5 6.79181505,3.51589968 7.000673,3.54659908 L7.00100925,4.23653715 C6.79307879,4.20006927 6.57913744,4.18105211 6.36075234,4.18105211 C4.32868423,4.18105211 2.68136755,5.82760617 2.68136755,7.85873352 C2.68136755,9.88986088 4.32868423,11.5364149 6.36075234,11.5364149 C8.34532971,11.5364149 9.96292929,9.9659236 10.037454,8.0004935 L10.717,8 L10.7140511,8.11571853 C10.6645904,8.96602248 10.3712698,9.75090427 9.90296228,10.4015227 C9.9215212,10.4157738 9.93941919,10.4322319 9.95659776,10.4498172 L11.8061449,12.34315 C12.0690423,12.6122712 12.0638959,13.0434589 11.7946501,13.3062346 C11.5254042,13.5690104 11.0940168,13.5638663 10.8311194,13.2947451 L8.98157226,11.4014123 L8.95063585,11.3658295 C8.2264193,11.9010345 7.33055633,12.217467 6.36075234,12.217467 C3.95237532,12.217467 2,10.2659956 2,7.85873352 C2,5.45147147 3.95237532,3.5 6.36075234,3.5 Z M10.605,2 C10.8188938,3.22352747 11.7764787,4.18110769 12.9903562,4.39344705 L13,4.394 L13,4.605 L12.9903562,4.60655295 C11.7997447,4.81482247 10.8556953,5.74003906 10.6195807,6.9208418 L10.6065532,6.99035409 L10.605,7 L10.394,7 L10.3934468,6.99035409 C10.1811062,5.77647253 9.22352133,4.81889231 8,4.605 L8,4.394 C9.22352133,4.18110769 10.1811062,3.22352747 10.394,2 L10.605,2 Z" id="形状结合" fill-opacity="0.7" fill="#FFFFFF" fill-rule="nonzero"></path>
                                    <rect id="矩形" x="0" y="0" width="14" height="14"></rect>
                                </g>
                            </g>
                        </g>
                        <g id="编组-7" transform="translate(193, 0)">
                            <rect id="矩形" x="0" y="0" width="90" height="32" rx="4"></rect>
                            <g id="编组-24" transform="translate(8, 7)">
                                <text id="Summary" font-family="SourceHanSansSC-Medium, Source Han Sans SC" font-size="12" font-weight="400" fill="#FFFFFF" fill-opacity="0.7">
                                    <tspan x="16" y="14">Summary</tspan>
                                </text>
                                <g id="编组-46" transform="translate(2, 4)">
                                    <g id="编组" transform="translate(4.0423, 0)" fill="#FFFFFF" fill-opacity="0.7" fill-rule="nonzero">
                                        <path d="M5.02302382,0.000314022287 C5.6607811,-0.0122510101 6.25289816,0.353123421 6.55444596,0.940915554 C6.85477784,1.52633755 6.81719842,2.23532743 6.47563313,2.7406622 L2.96563822,9.24479562 L2.82011027,9.39873121 L0.619918229,10.7414709 C0.35354451,10.9040342 0.0153254407,10.7088193 0.0137188184,10.3915818 L0,7.68271633 L0.049893533,7.48251658 L3.54507519,1.00873786 C3.80992609,0.404671986 4.38244547,0.0129346352 5.02302382,0.000314022287 Z M3.43413965,2.90448357 L0.801078056,7.78570239 L0.811003893,9.66920888 L2.31439865,8.75175019 L4.96287626,3.84770713 L3.43413965,2.90448357 Z M4.33558409,1.23116935 L4.26172227,1.37453636 L3.82262922,2.18642196 L5.35136583,3.12964553 L5.79429046,2.31055673 C5.96310154,2.05911078 5.99977416,1.73390631 5.8971288,1.44372301 L5.84458734,1.32182003 C5.68283525,1.00652473 5.36998111,0.813473546 5.03846379,0.820005068 C4.79194161,0.824862025 4.5645762,0.93947773 4.40783252,1.12983589 L4.33558409,1.23116935 Z" id="形状"></path>
                                    </g>
                                    <line x1="0.162810634" y1="1.65569626" x2="6.03724668" y2="1.65569626" id="路径" stroke-opacity="0.7" stroke="#FFFFFF" stroke-width="0.855356509" stroke-linecap="round" stroke-linejoin="round"></line>
                                    <line x1="0" y1="4.40010563" x2="3.97056091" y2="4.40010563" id="路径" stroke-opacity="0.7" stroke="#FFFFFF" stroke-width="0.855356509" stroke-linecap="round" stroke-linejoin="round"></line>
                                    <line x1="0" y1="7.04215164" x2="1.90387514" y2="7.04215164" id="路径" stroke-opacity="0.7" stroke="#FFFFFF" stroke-width="0.855356509" stroke-linecap="round" stroke-linejoin="round"></line>
                                </g>
                                <rect id="矩形" x="0" y="2" width="14" height="14"></rect>
                            </g>
                        </g>
                        <g id="编组-7" transform="translate(116, 0)">
                            <rect id="矩形" x="0" y="0" width="75" height="32" rx="4"></rect>
                            <g id="编组-24" transform="translate(8, 7)">
                                <text id="Explain" font-family="SourceHanSansSC-Medium, Source Han Sans SC" font-size="12" font-weight="400" fill="#FFFFFF" fill-opacity="0.7">
                                    <tspan x="16" y="14">Explain</tspan>
                                </text>
                                <g id="编组" transform="translate(0, 2)">
                                    <g id="编组-26">
                                        <path d="M10.400974,1.5 C10.9568291,1.5 11.4090909,1.98499306 11.4090909,2.58536661 L11.4090909,9.92605299 C11.4090909,9.99945673 11.3941799,10.0657472 11.3624129,10.1338793 L11.0266539,10.8539965 C10.9092213,11.105658 10.9092213,11.4016322 11.0266852,11.6533608 L11.3611089,12.3719355 C11.4280762,12.5087695 11.4236222,12.6684897 11.3515086,12.7965035 C11.2801488,12.9231793 11.1532476,13 11.0170455,13 L3.62418831,13 C2.7280864,13 2,12.2192203 2,11.2539754 L2,3.24602455 C2,2.28077969 2.7280864,1.5 3.62418831,1.5 L10.400974,1.5 Z M10.3391947,10.3573682 L3.62393531,10.3573682 C3.17851707,10.3578982 2.81208778,10.7288671 2.78620454,11.2016759 C2.76034128,11.6741199 3.08328079,12.0878832 3.52517424,12.1442466 L3.6105666,12.1501461 L10.3511903,12.1505826 L10.2478918,11.837241 C10.1376502,11.5028387 10.1247486,11.1402714 10.2109188,10.7977788 L10.3391947,10.3573682 Z M10.625,2.34941735 L3.62418831,2.34941735 C3.19732837,2.34941735 2.83942099,2.69072868 2.78988812,3.14160791 L2.78447667,3.23218389 L2.78409091,9.71952318 L3.08370005,9.60642821 C3.22037175,9.55483805 3.36420023,9.52288152 3.51115011,9.51199383 L3.63182356,9.50781382 L10.625,9.50795089 L10.625,2.34941735 Z M6.70454731,7.68119292 C7.00149062,7.68119292 7.24220798,7.93468804 7.24220798,8.24738888 C7.24220798,8.6832462 6.79415742,8.95565507 6.43571698,8.73772641 C6.07727282,8.51979775 6.07727282,7.97498001 6.43571698,7.75705135 C6.51745189,7.70735532 6.6101675,7.68119292 6.70454731,7.68119292 Z M6.70454545,3.15164485 C7.69294799,3.15164485 8.49675325,3.913648 8.49675325,4.85022489 C8.49675325,5.67026412 7.88023657,6.35677265 7.06298776,6.5148345 L7.06298776,6.54880884 C7.06298776,6.68366173 6.9946704,6.80827343 6.88376753,6.87569792 C6.64480724,7.0209837 6.34610687,6.83937648 6.34610687,6.54880884 L6.34610687,6.17134357 C6.34610687,5.96286982 6.50657891,5.79387438 6.70454545,5.7938822 C7.29731951,5.7938822 7.77987236,5.36923622 7.77987236,4.85022489 C7.77987236,4.33121356 7.29731951,3.90656757 6.70454545,3.90656757 C6.11177511,3.90656757 5.62922227,4.33121356 5.62922227,4.85022489 L5.62922227,5.03895557 C5.62922227,5.17381238 5.56090491,5.29842407 5.45000204,5.36584856 C5.21104175,5.51113749 4.91233766,5.32952712 4.91233766,5.03895557 L4.91233766,4.85022489 C4.91233766,3.913648 5.71614292,3.15164485 6.70454545,3.15164485 Z" id="形状" fill-opacity="0.7" fill="#FFFFFF" fill-rule="nonzero"></path>
                                        <rect id="矩形" x="0" y="0" width="14" height="14"></rect>
                                    </g>
                                    <g transform="translate(2, 2)"></g>
                                </g>
                            </g>
                        </g>
                        <g id="编组-7" transform="translate(285, 0)">
                            <rect id="矩形" x="0" y="0" width="86" height="32" rx="4"></rect>
                            <g id="编组-24" transform="translate(8, 7)">
                                <text id="Translate" font-family="SourceHanSansSC-Medium, Source Han Sans SC" font-size="12" font-weight="400" fill="#FFFFFF" fill-opacity="0.7">
                                    <tspan x="16" y="14">Translate</tspan>
                                </text>
                                <g id="编组" transform="translate(0, 2)">
                                    <path d="M2.1875,9.6875 L2.1875,10.6875 C2.1875,11.2397847 2.63521525,11.6875 3.1875,11.6875 L5.1875,11.6875 L5.1875,12.6875 L3.1875,12.6875 C2.0829305,12.6875 1.1875,11.7920695 1.1875,10.6875 L1.1875,9.6875 L2.1875,9.6875 Z M9.9375,6.375 L12.375,12.46875 L11.5015625,12.46875 L10.8515625,10.84375 L8.06875,10.84375 L7.41875,12.46875 L6.5453125,12.46875 L8.9828125,6.375 L9.9375,6.375 Z M9.458125,7.36625 L8.39375,10.03125 L10.5265625,10.03125 L9.458125,7.36625 Z M4.65625,1.5 L4.65625,2.71875 L7.5,2.71875 L7.5,3.53125 L6.2,3.53125 C5.93230197,4.67977401 5.38529596,5.74448215 4.6075,6.6309375 C5.19519282,7.23049213 5.90441406,7.69730376 6.6875,8 L6.3990625,8.7475 C5.51988501,8.39432738 4.72321319,7.86321283 4.0590625,7.1875 C3.38264256,7.85409481 2.58582878,8.38622304 1.7109375,8.755625 L1.40625,8 C2.18485161,7.6703896 2.89560839,7.19930662 3.5025,6.610625 C2.95337971,5.9409901 2.53947373,5.17112498 2.28375,4.34375 L3.136875,4.34375 C3.34381352,4.96048642 3.65882607,5.53548749 4.0671875,6.041875 C4.69363399,5.32061603 5.13803275,4.4596805 5.363125,3.53125 L1,3.53125 L1,2.71875 L3.84375,2.71875 L3.84375,1.5 L4.65625,1.5 Z M10.1875,1.6875 C11.2920695,1.6875 12.1875,2.5829305 12.1875,3.6875 L12.1875,5.6875 L11.1875,5.6875 L11.1875,3.6875 C11.1875,3.13521525 10.7397847,2.6875 10.1875,2.6875 L8.1875,2.6875 L8.1875,1.6875 L10.1875,1.6875 Z" id="形状结合" fill-opacity="0.7" fill="#FFFFFF" fill-rule="nonzero"></path>
                                    <polygon id="_Transparent_Rectangle_" points="0 0 14 0 14 14 0 14"></polygon>
                                </g>
                            </g>
                        </g>
                        <g id="编组-3" transform="translate(373, 4)">
                            <rect id="矩形" fill-opacity="0.05" fill="#FFFFFF" x="0" y="5" width="1" height="15"></rect>
                            <g id="编组-10" transform="translate(3, 0)">
                                <rect id="矩形" x="0" y="0" width="24" height="24" rx="4"></rect>
                                <path d="M13.921875,8.72727273 L14.25,8.72727273 L14.25,8 L13.921875,8 L7.828125,8 L7.5,8 L7.5,8.72727273 L7.828125,8.72727273 L13.921875,8.72727273 Z M16.1823529,12.3636364 L16.5,12.3636364 L16.5,11.6363636 L16.1823529,11.6363636 L7.81764706,11.6363636 L7.5,11.6363636 L7.5,12.3636364 L7.81764706,12.3636364 L16.1823529,12.3636364 Z M16.1823529,16 L16.5,16 L16.5,15.2727273 L16.1823529,15.2727273 L7.81764706,15.2727273 L7.5,15.2727273 L7.5,16 L7.81764706,16 L16.1823529,16 Z" id="Combined-Shape" fill-opacity="0.7" fill="#FFFFFF" fill-rule="nonzero"></path>
                            </g>
                            <g id="编组-10" transform="translate(29, 0)" fill="#FFFFFF" fill-opacity="0.7">
                                <polygon id="Combined-Shape" points="9.06066017 16.131728 8.70710678 16.4852814 8 15.7781746 8.35355339 15.4246212 11.5355339 12.2426407 8.35355339 9.06066017 8 8.70710678 8.70710678 8 9.06066017 8.35355339 12.2426407 11.5355339 15.4246212 8.35355339 15.7781746 8 16.4852814 8.70710678 16.131728 9.06066017 12.9497475 12.2426407 16.131728 15.4246212 16.4852814 15.7781746 15.7781746 16.4852814 15.4246212 16.131728 12.2426407 12.9497475"></polygon>
                            </g>
                        </g>
                        <g id="apps/24/UosAiAssistant" transform="translate(23.5, 9.5)" fill-rule="nonzero">
                            <g id="编组" filter="url(#filter-3)">
                                <g id="Rectangle-245">
                                    <use fill="url(#linearGradient-4)" xlink:href="#path-7"></use>
                                    <use fill="url(#linearGradient-5)" xlink:href="#path-7"></use>
                                    <use fill="url(#linearGradient-6)" xlink:href="#path-7"></use>
                                    <use fill="black" fill-opacity="1" filter="url(#filter-8)" xlink:href="#path-7"></use>
                                </g>
                                <path d="M10.4353136,0 C11.3271109,0 11.6504982,0.0928546192 11.976526,0.267216183 C12.3025537,0.441577746 12.5584223,0.697446254 12.7327838,1.02347403 C12.9071454,1.34950181 13,1.67288907 13,2.56468641 L13,10.4353136 C13,11.3271109 12.9071454,11.6504982 12.7327838,11.976526 C12.5584223,12.3025537 12.3025537,12.5584223 11.976526,12.7327838 C11.6504982,12.9071454 11.3271109,13 10.4353136,13 L2.56468641,13 C1.67288907,13 1.34950181,12.9071454 1.02347403,12.7327838 C0.697446254,12.5584223 0.441577746,12.3025537 0.267216183,11.976526 C0.0928546192,11.6504982 0,11.3271109 0,10.4353136 L0,2.56468641 C0,1.67288907 0.0928546192,1.34950181 0.267216183,1.02347403 C0.441577746,0.697446254 0.697446254,0.441577746 1.02347403,0.267216183 C1.34950181,0.0928546192 1.67288907,0 2.56468641,0 L10.4353136,0 Z M2.56468641,0.125 C1.77048637,0.125 1.43235923,0.190295363 1.08242389,0.377442832 C0.778179671,0.540154421 0.540154421,0.778179671 0.377442832,1.08242389 C0.190295363,1.43235923 0.125,1.77048637 0.125,2.56468641 L0.125,10.4353136 C0.125,11.2295136 0.190295363,11.5676408 0.377442832,11.9175761 C0.540154421,12.2218203 0.778179671,12.4598456 1.08242389,12.6225572 C1.43235923,12.8097046 1.77048637,12.875 2.56468641,12.875 L10.4353136,12.875 C11.2295136,12.875 11.5676408,12.8097046 11.9175761,12.6225572 C12.2218203,12.4598456 12.4598456,12.2218203 12.6225572,11.9175761 C12.8097046,11.5676408 12.875,11.2295136 12.875,10.4353136 L12.875,2.56468641 C12.875,1.77048637 12.8097046,1.43235923 12.6225572,1.08242389 C12.4598456,0.778179671 12.2218203,0.540154421 11.9175761,0.377442832 C11.5676408,0.190295363 11.2295136,0.125 10.4353136,0.125 L2.56468641,0.125 Z" id="Rectangle-245" fill="url(#linearGradient-9)"></path>
                                <path d="M5.05184668,11.1254821 L4.96505748,11.120922 L4.91749984,11.1193052 L5.05184668,11.1254821 C4.97977509,11.1254821 4.90797022,11.1208432 4.83671361,11.1118166 C4.18033484,11.0345521 3.59434744,10.647207 3.26878985,10.0613904 L2.526487,8.72518399 L1.7921248,7.51680658 C1.43007285,6.88062958 1.45521592,6.09021446 1.83747245,5.44209786 L3.26663039,3.0189581 C3.63871079,2.38809514 4.31656168,2.00092198 5.04897679,2.00092198 L7.95771907,2.00092198 C8.68688139,2.00092198 9.36222374,2.38469131 9.73541575,3.01111402 L10.4907286,4.278947 L11.1801646,5.51865112 C11.5469476,6.16314117 11.5408176,6.95462814 11.1640963,7.59335983 L9.73493834,10.0164996 C9.34651298,10.6750755 8.66227838,11.1254821 7.95259193,11.1254821 L5.05184668,11.1254821 Z M7.78914915,5.07748209 L6.9378684,6.50407468 C6.87163333,6.61507922 6.80874551,6.72047405 6.74920493,6.82025917 L6.47190345,7.28499372 C6.34139397,7.5037169 6.23559223,7.68103194 6.15449823,7.81693885 C6.09696105,7.91336644 6.04226303,8.00503583 5.99040418,8.09194702 L5.91605748,8.21592198 L5.86942615,8.29469626 C5.79342058,8.42207536 5.69569883,8.53199353 5.5825745,8.6208659 L5.60503613,8.60277556 C5.5738235,8.62854821 5.54132312,8.65269809 5.50769606,8.67512854 C5.49600609,8.68293381 5.48370574,8.69082405 5.47126639,8.69848451 C5.46167277,8.70438946 5.45223805,8.71001822 5.44272759,8.71551542 C5.42189813,8.72755504 5.40071043,8.73896098 5.3791893,8.74971921 C5.37323952,8.75269326 5.36729358,8.75560374 5.36132303,8.75846485 C5.33291194,8.77208158 5.30387893,8.78460512 5.27435316,8.79596762 L5.25052591,8.80484627 L5.23484794,8.81037503 C5.20124882,8.82196048 5.16706693,8.83206339 5.13239709,8.84062992 C5.11069812,8.84599212 5.08877561,8.8507586 5.06668472,8.85490821 C5.04710838,8.85858605 5.02736702,8.86178394 5.00750932,8.86448653 L4.99128822,8.86658072 C4.98762259,8.86702837 4.98395317,8.86745916 4.98028006,8.86787303 L5.00750932,8.86448653 C4.9801232,8.86821282 4.95255509,8.87099446 4.92480902,8.87281251 C4.91209385,8.87364874 4.89905625,8.87429208 4.88598394,8.87472145 L4.84676507,8.87536514 L3.33377415,8.87526238 L3.80505816,9.69424806 C4.04854881,10.110701 4.44832978,10.4094937 4.85837376,10.4829589 C4.87422607,10.4862248 4.89027357,10.4884125 4.90638197,10.4903319 L4.85837376,10.4829589 C4.89533499,10.489581 4.9323796,10.4943724 4.96940065,10.497254 L4.90638197,10.4903319 C4.96276134,10.49705 5.01988666,10.5004821 5.0775095,10.5004821 L5.86541079,10.5004821 C6.17586912,10.5004821 6.46214942,10.3328996 6.61414075,10.0621913 L8.3462422,6.97718435 C8.48878206,6.72330981 8.492965,6.41450001 8.35735381,6.15685782 L7.78914915,5.07748209 Z M10.0383992,4.75138738 L8.32305748,4.75092198 L8.91041883,5.86574945 C9.14473717,6.31092136 9.1375096,6.8445042 8.89121941,7.2831661 L7.15911797,10.368173 C7.13335849,10.4140526 7.10536663,10.458218 7.07532195,10.5005638 L7.95259193,10.5004821 C8.42448962,10.5004821 8.91388085,10.1783337 9.19659697,9.69898806 L10.6257549,7.2758483 C10.888691,6.83003964 10.8929695,6.27761404 10.6354465,5.82507808 L10.0383992,4.75138738 Z M6.01005748,2.62492198 L5.04897679,2.62592198 C4.53778094,2.62592198 4.06466868,2.89615304 3.80497175,3.33646964 L2.37581381,5.7596094 C2.10455696,6.21952586 2.08700362,6.77134498 2.33075929,7.19992014 L2.96923989,8.25036514 L4.76505748,8.24992198 L4.67096429,8.10715218 C4.53606495,7.90243733 4.37132141,7.65243277 4.17673368,7.35713852 C3.86493874,6.88397789 3.84988325,6.27454068 4.13793428,5.78656152 L5.94197363,2.730389 L6.01005748,2.62492198 Z M7.94873307,4.18089992 C7.97181107,4.17366623 7.99497616,4.1671669 8.01836383,4.16136685 C8.04036443,4.15590951 8.06262682,4.15105877 8.08506287,4.14684432 C8.10466848,4.14316098 8.12443951,4.13995904 8.1443272,4.13725389 L8.16045937,4.13517181 C8.16413689,4.13472271 8.16781821,4.13429058 8.17150325,4.13387547 L8.1443272,4.13725389 C8.17143961,4.13356485 8.19881997,4.1307957 8.22637618,4.128977 C8.2394577,4.12811347 8.25259306,4.12746367 8.26576365,4.12703107 L8.30498252,4.12638738 L9.66748989,4.12649014 L9.19651057,3.34120964 C8.94450137,2.91018701 8.48837751,2.64076517 7.99124148,2.62651667 L7.21964974,2.62592198 C6.9158355,2.62592198 6.63463757,2.78646706 6.48019772,3.04809929 L4.67615837,6.1042718 C4.50944952,6.38668859 4.51816285,6.73939893 4.69861343,7.01323951 L5.33271041,7.97444447 L7.28232144,4.70705626 L7.32405748,4.64492198 L7.35756294,4.5957218 L7.44685428,4.49151192 C7.48253367,4.45468069 7.51722946,4.42290524 7.55358851,4.39334264 C7.55940189,4.38849832 7.57238912,4.37822322 7.58557632,4.36822914 C7.60738404,4.35171549 7.62933934,4.33623127 7.65178083,4.32151213 C7.66588689,4.31224184 7.68108525,4.30273819 7.69648848,4.29358273 C7.72165284,4.2786429 7.74680752,4.26490962 7.77243518,4.25209487 C7.78199728,4.24731478 7.79150646,4.24271801 7.80107735,4.23824742 C7.82982321,4.224816 7.85925858,4.21247336 7.88918673,4.20131837 C7.89673133,4.19852413 7.90142722,4.19682104 7.90613483,4.19514716 L7.94873307,4.18089992 Z" id="形状结合" fill="#FFFFFF"></path>
                            </g>
                        </g>
                        <rect id="矩形" fill-opacity="0.2" fill="#FFFFFF" x="9" y="10" width="1" height="12"></rect>
                        <rect id="矩形备份" fill-opacity="0.2" fill="#FFFFFF" x="13" y="10" width="1" height="12"></rect>
                    </g>
                    <g id="编组-6" transform="translate(202, 58)">
                        <rect id="矩形" fill-opacity="0.2" fill="#0059D2" x="0" y="0" width="48" height="24" rx="4"></rect>
                        <text id="Hello" font-family="SourceHanSansSC-Medium, Source Han Sans SC" font-size="13" font-weight="400" letter-spacing="1" fill="#FFFFFF" fill-opacity="0.85">
                            <tspan x="6" y="17">Hello</tspan>
                        </text>
                    </g>
                </g>
            </g>
        </g>
    </g>
</svg>