<?xml version="1.0" encoding="UTF-8"?>
<svg width="16px" height="16px" viewBox="0 0 16 16" version="1.1" xmlns="http://www.w3.org/2000/svg" xmlns:xlink="http://www.w3.org/1999/xlink">
    <title>retry-dark</title>
    <g id="retry-dark" stroke="none" stroke-width="1" fill="none" fill-rule="evenodd" fill-opacity="0.7">
        <path d="M11.538387,3.01240604 C11.6182411,2.97901354 11.7106311,3.01535243 11.7448543,3.09355472 L12.5685926,4.98219515 C12.5744845,4.9955767 12.5783706,5.00981762 12.5801257,5.02430407 C12.5905305,5.10876745 12.5289789,5.18549654 12.4427315,5.19568616 L10.3606331,5.441342 C10.326786,5.44527053 10.2926881,5.43851837 10.2632286,5.42182213 C10.1880128,5.3793449 10.1621887,5.2850602 10.2056885,5.21140028 L10.6340425,4.48351747 C8.41492593,3.38291545 5.67845014,4.16211467 4.41958854,6.29739308 C3.11660034,8.50755907 3.88981866,11.3337676 6.14666843,12.609803 C8.4035182,13.8858384 11.2892973,13.1286144 12.5922855,10.9184484 C12.956706,10.3003188 13.1659313,9.62191095 13.2144455,8.92594744 C13.2292379,8.71380686 13.416776,8.55347376 13.6335228,8.56796021 C13.8501443,8.58244666 14.013864,8.76610541 13.9990715,8.97836875 C13.9425343,9.7908377 13.698083,10.5830502 13.2733645,11.303567 C11.7532534,13.8820326 8.38646929,14.7655834 5.75341521,13.2767936 C3.12036113,11.7880038 2.21827309,8.49098559 3.73850956,5.91239721 C5.21474479,3.40845089 8.4321002,2.5029249 11.0280478,3.81579027 L11.4639233,3.077104 C11.4809722,3.04825387 11.5070471,3.02554206 11.538387,3.01240604 Z" id="路径" fill="#FFFFFF" fill-rule="nonzero"></path>
    </g>
</svg>