<?xml version="1.0" encoding="UTF-8"?>
<svg width="16px" height="16px" viewBox="0 0 16 16" version="1.1" xmlns="http://www.w3.org/2000/svg" xmlns:xlink="http://www.w3.org/1999/xlink">
    <title>tip-dark</title>
    <g id="tip-dark" stroke="none" stroke-width="1" fill="none" fill-rule="evenodd" fill-opacity="0.7">
        <path d="M8,2 C11.3137085,2 14,4.6862915 14,8 C14,11.3137085 11.3137085,14 8,14 C4.6862915,14 2,11.3137085 2,8 C2,4.6862915 4.6862915,2 8,2 Z M8,2.85714286 C5.15967843,2.85714286 2.85714286,5.15967843 2.85714286,8 C2.85714286,10.8403216 5.15967843,13.1428571 8,13.1428571 C10.8403216,13.1428571 13.1428571,10.8403216 13.1428571,8 C13.1428571,5.15967843 10.8403216,2.85714286 8,2.85714286 Z M8.4218,6.5789 C8.54574515,6.5789 8.6246,6.62395991 8.62444752,6.72477482 C8.57014042,7.48507428 8.543,8.07537837 8.543,8.4953 L8.543,10.0967 C8.543,10.4168584 8.58256362,10.6235582 8.65442193,10.7115479 C8.7253021,10.79834 8.90236756,10.8634492 9.18404208,10.8990633 C9.27424208,10.9103383 9.3182,10.9845173 9.3182,11.0963 C9.3182,11.2202452 9.27314009,11.2991 9.1766,11.2991 C9.03508555,11.2991 8.85481363,11.2887987 8.63611727,11.2682927 C8.39285323,11.2480207 8.1887516,11.2379 8.024,11.2379 C7.85587541,11.2379 7.65353456,11.248017 7.41768855,11.2682297 C7.20174509,11.2887958 7.02313847,11.2991 6.8816,11.2991 C6.78505991,11.2991 6.74,11.2202452 6.74,11.0963 C6.74,10.9845173 6.78395792,10.9103383 6.87389951,10.8990962 C7.14896721,10.8634992 7.32256922,10.7984975 7.39357807,10.7115479 C7.46543638,10.6235582 7.505,10.4168584 7.505,10.0967 L7.505,8.2097 C7.505,7.95070881 7.47231424,7.78329393 7.41405393,7.71224478 C7.35676938,7.64238557 7.21758192,7.59106505 7.004,7.5659 C6.90874254,7.5659 6.8624,7.49059338 6.8624,7.3733 C6.8624,7.26247795 6.91011863,7.1909 6.98905754,7.19279042 C7.3429057,7.1018009 7.63209439,7.00512445 7.85634112,6.90304198 C8.07631759,6.80290343 8.21364826,6.72034155 8.26350672,6.66168894 C8.3081737,6.60808857 8.36168607,6.5789 8.4218,6.5789 Z M8.0138,4.34 C8.17571881,4.34 8.31578593,4.39717025 8.43072434,4.51022442 C8.54598363,4.62359421 8.6042,4.7648405 8.6042,4.9304 C8.6042,5.0891003 8.54605593,5.2282648 8.43141992,5.34478009 C8.31647667,5.46160766 8.17613353,5.5208 8.0138,5.5208 C7.85146647,5.5208 7.71112333,5.46160766 7.59618008,5.34478009 C7.48154407,5.2282648 7.4234,5.0891003 7.4234,4.9304 C7.4234,4.76504674 7.48060424,4.62394294 7.59397359,4.51057359 C7.70734294,4.39720424 7.84844674,4.34 8.0138,4.34 Z" id="tipbtn-dark" fill="#FFFFFF" fill-rule="nonzero"></path>
    </g>
</svg>