<?xml version="1.0" encoding="UTF-8"?>
<svg width="20px" height="20px" viewBox="0 0 20 20" version="1.1" xmlns="http://www.w3.org/2000/svg" xmlns:xlink="http://www.w3.org/1999/xlink">
    <title>纠错</title>
    <g id="AI随航" stroke="none" stroke-width="1" fill="none" fill-rule="evenodd">
        <g id="切图" transform="translate(-302, -197)">
            <g id="纠错" transform="translate(302, 197)">
                <rect id="矩形备份-3" opacity="0.27011399" x="0" y="0" width="20" height="20"></rect>
                <path d="M9.61047408,3 C13.2613381,3 16.2209482,5.95961006 16.2209482,9.61047408 C16.2209482,11.1840341 15.6711417,12.62918 14.7531532,13.7642873 L16.6386531,15.6505219 C16.9510725,15.9629414 16.9510725,16.4694734 16.6386531,16.7818928 C16.3262336,17.0943122 15.8197017,17.0943122 15.5072822,16.7818928 L13.6039948,14.8787697 C12.4945436,15.7210705 11.1108852,16.2209482 9.61047408,16.2209482 C5.95961006,16.2209482 3,13.2613381 3,9.61047408 C3,5.95961006 5.95961006,3 9.61047408,3 Z M9.61047408,4.10174568 C6.56808739,4.10174568 4.10174568,6.56808739 4.10174568,9.61047408 C4.10174568,12.6528608 6.56808739,15.1192025 9.61047408,15.1192025 C12.6528608,15.1192025 15.1192025,12.6528608 15.1192025,9.61047408 C15.1192025,6.56808739 12.6528608,4.10174568 9.61047408,4.10174568 Z M8.44189632,7.66284448 L9.61047408,8.83072735 L10.7790518,7.66284448 C10.9941811,7.44771525 11.3429745,7.44771525 11.5581037,7.66284448 C11.7732329,7.8779737 11.7732329,8.22676709 11.5581037,8.44189632 L10.3897058,9.60995902 L11.5581037,10.7790518 C11.7732329,10.9941811 11.7732329,11.3429745 11.5581037,11.5581037 C11.3429745,11.7732329 10.9941811,11.7732329 10.7790518,11.5581037 L9.61047408,10.3891907 L8.44189632,11.5581037 C8.22676709,11.7732329 7.8779737,11.7732329 7.66284448,11.5581037 C7.44771525,11.3429745 7.44771525,10.9941811 7.66284448,10.7790518 L8.83124241,9.60995902 L7.66284448,8.44189632 C7.44771525,8.22676709 7.44771525,7.8779737 7.66284448,7.66284448 C7.8779737,7.44771525 8.22676709,7.44771525 8.44189632,7.66284448 Z" id="形状结合" fill-opacity="0.7" fill="#FFFFFF" fill-rule="nonzero"></path>
            </g>
        </g>
    </g>
</svg>