<?xml version="1.0" encoding="UTF-8"?>
<svg width="20px" height="20px" viewBox="0 0 20 20" version="1.1" xmlns="http://www.w3.org/2000/svg" xmlns:xlink="http://www.w3.org/1999/xlink">
    <title>纠错</title>
    <g id="纠错" stroke="none" fill="none">
        <rect id="矩形备份-3" opacity="0.27011399" x="0" y="0" width="20" height="20"></rect>
        <path d="M9.5,3 C13.0898509,3 16,5.91014913 16,9.5 C16,11.0429014 15.4624254,12.4602455 14.5643593,13.5749491 L16.6386531,15.6505219 C16.9510725,15.9629414 16.9510725,16.4694734 16.6386531,16.7818928 C16.3262336,17.0943122 15.8197017,17.0943122 15.5072822,16.7818928 L13.4145601,14.6895077 C12.3257177,15.512137 10.9698321,16 9.5,16 C5.91014913,16 3,13.0898509 3,9.5 C3,5.91014913 5.91014913,3 9.5,3 Z M9.5,4 C6.46243388,4 4,6.46243388 4,9.5 C4,12.5375661 6.46243388,15 9.5,15 C12.5375661,15 15,12.5375661 15,9.5 C15,6.46243388 12.5375661,4 9.5,4 Z M8.44189632,7.66284448 L9.61047408,8.83072735 L10.7790518,7.66284448 C10.9941811,7.44771525 11.3429745,7.44771525 11.5581037,7.66284448 C11.7732329,7.8779737 11.7732329,8.22676709 11.5581037,8.44189632 L10.3897058,9.60995902 L11.5581037,10.7790518 C11.7732329,10.9941811 11.7732329,11.3429745 11.5581037,11.5581037 C11.3429745,11.7732329 10.9941811,11.7732329 10.7790518,11.5581037 L9.61047408,10.3891907 L8.44189632,11.5581037 C8.22676709,11.7732329 7.8779737,11.7732329 7.66284448,11.5581037 C7.44771525,11.3429745 7.44771525,10.9941811 7.66284448,10.7790518 L8.83124241,9.60995902 L7.66284448,8.44189632 C7.44771525,8.22676709 7.44771525,7.8779737 7.66284448,7.66284448 C7.8779737,7.44771525 8.22676709,7.44771525 8.44189632,7.66284448 Z" id="形状结合" fill-opacity="1" fill="#FFFFFF" fill-rule="evenodd"></path>
    </g>
</svg>