<?xml version="1.0" encoding="UTF-8"?>
<svg width="15px" height="15px" viewBox="0 0 15 15" version="1.1" xmlns="http://www.w3.org/2000/svg" xmlns:xlink="http://www.w3.org/1999/xlink">
    <title>agency-checked</title>
    <g id="AI助手设置备份" stroke="none" stroke-width="1" fill="none" fill-rule="evenodd">
        <g id="画板" transform="translate(-91.000000, -328.000000)" fill="#FFFFFF" fill-rule="nonzero">
            <path d="M106,335.886719 C105.991205,336.053711 105.978012,336.220703 105.95749,336.384766 C105.519203,340.109863 102.350044,343 98.5051305,343 C96.8516564,343 95.3227792,342.465332 94.0826737,341.560059 C94.0079156,341.259766 93.9478159,340.953613 93.9038405,340.645996 C94.0650836,340.638672 94.2263266,340.626953 94.3846379,340.61084 C95.4942832,340.500977 96.5452946,340.196289 97.5054236,339.730469 C97.6842568,339.869629 97.9085312,339.953125 98.1533275,339.953125 C98.6150689,339.953125 99.0064497,339.657227 99.1501026,339.245605 C101.343008,339.176758 103.343887,338.347656 104.897684,337.011719 C105.114629,336.825684 105.321313,336.629395 105.520668,336.424316 C105.686309,336.251465 105.847552,336.072754 106,335.886719 Z M91.0205218,334.933105 C91.3019642,335.378418 91.6215186,335.798828 91.9733216,336.188477 C92.3192612,336.572266 92.6974494,336.926758 93.1020229,337.247559 C92.986221,337.783691 92.9129288,338.335938 92.8865435,338.901367 C92.8792143,339.055176 92.8762826,339.211914 92.8762826,339.367188 C92.8762826,339.478516 92.8777485,339.588379 92.882146,339.699707 C92.8909411,339.982422 92.9129288,340.262207 92.9451774,340.537598 C92.6886544,340.254883 92.4526532,339.95166 92.2401055,339.630859 C91.455878,338.445801 91,337.026367 91,335.5 C91,335.30957 91.0073292,335.120605 91.0205218,334.933105 Z M93.9419525,337.84082 C94.8097332,338.385742 95.7742597,338.788574 96.8032835,339.021484 L96.7021401,339.06543 C95.7859865,339.453613 94.8170624,339.67041 93.8202873,339.711426 C93.8158898,339.597168 93.8144239,339.48291 93.8144239,339.367188 C93.8144239,338.851562 93.8569335,338.341797 93.9419525,337.84082 Z M101.699208,335.640625 C102.462914,336.024414 103.299912,336.282227 104.185283,336.38623 C103.969804,336.566406 103.744063,336.734863 103.510994,336.893066 C103.065377,337.193359 102.590443,337.451172 102.096453,337.660645 C101.319554,337.98877 100.504544,338.195312 99.6660803,338.275879 C100.492817,337.530273 101.184697,336.638184 101.699208,335.640625 Z M98.0917619,331.695801 C98.651715,333.115234 99.6367634,334.32373 100.888596,335.164551 C100.733216,335.469238 100.55878,335.765137 100.366755,336.049316 C100.069188,336.490234 99.72618,336.904785 99.3494576,337.28125 C99.1149223,337.515625 98.8642627,337.738281 98.6018763,337.943359 C98.4655526,337.878906 98.3131047,337.84375 98.1518616,337.84375 C97.8454999,337.84375 97.5699208,337.974121 97.377895,338.182129 C96.7739666,338.07373 96.1846966,337.899414 95.6159484,337.65918 C95.1234242,337.451172 94.6470243,337.191895 94.2014072,336.891602 C94.1896804,336.882812 94.1764878,336.874023 94.1647611,336.866699 C94.2629727,336.523926 94.3831721,336.187012 94.5238933,335.855957 C94.7496335,335.321289 95.0296101,334.805664 95.3564937,334.32373 C95.4737614,334.149414 95.5983583,333.979492 95.7288185,333.8125 C95.828496,333.843262 95.9340369,333.86084 96.0425095,333.86084 C96.6259162,333.86084 97.0979185,333.38916 97.0979185,332.806152 C97.0979185,332.68457 97.0773967,332.565918 97.0392847,332.45752 C97.2811492,332.253906 97.5347405,332.062012 97.7971269,331.88623 C97.8938728,331.820312 97.9920844,331.757324 98.0917619,331.695801 Z M97.6182938,328.05127 C97.5845793,328.341309 97.5669892,328.637207 97.5669892,328.9375 L97.5669892,329.003418 C97.5728525,329.615723 97.6505424,330.208984 97.7941953,330.777344 C97.2855468,331.076172 96.807681,331.418945 96.3620639,331.799805 C96.2609206,331.767578 96.1539138,331.75 96.0425095,331.75 C95.4591029,331.75 94.9871006,332.22168 94.9871006,332.804688 C94.9871006,332.929199 95.0090882,333.049316 95.0486661,333.15918 C94.3186749,334.073242 93.746995,335.117676 93.3732043,336.25293 C93.233949,336.131348 93.0990912,336.005371 92.9700967,335.875 C92.6080328,335.513184 92.2767517,335.114746 91.9879801,334.692871 C91.9762533,334.676758 91.9645265,334.65918 91.9527998,334.643066 C91.6977426,334.265137 91.4734682,333.866699 91.2829082,333.452148 C92.0964527,330.581055 94.5795954,328.408691 97.6182938,328.05127 Z M102.842568,330.345215 C103.241278,330.345215 103.635591,330.370117 104.025506,330.421387 C105.020815,331.498047 105.702433,332.867676 105.928174,334.386719 C105.873937,334.473145 105.818235,334.55957 105.761067,334.643066 C105.55878,334.941895 105.337438,335.229004 105.097039,335.5 L105.07212,335.5 C104.185283,335.5 103.324831,335.327148 102.515685,334.984375 C102.3691,334.922852 102.226913,334.855469 102.086192,334.785156 C102.272354,334.313477 102.420405,333.822754 102.525945,333.317383 C102.917326,333.163574 103.194371,332.78125 103.194371,332.335938 C103.194371,331.969727 103.008209,331.647461 102.7253,331.458496 L102.7253,331.398438 C102.7253,331.071777 102.70771,330.749512 102.675462,330.431641 C102.67253,330.403809 102.669598,330.374512 102.666667,330.34668 C102.7253,330.345215 102.783934,330.345215 102.842568,330.345215 Z M101.732923,330.411133 C101.769569,330.71875 101.788625,331.027832 101.790091,331.341309 C101.38112,331.486328 101.086485,331.875977 101.086485,332.335938 C101.085019,332.715332 101.28584,333.047852 101.586338,333.233887 C101.505717,333.592773 101.400176,333.945801 101.272647,334.291504 C100.973615,334.079102 100.692172,333.840332 100.429786,333.578125 C99.8258575,332.974609 99.3523893,332.272949 99.022574,331.492188 C98.9873937,331.408691 98.9536793,331.32373 98.9214307,331.23877 C99.0562885,331.172852 99.1926121,331.111328 99.3318675,331.052734 C100.102902,330.727539 100.906186,330.512207 101.732923,330.411133 Z M98.5710935,328 C99.5282908,328.008789 100.441513,328.194824 101.279977,328.528809 C101.686016,328.689941 102.074465,328.88623 102.442392,329.113281 C102.591909,329.205566 102.738493,329.303711 102.88068,329.40625 L102.844034,329.40625 C102.73263,329.40625 102.622691,329.407715 102.512753,329.412109 C102.193198,329.422363 101.879507,329.447266 101.568748,329.486816 C101.460276,329.5 101.351803,329.516113 101.244796,329.533691 C100.33304,329.680176 99.4637936,329.951172 98.651715,330.327637 C98.5535034,329.875 98.5051305,329.40918 98.5051305,328.9375 C98.5051305,328.621094 98.5271181,328.309082 98.5710935,328 Z" id="agency-checked"></path>
        </g>
    </g>
</svg>