<?xml version="1.0" encoding="UTF-8"?>
<svg width="24px" height="24px" viewBox="0 0 24 24" version="1.1" xmlns="http://www.w3.org/2000/svg" xmlns:xlink="http://www.w3.org/1999/xlink">
    <title>work sunmmary</title>
    <g id="work-sunmmary" stroke="none" stroke-width="1" fill="none" fill-rule="evenodd">
        <path d="M20,3 C21.6568542,3 23,4.34314575 23,6 L23,18 C23,19.6568542 21.6568542,21 20,21 L4,21 C2.34314575,21 1,19.6568542 1,18 L1,6 C1,4.34314575 2.34314575,3 4,3 L20,3 Z M20,4 L4,4 C2.8954305,4 2,4.8954305 2,6 L2,18 C2,19.1045695 2.8954305,20 4,20 L20,20 C21.1045695,20 22,19.1045695 22,18 L22,6 C22,4.8954305 21.1045695,4 20,4 Z M7.98606811,11.9031096 L7.98606811,18 L6.5,18 L6.5,11.9031096 L7.98606811,11.9031096 Z M14.3297214,9.52804778 L14.3297214,18 L12.8436532,18 L12.8436532,9.52804778 L14.3297214,9.52804778 Z M17.5,7.86550448 L17.5,17.9948724 L17.0386997,18 L16.0139319,18 L16.0139319,7.86550448 L17.5,7.86550448 Z M11.1563468,10.7155787 L11.1563468,18 L9.67027864,18 L9.67027864,10.7155787 L11.1563468,10.7155787 Z M14.9086687,6 L15.3421053,7.68629391 L14.6052632,7.19643741 C12.2702787,10.1783276 7.73851395,10.3707076 6.85551085,10.3793647 L6.70433438,10.3790203 C11.6888545,9.58337457 13.7136223,6.6204849 13.7167183,6.6204849 L13.001548,6.11875309 L14.9086687,6 Z" id="形状" fill="#FFFFFF" fill-rule="nonzero"></path>
    </g>
</svg>