<?xml version="1.0" encoding="UTF-8"?>
<svg width="20px" height="20px" viewBox="0 0 20 20" version="1.1" xmlns="http://www.w3.org/2000/svg" xmlns:xlink="http://www.w3.org/1999/xlink">
    <title>续写 </title>
    <g id="AI随航" stroke="none" stroke-width="1" fill="none" fill-rule="evenodd">
        <g id="切图" transform="translate(-197, -197)">
            <g id="续写-" transform="translate(197, 197)">
                <rect id="矩形" opacity="0.27011399" x="0" y="0" width="20" height="20"></rect>
                <path d="M8.5,4.5 L15.5,4.5 C15.7761424,4.5 16,4.72385763 16,5 C16,5.27614237 15.7761424,5.5 15.5,5.5 L8.5,5.5 C8.22385763,5.5 8,5.27614237 8,5 C8,4.72385763 8.22385763,4.5 8.5,4.5 Z M5.08021154,3 C5.25132654,3.97882198 6.01739447,4.74488615 6.98849653,4.91475764 L6.99621154,5.084 C6.01739447,5.25511385 5.25132654,6.02117802 5.0814541,6.99228327 L4.91141154,7 C4.74109654,6.02117802 3.9750286,5.25511385 2.99621154,5.084 L2.99621154,4.9152 C3.9750286,4.74488615 4.74109654,3.97882198 4.91141154,3 L5.08021154,3 Z M3.5,8.25 L11.5,8.25 C11.7761424,8.25 12,8.47385763 12,8.75 C12,9.02614237 11.7761424,9.25 11.5,9.25 L3.5,9.25 C3.22385763,9.25 3,9.02614237 3,8.75 C3,8.47385763 3.22385763,8.25 3.5,8.25 Z M3.5,11.75 L11.5,11.75 C11.7761424,11.75 12,11.9738576 12,12.25 C12,12.5261424 11.7761424,12.75 11.5,12.75 L3.5,12.75 C3.22385763,12.75 3,12.5261424 3,12.25 C3,11.9738576 3.22385763,11.75 3.5,11.75 Z M3.5,15.5 L15.5,15.5 C15.7761424,15.5 16,15.7238576 16,16 C16,16.2761424 15.7761424,16.5 15.5,16.5 L3.5,16.5 C3.22385763,16.5 3,16.2761424 3,16 C3,15.7238576 3.22385763,15.5 3.5,15.5 Z M15.9748737,10.8535534 L14.2071068,12.6213203 C14.0118446,12.8165825 13.6952621,12.8165825 13.5,12.6213203 C13.3047379,12.4260582 13.3047379,12.1094757 13.5,11.9142136 L14.9142136,10.5 L14.9142136,10.5 L13.5,9.08578644 C13.3047379,8.89052429 13.3047379,8.5739418 13.5,8.37867966 C13.6952621,8.18341751 14.0118446,8.18341751 14.2071068,8.37867966 L15.9748737,10.1464466 C16.1701359,10.3417088 16.1701359,10.6582912 15.9748737,10.8535534 Z" id="形状结合" fill-opacity="0.7" fill="#FFFFFF"></path>
            </g>
        </g>
    </g>
</svg>