<?xml version="1.0" encoding="UTF-8"?>
<svg width="16px" height="16px" viewBox="0 0 16 16" version="1.1" xmlns="http://www.w3.org/2000/svg" xmlns:xlink="http://www.w3.org/1999/xlink">
    <title>360</title>
    <defs>
        <linearGradient x1="58.4725278%" y1="54.1558217%" x2="66.3031663%" y2="78.6608525%" id="linearGradient-1">
            <stop stop-color="#008FFF" offset="0%"></stop>
            <stop stop-color="#01D0DD" offset="100%"></stop>
        </linearGradient>
        <linearGradient x1="32.833334%" y1="56.9652923%" x2="71.9029941%" y2="9.90952377%" id="linearGradient-2">
            <stop stop-color="#016DFB" offset="0%"></stop>
            <stop stop-color="#02BBFF" offset="100%"></stop>
        </linearGradient>
    </defs>
    <g id="360" stroke="none" stroke-width="1" fill="none" fill-rule="evenodd">
        <path d="M11.904888,7.10516554 C12.0562933,7.17074599 12.1666395,7.28736513 12.2687169,7.42052196 C12.4420774,7.64606167 12.4817108,7.95371951 12.4198371,8.22488041 C12.3633809,8.47323071 12.1903055,8.67624497 11.9775967,8.82308815 C11.7777189,8.96109222 11.5210998,8.9961635 11.2870061,9.03693744 C11.1601222,9.05917776 11.0278208,9.10137735 10.905499,9.14414721 C10.6346232,9.23919134 10.4278072,9.41445271 10.2850509,9.66993133 C10.2481738,9.73589195 10.2085404,9.82894015 10.1661507,9.94907593 C10.1275628,10.0579965 10.1016158,10.1564622 10.0883096,10.2444731 C10.0338493,10.6051655 9.9705499,10.9513163 9.68171079,11.1794222 C9.48953157,11.3308275 9.28594705,11.4240657 9.03759674,11.416082 C8.68830957,11.4046767 8.45136456,11.2461431 8.24863544,10.9749822 C8.16013035,10.8568234 8.1057499,10.6809993 8.07907063,10.5235698 L8.06415479,10.410135 C8.0445757,10.1997073 7.99638832,10.0150366 7.91959267,9.85612277 C7.79213849,9.59151992 7.51099796,9.44638754 7.22301426,9.42329181 L6.98012709,9.41763479 C6.87501589,9.41311829 6.79440326,9.40606982 6.73828921,9.39648937 C6.46589274,9.35048801 6.25090292,9.22075278 6.09331976,9.00728367 C6.0262186,8.91623139 5.98107264,8.80626534 5.95788187,8.6773855 C5.90655804,8.39025719 5.96586558,8.12650974 6.16232179,7.90097002 C6.3798778,7.65119405 6.76851324,7.46785393 7.11095723,7.60015536 C7.36111337,7.69710037 7.54654447,7.85230743 7.66725051,8.06577654 C7.75421589,8.21946289 7.77046843,8.38255862 7.79983707,8.55249752 C7.83367278,8.74733798 7.88205024,8.91005352 7.94496945,9.04064416 C7.98716904,9.12865502 8.06130346,9.20231422 8.16737271,9.26162175 C8.31279022,9.36046765 8.47788187,9.41492793 8.66264766,9.42500261 C8.95604888,9.44068489 9.20468432,9.38080709 9.47584521,9.30268082 C9.55169043,9.28082067 9.63323829,9.24822053 9.7204888,9.20488041 C9.95971487,9.08598021 10.1347862,8.91147919 10.2505499,8.667691 C10.3797149,8.39567471 10.4224847,8.12194762 10.4823625,7.83282338 C10.5730346,7.39343438 10.8855397,7.09632644 11.3149491,6.99510444 C11.5262322,6.94520627 11.7164155,7.02390281 11.904888,7.10516554 Z M7.24439919,9.89613035 C7.48061059,9.89613035 7.67209776,10.0876175 7.67209776,10.3238289 C7.67209776,10.5600403 7.48061059,10.7515275 7.24439919,10.7515275 C7.00818779,10.7515275 6.81670061,10.5600403 6.81670061,10.3238289 C6.81670061,10.0876175 7.00818779,9.89613035 7.24439919,9.89613035 Z M7.42716904,4.82211055 C7.61193483,4.98919813 7.75393075,5.21844456 7.77873727,5.4687908 C7.78985743,5.58398428 7.80610998,5.69746697 7.8389002,5.80838346 L7.89320766,6.0041257 C7.92259226,6.10277695 7.9595112,6.19861564 8.02281059,6.27371951 C8.16138493,6.43795577 8.33674134,6.53233458 8.54887984,6.55685597 L8.9694501,6.60190689 L9.18192653,6.62093683 C9.21688165,6.62550951 9.25125594,6.6316557 9.28452138,6.64068489 C9.51376782,6.70312888 9.68142566,6.85881116 9.80716904,7.06182542 C9.84119484,7.11676092 9.86590631,7.17502297 9.88130346,7.23661157 C9.98775289,7.65955794 9.86761711,8.00228706 9.52089613,8.26479894 C9.48591989,8.2914113 9.41520706,8.32800329 9.30875764,8.37457491 C9.15535642,8.44186615 8.95348269,8.45583764 8.80635438,8.41192725 C8.47788187,8.31384171 8.20215886,8.0874466 8.1214664,7.74101075 L8.08931772,7.58867878 L8.06415479,7.43905556 C8.03107943,7.21294558 7.94468432,6.9278132 7.76105906,6.78439161 C7.60176511,6.6598838 7.42745418,6.59344796 7.23812627,6.58508407 C6.83209776,6.56712073 6.40924644,6.64524701 6.0505499,6.84569507 C5.80191446,6.98483968 5.63796334,7.21237532 5.54301426,7.4861024 C5.50106811,7.60687181 5.4685419,7.72337479 5.44543562,7.83561134 L5.41784114,8.00076636 C5.37478615,8.34178469 5.20655804,8.69249752 4.90346232,8.86414721 C4.72411405,8.96565434 4.47234216,9.05974803 4.27046843,9.00329181 C4.17789545,8.97743981 4.08712831,8.94797613 3.99816701,8.91490078 C3.77319756,8.83135699 3.59584521,8.62206982 3.50488798,8.40822053 C3.46610998,8.31669304 3.44329939,8.20178469 3.42904277,8.10312888 C3.41060421,7.97538957 3.42276986,7.84983628 3.46553971,7.726469 C3.60468432,7.32690349 3.88240326,7.08995848 4.29869654,7.01563397 L4.59591586,6.95868323 C4.89756365,6.89293794 5.20149695,6.79066452 5.4087169,6.56056269 C5.65991853,6.28170322 5.75686354,5.90846493 5.81331976,5.53408611 C5.84202308,5.34475821 5.90418194,5.17111259 5.99979633,5.01314925 C6.08818737,4.86716147 6.22875764,4.76907593 6.3790224,4.68581727 C6.45315682,4.64475821 6.53175832,4.61662515 6.61482688,4.60141809 C6.92999321,4.54382135 7.20077393,4.6173855 7.42716904,4.82211055 Z M8.61303462,5.24847251 C8.84924602,5.24847251 9.0407332,5.43995968 9.0407332,5.67617108 C9.0407332,5.91238248 8.84924602,6.10386965 8.61303462,6.10386965 C8.37682322,6.10386965 8.18533605,5.91238248 8.18533605,5.67617108 C8.18533605,5.43995968 8.37682322,5.24847251 8.61303462,5.24847251 Z" id="形状" fill="url(#linearGradient-1)" fill-rule="nonzero"></path>
        <path d="M8,1 C11.8659932,1 15,4.13400675 15,8 C15,11.8659932 11.8659932,15 8,15 C4.13400675,15 1,11.8659932 1,8 C1,4.13400675 4.13400675,1 8,1 Z M8,2.85336049 C6.14775099,2.40183185 4.66032983,2.57448641 3.53773651,3.37132415 C2.32530906,4.53908572 1.57026477,6.18136784 1.57026477,8 C1.57026477,8.94751999 1.77522021,9.84717007 2.14321619,10.6570353 C2.9680625,10.0398991 3.82300068,10.1181594 4.70615071,10.892579 L5.22085171,11.3480246 L5.564954,11.6476643 C6.60447766,12.5358126 7.73074988,13.3054871 9.53230143,13.3752266 C10.9728927,13.3745189 12.0448771,13.0274206 12.7482547,12.3339317 C12.8063229,12.2718669 12.8625208,12.2078406 12.9174483,12.1427078 L13.1315347,11.8680312 L13.0826469,11.9394647 C13.9269236,10.8507494 14.4297352,9.48409368 14.4297352,8 C14.4297352,7.06149282 14.2286603,6.1699492 13.8672406,5.3660993 C12.8584952,6.08923087 11.8650752,5.87645899 10.8863998,4.72869065 C10.3457046,4.10593118 9.38357136,3.48082112 8,2.85336049 Z" id="形状" fill="url(#linearGradient-2)" fill-rule="nonzero"></path>
    </g>
</svg>