<?xml version="1.0" encoding="UTF-8"?>
<svg width="16px" height="16px" viewBox="0 0 16 16" version="1.1" xmlns="http://www.w3.org/2000/svg" xmlns:xlink="http://www.w3.org/1999/xlink">
    <title>qianfan</title>
    <g id="qianfan" stroke="none" stroke-width="1" fill="none" fill-rule="evenodd">
        <path d="M2.80507005,4.44697928 C2.72341561,4.39751238 2.62148099,4.34669393 2.53315544,4.29236144 C2.52446697,4.2869518 2.51936234,4.2771713 2.51983015,4.26689494 C2.52036565,4.25661858 2.52639263,4.24750495 2.53555704,4.24316486 C2.68605737,4.17153247 2.81681121,4.08016739 2.95797198,3.99637101 C3.56531021,3.63577627 4.17255948,3.27382997 4.77971981,2.91053212 C5.33671336,2.57714868 5.87520569,2.25439746 6.3951968,1.94227848 C6.86306427,1.66133535 7.33191016,1.38219429 7.80173449,1.10485531 C7.84887703,1.07692318 7.89272849,1.0475494 7.93328886,1.01673395 C7.95849722,0.99768766 7.99214877,0.99465523 8.02028019,1.00889494 C8.09054926,1.04457598 8.15779408,1.08151847 8.22201468,1.11972241 C8.77633978,1.44950171 9.34774294,1.79189551 9.93622415,2.14690383 C10.2388259,2.32945379 10.5071826,2.48902732 10.7412942,2.62562443 C11.2362909,2.91431647 11.7286191,3.21598344 12.2158773,3.50494579 C12.4162775,3.62361228 12.6238826,3.75741617 12.8293529,3.87500141 C13.0041361,3.97528676 13.1711808,4.0880064 13.3496998,4.17856055 C13.3814543,4.1945089 13.4100067,4.22153999 13.438559,4.24289455 C13.4452293,4.24785248 13.4490572,4.25582338 13.4488035,4.26419977 C13.4485237,4.27257617 13.4441967,4.28028059 13.4372248,4.28479274 C13.1167445,4.48914778 12.7954636,4.67133732 12.4741828,4.87028615 C12.3400489,4.9533617 12.2065377,5.03292321 12.0736491,5.10897067 C12.0141428,5.14302985 11.9591728,5.18546866 11.9002001,5.21952783 C11.6954414,5.33702297 11.4977096,5.45568945 11.3070047,5.57552729 C11.1781187,5.65635024 11.0209473,5.70446559 10.8651101,5.6701361 C10.8087169,5.6577018 10.7326662,5.62274159 10.636958,5.56525547 C10.0029353,5.18375669 9.37149211,4.80451049 8.74262842,4.42751689 C8.62201468,4.35525378 8.5103847,4.29037916 8.40773849,4.23289304 C8.34262842,4.19640107 8.23855904,4.11936247 8.13689126,4.08692516 C7.99653102,4.04241396 7.86284189,4.05791179 7.73582388,4.13341863 C6.95343562,4.59979504 6.15903936,5.07635316 5.35263509,5.56309298 C5.27151434,5.61228957 5.17731821,5.66121584 5.08285524,5.67662356 C4.8317545,5.71771082 4.59319546,5.51795106 4.38959306,5.39847365 C4.22539471,5.30206276 4.06173004,5.20348938 3.89859907,5.10275352 C3.77078052,5.02382274 3.63308873,4.95246066 3.50366911,4.86893459 C3.45261285,4.83613687 3.40040027,4.80387977 3.34703135,4.77216329 C3.17144763,4.6683639 2.99079386,4.55996923 2.80507005,4.44697928 Z" id="路径" fill="#5BCA87" fill-rule="nonzero"></path>
        <path d="M4.94142762,13.4894195 C4.87418279,13.45509 4.81947965,13.4048122 4.75356905,13.3688608 C4.69504114,13.336784 4.63597954,13.302905 4.57638426,13.2672239 C4.33426729,13.1217967 4.09722037,12.980334 3.8652435,12.8428358 C3.40324661,12.5689208 2.9397376,12.2942849 2.47471648,12.0189282 C2.34236157,11.9408084 2.21934623,11.8540386 2.0784523,11.7907858 C2.02615077,11.7671787 2,11.7261815 2,11.6677944 C2,9.86500086 2,7.71296568 2,5.21168881 C2,5.18375669 2.01183011,5.17708902 2.03549033,5.19168581 C2.34538581,5.38360655 2.65688237,5.57309449 2.96997999,5.76014963 C3.0281521,5.79492963 3.08596842,5.83070078 3.14342895,5.86746306 C3.21947965,5.91638933 3.30166778,5.95693597 3.38012008,6.00532162 C3.48418946,6.06983582 3.58354459,6.13164691 3.67818546,6.19075489 C3.81561041,6.27644345 3.96957972,6.35618517 4.11661107,6.44295496 C4.29859907,6.55026839 4.41947965,6.61433207 4.46831221,6.7935482 C4.49526351,6.89194137 4.50033356,7.02331247 4.5006004,7.13495087 C4.50184567,7.75089931 4.50157883,8.42190106 4.49979987,9.14795614 C4.49926618,9.3950203 4.4933956,9.65370784 4.50433622,9.90428604 C4.51074049,10.0559305 4.56571047,10.2510949 4.69779853,10.34246 C4.75187903,10.3799431 4.80320213,10.4126507 4.85176785,10.4405829 C5.05421392,10.5568166 5.25416945,10.6748523 5.45163442,10.7946901 C5.58825884,10.8776756 5.72488326,10.948497 5.85537025,11.0314825 C5.90856126,11.0653615 5.96210807,11.0976186 6.01601067,11.1282538 C6.21987992,11.2437667 6.4219702,11.3622529 6.62228152,11.4837126 C6.83095397,11.6104884 7.05963976,11.728344 7.24829887,11.8621479 C7.34436291,11.9304464 7.41623304,12.0325339 7.46390927,12.1684101 C7.4870358,12.2341858 7.49842117,12.3253707 7.49806538,12.4419648 C7.49575272,13.2577631 7.49566378,14.0780665 7.49779853,14.9028752 C7.49779853,14.9304469 7.50055593,14.958379 7.50607071,14.9866716 C7.50695958,14.9910231 7.5051967,14.9954917 7.50159209,14.9980241 C7.49798748,15.0005566 7.49323817,15.0006632 7.48952635,14.998295 C7.39186124,14.9385562 7.28752502,14.8969284 7.19146097,14.8298913 C7.07324883,14.7474464 6.94382922,14.684464 6.81601067,14.604452 C6.69895486,14.5311076 6.5816322,14.4593851 6.4640427,14.3892845 C6.00773849,14.1169913 5.5339115,13.8355977 5.04256171,13.5451036 C5.00929509,13.525461 4.97558372,13.5068996 4.94142762,13.4894195 Z" id="路径" fill="#2464F6" fill-rule="nonzero"></path>
        <path d="M8.70153436,14.873141 C8.66871247,14.8926034 8.59292862,14.9272032 8.55903936,14.9604514 C8.52203691,14.9966731 8.50362464,14.988744 8.50380254,14.9366641 C8.50753836,14.0808598 8.50727151,13.2158649 8.50298842,12.3416794 C8.50166778,12.0789372 8.59853235,11.9381053 8.82881921,11.8024092 C9.63166555,11.3295453 10.4146765,10.8700168 11.1778519,10.4238236 C11.2285524,10.3943597 11.31501,10.3348913 11.3593062,10.2838025 C11.4673783,10.1591892 11.4999333,9.99484019 11.4996664,9.82913961 C11.4982433,8.87872649 11.4982433,7.93516124 11.4996664,6.99844386 C11.5000222,6.77084209 11.5974205,6.60036601 11.7918612,6.48701564 C12.0002668,6.36564605 12.2070714,6.24887174 12.4152101,6.12344748 C12.8741828,5.84700953 13.351034,5.55966905 13.8457638,5.26142602 C13.8959306,5.23133141 13.938181,5.20988674 13.972515,5.19709203 C13.9787881,5.1948123 13.985763,5.19575623 13.9912253,5.19962414 C13.9966876,5.20349205 14,5.20980342 14,5.21655441 L13.9997332,11.6777959 C13.9997423,11.7052699 13.9859837,11.7309065 13.9631755,11.7459142 C13.8772515,11.8019587 13.7904381,11.8559307 13.7027352,11.9078304 C12.9319102,12.3641152 12.1402713,12.8353572 11.3278185,13.3215564 C11.0535023,13.4857253 10.7957305,13.6373697 10.554503,13.7764897 C9.93328886,14.1351922 9.31954636,14.5084916 8.70153436,14.873141 Z" id="路径" fill="#EC5D3E" fill-rule="nonzero"></path>
    </g>
</svg>