<?xml version="1.0" encoding="UTF-8"?>
<svg width="10px" height="10px" viewBox="0 0 10 10" version="1.1" xmlns="http://www.w3.org/2000/svg" xmlns:xlink="http://www.w3.org/1999/xlink">
    <title>形状</title>
    <g id="AI助手设置备份" stroke="none" stroke-width="1" fill="none" fill-rule="evenodd">
        <g id="添加模型" transform="translate(-968.000000, -469.000000)" fill="#FFFFFF" fill-rule="nonzero">
            <g id="编组-41" transform="translate(953.000000, 146.000000)">
                <g id="编组-39" transform="translate(0.000000, 311.000000)">
                    <g id="编组-38" transform="translate(10.000000, 7.000000)">
                        <path d="M7.69230769,5 L6.15384615,5 C5.51538462,5 5,5.51538462 5,6.15384615 L5,12.3076923 C5,12.9461538 5.51538462,13.4615385 6.15384615,13.4615385 L7.69230769,13.4615385 C8.33076923,13.4615385 8.84615385,13.9769231 8.84615385,14.6153846 C8.84615385,14.8307692 9.01538462,15 9.23076923,15 C9.44615385,15 9.61538462,14.8307692 9.61538462,14.6153846 L9.61538462,6.92307692 C9.61538462,5.86153846 8.75384615,5 7.69230769,5 Z M13.8461538,5 L12.3076923,5 C11.2461538,5 10.3846154,5.86153846 10.3846154,6.92307692 L10.3846154,14.6153846 C10.3846154,14.8307692 10.5538462,15 10.7692308,15 C10.9846154,15 11.1538462,14.8307692 11.1538462,14.6153846 C11.1538462,13.9769231 11.6692308,13.4615385 12.3076923,13.4615385 L13.8461538,13.4615385 C14.4846154,13.4615385 15,12.9461538 15,12.3076923 L15,6.15384615 C15,5.51538462 14.4846154,5 13.8461538,5 Z" id="形状"></path>
                    </g>
                </g>
            </g>
        </g>
    </g>
</svg>