<?xml version="1.0" encoding="UTF-8"?>
<svg width="16px" height="16px" viewBox="0 0 16 16" version="1.1" xmlns="http://www.w3.org/2000/svg" xmlns:xlink="http://www.w3.org/1999/xlink">
    <title>other</title>
    <defs>
        <linearGradient x1="19.6715219%" y1="9.78796823%" x2="69.845799%" y2="107.427216%" id="linearGradient-1">
            <stop stop-color="#06BEFD" offset="0%"></stop>
            <stop stop-color="#0397FE" offset="28.2020387%"></stop>
            <stop stop-color="#0080FF" offset="100%"></stop>
        </linearGradient>
    </defs>
    <g id="other" stroke="none" stroke-width="1" fill="none" fill-rule="evenodd">
        <circle id="椭圆形" fill="url(#linearGradient-1)" cx="8" cy="8" r="7"></circle>
        <path d="M10.9857884,4.45089839 L11.3668395,4.67089838 C11.5246761,4.76202537 11.5854707,4.95221822 11.5026279,5.09570602 L7.30262795,12.3703194 C7.21978523,12.5138072 7.03630811,12.5629697 6.89282031,12.480127 L6.45980763,12.230127 C6.31631984,12.1472843 6.26715729,11.9638072 6.35000001,11.8203194 L10.55,4.54570602 C10.6328427,4.40221822 10.8279518,4.3597714 10.9857884,4.45089839 Z M5.61425167,5.5183522 C5.63524295,5.5183522 5.65433361,5.52996871 5.66320751,5.54814143 L6.18484044,6.59152424 C6.1901565,6.6021033 6.19908819,6.6106356 6.21016242,6.61571395 L7.30407226,7.10918403 L7.30755741,7.20101569 L6.21185056,7.7010256 C6.20077632,7.70610395 6.19184463,7.71463626 6.18652857,7.72521531 L5.66996004,8.77021077 C5.66108614,8.78838349 5.64199548,8.8 5.6210042,8.8 C5.60001291,8.8 5.58092225,8.78838349 5.57204835,8.77021077 L5.05041543,7.72682796 C5.04509936,7.71624891 5.03616768,7.7077166 5.02509344,7.70263825 L3.93118361,7.20916817 C3.91216026,7.20069107 3.9,7.18245405 3.9,7.1624014 C3.9,7.14234874 3.91216026,7.12411172 3.93118361,7.11563462 L5.02340531,6.6173266 C5.03447954,6.61224825 5.04341123,6.60371594 5.04872729,6.59313689 L5.56529582,5.54814143 C5.57416972,5.52996871 5.59326039,5.5183522 5.61425167,5.5183522 Z M10.8357884,4.71070602 L8.98578838,7.915 L9.36597354,8.1345 L11.2168396,4.93070602 L10.8357884,4.71070602 Z M8.23480128,3.5477212 L8.25550675,3.59353354 C8.38056923,3.91807882 8.60472156,4.15578471 8.92796376,4.30665123 L9.07256286,4.36599161 C9.17095686,4.40008758 9.18459973,4.43339369 9.11349145,4.46590992 L9.07087472,4.48210222 C8.72621435,4.59404682 8.47590475,4.80188514 8.31994593,5.10561719 L8.25888301,5.24165911 C8.21724241,5.35024403 8.16772386,5.35400687 8.11032735,5.25294764 L7.98483834,5.03606592 C7.84577674,4.80550896 7.71631049,4.64986269 7.42736298,4.52985432 L7.29327125,4.48048957 C7.18716006,4.4463936 7.1715879,4.41111282 7.24655476,4.37464725 L7.29158311,4.35631573 C7.64707567,4.23496402 7.90089342,4.02512668 8.05303636,3.72680373 L8.11201549,3.59353354 C8.15253067,3.48663807 8.19345927,3.47136728 8.23480128,3.5477212 L8.23480128,3.5477212 Z" id="形状" fill="#FFFFFF" fill-rule="nonzero"></path>
    </g>
</svg>