<?xml version="1.0" encoding="UTF-8"?>
<svg width="16px" height="16px" viewBox="0 0 16 16" version="1.1" xmlns="http://www.w3.org/2000/svg" xmlns:xlink="http://www.w3.org/1999/xlink">
    <title>free account</title>
    <g id="free-account" stroke="none" stroke-width="1" fill="none" fill-rule="evenodd">
        <path d="M7.5,13.662531 L7.5,8.29528536 L3,5.58560794 L3,10.9528536 L7.5,13.662531 Z M8.5,13.662531 L13,10.9528536 L13,5.56823821 L8.5,8.2925062 L8.5,13.662531 Z M8,7.40942928 L12.4333333,4.71712159 L8,2.04218362 L3.55,4.71712159 L8,7.40942928 Z M2.5,11.8560794 C2.34166667,11.7584615 2.21877667,11.6298561 2.13133333,11.4702978 C2.04377667,11.3106005 2,11.1381191 2,10.9528536 L2,5.0471464 C2,4.86188089 2.04377667,4.6893995 2.13133333,4.52970223 C2.21877667,4.37014392 2.34166667,4.24153846 2.5,4.1439206 L7.5,1.13895782 C7.65923333,1.04631811 7.82676667,1 8.00266667,1 C8.17866667,1 8.34443333,1.04631811 8.5,1.13895782 L13.5,4.1439206 C13.6583333,4.24153846 13.7812667,4.37014392 13.8688333,4.52970223 C13.9562667,4.6893995 14,4.86188089 14,5.0471464 L14,10.9528536 C14,11.1381191 13.9562667,11.3106005 13.8688333,11.4702978 C13.7812667,11.6298561 13.6583333,11.7584615 13.5,11.8560794 L8.5,14.8610422 C8.34076667,14.9536923 8.17323333,15 7.99733333,15 C7.82133333,15 7.65556667,14.9536923 7.5,14.8610422 L2.5,11.8560794 Z" id="形状" fill="#0081FF" fill-rule="nonzero"></path>
    </g>
</svg>