<?xml version="1.0" encoding="UTF-8"?>
<svg width="14px" height="13px" viewBox="0 0 14 13" version="1.1" xmlns="http://www.w3.org/2000/svg" xmlns:xlink="http://www.w3.org/1999/xlink">
    <title>编组 29</title>
    <g id="AI助手设置备份" stroke="none" stroke-width="1" fill="none" fill-rule="evenodd">
        <g id="账号免费领取" transform="translate(-40.000000, -351.000000)" fill-rule="nonzero">
            <g id="编组-34" transform="translate(37.000000, 348.000000)">
                <g id="编组-29" transform="translate(3.000000, 3.000000)">
                    <path d="M12.68734,3.5365521 L1.31265999,3.5365521 C1.07091171,3.5365521 0.874936005,3.72923202 0.874936005,3.96691474 L0.874936005,5.6873586 C0.874936005,5.92504132 1.07091171,6.11772123 1.31265999,6.11772123 L2.18759599,6.11772123 L2.18759599,12.1397781 C2.18759599,12.6148655 2.57931818,13 3.062532,13 L10.937468,13 C11.1695155,13 11.3920589,12.9093697 11.5561412,12.7480468 C11.7202235,12.5867239 11.812404,12.3679231 11.812404,12.1397781 L11.812404,6.11721789 L12.68734,6.11721789 C12.9290883,6.11721789 13.125064,5.92453797 13.125064,5.68685525 L13.125064,3.96641139 C13.125064,3.72872867 12.9290883,3.53604876 12.68734,3.53604876 L12.68734,3.5365521 Z" id="路径" fill="#DF2C2C"></path>
                    <path d="M13.125064,5.68685525 C13.125064,5.92453797 12.9290883,6.11721789 12.68734,6.11721789 L1.31265999,6.11721789 C1.07091171,6.11721789 0.874936005,5.92453797 0.874936005,5.68685525 L0.874936005,3.96641139 C0.874936005,3.72872867 1.07091171,3.53604876 1.31265999,3.53604876 L12.68734,3.53604876 C12.9290883,3.53604876 13.125064,3.72872867 13.125064,3.96641139 L13.125064,5.68685525 L13.125064,5.68685525 Z" id="路径" fill="#FF5742"></path>
                    <path d="M1.31265999,3.5365521 C1.07091171,3.5365521 0.874936005,3.72923202 0.874936005,3.96691474 L0.874936005,5.6873586 C0.874936005,5.92504132 1.07091171,6.11772123 1.31265999,6.11772123 L9.0355445,6.11772123 L11.6603525,3.53705545 L1.31265999,3.53705545 L1.31265999,3.5365521 Z" id="路径" fill="#FA5655"></path>
                    <path d="M2.18759599,6.11721789 L2.18759599,12.1392747 C2.18759599,12.3386006 2.25927009,12.5198059 2.37497257,12.6657769 L9.0355445,6.11721789 L2.18759599,6.11721789 Z" id="路径" fill="#DF2C2C"></path>
                    <polygon id="路径" fill="#FBE158" points="6.12506399 3.5365521 7.87493601 3.5365521 7.87493601 12.9994967 6.12506399 12.9994967"></polygon>
                    <polygon id="路径" fill="#FBE158" points="7.87493601 7.25830806 7.87493601 6.11721789 6.12506399 6.11721789 6.12506399 8.97875192"></polygon>
                    <path d="M11.156074,0.0951610463 C11.156074,0.963939892 9.35603013,1.91476448 7.01535874,2.03053455 C8.07613545,0.93776579 9.15022307,-0.365402478 11.156074,0.0951610463 L11.156074,0.0951610463 Z M2.84392599,0.0951610463 C2.84392599,0.963939892 4.64396987,1.91476448 6.98464126,2.03053455 C5.92386455,0.93776579 4.84977693,-0.365402478 2.84392599,0.0951610463 L2.84392599,0.0951610463 Z" id="形状" fill="#F3B607"></path>
                    <path d="M11.156074,0.0951610463 L11.156074,2.89125982 C10.9702333,3.44041261 9.98778615,3.52195501 8.08125503,3.53403536 C8.09547838,3.53801118 8.10968001,3.54200638 8.12385987,3.546021 C8.36811829,3.61473721 8.60537963,3.68955863 8.83607448,3.77021989 C8.87343243,3.78351741 8.91067194,3.79673234 8.94773947,3.81010075 C9.02673301,3.83843587 9.10502809,3.8676995 9.18253302,3.89766587 C9.21390537,3.90983429 9.24519391,3.92207723 9.27635289,3.93443579 C9.35907092,3.96730085 9.44066639,4.00089185 9.52134666,4.03529681 C9.55621491,4.04997786 9.59102831,4.06502596 9.62566954,4.08022771 C9.83284996,4.1715189 10.033865,4.26805946 10.2286546,4.3701371 C10.356433,4.4364809 10.4806218,4.5052815 10.6021356,4.57646931 L10.3862641,4.45468673 C10.42619,4.47660962 10.4658442,4.4987741 10.5052262,4.52118063 L10.6021356,4.57646931 C12.2163787,5.52284537 13.3617723,6.88498872 14,8.69838702 L12.68734,8.26802438 L11.812404,9.34317595 C11.3720422,8.00609562 10.5412264,6.76753102 9.49469406,5.66557262 C8.99714766,5.14323928 8.4498647,4.65348157 7.87493601,4.19593813 L7.87493601,6.11721789 L6.12506399,6.11721789 L6.12506399,4.19090465 C4.33679514,5.61185638 2.83727053,7.37005134 2.18759599,9.3426726 L1.31265999,8.26752103 L0,8.69788367 C0.932275287,6.04876254 2.94990127,4.36455975 5.92744826,3.53403536 C4.0152856,3.52245836 3.03027865,3.44141931 2.84392599,2.89125982 L2.84392599,0.0951610463 C2.84392599,0.96444324 4.64396987,1.91476448 6.98464126,2.03103789 C6.99897608,2.05167517 7.00153587,2.05167517 7.01535874,2.03103789 C9.35603013,1.91476448 11.156074,0.963939892 11.156074,0.0951610463 Z" id="形状结合" fill="#FBE158"></path>
                </g>
            </g>
        </g>
    </g>
</svg>