<?xml version="1.0" encoding="UTF-8"?>
<svg width="16px" height="16px" viewBox="0 0 16 16" version="1.1" xmlns="http://www.w3.org/2000/svg" xmlns:xlink="http://www.w3.org/1999/xlink">
    <title>xinghuo</title>
    <g id="xinghuo" stroke="none" stroke-width="1" fill="none" fill-rule="evenodd">
        <path d="M6.2531303,12.0302786 C6.62380379,12.3189103 7.05534698,12.5722616 7.54775986,12.7903327 C8.1573182,13.0606297 8.76974775,13.2310585 9.38504851,13.3016191 C10.1019902,13.3841249 10.7540425,13.383986 11.3412053,13.3012024 C11.7262349,13.2470318 12.0004357,13.1821661 12.1638076,13.1066052 C12.3096652,13.0393782 12.4631315,12.9665952 12.6242065,12.8882563 C12.5504163,13.0027089 12.4499239,13.1199395 12.3227292,13.239948 C12.0585777,13.4894102 11.8205542,13.6894244 11.6086588,13.8399907 C10.3955716,14.7022742 9.05371063,15.0838292 7.58307577,14.9846554 C5.93270303,14.8738142 4.45288029,14.1137602 3.39340301,12.8911732 C2.34555413,11.6819205 1.87654163,10.108892 2.02771095,8.56086518 C2.13767837,7.43661855 2.55701891,6.42015736 3.28573255,5.51148161 C3.43130301,5.32980203 3.62152081,5.12714872 3.85638596,4.9035217 C4.73210567,4.07096248 5.63567613,3.21548497 6.56709735,2.33708915 C6.57829508,2.32653285 6.59150265,2.32000461 6.60672008,2.31750443 C6.61437513,2.31614942 6.62222976,2.31851878 6.62773254,2.32384286 C6.63323532,2.32916695 6.63568421,2.33676652 6.63428372,2.34417299 C6.52345493,2.906713 6.53637538,3.47953153 6.67304508,4.06262856 C7.0279269,5.57481945 8.04993486,6.81907462 9.25885874,7.80456139 C10.0431303,8.44377352 10.0702633,9.63135799 9.39839965,10.3430753 C8.73342692,11.0481254 7.68084054,11.1439656 6.89398485,10.5726749 C6.87934167,10.5618408 6.86699546,10.5489233 6.85694622,10.5339222 C6.8521828,10.5264832 6.85261939,10.5169797 6.85804616,10.509979 C6.86347293,10.5029783 6.87278025,10.4999118 6.88149508,10.5022533 C7.34404736,10.6314291 7.78162009,10.306406 7.74285873,9.83512249 C7.72606213,9.62677433 7.608486,9.47551357 7.44439622,9.3488379 C6.60370531,8.70087514 5.88145189,7.95082179 5.36204961,7.0474242 C5.35780239,7.03986189 5.34988843,7.0348927 5.34102013,7.03421973 C5.33215182,7.03354676 5.32353392,7.03726145 5.31812007,7.04409063 C4.6682212,7.85873191 4.41971779,8.87880446 4.65917688,9.88554274 C4.87681476,10.7997744 5.40813257,11.5146864 6.2531303,12.0302786 Z" id="路径" fill="#3CC7FE" fill-rule="nonzero"></path>
        <path d="M13.9429542,8.4804428 C13.4416406,7.43495176 12.5186894,7.09534427 11.406669,6.85949416 C10.7593542,6.72198438 10.1245292,6.47988383 9.59522124,6.13569268 C8.73687237,5.57815302 8.14253146,4.6668382 8.03184623,3.6626001 C8.02122274,3.56703775 8.01634168,3.28910132 8.01720305,2.8287908 C8.01863865,2.18180033 8.01863865,1.58300774 8.01720305,1.03241302 C8.01720305,1.00491106 8.03069774,0.994910352 8.05768714,1.00241089 C8.07233032,1.00657785 8.08496365,1.01366169 8.09558714,1.0236624 C9.424097,2.28597441 10.7561959,3.54898091 12.0918838,4.81268191 C12.3324913,5.04019809 12.5262982,5.24090681 12.6733042,5.41480807 C13.3994338,6.27236907 13.8410262,7.26591196 13.9980815,8.39543675 C14.0021012,8.4237721 13.9998042,8.45113516 13.9911906,8.47752592 C13.9880199,8.48745417 13.9788326,8.49444986 13.9681133,8.49514703 C13.9573941,8.49574626 13.9473779,8.48991181 13.9429542,8.4804428 L13.9429542,8.4804428 Z" id="路径" fill="#EE1700" fill-rule="nonzero"></path>
        <path d="M12.6242065,12.8882563 C12.4631315,12.9665952 12.3096652,13.0393782 12.1638076,13.1066052 C12.0004357,13.1821661 11.7262349,13.2470318 11.3412053,13.3012024 C10.7540425,13.383986 10.1019902,13.3841249 9.38504851,13.3016191 C8.76974775,13.2310585 8.1573182,13.0606297 7.54775986,12.7903327 C7.05534698,12.5722616 6.62380379,12.3189103 6.2531303,12.0302786 C6.66802046,12.2633508 7.08922728,12.4073888 7.51675077,12.4623927 C8.33964017,12.5682336 9.09807086,12.4198897 9.79204283,12.017361 C10.6077542,11.5444107 11.1934815,10.751021 11.3915951,9.83803936 C11.5561156,9.07881869 11.4543311,8.32890424 11.0862417,7.588296 C11.0790637,7.57329494 11.0838012,7.56384982 11.1004542,7.55996066 C11.1153845,7.55662709 11.1303148,7.55621039 11.1452451,7.55871057 C12.3179917,7.76455854 13.6828224,8.56294866 13.8598326,9.8226216 C13.9083561,10.1682017 13.88553,10.4980863 13.7913542,10.8122753 C13.6041512,11.4359308 13.313441,12.0170832 12.9192235,12.5557327 C12.8247607,12.6851863 12.7264216,12.7960275 12.6242065,12.8882563 Z" id="路径" fill="#1452D9" fill-rule="nonzero"></path>
    </g>
</svg>