<?xml version="1.0" encoding="UTF-8"?>
<svg width="16px" height="16px" viewBox="0 0 16 16" version="1.1" xmlns="http://www.w3.org/2000/svg" xmlns:xlink="http://www.w3.org/1999/xlink">
    <title>gpt</title>
    <g id="gpt" stroke="none" stroke-width="1" fill="none" fill-rule="evenodd">
        <circle id="椭圆形" fill="#18C37D" fill-rule="nonzero" cx="8" cy="8" r="7"></circle>
        <path d="M7.42591006,2.73333333 C8.11780957,2.73018512 8.78087993,2.99897515 9.27447725,3.47787046 L9.40326638,3.61233333 L9.42215332,3.60665076 C10.5484142,3.3686184 11.7023886,3.88522522 12.2789248,4.88381519 C12.6252464,5.47736273 12.7257397,6.18005016 12.563962,6.84273004 L12.5102664,7.02933333 L12.6325701,7.17566204 C13.2543016,7.97496216 13.3679901,9.05731463 12.9306711,9.96685462 L12.8362459,10.1456314 C12.4925389,10.7473009 11.9277609,11.1879972 11.2659048,11.3766676 L11.1070523,11.4152216 L11.1048197,11.4310066 C10.7671157,12.4678944 9.83129881,13.1876453 8.75474098,13.2605363 L8.57408994,13.2666667 C7.81929048,13.2701036 7.09880009,12.9499063 6.59521277,12.386359 L6.57784669,12.387528 C5.51415588,12.6123364 4.42574522,12.1640252 3.82240743,11.2722857 L3.72107518,11.1103636 C3.34012148,10.4574613 3.25661993,9.67249975 3.49245588,8.95399416 C2.71681046,8.10481196 2.58721786,6.84713735 3.16375405,5.84854738 C3.53460932,5.19935405 4.16283811,4.73756775 4.89268431,4.57756577 C5.25164567,3.47450072 6.27452687,2.73333333 7.42591006,2.73333333 Z M9.64348609,7.74233334 L9.64348609,10.5792817 C9.64348609,10.7038676 9.57952003,10.8179742 9.47252227,10.8785206 L7.31221411,12.1226328 C7.66867949,12.4189609 8.11412166,12.5790656 8.577579,12.5790656 C9.43329619,12.5811756 10.1634556,12.0315 10.4336506,11.2651089 L10.411271,11.2596773 C10.4868643,11.0475867 10.5265647,10.8235488 10.5263592,10.5966952 L10.5263592,8.25186304 L9.64348609,7.74233334 Z M9.04028328,9.2759613 L6.58365188,10.6942981 C6.51735789,10.732573 6.44239585,10.7479211 6.3698542,10.7395579 C6.32119848,10.7342929 6.27380806,10.7192726 6.22974273,10.6938315 L4.07850806,9.45197345 C4.00273186,9.90672762 4.08750633,10.3700156 4.31822572,10.7696333 C4.86063721,11.7126103 6.06763847,12.0358681 7.01057189,11.4907931 L9.04121241,10.3184022 L9.04028328,9.2759613 Z M9.4840523,5.93822158 L8.58800291,6.45626323 L11.0446343,7.87460003 C11.0690609,7.88870272 11.0913803,7.90538083 11.1112812,7.92417361 C11.1884898,7.98944762 11.2333333,8.08396662 11.2333333,8.18828089 L11.2340813,10.66045 C11.660108,10.4974974 12.014147,10.1945232 12.2425896,9.79884903 C12.6721654,9.05903823 12.5629172,8.15281526 12.0369229,7.53538386 C11.8853501,7.36941702 11.7111778,7.22301653 11.5145996,7.10979296 L9.4840523,5.93822158 Z M4.76666667,7.81171911 L4.76626638,5.33333333 L4.78625994,5.3260752 C4.35116297,5.48708649 3.98947905,5.7933751 3.75741042,6.19532977 C3.32816582,6.93605453 3.43711063,7.84133016 3.96287183,8.45858561 C4.11464985,8.62476178 4.28882219,8.77116227 4.4854004,8.88438584 L6.5150523,10.0552216 L7.41199709,9.53791557 L4.93763049,8.11095807 C4.83063272,8.0469186 4.76666667,7.93630498 4.76666667,7.81171911 Z M8.0000523,6.79222158 L6.94026638,7.40433333 L6.94026638,8.58833333 L7.9990523,9.20022158 L9.0590523,8.58922158 L9.0590523,7.40322158 L8.0000523,6.79222158 Z M7.42591006,3.41744738 C6.56867993,3.41882126 5.83990371,3.96597444 5.56822104,4.72960658 L5.588729,4.73450146 C5.51313571,4.94659213 5.47343534,5.17063004 5.47364079,5.39748355 L5.47364079,7.74231576 L6.35626638,8.25133333 L6.35651391,5.42071831 C6.35651391,5.32104962 6.39745219,5.2280876 6.46861035,5.16388978 L6.52747773,5.12147935 L8.68778589,3.87736718 C8.33132051,3.58103911 7.88587834,3.42094044 7.422421,3.42094044 L7.42591006,3.41744738 Z M9.59941907,4.27455891 L9.42260391,4.31756844 C9.280202,4.35857742 9.13180481,4.42108301 8.98942811,4.50338572 L6.95878759,5.67577658 L6.95971672,6.71821749 L9.41634812,5.29988069 C9.48107857,5.26250855 9.55407303,5.24699438 9.62500924,5.25406873 C9.68076108,5.26051189 9.72710364,5.27543258 9.77025727,5.30034734 L11.9214997,6.54215869 C11.9972623,6.08741949 11.9124858,5.62414955 11.6817743,5.22454549 C11.2514136,4.47636771 10.4026824,4.11831367 9.59941907,4.27455891 Z" id="形状" fill="#FFFFFF" fill-rule="nonzero"></path>
    </g>
</svg>