<?xml version="1.0" encoding="UTF-8"?>
<svg width="16px" height="16px" viewBox="0 0 16 16" version="1.1" xmlns="http://www.w3.org/2000/svg" xmlns:xlink="http://www.w3.org/1999/xlink">
    <title>text to image</title>
    <defs>
        <linearGradient x1="10.5943407%" y1="5.99942889%" x2="58.7413788%" y2="79.5133046%" id="linearGradient-1">
            <stop stop-color="#FFD200" offset="0%"></stop>
            <stop stop-color="#FFB223" offset="100%"></stop>
        </linearGradient>
    </defs>
    <g id="text-to-image" stroke="none" stroke-width="1" fill="none" fill-rule="evenodd">
        <circle id="椭圆形" fill="url(#linearGradient-1)" cx="8" cy="8" r="7"></circle>
        <path d="M10.4970707,5 C11.0509732,5 11.5,5.45097518 11.5,5.99077797 L11.5,10.009222 C11.5,10.5564136 11.0621186,11 10.4970707,11 L5.50292933,11 C4.94902676,11 4.5,10.5490248 4.5,10.009222 L4.5,5.99077797 C4.5,5.44358641 4.93788135,5 5.50292933,5 L10.4970707,5 Z M8.54198743,7.11132495 L7.86012253,8.52214921 C7.79930358,8.6479877 7.68865514,8.65081861 7.61705032,8.53504931 L7.1767767,7.8232233 C7.0675394,7.71398601 6.88635913,7.72898095 6.79656663,7.85469045 L5.54656663,9.60469045 C5.42837583,9.77015757 5.54665686,9.99999875 5.75,9.99999875 L10.25,9.99999875 C10.4443236,9.99999875 10.5643519,9.78800719 10.4643732,9.62137606 L8.96437323,7.12137606 C8.86994859,6.96400166 8.64379073,6.95862 8.54198743,7.11132495 Z M6.25,6 C5.83578644,6 5.5,6.33578644 5.5,6.75 C5.5,7.16421356 5.83578644,7.5 6.25,7.5 C6.66421356,7.5 7,7.16421356 7,6.75 C7,6.33578644 6.66421356,6 6.25,6 Z" id="形状" fill="#FFFFFF" fill-rule="nonzero"></path>
    </g>
</svg>