<?xml version="1.0" encoding="UTF-8"?>
<svg width="32px" height="32px" viewBox="0 0 32 32" version="1.1" xmlns="http://www.w3.org/2000/svg" xmlns:xlink="http://www.w3.org/1999/xlink">
    <title>tips</title>
    <defs>
        <linearGradient x1="50%" y1="0%" x2="50%" y2="100%" id="linearGradient-1">
            <stop stop-color="#2AE557" offset="0%"></stop>
            <stop stop-color="#03BA71" offset="99.3559966%"></stop>
        </linearGradient>
    </defs>
    <g id="tips" stroke="none" stroke-width="1" fill="none" fill-rule="evenodd">
        <g id="Page-1-+-Path-+-Rectangle-115">
            <path d="M0,16 C0,13.8222123 0.422217984,11.7472341 1.26666667,9.7750016 C2.11111552,7.80276907 3.24721493,6.102784 4.67499947,4.67499947 C6.102784,3.24721493 7.80276907,2.1111168 9.7750016,1.26666667 C11.7472341,0.422216533 13.8222123,0 16,0 C18.1666773,0 20.2361003,0.422216533 22.2083328,1.26666667 C24.1805653,2.1111168 25.883328,3.24721493 27.3166677,4.67499947 C28.7500075,6.102784 29.8888832,7.80276907 30.7333333,9.7750016 C31.5777835,11.7472341 32,13.8222123 32,16 C32,18.1666773 31.5777835,20.2388779 30.7333333,22.2166656 C29.8888832,24.1944533 28.7500075,25.897216 27.3166677,27.3250005 C25.883328,28.7527851 24.1805653,29.8888845 22.2083328,30.7333333 C20.2361003,31.577782 18.1666773,32 16,32 C13.8222123,32 11.7472341,31.577782 9.7750016,30.7333333 C7.80276907,29.8888845 6.102784,28.7527851 4.67499947,27.3250005 C3.24721493,25.897216 2.11111552,24.1944533 1.26666667,22.2166656 C0.422217984,20.2388779 0,18.1666773 0,16 L0,16 Z" id="Page-1" fill="url(#linearGradient-1)"></path>
            <g id="BulbFilled" transform="translate(9, 6.5)" fill="#FFFFFF" fill-rule="nonzero">
                <g id="灯泡-(3)">
                    <path d="M9.13258831,18.3826951 C9.13258831,18.7187482 8.86778889,18.9920946 8.53825982,18.9998349 L8.52387319,19 L5.52722203,19 C5.19105924,19 4.91852726,18.7236195 4.91852726,18.3826951 C4.91852726,18.0466626 5.18332668,17.7733162 5.51285575,17.7655759 L5.52722203,17.7654108 L8.52389354,17.7654108 C8.86005633,17.7654108 9.13258831,18.0417913 9.13258831,18.3826951 Z M9.32986671,15.6811874 C9.6660295,15.6811874 9.93856148,15.9575679 9.93856148,16.2984923 C9.93856148,16.6345248 9.67376206,16.9078711 9.34423299,16.9156114 L9.32986671,16.9157972 L4.66275915,16.9157972 C4.32659636,16.9157972 4.05406439,16.6394167 4.05406439,16.2984923 C4.05406439,15.9624391 4.3188638,15.6890928 4.64839287,15.6813525 L4.66275915,15.6811874 L9.32986671,15.6811874 Z" id="形状结合"></path>
                    <path d="M7,0 C10.8659942,0 14,3.17831432 14,7.09893436 C14,9.57830933 12.7466541,11.7608281 10.847436,13.0303828 L10.8025669,13.2447171 C10.771657,13.3909366 10.7307558,13.5823802 10.6798634,13.8190684 C10.5592558,14.3801478 10.0734477,14.7819626 9.50886919,14.790673 L7.645,14.79 L7.64527532,9.45904256 L9.63928897,9.45904256 C9.98762344,9.45904256 10.2693366,9.2064429 10.2693366,8.89581358 C10.2693366,8.58518426 9.98762345,8.33258461 9.63928897,8.33258461 L4.36203677,8.33258461 C4.01370231,8.33258461 3.73198919,8.58518426 3.73198919,8.89581358 C3.73198919,9.2064429 4.01370231,9.45904256 4.36203677,9.45904256 L6.37946974,9.45904256 L6.379,14.79 L4.48160756,14.790673 C3.90125872,14.790673 3.40157267,14.3752146 3.28782267,13.7980561 L3.23172093,13.516763 C3.16414244,13.1825882 3.12537791,13.0121363 3.11542733,13.0053868 C1.23702616,11.7323025 0,9.56212693 0,7.09893436 C0,3.17831432 3.13400581,0 7,0 Z" id="形状结合"></path>
                </g>
            </g>
        </g>
    </g>
</svg>