<?xml version="1.0" encoding="UTF-8"?>
<svg width="16px" height="16px" viewBox="0 0 16 16" version="1.1" xmlns="http://www.w3.org/2000/svg" xmlns:xlink="http://www.w3.org/1999/xlink">
    <title>UosAiAssistant</title>
    <g id="UosAiAssistant" stroke="none" stroke-width="1" fill="none" fill-rule="evenodd">
        <path d="M12.8,1 C14.0150264,1 15,1.98497357 15,3.20000005 L15,12.8 C15,14.0150264 14.0150264,15 12.8,15 L3.20000005,15 C1.98497357,15 1,14.0150264 1,12.8 L1,3.20000005 C1,1.98497357 1.98497357,1 3.20000005,1 L12.8,1 Z M12.8,2 L3.20000005,2 C2.53725832,2 2,2.53725832 2,3.20000005 L2,12.8 C2,13.4627417 2.53725832,14 3.20000005,14 L12.8,14 C13.4627417,14 14,13.4627417 14,12.8 L14,3.20000005 C14,2.53725832 13.4627417,2 12.8,2 Z M7.99613361,2.32916667 C10.6341859,2.32916667 12.4480479,4.174884 12.6131914,7.11595819 L12.6200973,7.26866881 C12.6354026,7.52044217 12.6306811,7.78879031 12.6059588,8.07300354 L12.5731743,8.16515388 L12.6677023,8.31410451 C13.3796339,9.49553169 13.4473312,10.6904814 12.7293398,11.087642 C12.4918632,11.2190034 12.215715,11.2347716 11.9189517,11.1427374 L11.805579,11.1021667 L11.7386849,11.2784827 C11.3850286,12.1589058 10.8204066,13.1330953 10.4024006,13.5024267 L10.308703,13.5766019 L10.1992547,13.6353277 L10.0418176,13.6684037 L9.14867996,13.6704708 L6.41864562,13.668406 C5.92923999,13.6683824 5.49811641,13.2685 5.0574622,12.469237 C4.81150365,12.1098553 4.58319704,11.707236 4.37690943,11.2698114 L4.28357903,11.0621667 L4.2326035,11.0872276 C3.97121069,11.1984272 3.71979815,11.2298395 3.48911777,11.1728635 L3.37555503,11.1369699 L3.27066012,11.087642 C2.55266873,10.6904813 2.62036612,9.49553164 3.33330808,8.31246381 L3.43198997,8.15570738 L3.44292397,8.18594623 L3.41268517,7.9787407 L3.37454478,7.63948712 L3.34868877,7.29809601 C3.32251459,4.46794077 5.35129375,2.32916667 7.99613361,2.32916667 Z M7.99613361,3.17083333 C5.82425276,3.17083333 4.16841215,4.92311774 4.18959765,7.26926207 C4.20702389,7.56276777 4.24177419,7.86851122 4.29320359,8.18077006 L4.29744882,8.38587692 L4.22044782,8.49371289 C4.16202189,8.57553543 4.10612117,8.66068299 4.05319174,8.74851745 C3.62162569,9.46468714 3.49263909,10.2485782 3.67805792,10.3511436 C3.74890907,10.3903353 3.96978275,10.3137193 4.22314095,10.1162395 L4.5628686,9.85143908 L4.71751667,9.89399239 L4.87395157,10.295318 C5.12292685,10.9340512 5.42201637,11.5117194 5.77284264,12.0275754 C6.05398496,12.5349111 6.31507701,12.8267393 6.41866751,12.8267393 L9.88765911,12.8483609 C10.1938571,12.6018119 10.9569168,11.115232 11.1260035,10.4824129 L11.1449993,10.4010318 L11.2403915,9.89634435 L11.3984446,9.8347618 L11.8101392,10.1418719 C12.0505445,10.321206 12.255585,10.3878493 12.321942,10.3511436 C12.5073609,10.2485783 12.3783743,9.46468721 11.9468085,8.7485178 C11.9041445,8.67771846 11.8589371,8.60764692 11.8114987,8.53874821 L11.725001,8.36800189 L11.7407579,8.24613167 C11.7731492,7.99560436 11.7886098,7.75756855 11.7870819,7.53691162 L11.7726214,7.15867579 C11.6324495,4.66268812 10.1814997,3.17083333 7.99613361,3.17083333 Z M8.33328369,6.46540781 C8.45465719,6.48215993 8.53945219,6.59527433 8.52312597,6.71794068 C8.48536709,7.00164059 8.27969024,7.19565132 8.0126594,7.19565132 C7.76313878,7.19565132 7.56337384,7.01221721 7.50515969,6.73800407 C7.47948306,6.61705636 7.55524865,6.49766898 7.67486986,6.47133391 C7.77488477,6.44931525 7.87361624,6.49935311 7.91865579,6.58686347 L7.93881723,6.64358971 C7.95303847,6.71057775 7.98284754,6.74647182 8.0126594,6.74647182 C8.04502111,6.74647182 8.06423266,6.73130747 8.07482603,6.69771763 L8.08353475,6.65793928 C8.09989497,6.53501739 8.2116508,6.44861989 8.33328369,6.46540781 Z M10.0404411,5.46927259 C10.5000996,5.46927259 10.8727263,5.84871911 10.8727263,6.3167901 C10.8727263,6.78486109 10.5000996,7.1643076 10.0404411,7.1643076 C9.5807827,7.1643076 9.20815596,6.78486109 9.20815596,6.3167901 C9.20815596,5.84871911 9.5807827,5.46927259 10.0404411,5.46927259 Z M5.95955884,5.46927259 C6.41921727,5.46927259 6.79184405,5.84871911 6.79184405,6.3167901 C6.79184405,6.78486109 6.41921727,7.1643076 5.95955884,7.1643076 C5.49990041,7.1643076 5.12727363,6.78486109 5.12727363,6.3167901 C5.12727363,5.84871911 5.49990041,5.46927259 5.95955884,5.46927259 Z M10.4429841,6.30276893 C10.3243625,6.30276893 10.2282008,6.40069431 10.2282008,6.52149139 C10.2282008,6.64228846 10.3243625,6.74021384 10.4429841,6.74021384 C10.5616056,6.74021384 10.6577674,6.64228846 10.6577674,6.52149139 C10.6577674,6.40069431 10.5616056,6.30276893 10.4429841,6.30276893 Z M6.31798407,6.30276893 C6.19936253,6.30276893 6.10320079,6.40069431 6.10320079,6.52149139 C6.10320079,6.64228846 6.19936253,6.74021384 6.31798407,6.74021384 C6.4366056,6.74021384 6.53276734,6.64228846 6.53276734,6.52149139 C6.53276734,6.40069431 6.4366056,6.30276893 6.31798407,6.30276893 Z M5.95956302,4.20059628 C6.15576199,4.20059628 6.31864589,4.25610279 6.45721341,4.37432982 C6.58168268,4.48052808 6.59797909,4.66810119 6.49393917,4.7945546 C6.4070493,4.90016329 6.26168368,4.93149928 6.12351973,4.86534005 L6.07404497,4.83194886 C6.04865883,4.81028917 6.0148686,4.79977578 5.95956302,4.79977578 L5.87844494,4.8078804 L5.85673919,4.8214589 C5.73653809,4.93548477 5.54731802,4.9286745 5.43545478,4.80638808 C5.32496437,4.6856024 5.33153099,4.49744396 5.4502545,4.38481977 C5.58187302,4.25996305 5.75197817,4.20059628 5.95956302,4.20059628 Z M10.0404453,4.20059628 C10.2366443,4.20059628 10.3995282,4.25610279 10.5380957,4.3743298 C10.662565,4.48052806 10.6788614,4.66810117 10.5748215,4.79455458 C10.4879316,4.90016328 10.342566,4.93149928 10.2044021,4.86534006 L10.1549273,4.83194887 C10.1295411,4.81028917 10.0957509,4.79977578 10.0404453,4.79977578 L10.0019174,4.8015695 L9.95932725,4.80788039 L9.93762152,4.82145888 C9.81742042,4.93548476 9.62820035,4.92867451 9.51633711,4.8063881 C9.40584669,4.68560242 9.4124133,4.49744398 9.53113679,4.38481979 C9.6627553,4.25996305 9.83286046,4.20059628 10.0404453,4.20059628 Z" id="形状" fill="#000000" fill-rule="nonzero"></path>
    </g>
</svg>