<?xml version="1.0" encoding="UTF-8"?>
<svg width="18px" height="18px" viewBox="0 0 18 18" version="1.1" xmlns="http://www.w3.org/2000/svg" xmlns:xlink="http://www.w3.org/1999/xlink">
    <title>UosAiAssistant</title>
    <g id="UosAiAssistant" stroke="none" stroke-width="1" fill="none" fill-rule="evenodd" fill-opacity="0.7">
        <path d="M14.027027,0 C16.2212394,0 18,1.7786934 18,3.97282291 L18,14.0264972 C18,16.2206267 16.2212394,17.9993201 14.027027,17.9993201 L3.97297298,17.9993201 C1.77876059,17.9993201 0,16.2206267 0,14.0264972 L0,3.97282291 C0,1.7786934 1.77876059,0 3.97297298,0 L14.027027,0 Z M8.99335563,1.01347523 C5.11868113,1.01347523 1.68611822,4.21903888 1.72990239,9.15446927 C1.76149244,9.70913803 1.82429203,10.2829681 1.91629144,10.8652844 C1.80626491,11.0259176 1.69976636,11.1946931 1.59799158,11.3707603 C0.60760065,13.0841098 0.439574841,14.8391416 1.22269626,15.2907341 C1.65987221,15.5428346 2.30104663,15.335437 2.95407259,14.8048106 C3.24352597,15.5789381 3.57834853,16.3248087 3.95321293,17.0155952 L14.0823819,17.0152629 C14.4718856,16.3352056 14.8193289,15.6069033 15.1152931,14.8604092 C15.7443941,15.3496357 16.3557077,15.5338503 16.7773038,15.2907341 C17.5604252,14.8391416 17.3923994,13.0841098 16.4020084,11.3707603 C16.3192633,11.2276139 16.2333958,11.0892872 16.1457152,10.9565308 C16.2243138,10.322789 16.2504603,9.71527695 16.2177581,9.15446927 L16.2053048,8.86939546 C15.9212306,3.59607712 12.7604454,1.01347523 8.99335563,1.01347523 Z M12.2727273,5.29645066 C13.0099878,5.29645066 13.6076555,5.89409581 13.6076555,6.63132847 C13.6076555,7.36856112 13.0099878,7.96620628 12.2727273,7.96620628 C11.5354667,7.96620628 10.9377991,7.36856112 10.9377991,6.63132847 C10.9377991,5.89409581 11.5354667,5.29645066 12.2727273,5.29645066 Z M5.72727273,5.29645066 C6.46453323,5.29645066 7.06220096,5.89409581 7.06220096,6.63132847 C7.06220096,7.36856112 6.46453323,7.96620628 5.72727273,7.96620628 C4.99001222,7.96620628 4.3923445,7.36856112 4.3923445,6.63132847 C4.3923445,5.89409581 4.99001222,5.29645066 5.72727273,5.29645066 Z M9.51948743,6.9726754 C9.65382001,6.99088223 9.74795853,7.11453985 9.72975171,7.24887243 C9.67699558,7.63811474 9.39651983,7.90728971 9.02030482,7.90728971 C8.65855197,7.90728971 8.39305568,7.6371345 8.31417651,7.27227214 C8.28553153,7.13977234 8.3697225,7.00913869 8.5022223,6.98049371 C8.6347221,6.95184874 8.76535575,7.0360397 8.79400072,7.1685395 C8.82815575,7.32652651 8.91646029,7.41638062 9.02030482,7.41638062 C9.12048497,7.41638062 9.19396325,7.36188685 9.22782826,7.2540406 L9.2432904,7.18293968 C9.26149722,7.0486071 9.38515485,6.95446857 9.51948743,6.9726754 Z M13.0047847,6.84663133 C12.8145239,6.84663133 12.6602871,7.00086817 12.6602871,7.19112894 C12.6602871,7.38138972 12.8145239,7.53562655 13.0047847,7.53562655 C13.1950455,7.53562655 13.3492823,7.38138972 13.3492823,7.19112894 C13.3492823,7.00086817 13.1950455,6.84663133 13.0047847,6.84663133 Z M6.45933014,6.84663133 C6.26906936,6.84663133 6.11483254,7.00086817 6.11483254,7.19112894 C6.11483254,7.38138972 6.26906936,7.53562655 6.45933014,7.53562655 C6.64959092,7.53562655 6.80382775,7.38138972 6.80382775,7.19112894 C6.80382775,7.00086817 6.64959092,6.84663133 6.45933014,6.84663133 Z M5.72727944,3.52464162 C5.96334508,3.52464162 6.18108525,3.58094561 6.37582483,3.7441067 C6.47973472,3.83116683 6.49339416,3.98597861 6.40633403,4.08988851 C6.33378393,4.17648008 6.21418406,4.20039773 6.11619968,4.15558295 L6.06055223,4.12039771 C5.96963253,4.04422132 5.85875683,4.01555071 5.72727944,4.01555071 C5.62722457,4.01555071 5.53508667,4.03258851 5.4653751,4.06895681 L5.40367636,4.11185352 C5.30448529,4.20425408 5.14916959,4.19874929 5.05676903,4.09955822 C4.96436847,4.00036715 4.96987327,3.84505145 5.06906433,3.75265089 C5.25107485,3.58310061 5.48138703,3.52464162 5.72727944,3.52464162 Z M12.272734,3.52464162 C12.5087996,3.52464162 12.7265398,3.5809456 12.9212794,3.74410669 C13.0251893,3.83116681 13.0388487,3.98597859 12.9517886,4.08988849 C12.8792385,4.17648008 12.7596386,4.20039773 12.6616542,4.15558295 L12.6060068,4.12039772 C12.5150871,4.04422132 12.4042114,4.01555071 12.272734,4.01555071 C12.1726791,4.01555071 12.0805412,4.03258851 12.0108296,4.0689568 L11.9491309,4.11185351 C11.8499399,4.20425408 11.6946242,4.19874929 11.6022236,4.09955823 C11.509823,4.00036717 11.5153278,3.84505147 11.6145189,3.75265091 C11.7965294,3.58310061 12.0268416,3.52464162 12.272734,3.52464162 Z" id="形状结合" fill="#000000" fill-rule="nonzero"></path>
    </g>
</svg>