<?xml version="1.0" encoding="UTF-8" standalone="no"?>
<svg
   width="512"
   height="512"
   viewBox="0 0 512 512"
   version="1.1"
   id="svg71"
   sodipodi:docname="uosai.svg"
   inkscape:export-filename="uosai-1.svg"
   inkscape:export-xdpi="768"
   inkscape:export-ydpi="768"
   inkscape:version="1.2.2 (b0a8486541, 2022-12-01)"
   xmlns:inkscape="http://www.inkscape.org/namespaces/inkscape"
   xmlns:sodipodi="http://sodipodi.sourceforge.net/DTD/sodipodi-0.dtd"
   xmlns:xlink="http://www.w3.org/1999/xlink"
   xmlns="http://www.w3.org/2000/svg"
   xmlns:svg="http://www.w3.org/2000/svg">
  <sodipodi:namedview
     id="namedview73"
     pagecolor="#505050"
     bordercolor="#eeeeee"
     borderopacity="1"
     inkscape:showpageshadow="0"
     inkscape:pageopacity="0"
     inkscape:pagecheckerboard="0"
     inkscape:deskcolor="#505050"
     showgrid="false"
     inkscape:zoom="0.6171875"
     inkscape:cx="-172.55696"
     inkscape:cy="223.59494"
     inkscape:window-width="1600"
     inkscape:window-height="782"
     inkscape:window-x="0"
     inkscape:window-y="24"
     inkscape:window-maximized="1"
     inkscape:current-layer="svg71" />
  <title
     id="title2">UosAiAssistant</title>
  <defs
     id="defs43">
    <linearGradient
       x1="28"
       y1="59.847786"
       x2="28"
       y2="-4.5260825"
       id="linearGradient-1"
       gradientUnits="userSpaceOnUse">
      <stop
         stop-color="#001563"
         offset="0%"
         id="stop4" />
      <stop
         stop-color="#0065CB"
         offset="99.0763631%"
         id="stop6" />
    </linearGradient>
    <linearGradient
       x1="0.87162459"
       y1="0.28254831"
       x2="0.24827921"
       y2="0.88466346"
       id="linearGradient-2">
      <stop
         stop-color="#006CFF"
         offset="0%"
         id="stop9" />
      <stop
         stop-color="#4B95EA"
         stop-opacity="0"
         offset="100%"
         id="stop11" />
    </linearGradient>
    <linearGradient
       x1="0.66631007"
       y1="0.5"
       x2="0.15753761"
       y2="0.35095868"
       id="linearGradient-3">
      <stop
         stop-color="#5ADB70"
         stop-opacity="0"
         offset="0%"
         id="stop14" />
      <stop
         stop-color="#11FFA4"
         offset="100%"
         id="stop16" />
    </linearGradient>
    <linearGradient
       x1="0.28101057"
       y1="1"
       x2="0.86566561"
       y2="0.2358667"
       id="linearGradient-4">
      <stop
         stop-color="#EEC61F"
         offset="0%"
         id="stop19" />
      <stop
         stop-color="#8EFFC5"
         stop-opacity="0"
         offset="100%"
         id="stop21" />
    </linearGradient>
    <linearGradient
       x1="0.8665452"
       y1="0.73975831"
       x2="0.5"
       y2="0.54996562"
       id="linearGradient-5">
      <stop
         stop-color="#D840A5"
         offset="0%"
         id="stop24" />
      <stop
         stop-color="#8EFFC5"
         stop-opacity="0"
         offset="100%"
         id="stop26" />
    </linearGradient>
    <linearGradient
       x1="14.751684"
       y1="45.670528"
       x2="14.751684"
       y2="28.819603"
       id="linearGradient-6"
       gradientTransform="scale(1.8980884,0.52684585)"
       gradientUnits="userSpaceOnUse">
      <stop
         stop-color="#0069D2"
         offset="0%"
         id="stop29" />
      <stop
         stop-color="#130B75"
         offset="100%"
         id="stop31" />
    </linearGradient>
    <radialGradient
       cx="27.570898"
       cy="35.725166"
       fx="27.570898"
       fy="35.725166"
       r="23.429964"
       gradientTransform="scale(0.9885087,1.0116249)"
       id="radialGradient-7"
       gradientUnits="userSpaceOnUse">
      <stop
         stop-color="#EFF5FF"
         offset="0%"
         id="stop34" />
      <stop
         stop-color="#E4EEFF"
         offset="40.9128%"
         id="stop36" />
      <stop
         stop-color="#B6D1FF"
         offset="100%"
         id="stop38" />
      <stop
         stop-color="#B6D1FF"
         offset="100%"
         id="stop40" />
    </radialGradient>
    <linearGradient
       inkscape:collect="always"
       xlink:href="#linearGradient-2"
       id="linearGradient479"
       x1="45.454311"
       y1="14.734599"
       x2="12.947501"
       y2="46.134274"
       gradientTransform="scale(0.98677837,1.0133988)"
       gradientUnits="userSpaceOnUse" />
    <linearGradient
       inkscape:collect="always"
       xlink:href="#linearGradient-2"
       id="linearGradient481"
       x1="45.454311"
       y1="14.734599"
       x2="12.947501"
       y2="46.134274"
       gradientTransform="scale(0.98677837,1.0133988)"
       gradientUnits="userSpaceOnUse" />
    <linearGradient
       inkscape:collect="always"
       xlink:href="#linearGradient-3"
       id="linearGradient483"
       x1="34.747375"
       y1="26.074476"
       x2="8.2154217"
       y2="18.302128"
       gradientTransform="scale(0.98677837,1.0133988)"
       gradientUnits="userSpaceOnUse" />
    <linearGradient
       inkscape:collect="always"
       xlink:href="#linearGradient-3"
       id="linearGradient485"
       x1="34.747375"
       y1="26.074476"
       x2="8.2154217"
       y2="18.302128"
       gradientTransform="scale(0.98677837,1.0133988)"
       gradientUnits="userSpaceOnUse" />
    <linearGradient
       inkscape:collect="always"
       xlink:href="#linearGradient-4"
       id="linearGradient487"
       x1="14.654407"
       y1="52.148952"
       x2="45.143559"
       y2="12.300202"
       gradientTransform="scale(0.98677837,1.0133988)"
       gradientUnits="userSpaceOnUse" />
    <linearGradient
       inkscape:collect="always"
       xlink:href="#linearGradient-4"
       id="linearGradient489"
       x1="14.654407"
       y1="52.148952"
       x2="45.143559"
       y2="12.300202"
       gradientTransform="scale(0.98677837,1.0133988)"
       gradientUnits="userSpaceOnUse" />
    <linearGradient
       inkscape:collect="always"
       xlink:href="#linearGradient-5"
       id="linearGradient491"
       x1="45.189426"
       y1="38.577621"
       x2="26.074476"
       y2="28.680132"
       gradientTransform="scale(0.98677837,1.0133988)"
       gradientUnits="userSpaceOnUse" />
    <linearGradient
       inkscape:collect="always"
       xlink:href="#linearGradient-5"
       id="linearGradient493"
       x1="45.189426"
       y1="38.577621"
       x2="26.074476"
       y2="28.680132"
       gradientTransform="scale(0.98677837,1.0133988)"
       gradientUnits="userSpaceOnUse" />
  </defs>
  <g
     id="UosAiAssistant"
     stroke="none"
     stroke-width="1"
     fill="none"
     fill-rule="evenodd"
     transform="matrix(9,0,0,9,-32,-32)">
    <g
       transform="translate(4,4)"
       id="g68">
      <path
         d="M 12.36036,0 H 43.63964 C 50.466078,0 56,5.5339218 56,12.36036 V 43.63964 C 56,50.466078 50.466078,56 43.63964,56 H 12.36036 C 5.5339218,56 0,50.466078 0,43.63964 V 12.36036 C 0,5.5339218 5.5339218,0 12.36036,0 Z"
         id="蒙版"
         fill="url(#linearGradient-1)"
         fill-rule="nonzero"
         style="fill:url(#linearGradient-1)" />
      <g
         id="路径"
         transform="translate(2.27027,3.153153)">
        <g
           id="path-7-link"
           fill="url(#linearGradient-2)"
           style="fill:url(#linearGradient481)">
          <path
             d="m 25.709059,0 c 11.929117,0 21.903985,8.3245938 22.475919,25.328494 0.101756,1.745073 0.02037,3.6355 -0.224249,5.607549 0.273624,0.41328 0.540392,0.843082 0.797472,1.287839 3.081216,5.330622 3.603963,10.790927 1.167585,12.195934 -1.311552,0.756345 -3.213265,0.183327 -5.170342,-1.338561 -1.383972,3.489569 -3.128593,6.850421 -5.134978,9.766432 l -27.76751,-0.0016 C 9.9299887,49.916478 8.2673186,46.510874 6.9203995,42.90859 4.8883005,44.558975 2.8936946,45.204111 1.5336739,44.419816 -0.90270386,43.014809 -0.3799569,37.554504 2.7012593,32.223882 3.0179299,31.676031 3.3493002,31.150871 3.6916486,30.651051 3.4053018,28.839481 3.2099278,27.05418 3.1116485,25.328494 2.9754311,9.9732414 13.654516,0 25.709059,0 Z"
             id="path-7"
             style="fill:url(#linearGradient479)" />
        </g>
        <g
           id="g50"
           fill="url(#linearGradient-3)"
           style="fill:url(#linearGradient485)">
          <path
             d="m 25.709059,0 c 11.929117,0 21.903985,8.3245938 22.475919,25.328494 0.101756,1.745073 0.02037,3.6355 -0.224249,5.607549 0.273624,0.41328 0.540392,0.843082 0.797472,1.287839 3.081216,5.330622 3.603963,10.790927 1.167585,12.195934 -1.311552,0.756345 -3.213265,0.183327 -5.170342,-1.338561 -1.383972,3.489569 -3.128593,6.850421 -5.134978,9.766432 l -27.76751,-0.0016 C 9.9299887,49.916478 8.2673186,46.510874 6.9203995,42.90859 4.8883005,44.558975 2.8936946,45.204111 1.5336739,44.419816 -0.90270386,43.014809 -0.3799569,37.554504 2.7012593,32.223882 3.0179299,31.676031 3.3493002,31.150871 3.6916486,30.651051 3.4053018,28.839481 3.2099278,27.05418 3.1116485,25.328494 2.9754311,9.9732414 13.654516,0 25.709059,0 Z"
             id="path48"
             style="fill:url(#linearGradient483)" />
        </g>
        <g
           id="g54"
           fill="url(#linearGradient-4)"
           style="fill:url(#linearGradient489)">
          <path
             d="m 25.709059,0 c 11.929117,0 21.903985,8.3245938 22.475919,25.328494 0.101756,1.745073 0.02037,3.6355 -0.224249,5.607549 0.273624,0.41328 0.540392,0.843082 0.797472,1.287839 3.081216,5.330622 3.603963,10.790927 1.167585,12.195934 -1.311552,0.756345 -3.213265,0.183327 -5.170342,-1.338561 -1.383972,3.489569 -3.128593,6.850421 -5.134978,9.766432 l -27.76751,-0.0016 C 9.9299887,49.916478 8.2673186,46.510874 6.9203995,42.90859 4.8883005,44.558975 2.8936946,45.204111 1.5336739,44.419816 -0.90270386,43.014809 -0.3799569,37.554504 2.7012593,32.223882 3.0179299,31.676031 3.3493002,31.150871 3.6916486,30.651051 3.4053018,28.839481 3.2099278,27.05418 3.1116485,25.328494 2.9754311,9.9732414 13.654516,0 25.709059,0 Z"
             id="path52"
             style="fill:url(#linearGradient487)" />
        </g>
        <g
           id="g58"
           fill="url(#linearGradient-5)"
           style="fill:url(#linearGradient493)">
          <path
             d="m 25.709059,0 c 11.929117,0 21.903985,8.3245938 22.475919,25.328494 0.101756,1.745073 0.02037,3.6355 -0.224249,5.607549 0.273624,0.41328 0.540392,0.843082 0.797472,1.287839 3.081216,5.330622 3.603963,10.790927 1.167585,12.195934 -1.311552,0.756345 -3.213265,0.183327 -5.170342,-1.338561 -1.383972,3.489569 -3.128593,6.850421 -5.134978,9.766432 l -27.76751,-0.0016 C 9.9299887,49.916478 8.2673186,46.510874 6.9203995,42.90859 4.8883005,44.558975 2.8936946,45.204111 1.5336739,44.419816 -0.90270386,43.014809 -0.3799569,37.554504 2.7012593,32.223882 3.0179299,31.676031 3.3493002,31.150871 3.6916486,30.651051 3.4053018,28.839481 3.2099278,27.05418 3.1116485,25.328494 2.9754311,9.9732414 13.654516,0 25.709059,0 Z"
             id="path56"
             style="fill:url(#linearGradient491)" />
        </g>
      </g>
      <path
         d="m 37.774775,23.963964 c 2.5425,0 4.603603,-2.061104 4.603603,-4.603604 0,-2.5425 -2.061103,-4.603603 -4.603603,-4.603603 -2.5425,0 -4.603604,2.061103 -4.603604,4.603603 0,2.5425 2.061104,4.603604 4.603604,4.603604 z m -19.54955,0 c 2.5425,0 4.603604,-2.061104 4.603604,-4.603604 0,-2.5425 -2.061104,-4.603603 -4.603604,-4.603603 -2.5425,0 -4.603603,2.061103 -4.603603,4.603603 0,2.5425 2.061103,4.603604 4.603603,4.603604 z"
         id="形状结合"
         fill="#ffffff"
         fill-rule="nonzero" />
      <path
         d="m 37.774775,15.847084 c 2.074145,0 3.755571,1.681426 3.755571,3.755571 0,2.074145 -1.681426,3.755572 -3.755571,3.755572 -2.074145,0 -3.755572,-1.681427 -3.755572,-3.755572 0,-2.074145 1.681427,-3.755571 3.755572,-3.755571 z m 2.059507,4.361309 c -0.535263,0 -0.96918,0.433916 -0.96918,0.969179 0,0.535263 0.433917,0.96918 0.96918,0.96918 0.535263,0 0.969179,-0.433917 0.969179,-0.96918 0,-0.535263 -0.433916,-0.969179 -0.969179,-0.969179 z M 18.225225,15.847084 c 2.074145,0 3.755572,1.681426 3.755572,3.755571 0,2.074145 -1.681427,3.755572 -3.755572,3.755572 -2.074145,0 -3.755571,-1.681427 -3.755571,-3.755572 0,-2.074145 1.681426,-3.755571 3.755571,-3.755571 z m 2.059507,4.361309 c -0.535263,0 -0.96918,0.433916 -0.96918,0.969179 0,0.535263 0.433917,0.96918 0.96918,0.96918 0.535263,0 0.96918,-0.433917 0.96918,-0.96918 0,-0.535263 -0.433917,-0.969179 -0.96918,-0.969179 z"
         id="path62"
         fill="url(#linearGradient-6)"
         fill-rule="nonzero"
         style="fill:url(#linearGradient-6)" />
      <path
         d="m 18.477477,11.16723 c 0.628363,0 1.20868,0.173063 1.715193,0.662494 0.223405,0.215871 0.229512,0.571974 0.01364,0.795378 -0.215871,0.223405 -0.571974,0.229513 -0.795378,0.01364 -0.264109,-0.255202 -0.570299,-0.346514 -0.933457,-0.346514 -0.370664,0 -0.699419,0.09624 -0.912587,0.325252 -0.211661,0.227396 -0.567588,0.240151 -0.794984,0.02849 -0.227397,-0.211661 -0.240152,-0.567588 -0.02849,-0.794984 0.469013,-0.503878 1.083492,-0.683757 1.736061,-0.683757 z m 9.585586,13.170608 c -0.986952,0 -1.71778,-0.74368 -1.939161,-1.767738 -0.05835,-0.269907 0.113153,-0.536012 0.383061,-0.59436 0.269907,-0.05835 0.536011,0.113153 0.59436,0.38306 0.130281,0.602646 0.500167,0.979038 0.96174,0.979038 0.511482,0 0.872581,-0.346563 0.95498,-0.954539 0.03709,-0.27364 0.288981,-0.465405 0.562622,-0.428319 0.27364,0.03709 0.465405,0.288981 0.428319,0.562622 -0.147077,1.085193 -0.91295,1.820236 -1.945921,1.820236 z M 37.522522,11.16723 c 0.628363,0 1.20868,0.173063 1.715193,0.662494 0.223405,0.215871 0.229512,0.571974 0.01364,0.795378 -0.215871,0.223405 -0.571974,0.229513 -0.795378,0.01364 -0.264109,-0.255202 -0.570299,-0.346514 -0.933457,-0.346514 -0.370663,0 -0.699419,0.09624 -0.912587,0.325252 -0.211661,0.227396 -0.567588,0.240151 -0.794984,0.02849 -0.227397,-0.211661 -0.240152,-0.567588 -0.02849,-0.794984 0.469013,-0.503878 1.083492,-0.683757 1.736061,-0.683757 z"
         id="path64"
         fill="#00244e"
         fill-rule="nonzero" />
      <path
         d="m 41.479759,40.208101 c 0.228084,5.646377 -2.048139,11.625737 -5.205542,15.79245 H 19.798076 c -3.171767,-4.205889 -5.469189,-10.23574 -5.283019,-15.79245 0.326298,-9.739145 5.894449,-11.779307 13.203945,-11.828789 l 0.278406,-9.34e-4 c 7.446097,0 13.075279,1.75239 13.482351,11.829723 z"
         id="path66"
         fill="url(#radialGradient-7)"
         fill-rule="nonzero"
         style="fill:url(#radialGradient-7)" />
    </g>
  </g>
</svg>
