<?xml version="1.0" encoding="UTF-8"?>
<svg width="16px" height="16px" viewBox="0 0 16 16" version="1.1" xmlns="http://www.w3.org/2000/svg" xmlns:xlink="http://www.w3.org/1999/xlink">
    <title>统信有容大模型</title>
    <defs>
        <linearGradient x1="42.3274963%" y1="56.6612451%" x2="94.4666048%" y2="32.0463772%" id="linearGradient-1">
            <stop stop-color="#1C80B9" offset="0%"></stop>
            <stop stop-color="#1DD6CE" offset="100%"></stop>
        </linearGradient>
        <linearGradient x1="39.277562%" y1="70.6752139%" x2="93.5860439%" y2="32.6627141%" id="linearGradient-2">
            <stop stop-color="#0570B6" offset="0%"></stop>
            <stop stop-color="#00DCFE" offset="100%"></stop>
        </linearGradient>
        <linearGradient x1="50%" y1="43.70676%" x2="50%" y2="99.5608338%" id="linearGradient-3">
            <stop stop-color="#5FEFF9" offset="0%"></stop>
            <stop stop-color="#1779D9" offset="100%"></stop>
        </linearGradient>
        <linearGradient x1="50%" y1="29.4348306%" x2="50%" y2="100%" id="linearGradient-4">
            <stop stop-color="#25D7FD" offset="0%"></stop>
            <stop stop-color="#0666FC" offset="100%"></stop>
        </linearGradient>
        <linearGradient x1="58.3673991%" y1="22.4548061%" x2="50%" y2="100%" id="linearGradient-5">
            <stop stop-color="#75EEF9" offset="0%"></stop>
            <stop stop-color="#129CEC" offset="100%"></stop>
        </linearGradient>
    </defs>
    <g id="统信有容大模型" stroke="none" stroke-width="1" fill="none" fill-rule="evenodd">
        <g id="编组-3" fill-rule="nonzero">
            <g id="编组-11" transform="translate(2.5, 0.5)">
                <g id="编组-4">
                    <path d="M10.0464658,6.6697123 C10.0717791,6.70554328 10.0965499,6.74166335 10.1207784,6.77807253 C10.1451877,6.81449922 10.1690545,6.85120626 10.1923789,6.88819363 C10.2157033,6.92518101 10.2385757,6.96243997 10.260996,6.9999705 C10.2834164,7.03748352 10.3053847,7.07526811 10.326901,7.11332428 C10.3484174,7.15138046 10.3694816,7.18968193 10.3900939,7.2282287 C10.4105254,7.26677546 10.4305048,7.30555877 10.4500322,7.34457861 C10.4695596,7.38361598 10.488635,7.42287236 10.5072584,7.46234775 C10.5258817,7.50182315 10.5439627,7.5415088 10.5615012,7.5814047 C10.5790397,7.62131813 10.5960358,7.66142429 10.6124894,7.70172318 C10.6289431,7.7420396 10.6449447,7.78253999 10.6604943,7.82322435 C10.6760439,7.86392623 10.6910511,7.90479457 10.7055158,7.94582935 C10.7199806,7.98688166 10.7339029,8.02809166 10.7472828,8.06945935 C10.7608435,8.11084457 10.7737713,8.15237871 10.7860664,8.19406178 C10.7985422,8.23574486 10.8103852,8.2775681 10.8215954,8.31953151 C10.8329864,8.36149493 10.843835,8.40358975 10.8541411,8.44581598 C10.8642664,8.48804222 10.8739397,8.53038234 10.883161,8.57283635 C10.8923823,8.61527283 10.9010611,8.65782321 10.9091975,8.70048748 C10.917334,8.74315174 10.924928,8.78590361 10.9319795,8.82874309 C10.9390311,8.87158256 10.9454498,8.91449212 10.9512357,8.95747177 C10.9572024,9.00046894 10.9626267,9.04352743 10.9675086,9.08664725 C10.9723904,9.12976707 10.9767298,9.17293945 10.9805268,9.21616439 C10.9843238,9.25938934 10.9875784,9.30264932 10.9902905,9.34594435 C10.9928219,9.38923938 10.9949012,9.43256069 10.9965285,9.47590829 C10.9981557,9.51925588 10.9992406,9.56262099 10.999783,9.60600363 C11.0001446,9.64936874 11,9.69274262 10.9995118,9.73612526 C10.9987886,9.77949037 10.9976133,9.82284672 10.995986,9.86619432 C10.9941779,9.90954191 10.9919178,9.95285446 10.9892057,9.99613197 C10.9863127,10.039427 10.9829678,10.0826782 10.9791708,10.1258856 C10.975193,10.1691106 10.9707631,10.2122742 10.9658813,10.2553765 C10.9608186,10.2984788 10.9552135,10.3415198 10.949066,10.3844994 C10.9430993,10.4274615 10.9364998,10.4703536 10.9292674,10.5131755 C10.9222158,10.5559975 10.9145314,10.5987231 10.9062142,10.6413523 C10.6453063,12.0010983 9.8113232,13.2742718 8.62421944,14.05169 C8.52902332,14.1142409 8.42487714,14.1912469 8.3177476,14.2325094 C7.28298475,14.8824605 5.77310919,15.1542152 4.56474225,14.9132103 C4.546815,14.9097937 4.52905049,14.9053258 4.51139445,14.900595 C4.54168906,14.8856143 4.53130156,14.8971784 4.54204164,14.8651145 C4.43941425,14.783115 4.30963834,14.7421152 4.19529451,14.6769361 C3.94726929,14.5352768 3.70163076,14.3828418 3.47869283,14.2059647 C2.54191961,13.4621873 2.14011604,12.4604269 2.02707404,11.3196878 L2.02183961,11.1611029 C2.02509418,10.0264613 2.26113174,9.49194024 2.67942512,8.48981186 C2.90526503,8.06317798 3.12985736,7.62521661 3.40486838,7.22594217 C3.88665296,7.86220039 4.36040961,8.3939881 5.03565115,8.84937437 C5.23689195,8.98506775 5.46286747,9.09103632 5.65993158,9.22762329 L5.66983089,9.22749188 C5.74644885,9.25945066 5.82249726,9.29041072 5.89550808,9.32959702 L6.0995695,9.41795672 C7.0280707,9.79964858 8.21362854,10.0610219 9.18942945,9.68300956 C9.62635524,9.51367536 9.97622132,9.21103942 10.159562,8.78661322 C10.4522019,8.1085668 10.2696749,7.33863891 10.0464658,6.6697123 Z" id="路径" fill="url(#linearGradient-1)"></path>
                    <path d="M10.0464658,6.6697123 C10.0717791,6.70554328 10.0965499,6.74166335 10.1207784,6.77807253 C10.1451877,6.81449922 10.1690545,6.85120626 10.1923789,6.88819363 C10.2157033,6.92518101 10.2385757,6.96243997 10.260996,6.9999705 C10.2834164,7.03748352 10.3053847,7.07526811 10.326901,7.11332428 C10.3484174,7.15138046 10.3694816,7.18968193 10.3900939,7.2282287 C10.4105254,7.26677546 10.4305048,7.30555877 10.4500322,7.34457861 C10.4695596,7.38361598 10.488635,7.42287236 10.5072584,7.46234775 C10.5258817,7.50182315 10.5439627,7.5415088 10.5615012,7.5814047 C10.5790397,7.62131813 10.5960358,7.66142429 10.6124894,7.70172318 C10.6289431,7.7420396 10.6449447,7.78253999 10.6604943,7.82322435 C10.6760439,7.86392623 10.6910511,7.90479457 10.7055158,7.94582935 C10.7199806,7.98688166 10.7339029,8.02809166 10.7472828,8.06945935 C10.7608435,8.11084457 10.7737713,8.15237871 10.7860664,8.19406178 C10.7985422,8.23574486 10.8103852,8.2775681 10.8215954,8.31953151 C10.8329864,8.36149493 10.843835,8.40358975 10.8541411,8.44581598 C10.8642664,8.48804222 10.8739397,8.53038234 10.883161,8.57283635 C10.8923823,8.61527283 10.9010611,8.65782321 10.9091975,8.70048748 C10.917334,8.74315174 10.924928,8.78590361 10.9319795,8.82874309 C10.9390311,8.87158256 10.9454498,8.91449212 10.9512357,8.95747177 C10.9572024,9.00046894 10.9626267,9.04352743 10.9675086,9.08664725 C10.9723904,9.12976707 10.9767298,9.17293945 10.9805268,9.21616439 C10.9843238,9.25938934 10.9875784,9.30264932 10.9902905,9.34594435 C10.9928219,9.38923938 10.9949012,9.43256069 10.9965285,9.47590829 C10.9981557,9.51925588 10.9992406,9.56262099 10.999783,9.60600363 C11.0001446,9.64936874 11,9.69274262 10.9995118,9.73612526 C10.9987886,9.77949037 10.9976133,9.82284672 10.995986,9.86619432 C10.9941779,9.90954191 10.9919178,9.95285446 10.9892057,9.99613197 C10.9863127,10.039427 10.9829678,10.0826782 10.9791708,10.1258856 C10.975193,10.1691106 10.9707631,10.2122742 10.9658813,10.2553765 C10.9608186,10.2984788 10.9552135,10.3415198 10.949066,10.3844994 C10.9430993,10.4274615 10.9364998,10.4703536 10.9292674,10.5131755 C10.9222158,10.5559975 10.9145314,10.5987231 10.9062142,10.6413523 C10.6453063,12.0010983 9.8113232,13.2742718 8.62421944,14.05169 C8.52902332,14.1142409 8.42487714,14.1912469 8.3177476,14.2325094 C7.28298475,14.8824605 5.77310919,15.1542152 4.56474225,14.9132103 C4.546815,14.9097937 4.52905049,14.9053258 4.51139445,14.900595 C4.54168906,14.8856143 4.53130156,14.8971784 4.54204164,14.8651145 C4.43941425,14.783115 4.30963834,14.7421152 4.19529451,14.6769361 C3.94726929,14.5352768 3.70163076,14.3828418 3.47869283,14.2059647 C2.54191961,13.4621873 2.14011604,12.4604269 2.02707404,11.3196878 L2.02183961,11.1611029 C2.02509418,10.0264613 2.26113174,9.49194024 2.67942512,8.48981186 C2.90526503,8.06317798 3.12985736,7.62521661 3.40486838,7.22594217 C3.88665296,7.86220039 4.36040961,8.3939881 5.03565115,8.84937437 C5.23689195,8.98506775 5.46286747,9.09103632 5.65993158,9.22762329 L5.66983089,9.22749188 C5.74644885,9.25945066 5.82249726,9.29041072 5.89550808,9.32959702 L6.0995695,9.41795672 C7.0280707,9.79964858 8.21362854,10.0610219 9.18942945,9.68300956 C9.62635524,9.51367536 9.97622132,9.21103942 10.159562,8.78661322 C10.4522019,8.1085668 10.2696749,7.33863891 10.0464658,6.6697123 Z" id="路径" fill="url(#linearGradient-2)" style="mix-blend-mode: soft-light;"></path>
                    <path d="M3.40486838,7.22594217 C3.88665296,7.86220039 4.36040961,8.3939881 5.03565115,8.84937437 C5.23689195,8.98506775 5.46286747,9.09103632 5.65993158,9.22762329 L5.66983089,9.22749188 C5.74644885,9.25945066 5.82249726,9.29041072 5.89550808,9.32959702 L6.0995695,9.41795672 C6.34363808,9.51828938 6.60546848,9.61030839 6.87658197,9.68458593 C5.78112615,10.9893668 5.49722463,12.5225395 6.29391212,13.4288376 C6.79778792,14.0020381 7.63542852,14.2124513 8.57192485,14.0865577 L8.50606993,14.1304768 C8.44522904,14.1701267 8.38202532,14.2077519 8.3177476,14.2325094 C7.28298475,14.8824605 5.77310919,15.1542152 4.56474225,14.9132103 C4.546815,14.9097937 4.52905049,14.9053258 4.51139445,14.900595 L4.53217639,14.8908686 C4.53675947,14.8878851 4.53559759,14.8843528 4.54204164,14.8651145 C4.43941425,14.783115 4.30963834,14.7421152 4.19529451,14.6769361 C3.94726929,14.5352768 3.70163076,14.3828418 3.47869283,14.2059647 C2.54191961,13.4621873 2.14011604,12.4604269 2.02707404,11.3196878 L2.02183961,11.1611029 C2.02509418,10.0264613 2.26113174,9.49194024 2.67942512,8.48981186 L2.90676274,8.06125454 C3.06059533,7.77550228 3.2215277,7.49212513 3.40486838,7.22594217 Z" id="形状" fill-opacity="0.05" fill="#000000"></path>
                    <path d="M7.62997597,5.04239039 C7.37036991,6.56647705 6.48843616,7.93300379 5.66983089,9.22749188 C5.51041129,9.46550066 5.32747744,9.71399591 5.2057837,9.96517191 L5.03578676,10.2645489 L5.0215209,10.2955352 L5.00815005,10.303341 C4.91458121,10.4964077 4.81964727,10.6888349 4.72334821,10.8806226 L4.72622308,10.8954193 L4.66113171,11.0873822 L4.61749338,11.2400537 C4.59313836,11.3592158 4.56403709,11.4796657 4.54578439,11.5997476 C4.53124732,11.7406185 4.52529266,11.8814661 4.52569446,12.0225706 L4.53078626,12.2344552 C4.64363841,12.9454854 4.90384114,13.5376163 5.52155819,13.9720559 C6.07768253,14.3631304 6.86808155,14.4929629 7.53960746,14.3828418 C7.77925216,14.343419 8.0797573,14.2175288 8.3177476,14.2325094 C7.28298475,14.8824605 5.77310919,15.1542152 4.56474225,14.9132103 C4.546815,14.9097937 4.52905049,14.9053258 4.51139445,14.900595 C4.54168906,14.8856143 4.53130156,14.8971784 4.54204164,14.8651145 C4.43941425,14.783115 4.30963834,14.7421152 4.19529451,14.6769361 C3.94726929,14.5352768 3.70163076,14.3828418 3.47869283,14.2059647 C2.54191961,13.4621873 2.14011604,12.4604269 2.02707404,11.3196878 L2.02183961,11.1611029 C2.02509418,10.0264613 2.26113174,9.49194024 2.67942512,8.48981186 C2.90526503,8.06317798 3.12985736,7.62521661 3.40486838,7.22594217 L3.41455072,7.1893315 C3.30869589,6.95723615 3.17270918,6.75045026 3.08950072,6.50697486 C3.0668001,6.45853734 3.04312312,6.42544844 3.00707878,6.38536856 L2.95432765,6.32026833 C2.98294073,6.07093206 2.82240915,5.6262688 2.81229287,5.33666868 C2.76938681,5.16707166 2.77923188,4.98407088 2.77692656,4.81003222 L2.5671154,4.75757357 C2.42586713,4.72322315 2.37043099,4.73886087 2.24458768,4.81208221 C2.40045438,4.61509946 2.58197792,4.43464802 2.7541717,4.25099019 C2.84776766,4.12867428 2.97496704,4.0141641 3.08171687,3.9011257 C3.29250441,3.67904375 3.5004442,3.4544913 3.70553624,3.22746836 C3.97813345,3.2578765 4.173733,3.39551475 4.42140564,3.49896026 C4.59010076,3.56939572 5.2606503,3.83105819 5.4106859,3.8169711 C5.75838227,2.91213827 5.87709264,2.3221099 5.84018042,1.35459477 C5.75450391,0.86590935 5.60655666,0.492706547 5.45432423,0.0298299424 C5.8193783,0.27346304 6.50226808,0.953296626 6.70904165,1.33109876 C7.52271082,2.43977391 7.85982985,3.693052 7.62997597,5.04239039 Z" id="形状结合" fill="url(#linearGradient-3)"></path>
                    <path d="M3.41455072,7.1893315 L3.40486838,7.22594217 C3.12985736,7.62521661 2.90526503,8.06317798 2.67942512,8.48981186 C2.26113174,9.49194024 2.02509418,10.0264613 2.02183961,11.1611029 L2.02707404,11.3196878 C2.14011604,12.4604269 2.54191961,13.4621873 3.47869283,14.2059647 C3.70163076,14.3828418 3.94726929,14.5352768 4.19529451,14.6769361 C4.30963834,14.7421152 4.43941425,14.783115 4.54204164,14.8651145 C4.53130156,14.8971784 4.54168906,14.8856143 4.51139445,14.900595 C4.26906473,14.8666914 4.02228709,14.7999354 3.78991092,14.7258205 C3.74711335,14.7121539 3.70450563,14.6979617 3.66208775,14.6832438 C3.6196518,14.6685259 3.57741474,14.6532824 3.53537656,14.6375133 C3.49332031,14.6217442 3.45148103,14.605537 3.40985872,14.5888918 C3.36821832,14.5722466 3.3267949,14.5550758 3.28558845,14.5373793 L3.22396863,14.5104404 L3.16267426,14.482713 C3.12193791,14.4639653 3.08144566,14.4447795 3.0411975,14.4251557 C3.00093126,14.4055319 2.96092719,14.38547 2.9211853,14.3649701 C2.88142532,14.3444703 2.84193656,14.3234448 2.80271901,14.3018936 C2.76350147,14.2803425 2.72456417,14.2583533 2.68590714,14.2359261 C2.64723202,14.2134989 2.60885523,14.1906336 2.57077678,14.1673303 L2.51387608,14.1318498 L2.45740933,14.0958436 C2.41992755,14.0716643 2.38276219,14.0469593 2.34591324,14.0217287 L2.2908568,13.9837514 L2.23628854,13.9449856 C2.20007242,13.9190541 2.16419081,13.8926846 2.12864369,13.8658771 C2.09309657,13.8390696 2.05789299,13.811824 2.02303295,13.7841404 C1.98817291,13.7564568 1.95366545,13.7283352 1.91951056,13.6997756 C1.88535568,13.6713911 1.85157145,13.6424811 1.81815788,13.6130453 L1.76831553,13.5688261 L1.67031234,13.4786792 L1.62217863,13.4327516 C1.59026578,13.4019142 1.55875976,13.3706387 1.52766055,13.3389253 C1.49654326,13.307387 1.46583279,13.2754983 1.43552915,13.2432592 L1.34583867,13.1452277 C1.31636675,13.1121126 1.28731068,13.0787346 1.25867048,13.0450937 C1.23003028,13.0112777 1.20182403,12.9771989 1.17405171,12.9428572 L1.13270513,12.8910819 L1.01267937,12.7326284 C0.986660904,12.6969551 0.961103503,12.660984 0.936007166,12.624715 C0.910910829,12.588446 0.886275555,12.5518791 0.862101346,12.5150144 L0.79098903,12.4036054 C0.767736948,12.3661975 0.744973052,12.3285093 0.72269734,12.2905408 C0.700403548,12.2525897 0.678597941,12.2143758 0.657280519,12.1758992 C0.635963097,12.1374225 0.61513386,12.0987005 0.594792809,12.0597332 C-0.0275077569,10.8631714 -0.190778596,9.32922907 0.244845361,8.04790821 C0.398081281,7.16678164 1.55440225,5.43065271 2.24458768,4.81208221 C2.40045438,4.61509946 2.58197792,4.43464802 2.7541717,4.25099019 C2.84776766,4.12867428 2.97496704,4.0141641 3.08171687,3.9011257 C3.29250441,3.67904375 3.5004442,3.4544913 3.70553624,3.22746836 C4.3083094,2.54837067 4.92911828,1.77789085 5.21495074,0.915739809 C5.26965461,0.750794683 5.31871722,0.577859862 5.35158836,0.407605795 C5.37754354,0.273200221 5.38087948,0.129963934 5.42451781,0 L5.45432423,0.0298299424 C5.60655666,0.492706547 5.75450391,0.86590935 5.84018042,1.35459477 C5.87709264,2.3221099 5.75838227,2.91213827 5.4106859,3.8169711 C4.93291528,4.82788513 4.34495428,5.78616244 3.72615364,6.72271973 L3.41455072,7.1893315 Z" id="形状结合" fill="url(#linearGradient-4)"></path>
                    <path d="M5.31664665,0.949467145 C5.8712337,0.446017677 6.4374619,1.05805341 6.61505467,1.38253844 C6.62023573,1.39118349 6.62145064,1.39283708 6.62266492,1.39449161 C7.41845407,2.47880409 7.74920455,3.70443497 7.52435442,5.02439929 C7.27331414,6.49819822 6.43225692,7.82206352 5.6398952,9.07447377 L5.46506292,9.33518114 C5.28552454,9.60403122 5.18622918,9.75987025 5.11183054,9.91367049 C4.81953982,10.4468915 4.72425669,10.6400407 4.62759778,10.8325451 L4.62239996,10.842913 L4.61718791,10.8534182 C4.61688369,10.8610884 4.61658275,10.8687788 4.61628509,10.8764897 C4.53362628,13.0177458 4.82403674,13.6124775 5.45992688,14.0596982 C6.03771918,14.4660099 6.8587298,14.6030704 7.56555874,14.4867943 C7.57960914,14.4832867 7.59338195,14.4798411 7.60681697,14.4765551 C6.67078452,14.8641295 5.53271459,14.9970343 4.5813942,14.8073694 C4.30241815,14.7634781 4.06790389,14.7011225 3.84693853,14.6310891 C0.118614138,10.8541322 -0.0828384268,9.34459922 0.346285904,8.082396 C0.349509716,8.07145038 0.349953881,8.06885307 0.350403833,8.06626578 C0.500853077,7.20116298 1.6388827,5.49881477 2.31609649,4.89186994 C2.325012,4.88311791 2.32680889,4.88084033 2.32860878,4.87856565 C2.44656657,4.72949178 2.57958516,4.59015071 2.71215753,4.45105309 C3.37142285,3.75152392 3.57965362,3.52664151 3.78566672,3.29859289 C4.39799082,2.60873489 5.02639086,1.82496021 5.31664665,0.949467145 Z" id="形状结合" stroke="url(#linearGradient-5)" stroke-width="0.214285714"></path>
                </g>
                <g id="编组-4">
                    <path d="M10.0464796,6.64747993 C10.0717929,6.68319147 10.0965638,6.71919114 10.1207923,6.75547895 L10.1923929,6.86523299 C10.2157173,6.90209707 10.2385897,6.93923183 10.2610101,6.97663727 L10.2943017,7.03292223 L10.3901082,7.2041346 L10.4500466,7.32009668 C10.469574,7.35900392 10.4886494,7.39812945 10.5072728,7.43747326 C10.5258962,7.47681707 10.5439772,7.51637043 10.5615157,7.55613335 C10.5790542,7.59591373 10.5960503,7.63588621 10.612504,7.67605077 C10.6289577,7.7162328 10.6449593,7.75659819 10.6605089,7.79714693 C10.6760586,7.83771315 10.6910658,7.87844525 10.7055305,7.91934326 L10.7472975,8.04256116 C10.7608583,8.08380842 10.7737861,8.12520411 10.7860812,8.16674824 L10.8043204,8.22916922 L10.8216103,8.29179974 C10.8330013,8.33362328 10.8438499,8.37557779 10.854156,8.41766326 C10.8642813,8.45974874 10.8739547,8.50194773 10.883176,8.54426023 L10.9092125,8.67148585 C10.917349,8.7140079 10.924943,8.75661726 10.9319945,8.79931394 C10.9390461,8.84201062 10.9454649,8.88477715 10.9512508,8.92761353 L10.9675236,9.05635843 C10.9724055,9.09933451 10.9767449,9.14236298 10.9805419,9.18544384 L10.9903056,9.3147912 L10.9965436,9.44432193 C10.9981709,9.48752503 10.9992557,9.53074559 10.9997981,9.57398362 L10.9995269,9.7036715 C10.9988037,9.74689207 10.9976284,9.7901039 10.9960011,9.833307 C10.994193,9.8765101 10.9919329,9.91967828 10.9892208,9.96281153 L10.9791858,10.0921327 C10.975208,10.1352136 10.9707782,10.1782333 10.9658963,10.2211919 L10.949081,10.3498844 L10.9292824,10.4781316 C10.9222308,10.5208108 10.9145464,10.563394 10.9062292,10.6058811 C10.6453209,11.9610947 9.81133668,13.2300242 8.62423129,14.0048511 C8.56076712,14.0464127 8.49332514,14.0943773 8.42367327,14.133921 L8.31775902,14.1850677 C7.62791618,14.6169241 6.72691184,14.8812535 5.84485634,14.9383182 L5.58103827,14.94918 C5.23065242,14.9552658 4.88698015,14.9275534 4.56474852,14.8634996 C4.54682125,14.8600944 4.52905671,14.8556413 4.51140065,14.8509264 C4.26907059,14.8171357 4.02229262,14.7506023 3.78991613,14.6767344 C3.7471185,14.6631134 3.70451071,14.6489685 3.66209278,14.6342997 C3.61965677,14.6196309 3.57741965,14.6044382 3.53538142,14.5887216 L3.4098634,14.5402622 L3.22397306,14.4620723 L3.1626786,14.4344373 C3.1219422,14.415752 3.08144989,14.3966302 3.04120168,14.3770718 C3.00093538,14.3575134 2.96093126,14.3375184 2.92118931,14.3170869 C2.88142928,14.2966554 2.84194046,14.2756999 2.80272286,14.2542206 C2.76350526,14.2327413 2.72456792,14.2108254 2.68591083,14.188473 C2.64723565,14.1661205 2.60885882,14.1433315 2.57078032,14.1201059 L2.51387954,14.0847436 L2.4574127,14.0488575 L2.34591646,13.9749896 L2.29085994,13.9371389 L2.23629161,13.8985023 C2.20007545,13.8726573 2.16419378,13.8463757 2.12864662,13.8196575 C2.09309945,13.7929393 2.05789582,13.7657846 2.02303573,13.7381933 L1.9195132,13.6541096 L1.86855879,13.611282 L1.76831796,13.5235966 L1.67031464,13.4337503 L1.62218086,13.3879758 C1.59026797,13.3572411 1.5587619,13.3260699 1.52766265,13.2944622 C1.49654532,13.263029 1.46583481,13.2312466 1.43553112,13.199115 L1.34584052,13.1014103 C1.31636855,13.0684055 1.28731245,13.0351388 1.25867221,13.0016101 L1.17405332,12.8997143 C1.14626289,12.8654872 1.11892448,12.8309107 1.09203809,12.795985 L1.01268076,12.6901863 C0.986662259,12.6546319 0.961104823,12.6187807 0.936008452,12.5826326 L0.898709693,12.5281878 L0.86210253,12.4732976 C0.837928287,12.4365733 0.81422415,12.3995607 0.790990117,12.3622601 L0.722698333,12.2495723 C0.70040451,12.2117477 0.678598873,12.1736613 0.657281422,12.1353128 C0.635963971,12.0969644 0.615134705,12.0583715 0.594793626,12.0195341 C0.187384419,11.2387785 -0.023280786,10.313901 0.00204442748,9.40990515 C0.676823502,10.6037651 2.1403137,11.4081208 3.90935989,11.9640321 C6.85907989,12.8909624 9.71804667,12.6487642 10.6699656,9.81532319 C10.9715748,8.91756615 10.7282071,7.76801178 10.0690296,6.71171959 L10.0464796,6.64747993 Z" id="形状结合" fill-opacity="0.05" fill="#000000"></path>
                    <path d="M10.0464796,6.64747993 L10.0731777,6.686 C10.3863487,7.56349509 10.4316212,8.40715941 10.0409776,9.00509863 L9.95053486,9.12938778 C9.27033877,9.97139255 7.85157374,10.0685624 6.38188694,9.49467533 C7.25951084,9.81210399 8.30971881,9.99038959 9.18944208,9.65073286 C9.62636846,9.48196311 9.97623503,9.18033596 10.159576,8.75732451 C10.4522163,8.08153825 10.269689,7.31417678 10.0464796,6.64747993 Z M5.42452526,0 L5.45433172,0.0297305093 C5.81938629,0.272551497 6.50227701,0.950118971 6.70905086,1.32666176 C7.52272116,2.43164133 7.85984065,3.68074182 7.62998645,5.02558242 C7.39034976,6.42774215 6.62044496,7.69609715 5.85955994,8.89768799 L5.68577492,9.17355219 C5.36699472,9.00346404 5.05092229,8.8023081 4.74458966,8.57083883 C3.07784084,7.31141982 2.24166541,5.56431773 2.63200989,4.36306634 L2.75417549,4.23682022 C2.84777157,4.11491204 2.97497112,4.00078355 3.08172111,3.88812195 C3.29250893,3.66678027 3.50044901,3.44297633 3.70554133,3.21671013 C4.30831531,2.5398761 4.92912506,1.77196455 5.2149579,0.912687343 C5.26966185,0.748292034 5.31872453,0.575933663 5.35159571,0.406247109 C5.37755093,0.272289554 5.38088687,0.129530721 5.42452526,0 Z" id="形状结合" fill-opacity="0.15" fill="#FFFFFF"></path>
                </g>
            </g>
        </g>
    </g>
</svg>