<?xml version="1.0" encoding="UTF-8"?>
<svg width="29px" height="29px" viewBox="0 0 29 29" version="1.1" xmlns="http://www.w3.org/2000/svg" xmlns:xlink="http://www.w3.org/1999/xlink">
    <!-- Generator: Sketch 58 (84663) - https://sketch.com -->
    <title>deepin-cloudprint-config-helper</title>
    <desc>Created with Sketch.</desc>
    <defs>
        <linearGradient x1="50%" y1="0%" x2="50%" y2="97.6283482%" id="linearGradient-1">
            <stop stop-color="#FFD200" offset="0%"></stop>
            <stop stop-color="#FFB223" offset="100%"></stop>
        </linearGradient>
        <path d="M0,13.5 C0,11.6624916 0.356246424,9.9117288 1.06875,8.2476576 C1.78125372,6.5835864 2.7398376,5.149224 3.9445308,3.9445308 C5.149224,2.7398376 6.5835864,1.7812548 8.2476576,1.06875 C9.9117288,0.3562452 11.6624916,0 13.5,0 C15.328134,0 17.0742096,0.3562452 18.7382808,1.06875 C20.402352,1.7812548 21.839058,2.7398376 23.0484384,3.9445308 C24.2578188,5.149224 25.2187452,6.5835864 25.93125,8.2476576 C26.6437548,9.9117288 27,11.6624916 27,13.5 C27,15.328134 26.6437548,17.0765532 25.93125,18.7453116 C25.2187452,20.41407 24.2578188,21.850776 23.0484384,23.0554692 C21.839058,24.2601624 20.402352,25.2187463 18.7382808,25.93125 C17.0742096,26.6437536 15.328134,27 13.5,27 C11.6624916,27 9.9117288,26.6437536 8.2476576,25.93125 C6.5835864,25.2187463 5.149224,24.2601624 3.9445308,23.0554692 C2.7398376,21.850776 1.78125372,20.41407 1.06875,18.7453116 C0.356246424,17.0765532 0,15.328134 0,13.5 L0,13.5 Z" id="path-2"></path>
        <filter x="-7.4%" y="-3.7%" width="114.8%" height="114.8%" filterUnits="objectBoundingBox" id="filter-3">
            <feOffset dx="0" dy="1" in="SourceAlpha" result="shadowOffsetOuter1"></feOffset>
            <feGaussianBlur stdDeviation="0.5" in="shadowOffsetOuter1" result="shadowBlurOuter1"></feGaussianBlur>
            <feColorMatrix values="0 0 0 0 0   0 0 0 0 0   0 0 0 0 0  0 0 0 0.2 0" type="matrix" in="shadowBlurOuter1"></feColorMatrix>
        </filter>
    </defs>
    <g id="-" stroke="none" stroke-width="1" fill="none" fill-rule="evenodd">
        <g id="邮件首页-收信弹窗" transform="translate(-519.000000, -297.000000)">
            <g id="对话框-12" transform="translate(505.000000, 285.000000)">
                <g id="deepin-cloudprint-config-helper" transform="translate(15.000000, 12.000000)">
                    <g id="Page-1-+-Path-+-Rectangle-115">
                        <g id="Page-1">
                            <use fill="black" fill-opacity="1" filter="url(#filter-3)" xlink:href="#path-2"></use>
                            <use fill="url(#linearGradient-1)" fill-rule="evenodd" xlink:href="#path-2"></use>
                        </g>
                        <path d="M11.5,19.08125 C11.5,19.6625024 11.7062512,20.1593744 12.1187536,20.5718732 C12.5312524,20.9843756 13.0281244,21.1906268 13.6093768,21.1906268 C14.1906292,21.1906268 14.6875012,20.9843756 15.1,20.5718732 C15.5125024,20.1593744 15.7187536,19.6625024 15.7187536,19.08125 C15.7187536,18.4999976 15.5125024,18.0031256 15.1,17.5906268 C14.70625,17.1968732 14.209378,17 13.6093768,17 C13.0093756,17 12.5125036,17.1968732 12.1187536,17.5906268 C11.7062512,18.0031256 11.5,18.4999976 11.5,19.08125 L11.5,19.08125 Z" id="Path" fill="#FFFFFF"></path>
                        <rect id="Rectangle-115" fill="#FFFFFF" x="12" y="5" width="3" height="10" rx="1.5"></rect>
                    </g>
                </g>
            </g>
        </g>
    </g>
</svg>