<?xml version="1.0" encoding="UTF-8"?>
<svg width="16px" height="16px" viewBox="0 0 16 16" version="1.1" xmlns="http://www.w3.org/2000/svg" xmlns:xlink="http://www.w3.org/1999/xlink">
    <title>zhipu</title>
    <g id="zhipu" stroke="none" stroke-width="1" fill="none" fill-rule="evenodd">
        <path d="M4.93217132,3.05239357 C5.13962541,3.05239357 5.30780019,2.88396453 5.30780019,2.67619679 C5.30780019,2.46842904 5.13962541,2.3 4.93217132,2.3 C4.72471722,2.3 4.55654245,2.46842904 4.55654245,2.67619679 C4.55654245,2.88396453 4.72471722,3.05239357 4.93217132,3.05239357 Z M11.0660923,3.05181391 C11.2732268,3.05181391 11.4411424,2.8836444 11.4411424,2.67619679 C11.4411424,2.46874917 11.2732268,2.30057966 11.0660923,2.30057966 C10.8589579,2.30057966 10.6910423,2.46874917 10.6910423,2.67619679 C10.6910423,2.8836444 10.8589579,3.05181391 11.0660923,3.05181391 Z M8.00086817,3.68885593 C8.33522408,3.68885593 8.6062731,3.41739711 8.6062731,3.08253569 C8.6062731,2.74767426 8.33522408,2.47621544 8.00086817,2.47621544 C7.66651226,2.47621544 7.39546325,2.74767426 7.39546325,3.08253569 C7.39546325,3.41739711 7.66651226,3.68885593 8.00086817,3.68885593 Z M6.50877076,4.09461517 C7.0861048,4.19840984 7.4380873,4.80351642 7.26331692,5.35207258 L7.22125017,5.46086452 C7.01809804,5.90372175 7.1807355,6.36976522 7.63623614,6.52163511 C7.77803749,6.56916691 7.93257201,6.56163138 8.08073995,6.56916691 C8.68035706,6.59757006 9.22904145,7.03463073 9.36910645,7.63979166 C9.58846445,8.5904276 8.8742487,9.44831858 7.9267842,9.39730884 C7.60498197,9.38049882 7.27854949,9.59265294 7.16742353,9.87958269 C6.97121678,10.3879411 7.33006099,10.7073315 7.76125284,10.8684759 C7.89823101,10.9198721 8.02614161,10.9291466 8.14498464,10.8962994 C8.36376386,10.8352423 8.5370123,10.7415313 8.66472998,10.6151662 C8.80884644,10.4725708 8.8985575,10.2859216 9.05830106,10.1526007 C9.37026401,9.89175547 9.79566805,9.84190504 10.149882,10.0395678 C10.4763145,10.2219662 10.6487912,10.4988486 10.6673122,10.8702149 C10.6962513,11.4388575 10.2077601,11.9083789 9.64807889,11.9021298 C9.34479765,11.8979451 9.0750857,11.7281059 8.90260897,11.4939248 C8.78743155,11.3374177 8.68209341,11.1756936 8.50382886,11.0881656 C8.09829631,10.8887639 7.73250672,10.9129162 7.40646009,11.1606226 C7.23919238,11.2875673 7.12864521,11.4492913 6.99726192,11.6057984 C6.67661725,11.9889511 6.02490984,11.9860528 5.67358978,11.6544896 C5.33210899,11.3322008 5.20593473,10.8870249 5.43165932,10.462137 C5.5844575,10.1742412 5.82484455,9.99976471 6.15282044,9.93870761 L6.37547055,9.89805749 C6.48469347,9.87422667 6.58887405,9.83854304 6.67951115,9.76133285 C6.91295282,9.56309048 6.99147411,9.30862147 6.91507502,8.99792582 C6.87861182,8.84721524 6.78890076,8.70693847 6.72176217,8.56434308 C6.53346541,8.16502446 6.54729899,7.73868385 6.73114969,7.36837188 L6.80800053,7.23229345 C7.05803393,6.83986629 6.96253506,6.40860218 6.56201861,6.15935007 C6.50259709,6.12250971 6.43871682,6.09494384 6.37037779,6.07665247 L6.26452518,6.05617129 C6.01854325,6.02602918 5.73436178,5.9135759 5.57346067,5.71475387 C5.24760696,5.31363187 5.23950403,4.79947695 5.57751213,4.41980222 C5.82986065,4.13654363 6.14028019,4.02814794 6.50877076,4.09461517 Z M3.76071858,9.82857295 C4.09731205,9.82857295 4.37017497,10.1018484 4.37017497,10.4389508 C4.37017497,10.7760532 4.09731205,11.0493286 3.76071858,11.0493286 C3.42412511,11.0493286 3.15126219,10.7760532 3.15126219,10.4389508 C3.15126219,10.1018484 3.42412511,9.82857295 3.76071858,9.82857295 Z M12.245648,9.82973227 C12.5800039,9.82973227 12.8510529,10.1011911 12.8510529,10.4360525 C12.8510529,10.7709139 12.5800039,11.0423728 12.245648,11.0423728 C11.9112921,11.0423728 11.6402431,10.7709139 11.6402431,10.4360525 C11.6402431,10.1011911 11.9112921,9.82973227 12.245648,9.82973227 Z M11.3711099,7.00159033 C11.9145182,7.00159033 12.3550376,7.44277579 12.3550376,7.98700564 C12.3550376,8.53123549 11.9145182,8.97242095 11.3711099,8.97242095 C10.8277017,8.97242095 10.3871822,8.53123549 10.3871822,7.98700564 C10.3871822,7.44277579 10.8277017,7.00159033 11.3711099,7.00159033 Z M4.63467789,6.99521412 C5.1790451,6.99521412 5.62034193,7.43717814 5.62034193,7.98236839 C5.62034193,8.52755864 5.1790451,8.96952267 4.63467789,8.96952267 C4.09031067,8.96952267 3.64901385,8.52755864 3.64901385,7.98236839 C3.64901385,7.43717814 4.09031067,6.99521412 4.63467789,6.99521412 Z M3.76419126,4.92352334 C4.09950613,4.92352334 4.37133253,5.19576073 4.37133253,5.53158255 C4.37133253,5.86740438 4.09950613,6.13964177 3.76419126,6.13964177 C3.4288764,6.13964177 3.15705,5.86740438 3.15705,5.53158255 C3.15705,5.19576073 3.4288764,4.92352334 3.76419126,4.92352334 Z M12.2427541,4.92352334 C12.5767904,4.92352334 12.8475803,5.19472264 12.8475803,5.52926393 C12.8475803,5.86380522 12.5767904,6.13500452 12.2427541,6.13500452 C11.9087179,6.13500452 11.637928,5.86380522 11.637928,5.52926393 C11.637928,5.19472264 11.9087179,4.92352334 12.2427541,4.92352334 Z M9.68512088,4.07780515 C10.2294881,4.07780515 10.6707849,4.51976917 10.6707849,5.06495942 C10.6707849,5.61014968 10.2294881,6.0521137 9.68512088,6.0521137 C9.14075366,6.0521137 8.69945684,5.61014968 8.69945684,5.06495942 C8.69945684,4.51976917 9.14075366,4.07780515 9.68512088,4.07780515 Z M14.1243711,8.3608838 C14.3318252,8.3608838 14.5,8.19245476 14.5,7.98468702 C14.5,7.77691927 14.3318252,7.60849023 14.1243711,7.60849023 C13.916917,7.60849023 13.7487423,7.77691927 13.7487423,7.98468702 C13.7487423,8.19245476 13.916917,8.3608838 14.1243711,8.3608838 Z M1.5,8.04149331 L1.5,7.90469448 C1.57871422,7.68094724 1.72823264,7.58433789 1.94855527,7.61486645 C2.03421486,7.62684601 2.11157859,7.68017436 2.18064645,7.77485152 C2.29756022,7.93541625 2.24257602,8.17539386 2.09209296,8.29596232 C1.99794459,8.37170405 1.88604693,8.38696832 1.75639998,8.34175515 C1.62752475,8.29654198 1.54205809,8.1964547 1.5,8.04149331 Z M8.00260451,13.5001145 C8.33728007,13.5001145 8.60858822,13.2283961 8.60858822,12.8932146 C8.60858822,12.558033 8.33728007,12.2863147 8.00260451,12.2863147 C7.66792896,12.2863147 7.39662081,12.558033 7.39662081,12.8932146 C7.39662081,13.2283961 7.66792896,13.5001145 8.00260451,13.5001145 Z M4.93217132,13.6769096 C5.14090402,13.6769096 5.31011531,13.5074424 5.31011531,13.2983942 C5.31011531,13.0893459 5.14090402,12.9198787 4.93217132,12.9198787 C4.72343862,12.9198787 4.55422733,13.0893459 4.55422733,13.2983942 C4.55422733,13.5074424 4.72343862,13.6769096 4.93217132,13.6769096 Z M11.0597257,13.6774892 C11.2674995,13.6774892 11.4359334,13.5088007 11.4359334,13.3007128 C11.4359334,13.0926249 11.2674995,12.9239363 11.0597257,12.9239363 C10.851952,12.9239363 10.6835181,13.0926249 10.6835181,13.3007128 C10.6835181,13.5088007 10.851952,13.6774892 11.0597257,13.6774892 Z" id="形状" fill="#0079FF" fill-rule="nonzero"></path>
    </g>
</svg>