<?xml version="1.0" encoding="UTF-8"?>
<svg width="15px" height="15.0000077px" viewBox="0 0 15 15.0000077" version="1.1" xmlns="http://www.w3.org/2000/svg" xmlns:xlink="http://www.w3.org/1999/xlink">
    <title>model-checked</title>
    <g id="AI助手设置备份" stroke="none" stroke-width="1" fill="none" fill-rule="evenodd">
        <g id="画板" transform="translate(-91.000000, -231.999993)" fill="#FFFFFF">
            <path d="M105.4125,238.075004 C105.306663,237.951571 105.122815,237.932363 104.99375,238.031254 L103.00625,239.531253 C102.966529,239.556994 102.944755,239.602962 102.95,239.650003 C102.953115,239.70621 102.953115,239.762546 102.95,239.818753 C102.875657,240.331075 102.400124,240.686167 101.887786,240.611933 C101.375447,240.5377 101.020254,240.062244 101.094377,239.54989 C101.1685,239.037536 101.64388,238.68224 102.15625,238.756253 C102.211991,238.764189 102.266559,238.77888 102.31875,238.800003 C102.358236,238.819067 102.404264,238.819067 102.44375,238.800003 L102.88125,238.468754 C103.019321,238.3652 103.047303,238.169325 102.94375,238.031254 L102.40625,237.318754 C102.35059,237.239435 102.259394,237.192667 102.1625,237.193754 L102.0625,237.193754 C101.544733,237.119541 101.185162,236.639646 101.259375,236.12188 C101.333588,235.604113 101.813483,235.244542 102.33125,235.318755 C102.57579,235.354302 102.796176,235.485583 102.943878,235.683693 C103.091581,235.881802 103.154489,236.130493 103.11875,236.375005 L103.11875,236.475005 C103.0951,236.567582 103.113387,236.665877 103.16875,236.743754 L103.70625,237.456254 C103.755505,237.52384 103.829794,237.568864 103.9125,237.581254 C103.994584,237.588822 104.076654,237.566641 104.14375,237.518754 L104.93125,236.893754 C104.995761,236.848219 105.038703,236.778155 105.05,236.700004 C105.06239,236.592144 105.066569,236.483498 105.0625,236.375005 C105.0625,235.166882 104.083123,234.187506 102.875,234.187506 C102.792618,232.954478 101.767024,231.997258 100.53125,232 C100.006415,231.999564 99.4971269,232.178145 99.0875,232.506257 C99.0121464,232.564604 98.9682507,232.654705 98.96875,232.750007 L98.96875,238.250004 C98.96875,238.508887 98.7588835,238.718753 98.5,238.718753 C98.2411165,238.718753 98.03125,238.508887 98.03125,238.250004 L98.03125,232.750007 C98.0317493,232.654705 97.9878536,232.564604 97.9125,232.506257 C97.5028731,232.178145 96.9935845,231.999564 96.46875,232 C95.2352256,231.997039 94.210521,232.950697 94.125,234.181256 C93.5437544,234.181253 92.986406,234.412579 92.57599,234.824167 C92.165574,235.235756 91.9358393,235.793762 91.9375,236.375005 C91.9383213,236.49233 91.9487731,236.60939 91.96875,236.725004 C91.9800467,236.803155 92.0229893,236.873219 92.0875,236.918754 L92.875,237.512504 C92.9420962,237.560391 93.0241662,237.582572 93.10625,237.575004 C93.1889563,237.562614 93.2632454,237.51759 93.3125,237.450004 L93.85,236.737504 C93.9053629,236.659627 93.9236503,236.561332 93.9,236.468755 L93.9,236.368755 C93.8251459,235.863762 94.1708186,235.392644 94.675,235.312505 C95.0099365,235.264498 95.3450423,235.398823 95.5540863,235.664883 C95.7631304,235.930942 95.8143538,236.288315 95.6884613,236.602382 C95.5625689,236.91645 95.2786865,237.139497 94.94375,237.187504 L94.84375,237.187504 C94.7468562,237.186417 94.6556598,237.233185 94.6,237.312504 L94.0625,238.012504 C93.9589466,238.150575 93.9869288,238.34645 94.125,238.450004 L94.55625,238.781253 C94.598054,238.799708 94.645696,238.799708 94.6875,238.781253 C94.7396907,238.76013 94.7942587,238.745439 94.85,238.737503 C95.3623702,238.66349 95.8377502,239.018786 95.9118733,239.53114 C95.9859963,240.043494 95.6308025,240.51895 95.1184641,240.593183 C94.6061257,240.667417 94.1305932,240.312325 94.05625,239.800003 C94.0531354,239.743796 94.0531354,239.68746 94.05625,239.631253 C94.061495,239.584212 94.0397205,239.538244 94,239.512503 L92.00625,238.031254 C91.8771847,237.932363 91.6933373,237.951571 91.5875,238.075004 C91.223286,238.461719 91.0141577,238.968966 91,239.5 C91.0304395,240.238728 91.414151,240.91778 92.03125,241.325002 C92.1560171,241.411264 92.200821,241.574667 92.1375,241.712502 C91.8835005,242.261889 91.8699155,242.892269 92.1000109,243.452089 C92.3301064,244.011908 92.7830693,244.450529 93.35,244.6625 C93.4674643,244.705983 93.5995072,244.67664 93.6875,244.5875 L94.75,243.543751 C94.7809203,243.50999 94.7947302,243.463957 94.7875,243.418751 C94.7687461,243.364076 94.7561679,243.307474 94.75,243.250001 C94.75,242.732234 95.169733,242.312502 95.6875,242.312502 C96.205267,242.312502 96.625,242.732234 96.625,243.250001 C96.625,243.767768 96.205267,244.187501 95.6875,244.187501 C95.6314177,244.193643 95.5748323,244.193643 95.51875,244.187501 C95.4735439,244.18027 95.4275109,244.19408 95.39375,244.225001 L94.38125,245.21875 C94.294612,245.310825 94.2679398,245.444186 94.3125,245.5625 C94.6768875,246.431589 95.5263649,246.997907 96.46875,247 C96.9935845,247.000443 97.5028731,246.821861 97.9125,246.493749 C97.9878536,246.435402 98.0317493,246.345301 98.03125,246.25 L98.03125,244.8125 C98.03125,244.553617 98.2411165,244.343751 98.5,244.343751 C98.7588835,244.343751 98.96875,244.553617 98.96875,244.8125 L98.96875,246.25 C98.9682507,246.345301 99.0121464,246.435402 99.0875,246.493749 C99.4971269,246.821861 100.006415,247.000443 100.53125,247 C101.473635,246.997907 102.323113,246.431589 102.6875,245.5625 C102.73206,245.444186 102.705388,245.310825 102.61875,245.21875 L101.625,244.206251 C101.591239,244.17533 101.545206,244.16152 101.5,244.168751 C101.443918,244.174893 101.387332,244.174893 101.33125,244.168751 C100.94876,244.176327 100.600036,243.950737 100.450142,243.59876 C100.300248,243.246783 100.379257,242.839037 100.649771,242.568523 C100.920286,242.298008 101.328032,242.218999 101.680009,242.368893 C102.031986,242.518788 102.257576,242.867511 102.25,243.250001 C102.256142,243.306083 102.256142,243.362669 102.25,243.418751 C102.24277,243.463957 102.25658,243.50999 102.2875,243.543751 L103.33125,244.5875 C103.419243,244.67664 103.551286,244.705983 103.66875,244.6625 C104.235681,244.450529 104.688644,244.011908 104.918739,243.452089 C105.148835,242.892269 105.135249,242.261889 104.88125,241.712502 C104.817929,241.574667 104.862733,241.411264 104.9875,241.325002 C105.597465,240.913622 105.973816,240.235262 106,239.5 C105.985842,238.968966 105.776714,238.461719 105.4125,238.075004 L105.4125,238.075004 Z" id="model-checked"></path>
        </g>
    </g>
</svg>