<?xml version="1.0" encoding="UTF-8"?>
<svg width="14px" height="15px" viewBox="0 0 14 15" version="1.1" xmlns="http://www.w3.org/2000/svg" xmlns:xlink="http://www.w3.org/1999/xlink">
    <title>路径</title>
    <g id="草稿2" stroke="none" stroke-width="1" fill="none" fill-rule="evenodd" fill-opacity="0.7">
        <g id="画板" transform="translate(-95, -106)" fill="#FFFFFF" fill-rule="nonzero">
            <g id="list_icon_clear3" transform="translate(49, 19)">
                <path d="M55.6983882,87.55 C56.5363428,87.55 57.3396457,87.8862569 57.9315164,88.4843356 C58.5225243,89.0815424 58.8543106,89.8908595 58.8543106,90.7344621 C58.8543106,91.5781195 58.5225313,92.3874395 57.9315206,92.9846491 L52.3315946,98.6434663 C51.9954701,98.9831162 51.5389221,99.1742146 51.0626587,99.1742146 C50.5863521,99.1742146 50.1298621,98.9831311 49.7937229,98.6434663 C49.4584248,98.3046514 49.2703268,97.8458403 49.2703268,97.3675805 C49.2703268,96.8894079 49.4584543,96.4304798 49.7937183,96.0916993 L54.9098144,90.9217868 C55.0763701,90.7534791 55.3478305,90.7520589 55.5161381,90.9186145 C55.6844458,91.0851702 55.6858661,91.3566305 55.5193104,91.5249382 L50.4032098,96.6948553 C50.2270485,96.8728643 50.1278097,97.1149525 50.1278097,97.3675805 C50.1278097,97.6202851 50.2270115,97.8622593 50.4032098,98.0403057 C50.5785336,98.2174684 50.8156692,98.3167317 51.0626587,98.3167317 C51.3096104,98.3167317 51.5468024,98.2174497 51.7221035,98.0403099 L57.3220295,92.3814927 C57.7539408,91.9450513 57.9968276,91.3525696 57.9968276,90.7344621 C57.9968276,90.1164121 57.7539358,89.5239325 57.3220295,89.0874962 C56.8909741,88.6519196 56.3070257,88.4074829 55.6983882,88.4074829 C55.0897341,88.4074829 54.5057562,88.6519116 54.0749321,89.0873088 L48.4816276,94.7462317 C47.7940036,95.441126 47.4074829,96.3840525 47.4074829,97.3675805 C47.4074829,98.3511302 47.7940182,99.2941079 48.4816276,99.9889294 C49.168335,100.682897 50.0991863,101.072517 51.0694488,101.072517 C52.0397509,101.072517 52.9705453,100.682915 53.6570955,99.9891057 L59.2502273,94.3302928 C59.4166811,94.1618843 59.6881405,94.1602997 59.856549,94.3267535 C60.0249574,94.4932072 60.026542,94.7646667 59.8600883,94.9330752 L54.2667821,100.592064 C53.4192313,101.448576 52.2690677,101.93 51.0694488,101.93 C49.8698713,101.93 48.7196503,101.44856 47.8721281,100.592077 C47.0254205,99.7364888 46.55,98.5766699 46.55,97.3675805 C46.55,96.158517 47.0254019,94.9987625 47.8719428,94.1432712 L53.465241,88.4843547 C54.057063,87.8862504 54.8604174,87.55 55.6983882,87.55 Z" id="路径"></path>
            </g>
        </g>
    </g>
</svg>