<?xml version="1.0" encoding="UTF-8"?>
<svg width="110px" height="110px" viewBox="0 0 110 110" version="1.1" xmlns="http://www.w3.org/2000/svg" xmlns:xlink="http://www.w3.org/1999/xlink">
    <title>UOSAI-110</title>
    <defs>
        <filter x="-10.4%" y="-8.3%" width="120.8%" height="120.8%" filterUnits="objectBoundingBox" id="filter-1">
            <feOffset dx="0" dy="2" in="SourceAlpha" result="shadowOffsetOuter1"></feOffset>
            <feGaussianBlur stdDeviation="3" in="shadowOffsetOuter1" result="shadowBlurOuter1"></feGaussianBlur>
            <feColorMatrix values="0 0 0 0 0   0 0 0 0 0   0 0 0 0 0  0 0 0 0.2 0" type="matrix" in="shadowBlurOuter1" result="shadowMatrixOuter1"></feColorMatrix>
            <feMerge>
                <feMergeNode in="shadowMatrixOuter1"></feMergeNode>
                <feMergeNode in="SourceGraphic"></feMergeNode>
            </feMerge>
        </filter>
        <linearGradient x1="108.214078%" y1="39.0940622%" x2="50%" y2="22.6773233%" id="linearGradient-2">
            <stop stop-color="#6448FF" offset="0%"></stop>
            <stop stop-color="#FF37DF" offset="100%"></stop>
        </linearGradient>
        <linearGradient x1="7.56318058%" y1="59.477802%" x2="56.6767213%" y2="26.2923136%" id="linearGradient-3">
            <stop stop-color="#FF02AA" offset="0%"></stop>
            <stop stop-color="#FF8BF4" stop-opacity="0" offset="100%"></stop>
        </linearGradient>
        <linearGradient x1="50%" y1="34.5476641%" x2="22.8225671%" y2="92.5161165%" id="linearGradient-4">
            <stop stop-color="#FB6060" stop-opacity="0" offset="0%"></stop>
            <stop stop-color="#FCA506" offset="100%"></stop>
        </linearGradient>
        <path d="M21.1891892,0 L74.8108108,0 C86.5132769,0 96,9.48672314 96,21.1891892 L96,74.8108108 C96,86.5132769 86.5132769,96 74.8108108,96 L21.1891892,96 C9.48672314,96 0,86.5132769 0,74.8108108 L0,21.1891892 C0,9.48672314 9.48672314,0 21.1891892,0 Z" id="path-5"></path>
        <filter x="-14.3%" y="-11.0%" width="128.6%" height="131.7%" filterUnits="objectBoundingBox" id="filter-6">
            <feOffset dx="0" dy="3" in="SourceAlpha" result="shadowOffsetOuter1"></feOffset>
            <feGaussianBlur stdDeviation="2" in="shadowOffsetOuter1" result="shadowBlurOuter1"></feGaussianBlur>
            <feColorMatrix values="0 0 0 0 0.402470336   0 0 0 0 0.462433474   0 0 0 0 0.713599164  0 0 0 0.244004043 0" type="matrix" in="shadowBlurOuter1" result="shadowMatrixOuter1"></feColorMatrix>
            <feMerge>
                <feMergeNode in="shadowMatrixOuter1"></feMergeNode>
                <feMergeNode in="SourceGraphic"></feMergeNode>
            </feMerge>
        </filter>
    </defs>
    <g id="UOSAI-110" stroke="none" stroke-width="1" fill="none" fill-rule="evenodd">
        <g id="apps/128/UosAiAssistant" transform="translate(7, 7)" fill-rule="nonzero">
            <g id="编组" filter="url(#filter-1)">
                <g id="矩形备份">
                    <use fill="url(#linearGradient-2)" xlink:href="#path-5"></use>
                    <use fill="url(#linearGradient-3)" xlink:href="#path-5"></use>
                    <use fill="url(#linearGradient-4)" xlink:href="#path-5"></use>
                </g>
                <g id="编组-2" filter="url(#filter-6)" transform="translate(13.74, 17.1)" stroke="#FFFFFF" stroke-width="4.609375">
                    <path d="M23.6314151,61.7789883 C19.0279999,61.7789883 14.7702858,59.3285468 12.4467741,55.3545406 L7.29704811,46.4145149 C7.23752173,46.3111759 7.27303885,46.1791474 7.37637783,46.119621 C7.40915996,46.1007375 7.44632796,46.0907981 7.48415989,46.0907981 L22.0930979,46.0907981 C24.3731172,46.0907981 26.4852623,44.8921883 27.6544903,42.9347937 L42.059844,18.8189136 C43.229072,16.8615189 45.3412171,15.6629091 47.6212364,15.6629091 L61.6135375,15.6629091 C61.6916511,15.6629091 61.7636748,15.705096 61.8018808,15.7732286 L66.8247297,24.7304554 L66.8247297,24.7304554 C69.1212401,28.7657523 69.082859,33.7214299 66.724122,37.7206724 L56.1840822,55.397062 C53.8544033,59.3470366 49.6102267,61.7789883 45.0244113,61.7789883 L23.6314151,61.7789883 Z" id="路径"></path>
                    <path d="M22.3037433,16.5325692 L22.3037433,31.140454 C22.3037433,33.4204733 23.502353,35.5326184 25.4597477,36.7018464 L49.7625148,51.218835 C50.6839565,51.7692479 50.9847347,52.9624219 50.4343217,53.8838635 C50.2515013,54.1899217 49.9880164,54.4397948 49.6727001,54.6061394 L41.2788049,59.0343263 C38.6283985,60.4325442 35.4426629,60.357124 32.8613925,58.8350495 L10.865733,45.8650672 C8.23199536,44.3120548 6.61555307,41.4823661 6.61555307,38.4248473 L6.61555307,32.7135155 C6.61555307,28.0914523 9.07788568,23.8194305 13.0773608,21.5026078 L21.9795707,16.3457208 C22.0827642,16.2859426 22.2148789,16.3211378 22.274657,16.4243313 C22.2937099,16.4572218 22.3037433,16.4945588 22.3037433,16.5325692 Z" id="路径-70" opacity="0.847593762" stroke-linejoin="round" transform="translate(29.6736, 38.7209) rotate(-90) translate(-29.6736, -38.7209)"></path>
                    <path d="M16.7367723,46.0907981 C12.1333571,46.0907981 7.87564304,43.6961757 5.55213137,39.7221695 L0.195145238,30.7545625 C0.133985839,30.6521816 0.167402527,30.5196059 0.269783499,30.4584465 C0.303260183,30.4384485 0.341527411,30.427889 0.380522386,30.427889 L14.1187817,30.427889 C16.398801,30.427889 18.5109461,29.2292792 19.6801741,27.2718845 L34.0855278,3.15600443 C35.2547558,1.19860979 37.3669009,1.86048122e-13 39.6469202,1.8562929e-13 L54.5092068,1.86822779e-13 C54.5839594,1.86809048e-13 54.6533947,0.0386620556 54.6927653,0.102206523 L60.1460216,8.90381814 L60.1460216,8.90381814 C62.442532,12.939115 62.1882162,17.8947926 59.8294793,21.8940351 L49.2894395,39.7646909 C46.9597606,43.7146655 42.715584,46.0907981 38.1297685,46.0907981 L16.7367723,46.0907981 Z" id="路径" transform="translate(30.87, 23.0454) rotate(180) translate(-30.87, -23.0454)"></path>
                    <path d="M57.8093748,16.6649269 L35.254044,3.05051103 C32.4112602,1.33460446 28.8365052,1.40024895 26.0586364,3.21936953 L18.7794834,7.98620983 C17.7817994,8.63955515 17.5026577,9.97797889 18.156003,10.9756629 C18.3352219,11.2493373 18.5742796,11.4787145 18.8551244,11.646474 L43.1643863,26.1673422 C45.121781,27.3365702 46.3203907,29.4487154 46.3203907,31.7287346 L46.3203907,45.4678523 C46.3203907,45.5871098 46.417068,45.683787 46.5363254,45.683787 C46.5751782,45.683787 46.6133113,45.6733043 46.6467045,45.653444 L55.6499632,40.2988306 C59.5768366,37.9633552 61.9832999,33.7322263 61.9832999,29.1633336 L61.9832999,24.0596524 C61.9832999,21.0337967 60.3999003,18.2285702 57.8093748,16.6649269 Z" id="路径-71" opacity="0.900085449" stroke-linejoin="round" transform="translate(38.9379, 23.0454) rotate(-90) translate(-38.9379, -23.0454)"></path>
                </g>
            </g>
        </g>
    </g>
</svg>