<?xml version="1.0" encoding="UTF-8"?>
<svg width="16px" height="16px" viewBox="0 0 16 16" version="1.1" xmlns="http://www.w3.org/2000/svg" xmlns:xlink="http://www.w3.org/1999/xlink">
    <title>UOSAI-16</title>
    <defs>
        <linearGradient x1="50%" y1="106.87104%" x2="50%" y2="-8.08228935%" id="linearGradient-1">
            <stop stop-color="#001563" offset="0%"></stop>
            <stop stop-color="#0065CB" offset="99.0763631%"></stop>
        </linearGradient>
        <linearGradient x1="89.1945791%" y1="31.2559898%" x2="23.451462%" y2="83.1574132%" id="linearGradient-2">
            <stop stop-color="#006CFF" offset="0%"></stop>
            <stop stop-color="#4B95EA" stop-opacity="0" offset="100%"></stop>
        </linearGradient>
        <linearGradient x1="67.5404174%" y1="50%" x2="13.8811092%" y2="37.1528597%" id="linearGradient-3">
            <stop stop-color="#5ADB70" stop-opacity="0" offset="0%"></stop>
            <stop stop-color="#11FFA4" offset="100%"></stop>
        </linearGradient>
        <linearGradient x1="26.9035799%" y1="93.0992525%" x2="88.5660898%" y2="27.2321051%" id="linearGradient-4">
            <stop stop-color="#EEC61F" offset="0%"></stop>
            <stop stop-color="#8EFFC5" stop-opacity="0" offset="100%"></stop>
        </linearGradient>
        <linearGradient x1="88.6588606%" y1="70.6668099%" x2="50%" y2="54.3069601%" id="linearGradient-5">
            <stop stop-color="#D840A5" offset="0%"></stop>
            <stop stop-color="#8EFFC5" stop-opacity="0" offset="100%"></stop>
        </linearGradient>
        <path d="M7.01155148,1 C10.1843679,1 12.8374078,2.98424143 12.9895263,7.03727322 C13.0170241,7.459889 12.9942383,7.98433713 12.9267229,8.57066937 C13.2772795,8.73815344 13.6498745,9.01426714 14.0011572,9.37266613 L14.0009204,10.9099099 C14.0009204,11.5714037 13.7930675,12.1843508 13.4391099,12.687003 C13.051294,12.411072 12.6609752,12.0243087 12.3202694,11.5586517 C12.0909819,12.3763937 11.8095096,13.1950902 11.4854759,13.9459303 C11.2991151,13.9816999 11.1071098,14 10.9108303,14 L3.09101053,14 C2.93558097,14 2.78283166,13.9885245 2.63356362,13.9663745 C2.39913678,13.3973129 2.18685919,12.787932 1.99825213,12.1664769 C1.61413568,12.5588845 1.20413376,12.8523665 0.825442768,13.0121597 C0.313607097,12.459556 0.000920435956,11.7212489 0.000920435956,10.9099099 L-0.00116529821,10.4691552 C0.0584288055,10.3671068 0.122677357,10.2647397 0.191522477,10.1625725 C0.506812874,9.69467655 0.874543755,9.29621954 1.24714505,8.99623328 C1.1199323,8.26741214 1.03677138,7.59602865 1.0012633,7.03727322 C0.965033227,3.37721135 3.80537535,1 7.01155148,1 Z" id="path-6"></path>
        <filter x="-7.2%" y="-7.7%" width="114.3%" height="115.4%" filterUnits="objectBoundingBox" id="filter-8">
            <feGaussianBlur stdDeviation="1" in="SourceAlpha" result="shadowBlurInner1"></feGaussianBlur>
            <feOffset dx="0" dy="0" in="shadowBlurInner1" result="shadowOffsetInner1"></feOffset>
            <feComposite in="shadowOffsetInner1" in2="SourceAlpha" operator="arithmetic" k2="-1" k3="1" result="shadowInnerInner1"></feComposite>
            <feColorMatrix values="0 0 0 0 0.425990854   0 0 0 0 0.741752332   0 0 0 0 1  0 0 0 1 0" type="matrix" in="shadowInnerInner1"></feColorMatrix>
        </filter>
        <linearGradient x1="50%" y1="109.360765%" x2="50%" y2="-8.83481406%" id="linearGradient-9">
            <stop stop-color="#0069D2" offset="0%"></stop>
            <stop stop-color="#130B75" offset="100%"></stop>
        </linearGradient>
        <radialGradient cx="47.2409555%" cy="28.1029292%" fx="47.2409555%" fy="28.1029292%" r="83.8525507%" gradientTransform="translate(0.472410,0.281029),scale(0.624490,1.000000),rotate(90.000000),scale(1.000000,1.232947),translate(-0.472410,-0.281029)" id="radialGradient-10">
            <stop stop-color="#EFF5FF" offset="0%"></stop>
            <stop stop-color="#E4EEFF" offset="40.9128%"></stop>
            <stop stop-color="#B6D1FF" offset="100%"></stop>
            <stop stop-color="#B6D1FF" offset="100%"></stop>
        </radialGradient>
    </defs>
    <g id="UOSAI-16" stroke="none" stroke-width="1" fill="none" fill-rule="evenodd">
        <g id="编组" transform="translate(1.001165, 1.000000)">
            <g id="编组-2">
                <path d="M3.09101053,0 L10.9108303,0 C12.61744,0 14.0009204,1.38348046 14.0009204,3.09009009 L14.0009204,10.9099099 C14.0009204,12.6165195 12.61744,14 10.9108303,14 L3.09101053,14 C1.38440089,14 0.000920435956,12.6165195 0.000920435956,10.9099099 L0.000920435956,3.09009009 C0.000920435956,1.38348046 1.38440089,0 3.09101053,0 Z" id="蒙版" fill="url(#linearGradient-1)"></path>
                <mask id="mask-7" fill="white">
                    <use xlink:href="#path-6"></use>
                </mask>
                <g id="形状结合">
                    <use fill="url(#linearGradient-2)" fill-rule="evenodd" xlink:href="#path-6"></use>
                    <use fill="url(#linearGradient-3)" fill-rule="evenodd" xlink:href="#path-6"></use>
                    <use fill="url(#linearGradient-4)" fill-rule="evenodd" xlink:href="#path-6"></use>
                    <use fill="url(#linearGradient-5)" fill-rule="evenodd" xlink:href="#path-6"></use>
                    <use fill="black" fill-opacity="1" filter="url(#filter-8)" xlink:href="#path-6"></use>
                </g>
            </g>
            <path d="M6.45587539,8.36486486 C6.50080791,8.03333377 6.7213638,7.81981982 7.02569521,7.81981982 C7.33002662,7.81981982 7.53202254,8.06566385 7.59551503,8.35936495" id="路径-2" stroke="#00244E" stroke-width="0.6" opacity="0.898049491" stroke-linecap="round" stroke-linejoin="round" transform="translate(7.025695, 8.092342) rotate(-180.000000) translate(-7.025695, -8.092342) "></path>
            <path d="M3.56986014,3.1981982 C3.73322104,3.02269349 3.96753255,3 4.09013041,3 C4.21272827,3 4.42681372,3.02080259 4.61040068,3.1981982" id="路径-2" stroke="#00244E" stroke-width="0.6" opacity="0.898049491" stroke-linecap="round" stroke-linejoin="round"></path>
            <path d="M9.48290242,3.1981982 C9.64626332,3.02269349 9.88057483,3 10.0031727,3 C10.1257706,3 10.339856,3.02080259 10.523443,3.1981982" id="路径-2" stroke="#00244E" stroke-width="0.6" opacity="0.898049491" stroke-linecap="round" stroke-linejoin="round"></path>
            <path d="M9.75092044,7.5 C10.7174187,7.5 11.5009204,6.71649831 11.5009204,5.75 C11.5009204,4.78350169 10.7174187,4 9.75092044,4 C8.78442212,4 8.00092044,4.78350169 8.00092044,5.75 C8.00092044,6.71649831 8.78442212,7.5 9.75092044,7.5 Z M4.25092044,7.5 C5.21741875,7.5 6.00092044,6.71649831 6.00092044,5.75 C6.00092044,4.78350169 5.21741875,4 4.25092044,4 C3.28442212,4 2.50092044,4.78350169 2.50092044,5.75 C2.50092044,6.71649831 3.28442212,7.5 4.25092044,7.5 Z" id="形状结合" fill="#FFFFFF"></path>
            <path d="M9.75092044,7.26973684 C10.5393796,7.26973684 11.178552,6.63056441 11.178552,5.84210526 C11.178552,5.05364611 10.5393796,4.41447368 9.75092044,4.41447368 C8.96246129,4.41447368 8.32328886,5.05364611 8.32328886,5.84210526 C8.32328886,6.63056441 8.96246129,7.26973684 9.75092044,7.26973684 Z M4.25092044,7.26973684 C5.03937959,7.26973684 5.67855201,6.63056441 5.67855201,5.84210526 C5.67855201,5.05364611 5.03937959,4.41447368 4.25092044,4.41447368 C3.46246129,4.41447368 2.82328886,5.05364611 2.82328886,5.84210526 C2.82328886,6.63056441 3.46246129,7.26973684 4.25092044,7.26973684 Z" id="形状结合" fill="url(#linearGradient-9)"></path>
            <path d="M10.5338152,6.80921053 C10.7372885,6.80921053 10.9022362,6.6442628 10.9022362,6.44078947 C10.9022362,6.23731614 10.7372885,6.07236842 10.5338152,6.07236842 C10.3303418,6.07236842 10.1653941,6.23731614 10.1653941,6.44078947 C10.1653941,6.6442628 10.3303418,6.80921053 10.5338152,6.80921053 Z M5.03381517,6.80921053 C5.2372885,6.80921053 5.40223623,6.6442628 5.40223623,6.44078947 C5.40223623,6.23731614 5.2372885,6.07236842 5.03381517,6.07236842 C4.83034184,6.07236842 4.66539412,6.23731614 4.66539412,6.44078947 C4.66539412,6.6442628 4.83034184,6.80921053 5.03381517,6.80921053 Z" id="形状结合" fill="#FFFFFF"></path>
            <path d="M7.00092044,9 C9.20713948,9 10.8756021,9.47727309 11.0009204,12 C11.0273342,12.6755482 10.9313782,13.3545702 10.7453048,14.0004508 L3.27194699,14.0003679 C3.0802811,13.350556 2.97906363,12.6703873 3.00092044,12 C3.10198555,9.53580439 4.79316493,9 7.00092044,9 Z" id="形状结合" fill="url(#radialGradient-10)"></path>
        </g>
    </g>
</svg>