<?xml version="1.0" encoding="UTF-8"?>
<svg width="16px" height="16px" viewBox="0 0 16 16" version="1.1" xmlns="http://www.w3.org/2000/svg" xmlns:xlink="http://www.w3.org/1999/xlink">
    <title>UOSAI-16</title>
    <defs>
        <linearGradient x1="108.214078%" y1="39.0940622%" x2="50%" y2="22.6773233%" id="linearGradient-1">
            <stop stop-color="#6448FF" offset="0%"></stop>
            <stop stop-color="#FF37DF" offset="100%"></stop>
        </linearGradient>
        <linearGradient x1="7.56318058%" y1="59.477802%" x2="56.6767213%" y2="26.2923136%" id="linearGradient-2">
            <stop stop-color="#FF02AA" offset="0%"></stop>
            <stop stop-color="#FF8BF4" stop-opacity="0" offset="100%"></stop>
        </linearGradient>
        <linearGradient x1="50%" y1="34.5476641%" x2="22.8225671%" y2="92.5161165%" id="linearGradient-3">
            <stop stop-color="#FB6060" stop-opacity="0" offset="0%"></stop>
            <stop stop-color="#FCA506" offset="100%"></stop>
        </linearGradient>
        <path d="M3.09009009,0 L10.9099099,0 C12.6165195,0 14,1.38348046 14,3.09009009 L14,10.9099099 C14,12.6165195 12.6165195,14 10.9099099,14 L3.09009009,14 C1.38348046,14 0,12.6165195 0,10.9099099 L0,3.09009009 C0,1.38348046 1.38348046,0 3.09009009,0 Z" id="path-4"></path>
    </defs>
    <g id="UOSAI-16" stroke="none" stroke-width="1" fill="none" fill-rule="evenodd">
        <g id="apps/16/UosAiAssistant" transform="translate(1, 1)" fill-rule="nonzero">
            <g id="编组-3">
                <g id="矩形备份">
                    <use fill="url(#linearGradient-1)" xlink:href="#path-4"></use>
                    <use fill="url(#linearGradient-2)" xlink:href="#path-4"></use>
                    <use fill="url(#linearGradient-3)" xlink:href="#path-4"></use>
                </g>
                <g id="编组-2" transform="translate(2.0344, 2.5036)" stroke="#FFFFFF" stroke-linejoin="round">
                    <path d="M3.419931,8.99641562 C2.75372619,8.99641562 2.13755114,8.64178848 1.80129326,8.06667155 L1.208913,7.0417585 C1.20027649,7.02681594 1.20538855,7.00770132 1.22033111,6.9990648 C1.22508475,6.99631729 1.23047837,6.9948707 1.23596891,6.9948707 L3.70924567,6.9948707 L3.70924567,6.9948707 L6.51285565,1.99872518 L8.74854638,1.99872518 C8.75983845,1.99872518 8.77025217,2.00481704 8.77578623,2.01466005 L9.67085397,3.60664938 L9.67085397,3.60664938 C10.0032042,4.19063628 9.99764973,4.90782039 9.65629406,5.48658952 L8.1309428,8.07282523 C7.7937924,8.64446432 7.17957649,8.99641562 6.51591871,8.99641562 L3.419931,8.99641562 Z" id="路径"></path>
                    <path d="M2.88704431,2.3493252 L2.88704431,4.82247145 L2.88704431,4.82247145 L7.88318983,7.62608143 L5.84143143,8.50341942 C5.55317748,8.62728135 5.22350303,8.60868189 4.95100991,8.45318392 L1.51596373,6.49297776 C1.12613612,6.27052297 0.885499395,5.85614322 0.885499395,5.4073095 L0.885499395,4.53680109 C0.885499395,3.86863983 1.24106356,3.25096314 1.81885249,2.91540475 L2.84010019,2.32230193 C2.85502473,2.31363431 2.87414996,2.31870655 2.88281758,2.33363109 C2.88558608,2.33839809 2.88704431,2.3438126 2.88704431,2.3493252 Z" id="路径-70" opacity="0.847593762" transform="translate(4.3843, 5.4976) rotate(-90) translate(-4.3843, -5.4976)"></path>
                    <path d="M2.25397148,6.9948707 C1.58776667,6.9948707 0.971591624,6.64832169 0.635333741,6.07320476 L0.0277993185,5.04327275 C0.0190305722,5.02840739 0.023972847,5.00924817 0.0388381981,5.00047943 C0.0436482833,4.99764206 0.0491308357,4.99614553 0.0547154177,4.99614553 L2.25397148,4.99614553 L2.25397148,4.99614553 L5.05758146,6.82121026e-13 L7.56731921,6.82731649e-13 C7.5782971,6.82729632e-13 7.58846991,0.00576030735 7.59411721,0.0151742462 L8.53614445,1.58551698 L8.53614445,1.58551698 C8.86849472,2.16950388 8.83169022,2.88668799 8.49033455,3.46545712 L6.96498328,6.07935844 C6.62783288,6.65099753 6.01361697,6.9948707 5.34995919,6.9948707 L2.25397148,6.9948707 Z" id="路径" transform="translate(4.3834, 3.4974) rotate(180) translate(-4.3834, -3.4974)"></path>
                    <path d="M8.43038908,2.61528749 L5.03508415,0.568571206 C4.7270931,0.382911798 4.34313056,0.376926683 4.02950252,0.552896445 L2.04018987,1.6690558 L2.04018987,1.6690558 L7.03633539,4.47266579 L7.03633539,6.67189953 C7.03633539,6.68915843 7.05032649,6.70314953 7.06758539,6.70314953 C7.0731737,6.70314953 7.07865977,6.701651 7.08347206,6.69881005 L8.11326079,6.09087261 C8.6845234,5.7536268 9.03506057,5.13962329 9.03506057,4.47624128 L9.03506057,3.68582526 C9.03506057,3.24766536 8.80564245,2.84149315 8.43038908,2.61528749 Z" id="路径-71" opacity="0.900085449" transform="translate(5.5376, 3.4974) rotate(-90) translate(-5.5376, -3.4974)"></path>
                </g>
            </g>
        </g>
    </g>
</svg>