<?xml version="1.0" encoding="UTF-8"?>
<svg width="20px" height="20px" viewBox="0 0 20 20" version="1.1" xmlns="http://www.w3.org/2000/svg" xmlns:xlink="http://www.w3.org/1999/xlink">
    <title>翻译</title>
    <g id="AI随航" stroke="none" stroke-width="1" fill="none" fill-rule="evenodd">
        <g id="切图" transform="translate(-127, -87)">
            <g id="翻译" transform="translate(127, 87)">
                <polygon id="_Transparent_Rectangle_" points="0 0 20 0 20 20 0 20"></polygon>
                <path d="M5.35714286,13.5139665 L5.35714286,14.6759777 C5.35714286,15.3177387 5.86881743,15.8379888 6.5,15.8379888 L8.78571429,15.8379888 L8.78571429,17 L6.5,17 C5.23763486,17 4.21428571,15.9594998 4.21428571,14.6759777 L4.21428571,13.5139665 L5.35714286,13.5139665 Z M14.2142857,9.66480447 L17,16.7458101 L16.0017857,16.7458101 L15.2589286,14.8575419 L12.0785714,14.8575419 L11.3357143,16.7458101 L10.3375,16.7458101 L13.1232143,9.66480447 L14.2142857,9.66480447 Z M13.6664286,10.816648 L12.45,13.9134078 L14.8875,13.9134078 L13.6664286,10.816648 Z M8.17857143,4 L8.17857143,5.41620112 L11.4285714,5.41620112 L11.4285714,6.3603352 L9.94285714,6.3603352 C9.63691654,7.69493293 9.01176681,8.93213568 8.12285714,9.9622067 C8.79450608,10.6588959 9.60504464,11.2013362 10.5,11.5530726 L10.1703571,12.421676 C9.16558287,12.0112854 8.25510078,11.3941244 7.49607143,10.6089385 C6.72302007,11.3835292 5.81237575,12.0018681 4.8125,12.4311173 L4.46428571,11.5530726 C5.35411612,11.1700617 6.16640958,10.622658 6.86,9.93860335 C6.23243396,9.16048012 5.75939855,8.26588825 5.46714286,7.30446927 L6.44214286,7.30446927 C6.67864402,8.02112388 7.03865837,8.68928156 7.50535714,9.2777095 C8.22129599,8.43959851 8.72918029,7.43918181 8.98642857,6.3603352 L4,6.3603352 L4,5.41620112 L7.25,5.41620112 L7.25,4 L8.17857143,4 Z M14.5,4.21787709 C15.7623651,4.21787709 16.7857143,5.25837734 16.7857143,6.54189944 L16.7857143,8.86592179 L15.6428571,8.86592179 L15.6428571,6.54189944 C15.6428571,5.90013839 15.1311826,5.37988827 14.5,5.37988827 L12.2142857,5.37988827 L12.2142857,4.21787709 L14.5,4.21787709 Z" id="形状结合" fill-opacity="0.7" fill="#000000" fill-rule="nonzero"></path>
            </g>
        </g>
    </g>
</svg>