<?xml version="1.0" encoding="UTF-8"?>
<svg width="21px" height="20px" viewBox="0 0 21 20" version="1.1" xmlns="http://www.w3.org/2000/svg" xmlns:xlink="http://www.w3.org/1999/xlink">
    <title>翻译</title>
    <g id="翻译" stroke="none" fill="none" transform="translate(0.5, 0)">
        <polygon id="_Transparent_Rectangle_" points="0 0 20 0 20 20 0 20"></polygon>
        <path d="M4.00733656,13.0033284 L4.00733656,14.5036694 C4.00733656,15.3320965 4.67890944,16.0036694 5.50733656,16.0036694 L8.01124202,16.0036694 L8.01124202,17.0036694 L5.50733656,17.0036694 C4.12662469,17.0036694 3.00733656,15.8843813 3.00733656,14.5036694 L3.00733656,13.0033284 L4.00733656,13.0033284 Z M12.1332621,10 L13.1967102,10.0002547 L16.1619742,17 L15.0059742,17 L14.1839742,15 L11.1539742,15 L10.3399742,17 L9.16397416,17 L12.1332621,10 Z M12.6629115,11.2978675 L11.5609742,14 L13.7729742,14 L12.6629115,11.2978675 Z M7.01124202,4 L7.01124202,5 L10.011242,5 L10.011242,6 L9.14224202,6 L9.09848426,6.1708409 C8.77715166,7.3192363 8.20669129,8.39768203 7.37753206,9.41833444 L7.16779498,9.64375983 C7.87120571,10.2644141 8.6463571,10.7421607 9.48434277,11.0680985 L9.12184384,12.0000827 C8.15288177,11.6232011 7.26072518,11.0687527 6.44697137,10.3390537 C5.62104718,11.0666064 4.73796973,11.6111141 3.7992374,11.9702064 L3.44195657,11.0362094 C4.25621601,10.7247316 5.02913527,10.2505815 5.75506958,9.61855259 C5.17510368,8.89375414 4.74388791,8.07462009 4.45162184,7.15440097 L4.40624202,7 L5.45415632,7.0020318 C5.69870306,7.7196084 6.03901395,8.35848347 6.47539498,8.92085822 L6.61819559,8.76816918 C7.32319155,7.89950503 7.81838739,6.97806698 8.10676682,6.00125613 L3.01124202,6 L3.01124202,5 L6.01124202,5 L6.01124202,4 L7.01124202,4 Z M13.5115243,3.9981252 C14.8922362,3.9981252 16.0115243,5.11741332 16.0115243,6.4981252 L16.0115243,9 L15.0115243,9 L15.0115243,6.4981252 C15.0115243,5.66969807 14.3399514,4.9981252 13.5115243,4.9981252 L11.011242,4.9981252 L11.011242,3.9981252 L13.5115243,3.9981252 Z" id="形状结合" fill-opacity="1" fill="#000000" fill-rule="evenodd"></path>
    </g>
</svg>