<?xml version="1.0" encoding="UTF-8"?>
<svg width="16px" height="16px" viewBox="0 0 16 16" version="1.1" xmlns="http://www.w3.org/2000/svg" xmlns:xlink="http://www.w3.org/1999/xlink">
    <title>replace</title>
    <g id="replace" stroke="none" stroke-width="1" fill="none" fill-rule="evenodd">
        <path d="M7.58421669,6.43372367 C7.74633936,6.58378763 7.75611488,6.83686489 7.60605092,6.99898756 C7.45598696,7.16111023 7.2029097,7.17088574 7.04078703,7.02082179 L5.30700186,5.415 L5.30625186,11.5 C5.30625186,11.6932997 5.16913907,11.8545749 4.98686581,11.8918734 L4.90625186,11.9 C4.68533796,11.9 4.50625186,11.7209139 4.50625186,11.5 L4.50700186,5.414 L2.77171669,7.02082179 C2.62985936,7.15212775 2.41836491,7.16105662 2.26717669,7.05262765 L2.2064528,6.99898756 C2.05638885,6.83686489 2.06616436,6.58378763 2.22828703,6.43372367 L4.63453703,4.20645094 L4.65400186,4.193 L4.67342669,4.17464507 L4.69921768,4.1576548 L4.72200186,4.147 L4.74153502,4.13537533 L4.76000186,4.129 L4.77015227,4.12375581 L4.79400186,4.118 L4.81475472,4.11056372 L4.83400186,4.108 L4.84506773,4.10466616 L4.87000186,4.104 L4.89081273,4.10029807 L4.967436,4.10466616 L5.04235145,4.12375581 L5.11328604,4.1576548 L5.12500186,4.167 L5.13907703,4.17464507 L5.17796669,4.20645094 L7.58421669,6.43372367 Z M13.7935509,9.00101244 C13.9436149,9.16313511 13.9338394,9.41621237 13.7717167,9.56627633 L11.3654667,11.7935491 L11.300786,11.8423452 L11.2550019,11.866 L11.154936,11.8953338 L11.0830019,11.899 L11.0325677,11.8953338 L10.9576523,11.8762442 L10.9450019,11.87 L10.9340019,11.866 L10.9140019,11.855 L10.8867177,11.8423452 L10.8760019,11.833 L10.8609267,11.8253549 L10.822037,11.7935491 L8.41578703,9.56627633 C8.25366436,9.41621237 8.24388885,9.16313511 8.3939528,9.00101244 C8.54401676,8.83888977 8.79709403,8.82911426 8.95921669,8.97917821 L10.6940019,10.584 L10.6937519,4.5 C10.6937519,4.30670034 10.8308647,4.14542508 11.0131379,4.10812658 L11.0937519,4.1 C11.3146658,4.1 11.4937519,4.2790861 11.4937519,4.5 L11.4940019,10.585 L13.228287,8.97917821 C13.3701444,8.84787225 13.5816388,8.83894338 13.732827,8.94737235 L13.7935509,9.00101244 Z" id="形状" fill="#000000" fill-rule="nonzero"></path>
    </g>
</svg>