<?xml version="1.0" encoding="UTF-8"?>
<svg width="24px" height="24px" viewBox="0 0 24 24" version="1.1" xmlns="http://www.w3.org/2000/svg" xmlns:xlink="http://www.w3.org/1999/xlink">
    <title>write article 2</title>
    <g id="write-article" stroke="none" stroke-width="1" fill="none" fill-rule="evenodd">
        <path d="M14.3652174,3 C15.0129677,3 15.6275792,3.25293971 16.1201272,3.7249649 L18.6927749,6.35489412 C19.1526016,6.82493925 19.4,7.45310051 19.4,8.15 L19.4,18.1833333 C19.4,19.5678862 18.2924974,20.7 16.9413043,20.7 L7.15869565,20.7 C5.80750262,20.7 4.7,19.5678862 4.7,18.1833333 L4.7,5.51666667 C4.7,4.13211379 5.80750262,3 7.15869565,3 L14.3652174,3 Z M13.6804348,4.03333333 L7.15869565,4.03333333 C6.35771477,4.03333333 5.70434783,4.70121955 5.70434783,5.51666667 L5.70434783,18.1833333 C5.70434783,18.9987805 6.35771477,19.6666667 7.15869565,19.6666667 L16.9413043,19.6666667 C17.7422852,19.6666667 18.3956522,18.9987805 18.3956522,18.1833333 L18.3956522,8.51666667 L18.2456522,8.36666667 L16.2891304,8.36666667 C14.9379374,8.36666667 13.8304348,7.23455288 13.8304348,5.85 L13.8304348,4.18333333 L13.6804348,4.03333333 Z M11.723913,16 C11.9990191,16 12.226087,16.2321138 12.226087,16.5166667 C12.226087,16.8012195 11.9990191,17.0333333 11.723913,17.0333333 L9.11521739,17.0333333 C8.84011131,17.0333333 8.61304348,16.8012195 8.61304348,16.5166667 C8.61304348,16.2321138 8.84011131,16 9.11521739,16 L11.723913,16 Z M14.9847826,12.6666667 C15.2598887,12.6666667 15.4869565,12.8987805 15.4869565,13.1833333 C15.4869565,13.4678862 15.2598887,13.7 14.9847826,13.7 L9.11521739,13.7 C8.84011131,13.7 8.61304348,13.4678862 8.61304348,13.1833333 C8.61304348,12.8987805 8.84011131,12.6666667 9.11521739,12.6666667 L14.9847826,12.6666667 Z M14.9847826,9.33333333 C15.2598887,9.33333333 15.4869565,9.56544712 15.4869565,9.85 C15.4869565,10.1345529 15.2598887,10.3666667 14.9847826,10.3666667 L9.11521739,10.3666667 C8.84011131,10.3666667 8.61304348,10.1345529 8.61304348,9.85 C8.61304348,9.56544712 8.84011131,9.33333333 9.11521739,9.33333333 L14.9847826,9.33333333 Z M14.8347826,4.06625813 L14.8347826,5.85 C14.8347826,6.66544712 15.4881496,7.33333333 16.2891304,7.33333333 L18.1783172,7.33333333 L15.385486,4.47843921 C15.3419076,4.43389248 15.297468,4.39412789 15.2482061,4.35496017 L15.0692546,4.22604648 L14.8347826,4.06625813 Z" id="形状" fill="#000000" fill-rule="nonzero"></path>
    </g>
</svg>