<?xml version="1.0" encoding="utf-8" ?>
<svg xmlns="http://www.w3.org/2000/svg" xmlns:xlink="http://www.w3.org/1999/xlink" width="12" height="14">
	<path fill="#FFFFFF" fill-opacity="0.7019608" d="M6 0C9.3137083 0 12 1.1192881 12 2.5C12 2.6450446 11.970355 2.787204 11.913452 2.9254839L9.762722 11.955269C9.5334787 12.911862 8.7649221 13.645407 7.7981491 13.829745C7.1992421 13.94321 6.5997276 14 6 14C5.4002724 14 4.8007579 13.94321 4.201272 13.829636C3.2350776 13.645407 2.4665215 12.911862 2.2371078 11.954556L0.08654774 2.9254839C0.029644862 2.787204 0 2.6450446 0 2.5C0 1.1192881 2.6862915 0 6 0ZM6 5C4.1499033 5 2.495383 4.6510992 1.3947585 4.1025968L3.2097435 11.722221C3.3473539 12.296447 3.8086865 12.736763 4.3879929 12.847222C4.9258046 12.949113 5.4630089 13 6 13C6.5369911 13 7.0741954 12.949113 7.6114283 12.847332C8.1913137 12.736763 8.6526461 12.296447 8.7900858 11.722935L10.605242 4.1025968C9.5046167 4.6510992 7.8500967 5 6 5ZM6 1C3.248888 1 1.0975871 1.8708737 1.003229 2.4602222L1.0518757 2.6657739C1.3981639 3.2454717 3.4392426 4 6 4C8.5607576 4 10.601836 3.2454717 10.948124 2.6657739L10.995 2.4590001L10.993227 2.4420321C10.858296 1.8531314 8.7229433 1 6 1Z" fill-rule="evenodd"/>
</svg>
