<?xml version="1.0" encoding="UTF-8"?>
<svg width="20px" height="20px" viewBox="0 0 20 20" version="1.1" xmlns="http://www.w3.org/2000/svg" xmlns:xlink="http://www.w3.org/1999/xlink">
    <title>扩写备份</title>
    <g id="AI随航" stroke="none" stroke-width="1" fill="none" fill-rule="evenodd">
        <g id="切图" transform="translate(-232, -87)">
            <g id="编组" transform="translate(232, 87)">
                <rect id="矩形" opacity="0.27011399" x="0" y="0" width="20" height="20"></rect>
                <path d="M7.63261477,4 C7.93176901,4 8.17428144,4.24251243 8.17428144,4.54166667 C8.17428144,4.84082091 7.93176901,5.08333333 7.63261477,5.08333333 L4.625,5.08333333 C4.32584576,5.08333333 4.08333333,5.32584576 4.08333333,5.625 L4.08333333,15.375 C4.08333333,15.6741542 4.32584576,15.9166667 4.625,15.9166667 L14.375,15.9166667 C14.6741542,15.9166667 14.9166667,15.6741542 14.9166667,15.375 L14.9166667,12.3755656 C14.9166667,12.0764113 15.1591791,11.8338989 15.4583333,11.8338989 C15.7574876,11.8338989 16,12.0764113 16,12.3755656 L16,15.375 C16,16.2724627 15.2724627,17 14.375,17 L4.625,17 C3.72753728,17 3,16.2724627 3,15.375 L3,5.625 C3,4.72753728 3.72753728,4 4.625,4 L7.63261477,4 Z M15.4583333,4 C15.7574876,4 16,4.24251243 16,4.54166667 L16,7.79166667 C16,8.09082091 15.7574876,8.33333333 15.4583333,8.33333333 C15.1591791,8.33333333 14.9166667,8.09082091 14.9166667,7.79166667 L14.916,5.849 L9.182,11.583 L11.125,11.5833333 C11.3909149,11.5833333 11.6120757,11.7749481 11.6579397,12.0276347 L11.6666667,12.125 C11.6666667,12.4241542 11.4241542,12.6666667 11.125,12.6666667 L7.875,12.6666667 C7.57584576,12.6666667 7.33333333,12.4241542 7.33333333,12.125 L7.33333333,8.875 C7.33333333,8.57584576 7.57584576,8.33333333 7.875,8.33333333 C8.17415424,8.33333333 8.41666667,8.57584576 8.41666667,8.875 L8.416,10.817 L14.15,5.083 L12.2083333,5.08333333 C11.9424185,5.08333333 11.7212576,4.89171858 11.6753936,4.63903194 L11.6666667,4.54166667 C11.6666667,4.24251243 11.9091791,4 12.2083333,4 L15.4583333,4 Z" id="形状结合" fill-opacity="0.7" fill="#000000"></path>
            </g>
        </g>
    </g>
</svg>