<?xml version="1.0" encoding="UTF-8"?>
<svg width="15px" height="17px" viewBox="0 0 15 17" version="1.1" xmlns="http://www.w3.org/2000/svg" xmlns:xlink="http://www.w3.org/1999/xlink">
    <title>agreement</title>
    <g id="AI助手设置备份" stroke="none" stroke-width="1" fill="none" fill-rule="evenodd">
        <g id="画板" transform="translate(-36.000000, -122.000000)" fill="#536076">
            <path d="M46.5319149,128.925926 L51,131.23428 L50.716543,133.642438 C50.4445197,135.95346 48.955211,137.941997 46.8147514,138.88323 L46.5319149,139 L46.2490783,138.88323 C44.2016823,137.98292 42.7500461,136.124396 42.3896248,133.941987 L42.3472867,133.642438 L42.0638298,131.23428 L46.5319149,128.925926 Z M43.9348404,122 C44.0207677,122 44.0904255,122.070474 44.0904255,122.157407 L44.0904255,124.833333 C44.0904255,125.70267 44.7870038,126.407407 45.6462766,126.407407 L48.2912234,126.407407 C48.3771507,126.407407 48.4468085,126.477881 48.4468085,126.564815 L48.4468085,128.849111 L46.5319149,127.859787 L41.0369072,130.698682 L41.3962291,133.751365 L41.4413499,134.0724 C41.6244844,135.181992 42.0493507,136.215418 42.6677617,137.112461 L37.2446809,137.111111 C36.5572626,137.111111 36,136.547322 36,135.851852 L36,123.259259 C36,122.56379 36.5572626,122 37.2446809,122 L43.9348404,122 Z M47.9428399,132.289043 L47.8752096,132.381029 L46.5114894,134.634148 L45.675718,133.994665 L45.6085938,133.90232 C45.4108229,133.676363 45.0716475,133.615038 44.8017063,133.772006 C44.531765,133.928973 44.4219212,134.251397 44.5265751,134.531499 L44.5759812,134.634148 L45.9585521,136.188394 L46.0271197,136.282817 C46.2752351,136.566199 46.7261206,136.570231 46.979813,136.293844 L47.056525,136.191327 L48.9714186,133.026378 L49.0213877,132.923995 C49.1275782,132.644456 49.0195065,132.32145 48.7504311,132.163043 C48.4813557,132.004635 48.1418486,132.064147 47.9428399,132.289043 Z M44.8111338,122.233579 C44.8697776,122.210123 44.9366163,122.224799 44.9803723,122.270741 L48.1792021,125.507037 C48.2246118,125.551306 48.2391184,125.618927 48.2159337,125.678258 C48.1927489,125.737588 48.1364587,125.776893 48.0734043,125.777778 L45.6462766,125.777778 C45.1307129,125.777778 44.712766,125.354936 44.712766,124.833333 L44.712766,122.377778 C44.7136409,122.313985 44.75249,122.257035 44.8111338,122.233579 Z" id="agreement"></path>
        </g>
    </g>
</svg>