<?xml version="1.0" encoding="UTF-8"?>
<svg width="13.8px" height="13.8px" viewBox="0 0 13.8 13.8" version="1.1" xmlns="http://www.w3.org/2000/svg" xmlns:xlink="http://www.w3.org/1999/xlink">
    <title>change</title>
    <g id="v1.1.2" stroke="none" stroke-width="1" fill-rule="evenodd">
        <g id="语音状态" transform="translate(-381.000000, -147.000000)" fill-rule="nonzero">
            <g id="编组-4" transform="translate(62.000000, 129.000000)">
                <g id="编组-3" transform="translate(250.000000, 0.000000)">
                    <g id="编组-8" transform="translate(50.000000, 0.000000)">
                        <path d="M30.3074074,18 C31.6781049,18 32.8,19.1218951 32.8,20.4925926 L32.8,29.3074074 C32.8,30.6781049 31.6781049,31.8 30.3074074,31.8 L21.4925926,31.8 C20.1218951,31.8 19,30.6781049 19,29.3074074 L19,20.4925926 C19,19.1218951 20.1218951,18 21.4925926,18 L30.3074074,18 Z M31.962963,27.6518519 L30.3074074,27.6518519 C29.3966234,27.6518519 28.6518519,28.3966234 28.6518519,29.3074074 L28.6518519,30.962963 L30.3074074,30.962963 C31.2181914,30.962963 31.962963,30.2181914 31.962963,29.3074074 L31.962963,27.6518519 Z M30.3074074,18.837037 L21.4925926,18.837037 C20.5818086,18.837037 19.837037,19.5818086 19.837037,20.4925926 L19.837037,29.3074074 C19.837037,30.2181914 20.5818086,30.962963 21.4925926,30.962963 L27.8148148,30.962963 L27.8148148,29.3074074 C27.8148148,27.93671 28.93671,26.8148148 30.3074074,26.8148148 L31.962963,26.8148148 L31.962963,20.4925926 C31.962963,19.5818086 31.2181914,18.837037 30.3074074,18.837037 Z M22.432993,20.8484885 L26.0885486,24.504044 L26.2592593,24.6579901 L26.2592593,22.5666667 C26.2592593,22.33671 26.4478211,22.1481481 26.6777778,22.1481481 C26.9077345,22.1481481 27.0962963,22.33671 27.0962963,22.5666667 L27.0962963,25.6777778 C27.0962963,25.7839141 27.0527692,25.8872909 26.9700301,25.9700301 C26.9049628,26.0551114 26.8071486,26.0962963 26.6777778,26.0962963 L23.5666667,26.0962963 C23.33671,26.0962963 23.1481481,25.9077345 23.1481481,25.6777778 C23.1481481,25.4478211 23.33671,25.2592593 23.5666667,25.2592593 L25.6920737,25.2592593 L25.504044,25.0885486 L21.8484885,21.432993 C21.6801335,21.264638 21.6801335,21.0168434 21.8484885,20.8484885 C22.0168434,20.6801335 22.264638,20.6801335 22.432993,20.8484885 Z" id="change"></path>
                    </g>
                </g>
            </g>
        </g>
    </g>
</svg>