<?xml version="1.0" encoding="UTF-8"?>
<svg width="15px" height="15.0000077px" viewBox="0 0 15 15.0000077" version="1.1" xmlns="http://www.w3.org/2000/svg" xmlns:xlink="http://www.w3.org/1999/xlink">
    <title>model</title>
    <g id="AI助手设置备份" stroke="none" stroke-width="1" fill="none" fill-rule="evenodd">
        <g id="画板" transform="translate(-36.000000, -74.999993)" fill="#536076">
            <path d="M50.4125,81.0750038 C50.3066627,80.9515705 50.1228153,80.9323626 49.99375,81.0312538 L48.00625,82.531253 C47.9665295,82.5569942 47.944755,82.6029624 47.95,82.650003 C47.9531146,82.7062098 47.9531146,82.762546 47.95,82.8187529 C47.8756568,83.331075 47.4001243,83.6861665 46.8877859,83.6119334 C46.3754475,83.5377004 46.0202537,83.0622443 46.0943767,82.5498903 C46.1684998,82.0375362 46.6438798,81.6822405 47.15625,81.7562534 C47.2119913,81.7641886 47.2665593,81.77888 47.31875,81.8000034 C47.358236,81.8190674 47.404264,81.8190674 47.44375,81.8000034 L47.88125,81.4687536 C48.0193212,81.3652002 48.0473034,81.1693249 47.94375,81.0312538 L47.40625,80.3187542 C47.3505902,80.2394348 47.2593938,80.1926674 47.1625,80.1937542 L47.0625,80.1937542 C46.5447331,80.119541 46.1851618,79.6396465 46.259375,79.1218798 C46.3335883,78.6041131 46.8134831,78.244542 47.33125,78.3187552 C47.57579,78.3543016 47.7961757,78.4855834 47.9438785,78.6836925 C48.0915812,78.8818016 48.1544891,79.1304928 48.11875,79.3750047 L48.11875,79.4750046 C48.0950997,79.5675823 48.1133871,79.6658769 48.16875,79.7437545 L48.70625,80.4562541 C48.7555046,80.5238399 48.8297937,80.5688636 48.9125,80.581254 C48.9945838,80.5888217 49.0766538,80.5666406 49.14375,80.5187541 L49.93125,79.8937544 C49.9957607,79.848219 50.0387033,79.7781549 50.05,79.7000045 C50.0623904,79.592144 50.0665691,79.4834982 50.0625,79.3750047 C50.0625,78.1668824 49.0831229,77.1875058 47.875,77.1875058 C47.7926179,75.9544779 46.7670245,74.9972579 45.53125,75 C45.0064155,74.9995635 44.4971269,75.1781451 44.0875,75.5062566 C44.0121464,75.5646037 43.9682507,75.6547055 43.96875,75.7500065 L43.96875,81.2500037 C43.96875,81.508887 43.7588835,81.7187534 43.5,81.7187534 C43.2411165,81.7187534 43.03125,81.508887 43.03125,81.2500037 L43.03125,75.7500065 C43.0317493,75.6547055 42.9878536,75.5646037 42.9125,75.5062566 C42.5028731,75.1781451 41.9935845,74.9995635 41.46875,75 C40.2352256,74.9970387 39.210521,75.9506966 39.125,77.1812558 C38.5437544,77.1812534 37.986406,77.4125791 37.57599,77.8241675 C37.165574,78.2357559 36.9358393,78.7937617 36.9375,79.3750047 C36.9383213,79.4923298 36.9487731,79.6093896 36.96875,79.7250045 C36.9800467,79.8031549 37.0229893,79.873219 37.0875,79.9187544 L37.875,80.5125041 C37.9420962,80.5603906 38.0241662,80.5825717 38.10625,80.575004 C38.1889563,80.5626136 38.2632454,80.5175899 38.3125,80.4500041 L38.85,79.7375045 C38.9053629,79.6596269 38.9236503,79.5613323 38.9,79.4687546 L38.9,79.3687547 C38.8251459,78.8637619 39.1708186,78.3926437 39.675,78.3125052 C40.0099365,78.2644977 40.3450423,78.3988233 40.5540863,78.6648828 C40.7631304,78.9309424 40.8143538,79.2883152 40.6884613,79.6023824 C40.5625689,79.9164495 40.2786865,80.1394967 39.94375,80.1875042 L39.84375,80.1875042 C39.7468562,80.1864174 39.6556598,80.2331848 39.6,80.3125042 L39.0625,81.0125038 C38.9589466,81.1505749 38.9869288,81.3464502 39.125,81.4500036 L39.55625,81.7812534 C39.598054,81.7997076 39.645696,81.7997076 39.6875,81.7812534 C39.7396907,81.76013 39.7942587,81.7454387 39.85,81.7375034 C40.3623702,81.6634905 40.8377502,82.0187862 40.9118733,82.5311403 C40.9859963,83.0434943 40.6308025,83.5189504 40.1184641,83.5931834 C39.6061257,83.6674165 39.1305932,83.3123251 39.05625,82.8000029 C39.0531354,82.743796 39.0531354,82.6874598 39.05625,82.631253 C39.061495,82.5842124 39.0397205,82.5382442 39,82.512503 L37.00625,81.0312538 C36.8771847,80.9323626 36.6933373,80.9515705 36.5875,81.0750038 C36.223286,81.4617192 36.0141577,81.9689662 36,82.5 C36.0304395,83.2387275 36.414151,83.9177803 37.03125,84.3250021 C37.1560171,84.4112645 37.200821,84.574667 37.1375,84.7125019 C36.8835005,85.2618889 36.8699155,85.8922691 37.1000109,86.4520887 C37.3301064,87.0119082 37.7830693,87.4505294 38.35,87.6625004 C38.4674643,87.7059828 38.5995072,87.6766399 38.6875,87.5875004 L39.75,86.543751 C39.7809203,86.5099901 39.7947302,86.463957 39.7875,86.418751 C39.7687461,86.3640755 39.7561679,86.3074735 39.75,86.2500011 C39.75,85.7322344 40.169733,85.3125016 40.6875,85.3125016 C41.205267,85.3125016 41.625,85.7322344 41.625,86.2500011 C41.625,86.7677678 41.205267,87.1875006 40.6875,87.1875006 C40.6314177,87.1936429 40.5748323,87.1936429 40.51875,87.1875006 C40.4735439,87.1802704 40.4275109,87.1940803 40.39375,87.2250006 L39.38125,88.2187501 C39.294612,88.3108247 39.2679398,88.4441857 39.3125,88.5624999 C39.6768875,89.4315885 40.5263649,89.9979065 41.46875,90 C41.9935845,90.0004426 42.5028731,89.821861 42.9125,89.4937494 C42.9878536,89.4354024 43.0317493,89.3453006 43.03125,89.2499996 L43.03125,87.8125003 C43.03125,87.553617 43.2411165,87.3437505 43.5,87.3437505 C43.7588835,87.3437505 43.96875,87.553617 43.96875,87.8125003 L43.96875,89.2499996 C43.9682507,89.3453006 44.0121464,89.4354024 44.0875,89.4937494 C44.4971269,89.821861 45.0064155,90.0004426 45.53125,90 C46.4736351,89.9979065 47.3231125,89.4315885 47.6875,88.5624999 C47.7320602,88.4441857 47.705388,88.3108247 47.61875,88.2187501 L46.625,87.2062506 C46.5912391,87.1753303 46.5452061,87.1615204 46.5,87.1687506 C46.4439177,87.1748929 46.3873323,87.1748929 46.33125,87.1687506 C45.9487598,87.1763269 45.6000361,86.9507367 45.4501419,86.5987598 C45.3002478,86.2467828 45.3792568,85.839037 45.6497713,85.5685227 C45.9202857,85.2980084 46.3280317,85.2189994 46.6800088,85.3688935 C47.031986,85.5187876 47.2575763,85.8675111 47.25,86.2500011 C47.2561422,86.3060834 47.2561422,86.3626687 47.25,86.418751 C47.2427698,86.463957 47.2565797,86.5099901 47.2875,86.543751 L48.33125,87.5875004 C48.4192428,87.6766399 48.5512857,87.7059828 48.66875,87.6625004 C49.2356807,87.4505294 49.6886436,87.0119082 49.9187391,86.4520887 C50.1488345,85.8922691 50.1352495,85.2618889 49.88125,84.7125019 C49.817929,84.574667 49.8627329,84.4112645 49.9875,84.3250021 C50.5974654,83.9136223 50.9738164,83.2352617 51,82.5 C50.9858423,81.9689662 50.776714,81.4617192 50.4125,81.0750038 L50.4125,81.0750038 Z" id="model"></path>
        </g>
    </g>
</svg>