<?xml version="1.0" encoding="UTF-8"?>
<svg width="16px" height="16px" viewBox="0 0 16 16" version="1.1" xmlns="http://www.w3.org/2000/svg" xmlns:xlink="http://www.w3.org/1999/xlink">
    <title>ULLM大模型</title>
    <defs>
        <linearGradient x1="21.0844031%" y1="31.3080569%" x2="54.2565749%" y2="100%" id="linearGradient-1">
            <stop stop-color="#0EC5EA" offset="0%"></stop>
            <stop stop-color="#00A4D8" offset="66.4724056%"></stop>
            <stop stop-color="#2DCDAC" offset="100%"></stop>
        </linearGradient>
        <linearGradient x1="46.9890767%" y1="100%" x2="50%" y2="30.745761%" id="linearGradient-2">
            <stop stop-color="#79FF8B" stop-opacity="0.6" offset="0%"></stop>
            <stop stop-color="#60E772" stop-opacity="0.0816299332" offset="65.8726604%"></stop>
            <stop stop-color="#60E772" stop-opacity="0" offset="100%"></stop>
        </linearGradient>
        <path d="M4.47829452,10.410251 C4.32357832,10.4688429 4.16973093,10.5054407 4.00764729,10.5357797 C3.49543658,10.5812883 3.01745667,10.4759503 2.55824286,10.2424315 C1.5926567,9.75141959 0.681075254,8.76232383 0.335639716,7.7124085 C0.261722071,7.60151889 0.219463558,7.39335334 0.184572484,7.26273273 C0.163674908,7.18392661 0.144538103,7.10467259 0.12716207,7.02497068 C0.109786037,6.94526877 0.0941707754,6.86521326 0.080316285,6.78480414 C0.0664617946,6.70439503 0.0544028276,6.62371482 0.044139384,6.54276351 C0.0338527724,6.46181221 0.0253616843,6.38066053 0.0186661195,6.29930847 C0.0119705547,6.21795642 0.0070705134,6.13649829 0.00396599548,6.05493407 C0.000884645608,5.97334628 -0.000401180842,5.89173492 0.000108516129,5.81009998 C0.000618213101,5.72848862 0.00292343349,5.64691262 0.00702417731,5.56537198 C0.0111480892,5.48385491 0.0170675244,5.4024675 0.0247824831,5.32120974 C0.0434790948,5.13174974 0.0800382684,4.94228974 0.108291698,4.75403198 C0.332407773,3.89481427 0.542935791,3.28852813 1.05910823,2.55551099 C1.99307001,1.229291 3.50290828,0.323362445 5.08020031,0.0584437601 C5.82886407,-0.048025829 6.72035883,-0.0533298603 7.35538333,0.430185637 C7.70186143,0.694043516 7.91499585,1.05454085 8.0200166,1.47716606 C7.33140441,1.57624537 6.91427536,1.90976286 6.47111701,2.42471358 L6.24945095,2.40393062 L6.02768064,2.38776216 C5.61816229,2.37970004 5.23995556,2.55123241 4.93639626,2.8246729 C4.57275064,3.15221452 4.29532489,3.63321944 4.13775902,4.09718074 C4.68322746,5.08825668 5.84637911,6.22494596 6.0867244,7.31711673 C6.17707978,7.72764875 6.14528163,8.1661507 6.03428353,8.56915101 C5.93725577,8.92148013 5.77576291,9.26892954 5.55984833,9.56227783 C5.30574122,9.89522956 4.89111432,10.3006344 4.47829452,10.410251 Z" id="path-3"></path>
        <filter x="-6.2%" y="-4.7%" width="112.5%" height="109.5%" filterUnits="objectBoundingBox" id="filter-4">
            <feGaussianBlur stdDeviation="0.25" in="SourceAlpha" result="shadowBlurInner1"></feGaussianBlur>
            <feOffset dx="0" dy="0.5" in="shadowBlurInner1" result="shadowOffsetInner1"></feOffset>
            <feComposite in="shadowOffsetInner1" in2="SourceAlpha" operator="arithmetic" k2="-1" k3="1" result="shadowInnerInner1"></feComposite>
            <feColorMatrix values="0 0 0 0 0.0549019608   0 0 0 0 0.949019608   0 0 0 0 0.992156863  0 0 0 0.744505129 0" type="matrix" in="shadowInnerInner1"></feColorMatrix>
        </filter>
        <linearGradient x1="100%" y1="19.7566641%" x2="22.830112%" y2="50%" id="linearGradient-5">
            <stop stop-color="#34C1EE" offset="0%"></stop>
            <stop stop-color="#0674B7" offset="100%"></stop>
        </linearGradient>
        <linearGradient x1="61.155792%" y1="3.46822837%" x2="42.0306797%" y2="88.3350299%" id="linearGradient-6">
            <stop stop-color="#14B5F5" offset="0%"></stop>
            <stop stop-color="#1C97F0" offset="34.4616657%"></stop>
            <stop stop-color="#2184E4" offset="100%"></stop>
        </linearGradient>
        <linearGradient x1="34.9389249%" y1="0%" x2="59.8038277%" y2="40.8878108%" id="linearGradient-7">
            <stop stop-color="#5DF9FF" offset="0%"></stop>
            <stop stop-color="#5DF9FF" stop-opacity="0" offset="100%"></stop>
        </linearGradient>
        <path d="M4.74428782,1.9828938 L4.88173868,1.93590493 C5.03645488,1.87731306 5.19030227,1.84071525 5.35238591,1.81037619 C5.86459661,1.7648676 6.34257653,1.87020566 6.80179034,2.10372448 C7.7673765,2.59473634 8.67895794,3.58383211 9.02439348,4.63374743 C9.0613523,4.68919224 9.09039634,4.76895603 9.11456206,4.85118619 L9.2054865,5.20196831 L9.2576146,5.44100332 L9.29915201,5.68216878 L9.31589381,5.80339242 C9.32618043,5.88434373 9.33467151,5.9654954 9.34136708,6.04684746 C9.34806264,6.12819951 9.35296268,6.20965765 9.3560672,6.29122186 L9.35934258,6.41362123 L9.35781349,6.65844647 L9.35300902,6.78078396 L9.33525071,7.0249462 C9.3165541,7.2144062 9.27999493,7.4038662 9.2517415,7.59212395 C9.02762542,8.45134167 8.81709741,9.05762781 8.30092497,9.79064494 C7.36696319,11.1168649 5.85712492,12.0227935 4.27983289,12.2877122 C3.53116913,12.3941818 2.63967437,12.3994858 2.00464987,11.9159703 C1.65817177,11.6521124 1.44503734,11.2916151 1.3400166,10.8689899 C2.02862879,10.7699106 2.44575784,10.4363931 2.88891619,9.92144235 L3.11058225,9.94222531 L3.33235256,9.95839377 C3.7418709,9.9664559 4.12007764,9.79492352 4.42363694,9.52148303 C4.78728256,9.19394141 5.0647083,8.71293649 5.22227417,8.24897519 C4.67680574,7.25789925 3.51365409,6.12120998 3.2733088,5.0290392 C3.18295342,4.61850718 3.21475156,4.18000523 3.32574966,3.77700493 C3.42277743,3.42467581 3.58427028,3.07722639 3.80018487,2.7838781 C4.02605786,2.48792101 4.3787613,2.13471705 4.74428782,1.9828938 Z" id="path-8"></path>
        <filter x="-8.1%" y="-6.2%" width="116.2%" height="112.3%" filterUnits="objectBoundingBox" id="filter-9">
            <feGaussianBlur stdDeviation="0.25" in="SourceAlpha" result="shadowBlurInner1"></feGaussianBlur>
            <feOffset dx="0" dy="-0.5" in="shadowBlurInner1" result="shadowOffsetInner1"></feOffset>
            <feComposite in="shadowOffsetInner1" in2="SourceAlpha" operator="arithmetic" k2="-1" k3="1" result="shadowInnerInner1"></feComposite>
            <feColorMatrix values="0 0 0 0 0.587981731   0 0 0 0 0.86858038   0 0 0 0 1  0 0 0 0.563097013 0" type="matrix" in="shadowInnerInner1"></feColorMatrix>
        </filter>
        <linearGradient x1="85.4234737%" y1="40.4555242%" x2="11.0739339%" y2="70.3516706%" id="linearGradient-10">
            <stop stop-color="#164CD4" offset="0%"></stop>
            <stop stop-color="#53AFFF" offset="100%"></stop>
        </linearGradient>
        <linearGradient x1="100%" y1="19.9573577%" x2="22.830112%" y2="50%" id="linearGradient-11">
            <stop stop-color="#34C1EE" offset="0%"></stop>
            <stop stop-color="#0674B7" offset="100%"></stop>
        </linearGradient>
    </defs>
    <g id="ULLM大模型" stroke="none" stroke-width="1" fill="none" fill-rule="evenodd">
        <g transform="translate(0, 0)" id="编组">
            <g transform="translate(1.5, 1.8)">
                <g id="编组-3">
                    <g id="形状结合" fill-rule="nonzero">
                        <use fill="url(#linearGradient-1)" xlink:href="#path-3"></use>
                        <use fill="url(#linearGradient-2)" xlink:href="#path-3"></use>
                        <use fill="black" fill-opacity="1" filter="url(#filter-4)" xlink:href="#path-3"></use>
                        <path stroke-opacity="0.1" stroke="#0EF2FD" stroke-width="0.3" d="M5.10131974,0.20694955 C5.8107119,0.106064887 6.6603051,0.0894765726 7.26450419,0.549521218 C7.54006836,0.759375112 7.72281388,1.03625333 7.82963882,1.35839783 C7.22316762,1.48533455 6.8201518,1.80037261 6.405417,2.27151151 C5.54005498,2.23713029 5.15205274,2.42853084 4.83600744,2.7132185 C4.45413838,3.05717427 4.16127943,3.56146458 3.99572624,4.048945 C4.20800052,4.53589515 4.49242565,4.9221921 4.78489205,5.31849909 C5.27431371,5.98169052 5.79138265,6.67296805 5.9402306,7.34935904 C6.02540706,7.73636051 5.99425464,8.14959978 5.88966714,8.52932516 C5.79745465,8.86416893 5.64426617,9.19453913 5.44060778,9.47127404 C5.20616863,9.7784552 4.82791064,10.1593962 4.44540893,10.2637161 C3.51681764,10.4244242 3.06216467,10.3304047 2.62623381,10.1087257 C1.69793756,9.63667618 0.820063102,8.68879076 0.482839912,7.67920748 C0.300035365,6.06320646 0.247067304,5.40297713 0.239938205,5.08853369 L0.239659011,4.96304773 C0.241594048,4.88182736 0.247950784,4.83446888 0.254528731,4.79046856 C0.473809091,3.94828036 0.678615594,3.35637828 1.1817489,2.64187804 C2.0929669,1.34795407 3.56636047,0.464806173 5.10131974,0.20694955 Z" stroke-linejoin="square"></path>
                    </g>
                    <path d="M7.35538333,0.430185637 C7.70186143,0.694043516 7.91499585,1.05454085 8.0200166,1.47716606 C7.33140441,1.57624537 6.91427536,1.90976286 6.47111701,2.42471358 L6.24945095,2.40393062 L6.02768064,2.38776216 C5.61816229,2.37970004 5.23995556,2.55123241 4.93639626,2.8246729 C4.57275064,3.15221452 4.29532489,3.63321944 4.13775902,4.09718074 C4.0725294,4.01853964 4.01869845,3.91277725 3.96848171,3.8232452 C3.73136836,3.40026639 3.52358576,2.91745809 3.48226555,2.42711808 C3.40949473,1.56291457 3.90509394,0.864939405 4.57883225,0.396487357 C4.67926572,0.326650945 5.0227899,0.13464501 5.07116477,0.0710319945 C5.07429246,0.0669302102 5.07717688,0.062651625 5.08020031,0.0584437601 C5.82886407,-0.048025829 6.72035883,-0.0533298603 7.35538333,0.430185637 Z" id="形状结合" fill="url(#linearGradient-5)"></path>
                </g>
                <g id="编组-29" transform="translate(3.48, 0)">
                    <g id="路径" fill-rule="nonzero">
                        <use fill="url(#linearGradient-6)" xlink:href="#path-8"></use>
                        <use fill="url(#linearGradient-7)" xlink:href="#path-8"></use>
                        <use fill="black" fill-opacity="1" filter="url(#filter-9)" xlink:href="#path-8"></use>
                        <use stroke-opacity="0.1" stroke="#96DDFF" stroke-width="0.3" xlink:href="#path-8"></use>
                    </g>
                    <path d="M5.21520329,8.25384407 C5.28065044,8.33248517 5.33466089,8.43824756 5.38504508,8.52777961 C5.6229491,8.95075842 5.83142457,9.43356672 5.87288257,9.92390673 C5.94589605,10.7881102 5.44864422,11.4860854 4.77265927,11.9545375 L4.3802144,12.1998682 C4.33059415,12.2331615 4.29255251,12.2618177 4.27868503,12.2799928 L4.26961936,12.292581 C3.51845911,12.3990506 2.62399159,12.4043547 1.98684954,11.9208392 C1.77532992,11.7602933 1.61334122,11.5639697 1.49518113,11.3396425 C1.38399132,11.1845715 1.32,10.9990794 1.32,10.8 L1.32465738,10.892224 C1.32308201,10.8861154 1.32152958,10.8799936 1.32,10.8738587 L1.324,10.8728441 L1.32,10.8 C1.32,10.2845342 1.7490107,9.86016012 2.30014288,9.80586786 L2.42,9.8 C2.62210341,9.8 2.81147667,9.84954932 2.97422265,9.93601421 L3.09646975,9.94709419 L3.31897957,9.96326265 C3.72986349,9.97132477 4.10933139,9.7997924 4.41390294,9.52635191 C4.77876116,9.19881029 5.05711201,8.71780537 5.21520329,8.25384407 Z" id="形状结合" fill="url(#linearGradient-10)"></path>
                    <path d="M0.664796705,4.09718074 C0.599349563,4.01853964 0.545339109,3.91277725 0.494954921,3.8232452 C0.257050898,3.40026639 0.0485754255,2.91745809 0.00711743304,2.42711808 C-0.0658960542,1.56291457 0.43135578,0.864939405 1.10734073,0.396487357 L1.4997856,0.151156578 C1.54940585,0.117863344 1.58744749,0.0892071419 1.60131497,0.0710319945 L1.61038064,0.0584437601 C2.36154089,-0.048025829 3.25600841,-0.0533298603 3.89315046,0.430185637 C4.10467008,0.590731515 4.26665878,0.787055112 4.38481887,1.0113823 C4.45153276,1.10442489 4.50125519,1.2084191 4.53035891,1.31972879 L4.56,1.47716606 L4.56,1.55102481 C4.56,2.06649058 4.1309893,2.49086469 3.57985712,2.54515695 L3.46,2.55102481 C3.25789659,2.55102481 3.06852333,2.50147549 2.90577735,2.4150106 L2.78353025,2.40393062 L2.56102043,2.38776216 C2.15013651,2.37970004 1.77066861,2.55123241 1.46609706,2.8246729 C1.10123884,3.15221452 0.82288799,3.63321944 0.664796705,4.09718074 Z" id="路径" fill="url(#linearGradient-11)"></path>
                </g>
            </g>
        </g>
    </g>
</svg>