<?xml version="1.0" encoding="UTF-8"?>
<svg width="110px" height="110px" viewBox="0 0 110 110" version="1.1" xmlns="http://www.w3.org/2000/svg" xmlns:xlink="http://www.w3.org/1999/xlink">
    <title>一站式部署知识库-110</title>
    <defs>
        <linearGradient x1="78.8829594%" y1="2.47467514%" x2="28.5592066%" y2="100%" id="linearGradient-1">
            <stop stop-color="#7C12E3" offset="0%"></stop>
            <stop stop-color="#0098FF" offset="100%"></stop>
        </linearGradient>
        <rect id="path-2" x="0" y="0" width="96" height="96" rx="21.0731707"></rect>
        <filter x="-7.3%" y="-5.2%" width="114.6%" height="114.6%" filterUnits="objectBoundingBox" id="filter-3">
            <feOffset dx="0" dy="2" in="SourceAlpha" result="shadowOffsetOuter1"></feOffset>
            <feGaussianBlur stdDeviation="2" in="shadowOffsetOuter1" result="shadowBlurOuter1"></feGaussianBlur>
            <feColorMatrix values="0 0 0 0 0   0 0 0 0 0   0 0 0 0 0  0 0 0 0.2 0" type="matrix" in="shadowBlurOuter1"></feColorMatrix>
        </filter>
        <linearGradient x1="9.93655111%" y1="50.2765282%" x2="101.403016%" y2="50.2765282%" id="linearGradient-4">
            <stop stop-color="#27108C" offset="0%"></stop>
            <stop stop-color="#481AB4" offset="44.0542368%"></stop>
            <stop stop-color="#2B0D90" offset="99.9011487%"></stop>
        </linearGradient>
        <linearGradient x1="50%" y1="0%" x2="50%" y2="100%" id="linearGradient-5">
            <stop stop-color="#FFFFFF" offset="0%"></stop>
            <stop stop-color="#BED2FF" offset="100%"></stop>
        </linearGradient>
        <path d="M3.51219512,29.2682927 L3.51239538,29.2393288 C1.54768145,28.8487084 0,24.5555959 0,19.3170732 C0,14.0785505 1.54768145,9.78543794 3.51239538,9.39481753 L3.51219512,9.36585366 L9.36585366,9.36585366 L9.36585366,29.2682927 L3.51219512,29.2682927 Z" id="path-6"></path>
        <filter x="-32.0%" y="-15.1%" width="164.1%" height="130.1%" filterUnits="objectBoundingBox" id="filter-7">
            <feGaussianBlur stdDeviation="1.5" in="SourceAlpha" result="shadowBlurInner1"></feGaussianBlur>
            <feOffset dx="0" dy="-1" in="shadowBlurInner1" result="shadowOffsetInner1"></feOffset>
            <feComposite in="shadowOffsetInner1" in2="SourceAlpha" operator="arithmetic" k2="-1" k3="1" result="shadowInnerInner1"></feComposite>
            <feColorMatrix values="0 0 0 0 0.484672732   0 0 0 0 0.660750155   0 0 0 0 1  0 0 0 1 0" type="matrix" in="shadowInnerInner1" result="shadowMatrixInner1"></feColorMatrix>
            <feGaussianBlur stdDeviation="2" in="SourceAlpha" result="shadowBlurInner2"></feGaussianBlur>
            <feOffset dx="0" dy="2" in="shadowBlurInner2" result="shadowOffsetInner2"></feOffset>
            <feComposite in="shadowOffsetInner2" in2="SourceAlpha" operator="arithmetic" k2="-1" k3="1" result="shadowInnerInner2"></feComposite>
            <feColorMatrix values="0 0 0 0 0.769546568   0 0 0 0 0.74022842   0 0 0 0 1  0 0 0 0.5 0" type="matrix" in="shadowInnerInner2" result="shadowMatrixInner2"></feColorMatrix>
            <feMerge>
                <feMergeNode in="shadowMatrixInner1"></feMergeNode>
                <feMergeNode in="shadowMatrixInner2"></feMergeNode>
            </feMerge>
        </filter>
        <path d="M3.51219512,29.2682927 L3.51239538,29.2393288 C1.54768145,28.8487084 0,24.5555959 0,19.3170732 C0,14.0785505 1.54768145,9.78543794 3.51239538,9.39481753 L3.51219512,9.36585366 L9.36585366,9.36585366 L9.36585366,29.2682927 L3.51219512,29.2682927 Z" id="path-8"></path>
        <filter x="-32.0%" y="-15.1%" width="164.1%" height="130.1%" filterUnits="objectBoundingBox" id="filter-9">
            <feGaussianBlur stdDeviation="1.5" in="SourceAlpha" result="shadowBlurInner1"></feGaussianBlur>
            <feOffset dx="0" dy="-1" in="shadowBlurInner1" result="shadowOffsetInner1"></feOffset>
            <feComposite in="shadowOffsetInner1" in2="SourceAlpha" operator="arithmetic" k2="-1" k3="1" result="shadowInnerInner1"></feComposite>
            <feColorMatrix values="0 0 0 0 0.484672732   0 0 0 0 0.660750155   0 0 0 0 1  0 0 0 1 0" type="matrix" in="shadowInnerInner1" result="shadowMatrixInner1"></feColorMatrix>
            <feGaussianBlur stdDeviation="2" in="SourceAlpha" result="shadowBlurInner2"></feGaussianBlur>
            <feOffset dx="0" dy="2" in="shadowBlurInner2" result="shadowOffsetInner2"></feOffset>
            <feComposite in="shadowOffsetInner2" in2="SourceAlpha" operator="arithmetic" k2="-1" k3="1" result="shadowInnerInner2"></feComposite>
            <feColorMatrix values="0 0 0 0 0.769546568   0 0 0 0 0.74022842   0 0 0 0 1  0 0 0 0.5 0" type="matrix" in="shadowInnerInner2" result="shadowMatrixInner2"></feColorMatrix>
            <feMerge>
                <feMergeNode in="shadowMatrixInner1"></feMergeNode>
                <feMergeNode in="shadowMatrixInner2"></feMergeNode>
            </feMerge>
        </filter>
        <linearGradient x1="50%" y1="0%" x2="50%" y2="100%" id="linearGradient-10">
            <stop stop-color="#FFFFFF" offset="0%"></stop>
            <stop stop-color="#BED2FF" offset="100%"></stop>
        </linearGradient>
        <path d="M36.5853659,73.7560976 C60.5716343,73.7560976 68.4878049,60.2591208 68.4878049,43.6097561 C68.4878049,26.9603914 54.2045964,13.4634146 36.5853659,13.4634146 C18.9661353,13.4634146 4.68292683,26.9603914 4.68292683,43.6097561 C4.68292683,60.2591208 12.5990974,73.7560976 36.5853659,73.7560976 Z" id="path-11"></path>
        <filter x="-4.7%" y="-5.0%" width="109.4%" height="110.0%" filterUnits="objectBoundingBox" id="filter-12">
            <feGaussianBlur stdDeviation="1.5" in="SourceAlpha" result="shadowBlurInner1"></feGaussianBlur>
            <feOffset dx="0" dy="-1" in="shadowBlurInner1" result="shadowOffsetInner1"></feOffset>
            <feComposite in="shadowOffsetInner1" in2="SourceAlpha" operator="arithmetic" k2="-1" k3="1" result="shadowInnerInner1"></feComposite>
            <feColorMatrix values="0 0 0 0 0.484672732   0 0 0 0 0.660750155   0 0 0 0 1  0 0 0 1 0" type="matrix" in="shadowInnerInner1" result="shadowMatrixInner1"></feColorMatrix>
            <feGaussianBlur stdDeviation="2" in="SourceAlpha" result="shadowBlurInner2"></feGaussianBlur>
            <feOffset dx="0" dy="2" in="shadowBlurInner2" result="shadowOffsetInner2"></feOffset>
            <feComposite in="shadowOffsetInner2" in2="SourceAlpha" operator="arithmetic" k2="-1" k3="1" result="shadowInnerInner2"></feComposite>
            <feColorMatrix values="0 0 0 0 0.769546568   0 0 0 0 0.74022842   0 0 0 0 1  0 0 0 0.5 0" type="matrix" in="shadowInnerInner2" result="shadowMatrixInner2"></feColorMatrix>
            <feMerge>
                <feMergeNode in="shadowMatrixInner1"></feMergeNode>
                <feMergeNode in="shadowMatrixInner2"></feMergeNode>
            </feMerge>
        </filter>
        <linearGradient x1="50%" y1="-11.2122118%" x2="50%" y2="100%" id="linearGradient-13">
            <stop stop-color="#7C12E3" offset="0%"></stop>
            <stop stop-color="#0098FF" offset="100%"></stop>
        </linearGradient>
        <path d="M36.8780488,26.9268293 C52.0726146,26.9268293 64.3902439,36.099532 64.3902439,47.4146341 C64.3902439,58.7297363 52.0726146,67.902439 36.8780488,67.902439 C21.683483,67.902439 9.36585366,58.7297363 9.36585366,47.4146341 C9.36585366,36.099532 21.683483,26.9268293 36.8780488,26.9268293 Z" id="path-14"></path>
        <filter x="-0.9%" y="-3.7%" width="101.8%" height="107.3%" filterUnits="objectBoundingBox" id="filter-15">
            <feOffset dx="0" dy="1" in="SourceAlpha" result="shadowOffsetOuter1"></feOffset>
            <feColorMatrix values="0 0 0 0 0   0 0 0 0 0.871231951   0 0 0 0 0.994777514  0 0 0 1 0" type="matrix" in="shadowOffsetOuter1" result="shadowMatrixOuter1"></feColorMatrix>
            <feOffset dx="0" dy="-1" in="SourceAlpha" result="shadowOffsetOuter2"></feOffset>
            <feColorMatrix values="0 0 0 0 0.352941176   0 0 0 0 0.215686275   0 0 0 0 0.921568627  0 0 0 0.216040551 0" type="matrix" in="shadowOffsetOuter2" result="shadowMatrixOuter2"></feColorMatrix>
            <feMerge>
                <feMergeNode in="shadowMatrixOuter1"></feMergeNode>
                <feMergeNode in="shadowMatrixOuter2"></feMergeNode>
            </feMerge>
        </filter>
        <filter x="-2.7%" y="-6.1%" width="105.5%" height="112.2%" filterUnits="objectBoundingBox" id="filter-16">
            <feGaussianBlur stdDeviation="1" in="SourceAlpha" result="shadowBlurInner1"></feGaussianBlur>
            <feOffset dx="1" dy="0" in="shadowBlurInner1" result="shadowOffsetInner1"></feOffset>
            <feComposite in="shadowOffsetInner1" in2="SourceAlpha" operator="arithmetic" k2="-1" k3="1" result="shadowInnerInner1"></feComposite>
            <feColorMatrix values="0 0 0 0 0.0117647059   0 0 0 0 0.984313725   0 0 0 0 1  0 0 0 0.756351071 0" type="matrix" in="shadowInnerInner1" result="shadowMatrixInner1"></feColorMatrix>
            <feGaussianBlur stdDeviation="1" in="SourceAlpha" result="shadowBlurInner2"></feGaussianBlur>
            <feOffset dx="-1" dy="0" in="shadowBlurInner2" result="shadowOffsetInner2"></feOffset>
            <feComposite in="shadowOffsetInner2" in2="SourceAlpha" operator="arithmetic" k2="-1" k3="1" result="shadowInnerInner2"></feComposite>
            <feColorMatrix values="0 0 0 0 0.0117647059   0 0 0 0 0.984313725   0 0 0 0 1  0 0 0 0.756351071 0" type="matrix" in="shadowInnerInner2" result="shadowMatrixInner2"></feColorMatrix>
            <feMerge>
                <feMergeNode in="shadowMatrixInner1"></feMergeNode>
                <feMergeNode in="shadowMatrixInner2"></feMergeNode>
            </feMerge>
        </filter>
        <linearGradient x1="51.6193161%" y1="-10.2570099%" x2="51.6193161%" y2="107.239133%" id="linearGradient-17">
            <stop stop-color="#0E012D" offset="0%"></stop>
            <stop stop-color="#00042E" offset="100%"></stop>
        </linearGradient>
        <linearGradient x1="50%" y1="0%" x2="50%" y2="100%" id="linearGradient-18">
            <stop stop-color="#BB00FF" offset="0%"></stop>
            <stop stop-color="#00FFFA" offset="100%"></stop>
        </linearGradient>
        <linearGradient x1="50%" y1="0%" x2="50%" y2="78.2185974%" id="linearGradient-19">
            <stop stop-color="#EAD5FF" offset="0%"></stop>
            <stop stop-color="#D4EEFF" stop-opacity="0" offset="100%"></stop>
        </linearGradient>
        <path d="M28.8780488,48.291878 L28.8780488,48.804878 L16.8780488,48.804878 L16.8780488,48.2926829 L28.8780488,48.291878 Z M16.8780488,47.1219512 L28.8780488,47.121878 L28.8780488,47.999878 L16.8780488,48 L16.8780488,47.1219512 Z M16.8780488,45.9512195 L28.8780488,45.950878 L28.8780488,46.828878 L16.8780488,46.8292683 L16.8780488,45.9512195 Z M16.8780488,44.7804878 L21.8780488,44.779878 L21.8780488,44.804878 L28.8780488,44.804878 L28.8780488,45.657878 L16.8780488,45.6585366 L16.8780488,44.7804878 Z M16.8780488,43.6097561 L21.8780488,43.608878 L21.8780488,44.486878 L16.8780488,44.4878049 L16.8780488,43.6097561 Z M16.8780488,42.4390244 L21.8780488,42.438878 L21.8780488,43.316878 L16.8780488,43.3170732 L16.8780488,42.4390244 Z M16.8780488,41.2682927 L21.8780488,41.267878 L21.8780488,42.145878 L16.8780488,42.1463415 L16.8780488,41.2682927 Z M16.8780488,40.804878 L21.8780488,40.804878 L21.8780488,40.974878 L16.8780488,40.9756098 L16.8780488,40.804878 Z" id="path-20"></path>
        <filter x="-87.5%" y="-131.2%" width="275.0%" height="362.5%" filterUnits="objectBoundingBox" id="filter-21">
            <feOffset dx="0" dy="0" in="SourceAlpha" result="shadowOffsetOuter1"></feOffset>
            <feGaussianBlur stdDeviation="3.5" in="shadowOffsetOuter1" result="shadowBlurOuter1"></feGaussianBlur>
            <feColorMatrix values="0 0 0 0 0.104669636   0 0 0 0 0.957365221   0 0 0 0 1  0 0 0 1 0" type="matrix" in="shadowBlurOuter1" result="shadowMatrixOuter1"></feColorMatrix>
            <feOffset dx="0" dy="0" in="SourceAlpha" result="shadowOffsetOuter2"></feOffset>
            <feGaussianBlur stdDeviation="1.5" in="shadowOffsetOuter2" result="shadowBlurOuter2"></feGaussianBlur>
            <feColorMatrix values="0 0 0 0 0.104669636   0 0 0 0 0.957365221   0 0 0 0 1  0 0 0 1 0" type="matrix" in="shadowBlurOuter2" result="shadowMatrixOuter2"></feColorMatrix>
            <feMerge>
                <feMergeNode in="shadowMatrixOuter1"></feMergeNode>
                <feMergeNode in="shadowMatrixOuter2"></feMergeNode>
            </feMerge>
        </filter>
        <path d="M56.8780488,48.291878 L56.8780488,48.804878 L44.8780488,48.804878 L44.8780488,48.2926829 L56.8780488,48.291878 Z M44.8780488,47.1219512 L56.8780488,47.121878 L56.8780488,47.999878 L44.8780488,48 L44.8780488,47.1219512 Z M44.8780488,45.9512195 L56.8780488,45.950878 L56.8780488,46.828878 L44.8780488,46.8292683 L44.8780488,45.9512195 Z M44.8780488,44.7804878 L49.8780488,44.779878 L49.8780488,44.804878 L56.8780488,44.804878 L56.8780488,45.657878 L44.8780488,45.6585366 L44.8780488,44.7804878 Z M44.8780488,43.6097561 L49.8780488,43.608878 L49.8780488,44.486878 L44.8780488,44.4878049 L44.8780488,43.6097561 Z M44.8780488,42.4390244 L49.8780488,42.438878 L49.8780488,43.316878 L44.8780488,43.3170732 L44.8780488,42.4390244 Z M44.8780488,41.2682927 L49.8780488,41.267878 L49.8780488,42.145878 L44.8780488,42.1463415 L44.8780488,41.2682927 Z M44.8780488,40.804878 L49.8780488,40.804878 L49.8780488,40.974878 L44.8780488,40.9756098 L44.8780488,40.804878 Z" id="path-22"></path>
        <filter x="-87.5%" y="-131.2%" width="275.0%" height="362.5%" filterUnits="objectBoundingBox" id="filter-23">
            <feOffset dx="0" dy="0" in="SourceAlpha" result="shadowOffsetOuter1"></feOffset>
            <feGaussianBlur stdDeviation="3.5" in="shadowOffsetOuter1" result="shadowBlurOuter1"></feGaussianBlur>
            <feColorMatrix values="0 0 0 0 0.104669636   0 0 0 0 0.957365221   0 0 0 0 1  0 0 0 1 0" type="matrix" in="shadowBlurOuter1" result="shadowMatrixOuter1"></feColorMatrix>
            <feOffset dx="0" dy="0" in="SourceAlpha" result="shadowOffsetOuter2"></feOffset>
            <feGaussianBlur stdDeviation="1.5" in="shadowOffsetOuter2" result="shadowBlurOuter2"></feGaussianBlur>
            <feColorMatrix values="0 0 0 0 0.104669636   0 0 0 0 0.957365221   0 0 0 0 1  0 0 0 1 0" type="matrix" in="shadowBlurOuter2" result="shadowMatrixOuter2"></feColorMatrix>
            <feMerge>
                <feMergeNode in="shadowMatrixOuter1"></feMergeNode>
                <feMergeNode in="shadowMatrixOuter2"></feMergeNode>
            </feMerge>
        </filter>
        <path d="M40.0391314,55.9035691 C39.0981489,56.5491073 37.959039,56.9268293 36.7317073,56.9268293 C35.5042478,56.9268293 34.3650284,56.5490286 33.4239891,55.9033673 Z M41.3009726,54.7323539 C41.0425461,55.0546371 40.7507282,55.3489931 40.4307658,55.6101748 L33.0325518,55.6100956 C32.7126275,55.3489336 32.4208424,55.0546045 32.1624421,54.7323539 Z M42.03189,53.561063 C41.8870046,53.8691902 41.7160409,54.1626287 41.5218434,54.4385341 L31.9415712,54.4385341 C31.7473737,54.1626287 31.5764101,53.8691902 31.4315246,53.561063 Z M42.4364989,52.390685 C42.3669273,52.693155 42.2739193,52.9866723 42.159489,53.2692228 L31.3039256,53.2692228 C31.1894954,52.9866723 31.0964873,52.693155 31.0269157,52.390685 Z M42.5835679,51.2196916 C42.5762277,51.5184708 42.5465004,51.8116967 42.4959997,52.0977555 L30.9674149,52.0977555 C30.9086837,51.7650748 30.8780488,51.4227003 30.8780488,51.0731707 L30.8810488,51.2191707 Z" id="path-24"></path>
        <filter x="-89.7%" y="-179.4%" width="279.4%" height="458.7%" filterUnits="objectBoundingBox" id="filter-25">
            <feOffset dx="0" dy="0" in="SourceAlpha" result="shadowOffsetOuter1"></feOffset>
            <feGaussianBlur stdDeviation="3.5" in="shadowOffsetOuter1" result="shadowBlurOuter1"></feGaussianBlur>
            <feColorMatrix values="0 0 0 0 0.104669636   0 0 0 0 0.957365221   0 0 0 0 1  0 0 0 1 0" type="matrix" in="shadowBlurOuter1" result="shadowMatrixOuter1"></feColorMatrix>
            <feOffset dx="0" dy="0" in="SourceAlpha" result="shadowOffsetOuter2"></feOffset>
            <feGaussianBlur stdDeviation="1.5" in="shadowOffsetOuter2" result="shadowBlurOuter2"></feGaussianBlur>
            <feColorMatrix values="0 0 0 0 0.104669636   0 0 0 0 0.957365221   0 0 0 0 1  0 0 0 1 0" type="matrix" in="shadowBlurOuter2" result="shadowMatrixOuter2"></feColorMatrix>
            <feMerge>
                <feMergeNode in="shadowMatrixOuter1"></feMergeNode>
                <feMergeNode in="shadowMatrixOuter2"></feMergeNode>
            </feMerge>
        </filter>
        <radialGradient cx="50%" cy="46.6323471%" fx="50%" fy="46.6323471%" r="95.5322757%" gradientTransform="translate(0.5, 0.4663), scale(0.5385, 1), rotate(2.1861), scale(1, 0.6234), translate(-0.5, -0.4663)" id="radialGradient-26">
            <stop stop-color="#00192A" offset="0%"></stop>
            <stop stop-color="#230045" offset="100%"></stop>
        </radialGradient>
        <ellipse id="path-27" cx="36.5853659" cy="19.0243902" rx="3.80487805" ry="2.04878049"></ellipse>
        <filter x="-6.6%" y="-36.6%" width="113.1%" height="148.8%" filterUnits="objectBoundingBox" id="filter-28">
            <feOffset dx="0" dy="-1" in="SourceAlpha" result="shadowOffsetOuter1"></feOffset>
            <feColorMatrix values="0 0 0 0 0.109803922   0 0 0 0 0.0156862745   0 0 0 0 0.250980392  0 0 0 0.156125369 0" type="matrix" in="shadowOffsetOuter1"></feColorMatrix>
        </filter>
        <linearGradient x1="9.93655111%" y1="50.2765282%" x2="101.403016%" y2="50.2765282%" id="linearGradient-29">
            <stop stop-color="#27108C" offset="0%"></stop>
            <stop stop-color="#481AB4" offset="44.0542368%"></stop>
            <stop stop-color="#2B0D90" offset="99.9011487%"></stop>
        </linearGradient>
        <linearGradient x1="50%" y1="0%" x2="50%" y2="100%" id="linearGradient-30">
            <stop stop-color="#F0E9FF" offset="0%"></stop>
            <stop stop-color="#BED2FF" offset="100%"></stop>
        </linearGradient>
        <circle id="path-31" cx="36.5853659" cy="6.73170732" r="6.73170732"></circle>
        <filter x="-22.3%" y="-22.3%" width="144.6%" height="144.6%" filterUnits="objectBoundingBox" id="filter-32">
            <feGaussianBlur stdDeviation="1.5" in="SourceAlpha" result="shadowBlurInner1"></feGaussianBlur>
            <feOffset dx="0" dy="-1" in="shadowBlurInner1" result="shadowOffsetInner1"></feOffset>
            <feComposite in="shadowOffsetInner1" in2="SourceAlpha" operator="arithmetic" k2="-1" k3="1" result="shadowInnerInner1"></feComposite>
            <feColorMatrix values="0 0 0 0 0.484672732   0 0 0 0 0.660750155   0 0 0 0 1  0 0 0 1 0" type="matrix" in="shadowInnerInner1" result="shadowMatrixInner1"></feColorMatrix>
            <feGaussianBlur stdDeviation="2" in="SourceAlpha" result="shadowBlurInner2"></feGaussianBlur>
            <feOffset dx="0" dy="2" in="shadowBlurInner2" result="shadowOffsetInner2"></feOffset>
            <feComposite in="shadowOffsetInner2" in2="SourceAlpha" operator="arithmetic" k2="-1" k3="1" result="shadowInnerInner2"></feComposite>
            <feColorMatrix values="0 0 0 0 0.769546568   0 0 0 0 0.74022842   0 0 0 0 1  0 0 0 0.5 0" type="matrix" in="shadowInnerInner2" result="shadowMatrixInner2"></feColorMatrix>
            <feMerge>
                <feMergeNode in="shadowMatrixInner1"></feMergeNode>
                <feMergeNode in="shadowMatrixInner2"></feMergeNode>
            </feMerge>
        </filter>
    </defs>
    <g id="一站式部署知识库-110" stroke="none" stroke-width="1" fill="none" fill-rule="evenodd">
        <g id="编组-33备份-5" transform="translate(7, 7)">
            <g id="蒙版">
                <use fill="black" fill-opacity="1" filter="url(#filter-3)" xlink:href="#path-2"></use>
                <use fill="url(#linearGradient-1)" fill-rule="evenodd" xlink:href="#path-2"></use>
            </g>
            <g id="编组" transform="translate(11.122, 12.1951)">
                <g id="编组-29" transform="translate(0, 25.1707)">
                    <path d="M5.56097561,0 C6.17413621,-1.12635775e-16 6.67596944,0.487919645 6.69320522,1.10083795 L6.98325406,11.4152124 C7.00534305,12.2007151 6.38647397,12.8553975 5.60097127,12.8774865 C5.58764268,12.8778613 5.57430947,12.8780488 5.56097561,12.8780488 C4.77516239,12.8780488 4.13813491,12.2410213 4.13813491,11.4552081 C4.13813491,11.4418742 4.13832235,11.428541 4.13869716,11.4152124 L4.428746,1.10083795 C4.44598178,0.487919645 4.94781501,1.12635775e-16 5.56097561,0 Z" id="矩形" fill="url(#linearGradient-4)"></path>
                    <g id="形状结合">
                        <use fill="url(#linearGradient-5)" fill-rule="evenodd" xlink:href="#path-6"></use>
                        <use fill="black" fill-opacity="1" filter="url(#filter-7)" xlink:href="#path-6"></use>
                    </g>
                </g>
                <g id="编组-29" transform="translate(69.0732, 39.8049) scale(-1, 1) translate(-69.0732, -39.8049)translate(64.3902, 25.1707)">
                    <path d="M5.56097561,0 C6.17413621,-1.12635775e-16 6.67596944,0.487919645 6.69320522,1.10083795 L6.98325406,11.4152124 C7.00534305,12.2007151 6.38647397,12.8553975 5.60097127,12.8774865 C5.58764268,12.8778613 5.57430947,12.8780488 5.56097561,12.8780488 C4.77516239,12.8780488 4.13813491,12.2410213 4.13813491,11.4552081 C4.13813491,11.4418742 4.13832235,11.428541 4.13869716,11.4152124 L4.428746,1.10083795 C4.44598178,0.487919645 4.94781501,1.12635775e-16 5.56097561,0 Z" id="矩形" fill="url(#linearGradient-4)"></path>
                    <g id="形状结合">
                        <use fill="url(#linearGradient-5)" fill-rule="evenodd" xlink:href="#path-8"></use>
                        <use fill="black" fill-opacity="1" filter="url(#filter-9)" xlink:href="#path-8"></use>
                    </g>
                </g>
                <g id="椭圆形">
                    <use fill="url(#linearGradient-10)" fill-rule="evenodd" xlink:href="#path-11"></use>
                    <use fill="black" fill-opacity="1" filter="url(#filter-12)" xlink:href="#path-11"></use>
                </g>
                <g id="路径">
                    <use fill="black" fill-opacity="1" filter="url(#filter-15)" xlink:href="#path-14"></use>
                    <use fill="url(#linearGradient-13)" fill-rule="evenodd" xlink:href="#path-14"></use>
                    <use fill="black" fill-opacity="1" filter="url(#filter-16)" xlink:href="#path-14"></use>
                </g>
                <g id="形状结合" transform="translate(11.122, 28.6829)">
                    <path d="M25.7560976,0 C11.4379309,0 0,8.51760812 0,18.7317073 C0,28.9458065 11.4379309,37.4634146 25.7560976,37.4634146 C40.0742642,37.4634146 51.5121951,28.9458065 51.5121951,18.7317073 C51.5121951,8.51760812 40.0742642,0 25.7560976,0 Z" id="蒙版" fill="url(#linearGradient-17)"></path>
                    <path d="M-1.17073171,0.731707317 L-2.04281037e-14,0.731707317 L-2.04281037e-14,1.90243902 L-1.17073171,1.90243902 Z M-1.17073171,19.4634146 L-0.292682927,19.4634146 L-0.292682927,20.3414634 L-1.17073171,20.3414634 Z M26.9268293,0.731707317 L27.804878,0.731707317 L27.804878,1.6097561 L26.9268293,1.6097561 Z M26.9268293,19.4634146 L27.804878,19.4634146 L27.804878,20.3414634 L26.9268293,20.3414634 Z M-1.17073171,10.097561 L-0.292682927,10.097561 L-0.292682927,10.9756098 L-1.17073171,10.9756098 Z M-1.17073171,28.8292683 L-0.292682927,28.8292683 L-0.292682927,29.7073171 L-1.17073171,29.7073171 Z M26.9268293,10.097561 L27.804878,10.097561 L27.804878,10.9756098 L26.9268293,10.9756098 Z M26.9268293,28.8292683 L27.804878,28.8292683 L27.804878,29.7073171 L26.9268293,29.7073171 Z M-3.51219512,3.07317073 L-2.63414634,3.07317073 L-2.63414634,3.95121951 L-3.51219512,3.95121951 Z M-3.51219512,21.804878 L-2.63414634,21.804878 L-2.63414634,22.6829268 L-3.51219512,22.6829268 Z M25.4634146,3.07317073 L25.4634146,3.95121951 L24.5853659,3.95121951 L24.5853659,3.07317073 L25.4634146,3.07317073 Z M25.4634146,21.804878 L25.4634146,22.6829268 L24.5853659,22.6829268 L24.5853659,21.804878 L25.4634146,21.804878 Z M-3.51219512,12.4390244 L-2.63414634,12.4390244 L-2.63414634,13.3170732 L-3.51219512,13.3170732 Z M-3.51219512,31.1707317 L-2.63414634,31.1707317 L-2.63414634,32.0487805 L-3.51219512,32.0487805 Z M25.4634146,12.4390244 L25.4634146,13.3170732 L24.5853659,13.3170732 L24.5853659,12.4390244 L25.4634146,12.4390244 Z M25.4634146,31.1707317 L25.4634146,32.0487805 L24.5853659,32.0487805 L24.5853659,31.1707317 L25.4634146,31.1707317 Z M22.2439024,7.75609756 L23.1219512,7.75609756 L23.1219512,8.63414634 L22.2439024,8.63414634 Z M22.2439024,26.4878049 L23.1219512,26.4878049 L23.1219512,27.3658537 L22.2439024,27.3658537 Z M50.3414634,7.75609756 L51.2195122,7.75609756 L51.2195122,8.63414634 L50.3414634,8.63414634 Z M50.3414634,26.4878049 L51.2195122,26.4878049 L51.2195122,27.3658537 L50.3414634,27.3658537 Z M22.2439024,17.1219512 L23.1219512,17.1219512 L23.1219512,18 L22.2439024,18 Z M22.2439024,35.8536585 L23.1219512,35.8536585 L23.1219512,36.7317073 L22.2439024,36.7317073 Z M50.3414634,17.1219512 L51.2195122,17.1219512 L51.2195122,18 L50.3414634,18 Z M50.3414634,35.8536585 L51.2195122,35.8536585 L51.2195122,36.7317073 L50.3414634,36.7317073 Z M-3.51219512,7.75609756 L-2.63414634,7.75609756 L-2.63414634,8.63414634 L-3.51219512,8.63414634 Z M-3.51219512,26.4878049 L-2.63414634,26.4878049 L-2.63414634,27.3658537 L-3.51219512,27.3658537 Z M25.4634146,7.75609756 L25.4634146,8.63414634 L24.5853659,8.63414634 L24.5853659,7.75609756 L25.4634146,7.75609756 Z M25.4634146,26.4878049 L25.4634146,27.3658537 L24.5853659,27.3658537 L24.5853659,26.4878049 L25.4634146,26.4878049 Z M-3.51219512,17.1219512 L-2.63414634,17.1219512 L-2.63414634,18 L-3.51219512,18 Z M-3.51219512,35.8536585 L-2.63414634,35.8536585 L-2.63414634,36.7317073 L-3.51219512,36.7317073 Z M25.4634146,17.1219512 L25.4634146,18 L24.5853659,18 L24.5853659,17.1219512 L25.4634146,17.1219512 Z M25.4634146,35.8536585 L25.4634146,36.7317073 L24.5853659,36.7317073 L24.5853659,35.8536585 L25.4634146,35.8536585 Z M12.8780488,7.75609756 L13.7560976,7.75609756 L13.7560976,8.63414634 L12.8780488,8.63414634 Z M12.8780488,26.4878049 L13.7560976,26.4878049 L13.7560976,27.3658537 L12.8780488,27.3658537 Z M40.9756098,7.75609756 L41.8536585,7.75609756 L41.8536585,8.63414634 L40.9756098,8.63414634 Z M40.9756098,26.4878049 L41.8536585,26.4878049 L41.8536585,27.3658537 L40.9756098,27.3658537 Z M12.8780488,17.1219512 L13.7560976,17.1219512 L13.7560976,18 L12.8780488,18 Z M12.8780488,35.8536585 L13.7560976,35.8536585 L13.7560976,36.7317073 L12.8780488,36.7317073 Z M40.9756098,17.1219512 L41.8536585,17.1219512 L41.8536585,18 L40.9756098,18 Z M40.9756098,35.8536585 L41.8536585,35.8536585 L41.8536585,36.7317073 L40.9756098,36.7317073 Z M3.51219512,3.07317073 L4.3902439,3.07317073 L4.3902439,3.95121951 L3.51219512,3.95121951 Z M3.51219512,21.804878 L4.3902439,21.804878 L4.3902439,22.6829268 L3.51219512,22.6829268 Z M31.6097561,3.07317073 L32.4878049,3.07317073 L32.4878049,3.95121951 L31.6097561,3.95121951 Z M31.6097561,21.804878 L32.4878049,21.804878 L32.4878049,22.6829268 L31.6097561,22.6829268 Z M3.51219512,12.4390244 L4.3902439,12.4390244 L4.3902439,13.3170732 L3.51219512,13.3170732 Z M3.51219512,31.1707317 L4.3902439,31.1707317 L4.3902439,32.0487805 L3.51219512,32.0487805 Z M31.6097561,12.4390244 L32.4878049,12.4390244 L32.4878049,13.3170732 L31.6097561,13.3170732 Z M31.6097561,31.1707317 L32.4878049,31.1707317 L32.4878049,32.0487805 L31.6097561,32.0487805 Z M1.17073171,5.41463415 L2.04878049,5.41463415 L2.04878049,6.29268293 L1.17073171,6.29268293 Z M1.17073171,24.1463415 L2.04878049,24.1463415 L2.04878049,25.0243902 L1.17073171,25.0243902 Z M29.2682927,5.41463415 L30.1463415,5.41463415 L30.1463415,6.29268293 L29.2682927,6.29268293 Z M29.2682927,24.1463415 L30.1463415,24.1463415 L30.1463415,25.0243902 L29.2682927,25.0243902 Z M1.17073171,14.7804878 L2.04878049,14.7804878 L2.04878049,15.6585366 L1.17073171,15.6585366 Z M1.17073171,33.5121951 L2.04878049,33.5121951 L2.04878049,34.3902439 L1.17073171,34.3902439 Z M29.2682927,14.7804878 L30.1463415,14.7804878 L30.1463415,15.6585366 L29.2682927,15.6585366 Z M29.2682927,33.5121951 L30.1463415,33.5121951 L30.1463415,34.3902439 L29.2682927,34.3902439 Z M1.17073171,7.75609756 L2.04878049,7.75609756 L2.04878049,8.63414634 L1.17073171,8.63414634 Z M1.17073171,26.4878049 L2.04878049,26.4878049 L2.04878049,27.3658537 L1.17073171,27.3658537 Z M29.2682927,7.75609756 L30.1463415,7.75609756 L30.1463415,8.63414634 L29.2682927,8.63414634 Z M29.2682927,26.4878049 L30.1463415,26.4878049 L30.1463415,27.3658537 L29.2682927,27.3658537 Z M1.17073171,17.1219512 L2.04878049,17.1219512 L2.04878049,18 L1.17073171,18 Z M1.17073171,35.8536585 L2.04878049,35.8536585 L2.04878049,36.7317073 L1.17073171,36.7317073 Z M29.2682927,17.1219512 L30.1463415,17.1219512 L30.1463415,18 L29.2682927,18 Z M29.2682927,35.8536585 L30.1463415,35.8536585 L30.1463415,36.7317073 L29.2682927,36.7317073 Z M10.5365854,3.07317073 L11.4146341,3.07317073 L11.4146341,3.95121951 L10.5365854,3.95121951 Z M10.5365854,21.804878 L11.4146341,21.804878 L11.4146341,22.6829268 L10.5365854,22.6829268 Z M38.6341463,3.07317073 L39.5121951,3.07317073 L39.5121951,3.95121951 L38.6341463,3.95121951 Z M38.6341463,21.804878 L39.5121951,21.804878 L39.5121951,22.6829268 L38.6341463,22.6829268 Z M10.5365854,12.4390244 L11.4146341,12.4390244 L11.4146341,13.3170732 L10.5365854,13.3170732 Z M10.5365854,31.1707317 L11.4146341,31.1707317 L11.4146341,32.0487805 L10.5365854,32.0487805 Z M38.6341463,12.4390244 L39.5121951,12.4390244 L39.5121951,13.3170732 L38.6341463,13.3170732 Z M38.6341463,31.1707317 L39.5121951,31.1707317 L39.5121951,32.0487805 L38.6341463,32.0487805 Z M15.2195122,5.41463415 L16.097561,5.41463415 L16.097561,6.29268293 L15.2195122,6.29268293 Z M15.2195122,24.1463415 L16.097561,24.1463415 L16.097561,25.0243902 L15.2195122,25.0243902 Z M43.3170732,5.41463415 L44.195122,5.41463415 L44.195122,6.29268293 L43.3170732,6.29268293 Z M43.3170732,24.1463415 L44.195122,24.1463415 L44.195122,25.0243902 L43.3170732,25.0243902 Z M15.2195122,14.7804878 L16.097561,14.7804878 L16.097561,15.6585366 L15.2195122,15.6585366 Z M15.2195122,33.5121951 L16.097561,33.5121951 L16.097561,34.3902439 L15.2195122,34.3902439 Z M43.3170732,14.7804878 L44.195122,14.7804878 L44.195122,15.6585366 L43.3170732,15.6585366 Z M43.3170732,33.5121951 L44.195122,33.5121951 L44.195122,34.3902439 L43.3170732,34.3902439 Z M22.2439024,5.41463415 L23.1219512,5.41463415 L23.1219512,6.29268293 L22.2439024,6.29268293 Z M22.2439024,24.1463415 L23.1219512,24.1463415 L23.1219512,25.0243902 L22.2439024,25.0243902 Z M50.3414634,5.41463415 L51.2195122,5.41463415 L51.2195122,6.29268293 L50.3414634,6.29268293 Z M50.3414634,24.1463415 L51.2195122,24.1463415 L51.2195122,25.0243902 L50.3414634,25.0243902 Z M22.2439024,14.7804878 L23.1219512,14.7804878 L23.1219512,15.6585366 L22.2439024,15.6585366 Z M22.2439024,33.5121951 L23.1219512,33.5121951 L23.1219512,34.3902439 L22.2439024,34.3902439 Z M50.3414634,14.7804878 L51.2195122,14.7804878 L51.2195122,15.6585366 L50.3414634,15.6585366 Z M50.3414634,33.5121951 L51.2195122,33.5121951 L51.2195122,34.3902439 L50.3414634,34.3902439 Z M22.2439024,0.731707317 L23.1219512,0.731707317 L23.1219512,1.6097561 L22.2439024,1.6097561 Z M22.2439024,19.4634146 L23.1219512,19.4634146 L23.1219512,20.3414634 L22.2439024,20.3414634 Z M50.3414634,0.731707317 L51.2195122,0.731707317 L51.2195122,1.6097561 L50.3414634,1.6097561 Z M50.3414634,19.4634146 L51.2195122,19.4634146 L51.2195122,20.3414634 L50.3414634,20.3414634 Z M22.2439024,10.097561 L23.1219512,10.097561 L23.1219512,10.9756098 L22.2439024,10.9756098 Z M22.2439024,28.8292683 L23.1219512,28.8292683 L23.1219512,29.7073171 L22.2439024,29.7073171 Z M50.3414634,10.097561 L51.2195122,10.097561 L51.2195122,10.9756098 L50.3414634,10.9756098 Z M50.3414634,28.8292683 L51.2195122,28.8292683 L51.2195122,29.7073171 L50.3414634,29.7073171 Z M19.902439,3.07317073 L20.7804878,3.07317073 L20.7804878,3.95121951 L19.902439,3.95121951 Z M19.902439,21.804878 L20.7804878,21.804878 L20.7804878,22.6829268 L19.902439,22.6829268 Z M48,3.07317073 L48.8780488,3.07317073 L48.8780488,3.95121951 L48,3.95121951 Z M48,21.804878 L48.8780488,21.804878 L48.8780488,22.6829268 L48,22.6829268 Z M19.902439,12.4390244 L20.7804878,12.4390244 L20.7804878,13.3170732 L19.902439,13.3170732 Z M19.902439,31.1707317 L20.7804878,31.1707317 L20.7804878,32.0487805 L19.902439,32.0487805 Z M48,12.4390244 L48.8780488,12.4390244 L48.8780488,13.3170732 L48,13.3170732 Z M48,31.1707317 L48.8780488,31.1707317 L48.8780488,32.0487805 L48,32.0487805 Z M-3.51219512,0.731707317 L-2.63414634,0.731707317 L-2.63414634,1.6097561 L-3.51219512,1.6097561 Z M-3.51219512,19.4634146 L-2.63414634,19.4634146 L-2.63414634,20.3414634 L-3.51219512,20.3414634 Z M25.4634146,0.731707317 L25.4634146,1.6097561 L24.5853659,1.6097561 L24.5853659,0.731707317 L25.4634146,0.731707317 Z M25.4634146,19.4634146 L25.4634146,20.3414634 L24.5853659,20.3414634 L24.5853659,19.4634146 L25.4634146,19.4634146 Z M-3.51219512,10.097561 L-2.63414634,10.097561 L-2.63414634,10.9756098 L-3.51219512,10.9756098 Z M-3.51219512,28.8292683 L-2.63414634,28.8292683 L-2.63414634,29.7073171 L-3.51219512,29.7073171 Z M25.4634146,10.097561 L25.4634146,10.9756098 L24.5853659,10.9756098 L24.5853659,10.097561 L25.4634146,10.097561 Z M25.4634146,28.8292683 L25.4634146,29.7073171 L24.5853659,29.7073171 L24.5853659,28.8292683 L25.4634146,28.8292683 Z M52.6829268,7.75609756 L53.5609756,7.75609756 L53.5609756,8.63414634 L52.6829268,8.63414634 Z M52.6829268,26.4878049 L53.5609756,26.4878049 L53.5609756,27.3658537 L52.6829268,27.3658537 Z M52.6829268,17.1219512 L53.5609756,17.1219512 L53.5609756,18 L52.6829268,18 Z M52.6829268,35.8536585 L53.5609756,35.8536585 L53.5609756,36.7317073 L52.6829268,36.7317073 Z M-1.17073171,5.41463415 L-0.292682927,5.41463415 L-0.292682927,6.29268293 L-1.17073171,6.29268293 Z M-1.17073171,24.1463415 L-0.292682927,24.1463415 L-0.292682927,25.0243902 L-1.17073171,25.0243902 Z M26.9268293,5.41463415 L27.804878,5.41463415 L27.804878,6.29268293 L26.9268293,6.29268293 Z M26.9268293,24.1463415 L27.804878,24.1463415 L27.804878,25.0243902 L26.9268293,25.0243902 Z M-1.17073171,14.7804878 L-0.292682927,14.7804878 L-0.292682927,15.6585366 L-1.17073171,15.6585366 Z M-1.17073171,33.5121951 L-0.292682927,33.5121951 L-0.292682927,34.3902439 L-1.17073171,34.3902439 Z M26.9268293,14.7804878 L27.804878,14.7804878 L27.804878,15.6585366 L26.9268293,15.6585366 Z M26.9268293,33.5121951 L27.804878,33.5121951 L27.804878,34.3902439 L26.9268293,34.3902439 Z M-1.17073171,7.75609756 L-0.292682927,7.75609756 L-0.292682927,8.63414634 L-1.17073171,8.63414634 Z M-1.17073171,26.4878049 L-0.292682927,26.4878049 L-0.292682927,27.3658537 L-1.17073171,27.3658537 Z M26.9268293,7.75609756 L27.804878,7.75609756 L27.804878,8.63414634 L26.9268293,8.63414634 Z M26.9268293,26.4878049 L27.804878,26.4878049 L27.804878,27.3658537 L26.9268293,27.3658537 Z M-1.17073171,17.1219512 L-0.292682927,17.1219512 L-0.292682927,18 L-1.17073171,18 Z M-1.17073171,35.8536585 L-0.292682927,35.8536585 L-0.292682927,36.7317073 L-1.17073171,36.7317073 Z M26.9268293,17.1219512 L27.804878,17.1219512 L27.804878,18 L26.9268293,18 Z M26.9268293,35.8536585 L27.804878,35.8536585 L27.804878,36.7317073 L26.9268293,36.7317073 Z M3.51219512,0.731707317 L4.3902439,0.731707317 L4.3902439,1.6097561 L3.51219512,1.6097561 Z M3.51219512,19.4634146 L4.3902439,19.4634146 L4.3902439,20.3414634 L3.51219512,20.3414634 Z M31.6097561,0.731707317 L32.4878049,0.731707317 L32.4878049,1.6097561 L31.6097561,1.6097561 Z M31.6097561,19.4634146 L32.4878049,19.4634146 L32.4878049,20.3414634 L31.6097561,20.3414634 Z M3.51219512,10.097561 L4.3902439,10.097561 L4.3902439,10.9756098 L3.51219512,10.9756098 Z M3.51219512,28.8292683 L4.3902439,28.8292683 L4.3902439,29.7073171 L3.51219512,29.7073171 Z M31.6097561,10.097561 L32.4878049,10.097561 L32.4878049,10.9756098 L31.6097561,10.9756098 Z M31.6097561,28.8292683 L32.4878049,28.8292683 L32.4878049,29.7073171 L31.6097561,29.7073171 Z M1.17073171,3.07317073 L2.04878049,3.07317073 L2.04878049,3.95121951 L1.17073171,3.95121951 Z M1.17073171,21.804878 L2.04878049,21.804878 L2.04878049,22.6829268 L1.17073171,22.6829268 Z M29.2682927,3.07317073 L30.1463415,3.07317073 L30.1463415,3.95121951 L29.2682927,3.95121951 Z M29.2682927,21.804878 L30.1463415,21.804878 L30.1463415,22.6829268 L29.2682927,22.6829268 Z M1.17073171,12.4390244 L2.04878049,12.4390244 L2.04878049,13.3170732 L1.17073171,13.3170732 Z M1.17073171,31.1707317 L2.04878049,31.1707317 L2.04878049,32.0487805 L1.17073171,32.0487805 Z M29.2682927,12.4390244 L30.1463415,12.4390244 L30.1463415,13.3170732 L29.2682927,13.3170732 Z M29.2682927,31.1707317 L30.1463415,31.1707317 L30.1463415,32.0487805 L29.2682927,32.0487805 Z M5.85365854,5.41463415 L6.73170732,5.41463415 L6.73170732,6.29268293 L5.85365854,6.29268293 Z M5.85365854,24.1463415 L6.73170732,24.1463415 L6.73170732,25.0243902 L5.85365854,25.0243902 Z M33.9512195,5.41463415 L34.8292683,5.41463415 L34.8292683,6.29268293 L33.9512195,6.29268293 Z M33.9512195,24.1463415 L34.8292683,24.1463415 L34.8292683,25.0243902 L33.9512195,25.0243902 Z M5.85365854,14.7804878 L6.73170732,14.7804878 L6.73170732,15.6585366 L5.85365854,15.6585366 Z M5.85365854,33.5121951 L6.73170732,33.5121951 L6.73170732,34.3902439 L5.85365854,34.3902439 Z M33.9512195,14.7804878 L34.8292683,14.7804878 L34.8292683,15.6585366 L33.9512195,15.6585366 Z M33.9512195,33.5121951 L34.8292683,33.5121951 L34.8292683,34.3902439 L33.9512195,34.3902439 Z M8.19512195,7.75609756 L9.07317073,7.75609756 L9.07317073,8.63414634 L8.19512195,8.63414634 Z M8.19512195,26.4878049 L9.07317073,26.4878049 L9.07317073,27.3658537 L8.19512195,27.3658537 Z M36.2926829,7.75609756 L37.1707317,7.75609756 L37.1707317,8.63414634 L36.2926829,8.63414634 Z M36.2926829,26.4878049 L37.1707317,26.4878049 L37.1707317,27.3658537 L36.2926829,27.3658537 Z M8.19512195,17.1219512 L9.07317073,17.1219512 L9.07317073,18 L8.19512195,18 Z M8.19512195,35.8536585 L9.07317073,35.8536585 L9.07317073,36.7317073 L8.19512195,36.7317073 Z M36.2926829,17.1219512 L37.1707317,17.1219512 L37.1707317,18 L36.2926829,18 Z M36.2926829,35.8536585 L37.1707317,35.8536585 L37.1707317,36.7317073 L36.2926829,36.7317073 Z M10.5365854,0.731707317 L11.4146341,0.731707317 L11.4146341,1.6097561 L10.5365854,1.6097561 Z M10.5365854,19.4634146 L11.4146341,19.4634146 L11.4146341,20.3414634 L10.5365854,20.3414634 Z M38.6341463,0.731707317 L39.5121951,0.731707317 L39.5121951,1.6097561 L38.6341463,1.6097561 Z M38.6341463,19.4634146 L39.5121951,19.4634146 L39.5121951,20.3414634 L38.6341463,20.3414634 Z M10.5365854,10.097561 L11.4146341,10.097561 L11.4146341,10.9756098 L10.5365854,10.9756098 Z M10.5365854,28.8292683 L11.4146341,28.8292683 L11.4146341,29.7073171 L10.5365854,29.7073171 Z M38.6341463,10.097561 L39.5121951,10.097561 L39.5121951,10.9756098 L38.6341463,10.9756098 Z M38.6341463,28.8292683 L39.5121951,28.8292683 L39.5121951,29.7073171 L38.6341463,29.7073171 Z M12.8780488,3.07317073 L13.7560976,3.07317073 L13.7560976,3.95121951 L12.8780488,3.95121951 Z M12.8780488,21.804878 L13.7560976,21.804878 L13.7560976,22.6829268 L12.8780488,22.6829268 Z M40.9756098,3.07317073 L41.8536585,3.07317073 L41.8536585,3.95121951 L40.9756098,3.95121951 Z M40.9756098,21.804878 L41.8536585,21.804878 L41.8536585,22.6829268 L40.9756098,22.6829268 Z M12.8780488,12.4390244 L13.7560976,12.4390244 L13.7560976,13.3170732 L12.8780488,13.3170732 Z M12.8780488,31.1707317 L13.7560976,31.1707317 L13.7560976,32.0487805 L12.8780488,32.0487805 Z M40.9756098,12.4390244 L41.8536585,12.4390244 L41.8536585,13.3170732 L40.9756098,13.3170732 Z M40.9756098,31.1707317 L41.8536585,31.1707317 L41.8536585,32.0487805 L40.9756098,32.0487805 Z M8.19512195,5.41463415 L9.07317073,5.41463415 L9.07317073,6.29268293 L8.19512195,6.29268293 Z M8.19512195,24.1463415 L9.07317073,24.1463415 L9.07317073,25.0243902 L8.19512195,25.0243902 Z M36.2926829,5.41463415 L37.1707317,5.41463415 L37.1707317,6.29268293 L36.2926829,6.29268293 Z M36.2926829,24.1463415 L37.1707317,24.1463415 L37.1707317,25.0243902 L36.2926829,25.0243902 Z M8.19512195,14.7804878 L9.07317073,14.7804878 L9.07317073,15.6585366 L8.19512195,15.6585366 Z M8.19512195,33.5121951 L9.07317073,33.5121951 L9.07317073,34.3902439 L8.19512195,34.3902439 Z M36.2926829,14.7804878 L37.1707317,14.7804878 L37.1707317,15.6585366 L36.2926829,15.6585366 Z M36.2926829,33.5121951 L37.1707317,33.5121951 L37.1707317,34.3902439 L36.2926829,34.3902439 Z M15.2195122,0.731707317 L16.097561,0.731707317 L16.097561,1.6097561 L15.2195122,1.6097561 Z M15.2195122,19.4634146 L16.097561,19.4634146 L16.097561,20.3414634 L15.2195122,20.3414634 Z M43.3170732,0.731707317 L44.195122,0.731707317 L44.195122,1.6097561 L43.3170732,1.6097561 Z M43.3170732,19.4634146 L44.195122,19.4634146 L44.195122,20.3414634 L43.3170732,20.3414634 Z M15.2195122,10.097561 L16.097561,10.097561 L16.097561,10.9756098 L15.2195122,10.9756098 Z M15.2195122,28.8292683 L16.097561,28.8292683 L16.097561,29.7073171 L15.2195122,29.7073171 Z M43.3170732,10.097561 L44.195122,10.097561 L44.195122,10.9756098 L43.3170732,10.9756098 Z M43.3170732,28.8292683 L44.195122,28.8292683 L44.195122,29.7073171 L43.3170732,29.7073171 Z M22.2439024,3.07317073 L23.1219512,3.07317073 L23.1219512,3.95121951 L22.2439024,3.95121951 Z M22.2439024,21.804878 L23.1219512,21.804878 L23.1219512,22.6829268 L22.2439024,22.6829268 Z M50.3414634,3.07317073 L51.2195122,3.07317073 L51.2195122,3.95121951 L50.3414634,3.95121951 Z M50.3414634,21.804878 L51.2195122,21.804878 L51.2195122,22.6829268 L50.3414634,22.6829268 Z M22.2439024,12.4390244 L23.1219512,12.4390244 L23.1219512,13.3170732 L22.2439024,13.3170732 Z M22.2439024,31.1707317 L23.1219512,31.1707317 L23.1219512,32.0487805 L22.2439024,32.0487805 Z M50.3414634,12.4390244 L51.2195122,12.4390244 L51.2195122,13.3170732 L50.3414634,13.3170732 Z M50.3414634,31.1707317 L51.2195122,31.1707317 L51.2195122,32.0487805 L50.3414634,32.0487805 Z M17.5609756,5.41463415 L18.4390244,5.41463415 L18.4390244,6.29268293 L17.5609756,6.29268293 Z M17.5609756,24.1463415 L18.4390244,24.1463415 L18.4390244,25.0243902 L17.5609756,25.0243902 Z M45.6585366,5.41463415 L46.5365854,5.41463415 L46.5365854,6.29268293 L45.6585366,6.29268293 Z M45.6585366,24.1463415 L46.5365854,24.1463415 L46.5365854,25.0243902 L45.6585366,25.0243902 Z M17.5609756,14.7804878 L18.4390244,14.7804878 L18.4390244,15.6585366 L17.5609756,15.6585366 Z M17.5609756,33.5121951 L18.4390244,33.5121951 L18.4390244,34.3902439 L17.5609756,34.3902439 Z M45.6585366,14.7804878 L46.5365854,14.7804878 L46.5365854,15.6585366 L45.6585366,15.6585366 Z M45.6585366,33.5121951 L46.5365854,33.5121951 L46.5365854,34.3902439 L45.6585366,34.3902439 Z M-1.17073171,3.07317073 L-0.292682927,3.07317073 L-0.292682927,3.95121951 L-1.17073171,3.95121951 Z M-1.17073171,21.804878 L-0.292682927,21.804878 L-0.292682927,22.6829268 L-1.17073171,22.6829268 Z M26.9268293,3.07317073 L27.804878,3.07317073 L27.804878,3.95121951 L26.9268293,3.95121951 Z M26.9268293,21.804878 L27.804878,21.804878 L27.804878,22.6829268 L26.9268293,22.6829268 Z M-1.17073171,12.4390244 L-0.292682927,12.4390244 L-0.292682927,13.3170732 L-1.17073171,13.3170732 Z M-1.17073171,31.1707317 L-0.292682927,31.1707317 L-0.292682927,32.0487805 L-1.17073171,32.0487805 Z M26.9268293,12.4390244 L27.804878,12.4390244 L27.804878,13.3170732 L26.9268293,13.3170732 Z M26.9268293,31.1707317 L27.804878,31.1707317 L27.804878,32.0487805 L26.9268293,32.0487805 Z M19.902439,7.75609756 L20.7804878,7.75609756 L20.7804878,8.63414634 L19.902439,8.63414634 Z M19.902439,26.4878049 L20.7804878,26.4878049 L20.7804878,27.3658537 L19.902439,27.3658537 Z M48,7.75609756 L48.8780488,7.75609756 L48.8780488,8.63414634 L48,8.63414634 Z M48,26.4878049 L48.8780488,26.4878049 L48.8780488,27.3658537 L48,27.3658537 Z M19.902439,17.1219512 L20.7804878,17.1219512 L20.7804878,18 L19.902439,18 Z M19.902439,35.8536585 L20.7804878,35.8536585 L20.7804878,36.7317073 L19.902439,36.7317073 Z M48,17.1219512 L48.8780488,17.1219512 L48.8780488,18 L48,18 Z M48,35.8536585 L48.8780488,35.8536585 L48.8780488,36.7317073 L48,36.7317073 Z M17.5609756,7.75609756 L18.4390244,7.75609756 L18.4390244,8.63414634 L17.5609756,8.63414634 Z M17.5609756,26.4878049 L18.4390244,26.4878049 L18.4390244,27.3658537 L17.5609756,27.3658537 Z M45.6585366,7.75609756 L46.5365854,7.75609756 L46.5365854,8.63414634 L45.6585366,8.63414634 Z M45.6585366,26.4878049 L46.5365854,26.4878049 L46.5365854,27.3658537 L45.6585366,27.3658537 Z M17.5609756,17.1219512 L18.4390244,17.1219512 L18.4390244,18 L17.5609756,18 Z M17.5609756,35.8536585 L18.4390244,35.8536585 L18.4390244,36.7317073 L17.5609756,36.7317073 Z M45.6585366,17.1219512 L46.5365854,17.1219512 L46.5365854,18 L45.6585366,18 Z M45.6585366,35.8536585 L46.5365854,35.8536585 L46.5365854,36.7317073 L45.6585366,36.7317073 Z M5.85365854,0.731707317 L6.73170732,0.731707317 L6.73170732,1.6097561 L5.85365854,1.6097561 Z M5.85365854,19.4634146 L6.73170732,19.4634146 L6.73170732,20.3414634 L5.85365854,20.3414634 Z M33.9512195,0.731707317 L34.8292683,0.731707317 L34.8292683,1.6097561 L33.9512195,1.6097561 Z M33.9512195,19.4634146 L34.8292683,19.4634146 L34.8292683,20.3414634 L33.9512195,20.3414634 Z M5.85365854,10.097561 L6.73170732,10.097561 L6.73170732,10.9756098 L5.85365854,10.9756098 Z M5.85365854,28.8292683 L6.73170732,28.8292683 L6.73170732,29.7073171 L5.85365854,29.7073171 Z M33.9512195,10.097561 L34.8292683,10.097561 L34.8292683,10.9756098 L33.9512195,10.9756098 Z M33.9512195,28.8292683 L34.8292683,28.8292683 L34.8292683,29.7073171 L33.9512195,29.7073171 Z M10.5365854,7.75609756 L11.4146341,7.75609756 L11.4146341,8.63414634 L10.5365854,8.63414634 Z M10.5365854,26.4878049 L11.4146341,26.4878049 L11.4146341,27.3658537 L10.5365854,27.3658537 Z M38.6341463,7.75609756 L39.5121951,7.75609756 L39.5121951,8.63414634 L38.6341463,8.63414634 Z M38.6341463,26.4878049 L39.5121951,26.4878049 L39.5121951,27.3658537 L38.6341463,27.3658537 Z M10.5365854,17.1219512 L11.4146341,17.1219512 L11.4146341,18 L10.5365854,18 Z M10.5365854,35.8536585 L11.4146341,35.8536585 L11.4146341,36.7317073 L10.5365854,36.7317073 Z M38.6341463,17.1219512 L39.5121951,17.1219512 L39.5121951,18 L38.6341463,18 Z M38.6341463,35.8536585 L39.5121951,35.8536585 L39.5121951,36.7317073 L38.6341463,36.7317073 Z M5.85365854,7.75609756 L6.73170732,7.75609756 L6.73170732,8.63414634 L5.85365854,8.63414634 Z M5.85365854,26.4878049 L6.73170732,26.4878049 L6.73170732,27.3658537 L5.85365854,27.3658537 Z M33.9512195,7.75609756 L34.8292683,7.75609756 L34.8292683,8.63414634 L33.9512195,8.63414634 Z M33.9512195,26.4878049 L34.8292683,26.4878049 L34.8292683,27.3658537 L33.9512195,27.3658537 Z M5.85365854,17.1219512 L6.73170732,17.1219512 L6.73170732,18 L5.85365854,18 Z M5.85365854,35.8536585 L6.73170732,35.8536585 L6.73170732,36.7317073 L5.85365854,36.7317073 Z M33.9512195,17.1219512 L34.8292683,17.1219512 L34.8292683,18 L33.9512195,18 Z M33.9512195,35.8536585 L34.8292683,35.8536585 L34.8292683,36.7317073 L33.9512195,36.7317073 Z M8.19512195,0.731707317 L9.07317073,0.731707317 L9.07317073,1.6097561 L8.19512195,1.6097561 Z M8.19512195,19.4634146 L9.07317073,19.4634146 L9.07317073,20.3414634 L8.19512195,20.3414634 Z M36.2926829,0.731707317 L37.1707317,0.731707317 L37.1707317,1.6097561 L36.2926829,1.6097561 Z M36.2926829,19.4634146 L37.1707317,19.4634146 L37.1707317,20.3414634 L36.2926829,20.3414634 Z M8.19512195,10.097561 L9.07317073,10.097561 L9.07317073,10.9756098 L8.19512195,10.9756098 Z M8.19512195,28.8292683 L9.07317073,28.8292683 L9.07317073,29.7073171 L8.19512195,29.7073171 Z M36.2926829,10.097561 L37.1707317,10.097561 L37.1707317,10.9756098 L36.2926829,10.9756098 Z M36.2926829,28.8292683 L37.1707317,28.8292683 L37.1707317,29.7073171 L36.2926829,29.7073171 Z M8.19512195,3.07317073 L9.07317073,3.07317073 L9.07317073,3.95121951 L8.19512195,3.95121951 Z M8.19512195,21.804878 L9.07317073,21.804878 L9.07317073,22.6829268 L8.19512195,22.6829268 Z M36.2926829,3.07317073 L37.1707317,3.07317073 L37.1707317,3.95121951 L36.2926829,3.95121951 Z M36.2926829,21.804878 L37.1707317,21.804878 L37.1707317,22.6829268 L36.2926829,22.6829268 Z M8.19512195,12.4390244 L9.07317073,12.4390244 L9.07317073,13.3170732 L8.19512195,13.3170732 Z M8.19512195,31.1707317 L9.07317073,31.1707317 L9.07317073,32.0487805 L8.19512195,32.0487805 Z M36.2926829,12.4390244 L37.1707317,12.4390244 L37.1707317,13.3170732 L36.2926829,13.3170732 Z M36.2926829,31.1707317 L37.1707317,31.1707317 L37.1707317,32.0487805 L36.2926829,32.0487805 Z M10.5365854,5.41463415 L11.4146341,5.41463415 L11.4146341,6.29268293 L10.5365854,6.29268293 Z M10.5365854,24.1463415 L11.4146341,24.1463415 L11.4146341,25.0243902 L10.5365854,25.0243902 Z M38.6341463,5.41463415 L39.5121951,5.41463415 L39.5121951,6.29268293 L38.6341463,6.29268293 Z M38.6341463,24.1463415 L39.5121951,24.1463415 L39.5121951,25.0243902 L38.6341463,25.0243902 Z M10.5365854,14.7804878 L11.4146341,14.7804878 L11.4146341,15.6585366 L10.5365854,15.6585366 Z M10.5365854,33.5121951 L11.4146341,33.5121951 L11.4146341,34.3902439 L10.5365854,34.3902439 Z M38.6341463,14.7804878 L39.5121951,14.7804878 L39.5121951,15.6585366 L38.6341463,15.6585366 Z M38.6341463,33.5121951 L39.5121951,33.5121951 L39.5121951,34.3902439 L38.6341463,34.3902439 Z M19.902439,5.41463415 L20.7804878,5.41463415 L20.7804878,6.29268293 L19.902439,6.29268293 Z M19.902439,24.1463415 L20.7804878,24.1463415 L20.7804878,25.0243902 L19.902439,25.0243902 Z M48,5.41463415 L48.8780488,5.41463415 L48.8780488,6.29268293 L48,6.29268293 Z M48,24.1463415 L48.8780488,24.1463415 L48.8780488,25.0243902 L48,25.0243902 Z M19.902439,14.7804878 L20.7804878,14.7804878 L20.7804878,15.6585366 L19.902439,15.6585366 Z M19.902439,33.5121951 L20.7804878,33.5121951 L20.7804878,34.3902439 L19.902439,34.3902439 Z M48,14.7804878 L48.8780488,14.7804878 L48.8780488,15.6585366 L48,15.6585366 Z M48,33.5121951 L48.8780488,33.5121951 L48.8780488,34.3902439 L48,34.3902439 Z M17.5609756,0.731707317 L18.4390244,0.731707317 L18.4390244,1.6097561 L17.5609756,1.6097561 Z M17.5609756,19.4634146 L18.4390244,19.4634146 L18.4390244,20.3414634 L17.5609756,20.3414634 Z M45.6585366,0.731707317 L46.5365854,0.731707317 L46.5365854,1.6097561 L45.6585366,1.6097561 Z M45.6585366,19.4634146 L46.5365854,19.4634146 L46.5365854,20.3414634 L45.6585366,20.3414634 Z M17.5609756,10.097561 L18.4390244,10.097561 L18.4390244,10.9756098 L17.5609756,10.9756098 Z M17.5609756,28.8292683 L18.4390244,28.8292683 L18.4390244,29.7073171 L17.5609756,29.7073171 Z M45.6585366,10.097561 L46.5365854,10.097561 L46.5365854,10.9756098 L45.6585366,10.9756098 Z M45.6585366,28.8292683 L46.5365854,28.8292683 L46.5365854,29.7073171 L45.6585366,29.7073171 Z M52.6829268,0.731707317 L53.5609756,0.731707317 L53.5609756,1.6097561 L52.6829268,1.6097561 Z M52.6829268,19.4634146 L53.5609756,19.4634146 L53.5609756,20.3414634 L52.6829268,20.3414634 Z M52.6829268,10.097561 L53.5609756,10.097561 L53.5609756,10.9756098 L52.6829268,10.9756098 Z M52.6829268,28.8292683 L53.5609756,28.8292683 L53.5609756,29.7073171 L52.6829268,29.7073171 Z M52.6829268,3.07317073 L53.5609756,3.07317073 L53.5609756,3.95121951 L52.6829268,3.95121951 Z M52.6829268,21.804878 L53.5609756,21.804878 L53.5609756,22.6829268 L52.6829268,22.6829268 Z M52.6829268,12.4390244 L53.5609756,12.4390244 L53.5609756,13.3170732 L52.6829268,13.3170732 Z M52.6829268,31.1707317 L53.5609756,31.1707317 L53.5609756,32.0487805 L52.6829268,32.0487805 Z M-3.51219512,5.41463415 L-2.63414634,5.41463415 L-2.63414634,6.29268293 L-3.51219512,6.29268293 Z M-3.51219512,24.1463415 L-2.63414634,24.1463415 L-2.63414634,25.0243902 L-3.51219512,25.0243902 Z M25.4634146,5.41463415 L25.4634146,6.29268293 L24.5853659,6.29268293 L24.5853659,5.41463415 L25.4634146,5.41463415 Z M25.4634146,24.1463415 L25.4634146,25.0243902 L24.5853659,25.0243902 L24.5853659,24.1463415 L25.4634146,24.1463415 Z M-3.51219512,14.7804878 L-2.63414634,14.7804878 L-2.63414634,15.6585366 L-3.51219512,15.6585366 Z M-3.51219512,33.5121951 L-2.63414634,33.5121951 L-2.63414634,34.3902439 L-3.51219512,34.3902439 Z M25.4634146,14.7804878 L25.4634146,15.6585366 L24.5853659,15.6585366 L24.5853659,14.7804878 L25.4634146,14.7804878 Z M25.4634146,33.5121951 L25.4634146,34.3902439 L24.5853659,34.3902439 L24.5853659,33.5121951 L25.4634146,33.5121951 Z M15.2195122,7.75609756 L16.097561,7.75609756 L16.097561,8.63414634 L15.2195122,8.63414634 Z M15.2195122,26.4878049 L16.097561,26.4878049 L16.097561,27.3658537 L15.2195122,27.3658537 Z M43.3170732,7.75609756 L44.195122,7.75609756 L44.195122,8.63414634 L43.3170732,8.63414634 Z M43.3170732,26.4878049 L44.195122,26.4878049 L44.195122,27.3658537 L43.3170732,27.3658537 Z M15.2195122,17.1219512 L16.097561,17.1219512 L16.097561,18 L15.2195122,18 Z M15.2195122,35.8536585 L16.097561,35.8536585 L16.097561,36.7317073 L15.2195122,36.7317073 Z M43.3170732,17.1219512 L44.195122,17.1219512 L44.195122,18 L43.3170732,18 Z M43.3170732,35.8536585 L44.195122,35.8536585 L44.195122,36.7317073 L43.3170732,36.7317073 Z M1.17073171,0.731707317 L2.04878049,0.731707317 L2.04878049,1.6097561 L1.17073171,1.6097561 Z M1.17073171,19.4634146 L2.04878049,19.4634146 L2.04878049,20.3414634 L1.17073171,20.3414634 Z M29.2682927,0.731707317 L30.1463415,0.731707317 L30.1463415,1.6097561 L29.2682927,1.6097561 Z M29.2682927,19.4634146 L30.1463415,19.4634146 L30.1463415,20.3414634 L29.2682927,20.3414634 Z M1.17073171,10.097561 L2.04878049,10.097561 L2.04878049,10.9756098 L1.17073171,10.9756098 Z M1.17073171,28.8292683 L2.04878049,28.8292683 L2.04878049,29.7073171 L1.17073171,29.7073171 Z M29.2682927,10.097561 L30.1463415,10.097561 L30.1463415,10.9756098 L29.2682927,10.9756098 Z M29.2682927,28.8292683 L30.1463415,28.8292683 L30.1463415,29.7073171 L29.2682927,29.7073171 Z M5.85365854,3.07317073 L6.73170732,3.07317073 L6.73170732,3.95121951 L5.85365854,3.95121951 Z M5.85365854,21.804878 L6.73170732,21.804878 L6.73170732,22.6829268 L5.85365854,22.6829268 Z M33.9512195,3.07317073 L34.8292683,3.07317073 L34.8292683,3.95121951 L33.9512195,3.95121951 Z M33.9512195,21.804878 L34.8292683,21.804878 L34.8292683,22.6829268 L33.9512195,22.6829268 Z M5.85365854,12.4390244 L6.73170732,12.4390244 L6.73170732,13.3170732 L5.85365854,13.3170732 Z M5.85365854,31.1707317 L6.73170732,31.1707317 L6.73170732,32.0487805 L5.85365854,32.0487805 Z M33.9512195,12.4390244 L34.8292683,12.4390244 L34.8292683,13.3170732 L33.9512195,13.3170732 Z M33.9512195,31.1707317 L34.8292683,31.1707317 L34.8292683,32.0487805 L33.9512195,32.0487805 Z M3.51219512,5.41463415 L4.3902439,5.41463415 L4.3902439,6.29268293 L3.51219512,6.29268293 Z M3.51219512,24.1463415 L4.3902439,24.1463415 L4.3902439,25.0243902 L3.51219512,25.0243902 Z M31.6097561,5.41463415 L32.4878049,5.41463415 L32.4878049,6.29268293 L31.6097561,6.29268293 Z M31.6097561,24.1463415 L32.4878049,24.1463415 L32.4878049,25.0243902 L31.6097561,25.0243902 Z M3.51219512,14.7804878 L4.3902439,14.7804878 L4.3902439,15.6585366 L3.51219512,15.6585366 Z M3.51219512,33.5121951 L4.3902439,33.5121951 L4.3902439,34.3902439 L3.51219512,34.3902439 Z M31.6097561,14.7804878 L32.4878049,14.7804878 L32.4878049,15.6585366 L31.6097561,15.6585366 Z M31.6097561,33.5121951 L32.4878049,33.5121951 L32.4878049,34.3902439 L31.6097561,34.3902439 Z M3.51219512,7.75609756 L4.3902439,7.75609756 L4.3902439,8.63414634 L3.51219512,8.63414634 Z M3.51219512,26.4878049 L4.3902439,26.4878049 L4.3902439,27.3658537 L3.51219512,27.3658537 Z M31.6097561,7.75609756 L32.4878049,7.75609756 L32.4878049,8.63414634 L31.6097561,8.63414634 Z M31.6097561,26.4878049 L32.4878049,26.4878049 L32.4878049,27.3658537 L31.6097561,27.3658537 Z M3.51219512,17.1219512 L4.3902439,17.1219512 L4.3902439,18 L3.51219512,18 Z M3.51219512,35.8536585 L4.3902439,35.8536585 L4.3902439,36.7317073 L3.51219512,36.7317073 Z M31.6097561,17.1219512 L32.4878049,17.1219512 L32.4878049,18 L31.6097561,18 Z M31.6097561,35.8536585 L32.4878049,35.8536585 L32.4878049,36.7317073 L31.6097561,36.7317073 Z M12.8780488,0.731707317 L13.7560976,0.731707317 L13.7560976,1.6097561 L12.8780488,1.6097561 Z M12.8780488,19.4634146 L13.7560976,19.4634146 L13.7560976,20.3414634 L12.8780488,20.3414634 Z M40.9756098,0.731707317 L41.8536585,0.731707317 L41.8536585,1.6097561 L40.9756098,1.6097561 Z M40.9756098,19.4634146 L41.8536585,19.4634146 L41.8536585,20.3414634 L40.9756098,20.3414634 Z M12.8780488,10.097561 L13.7560976,10.097561 L13.7560976,10.9756098 L12.8780488,10.9756098 Z M12.8780488,28.8292683 L13.7560976,28.8292683 L13.7560976,29.7073171 L12.8780488,29.7073171 Z M40.9756098,10.097561 L41.8536585,10.097561 L41.8536585,10.9756098 L40.9756098,10.9756098 Z M40.9756098,28.8292683 L41.8536585,28.8292683 L41.8536585,29.7073171 L40.9756098,29.7073171 Z M15.2195122,3.07317073 L16.097561,3.07317073 L16.097561,3.95121951 L15.2195122,3.95121951 Z M15.2195122,21.804878 L16.097561,21.804878 L16.097561,22.6829268 L15.2195122,22.6829268 Z M43.3170732,3.07317073 L44.195122,3.07317073 L44.195122,3.95121951 L43.3170732,3.95121951 Z M43.3170732,21.804878 L44.195122,21.804878 L44.195122,22.6829268 L43.3170732,22.6829268 Z M15.2195122,12.4390244 L16.097561,12.4390244 L16.097561,13.3170732 L15.2195122,13.3170732 Z M15.2195122,31.1707317 L16.097561,31.1707317 L16.097561,32.0487805 L15.2195122,32.0487805 Z M43.3170732,12.4390244 L44.195122,12.4390244 L44.195122,13.3170732 L43.3170732,13.3170732 Z M43.3170732,31.1707317 L44.195122,31.1707317 L44.195122,32.0487805 L43.3170732,32.0487805 Z M12.8780488,5.41463415 L13.7560976,5.41463415 L13.7560976,6.29268293 L12.8780488,6.29268293 Z M12.8780488,24.1463415 L13.7560976,24.1463415 L13.7560976,25.0243902 L12.8780488,25.0243902 Z M40.9756098,5.41463415 L41.8536585,5.41463415 L41.8536585,6.29268293 L40.9756098,6.29268293 Z M40.9756098,24.1463415 L41.8536585,24.1463415 L41.8536585,25.0243902 L40.9756098,25.0243902 Z M12.8780488,14.7804878 L13.7560976,14.7804878 L13.7560976,15.6585366 L12.8780488,15.6585366 Z M12.8780488,33.5121951 L13.7560976,33.5121951 L13.7560976,34.3902439 L12.8780488,34.3902439 Z M40.9756098,14.7804878 L41.8536585,14.7804878 L41.8536585,15.6585366 L40.9756098,15.6585366 Z M40.9756098,33.5121951 L41.8536585,33.5121951 L41.8536585,34.3902439 L40.9756098,34.3902439 Z M52.6829268,5.41463415 L53.5609756,5.41463415 L53.5609756,6.29268293 L52.6829268,6.29268293 Z M52.6829268,24.1463415 L53.5609756,24.1463415 L53.5609756,25.0243902 L52.6829268,25.0243902 Z M52.6829268,14.7804878 L53.5609756,14.7804878 L53.5609756,15.6585366 L52.6829268,15.6585366 Z M52.6829268,33.5121951 L53.5609756,33.5121951 L53.5609756,34.3902439 L52.6829268,34.3902439 Z M19.902439,0.731707317 L20.7804878,0.731707317 L20.7804878,1.6097561 L19.902439,1.6097561 Z M19.902439,19.4634146 L20.7804878,19.4634146 L20.7804878,20.3414634 L19.902439,20.3414634 Z M48,0.731707317 L48.8780488,0.731707317 L48.8780488,1.6097561 L48,1.6097561 Z M48,19.4634146 L48.8780488,19.4634146 L48.8780488,20.3414634 L48,20.3414634 Z M19.902439,10.097561 L20.7804878,10.097561 L20.7804878,10.9756098 L19.902439,10.9756098 Z M19.902439,28.8292683 L20.7804878,28.8292683 L20.7804878,29.7073171 L19.902439,29.7073171 Z M48,10.097561 L48.8780488,10.097561 L48.8780488,10.9756098 L48,10.9756098 Z M48,28.8292683 L48.8780488,28.8292683 L48.8780488,29.7073171 L48,29.7073171 Z M17.5609756,3.07317073 L18.4390244,3.07317073 L18.4390244,3.95121951 L17.5609756,3.95121951 Z M17.5609756,21.804878 L18.4390244,21.804878 L18.4390244,22.6829268 L17.5609756,22.6829268 Z M45.6585366,3.07317073 L46.5365854,3.07317073 L46.5365854,3.95121951 L45.6585366,3.95121951 Z M45.6585366,21.804878 L46.5365854,21.804878 L46.5365854,22.6829268 L45.6585366,22.6829268 Z M17.5609756,12.4390244 L18.4390244,12.4390244 L18.4390244,13.3170732 L17.5609756,13.3170732 Z M17.5609756,31.1707317 L18.4390244,31.1707317 L18.4390244,32.0487805 L17.5609756,32.0487805 Z M45.6585366,12.4390244 L46.5365854,12.4390244 L46.5365854,13.3170732 L45.6585366,13.3170732 Z M45.6585366,31.1707317 L46.5365854,31.1707317 L46.5365854,32.0487805 L45.6585366,32.0487805 Z" fill="url(#linearGradient-18)" opacity="0.146094913" style="mix-blend-mode: overlay;"></path>
                </g>
                <path d="M36.8780488,35.1219512 C44.6359745,35.1219512 51.592794,36.6810164 56.3147811,39.1474531 C58.4683027,41.5639433 59.7073171,44.4018201 59.7073171,47.4146341 C59.7073171,49.6060126 59.0518265,51.704842 57.8655489,53.6165029 C53.1950795,56.5950707 45.5353757,58.5365854 36.8780488,58.5365854 C28.2194819,58.5365854 20.5588239,56.5945145 15.8893506,53.6164072 C14.7040421,51.7041088 14.0487805,49.6056299 14.0487805,47.4146341 C14.0487805,44.4018201 15.2877948,41.5639433 17.4417495,39.146896 C22.1636548,36.6809377 29.1203189,35.1219512 36.8780488,35.1219512 Z" id="形状结合" fill="url(#linearGradient-19)" opacity="0.319238572"></path>
                <g id="形状结合">
                    <use fill="black" fill-opacity="1" filter="url(#filter-21)" xlink:href="#path-20"></use>
                    <use fill="#03FBFF" fill-rule="evenodd" xlink:href="#path-20"></use>
                </g>
                <g id="形状结合" transform="translate(50.878, 44.8049) scale(-1, 1) translate(-50.878, -44.8049)">
                    <use fill="black" fill-opacity="1" filter="url(#filter-23)" xlink:href="#path-22"></use>
                    <use fill="#03FBFF" fill-rule="evenodd" xlink:href="#path-22"></use>
                </g>
                <g id="形状结合备份">
                    <use fill="black" fill-opacity="1" filter="url(#filter-25)" xlink:href="#path-24"></use>
                    <use fill="#03F3FF" fill-rule="evenodd" xlink:href="#path-24"></use>
                </g>
                <g id="椭圆形">
                    <use fill="black" fill-opacity="1" filter="url(#filter-28)" xlink:href="#path-27"></use>
                    <use fill="url(#radialGradient-26)" fill-rule="evenodd" xlink:href="#path-27"></use>
                </g>
                <path d="M36.5853659,3.51219512 C37.4444727,3.51219512 38.1482553,4.19454428 38.1748173,5.0532404 L38.5708019,17.854638 C38.6047206,18.9511641 37.7433072,19.8675706 36.6467812,19.9014894 C36.6263155,19.9021224 36.6058413,19.902439 36.5853659,19.902439 C35.4883153,19.902439 34.5989802,19.0131039 34.5989802,17.9160534 C34.5989802,17.8955779 34.5992968,17.8751037 34.5999298,17.854638 L34.9959144,5.0532404 C35.0224764,4.19454428 35.726259,3.51219512 36.5853659,3.51219512 Z" id="矩形" fill="url(#linearGradient-29)"></path>
                <g id="椭圆形">
                    <use fill="url(#linearGradient-30)" fill-rule="evenodd" xlink:href="#path-31"></use>
                    <use fill="black" fill-opacity="1" filter="url(#filter-32)" xlink:href="#path-31"></use>
                </g>
            </g>
        </g>
    </g>
</svg>