<?xml version="1.0" encoding="UTF-8"?>
<svg width="16px" height="16px" viewBox="0 0 16 16" version="1.1" xmlns="http://www.w3.org/2000/svg" xmlns:xlink="http://www.w3.org/1999/xlink">
    <title>一站式部署知识库-16</title>
    <defs>
        <linearGradient x1="78.8829594%" y1="2.47467514%" x2="28.5592066%" y2="100%" id="linearGradient-1">
            <stop stop-color="#7C12E3" offset="0%"></stop>
            <stop stop-color="#0098FF" offset="100%"></stop>
        </linearGradient>
        <rect id="path-2" x="0" y="0" width="14" height="14" rx="3.1901995"></rect>
        <filter x="-10.7%" y="-10.7%" width="121.4%" height="121.4%" filterUnits="objectBoundingBox" id="filter-3">
            <feOffset dx="0" dy="0" in="SourceAlpha" result="shadowOffsetOuter1"></feOffset>
            <feGaussianBlur stdDeviation="0.5" in="shadowOffsetOuter1" result="shadowBlurOuter1"></feGaussianBlur>
            <feColorMatrix values="0 0 0 0 0   0 0 0 0 0   0 0 0 0 0  0 0 0 0.2 0" type="matrix" in="shadowBlurOuter1"></feColorMatrix>
        </filter>
        <linearGradient x1="9.93655111%" y1="50.2765282%" x2="101.403016%" y2="50.2765282%" id="linearGradient-4">
            <stop stop-color="#27108C" offset="0%"></stop>
            <stop stop-color="#481AB4" offset="44.0542368%"></stop>
            <stop stop-color="#2B0D90" offset="99.9011487%"></stop>
        </linearGradient>
        <linearGradient x1="50%" y1="0%" x2="50%" y2="100%" id="linearGradient-5">
            <stop stop-color="#FFFFFF" offset="0%"></stop>
            <stop stop-color="#BED2FF" offset="100%"></stop>
        </linearGradient>
        <path d="M0.512195122,4.26829268 C0.22578183,4.20732044 0,3.58115688 0,2.81707317 C0,2.01558677 0.248427364,1.36585366 0.554878049,1.36585366 L0.512,1.37185366 L1.36585366,1.36585366 L1.36585366,4.26829268 L0.512195122,4.26829268 Z" id="path-6"></path>
        <filter x="-36.6%" y="-17.2%" width="173.2%" height="134.5%" filterUnits="objectBoundingBox" id="filter-7">
            <feGaussianBlur stdDeviation="0.5" in="SourceAlpha" result="shadowBlurInner1"></feGaussianBlur>
            <feOffset dx="0" dy="0" in="shadowBlurInner1" result="shadowOffsetInner1"></feOffset>
            <feComposite in="shadowOffsetInner1" in2="SourceAlpha" operator="arithmetic" k2="-1" k3="1" result="shadowInnerInner1"></feComposite>
            <feColorMatrix values="0 0 0 0 0.484672732   0 0 0 0 0.660750155   0 0 0 0 1  0 0 0 1 0" type="matrix" in="shadowInnerInner1" result="shadowMatrixInner1"></feColorMatrix>
            <feGaussianBlur stdDeviation="0.5" in="SourceAlpha" result="shadowBlurInner2"></feGaussianBlur>
            <feOffset dx="0" dy="0" in="shadowBlurInner2" result="shadowOffsetInner2"></feOffset>
            <feComposite in="shadowOffsetInner2" in2="SourceAlpha" operator="arithmetic" k2="-1" k3="1" result="shadowInnerInner2"></feComposite>
            <feColorMatrix values="0 0 0 0 0.769546568   0 0 0 0 0.74022842   0 0 0 0 1  0 0 0 0.5 0" type="matrix" in="shadowInnerInner2" result="shadowMatrixInner2"></feColorMatrix>
            <feMerge>
                <feMergeNode in="shadowMatrixInner1"></feMergeNode>
                <feMergeNode in="shadowMatrixInner2"></feMergeNode>
            </feMerge>
        </filter>
        <path d="M0.512195122,4.26829268 C0.22578183,4.20732044 0,3.58115688 0,2.81707317 C0,2.01558677 0.248427364,1.36585366 0.554878049,1.36585366 L0.512,1.37185366 L1.36585366,1.36585366 L1.36585366,4.26829268 L0.512195122,4.26829268 Z" id="path-8"></path>
        <filter x="-36.6%" y="-17.2%" width="173.2%" height="134.5%" filterUnits="objectBoundingBox" id="filter-9">
            <feGaussianBlur stdDeviation="0.5" in="SourceAlpha" result="shadowBlurInner1"></feGaussianBlur>
            <feOffset dx="0" dy="0" in="shadowBlurInner1" result="shadowOffsetInner1"></feOffset>
            <feComposite in="shadowOffsetInner1" in2="SourceAlpha" operator="arithmetic" k2="-1" k3="1" result="shadowInnerInner1"></feComposite>
            <feColorMatrix values="0 0 0 0 0.484672732   0 0 0 0 0.660750155   0 0 0 0 1  0 0 0 1 0" type="matrix" in="shadowInnerInner1" result="shadowMatrixInner1"></feColorMatrix>
            <feGaussianBlur stdDeviation="0.5" in="SourceAlpha" result="shadowBlurInner2"></feGaussianBlur>
            <feOffset dx="0" dy="0" in="shadowBlurInner2" result="shadowOffsetInner2"></feOffset>
            <feComposite in="shadowOffsetInner2" in2="SourceAlpha" operator="arithmetic" k2="-1" k3="1" result="shadowInnerInner2"></feComposite>
            <feColorMatrix values="0 0 0 0 0.769546568   0 0 0 0 0.74022842   0 0 0 0 1  0 0 0 0.5 0" type="matrix" in="shadowInnerInner2" result="shadowMatrixInner2"></feColorMatrix>
            <feMerge>
                <feMergeNode in="shadowMatrixInner1"></feMergeNode>
                <feMergeNode in="shadowMatrixInner2"></feMergeNode>
            </feMerge>
        </filter>
        <linearGradient x1="50%" y1="0%" x2="50%" y2="100%" id="linearGradient-10">
            <stop stop-color="#FFFFFF" offset="0%"></stop>
            <stop stop-color="#BED2FF" offset="100%"></stop>
        </linearGradient>
        <path d="M5.33536585,10.7560976 C8.83336334,10.7560976 9.98780488,8.78778844 9.98780488,6.3597561 C9.98780488,3.93172375 7.90483698,1.96341463 5.33536585,1.96341463 C2.76589473,1.96341463 0.682926829,3.93172375 0.682926829,6.3597561 C0.682926829,8.78778844 1.83736837,10.7560976 5.33536585,10.7560976 Z" id="path-11"></path>
        <filter x="-5.4%" y="-5.7%" width="110.7%" height="111.4%" filterUnits="objectBoundingBox" id="filter-12">
            <feGaussianBlur stdDeviation="0.5" in="SourceAlpha" result="shadowBlurInner1"></feGaussianBlur>
            <feOffset dx="0" dy="0" in="shadowBlurInner1" result="shadowOffsetInner1"></feOffset>
            <feComposite in="shadowOffsetInner1" in2="SourceAlpha" operator="arithmetic" k2="-1" k3="1" result="shadowInnerInner1"></feComposite>
            <feColorMatrix values="0 0 0 0 0.484672732   0 0 0 0 0.660750155   0 0 0 0 1  0 0 0 1 0" type="matrix" in="shadowInnerInner1" result="shadowMatrixInner1"></feColorMatrix>
            <feGaussianBlur stdDeviation="0.5" in="SourceAlpha" result="shadowBlurInner2"></feGaussianBlur>
            <feOffset dx="0" dy="0" in="shadowBlurInner2" result="shadowOffsetInner2"></feOffset>
            <feComposite in="shadowOffsetInner2" in2="SourceAlpha" operator="arithmetic" k2="-1" k3="1" result="shadowInnerInner2"></feComposite>
            <feColorMatrix values="0 0 0 0 0.769546568   0 0 0 0 0.74022842   0 0 0 0 1  0 0 0 0.5 0" type="matrix" in="shadowInnerInner2" result="shadowMatrixInner2"></feColorMatrix>
            <feMerge>
                <feMergeNode in="shadowMatrixInner1"></feMergeNode>
                <feMergeNode in="shadowMatrixInner2"></feMergeNode>
            </feMerge>
        </filter>
        <linearGradient x1="50%" y1="-11.2122118%" x2="50%" y2="100%" id="linearGradient-13">
            <stop stop-color="#7C12E3" offset="0%"></stop>
            <stop stop-color="#0098FF" offset="100%"></stop>
        </linearGradient>
        <path d="M5.37804878,3.92682927 C7.59392296,3.92682927 9.3902439,5.26451508 9.3902439,6.91463415 C9.3902439,8.56475322 7.59392296,9.90243902 5.37804878,9.90243902 C3.1621746,9.90243902 1.36585366,8.56475322 1.36585366,6.91463415 C1.36585366,5.26451508 3.1621746,3.92682927 5.37804878,3.92682927 Z" id="path-14"></path>
        <filter x="0.0%" y="0.0%" width="100.0%" height="100.0%" filterUnits="objectBoundingBox" id="filter-15">
            <feOffset dx="0" dy="0" in="SourceAlpha" result="shadowOffsetOuter1"></feOffset>
            <feColorMatrix values="0 0 0 0 0   0 0 0 0 0.871231951   0 0 0 0 0.994777514  0 0 0 1 0" type="matrix" in="shadowOffsetOuter1" result="shadowMatrixOuter1"></feColorMatrix>
            <feOffset dx="0" dy="0" in="SourceAlpha" result="shadowOffsetOuter2"></feOffset>
            <feColorMatrix values="0 0 0 0 0.352941176   0 0 0 0 0.215686275   0 0 0 0 0.921568627  0 0 0 0.216040551 0" type="matrix" in="shadowOffsetOuter2" result="shadowMatrixOuter2"></feColorMatrix>
            <feMerge>
                <feMergeNode in="shadowMatrixOuter1"></feMergeNode>
                <feMergeNode in="shadowMatrixOuter2"></feMergeNode>
            </feMerge>
        </filter>
        <filter x="-6.2%" y="-8.4%" width="112.5%" height="116.7%" filterUnits="objectBoundingBox" id="filter-16">
            <feGaussianBlur stdDeviation="0.5" in="SourceAlpha" result="shadowBlurInner1"></feGaussianBlur>
            <feOffset dx="0" dy="0" in="shadowBlurInner1" result="shadowOffsetInner1"></feOffset>
            <feComposite in="shadowOffsetInner1" in2="SourceAlpha" operator="arithmetic" k2="-1" k3="1" result="shadowInnerInner1"></feComposite>
            <feColorMatrix values="0 0 0 0 0.0117647059   0 0 0 0 0.984313725   0 0 0 0 1  0 0 0 0.756351071 0" type="matrix" in="shadowInnerInner1" result="shadowMatrixInner1"></feColorMatrix>
            <feGaussianBlur stdDeviation="0.5" in="SourceAlpha" result="shadowBlurInner2"></feGaussianBlur>
            <feOffset dx="0" dy="0" in="shadowBlurInner2" result="shadowOffsetInner2"></feOffset>
            <feComposite in="shadowOffsetInner2" in2="SourceAlpha" operator="arithmetic" k2="-1" k3="1" result="shadowInnerInner2"></feComposite>
            <feColorMatrix values="0 0 0 0 0.0117647059   0 0 0 0 0.984313725   0 0 0 0 1  0 0 0 0.756351071 0" type="matrix" in="shadowInnerInner2" result="shadowMatrixInner2"></feColorMatrix>
            <feMerge>
                <feMergeNode in="shadowMatrixInner1"></feMergeNode>
                <feMergeNode in="shadowMatrixInner2"></feMergeNode>
            </feMerge>
        </filter>
        <linearGradient x1="51.6193161%" y1="-10.2570099%" x2="51.6193161%" y2="107.239133%" id="linearGradient-17">
            <stop stop-color="#0E012D" offset="0%"></stop>
            <stop stop-color="#00042E" offset="100%"></stop>
        </linearGradient>
        <linearGradient x1="50%" y1="0%" x2="50%" y2="100%" id="linearGradient-18">
            <stop stop-color="#BB00FF" offset="0%"></stop>
            <stop stop-color="#00FFFA" offset="100%"></stop>
        </linearGradient>
        <linearGradient x1="50%" y1="0%" x2="50%" y2="78.2185974%" id="linearGradient-19">
            <stop stop-color="#EAD5FF" offset="0%"></stop>
            <stop stop-color="#D4EEFF" stop-opacity="0" offset="100%"></stop>
        </linearGradient>
        <path d="M7.27371545,5.97154472 L7.27388211,6.47254665 L8.29471545,6.47254472 L8.29471545,6.97154472 L6.54471545,6.97154472 L6.54471545,5.97154472 L7.27371545,5.97154472 Z" id="path-20"></path>
        <filter x="-85.7%" y="-150.0%" width="271.4%" height="400.0%" filterUnits="objectBoundingBox" id="filter-21">
            <feOffset dx="0" dy="0" in="SourceAlpha" result="shadowOffsetOuter1"></feOffset>
            <feGaussianBlur stdDeviation="0.5" in="shadowOffsetOuter1" result="shadowBlurOuter1"></feGaussianBlur>
            <feColorMatrix values="0 0 0 0 0.104669636   0 0 0 0 0.957365221   0 0 0 0 1  0 0 0 1 0" type="matrix" in="shadowBlurOuter1" result="shadowMatrixOuter1"></feColorMatrix>
            <feOffset dx="0" dy="0" in="SourceAlpha" result="shadowOffsetOuter2"></feOffset>
            <feGaussianBlur stdDeviation="0.5" in="shadowOffsetOuter2" result="shadowBlurOuter2"></feGaussianBlur>
            <feColorMatrix values="0 0 0 0 0.104669636   0 0 0 0 0.957365221   0 0 0 0 1  0 0 0 1 0" type="matrix" in="shadowBlurOuter2" result="shadowMatrixOuter2"></feColorMatrix>
            <feMerge>
                <feMergeNode in="shadowMatrixOuter1"></feMergeNode>
                <feMergeNode in="shadowMatrixOuter2"></feMergeNode>
            </feMerge>
        </filter>
        <path d="M3.27371545,5.97154472 L3.27388211,6.47254665 L4.29471545,6.47254472 L4.29471545,6.97154472 L2.54471545,6.97154472 L2.54471545,5.97154472 L3.27371545,5.97154472 Z" id="path-22"></path>
        <filter x="-85.7%" y="-150.0%" width="271.4%" height="400.0%" filterUnits="objectBoundingBox" id="filter-23">
            <feOffset dx="0" dy="0" in="SourceAlpha" result="shadowOffsetOuter1"></feOffset>
            <feGaussianBlur stdDeviation="0.5" in="shadowOffsetOuter1" result="shadowBlurOuter1"></feGaussianBlur>
            <feColorMatrix values="0 0 0 0 0.104669636   0 0 0 0 0.957365221   0 0 0 0 1  0 0 0 1 0" type="matrix" in="shadowBlurOuter1" result="shadowMatrixOuter1"></feColorMatrix>
            <feOffset dx="0" dy="0" in="SourceAlpha" result="shadowOffsetOuter2"></feOffset>
            <feGaussianBlur stdDeviation="0.5" in="shadowOffsetOuter2" result="shadowBlurOuter2"></feGaussianBlur>
            <feColorMatrix values="0 0 0 0 0.104669636   0 0 0 0 0.957365221   0 0 0 0 1  0 0 0 1 0" type="matrix" in="shadowBlurOuter2" result="shadowMatrixOuter2"></feColorMatrix>
            <feMerge>
                <feMergeNode in="shadowMatrixOuter1"></feMergeNode>
                <feMergeNode in="shadowMatrixOuter2"></feMergeNode>
            </feMerge>
        </filter>
        <path d="M6.38132748,7.2469406 C6.32264113,7.74329026 5.90042672,8.12827063 5.38829532,8.12827063 C4.87616393,8.12827063 4.45394952,7.74329026 4.39526316,7.2469406 Z" id="path-24"></path>
        <filter x="-75.5%" y="-170.2%" width="251.1%" height="440.4%" filterUnits="objectBoundingBox" id="filter-25">
            <feOffset dx="0" dy="0" in="SourceAlpha" result="shadowOffsetOuter1"></feOffset>
            <feGaussianBlur stdDeviation="0.5" in="shadowOffsetOuter1" result="shadowBlurOuter1"></feGaussianBlur>
            <feColorMatrix values="0 0 0 0 0.104669636   0 0 0 0 0.957365221   0 0 0 0 1  0 0 0 1 0" type="matrix" in="shadowBlurOuter1" result="shadowMatrixOuter1"></feColorMatrix>
            <feOffset dx="0" dy="0" in="SourceAlpha" result="shadowOffsetOuter2"></feOffset>
            <feGaussianBlur stdDeviation="0.5" in="shadowOffsetOuter2" result="shadowBlurOuter2"></feGaussianBlur>
            <feColorMatrix values="0 0 0 0 0.104669636   0 0 0 0 0.957365221   0 0 0 0 1  0 0 0 1 0" type="matrix" in="shadowBlurOuter2" result="shadowMatrixOuter2"></feColorMatrix>
            <feMerge>
                <feMergeNode in="shadowMatrixOuter1"></feMergeNode>
                <feMergeNode in="shadowMatrixOuter2"></feMergeNode>
            </feMerge>
        </filter>
        <radialGradient cx="50%" cy="46.6323471%" fx="50%" fy="46.6323471%" r="95.5322757%" gradientTransform="translate(0.5, 0.4663), scale(0.5385, 1), rotate(2.1861), scale(1, 0.6234), translate(-0.5, -0.4663)" id="radialGradient-26">
            <stop stop-color="#00192A" offset="0%"></stop>
            <stop stop-color="#230045" offset="100%"></stop>
        </radialGradient>
        <ellipse id="path-27" cx="5.33536585" cy="2.77439024" rx="1" ry="1"></ellipse>
        <filter x="0.0%" y="0.0%" width="100.0%" height="100.0%" filterUnits="objectBoundingBox" id="filter-28">
            <feOffset dx="0" dy="0" in="SourceAlpha" result="shadowOffsetOuter1"></feOffset>
            <feColorMatrix values="0 0 0 0 0.109803922   0 0 0 0 0.0156862745   0 0 0 0 0.250980392  0 0 0 0.156125369 0" type="matrix" in="shadowOffsetOuter1"></feColorMatrix>
        </filter>
        <linearGradient x1="9.93655111%" y1="50.2765282%" x2="101.403016%" y2="50.2765282%" id="linearGradient-29">
            <stop stop-color="#27108C" offset="0%"></stop>
            <stop stop-color="#481AB4" offset="44.0542368%"></stop>
            <stop stop-color="#2B0D90" offset="99.9011487%"></stop>
        </linearGradient>
        <linearGradient x1="50%" y1="0%" x2="50%" y2="100%" id="linearGradient-30">
            <stop stop-color="#F0E9FF" offset="0%"></stop>
            <stop stop-color="#BED2FF" offset="100%"></stop>
        </linearGradient>
        <circle id="path-31" cx="5.33536585" cy="0.981707317" r="1"></circle>
        <filter x="-25.5%" y="-25.5%" width="150.9%" height="150.9%" filterUnits="objectBoundingBox" id="filter-32">
            <feGaussianBlur stdDeviation="0.5" in="SourceAlpha" result="shadowBlurInner1"></feGaussianBlur>
            <feOffset dx="0" dy="0" in="shadowBlurInner1" result="shadowOffsetInner1"></feOffset>
            <feComposite in="shadowOffsetInner1" in2="SourceAlpha" operator="arithmetic" k2="-1" k3="1" result="shadowInnerInner1"></feComposite>
            <feColorMatrix values="0 0 0 0 0.484672732   0 0 0 0 0.660750155   0 0 0 0 1  0 0 0 1 0" type="matrix" in="shadowInnerInner1" result="shadowMatrixInner1"></feColorMatrix>
            <feGaussianBlur stdDeviation="0.5" in="SourceAlpha" result="shadowBlurInner2"></feGaussianBlur>
            <feOffset dx="0" dy="0" in="shadowBlurInner2" result="shadowOffsetInner2"></feOffset>
            <feComposite in="shadowOffsetInner2" in2="SourceAlpha" operator="arithmetic" k2="-1" k3="1" result="shadowInnerInner2"></feComposite>
            <feColorMatrix values="0 0 0 0 0.769546568   0 0 0 0 0.74022842   0 0 0 0 1  0 0 0 0.5 0" type="matrix" in="shadowInnerInner2" result="shadowMatrixInner2"></feColorMatrix>
            <feMerge>
                <feMergeNode in="shadowMatrixInner1"></feMergeNode>
                <feMergeNode in="shadowMatrixInner2"></feMergeNode>
            </feMerge>
        </filter>
    </defs>
    <g id="一站式部署知识库-16" stroke="none" stroke-width="1" fill="none" fill-rule="evenodd">
        <g id="编组-33备份-5" transform="translate(1, 1)">
            <g id="蒙版">
                <use fill="black" fill-opacity="1" filter="url(#filter-3)" xlink:href="#path-2"></use>
                <use fill="url(#linearGradient-1)" fill-rule="evenodd" xlink:href="#path-2"></use>
            </g>
            <g id="编组" transform="translate(1.622, 1.7785)">
                <g id="编组-29" transform="translate(0, 3.6707)">
                    <path d="M0.81097561,0 C0.900394864,-1.64260505e-17 0.973578877,0.0711549482 0.976092428,0.160538867 L1.01839122,1.66471848 C1.02161253,1.77927096 0.931360787,1.87474547 0.81680831,1.87796679 C0.814864557,1.87802145 0.812920131,1.87804878 0.81097561,1.87804878 C0.696377849,1.87804878 0.603478008,1.78514894 0.603478008,1.67055118 C0.603478008,1.66860666 0.603505342,1.66666223 0.603560002,1.66471848 L0.645858792,0.160538867 C0.648372343,0.0711549482 0.721556356,1.64260505e-17 0.81097561,0 Z" id="矩形" fill="url(#linearGradient-4)"></path>
                    <g id="形状结合">
                        <use fill="url(#linearGradient-5)" fill-rule="evenodd" xlink:href="#path-6"></use>
                        <use fill="black" fill-opacity="1" filter="url(#filter-7)" xlink:href="#path-6"></use>
                    </g>
                </g>
                <g id="编组-29" transform="translate(10.0732, 5.8049) scale(-1, 1) translate(-10.0732, -5.8049)translate(9.3902, 3.6707)">
                    <path d="M0.81097561,0 C0.900394864,-1.64260505e-17 0.973578877,0.0711549482 0.976092428,0.160538867 L1.01839122,1.66471848 C1.02161253,1.77927096 0.931360787,1.87474547 0.81680831,1.87796679 C0.814864557,1.87802145 0.812920131,1.87804878 0.81097561,1.87804878 C0.696377849,1.87804878 0.603478008,1.78514894 0.603478008,1.67055118 C0.603478008,1.66860666 0.603505342,1.66666223 0.603560002,1.66471848 L0.645858792,0.160538867 C0.648372343,0.0711549482 0.721556356,1.64260505e-17 0.81097561,0 Z" id="矩形" fill="url(#linearGradient-4)"></path>
                    <g id="形状结合">
                        <use fill="url(#linearGradient-5)" fill-rule="evenodd" xlink:href="#path-8"></use>
                        <use fill="black" fill-opacity="1" filter="url(#filter-9)" xlink:href="#path-8"></use>
                    </g>
                </g>
                <g id="椭圆形">
                    <use fill="url(#linearGradient-10)" fill-rule="evenodd" xlink:href="#path-11"></use>
                    <use fill="black" fill-opacity="1" filter="url(#filter-12)" xlink:href="#path-11"></use>
                </g>
                <g id="路径">
                    <use fill="black" fill-opacity="1" filter="url(#filter-15)" xlink:href="#path-14"></use>
                    <use fill="url(#linearGradient-13)" fill-rule="evenodd" xlink:href="#path-14"></use>
                    <use fill="black" fill-opacity="1" filter="url(#filter-16)" xlink:href="#path-14"></use>
                </g>
                <g id="形状结合" transform="translate(1.622, 4.1829)">
                    <path d="M3.75609756,0 C1.66803159,0 0,1.24215118 0,2.73170732 C0,4.22126345 1.66803159,5.46341463 3.75609756,5.46341463 C5.84416353,5.46341463 7.51219512,4.22126345 7.51219512,2.73170732 C7.51219512,1.24215118 5.84416353,0 3.75609756,0 Z" id="蒙版" fill="url(#linearGradient-17)"></path>
                    <path d="M-0.170731707,0.106707317 L-7.99360578e-15,0.106707317 L-7.99360578e-15,0.277439024 L-0.170731707,0.277439024 Z M-0.170731707,2.83841463 L-0.0426829268,2.83841463 L-0.0426829268,2.96646341 L-0.170731707,2.96646341 Z M3.92682927,0.106707317 L4.05487805,0.106707317 L4.05487805,0.234756098 L3.92682927,0.234756098 Z M3.92682927,2.83841463 L4.05487805,2.83841463 L4.05487805,2.96646341 L3.92682927,2.96646341 Z M-0.170731707,1.47256098 L-0.0426829268,1.47256098 L-0.0426829268,1.60060976 L-0.170731707,1.60060976 Z M-0.170731707,4.20426829 L-0.0426829268,4.20426829 L-0.0426829268,4.33231707 L-0.170731707,4.33231707 Z M3.92682927,1.47256098 L4.05487805,1.47256098 L4.05487805,1.60060976 L3.92682927,1.60060976 Z M3.92682927,4.20426829 L4.05487805,4.20426829 L4.05487805,4.33231707 L3.92682927,4.33231707 Z M-0.512195122,0.448170732 L-0.384146341,0.448170732 L-0.384146341,0.576219512 L-0.512195122,0.576219512 Z M-0.512195122,3.17987805 L-0.384146341,3.17987805 L-0.384146341,3.30792683 L-0.512195122,3.30792683 Z M-0.512195122,1.81402439 L-0.384146341,1.81402439 L-0.384146341,1.94207317 L-0.512195122,1.94207317 Z M-0.512195122,4.54573171 L-0.384146341,4.54573171 L-0.384146341,4.67378049 L-0.512195122,4.67378049 Z M3.24390244,1.13109756 L3.37195122,1.13109756 L3.37195122,1.25914634 L3.24390244,1.25914634 Z M3.24390244,3.86280488 L3.37195122,3.86280488 L3.37195122,3.99085366 L3.24390244,3.99085366 Z M7.34146341,1.13109756 L7.4695122,1.13109756 L7.4695122,1.25914634 L7.34146341,1.25914634 Z M7.34146341,3.86280488 L7.4695122,3.86280488 L7.4695122,3.99085366 L7.34146341,3.99085366 Z M3.24390244,2.49695122 L3.37195122,2.49695122 L3.37195122,2.625 L3.24390244,2.625 Z M3.24390244,5.22865854 L3.37195122,5.22865854 L3.37195122,5.35670732 L3.24390244,5.35670732 Z M7.34146341,2.49695122 L7.4695122,2.49695122 L7.4695122,2.625 L7.34146341,2.625 Z M7.34146341,5.22865854 L7.4695122,5.22865854 L7.4695122,5.35670732 L7.34146341,5.35670732 Z M-0.512195122,1.13109756 L-0.384146341,1.13109756 L-0.384146341,1.25914634 L-0.512195122,1.25914634 Z M-0.512195122,3.86280488 L-0.384146341,3.86280488 L-0.384146341,3.99085366 L-0.512195122,3.99085366 Z M-0.512195122,2.49695122 L-0.384146341,2.49695122 L-0.384146341,2.625 L-0.512195122,2.625 Z M-0.512195122,5.22865854 L-0.384146341,5.22865854 L-0.384146341,5.35670732 L-0.512195122,5.35670732 Z M1.87804878,1.13109756 L2.00609756,1.13109756 L2.00609756,1.25914634 L1.87804878,1.25914634 Z M1.87804878,3.86280488 L2.00609756,3.86280488 L2.00609756,3.99085366 L1.87804878,3.99085366 Z M5.97560976,1.13109756 L6.10365854,1.13109756 L6.10365854,1.25914634 L5.97560976,1.25914634 Z M5.97560976,3.86280488 L6.10365854,3.86280488 L6.10365854,3.99085366 L5.97560976,3.99085366 Z M1.87804878,2.49695122 L2.00609756,2.49695122 L2.00609756,2.625 L1.87804878,2.625 Z M1.87804878,5.22865854 L2.00609756,5.22865854 L2.00609756,5.35670732 L1.87804878,5.35670732 Z M5.97560976,2.49695122 L6.10365854,2.49695122 L6.10365854,2.625 L5.97560976,2.625 Z M5.97560976,5.22865854 L6.10365854,5.22865854 L6.10365854,5.35670732 L5.97560976,5.35670732 Z M0.512195122,0.448170732 L0.640243902,0.448170732 L0.640243902,0.576219512 L0.512195122,0.576219512 Z M0.512195122,3.17987805 L0.640243902,3.17987805 L0.640243902,3.30792683 L0.512195122,3.30792683 Z M4.6097561,0.448170732 L4.73780488,0.448170732 L4.73780488,0.576219512 L4.6097561,0.576219512 Z M4.6097561,3.17987805 L4.73780488,3.17987805 L4.73780488,3.30792683 L4.6097561,3.30792683 Z M0.512195122,1.81402439 L0.640243902,1.81402439 L0.640243902,1.94207317 L0.512195122,1.94207317 Z M0.512195122,4.54573171 L0.640243902,4.54573171 L0.640243902,4.67378049 L0.512195122,4.67378049 Z M4.6097561,1.81402439 L4.73780488,1.81402439 L4.73780488,1.94207317 L4.6097561,1.94207317 Z M4.6097561,4.54573171 L4.73780488,4.54573171 L4.73780488,4.67378049 L4.6097561,4.67378049 Z M0.170731707,0.789634146 L0.298780488,0.789634146 L0.298780488,0.917682927 L0.170731707,0.917682927 Z M0.170731707,3.52134146 L0.298780488,3.52134146 L0.298780488,3.64939024 L0.170731707,3.64939024 Z M4.26829268,0.789634146 L4.39634146,0.789634146 L4.39634146,0.917682927 L4.26829268,0.917682927 Z M4.26829268,3.52134146 L4.39634146,3.52134146 L4.39634146,3.64939024 L4.26829268,3.64939024 Z M0.170731707,2.1554878 L0.298780488,2.1554878 L0.298780488,2.28353659 L0.170731707,2.28353659 Z M0.170731707,4.88719512 L0.298780488,4.88719512 L0.298780488,5.0152439 L0.170731707,5.0152439 Z M4.26829268,2.1554878 L4.39634146,2.1554878 L4.39634146,2.28353659 L4.26829268,2.28353659 Z M4.26829268,4.88719512 L4.39634146,4.88719512 L4.39634146,5.0152439 L4.26829268,5.0152439 Z M0.170731707,1.13109756 L0.298780488,1.13109756 L0.298780488,1.25914634 L0.170731707,1.25914634 Z M0.170731707,3.86280488 L0.298780488,3.86280488 L0.298780488,3.99085366 L0.170731707,3.99085366 Z M4.26829268,1.13109756 L4.39634146,1.13109756 L4.39634146,1.25914634 L4.26829268,1.25914634 Z M4.26829268,3.86280488 L4.39634146,3.86280488 L4.39634146,3.99085366 L4.26829268,3.99085366 Z M0.170731707,2.49695122 L0.298780488,2.49695122 L0.298780488,2.625 L0.170731707,2.625 Z M0.170731707,5.22865854 L0.298780488,5.22865854 L0.298780488,5.35670732 L0.170731707,5.35670732 Z M4.26829268,2.49695122 L4.39634146,2.49695122 L4.39634146,2.625 L4.26829268,2.625 Z M4.26829268,5.22865854 L4.39634146,5.22865854 L4.39634146,5.35670732 L4.26829268,5.35670732 Z M1.53658537,0.448170732 L1.66463415,0.448170732 L1.66463415,0.576219512 L1.53658537,0.576219512 Z M1.53658537,3.17987805 L1.66463415,3.17987805 L1.66463415,3.30792683 L1.53658537,3.30792683 Z M5.63414634,0.448170732 L5.76219512,0.448170732 L5.76219512,0.576219512 L5.63414634,0.576219512 Z M5.63414634,3.17987805 L5.76219512,3.17987805 L5.76219512,3.30792683 L5.63414634,3.30792683 Z M1.53658537,1.81402439 L1.66463415,1.81402439 L1.66463415,1.94207317 L1.53658537,1.94207317 Z M1.53658537,4.54573171 L1.66463415,4.54573171 L1.66463415,4.67378049 L1.53658537,4.67378049 Z M5.63414634,1.81402439 L5.76219512,1.81402439 L5.76219512,1.94207317 L5.63414634,1.94207317 Z M5.63414634,4.54573171 L5.76219512,4.54573171 L5.76219512,4.67378049 L5.63414634,4.67378049 Z M2.2195122,0.789634146 L2.34756098,0.789634146 L2.34756098,0.917682927 L2.2195122,0.917682927 Z M2.2195122,3.52134146 L2.34756098,3.52134146 L2.34756098,3.64939024 L2.2195122,3.64939024 Z M6.31707317,0.789634146 L6.44512195,0.789634146 L6.44512195,0.917682927 L6.31707317,0.917682927 Z M6.31707317,3.52134146 L6.44512195,3.52134146 L6.44512195,3.64939024 L6.31707317,3.64939024 Z M2.2195122,2.1554878 L2.34756098,2.1554878 L2.34756098,2.28353659 L2.2195122,2.28353659 Z M2.2195122,4.88719512 L2.34756098,4.88719512 L2.34756098,5.0152439 L2.2195122,5.0152439 Z M6.31707317,2.1554878 L6.44512195,2.1554878 L6.44512195,2.28353659 L6.31707317,2.28353659 Z M6.31707317,4.88719512 L6.44512195,4.88719512 L6.44512195,5.0152439 L6.31707317,5.0152439 Z M3.24390244,0.789634146 L3.37195122,0.789634146 L3.37195122,0.917682927 L3.24390244,0.917682927 Z M3.24390244,3.52134146 L3.37195122,3.52134146 L3.37195122,3.64939024 L3.24390244,3.64939024 Z M7.34146341,0.789634146 L7.4695122,0.789634146 L7.4695122,0.917682927 L7.34146341,0.917682927 Z M7.34146341,3.52134146 L7.4695122,3.52134146 L7.4695122,3.64939024 L7.34146341,3.64939024 Z M3.24390244,2.1554878 L3.37195122,2.1554878 L3.37195122,2.28353659 L3.24390244,2.28353659 Z M3.24390244,4.88719512 L3.37195122,4.88719512 L3.37195122,5.0152439 L3.24390244,5.0152439 Z M7.34146341,2.1554878 L7.4695122,2.1554878 L7.4695122,2.28353659 L7.34146341,2.28353659 Z M7.34146341,4.88719512 L7.4695122,4.88719512 L7.4695122,5.0152439 L7.34146341,5.0152439 Z M3.24390244,0.106707317 L3.37195122,0.106707317 L3.37195122,0.234756098 L3.24390244,0.234756098 Z M3.24390244,2.83841463 L3.37195122,2.83841463 L3.37195122,2.96646341 L3.24390244,2.96646341 Z M7.34146341,0.106707317 L7.4695122,0.106707317 L7.4695122,0.234756098 L7.34146341,0.234756098 Z M7.34146341,2.83841463 L7.4695122,2.83841463 L7.4695122,2.96646341 L7.34146341,2.96646341 Z M3.24390244,1.47256098 L3.37195122,1.47256098 L3.37195122,1.60060976 L3.24390244,1.60060976 Z M3.24390244,4.20426829 L3.37195122,4.20426829 L3.37195122,4.33231707 L3.24390244,4.33231707 Z M7.34146341,1.47256098 L7.4695122,1.47256098 L7.4695122,1.60060976 L7.34146341,1.60060976 Z M7.34146341,4.20426829 L7.4695122,4.20426829 L7.4695122,4.33231707 L7.34146341,4.33231707 Z M2.90243902,0.448170732 L3.0304878,0.448170732 L3.0304878,0.576219512 L2.90243902,0.576219512 Z M2.90243902,3.17987805 L3.0304878,3.17987805 L3.0304878,3.30792683 L2.90243902,3.30792683 Z M7,0.448170732 L7.12804878,0.448170732 L7.12804878,0.576219512 L7,0.576219512 Z M7,3.17987805 L7.12804878,3.17987805 L7.12804878,3.30792683 L7,3.30792683 Z M2.90243902,1.81402439 L3.0304878,1.81402439 L3.0304878,1.94207317 L2.90243902,1.94207317 Z M2.90243902,4.54573171 L3.0304878,4.54573171 L3.0304878,4.67378049 L2.90243902,4.67378049 Z M7,1.81402439 L7.12804878,1.81402439 L7.12804878,1.94207317 L7,1.94207317 Z M7,4.54573171 L7.12804878,4.54573171 L7.12804878,4.67378049 L7,4.67378049 Z M-0.512195122,2.83841463 L-0.384146341,2.83841463 L-0.384146341,2.96646341 L-0.512195122,2.96646341 Z M-0.512195122,1.47256098 L-0.384146341,1.47256098 L-0.384146341,1.60060976 L-0.512195122,1.60060976 Z M-0.512195122,4.20426829 L-0.384146341,4.20426829 L-0.384146341,4.33231707 L-0.512195122,4.33231707 Z M7.68292683,1.13109756 L7.81097561,1.13109756 L7.81097561,1.25914634 L7.68292683,1.25914634 Z M7.68292683,3.86280488 L7.81097561,3.86280488 L7.81097561,3.99085366 L7.68292683,3.99085366 Z M7.68292683,2.49695122 L7.81097561,2.49695122 L7.81097561,2.625 L7.68292683,2.625 Z M7.68292683,5.22865854 L7.81097561,5.22865854 L7.81097561,5.35670732 L7.68292683,5.35670732 Z M-0.170731707,0.789634146 L-0.0426829268,0.789634146 L-0.0426829268,0.917682927 L-0.170731707,0.917682927 Z M-0.170731707,3.52134146 L-0.0426829268,3.52134146 L-0.0426829268,3.64939024 L-0.170731707,3.64939024 Z M3.92682927,0.789634146 L4.05487805,0.789634146 L4.05487805,0.917682927 L3.92682927,0.917682927 Z M3.92682927,3.52134146 L4.05487805,3.52134146 L4.05487805,3.64939024 L3.92682927,3.64939024 Z M-0.170731707,2.1554878 L-0.0426829268,2.1554878 L-0.0426829268,2.28353659 L-0.170731707,2.28353659 Z M-0.170731707,4.88719512 L-0.0426829268,4.88719512 L-0.0426829268,5.0152439 L-0.170731707,5.0152439 Z M3.92682927,2.1554878 L4.05487805,2.1554878 L4.05487805,2.28353659 L3.92682927,2.28353659 Z M3.92682927,4.88719512 L4.05487805,4.88719512 L4.05487805,5.0152439 L3.92682927,5.0152439 Z M-0.170731707,1.13109756 L-0.0426829268,1.13109756 L-0.0426829268,1.25914634 L-0.170731707,1.25914634 Z M-0.170731707,3.86280488 L-0.0426829268,3.86280488 L-0.0426829268,3.99085366 L-0.170731707,3.99085366 Z M3.92682927,1.13109756 L4.05487805,1.13109756 L4.05487805,1.25914634 L3.92682927,1.25914634 Z M3.92682927,3.86280488 L4.05487805,3.86280488 L4.05487805,3.99085366 L3.92682927,3.99085366 Z M-0.170731707,2.49695122 L-0.0426829268,2.49695122 L-0.0426829268,2.625 L-0.170731707,2.625 Z M-0.170731707,5.22865854 L-0.0426829268,5.22865854 L-0.0426829268,5.35670732 L-0.170731707,5.35670732 Z M3.92682927,2.49695122 L4.05487805,2.49695122 L4.05487805,2.625 L3.92682927,2.625 Z M3.92682927,5.22865854 L4.05487805,5.22865854 L4.05487805,5.35670732 L3.92682927,5.35670732 Z M0.512195122,0.106707317 L0.640243902,0.106707317 L0.640243902,0.234756098 L0.512195122,0.234756098 Z M0.512195122,2.83841463 L0.640243902,2.83841463 L0.640243902,2.96646341 L0.512195122,2.96646341 Z M4.6097561,0.106707317 L4.73780488,0.106707317 L4.73780488,0.234756098 L4.6097561,0.234756098 Z M4.6097561,2.83841463 L4.73780488,2.83841463 L4.73780488,2.96646341 L4.6097561,2.96646341 Z M0.512195122,1.47256098 L0.640243902,1.47256098 L0.640243902,1.60060976 L0.512195122,1.60060976 Z M0.512195122,4.20426829 L0.640243902,4.20426829 L0.640243902,4.33231707 L0.512195122,4.33231707 Z M4.6097561,1.47256098 L4.73780488,1.47256098 L4.73780488,1.60060976 L4.6097561,1.60060976 Z M4.6097561,4.20426829 L4.73780488,4.20426829 L4.73780488,4.33231707 L4.6097561,4.33231707 Z M0.170731707,0.448170732 L0.298780488,0.448170732 L0.298780488,0.576219512 L0.170731707,0.576219512 Z M0.170731707,3.17987805 L0.298780488,3.17987805 L0.298780488,3.30792683 L0.170731707,3.30792683 Z M4.26829268,0.448170732 L4.39634146,0.448170732 L4.39634146,0.576219512 L4.26829268,0.576219512 Z M4.26829268,3.17987805 L4.39634146,3.17987805 L4.39634146,3.30792683 L4.26829268,3.30792683 Z M0.170731707,1.81402439 L0.298780488,1.81402439 L0.298780488,1.94207317 L0.170731707,1.94207317 Z M0.170731707,4.54573171 L0.298780488,4.54573171 L0.298780488,4.67378049 L0.170731707,4.67378049 Z M4.26829268,1.81402439 L4.39634146,1.81402439 L4.39634146,1.94207317 L4.26829268,1.94207317 Z M4.26829268,4.54573171 L4.39634146,4.54573171 L4.39634146,4.67378049 L4.26829268,4.67378049 Z M0.853658537,0.789634146 L0.981707317,0.789634146 L0.981707317,0.917682927 L0.853658537,0.917682927 Z M0.853658537,3.52134146 L0.981707317,3.52134146 L0.981707317,3.64939024 L0.853658537,3.64939024 Z M4.95121951,0.789634146 L5.07926829,0.789634146 L5.07926829,0.917682927 L4.95121951,0.917682927 Z M4.95121951,3.52134146 L5.07926829,3.52134146 L5.07926829,3.64939024 L4.95121951,3.64939024 Z M0.853658537,2.1554878 L0.981707317,2.1554878 L0.981707317,2.28353659 L0.853658537,2.28353659 Z M0.853658537,4.88719512 L0.981707317,4.88719512 L0.981707317,5.0152439 L0.853658537,5.0152439 Z M4.95121951,2.1554878 L5.07926829,2.1554878 L5.07926829,2.28353659 L4.95121951,2.28353659 Z M4.95121951,4.88719512 L5.07926829,4.88719512 L5.07926829,5.0152439 L4.95121951,5.0152439 Z M1.19512195,1.13109756 L1.32317073,1.13109756 L1.32317073,1.25914634 L1.19512195,1.25914634 Z M1.19512195,3.86280488 L1.32317073,3.86280488 L1.32317073,3.99085366 L1.19512195,3.99085366 Z M5.29268293,1.13109756 L5.42073171,1.13109756 L5.42073171,1.25914634 L5.29268293,1.25914634 Z M5.29268293,3.86280488 L5.42073171,3.86280488 L5.42073171,3.99085366 L5.29268293,3.99085366 Z M1.19512195,2.49695122 L1.32317073,2.49695122 L1.32317073,2.625 L1.19512195,2.625 Z M1.19512195,5.22865854 L1.32317073,5.22865854 L1.32317073,5.35670732 L1.19512195,5.35670732 Z M5.29268293,2.49695122 L5.42073171,2.49695122 L5.42073171,2.625 L5.29268293,2.625 Z M5.29268293,5.22865854 L5.42073171,5.22865854 L5.42073171,5.35670732 L5.29268293,5.35670732 Z M1.53658537,0.106707317 L1.66463415,0.106707317 L1.66463415,0.234756098 L1.53658537,0.234756098 Z M1.53658537,2.83841463 L1.66463415,2.83841463 L1.66463415,2.96646341 L1.53658537,2.96646341 Z M5.63414634,0.106707317 L5.76219512,0.106707317 L5.76219512,0.234756098 L5.63414634,0.234756098 Z M5.63414634,2.83841463 L5.76219512,2.83841463 L5.76219512,2.96646341 L5.63414634,2.96646341 Z M1.53658537,1.47256098 L1.66463415,1.47256098 L1.66463415,1.60060976 L1.53658537,1.60060976 Z M1.53658537,4.20426829 L1.66463415,4.20426829 L1.66463415,4.33231707 L1.53658537,4.33231707 Z M5.63414634,1.47256098 L5.76219512,1.47256098 L5.76219512,1.60060976 L5.63414634,1.60060976 Z M5.63414634,4.20426829 L5.76219512,4.20426829 L5.76219512,4.33231707 L5.63414634,4.33231707 Z M1.87804878,0.448170732 L2.00609756,0.448170732 L2.00609756,0.576219512 L1.87804878,0.576219512 Z M1.87804878,3.17987805 L2.00609756,3.17987805 L2.00609756,3.30792683 L1.87804878,3.30792683 Z M5.97560976,0.448170732 L6.10365854,0.448170732 L6.10365854,0.576219512 L5.97560976,0.576219512 Z M5.97560976,3.17987805 L6.10365854,3.17987805 L6.10365854,3.30792683 L5.97560976,3.30792683 Z M1.87804878,1.81402439 L2.00609756,1.81402439 L2.00609756,1.94207317 L1.87804878,1.94207317 Z M1.87804878,4.54573171 L2.00609756,4.54573171 L2.00609756,4.67378049 L1.87804878,4.67378049 Z M5.97560976,1.81402439 L6.10365854,1.81402439 L6.10365854,1.94207317 L5.97560976,1.94207317 Z M5.97560976,4.54573171 L6.10365854,4.54573171 L6.10365854,4.67378049 L5.97560976,4.67378049 Z M1.19512195,0.789634146 L1.32317073,0.789634146 L1.32317073,0.917682927 L1.19512195,0.917682927 Z M1.19512195,3.52134146 L1.32317073,3.52134146 L1.32317073,3.64939024 L1.19512195,3.64939024 Z M5.29268293,0.789634146 L5.42073171,0.789634146 L5.42073171,0.917682927 L5.29268293,0.917682927 Z M5.29268293,3.52134146 L5.42073171,3.52134146 L5.42073171,3.64939024 L5.29268293,3.64939024 Z M1.19512195,2.1554878 L1.32317073,2.1554878 L1.32317073,2.28353659 L1.19512195,2.28353659 Z M1.19512195,4.88719512 L1.32317073,4.88719512 L1.32317073,5.0152439 L1.19512195,5.0152439 Z M5.29268293,2.1554878 L5.42073171,2.1554878 L5.42073171,2.28353659 L5.29268293,2.28353659 Z M5.29268293,4.88719512 L5.42073171,4.88719512 L5.42073171,5.0152439 L5.29268293,5.0152439 Z M2.2195122,0.106707317 L2.34756098,0.106707317 L2.34756098,0.234756098 L2.2195122,0.234756098 Z M2.2195122,2.83841463 L2.34756098,2.83841463 L2.34756098,2.96646341 L2.2195122,2.96646341 Z M6.31707317,0.106707317 L6.44512195,0.106707317 L6.44512195,0.234756098 L6.31707317,0.234756098 Z M6.31707317,2.83841463 L6.44512195,2.83841463 L6.44512195,2.96646341 L6.31707317,2.96646341 Z M2.2195122,1.47256098 L2.34756098,1.47256098 L2.34756098,1.60060976 L2.2195122,1.60060976 Z M2.2195122,4.20426829 L2.34756098,4.20426829 L2.34756098,4.33231707 L2.2195122,4.33231707 Z M6.31707317,1.47256098 L6.44512195,1.47256098 L6.44512195,1.60060976 L6.31707317,1.60060976 Z M6.31707317,4.20426829 L6.44512195,4.20426829 L6.44512195,4.33231707 L6.31707317,4.33231707 Z M3.24390244,0.448170732 L3.37195122,0.448170732 L3.37195122,0.576219512 L3.24390244,0.576219512 Z M3.24390244,3.17987805 L3.37195122,3.17987805 L3.37195122,3.30792683 L3.24390244,3.30792683 Z M7.34146341,0.448170732 L7.4695122,0.448170732 L7.4695122,0.576219512 L7.34146341,0.576219512 Z M7.34146341,3.17987805 L7.4695122,3.17987805 L7.4695122,3.30792683 L7.34146341,3.30792683 Z M3.24390244,1.81402439 L3.37195122,1.81402439 L3.37195122,1.94207317 L3.24390244,1.94207317 Z M3.24390244,4.54573171 L3.37195122,4.54573171 L3.37195122,4.67378049 L3.24390244,4.67378049 Z M7.34146341,1.81402439 L7.4695122,1.81402439 L7.4695122,1.94207317 L7.34146341,1.94207317 Z M7.34146341,4.54573171 L7.4695122,4.54573171 L7.4695122,4.67378049 L7.34146341,4.67378049 Z M2.56097561,0.789634146 L2.68902439,0.789634146 L2.68902439,0.917682927 L2.56097561,0.917682927 Z M2.56097561,3.52134146 L2.68902439,3.52134146 L2.68902439,3.64939024 L2.56097561,3.64939024 Z M6.65853659,0.789634146 L6.78658537,0.789634146 L6.78658537,0.917682927 L6.65853659,0.917682927 Z M6.65853659,3.52134146 L6.78658537,3.52134146 L6.78658537,3.64939024 L6.65853659,3.64939024 Z M2.56097561,2.1554878 L2.68902439,2.1554878 L2.68902439,2.28353659 L2.56097561,2.28353659 Z M2.56097561,4.88719512 L2.68902439,4.88719512 L2.68902439,5.0152439 L2.56097561,5.0152439 Z M6.65853659,2.1554878 L6.78658537,2.1554878 L6.78658537,2.28353659 L6.65853659,2.28353659 Z M6.65853659,4.88719512 L6.78658537,4.88719512 L6.78658537,5.0152439 L6.65853659,5.0152439 Z M-0.170731707,0.448170732 L-0.0426829268,0.448170732 L-0.0426829268,0.576219512 L-0.170731707,0.576219512 Z M-0.170731707,3.17987805 L-0.0426829268,3.17987805 L-0.0426829268,3.30792683 L-0.170731707,3.30792683 Z M3.92682927,0.448170732 L4.05487805,0.448170732 L4.05487805,0.576219512 L3.92682927,0.576219512 Z M3.92682927,3.17987805 L4.05487805,3.17987805 L4.05487805,3.30792683 L3.92682927,3.30792683 Z M-0.170731707,1.81402439 L-0.0426829268,1.81402439 L-0.0426829268,1.94207317 L-0.170731707,1.94207317 Z M-0.170731707,4.54573171 L-0.0426829268,4.54573171 L-0.0426829268,4.67378049 L-0.170731707,4.67378049 Z M3.92682927,1.81402439 L4.05487805,1.81402439 L4.05487805,1.94207317 L3.92682927,1.94207317 Z M3.92682927,4.54573171 L4.05487805,4.54573171 L4.05487805,4.67378049 L3.92682927,4.67378049 Z M2.90243902,1.13109756 L3.0304878,1.13109756 L3.0304878,1.25914634 L2.90243902,1.25914634 Z M2.90243902,3.86280488 L3.0304878,3.86280488 L3.0304878,3.99085366 L2.90243902,3.99085366 Z M7,1.13109756 L7.12804878,1.13109756 L7.12804878,1.25914634 L7,1.25914634 Z M7,3.86280488 L7.12804878,3.86280488 L7.12804878,3.99085366 L7,3.99085366 Z M2.90243902,2.49695122 L3.0304878,2.49695122 L3.0304878,2.625 L2.90243902,2.625 Z M2.90243902,5.22865854 L3.0304878,5.22865854 L3.0304878,5.35670732 L2.90243902,5.35670732 Z M7,2.49695122 L7.12804878,2.49695122 L7.12804878,2.625 L7,2.625 Z M7,5.22865854 L7.12804878,5.22865854 L7.12804878,5.35670732 L7,5.35670732 Z M2.56097561,1.13109756 L2.68902439,1.13109756 L2.68902439,1.25914634 L2.56097561,1.25914634 Z M2.56097561,3.86280488 L2.68902439,3.86280488 L2.68902439,3.99085366 L2.56097561,3.99085366 Z M6.65853659,1.13109756 L6.78658537,1.13109756 L6.78658537,1.25914634 L6.65853659,1.25914634 Z M6.65853659,3.86280488 L6.78658537,3.86280488 L6.78658537,3.99085366 L6.65853659,3.99085366 Z M2.56097561,2.49695122 L2.68902439,2.49695122 L2.68902439,2.625 L2.56097561,2.625 Z M2.56097561,5.22865854 L2.68902439,5.22865854 L2.68902439,5.35670732 L2.56097561,5.35670732 Z M6.65853659,2.49695122 L6.78658537,2.49695122 L6.78658537,2.625 L6.65853659,2.625 Z M6.65853659,5.22865854 L6.78658537,5.22865854 L6.78658537,5.35670732 L6.65853659,5.35670732 Z M0.853658537,0.106707317 L0.981707317,0.106707317 L0.981707317,0.234756098 L0.853658537,0.234756098 Z M0.853658537,2.83841463 L0.981707317,2.83841463 L0.981707317,2.96646341 L0.853658537,2.96646341 Z M4.95121951,0.106707317 L5.07926829,0.106707317 L5.07926829,0.234756098 L4.95121951,0.234756098 Z M4.95121951,2.83841463 L5.07926829,2.83841463 L5.07926829,2.96646341 L4.95121951,2.96646341 Z M0.853658537,1.47256098 L0.981707317,1.47256098 L0.981707317,1.60060976 L0.853658537,1.60060976 Z M0.853658537,4.20426829 L0.981707317,4.20426829 L0.981707317,4.33231707 L0.853658537,4.33231707 Z M4.95121951,1.47256098 L5.07926829,1.47256098 L5.07926829,1.60060976 L4.95121951,1.60060976 Z M4.95121951,4.20426829 L5.07926829,4.20426829 L5.07926829,4.33231707 L4.95121951,4.33231707 Z M1.53658537,1.13109756 L1.66463415,1.13109756 L1.66463415,1.25914634 L1.53658537,1.25914634 Z M1.53658537,3.86280488 L1.66463415,3.86280488 L1.66463415,3.99085366 L1.53658537,3.99085366 Z M5.63414634,1.13109756 L5.76219512,1.13109756 L5.76219512,1.25914634 L5.63414634,1.25914634 Z M5.63414634,3.86280488 L5.76219512,3.86280488 L5.76219512,3.99085366 L5.63414634,3.99085366 Z M1.53658537,2.49695122 L1.66463415,2.49695122 L1.66463415,2.625 L1.53658537,2.625 Z M1.53658537,5.22865854 L1.66463415,5.22865854 L1.66463415,5.35670732 L1.53658537,5.35670732 Z M5.63414634,2.49695122 L5.76219512,2.49695122 L5.76219512,2.625 L5.63414634,2.625 Z M5.63414634,5.22865854 L5.76219512,5.22865854 L5.76219512,5.35670732 L5.63414634,5.35670732 Z M0.853658537,1.13109756 L0.981707317,1.13109756 L0.981707317,1.25914634 L0.853658537,1.25914634 Z M0.853658537,3.86280488 L0.981707317,3.86280488 L0.981707317,3.99085366 L0.853658537,3.99085366 Z M4.95121951,1.13109756 L5.07926829,1.13109756 L5.07926829,1.25914634 L4.95121951,1.25914634 Z M4.95121951,3.86280488 L5.07926829,3.86280488 L5.07926829,3.99085366 L4.95121951,3.99085366 Z M0.853658537,2.49695122 L0.981707317,2.49695122 L0.981707317,2.625 L0.853658537,2.625 Z M0.853658537,5.22865854 L0.981707317,5.22865854 L0.981707317,5.35670732 L0.853658537,5.35670732 Z M4.95121951,2.49695122 L5.07926829,2.49695122 L5.07926829,2.625 L4.95121951,2.625 Z M4.95121951,5.22865854 L5.07926829,5.22865854 L5.07926829,5.35670732 L4.95121951,5.35670732 Z M1.19512195,0.106707317 L1.32317073,0.106707317 L1.32317073,0.234756098 L1.19512195,0.234756098 Z M1.19512195,2.83841463 L1.32317073,2.83841463 L1.32317073,2.96646341 L1.19512195,2.96646341 Z M5.29268293,0.106707317 L5.42073171,0.106707317 L5.42073171,0.234756098 L5.29268293,0.234756098 Z M5.29268293,2.83841463 L5.42073171,2.83841463 L5.42073171,2.96646341 L5.29268293,2.96646341 Z M1.19512195,1.47256098 L1.32317073,1.47256098 L1.32317073,1.60060976 L1.19512195,1.60060976 Z M1.19512195,4.20426829 L1.32317073,4.20426829 L1.32317073,4.33231707 L1.19512195,4.33231707 Z M5.29268293,1.47256098 L5.42073171,1.47256098 L5.42073171,1.60060976 L5.29268293,1.60060976 Z M5.29268293,4.20426829 L5.42073171,4.20426829 L5.42073171,4.33231707 L5.29268293,4.33231707 Z M1.19512195,0.448170732 L1.32317073,0.448170732 L1.32317073,0.576219512 L1.19512195,0.576219512 Z M1.19512195,3.17987805 L1.32317073,3.17987805 L1.32317073,3.30792683 L1.19512195,3.30792683 Z M5.29268293,0.448170732 L5.42073171,0.448170732 L5.42073171,0.576219512 L5.29268293,0.576219512 Z M5.29268293,3.17987805 L5.42073171,3.17987805 L5.42073171,3.30792683 L5.29268293,3.30792683 Z M1.19512195,1.81402439 L1.32317073,1.81402439 L1.32317073,1.94207317 L1.19512195,1.94207317 Z M1.19512195,4.54573171 L1.32317073,4.54573171 L1.32317073,4.67378049 L1.19512195,4.67378049 Z M5.29268293,1.81402439 L5.42073171,1.81402439 L5.42073171,1.94207317 L5.29268293,1.94207317 Z M5.29268293,4.54573171 L5.42073171,4.54573171 L5.42073171,4.67378049 L5.29268293,4.67378049 Z M1.53658537,0.789634146 L1.66463415,0.789634146 L1.66463415,0.917682927 L1.53658537,0.917682927 Z M1.53658537,3.52134146 L1.66463415,3.52134146 L1.66463415,3.64939024 L1.53658537,3.64939024 Z M5.63414634,0.789634146 L5.76219512,0.789634146 L5.76219512,0.917682927 L5.63414634,0.917682927 Z M5.63414634,3.52134146 L5.76219512,3.52134146 L5.76219512,3.64939024 L5.63414634,3.64939024 Z M1.53658537,2.1554878 L1.66463415,2.1554878 L1.66463415,2.28353659 L1.53658537,2.28353659 Z M1.53658537,4.88719512 L1.66463415,4.88719512 L1.66463415,5.0152439 L1.53658537,5.0152439 Z M5.63414634,2.1554878 L5.76219512,2.1554878 L5.76219512,2.28353659 L5.63414634,2.28353659 Z M5.63414634,4.88719512 L5.76219512,4.88719512 L5.76219512,5.0152439 L5.63414634,5.0152439 Z M2.90243902,0.789634146 L3.0304878,0.789634146 L3.0304878,0.917682927 L2.90243902,0.917682927 Z M2.90243902,3.52134146 L3.0304878,3.52134146 L3.0304878,3.64939024 L2.90243902,3.64939024 Z M7,0.789634146 L7.12804878,0.789634146 L7.12804878,0.917682927 L7,0.917682927 Z M7,3.52134146 L7.12804878,3.52134146 L7.12804878,3.64939024 L7,3.64939024 Z M2.90243902,2.1554878 L3.0304878,2.1554878 L3.0304878,2.28353659 L2.90243902,2.28353659 Z M2.90243902,4.88719512 L3.0304878,4.88719512 L3.0304878,5.0152439 L2.90243902,5.0152439 Z M7,2.1554878 L7.12804878,2.1554878 L7.12804878,2.28353659 L7,2.28353659 Z M7,4.88719512 L7.12804878,4.88719512 L7.12804878,5.0152439 L7,5.0152439 Z M2.56097561,0.106707317 L2.68902439,0.106707317 L2.68902439,0.234756098 L2.56097561,0.234756098 Z M2.56097561,2.83841463 L2.68902439,2.83841463 L2.68902439,2.96646341 L2.56097561,2.96646341 Z M6.65853659,0.106707317 L6.78658537,0.106707317 L6.78658537,0.234756098 L6.65853659,0.234756098 Z M6.65853659,2.83841463 L6.78658537,2.83841463 L6.78658537,2.96646341 L6.65853659,2.96646341 Z M2.56097561,1.47256098 L2.68902439,1.47256098 L2.68902439,1.60060976 L2.56097561,1.60060976 Z M2.56097561,4.20426829 L2.68902439,4.20426829 L2.68902439,4.33231707 L2.56097561,4.33231707 Z M6.65853659,1.47256098 L6.78658537,1.47256098 L6.78658537,1.60060976 L6.65853659,1.60060976 Z M6.65853659,4.20426829 L6.78658537,4.20426829 L6.78658537,4.33231707 L6.65853659,4.33231707 Z M7.68292683,0.106707317 L7.81097561,0.106707317 L7.81097561,0.234756098 L7.68292683,0.234756098 Z M7.68292683,2.83841463 L7.81097561,2.83841463 L7.81097561,2.96646341 L7.68292683,2.96646341 Z M7.68292683,1.47256098 L7.81097561,1.47256098 L7.81097561,1.60060976 L7.68292683,1.60060976 Z M7.68292683,4.20426829 L7.81097561,4.20426829 L7.81097561,4.33231707 L7.68292683,4.33231707 Z M7.68292683,0.448170732 L7.81097561,0.448170732 L7.81097561,0.576219512 L7.68292683,0.576219512 Z M7.68292683,3.17987805 L7.81097561,3.17987805 L7.81097561,3.30792683 L7.68292683,3.30792683 Z M7.68292683,1.81402439 L7.81097561,1.81402439 L7.81097561,1.94207317 L7.68292683,1.94207317 Z M7.68292683,4.54573171 L7.81097561,4.54573171 L7.81097561,4.67378049 L7.68292683,4.67378049 Z M-0.512195122,0.789634146 L-0.384146341,0.789634146 L-0.384146341,0.917682927 L-0.512195122,0.917682927 Z M-0.512195122,3.52134146 L-0.384146341,3.52134146 L-0.384146341,3.64939024 L-0.512195122,3.64939024 Z M-0.512195122,2.1554878 L-0.384146341,2.1554878 L-0.384146341,2.28353659 L-0.512195122,2.28353659 Z M-0.512195122,4.88719512 L-0.384146341,4.88719512 L-0.384146341,5.0152439 L-0.512195122,5.0152439 Z M2.2195122,1.13109756 L2.34756098,1.13109756 L2.34756098,1.25914634 L2.2195122,1.25914634 Z M2.2195122,3.86280488 L2.34756098,3.86280488 L2.34756098,3.99085366 L2.2195122,3.99085366 Z M6.31707317,1.13109756 L6.44512195,1.13109756 L6.44512195,1.25914634 L6.31707317,1.25914634 Z M6.31707317,3.86280488 L6.44512195,3.86280488 L6.44512195,3.99085366 L6.31707317,3.99085366 Z M2.2195122,2.49695122 L2.34756098,2.49695122 L2.34756098,2.625 L2.2195122,2.625 Z M2.2195122,5.22865854 L2.34756098,5.22865854 L2.34756098,5.35670732 L2.2195122,5.35670732 Z M6.31707317,2.49695122 L6.44512195,2.49695122 L6.44512195,2.625 L6.31707317,2.625 Z M6.31707317,5.22865854 L6.44512195,5.22865854 L6.44512195,5.35670732 L6.31707317,5.35670732 Z M0.170731707,0.106707317 L0.298780488,0.106707317 L0.298780488,0.234756098 L0.170731707,0.234756098 Z M0.170731707,2.83841463 L0.298780488,2.83841463 L0.298780488,2.96646341 L0.170731707,2.96646341 Z M4.26829268,0.106707317 L4.39634146,0.106707317 L4.39634146,0.234756098 L4.26829268,0.234756098 Z M4.26829268,2.83841463 L4.39634146,2.83841463 L4.39634146,2.96646341 L4.26829268,2.96646341 Z M0.170731707,1.47256098 L0.298780488,1.47256098 L0.298780488,1.60060976 L0.170731707,1.60060976 Z M0.170731707,4.20426829 L0.298780488,4.20426829 L0.298780488,4.33231707 L0.170731707,4.33231707 Z M4.26829268,1.47256098 L4.39634146,1.47256098 L4.39634146,1.60060976 L4.26829268,1.60060976 Z M4.26829268,4.20426829 L4.39634146,4.20426829 L4.39634146,4.33231707 L4.26829268,4.33231707 Z M0.853658537,0.448170732 L0.981707317,0.448170732 L0.981707317,0.576219512 L0.853658537,0.576219512 Z M0.853658537,3.17987805 L0.981707317,3.17987805 L0.981707317,3.30792683 L0.853658537,3.30792683 Z M4.95121951,0.448170732 L5.07926829,0.448170732 L5.07926829,0.576219512 L4.95121951,0.576219512 Z M4.95121951,3.17987805 L5.07926829,3.17987805 L5.07926829,3.30792683 L4.95121951,3.30792683 Z M0.853658537,1.81402439 L0.981707317,1.81402439 L0.981707317,1.94207317 L0.853658537,1.94207317 Z M0.853658537,4.54573171 L0.981707317,4.54573171 L0.981707317,4.67378049 L0.853658537,4.67378049 Z M4.95121951,1.81402439 L5.07926829,1.81402439 L5.07926829,1.94207317 L4.95121951,1.94207317 Z M4.95121951,4.54573171 L5.07926829,4.54573171 L5.07926829,4.67378049 L4.95121951,4.67378049 Z M0.512195122,0.789634146 L0.640243902,0.789634146 L0.640243902,0.917682927 L0.512195122,0.917682927 Z M0.512195122,3.52134146 L0.640243902,3.52134146 L0.640243902,3.64939024 L0.512195122,3.64939024 Z M4.6097561,0.789634146 L4.73780488,0.789634146 L4.73780488,0.917682927 L4.6097561,0.917682927 Z M4.6097561,3.52134146 L4.73780488,3.52134146 L4.73780488,3.64939024 L4.6097561,3.64939024 Z M0.512195122,2.1554878 L0.640243902,2.1554878 L0.640243902,2.28353659 L0.512195122,2.28353659 Z M0.512195122,4.88719512 L0.640243902,4.88719512 L0.640243902,5.0152439 L0.512195122,5.0152439 Z M4.6097561,2.1554878 L4.73780488,2.1554878 L4.73780488,2.28353659 L4.6097561,2.28353659 Z M4.6097561,4.88719512 L4.73780488,4.88719512 L4.73780488,5.0152439 L4.6097561,5.0152439 Z M0.512195122,1.13109756 L0.640243902,1.13109756 L0.640243902,1.25914634 L0.512195122,1.25914634 Z M0.512195122,3.86280488 L0.640243902,3.86280488 L0.640243902,3.99085366 L0.512195122,3.99085366 Z M4.6097561,1.13109756 L4.73780488,1.13109756 L4.73780488,1.25914634 L4.6097561,1.25914634 Z M4.6097561,3.86280488 L4.73780488,3.86280488 L4.73780488,3.99085366 L4.6097561,3.99085366 Z M0.512195122,2.49695122 L0.640243902,2.49695122 L0.640243902,2.625 L0.512195122,2.625 Z M0.512195122,5.22865854 L0.640243902,5.22865854 L0.640243902,5.35670732 L0.512195122,5.35670732 Z M4.6097561,2.49695122 L4.73780488,2.49695122 L4.73780488,2.625 L4.6097561,2.625 Z M4.6097561,5.22865854 L4.73780488,5.22865854 L4.73780488,5.35670732 L4.6097561,5.35670732 Z M1.87804878,0.106707317 L2.00609756,0.106707317 L2.00609756,0.234756098 L1.87804878,0.234756098 Z M1.87804878,2.83841463 L2.00609756,2.83841463 L2.00609756,2.96646341 L1.87804878,2.96646341 Z M5.97560976,0.106707317 L6.10365854,0.106707317 L6.10365854,0.234756098 L5.97560976,0.234756098 Z M5.97560976,2.83841463 L6.10365854,2.83841463 L6.10365854,2.96646341 L5.97560976,2.96646341 Z M1.87804878,1.47256098 L2.00609756,1.47256098 L2.00609756,1.60060976 L1.87804878,1.60060976 Z M1.87804878,4.20426829 L2.00609756,4.20426829 L2.00609756,4.33231707 L1.87804878,4.33231707 Z M5.97560976,1.47256098 L6.10365854,1.47256098 L6.10365854,1.60060976 L5.97560976,1.60060976 Z M5.97560976,4.20426829 L6.10365854,4.20426829 L6.10365854,4.33231707 L5.97560976,4.33231707 Z M2.2195122,0.448170732 L2.34756098,0.448170732 L2.34756098,0.576219512 L2.2195122,0.576219512 Z M2.2195122,3.17987805 L2.34756098,3.17987805 L2.34756098,3.30792683 L2.2195122,3.30792683 Z M6.31707317,0.448170732 L6.44512195,0.448170732 L6.44512195,0.576219512 L6.31707317,0.576219512 Z M6.31707317,3.17987805 L6.44512195,3.17987805 L6.44512195,3.30792683 L6.31707317,3.30792683 Z M2.2195122,1.81402439 L2.34756098,1.81402439 L2.34756098,1.94207317 L2.2195122,1.94207317 Z M2.2195122,4.54573171 L2.34756098,4.54573171 L2.34756098,4.67378049 L2.2195122,4.67378049 Z M6.31707317,1.81402439 L6.44512195,1.81402439 L6.44512195,1.94207317 L6.31707317,1.94207317 Z M6.31707317,4.54573171 L6.44512195,4.54573171 L6.44512195,4.67378049 L6.31707317,4.67378049 Z M1.87804878,0.789634146 L2.00609756,0.789634146 L2.00609756,0.917682927 L1.87804878,0.917682927 Z M1.87804878,3.52134146 L2.00609756,3.52134146 L2.00609756,3.64939024 L1.87804878,3.64939024 Z M5.97560976,0.789634146 L6.10365854,0.789634146 L6.10365854,0.917682927 L5.97560976,0.917682927 Z M5.97560976,3.52134146 L6.10365854,3.52134146 L6.10365854,3.64939024 L5.97560976,3.64939024 Z M1.87804878,2.1554878 L2.00609756,2.1554878 L2.00609756,2.28353659 L1.87804878,2.28353659 Z M1.87804878,4.88719512 L2.00609756,4.88719512 L2.00609756,5.0152439 L1.87804878,5.0152439 Z M5.97560976,2.1554878 L6.10365854,2.1554878 L6.10365854,2.28353659 L5.97560976,2.28353659 Z M5.97560976,4.88719512 L6.10365854,4.88719512 L6.10365854,5.0152439 L5.97560976,5.0152439 Z M7.68292683,0.789634146 L7.81097561,0.789634146 L7.81097561,0.917682927 L7.68292683,0.917682927 Z M7.68292683,3.52134146 L7.81097561,3.52134146 L7.81097561,3.64939024 L7.68292683,3.64939024 Z M7.68292683,2.1554878 L7.81097561,2.1554878 L7.81097561,2.28353659 L7.68292683,2.28353659 Z M7.68292683,4.88719512 L7.81097561,4.88719512 L7.81097561,5.0152439 L7.68292683,5.0152439 Z M2.90243902,0.106707317 L3.0304878,0.106707317 L3.0304878,0.234756098 L2.90243902,0.234756098 Z M2.90243902,2.83841463 L3.0304878,2.83841463 L3.0304878,2.96646341 L2.90243902,2.96646341 Z M7,0.106707317 L7.12804878,0.106707317 L7.12804878,0.234756098 L7,0.234756098 Z M7,2.83841463 L7.12804878,2.83841463 L7.12804878,2.96646341 L7,2.96646341 Z M2.90243902,1.47256098 L3.0304878,1.47256098 L3.0304878,1.60060976 L2.90243902,1.60060976 Z M2.90243902,4.20426829 L3.0304878,4.20426829 L3.0304878,4.33231707 L2.90243902,4.33231707 Z M7,1.47256098 L7.12804878,1.47256098 L7.12804878,1.60060976 L7,1.60060976 Z M7,4.20426829 L7.12804878,4.20426829 L7.12804878,4.33231707 L7,4.33231707 Z M2.56097561,0.448170732 L2.68902439,0.448170732 L2.68902439,0.576219512 L2.56097561,0.576219512 Z M2.56097561,3.17987805 L2.68902439,3.17987805 L2.68902439,3.30792683 L2.56097561,3.30792683 Z M6.65853659,0.448170732 L6.78658537,0.448170732 L6.78658537,0.576219512 L6.65853659,0.576219512 Z M6.65853659,3.17987805 L6.78658537,3.17987805 L6.78658537,3.30792683 L6.65853659,3.30792683 Z M2.56097561,1.81402439 L2.68902439,1.81402439 L2.68902439,1.94207317 L2.56097561,1.94207317 Z M2.56097561,4.54573171 L2.68902439,4.54573171 L2.68902439,4.67378049 L2.56097561,4.67378049 Z M6.65853659,1.81402439 L6.78658537,1.81402439 L6.78658537,1.94207317 L6.65853659,1.94207317 Z M6.65853659,4.54573171 L6.78658537,4.54573171 L6.78658537,4.67378049 L6.65853659,4.67378049 Z" fill="url(#linearGradient-18)" opacity="0.146094913" style="mix-blend-mode: overlay;"></path>
                </g>
                <path d="M2.31725462,7.81909615 L2.30871191,7.80498932 C2.14118565,7.52999389 2.04878049,7.22883739 2.04878049,6.91463415 C2.04878049,6.47524376 2.22948791,6.06136757 2.54363496,5.70887017 C3.23215896,5.34931253 4.24669048,5.12195122 5.37804878,5.12195122 C6.5103632,5.12195122 7.5256533,5.34969699 8.21430672,5.70991019 C8.52694822,6.06214337 8.70731707,6.47565556 8.70731707,6.91463415 C8.70731707,7.23425469 8.61169806,7.54037472 8.43865359,7.81918982 C7.75787269,8.25338268 6.64072082,8.53658537 5.37804878,8.53658537 C4.19265712,8.53658537 3.13551795,8.28698801 2.44712366,7.89710803 L2.31725462,7.81909615 Z" id="形状结合" fill="url(#linearGradient-19)" opacity="0.319238572"></path>
                <g id="形状结合" transform="translate(7.4197, 6.4715) scale(-1, 1) translate(-7.4197, -6.4715)">
                    <use fill="black" fill-opacity="1" filter="url(#filter-21)" xlink:href="#path-20"></use>
                    <use fill="#03FBFF" fill-rule="evenodd" xlink:href="#path-20"></use>
                </g>
                <g id="形状结合">
                    <use fill="black" fill-opacity="1" filter="url(#filter-23)" xlink:href="#path-22"></use>
                    <use fill="#03FBFF" fill-rule="evenodd" xlink:href="#path-22"></use>
                </g>
                <g id="形状结合">
                    <use fill="black" fill-opacity="1" filter="url(#filter-25)" xlink:href="#path-24"></use>
                    <use fill="#03F3FF" fill-rule="evenodd" xlink:href="#path-24"></use>
                </g>
                <g id="椭圆形">
                    <use fill="black" fill-opacity="1" filter="url(#filter-28)" xlink:href="#path-27"></use>
                    <use fill="url(#radialGradient-26)" fill-rule="evenodd" xlink:href="#path-27"></use>
                </g>
                <path d="M5.33536585,0.512195122 C5.46065227,0.512195122 5.56328723,0.611704375 5.56716085,0.736930892 L5.62490861,2.60380138 C5.62985509,2.76371142 5.5042323,2.89735405 5.34432226,2.90230053 C5.34133768,2.90239286 5.33835186,2.90243902 5.33536585,2.90243902 C5.17537932,2.90243902 5.04568461,2.77274431 5.04568461,2.61275778 C5.04568461,2.60977178 5.04573078,2.60678595 5.0458231,2.60380138 L5.10357086,0.736930892 C5.10744448,0.611704375 5.21007944,0.512195122 5.33536585,0.512195122 Z" id="矩形" fill="url(#linearGradient-29)"></path>
                <g id="椭圆形">
                    <use fill="url(#linearGradient-30)" fill-rule="evenodd" xlink:href="#path-31"></use>
                    <use fill="black" fill-opacity="1" filter="url(#filter-32)" xlink:href="#path-31"></use>
                </g>
            </g>
        </g>
    </g>
</svg>