<?xml version="1.0" encoding="UTF-8"?>
<svg width="36px" height="36px" viewBox="0 0 36 36" version="1.1" xmlns="http://www.w3.org/2000/svg" xmlns:xlink="http://www.w3.org/1999/xlink">
    <title>一站式部署知识库-36</title>
    <defs>
        <linearGradient x1="78.8829594%" y1="2.47467514%" x2="28.5592066%" y2="100%" id="linearGradient-1">
            <stop stop-color="#7C12E3" offset="0%"></stop>
            <stop stop-color="#0098FF" offset="100%"></stop>
        </linearGradient>
        <rect id="path-2" x="0" y="0" width="30" height="30" rx="6.6771619"></rect>
        <filter x="-6.7%" y="-3.3%" width="113.3%" height="113.3%" filterUnits="objectBoundingBox" id="filter-3">
            <feOffset dx="0" dy="1" in="SourceAlpha" result="shadowOffsetOuter1"></feOffset>
            <feGaussianBlur stdDeviation="0.5" in="shadowOffsetOuter1" result="shadowBlurOuter1"></feGaussianBlur>
            <feColorMatrix values="0 0 0 0 0   0 0 0 0 0   0 0 0 0 0  0 0 0 0.2 0" type="matrix" in="shadowBlurOuter1"></feColorMatrix>
        </filter>
        <linearGradient x1="9.93655111%" y1="50.2765282%" x2="101.403016%" y2="50.2765282%" id="linearGradient-4">
            <stop stop-color="#27108C" offset="0%"></stop>
            <stop stop-color="#481AB4" offset="44.0542368%"></stop>
            <stop stop-color="#2B0D90" offset="99.9011487%"></stop>
        </linearGradient>
        <linearGradient x1="50%" y1="0%" x2="50%" y2="100%" id="linearGradient-5">
            <stop stop-color="#FFFFFF" offset="0%"></stop>
            <stop stop-color="#BED2FF" offset="100%"></stop>
        </linearGradient>
        <path d="M1.09756098,9.14634146 C0.483606771,9.0151002 0,7.67354979 0,6.03658537 C0,4.39962094 0.483606771,3.05807053 1.09754038,2.93589702 L2.92682927,2.92682927 L2.92682927,9.14634146 L1.09756098,9.14634146 Z" id="path-6"></path>
        <filter x="-34.2%" y="-16.1%" width="168.3%" height="132.2%" filterUnits="objectBoundingBox" id="filter-7">
            <feGaussianBlur stdDeviation="0.5" in="SourceAlpha" result="shadowBlurInner1"></feGaussianBlur>
            <feOffset dx="0" dy="0" in="shadowBlurInner1" result="shadowOffsetInner1"></feOffset>
            <feComposite in="shadowOffsetInner1" in2="SourceAlpha" operator="arithmetic" k2="-1" k3="1" result="shadowInnerInner1"></feComposite>
            <feColorMatrix values="0 0 0 0 0.484672732   0 0 0 0 0.660750155   0 0 0 0 1  0 0 0 1 0" type="matrix" in="shadowInnerInner1" result="shadowMatrixInner1"></feColorMatrix>
            <feGaussianBlur stdDeviation="0.5" in="SourceAlpha" result="shadowBlurInner2"></feGaussianBlur>
            <feOffset dx="0" dy="1" in="shadowBlurInner2" result="shadowOffsetInner2"></feOffset>
            <feComposite in="shadowOffsetInner2" in2="SourceAlpha" operator="arithmetic" k2="-1" k3="1" result="shadowInnerInner2"></feComposite>
            <feColorMatrix values="0 0 0 0 0.769546568   0 0 0 0 0.74022842   0 0 0 0 1  0 0 0 0.5 0" type="matrix" in="shadowInnerInner2" result="shadowMatrixInner2"></feColorMatrix>
            <feMerge>
                <feMergeNode in="shadowMatrixInner1"></feMergeNode>
                <feMergeNode in="shadowMatrixInner2"></feMergeNode>
            </feMerge>
        </filter>
        <path d="M1.09756098,9.14634146 C0.483606771,9.0151002 0,7.67354979 0,6.03658537 C0,4.39962094 0.483606771,3.05807053 1.09754038,2.93589702 L2.92682927,2.92682927 L2.92682927,9.14634146 L1.09756098,9.14634146 Z" id="path-8"></path>
        <filter x="-34.2%" y="-16.1%" width="168.3%" height="132.2%" filterUnits="objectBoundingBox" id="filter-9">
            <feGaussianBlur stdDeviation="0.5" in="SourceAlpha" result="shadowBlurInner1"></feGaussianBlur>
            <feOffset dx="0" dy="0" in="shadowBlurInner1" result="shadowOffsetInner1"></feOffset>
            <feComposite in="shadowOffsetInner1" in2="SourceAlpha" operator="arithmetic" k2="-1" k3="1" result="shadowInnerInner1"></feComposite>
            <feColorMatrix values="0 0 0 0 0.484672732   0 0 0 0 0.660750155   0 0 0 0 1  0 0 0 1 0" type="matrix" in="shadowInnerInner1" result="shadowMatrixInner1"></feColorMatrix>
            <feGaussianBlur stdDeviation="0.5" in="SourceAlpha" result="shadowBlurInner2"></feGaussianBlur>
            <feOffset dx="0" dy="1" in="shadowBlurInner2" result="shadowOffsetInner2"></feOffset>
            <feComposite in="shadowOffsetInner2" in2="SourceAlpha" operator="arithmetic" k2="-1" k3="1" result="shadowInnerInner2"></feComposite>
            <feColorMatrix values="0 0 0 0 0.769546568   0 0 0 0 0.74022842   0 0 0 0 1  0 0 0 0.5 0" type="matrix" in="shadowInnerInner2" result="shadowMatrixInner2"></feColorMatrix>
            <feMerge>
                <feMergeNode in="shadowMatrixInner1"></feMergeNode>
                <feMergeNode in="shadowMatrixInner2"></feMergeNode>
            </feMerge>
        </filter>
        <linearGradient x1="50%" y1="0%" x2="50%" y2="100%" id="linearGradient-10">
            <stop stop-color="#FFFFFF" offset="0%"></stop>
            <stop stop-color="#BED2FF" offset="100%"></stop>
        </linearGradient>
        <path d="M11.4329268,23.0487805 C18.9286357,23.0487805 21.402439,18.8309752 21.402439,13.6280488 C21.402439,8.42512233 16.9389364,4.20731707 11.4329268,4.20731707 C5.92691728,4.20731707 1.46341463,8.42512233 1.46341463,13.6280488 C1.46341463,18.8309752 3.93721793,23.0487805 11.4329268,23.0487805 Z" id="path-11"></path>
        <filter x="-5.0%" y="-5.3%" width="110.0%" height="110.6%" filterUnits="objectBoundingBox" id="filter-12">
            <feGaussianBlur stdDeviation="0.5" in="SourceAlpha" result="shadowBlurInner1"></feGaussianBlur>
            <feOffset dx="0" dy="0" in="shadowBlurInner1" result="shadowOffsetInner1"></feOffset>
            <feComposite in="shadowOffsetInner1" in2="SourceAlpha" operator="arithmetic" k2="-1" k3="1" result="shadowInnerInner1"></feComposite>
            <feColorMatrix values="0 0 0 0 0.484672732   0 0 0 0 0.660750155   0 0 0 0 1  0 0 0 1 0" type="matrix" in="shadowInnerInner1" result="shadowMatrixInner1"></feColorMatrix>
            <feGaussianBlur stdDeviation="0.5" in="SourceAlpha" result="shadowBlurInner2"></feGaussianBlur>
            <feOffset dx="0" dy="1" in="shadowBlurInner2" result="shadowOffsetInner2"></feOffset>
            <feComposite in="shadowOffsetInner2" in2="SourceAlpha" operator="arithmetic" k2="-1" k3="1" result="shadowInnerInner2"></feComposite>
            <feColorMatrix values="0 0 0 0 0.769546568   0 0 0 0 0.74022842   0 0 0 0 1  0 0 0 0.5 0" type="matrix" in="shadowInnerInner2" result="shadowMatrixInner2"></feColorMatrix>
            <feMerge>
                <feMergeNode in="shadowMatrixInner1"></feMergeNode>
                <feMergeNode in="shadowMatrixInner2"></feMergeNode>
            </feMerge>
        </filter>
        <linearGradient x1="50%" y1="-11.2122118%" x2="50%" y2="100%" id="linearGradient-13">
            <stop stop-color="#7C12E3" offset="0%"></stop>
            <stop stop-color="#0098FF" offset="100%"></stop>
        </linearGradient>
        <path d="M11.5243902,8.41463415 C16.2726921,8.41463415 20.1219512,11.2811037 20.1219512,14.8170732 C20.1219512,18.3530426 16.2726921,21.2195122 11.5243902,21.2195122 C6.77608843,21.2195122 2.92682927,18.3530426 2.92682927,14.8170732 C2.92682927,11.2811037 6.77608843,8.41463415 11.5243902,8.41463415 Z" id="path-14"></path>
        <filter x="0.0%" y="0.0%" width="100.0%" height="100.0%" filterUnits="objectBoundingBox" id="filter-15">
            <feOffset dx="0" dy="0" in="SourceAlpha" result="shadowOffsetOuter1"></feOffset>
            <feColorMatrix values="0 0 0 0 0   0 0 0 0 0.871231951   0 0 0 0 0.994777514  0 0 0 1 0" type="matrix" in="shadowOffsetOuter1" result="shadowMatrixOuter1"></feColorMatrix>
            <feOffset dx="0" dy="0" in="SourceAlpha" result="shadowOffsetOuter2"></feOffset>
            <feColorMatrix values="0 0 0 0 0.352941176   0 0 0 0 0.215686275   0 0 0 0 0.921568627  0 0 0 0.216040551 0" type="matrix" in="shadowOffsetOuter2" result="shadowMatrixOuter2"></feColorMatrix>
            <feMerge>
                <feMergeNode in="shadowMatrixOuter1"></feMergeNode>
                <feMergeNode in="shadowMatrixOuter2"></feMergeNode>
            </feMerge>
        </filter>
        <filter x="-2.9%" y="-3.9%" width="105.8%" height="107.8%" filterUnits="objectBoundingBox" id="filter-16">
            <feGaussianBlur stdDeviation="0.5" in="SourceAlpha" result="shadowBlurInner1"></feGaussianBlur>
            <feOffset dx="0" dy="0" in="shadowBlurInner1" result="shadowOffsetInner1"></feOffset>
            <feComposite in="shadowOffsetInner1" in2="SourceAlpha" operator="arithmetic" k2="-1" k3="1" result="shadowInnerInner1"></feComposite>
            <feColorMatrix values="0 0 0 0 0.0117647059   0 0 0 0 0.984313725   0 0 0 0 1  0 0 0 0.756351071 0" type="matrix" in="shadowInnerInner1" result="shadowMatrixInner1"></feColorMatrix>
            <feGaussianBlur stdDeviation="0.5" in="SourceAlpha" result="shadowBlurInner2"></feGaussianBlur>
            <feOffset dx="0" dy="0" in="shadowBlurInner2" result="shadowOffsetInner2"></feOffset>
            <feComposite in="shadowOffsetInner2" in2="SourceAlpha" operator="arithmetic" k2="-1" k3="1" result="shadowInnerInner2"></feComposite>
            <feColorMatrix values="0 0 0 0 0.0117647059   0 0 0 0 0.984313725   0 0 0 0 1  0 0 0 0.756351071 0" type="matrix" in="shadowInnerInner2" result="shadowMatrixInner2"></feColorMatrix>
            <feMerge>
                <feMergeNode in="shadowMatrixInner1"></feMergeNode>
                <feMergeNode in="shadowMatrixInner2"></feMergeNode>
            </feMerge>
        </filter>
        <linearGradient x1="51.6193161%" y1="-10.2570099%" x2="51.6193161%" y2="107.239133%" id="linearGradient-17">
            <stop stop-color="#0E012D" offset="0%"></stop>
            <stop stop-color="#00042E" offset="100%"></stop>
        </linearGradient>
        <linearGradient x1="50%" y1="0%" x2="50%" y2="100%" id="linearGradient-18">
            <stop stop-color="#BB00FF" offset="0%"></stop>
            <stop stop-color="#00FFFA" offset="100%"></stop>
        </linearGradient>
        <linearGradient x1="50%" y1="0%" x2="50%" y2="78.2185974%" id="linearGradient-19">
            <stop stop-color="#EAD5FF" offset="0%"></stop>
            <stop stop-color="#D4EEFF" stop-opacity="0" offset="100%"></stop>
        </linearGradient>
        <path d="M9.02439024,15.0994729 L9.02439024,15.2515244 L5.27439024,15.2515244 L5.27439024,15.1 L9.02439024,15.0994729 Z M5.27439024,14.7341463 L9.02439024,14.7334729 L9.02439024,14.9994729 L5.27439024,15 L5.27439024,14.7341463 Z M5.27439024,14.3682927 L9.02439024,14.3674729 L9.02439024,14.6334729 L5.27439024,14.6341463 L5.27439024,14.3682927 Z M5.27439024,14.002439 L9.02439024,14.0015244 L9.02439024,14.2674729 L5.27439024,14.2682927 L5.27439024,14.002439 Z M5.27439024,13.6365854 L6.83639024,13.6364729 L6.83639024,13.9014729 L5.27439024,13.902439 L5.27439024,13.6365854 Z M5.27439024,13.2707317 L6.83639024,13.2704729 L6.83639024,13.5364729 L5.27439024,13.5365854 L5.27439024,13.2707317 Z M5.27439024,12.904878 L6.83639024,12.9044729 L6.83639024,13.1704729 L5.27439024,13.1707317 L5.27439024,12.904878 Z" id="path-20"></path>
        <filter x="-80.0%" y="-127.7%" width="260.0%" height="355.5%" filterUnits="objectBoundingBox" id="filter-21">
            <feOffset dx="0" dy="0" in="SourceAlpha" result="shadowOffsetOuter1"></feOffset>
            <feGaussianBlur stdDeviation="1" in="shadowOffsetOuter1" result="shadowBlurOuter1"></feGaussianBlur>
            <feColorMatrix values="0 0 0 0 0.104669636   0 0 0 0 0.957365221   0 0 0 0 1  0 0 0 1 0" type="matrix" in="shadowBlurOuter1" result="shadowMatrixOuter1"></feColorMatrix>
            <feOffset dx="0" dy="0" in="SourceAlpha" result="shadowOffsetOuter2"></feOffset>
            <feGaussianBlur stdDeviation="0.5" in="shadowOffsetOuter2" result="shadowBlurOuter2"></feGaussianBlur>
            <feColorMatrix values="0 0 0 0 0.104669636   0 0 0 0 0.957365221   0 0 0 0 1  0 0 0 1 0" type="matrix" in="shadowBlurOuter2" result="shadowMatrixOuter2"></feColorMatrix>
            <feMerge>
                <feMergeNode in="shadowMatrixOuter1"></feMergeNode>
                <feMergeNode in="shadowMatrixOuter2"></feMergeNode>
            </feMerge>
        </filter>
        <path d="M17.7743902,15.0994729 L17.7743902,15.2515244 L14.0243902,15.2515244 L14.0243902,15.1 L17.7743902,15.0994729 Z M14.0243902,14.7341463 L17.7743902,14.7334729 L17.7743902,14.9994729 L14.0243902,15 L14.0243902,14.7341463 Z M14.0243902,14.3682927 L17.7743902,14.3674729 L17.7743902,14.6334729 L14.0243902,14.6341463 L14.0243902,14.3682927 Z M14.0243902,14.002439 L17.7743902,14.0015244 L17.7743902,14.2674729 L14.0243902,14.2682927 L14.0243902,14.002439 Z M14.0243902,13.6365854 L15.5863902,13.6364729 L15.5863902,13.9014729 L14.0243902,13.902439 L14.0243902,13.6365854 Z M14.0243902,13.2707317 L15.5863902,13.2704729 L15.5863902,13.5364729 L14.0243902,13.5365854 L14.0243902,13.2707317 Z M14.0243902,12.904878 L15.5863902,12.9044729 L15.5863902,13.1704729 L14.0243902,13.1707317 L14.0243902,12.904878 Z" id="path-22"></path>
        <filter x="-80.0%" y="-127.7%" width="260.0%" height="355.5%" filterUnits="objectBoundingBox" id="filter-23">
            <feOffset dx="0" dy="0" in="SourceAlpha" result="shadowOffsetOuter1"></feOffset>
            <feGaussianBlur stdDeviation="1" in="shadowOffsetOuter1" result="shadowBlurOuter1"></feGaussianBlur>
            <feColorMatrix values="0 0 0 0 0.104669636   0 0 0 0 0.957365221   0 0 0 0 1  0 0 0 1 0" type="matrix" in="shadowBlurOuter1" result="shadowMatrixOuter1"></feColorMatrix>
            <feOffset dx="0" dy="0" in="SourceAlpha" result="shadowOffsetOuter2"></feOffset>
            <feGaussianBlur stdDeviation="0.5" in="shadowOffsetOuter2" result="shadowBlurOuter2"></feGaussianBlur>
            <feColorMatrix values="0 0 0 0 0.104669636   0 0 0 0 0.957365221   0 0 0 0 1  0 0 0 1 0" type="matrix" in="shadowBlurOuter2" result="shadowMatrixOuter2"></feColorMatrix>
            <feMerge>
                <feMergeNode in="shadowMatrixOuter1"></feMergeNode>
                <feMergeNode in="shadowMatrixOuter2"></feMergeNode>
            </feMerge>
        </filter>
        <path d="M12.498923,17.4789077 C12.2074611,17.6751188 11.856433,17.7896341 11.4786585,17.7896341 C11.100884,17.7896341 10.749856,17.6751188 10.458394,17.4789077 Z M12.8995199,17.1125781 C12.8203041,17.2101439 12.7312412,17.2993914 12.6338448,17.3788074 L10.3234723,17.3788074 C10.2260759,17.2993914 10.137013,17.2101439 10.0577972,17.1125781 Z M13.1308984,16.7464236 C13.0864424,16.8397002 13.0343203,16.9286197 12.975347,17.0123673 L9.98197009,17.0123673 C9.92299676,16.9286197 9.87087463,16.8397002 9.82641865,16.7464236 Z M13.2592826,16.3812129 C13.2378524,16.4722321 13.209624,16.5606283 13.1751624,16.6458362 L9.78215463,16.6458362 C9.7476931,16.5606283 9.71946463,16.4722321 9.69803452,16.3812129 Z M13.3073761,16.0056971 C13.3050947,16.0994993 13.2957522,16.1915511 13.2798598,16.281341 L9.67745723,16.281341 C9.65901236,16.1771296 9.64939024,16.0698714 9.64939024,15.9603659 L9.65139024,16.0053659 Z" id="path-24"></path>
        <filter x="-82.0%" y="-164.0%" width="264.0%" height="428.0%" filterUnits="objectBoundingBox" id="filter-25">
            <feOffset dx="0" dy="0" in="SourceAlpha" result="shadowOffsetOuter1"></feOffset>
            <feGaussianBlur stdDeviation="1" in="shadowOffsetOuter1" result="shadowBlurOuter1"></feGaussianBlur>
            <feColorMatrix values="0 0 0 0 0.104669636   0 0 0 0 0.957365221   0 0 0 0 1  0 0 0 1 0" type="matrix" in="shadowBlurOuter1" result="shadowMatrixOuter1"></feColorMatrix>
            <feOffset dx="0" dy="0" in="SourceAlpha" result="shadowOffsetOuter2"></feOffset>
            <feGaussianBlur stdDeviation="0.5" in="shadowOffsetOuter2" result="shadowBlurOuter2"></feGaussianBlur>
            <feColorMatrix values="0 0 0 0 0.104669636   0 0 0 0 0.957365221   0 0 0 0 1  0 0 0 1 0" type="matrix" in="shadowBlurOuter2" result="shadowMatrixOuter2"></feColorMatrix>
            <feMerge>
                <feMergeNode in="shadowMatrixOuter1"></feMergeNode>
                <feMergeNode in="shadowMatrixOuter2"></feMergeNode>
            </feMerge>
        </filter>
        <radialGradient cx="50%" cy="46.6323471%" fx="50%" fy="46.6323471%" r="95.5322757%" gradientTransform="translate(0.5, 0.4663), scale(0.5385, 1), rotate(2.1861), scale(1, 0.6234), translate(-0.5, -0.4663)" id="radialGradient-26">
            <stop stop-color="#00192A" offset="0%"></stop>
            <stop stop-color="#230045" offset="100%"></stop>
        </radialGradient>
        <ellipse id="path-27" cx="11.4329268" cy="5.94512195" rx="1.18902439" ry="1"></ellipse>
        <filter x="0.0%" y="0.0%" width="100.0%" height="100.0%" filterUnits="objectBoundingBox" id="filter-28">
            <feOffset dx="0" dy="0" in="SourceAlpha" result="shadowOffsetOuter1"></feOffset>
            <feColorMatrix values="0 0 0 0 0.109803922   0 0 0 0 0.0156862745   0 0 0 0 0.250980392  0 0 0 0.156125369 0" type="matrix" in="shadowOffsetOuter1"></feColorMatrix>
        </filter>
        <linearGradient x1="9.93655111%" y1="50.2765282%" x2="101.403016%" y2="50.2765282%" id="linearGradient-29">
            <stop stop-color="#27108C" offset="0%"></stop>
            <stop stop-color="#481AB4" offset="44.0542368%"></stop>
            <stop stop-color="#2B0D90" offset="99.9011487%"></stop>
        </linearGradient>
        <linearGradient x1="50%" y1="0%" x2="50%" y2="100%" id="linearGradient-30">
            <stop stop-color="#F0E9FF" offset="0%"></stop>
            <stop stop-color="#BED2FF" offset="100%"></stop>
        </linearGradient>
        <circle id="path-31" cx="11.4329268" cy="2.10365854" r="2.10365854"></circle>
        <filter x="-23.8%" y="-23.8%" width="147.5%" height="147.5%" filterUnits="objectBoundingBox" id="filter-32">
            <feGaussianBlur stdDeviation="0.5" in="SourceAlpha" result="shadowBlurInner1"></feGaussianBlur>
            <feOffset dx="0" dy="0" in="shadowBlurInner1" result="shadowOffsetInner1"></feOffset>
            <feComposite in="shadowOffsetInner1" in2="SourceAlpha" operator="arithmetic" k2="-1" k3="1" result="shadowInnerInner1"></feComposite>
            <feColorMatrix values="0 0 0 0 0.484672732   0 0 0 0 0.660750155   0 0 0 0 1  0 0 0 1 0" type="matrix" in="shadowInnerInner1" result="shadowMatrixInner1"></feColorMatrix>
            <feGaussianBlur stdDeviation="0.5" in="SourceAlpha" result="shadowBlurInner2"></feGaussianBlur>
            <feOffset dx="0" dy="1" in="shadowBlurInner2" result="shadowOffsetInner2"></feOffset>
            <feComposite in="shadowOffsetInner2" in2="SourceAlpha" operator="arithmetic" k2="-1" k3="1" result="shadowInnerInner2"></feComposite>
            <feColorMatrix values="0 0 0 0 0.769546568   0 0 0 0 0.74022842   0 0 0 0 1  0 0 0 0.5 0" type="matrix" in="shadowInnerInner2" result="shadowMatrixInner2"></feColorMatrix>
            <feMerge>
                <feMergeNode in="shadowMatrixInner1"></feMergeNode>
                <feMergeNode in="shadowMatrixInner2"></feMergeNode>
            </feMerge>
        </filter>
    </defs>
    <g id="一站式部署知识库-36" stroke="none" stroke-width="1" fill="none" fill-rule="evenodd">
        <g id="编组-33备份-5" transform="translate(3, 3)">
            <g id="蒙版">
                <use fill="black" fill-opacity="1" filter="url(#filter-3)" xlink:href="#path-2"></use>
                <use fill="url(#linearGradient-1)" fill-rule="evenodd" xlink:href="#path-2"></use>
            </g>
            <g id="编组" transform="translate(3.4756, 3.811)">
                <g id="编组-29" transform="translate(0, 7.8659)">
                    <path d="M1.73780488,0 C1.92941756,-3.51986795e-17 2.08624045,0.152474889 2.09162663,0.344011859 L2.18226689,3.56725388 C2.1891697,3.81272348 1.99577312,4.01731173 1.75030352,4.02421454 C1.74613834,4.02433167 1.74197171,4.02439024 1.73780488,4.02439024 C1.49223825,4.02439024 1.29316716,3.82531916 1.29316716,3.57975253 C1.29316716,3.57558569 1.29322573,3.57141907 1.29334286,3.56725388 L1.38398313,0.344011859 C1.38936931,0.152474889 1.54619219,3.51986795e-17 1.73780488,0 Z" id="矩形" fill="url(#linearGradient-4)"></path>
                    <g id="形状结合">
                        <use fill="url(#linearGradient-5)" fill-rule="evenodd" xlink:href="#path-6"></use>
                        <use fill="black" fill-opacity="1" filter="url(#filter-7)" xlink:href="#path-6"></use>
                    </g>
                </g>
                <g id="编组-29" transform="translate(21.5854, 12.439) scale(-1, 1) translate(-21.5854, -12.439)translate(20.122, 7.8659)">
                    <path d="M1.73780488,0 C1.92941756,-3.51986795e-17 2.08624045,0.152474889 2.09162663,0.344011859 L2.18226689,3.56725388 C2.1891697,3.81272348 1.99577312,4.01731173 1.75030352,4.02421454 C1.74613834,4.02433167 1.74197171,4.02439024 1.73780488,4.02439024 C1.49223825,4.02439024 1.29316716,3.82531916 1.29316716,3.57975253 C1.29316716,3.57558569 1.29322573,3.57141907 1.29334286,3.56725388 L1.38398313,0.344011859 C1.38936931,0.152474889 1.54619219,3.51986795e-17 1.73780488,0 Z" id="矩形" fill="url(#linearGradient-4)"></path>
                    <g id="形状结合">
                        <use fill="url(#linearGradient-5)" fill-rule="evenodd" xlink:href="#path-8"></use>
                        <use fill="black" fill-opacity="1" filter="url(#filter-9)" xlink:href="#path-8"></use>
                    </g>
                </g>
                <g id="椭圆形">
                    <use fill="url(#linearGradient-10)" fill-rule="evenodd" xlink:href="#path-11"></use>
                    <use fill="black" fill-opacity="1" filter="url(#filter-12)" xlink:href="#path-11"></use>
                </g>
                <g id="路径">
                    <use fill="black" fill-opacity="1" filter="url(#filter-15)" xlink:href="#path-14"></use>
                    <use fill="url(#linearGradient-13)" fill-rule="evenodd" xlink:href="#path-14"></use>
                    <use fill="black" fill-opacity="1" filter="url(#filter-16)" xlink:href="#path-14"></use>
                </g>
                <g id="形状结合" transform="translate(3.4756, 8.9634)">
                    <path d="M8.04878049,0 C3.57435341,0 0,2.66175254 0,5.85365854 C0,9.04556454 3.57435341,11.7073171 8.04878049,11.7073171 C12.5232076,11.7073171 16.097561,9.04556454 16.097561,5.85365854 C16.097561,2.66175254 12.5232076,0 8.04878049,0 Z" id="蒙版" fill="url(#linearGradient-17)"></path>
                    <path d="M-0.365853659,0.228658537 L-5.48450174e-14,0.228658537 L-5.48450174e-14,0.594512195 L-0.365853659,0.594512195 Z M-0.365853659,6.08231707 L-0.0914634146,6.08231707 L-0.0914634146,6.35670732 L-0.365853659,6.35670732 Z M8.41463415,0.228658537 L8.68902439,0.228658537 L8.68902439,0.50304878 L8.41463415,0.50304878 Z M8.41463415,6.08231707 L8.68902439,6.08231707 L8.68902439,6.35670732 L8.41463415,6.35670732 Z M-0.365853659,3.1554878 L-0.0914634146,3.1554878 L-0.0914634146,3.42987805 L-0.365853659,3.42987805 Z M-0.365853659,9.00914634 L-0.0914634146,9.00914634 L-0.0914634146,9.28353659 L-0.365853659,9.28353659 Z M8.41463415,3.1554878 L8.68902439,3.1554878 L8.68902439,3.42987805 L8.41463415,3.42987805 Z M8.41463415,9.00914634 L8.68902439,9.00914634 L8.68902439,9.28353659 L8.41463415,9.28353659 Z M-1.09756098,0.960365854 L-0.823170732,0.960365854 L-0.823170732,1.2347561 L-1.09756098,1.2347561 Z M-1.09756098,6.81402439 L-0.823170732,6.81402439 L-0.823170732,7.08841463 L-1.09756098,7.08841463 Z M-1.09756098,3.88719512 L-0.823170732,3.88719512 L-0.823170732,4.16158537 L-1.09756098,4.16158537 Z M-1.09756098,9.74085366 L-0.823170732,9.74085366 L-0.823170732,10.0152439 L-1.09756098,10.0152439 Z M6.95121951,2.42378049 L7.22560976,2.42378049 L7.22560976,2.69817073 L6.95121951,2.69817073 Z M6.95121951,8.27743902 L7.22560976,8.27743902 L7.22560976,8.55182927 L6.95121951,8.55182927 Z M15.7317073,2.42378049 L16.0060976,2.42378049 L16.0060976,2.69817073 L15.7317073,2.69817073 Z M15.7317073,8.27743902 L16.0060976,8.27743902 L16.0060976,8.55182927 L15.7317073,8.55182927 Z M6.95121951,5.35060976 L7.22560976,5.35060976 L7.22560976,5.625 L6.95121951,5.625 Z M6.95121951,11.2042683 L7.22560976,11.2042683 L7.22560976,11.4786585 L6.95121951,11.4786585 Z M15.7317073,5.35060976 L16.0060976,5.35060976 L16.0060976,5.625 L15.7317073,5.625 Z M15.7317073,11.2042683 L16.0060976,11.2042683 L16.0060976,11.4786585 L15.7317073,11.4786585 Z M-1.09756098,2.42378049 L-0.823170732,2.42378049 L-0.823170732,2.69817073 L-1.09756098,2.69817073 Z M-1.09756098,8.27743902 L-0.823170732,8.27743902 L-0.823170732,8.55182927 L-1.09756098,8.55182927 Z M-1.09756098,5.35060976 L-0.823170732,5.35060976 L-0.823170732,5.625 L-1.09756098,5.625 Z M-1.09756098,11.2042683 L-0.823170732,11.2042683 L-0.823170732,11.4786585 L-1.09756098,11.4786585 Z M4.02439024,2.42378049 L4.29878049,2.42378049 L4.29878049,2.69817073 L4.02439024,2.69817073 Z M4.02439024,8.27743902 L4.29878049,8.27743902 L4.29878049,8.55182927 L4.02439024,8.55182927 Z M12.804878,2.42378049 L13.0792683,2.42378049 L13.0792683,2.69817073 L12.804878,2.69817073 Z M12.804878,8.27743902 L13.0792683,8.27743902 L13.0792683,8.55182927 L12.804878,8.55182927 Z M4.02439024,5.35060976 L4.29878049,5.35060976 L4.29878049,5.625 L4.02439024,5.625 Z M4.02439024,11.2042683 L4.29878049,11.2042683 L4.29878049,11.4786585 L4.02439024,11.4786585 Z M12.804878,5.35060976 L13.0792683,5.35060976 L13.0792683,5.625 L12.804878,5.625 Z M12.804878,11.2042683 L13.0792683,11.2042683 L13.0792683,11.4786585 L12.804878,11.4786585 Z M1.09756098,0.960365854 L1.37195122,0.960365854 L1.37195122,1.2347561 L1.09756098,1.2347561 Z M1.09756098,6.81402439 L1.37195122,6.81402439 L1.37195122,7.08841463 L1.09756098,7.08841463 Z M9.87804878,0.960365854 L10.152439,0.960365854 L10.152439,1.2347561 L9.87804878,1.2347561 Z M9.87804878,6.81402439 L10.152439,6.81402439 L10.152439,7.08841463 L9.87804878,7.08841463 Z M1.09756098,3.88719512 L1.37195122,3.88719512 L1.37195122,4.16158537 L1.09756098,4.16158537 Z M1.09756098,9.74085366 L1.37195122,9.74085366 L1.37195122,10.0152439 L1.09756098,10.0152439 Z M9.87804878,3.88719512 L10.152439,3.88719512 L10.152439,4.16158537 L9.87804878,4.16158537 Z M9.87804878,9.74085366 L10.152439,9.74085366 L10.152439,10.0152439 L9.87804878,10.0152439 Z M0.365853659,1.69207317 L0.640243902,1.69207317 L0.640243902,1.96646341 L0.365853659,1.96646341 Z M0.365853659,7.54573171 L0.640243902,7.54573171 L0.640243902,7.82012195 L0.365853659,7.82012195 Z M9.14634146,1.69207317 L9.42073171,1.69207317 L9.42073171,1.96646341 L9.14634146,1.96646341 Z M9.14634146,7.54573171 L9.42073171,7.54573171 L9.42073171,7.82012195 L9.14634146,7.82012195 Z M0.365853659,4.61890244 L0.640243902,4.61890244 L0.640243902,4.89329268 L0.365853659,4.89329268 Z M0.365853659,10.472561 L0.640243902,10.472561 L0.640243902,10.7469512 L0.365853659,10.7469512 Z M9.14634146,4.61890244 L9.42073171,4.61890244 L9.42073171,4.89329268 L9.14634146,4.89329268 Z M9.14634146,10.472561 L9.42073171,10.472561 L9.42073171,10.7469512 L9.14634146,10.7469512 Z M0.365853659,2.42378049 L0.640243902,2.42378049 L0.640243902,2.69817073 L0.365853659,2.69817073 Z M0.365853659,8.27743902 L0.640243902,8.27743902 L0.640243902,8.55182927 L0.365853659,8.55182927 Z M9.14634146,2.42378049 L9.42073171,2.42378049 L9.42073171,2.69817073 L9.14634146,2.69817073 Z M9.14634146,8.27743902 L9.42073171,8.27743902 L9.42073171,8.55182927 L9.14634146,8.55182927 Z M0.365853659,5.35060976 L0.640243902,5.35060976 L0.640243902,5.625 L0.365853659,5.625 Z M0.365853659,11.2042683 L0.640243902,11.2042683 L0.640243902,11.4786585 L0.365853659,11.4786585 Z M9.14634146,5.35060976 L9.42073171,5.35060976 L9.42073171,5.625 L9.14634146,5.625 Z M9.14634146,11.2042683 L9.42073171,11.2042683 L9.42073171,11.4786585 L9.14634146,11.4786585 Z M3.29268293,0.960365854 L3.56707317,0.960365854 L3.56707317,1.2347561 L3.29268293,1.2347561 Z M3.29268293,6.81402439 L3.56707317,6.81402439 L3.56707317,7.08841463 L3.29268293,7.08841463 Z M12.0731707,0.960365854 L12.347561,0.960365854 L12.347561,1.2347561 L12.0731707,1.2347561 Z M12.0731707,6.81402439 L12.347561,6.81402439 L12.347561,7.08841463 L12.0731707,7.08841463 Z M3.29268293,3.88719512 L3.56707317,3.88719512 L3.56707317,4.16158537 L3.29268293,4.16158537 Z M3.29268293,9.74085366 L3.56707317,9.74085366 L3.56707317,10.0152439 L3.29268293,10.0152439 Z M12.0731707,3.88719512 L12.347561,3.88719512 L12.347561,4.16158537 L12.0731707,4.16158537 Z M12.0731707,9.74085366 L12.347561,9.74085366 L12.347561,10.0152439 L12.0731707,10.0152439 Z M4.75609756,1.69207317 L5.0304878,1.69207317 L5.0304878,1.96646341 L4.75609756,1.96646341 Z M4.75609756,7.54573171 L5.0304878,7.54573171 L5.0304878,7.82012195 L4.75609756,7.82012195 Z M13.5365854,1.69207317 L13.8109756,1.69207317 L13.8109756,1.96646341 L13.5365854,1.96646341 Z M13.5365854,7.54573171 L13.8109756,7.54573171 L13.8109756,7.82012195 L13.5365854,7.82012195 Z M4.75609756,4.61890244 L5.0304878,4.61890244 L5.0304878,4.89329268 L4.75609756,4.89329268 Z M4.75609756,10.472561 L5.0304878,10.472561 L5.0304878,10.7469512 L4.75609756,10.7469512 Z M13.5365854,4.61890244 L13.8109756,4.61890244 L13.8109756,4.89329268 L13.5365854,4.89329268 Z M13.5365854,10.472561 L13.8109756,10.472561 L13.8109756,10.7469512 L13.5365854,10.7469512 Z M6.95121951,1.69207317 L7.22560976,1.69207317 L7.22560976,1.96646341 L6.95121951,1.96646341 Z M6.95121951,7.54573171 L7.22560976,7.54573171 L7.22560976,7.82012195 L6.95121951,7.82012195 Z M15.7317073,1.69207317 L16.0060976,1.69207317 L16.0060976,1.96646341 L15.7317073,1.96646341 Z M15.7317073,7.54573171 L16.0060976,7.54573171 L16.0060976,7.82012195 L15.7317073,7.82012195 Z M6.95121951,4.61890244 L7.22560976,4.61890244 L7.22560976,4.89329268 L6.95121951,4.89329268 Z M6.95121951,10.472561 L7.22560976,10.472561 L7.22560976,10.7469512 L6.95121951,10.7469512 Z M15.7317073,4.61890244 L16.0060976,4.61890244 L16.0060976,4.89329268 L15.7317073,4.89329268 Z M15.7317073,10.472561 L16.0060976,10.472561 L16.0060976,10.7469512 L15.7317073,10.7469512 Z M6.95121951,0.228658537 L7.22560976,0.228658537 L7.22560976,0.50304878 L6.95121951,0.50304878 Z M6.95121951,6.08231707 L7.22560976,6.08231707 L7.22560976,6.35670732 L6.95121951,6.35670732 Z M15.7317073,0.228658537 L16.0060976,0.228658537 L16.0060976,0.50304878 L15.7317073,0.50304878 Z M15.7317073,6.08231707 L16.0060976,6.08231707 L16.0060976,6.35670732 L15.7317073,6.35670732 Z M6.95121951,3.1554878 L7.22560976,3.1554878 L7.22560976,3.42987805 L6.95121951,3.42987805 Z M6.95121951,9.00914634 L7.22560976,9.00914634 L7.22560976,9.28353659 L6.95121951,9.28353659 Z M15.7317073,3.1554878 L16.0060976,3.1554878 L16.0060976,3.42987805 L15.7317073,3.42987805 Z M15.7317073,9.00914634 L16.0060976,9.00914634 L16.0060976,9.28353659 L15.7317073,9.28353659 Z M6.2195122,0.960365854 L6.49390244,0.960365854 L6.49390244,1.2347561 L6.2195122,1.2347561 Z M6.2195122,6.81402439 L6.49390244,6.81402439 L6.49390244,7.08841463 L6.2195122,7.08841463 Z M15,0.960365854 L15.2743902,0.960365854 L15.2743902,1.2347561 L15,1.2347561 Z M15,6.81402439 L15.2743902,6.81402439 L15.2743902,7.08841463 L15,7.08841463 Z M6.2195122,3.88719512 L6.49390244,3.88719512 L6.49390244,4.16158537 L6.2195122,4.16158537 Z M6.2195122,9.74085366 L6.49390244,9.74085366 L6.49390244,10.0152439 L6.2195122,10.0152439 Z M15,3.88719512 L15.2743902,3.88719512 L15.2743902,4.16158537 L15,4.16158537 Z M15,9.74085366 L15.2743902,9.74085366 L15.2743902,10.0152439 L15,10.0152439 Z M-1.09756098,6.08231707 L-0.823170732,6.08231707 L-0.823170732,6.35670732 L-1.09756098,6.35670732 Z M-1.09756098,3.1554878 L-0.823170732,3.1554878 L-0.823170732,3.42987805 L-1.09756098,3.42987805 Z M-1.09756098,9.00914634 L-0.823170732,9.00914634 L-0.823170732,9.28353659 L-1.09756098,9.28353659 Z M16.4634146,2.42378049 L16.7378049,2.42378049 L16.7378049,2.69817073 L16.4634146,2.69817073 Z M16.4634146,8.27743902 L16.7378049,8.27743902 L16.7378049,8.55182927 L16.4634146,8.55182927 Z M16.4634146,5.35060976 L16.7378049,5.35060976 L16.7378049,5.625 L16.4634146,5.625 Z M16.4634146,11.2042683 L16.7378049,11.2042683 L16.7378049,11.4786585 L16.4634146,11.4786585 Z M-0.365853659,1.69207317 L-0.0914634146,1.69207317 L-0.0914634146,1.96646341 L-0.365853659,1.96646341 Z M-0.365853659,7.54573171 L-0.0914634146,7.54573171 L-0.0914634146,7.82012195 L-0.365853659,7.82012195 Z M8.41463415,1.69207317 L8.68902439,1.69207317 L8.68902439,1.96646341 L8.41463415,1.96646341 Z M8.41463415,7.54573171 L8.68902439,7.54573171 L8.68902439,7.82012195 L8.41463415,7.82012195 Z M-0.365853659,4.61890244 L-0.0914634146,4.61890244 L-0.0914634146,4.89329268 L-0.365853659,4.89329268 Z M-0.365853659,10.472561 L-0.0914634146,10.472561 L-0.0914634146,10.7469512 L-0.365853659,10.7469512 Z M8.41463415,4.61890244 L8.68902439,4.61890244 L8.68902439,4.89329268 L8.41463415,4.89329268 Z M8.41463415,10.472561 L8.68902439,10.472561 L8.68902439,10.7469512 L8.41463415,10.7469512 Z M-0.365853659,2.42378049 L-0.0914634146,2.42378049 L-0.0914634146,2.69817073 L-0.365853659,2.69817073 Z M-0.365853659,8.27743902 L-0.0914634146,8.27743902 L-0.0914634146,8.55182927 L-0.365853659,8.55182927 Z M8.41463415,2.42378049 L8.68902439,2.42378049 L8.68902439,2.69817073 L8.41463415,2.69817073 Z M8.41463415,8.27743902 L8.68902439,8.27743902 L8.68902439,8.55182927 L8.41463415,8.55182927 Z M-0.365853659,5.35060976 L-0.0914634146,5.35060976 L-0.0914634146,5.625 L-0.365853659,5.625 Z M-0.365853659,11.2042683 L-0.0914634146,11.2042683 L-0.0914634146,11.4786585 L-0.365853659,11.4786585 Z M8.41463415,5.35060976 L8.68902439,5.35060976 L8.68902439,5.625 L8.41463415,5.625 Z M8.41463415,11.2042683 L8.68902439,11.2042683 L8.68902439,11.4786585 L8.41463415,11.4786585 Z M1.09756098,0.228658537 L1.37195122,0.228658537 L1.37195122,0.50304878 L1.09756098,0.50304878 Z M1.09756098,6.08231707 L1.37195122,6.08231707 L1.37195122,6.35670732 L1.09756098,6.35670732 Z M9.87804878,0.228658537 L10.152439,0.228658537 L10.152439,0.50304878 L9.87804878,0.50304878 Z M9.87804878,6.08231707 L10.152439,6.08231707 L10.152439,6.35670732 L9.87804878,6.35670732 Z M1.09756098,3.1554878 L1.37195122,3.1554878 L1.37195122,3.42987805 L1.09756098,3.42987805 Z M1.09756098,9.00914634 L1.37195122,9.00914634 L1.37195122,9.28353659 L1.09756098,9.28353659 Z M9.87804878,3.1554878 L10.152439,3.1554878 L10.152439,3.42987805 L9.87804878,3.42987805 Z M9.87804878,9.00914634 L10.152439,9.00914634 L10.152439,9.28353659 L9.87804878,9.28353659 Z M0.365853659,0.960365854 L0.640243902,0.960365854 L0.640243902,1.2347561 L0.365853659,1.2347561 Z M0.365853659,6.81402439 L0.640243902,6.81402439 L0.640243902,7.08841463 L0.365853659,7.08841463 Z M9.14634146,0.960365854 L9.42073171,0.960365854 L9.42073171,1.2347561 L9.14634146,1.2347561 Z M9.14634146,6.81402439 L9.42073171,6.81402439 L9.42073171,7.08841463 L9.14634146,7.08841463 Z M0.365853659,3.88719512 L0.640243902,3.88719512 L0.640243902,4.16158537 L0.365853659,4.16158537 Z M0.365853659,9.74085366 L0.640243902,9.74085366 L0.640243902,10.0152439 L0.365853659,10.0152439 Z M9.14634146,3.88719512 L9.42073171,3.88719512 L9.42073171,4.16158537 L9.14634146,4.16158537 Z M9.14634146,9.74085366 L9.42073171,9.74085366 L9.42073171,10.0152439 L9.14634146,10.0152439 Z M1.82926829,1.69207317 L2.10365854,1.69207317 L2.10365854,1.96646341 L1.82926829,1.96646341 Z M1.82926829,7.54573171 L2.10365854,7.54573171 L2.10365854,7.82012195 L1.82926829,7.82012195 Z M10.6097561,1.69207317 L10.8841463,1.69207317 L10.8841463,1.96646341 L10.6097561,1.96646341 Z M10.6097561,7.54573171 L10.8841463,7.54573171 L10.8841463,7.82012195 L10.6097561,7.82012195 Z M1.82926829,4.61890244 L2.10365854,4.61890244 L2.10365854,4.89329268 L1.82926829,4.89329268 Z M1.82926829,10.472561 L2.10365854,10.472561 L2.10365854,10.7469512 L1.82926829,10.7469512 Z M10.6097561,4.61890244 L10.8841463,4.61890244 L10.8841463,4.89329268 L10.6097561,4.89329268 Z M10.6097561,10.472561 L10.8841463,10.472561 L10.8841463,10.7469512 L10.6097561,10.7469512 Z M2.56097561,2.42378049 L2.83536585,2.42378049 L2.83536585,2.69817073 L2.56097561,2.69817073 Z M2.56097561,8.27743902 L2.83536585,8.27743902 L2.83536585,8.55182927 L2.56097561,8.55182927 Z M11.3414634,2.42378049 L11.6158537,2.42378049 L11.6158537,2.69817073 L11.3414634,2.69817073 Z M11.3414634,8.27743902 L11.6158537,8.27743902 L11.6158537,8.55182927 L11.3414634,8.55182927 Z M2.56097561,5.35060976 L2.83536585,5.35060976 L2.83536585,5.625 L2.56097561,5.625 Z M2.56097561,11.2042683 L2.83536585,11.2042683 L2.83536585,11.4786585 L2.56097561,11.4786585 Z M11.3414634,5.35060976 L11.6158537,5.35060976 L11.6158537,5.625 L11.3414634,5.625 Z M11.3414634,11.2042683 L11.6158537,11.2042683 L11.6158537,11.4786585 L11.3414634,11.4786585 Z M3.29268293,0.228658537 L3.56707317,0.228658537 L3.56707317,0.50304878 L3.29268293,0.50304878 Z M3.29268293,6.08231707 L3.56707317,6.08231707 L3.56707317,6.35670732 L3.29268293,6.35670732 Z M12.0731707,0.228658537 L12.347561,0.228658537 L12.347561,0.50304878 L12.0731707,0.50304878 Z M12.0731707,6.08231707 L12.347561,6.08231707 L12.347561,6.35670732 L12.0731707,6.35670732 Z M3.29268293,3.1554878 L3.56707317,3.1554878 L3.56707317,3.42987805 L3.29268293,3.42987805 Z M3.29268293,9.00914634 L3.56707317,9.00914634 L3.56707317,9.28353659 L3.29268293,9.28353659 Z M12.0731707,3.1554878 L12.347561,3.1554878 L12.347561,3.42987805 L12.0731707,3.42987805 Z M12.0731707,9.00914634 L12.347561,9.00914634 L12.347561,9.28353659 L12.0731707,9.28353659 Z M4.02439024,0.960365854 L4.29878049,0.960365854 L4.29878049,1.2347561 L4.02439024,1.2347561 Z M4.02439024,6.81402439 L4.29878049,6.81402439 L4.29878049,7.08841463 L4.02439024,7.08841463 Z M12.804878,0.960365854 L13.0792683,0.960365854 L13.0792683,1.2347561 L12.804878,1.2347561 Z M12.804878,6.81402439 L13.0792683,6.81402439 L13.0792683,7.08841463 L12.804878,7.08841463 Z M4.02439024,3.88719512 L4.29878049,3.88719512 L4.29878049,4.16158537 L4.02439024,4.16158537 Z M4.02439024,9.74085366 L4.29878049,9.74085366 L4.29878049,10.0152439 L4.02439024,10.0152439 Z M12.804878,3.88719512 L13.0792683,3.88719512 L13.0792683,4.16158537 L12.804878,4.16158537 Z M12.804878,9.74085366 L13.0792683,9.74085366 L13.0792683,10.0152439 L12.804878,10.0152439 Z M2.56097561,1.69207317 L2.83536585,1.69207317 L2.83536585,1.96646341 L2.56097561,1.96646341 Z M2.56097561,7.54573171 L2.83536585,7.54573171 L2.83536585,7.82012195 L2.56097561,7.82012195 Z M11.3414634,1.69207317 L11.6158537,1.69207317 L11.6158537,1.96646341 L11.3414634,1.96646341 Z M11.3414634,7.54573171 L11.6158537,7.54573171 L11.6158537,7.82012195 L11.3414634,7.82012195 Z M2.56097561,4.61890244 L2.83536585,4.61890244 L2.83536585,4.89329268 L2.56097561,4.89329268 Z M2.56097561,10.472561 L2.83536585,10.472561 L2.83536585,10.7469512 L2.56097561,10.7469512 Z M11.3414634,4.61890244 L11.6158537,4.61890244 L11.6158537,4.89329268 L11.3414634,4.89329268 Z M11.3414634,10.472561 L11.6158537,10.472561 L11.6158537,10.7469512 L11.3414634,10.7469512 Z M4.75609756,0.228658537 L5.0304878,0.228658537 L5.0304878,0.50304878 L4.75609756,0.50304878 Z M4.75609756,6.08231707 L5.0304878,6.08231707 L5.0304878,6.35670732 L4.75609756,6.35670732 Z M13.5365854,0.228658537 L13.8109756,0.228658537 L13.8109756,0.50304878 L13.5365854,0.50304878 Z M13.5365854,6.08231707 L13.8109756,6.08231707 L13.8109756,6.35670732 L13.5365854,6.35670732 Z M4.75609756,3.1554878 L5.0304878,3.1554878 L5.0304878,3.42987805 L4.75609756,3.42987805 Z M4.75609756,9.00914634 L5.0304878,9.00914634 L5.0304878,9.28353659 L4.75609756,9.28353659 Z M13.5365854,3.1554878 L13.8109756,3.1554878 L13.8109756,3.42987805 L13.5365854,3.42987805 Z M13.5365854,9.00914634 L13.8109756,9.00914634 L13.8109756,9.28353659 L13.5365854,9.28353659 Z M6.95121951,0.960365854 L7.22560976,0.960365854 L7.22560976,1.2347561 L6.95121951,1.2347561 Z M6.95121951,6.81402439 L7.22560976,6.81402439 L7.22560976,7.08841463 L6.95121951,7.08841463 Z M15.7317073,0.960365854 L16.0060976,0.960365854 L16.0060976,1.2347561 L15.7317073,1.2347561 Z M15.7317073,6.81402439 L16.0060976,6.81402439 L16.0060976,7.08841463 L15.7317073,7.08841463 Z M6.95121951,3.88719512 L7.22560976,3.88719512 L7.22560976,4.16158537 L6.95121951,4.16158537 Z M6.95121951,9.74085366 L7.22560976,9.74085366 L7.22560976,10.0152439 L6.95121951,10.0152439 Z M15.7317073,3.88719512 L16.0060976,3.88719512 L16.0060976,4.16158537 L15.7317073,4.16158537 Z M15.7317073,9.74085366 L16.0060976,9.74085366 L16.0060976,10.0152439 L15.7317073,10.0152439 Z M5.48780488,1.69207317 L5.76219512,1.69207317 L5.76219512,1.96646341 L5.48780488,1.96646341 Z M5.48780488,7.54573171 L5.76219512,7.54573171 L5.76219512,7.82012195 L5.48780488,7.82012195 Z M14.2682927,1.69207317 L14.5426829,1.69207317 L14.5426829,1.96646341 L14.2682927,1.96646341 Z M14.2682927,7.54573171 L14.5426829,7.54573171 L14.5426829,7.82012195 L14.2682927,7.82012195 Z M5.48780488,4.61890244 L5.76219512,4.61890244 L5.76219512,4.89329268 L5.48780488,4.89329268 Z M5.48780488,10.472561 L5.76219512,10.472561 L5.76219512,10.7469512 L5.48780488,10.7469512 Z M14.2682927,4.61890244 L14.5426829,4.61890244 L14.5426829,4.89329268 L14.2682927,4.89329268 Z M14.2682927,10.472561 L14.5426829,10.472561 L14.5426829,10.7469512 L14.2682927,10.7469512 Z M-0.365853659,0.960365854 L-0.0914634146,0.960365854 L-0.0914634146,1.2347561 L-0.365853659,1.2347561 Z M-0.365853659,6.81402439 L-0.0914634146,6.81402439 L-0.0914634146,7.08841463 L-0.365853659,7.08841463 Z M8.41463415,0.960365854 L8.68902439,0.960365854 L8.68902439,1.2347561 L8.41463415,1.2347561 Z M8.41463415,6.81402439 L8.68902439,6.81402439 L8.68902439,7.08841463 L8.41463415,7.08841463 Z M-0.365853659,3.88719512 L-0.0914634146,3.88719512 L-0.0914634146,4.16158537 L-0.365853659,4.16158537 Z M-0.365853659,9.74085366 L-0.0914634146,9.74085366 L-0.0914634146,10.0152439 L-0.365853659,10.0152439 Z M8.41463415,3.88719512 L8.68902439,3.88719512 L8.68902439,4.16158537 L8.41463415,4.16158537 Z M8.41463415,9.74085366 L8.68902439,9.74085366 L8.68902439,10.0152439 L8.41463415,10.0152439 Z M6.2195122,2.42378049 L6.49390244,2.42378049 L6.49390244,2.69817073 L6.2195122,2.69817073 Z M6.2195122,8.27743902 L6.49390244,8.27743902 L6.49390244,8.55182927 L6.2195122,8.55182927 Z M15,2.42378049 L15.2743902,2.42378049 L15.2743902,2.69817073 L15,2.69817073 Z M15,8.27743902 L15.2743902,8.27743902 L15.2743902,8.55182927 L15,8.55182927 Z M6.2195122,5.35060976 L6.49390244,5.35060976 L6.49390244,5.625 L6.2195122,5.625 Z M6.2195122,11.2042683 L6.49390244,11.2042683 L6.49390244,11.4786585 L6.2195122,11.4786585 Z M15,5.35060976 L15.2743902,5.35060976 L15.2743902,5.625 L15,5.625 Z M15,11.2042683 L15.2743902,11.2042683 L15.2743902,11.4786585 L15,11.4786585 Z M5.48780488,2.42378049 L5.76219512,2.42378049 L5.76219512,2.69817073 L5.48780488,2.69817073 Z M5.48780488,8.27743902 L5.76219512,8.27743902 L5.76219512,8.55182927 L5.48780488,8.55182927 Z M14.2682927,2.42378049 L14.5426829,2.42378049 L14.5426829,2.69817073 L14.2682927,2.69817073 Z M14.2682927,8.27743902 L14.5426829,8.27743902 L14.5426829,8.55182927 L14.2682927,8.55182927 Z M5.48780488,5.35060976 L5.76219512,5.35060976 L5.76219512,5.625 L5.48780488,5.625 Z M5.48780488,11.2042683 L5.76219512,11.2042683 L5.76219512,11.4786585 L5.48780488,11.4786585 Z M14.2682927,5.35060976 L14.5426829,5.35060976 L14.5426829,5.625 L14.2682927,5.625 Z M14.2682927,11.2042683 L14.5426829,11.2042683 L14.5426829,11.4786585 L14.2682927,11.4786585 Z M1.82926829,0.228658537 L2.10365854,0.228658537 L2.10365854,0.50304878 L1.82926829,0.50304878 Z M1.82926829,6.08231707 L2.10365854,6.08231707 L2.10365854,6.35670732 L1.82926829,6.35670732 Z M10.6097561,0.228658537 L10.8841463,0.228658537 L10.8841463,0.50304878 L10.6097561,0.50304878 Z M10.6097561,6.08231707 L10.8841463,6.08231707 L10.8841463,6.35670732 L10.6097561,6.35670732 Z M1.82926829,3.1554878 L2.10365854,3.1554878 L2.10365854,3.42987805 L1.82926829,3.42987805 Z M1.82926829,9.00914634 L2.10365854,9.00914634 L2.10365854,9.28353659 L1.82926829,9.28353659 Z M10.6097561,3.1554878 L10.8841463,3.1554878 L10.8841463,3.42987805 L10.6097561,3.42987805 Z M10.6097561,9.00914634 L10.8841463,9.00914634 L10.8841463,9.28353659 L10.6097561,9.28353659 Z M3.29268293,2.42378049 L3.56707317,2.42378049 L3.56707317,2.69817073 L3.29268293,2.69817073 Z M3.29268293,8.27743902 L3.56707317,8.27743902 L3.56707317,8.55182927 L3.29268293,8.55182927 Z M12.0731707,2.42378049 L12.347561,2.42378049 L12.347561,2.69817073 L12.0731707,2.69817073 Z M12.0731707,8.27743902 L12.347561,8.27743902 L12.347561,8.55182927 L12.0731707,8.55182927 Z M3.29268293,5.35060976 L3.56707317,5.35060976 L3.56707317,5.625 L3.29268293,5.625 Z M3.29268293,11.2042683 L3.56707317,11.2042683 L3.56707317,11.4786585 L3.29268293,11.4786585 Z M12.0731707,5.35060976 L12.347561,5.35060976 L12.347561,5.625 L12.0731707,5.625 Z M12.0731707,11.2042683 L12.347561,11.2042683 L12.347561,11.4786585 L12.0731707,11.4786585 Z M1.82926829,2.42378049 L2.10365854,2.42378049 L2.10365854,2.69817073 L1.82926829,2.69817073 Z M1.82926829,8.27743902 L2.10365854,8.27743902 L2.10365854,8.55182927 L1.82926829,8.55182927 Z M10.6097561,2.42378049 L10.8841463,2.42378049 L10.8841463,2.69817073 L10.6097561,2.69817073 Z M10.6097561,8.27743902 L10.8841463,8.27743902 L10.8841463,8.55182927 L10.6097561,8.55182927 Z M1.82926829,5.35060976 L2.10365854,5.35060976 L2.10365854,5.625 L1.82926829,5.625 Z M1.82926829,11.2042683 L2.10365854,11.2042683 L2.10365854,11.4786585 L1.82926829,11.4786585 Z M10.6097561,5.35060976 L10.8841463,5.35060976 L10.8841463,5.625 L10.6097561,5.625 Z M10.6097561,11.2042683 L10.8841463,11.2042683 L10.8841463,11.4786585 L10.6097561,11.4786585 Z M2.56097561,0.228658537 L2.83536585,0.228658537 L2.83536585,0.50304878 L2.56097561,0.50304878 Z M2.56097561,6.08231707 L2.83536585,6.08231707 L2.83536585,6.35670732 L2.56097561,6.35670732 Z M11.3414634,0.228658537 L11.6158537,0.228658537 L11.6158537,0.50304878 L11.3414634,0.50304878 Z M11.3414634,6.08231707 L11.6158537,6.08231707 L11.6158537,6.35670732 L11.3414634,6.35670732 Z M2.56097561,3.1554878 L2.83536585,3.1554878 L2.83536585,3.42987805 L2.56097561,3.42987805 Z M2.56097561,9.00914634 L2.83536585,9.00914634 L2.83536585,9.28353659 L2.56097561,9.28353659 Z M11.3414634,3.1554878 L11.6158537,3.1554878 L11.6158537,3.42987805 L11.3414634,3.42987805 Z M11.3414634,9.00914634 L11.6158537,9.00914634 L11.6158537,9.28353659 L11.3414634,9.28353659 Z M2.56097561,0.960365854 L2.83536585,0.960365854 L2.83536585,1.2347561 L2.56097561,1.2347561 Z M2.56097561,6.81402439 L2.83536585,6.81402439 L2.83536585,7.08841463 L2.56097561,7.08841463 Z M11.3414634,0.960365854 L11.6158537,0.960365854 L11.6158537,1.2347561 L11.3414634,1.2347561 Z M11.3414634,6.81402439 L11.6158537,6.81402439 L11.6158537,7.08841463 L11.3414634,7.08841463 Z M2.56097561,3.88719512 L2.83536585,3.88719512 L2.83536585,4.16158537 L2.56097561,4.16158537 Z M2.56097561,9.74085366 L2.83536585,9.74085366 L2.83536585,10.0152439 L2.56097561,10.0152439 Z M11.3414634,3.88719512 L11.6158537,3.88719512 L11.6158537,4.16158537 L11.3414634,4.16158537 Z M11.3414634,9.74085366 L11.6158537,9.74085366 L11.6158537,10.0152439 L11.3414634,10.0152439 Z M3.29268293,1.69207317 L3.56707317,1.69207317 L3.56707317,1.96646341 L3.29268293,1.96646341 Z M3.29268293,7.54573171 L3.56707317,7.54573171 L3.56707317,7.82012195 L3.29268293,7.82012195 Z M12.0731707,1.69207317 L12.347561,1.69207317 L12.347561,1.96646341 L12.0731707,1.96646341 Z M12.0731707,7.54573171 L12.347561,7.54573171 L12.347561,7.82012195 L12.0731707,7.82012195 Z M3.29268293,4.61890244 L3.56707317,4.61890244 L3.56707317,4.89329268 L3.29268293,4.89329268 Z M3.29268293,10.472561 L3.56707317,10.472561 L3.56707317,10.7469512 L3.29268293,10.7469512 Z M12.0731707,4.61890244 L12.347561,4.61890244 L12.347561,4.89329268 L12.0731707,4.89329268 Z M12.0731707,10.472561 L12.347561,10.472561 L12.347561,10.7469512 L12.0731707,10.7469512 Z M6.2195122,1.69207317 L6.49390244,1.69207317 L6.49390244,1.96646341 L6.2195122,1.96646341 Z M6.2195122,7.54573171 L6.49390244,7.54573171 L6.49390244,7.82012195 L6.2195122,7.82012195 Z M15,1.69207317 L15.2743902,1.69207317 L15.2743902,1.96646341 L15,1.96646341 Z M15,7.54573171 L15.2743902,7.54573171 L15.2743902,7.82012195 L15,7.82012195 Z M6.2195122,4.61890244 L6.49390244,4.61890244 L6.49390244,4.89329268 L6.2195122,4.89329268 Z M6.2195122,10.472561 L6.49390244,10.472561 L6.49390244,10.7469512 L6.2195122,10.7469512 Z M15,4.61890244 L15.2743902,4.61890244 L15.2743902,4.89329268 L15,4.89329268 Z M15,10.472561 L15.2743902,10.472561 L15.2743902,10.7469512 L15,10.7469512 Z M5.48780488,0.228658537 L5.76219512,0.228658537 L5.76219512,0.50304878 L5.48780488,0.50304878 Z M5.48780488,6.08231707 L5.76219512,6.08231707 L5.76219512,6.35670732 L5.48780488,6.35670732 Z M14.2682927,0.228658537 L14.5426829,0.228658537 L14.5426829,0.50304878 L14.2682927,0.50304878 Z M14.2682927,6.08231707 L14.5426829,6.08231707 L14.5426829,6.35670732 L14.2682927,6.35670732 Z M5.48780488,3.1554878 L5.76219512,3.1554878 L5.76219512,3.42987805 L5.48780488,3.42987805 Z M5.48780488,9.00914634 L5.76219512,9.00914634 L5.76219512,9.28353659 L5.48780488,9.28353659 Z M14.2682927,3.1554878 L14.5426829,3.1554878 L14.5426829,3.42987805 L14.2682927,3.42987805 Z M14.2682927,9.00914634 L14.5426829,9.00914634 L14.5426829,9.28353659 L14.2682927,9.28353659 Z M16.4634146,0.228658537 L16.7378049,0.228658537 L16.7378049,0.50304878 L16.4634146,0.50304878 Z M16.4634146,6.08231707 L16.7378049,6.08231707 L16.7378049,6.35670732 L16.4634146,6.35670732 Z M16.4634146,3.1554878 L16.7378049,3.1554878 L16.7378049,3.42987805 L16.4634146,3.42987805 Z M16.4634146,9.00914634 L16.7378049,9.00914634 L16.7378049,9.28353659 L16.4634146,9.28353659 Z M16.4634146,0.960365854 L16.7378049,0.960365854 L16.7378049,1.2347561 L16.4634146,1.2347561 Z M16.4634146,6.81402439 L16.7378049,6.81402439 L16.7378049,7.08841463 L16.4634146,7.08841463 Z M16.4634146,3.88719512 L16.7378049,3.88719512 L16.7378049,4.16158537 L16.4634146,4.16158537 Z M16.4634146,9.74085366 L16.7378049,9.74085366 L16.7378049,10.0152439 L16.4634146,10.0152439 Z M-1.09756098,1.69207317 L-0.823170732,1.69207317 L-0.823170732,1.96646341 L-1.09756098,1.96646341 Z M-1.09756098,7.54573171 L-0.823170732,7.54573171 L-0.823170732,7.82012195 L-1.09756098,7.82012195 Z M-1.09756098,4.61890244 L-0.823170732,4.61890244 L-0.823170732,4.89329268 L-1.09756098,4.89329268 Z M-1.09756098,10.472561 L-0.823170732,10.472561 L-0.823170732,10.7469512 L-1.09756098,10.7469512 Z M4.75609756,2.42378049 L5.0304878,2.42378049 L5.0304878,2.69817073 L4.75609756,2.69817073 Z M4.75609756,8.27743902 L5.0304878,8.27743902 L5.0304878,8.55182927 L4.75609756,8.55182927 Z M13.5365854,2.42378049 L13.8109756,2.42378049 L13.8109756,2.69817073 L13.5365854,2.69817073 Z M13.5365854,8.27743902 L13.8109756,8.27743902 L13.8109756,8.55182927 L13.5365854,8.55182927 Z M4.75609756,5.35060976 L5.0304878,5.35060976 L5.0304878,5.625 L4.75609756,5.625 Z M4.75609756,11.2042683 L5.0304878,11.2042683 L5.0304878,11.4786585 L4.75609756,11.4786585 Z M13.5365854,5.35060976 L13.8109756,5.35060976 L13.8109756,5.625 L13.5365854,5.625 Z M13.5365854,11.2042683 L13.8109756,11.2042683 L13.8109756,11.4786585 L13.5365854,11.4786585 Z M0.365853659,0.228658537 L0.640243902,0.228658537 L0.640243902,0.50304878 L0.365853659,0.50304878 Z M0.365853659,6.08231707 L0.640243902,6.08231707 L0.640243902,6.35670732 L0.365853659,6.35670732 Z M9.14634146,0.228658537 L9.42073171,0.228658537 L9.42073171,0.50304878 L9.14634146,0.50304878 Z M9.14634146,6.08231707 L9.42073171,6.08231707 L9.42073171,6.35670732 L9.14634146,6.35670732 Z M0.365853659,3.1554878 L0.640243902,3.1554878 L0.640243902,3.42987805 L0.365853659,3.42987805 Z M0.365853659,9.00914634 L0.640243902,9.00914634 L0.640243902,9.28353659 L0.365853659,9.28353659 Z M9.14634146,3.1554878 L9.42073171,3.1554878 L9.42073171,3.42987805 L9.14634146,3.42987805 Z M9.14634146,9.00914634 L9.42073171,9.00914634 L9.42073171,9.28353659 L9.14634146,9.28353659 Z M1.82926829,0.960365854 L2.10365854,0.960365854 L2.10365854,1.2347561 L1.82926829,1.2347561 Z M1.82926829,6.81402439 L2.10365854,6.81402439 L2.10365854,7.08841463 L1.82926829,7.08841463 Z M10.6097561,0.960365854 L10.8841463,0.960365854 L10.8841463,1.2347561 L10.6097561,1.2347561 Z M10.6097561,6.81402439 L10.8841463,6.81402439 L10.8841463,7.08841463 L10.6097561,7.08841463 Z M1.82926829,3.88719512 L2.10365854,3.88719512 L2.10365854,4.16158537 L1.82926829,4.16158537 Z M1.82926829,9.74085366 L2.10365854,9.74085366 L2.10365854,10.0152439 L1.82926829,10.0152439 Z M10.6097561,3.88719512 L10.8841463,3.88719512 L10.8841463,4.16158537 L10.6097561,4.16158537 Z M10.6097561,9.74085366 L10.8841463,9.74085366 L10.8841463,10.0152439 L10.6097561,10.0152439 Z M1.09756098,1.69207317 L1.37195122,1.69207317 L1.37195122,1.96646341 L1.09756098,1.96646341 Z M1.09756098,7.54573171 L1.37195122,7.54573171 L1.37195122,7.82012195 L1.09756098,7.82012195 Z M9.87804878,1.69207317 L10.152439,1.69207317 L10.152439,1.96646341 L9.87804878,1.96646341 Z M9.87804878,7.54573171 L10.152439,7.54573171 L10.152439,7.82012195 L9.87804878,7.82012195 Z M1.09756098,4.61890244 L1.37195122,4.61890244 L1.37195122,4.89329268 L1.09756098,4.89329268 Z M1.09756098,10.472561 L1.37195122,10.472561 L1.37195122,10.7469512 L1.09756098,10.7469512 Z M9.87804878,4.61890244 L10.152439,4.61890244 L10.152439,4.89329268 L9.87804878,4.89329268 Z M9.87804878,10.472561 L10.152439,10.472561 L10.152439,10.7469512 L9.87804878,10.7469512 Z M1.09756098,2.42378049 L1.37195122,2.42378049 L1.37195122,2.69817073 L1.09756098,2.69817073 Z M1.09756098,8.27743902 L1.37195122,8.27743902 L1.37195122,8.55182927 L1.09756098,8.55182927 Z M9.87804878,2.42378049 L10.152439,2.42378049 L10.152439,2.69817073 L9.87804878,2.69817073 Z M9.87804878,8.27743902 L10.152439,8.27743902 L10.152439,8.55182927 L9.87804878,8.55182927 Z M1.09756098,5.35060976 L1.37195122,5.35060976 L1.37195122,5.625 L1.09756098,5.625 Z M1.09756098,11.2042683 L1.37195122,11.2042683 L1.37195122,11.4786585 L1.09756098,11.4786585 Z M9.87804878,5.35060976 L10.152439,5.35060976 L10.152439,5.625 L9.87804878,5.625 Z M9.87804878,11.2042683 L10.152439,11.2042683 L10.152439,11.4786585 L9.87804878,11.4786585 Z M4.02439024,0.228658537 L4.29878049,0.228658537 L4.29878049,0.50304878 L4.02439024,0.50304878 Z M4.02439024,6.08231707 L4.29878049,6.08231707 L4.29878049,6.35670732 L4.02439024,6.35670732 Z M12.804878,0.228658537 L13.0792683,0.228658537 L13.0792683,0.50304878 L12.804878,0.50304878 Z M12.804878,6.08231707 L13.0792683,6.08231707 L13.0792683,6.35670732 L12.804878,6.35670732 Z M4.02439024,3.1554878 L4.29878049,3.1554878 L4.29878049,3.42987805 L4.02439024,3.42987805 Z M4.02439024,9.00914634 L4.29878049,9.00914634 L4.29878049,9.28353659 L4.02439024,9.28353659 Z M12.804878,3.1554878 L13.0792683,3.1554878 L13.0792683,3.42987805 L12.804878,3.42987805 Z M12.804878,9.00914634 L13.0792683,9.00914634 L13.0792683,9.28353659 L12.804878,9.28353659 Z M4.75609756,0.960365854 L5.0304878,0.960365854 L5.0304878,1.2347561 L4.75609756,1.2347561 Z M4.75609756,6.81402439 L5.0304878,6.81402439 L5.0304878,7.08841463 L4.75609756,7.08841463 Z M13.5365854,0.960365854 L13.8109756,0.960365854 L13.8109756,1.2347561 L13.5365854,1.2347561 Z M13.5365854,6.81402439 L13.8109756,6.81402439 L13.8109756,7.08841463 L13.5365854,7.08841463 Z M4.75609756,3.88719512 L5.0304878,3.88719512 L5.0304878,4.16158537 L4.75609756,4.16158537 Z M4.75609756,9.74085366 L5.0304878,9.74085366 L5.0304878,10.0152439 L4.75609756,10.0152439 Z M13.5365854,3.88719512 L13.8109756,3.88719512 L13.8109756,4.16158537 L13.5365854,4.16158537 Z M13.5365854,9.74085366 L13.8109756,9.74085366 L13.8109756,10.0152439 L13.5365854,10.0152439 Z M4.02439024,1.69207317 L4.29878049,1.69207317 L4.29878049,1.96646341 L4.02439024,1.96646341 Z M4.02439024,7.54573171 L4.29878049,7.54573171 L4.29878049,7.82012195 L4.02439024,7.82012195 Z M12.804878,1.69207317 L13.0792683,1.69207317 L13.0792683,1.96646341 L12.804878,1.96646341 Z M12.804878,7.54573171 L13.0792683,7.54573171 L13.0792683,7.82012195 L12.804878,7.82012195 Z M4.02439024,4.61890244 L4.29878049,4.61890244 L4.29878049,4.89329268 L4.02439024,4.89329268 Z M4.02439024,10.472561 L4.29878049,10.472561 L4.29878049,10.7469512 L4.02439024,10.7469512 Z M12.804878,4.61890244 L13.0792683,4.61890244 L13.0792683,4.89329268 L12.804878,4.89329268 Z M12.804878,10.472561 L13.0792683,10.472561 L13.0792683,10.7469512 L12.804878,10.7469512 Z M16.4634146,1.69207317 L16.7378049,1.69207317 L16.7378049,1.96646341 L16.4634146,1.96646341 Z M16.4634146,7.54573171 L16.7378049,7.54573171 L16.7378049,7.82012195 L16.4634146,7.82012195 Z M16.4634146,4.61890244 L16.7378049,4.61890244 L16.7378049,4.89329268 L16.4634146,4.89329268 Z M16.4634146,10.472561 L16.7378049,10.472561 L16.7378049,10.7469512 L16.4634146,10.7469512 Z M6.2195122,0.228658537 L6.49390244,0.228658537 L6.49390244,0.50304878 L6.2195122,0.50304878 Z M6.2195122,6.08231707 L6.49390244,6.08231707 L6.49390244,6.35670732 L6.2195122,6.35670732 Z M15,0.228658537 L15.2743902,0.228658537 L15.2743902,0.50304878 L15,0.50304878 Z M15,6.08231707 L15.2743902,6.08231707 L15.2743902,6.35670732 L15,6.35670732 Z M6.2195122,3.1554878 L6.49390244,3.1554878 L6.49390244,3.42987805 L6.2195122,3.42987805 Z M6.2195122,9.00914634 L6.49390244,9.00914634 L6.49390244,9.28353659 L6.2195122,9.28353659 Z M15,3.1554878 L15.2743902,3.1554878 L15.2743902,3.42987805 L15,3.42987805 Z M15,9.00914634 L15.2743902,9.00914634 L15.2743902,9.28353659 L15,9.28353659 Z M5.48780488,0.960365854 L5.76219512,0.960365854 L5.76219512,1.2347561 L5.48780488,1.2347561 Z M5.48780488,6.81402439 L5.76219512,6.81402439 L5.76219512,7.08841463 L5.48780488,7.08841463 Z M14.2682927,0.960365854 L14.5426829,0.960365854 L14.5426829,1.2347561 L14.2682927,1.2347561 Z M14.2682927,6.81402439 L14.5426829,6.81402439 L14.5426829,7.08841463 L14.2682927,7.08841463 Z M5.48780488,3.88719512 L5.76219512,3.88719512 L5.76219512,4.16158537 L5.48780488,4.16158537 Z M5.48780488,9.74085366 L5.76219512,9.74085366 L5.76219512,10.0152439 L5.48780488,10.0152439 Z M14.2682927,3.88719512 L14.5426829,3.88719512 L14.5426829,4.16158537 L14.2682927,4.16158537 Z M14.2682927,9.74085366 L14.5426829,9.74085366 L14.5426829,10.0152439 L14.2682927,10.0152439 Z" fill="url(#linearGradient-18)" opacity="0.146094913" style="mix-blend-mode: overlay;"></path>
                </g>
                <path d="M11.5243902,10.9756098 C13.949504,10.9756098 16.1241147,11.4631239 17.5997603,12.2343059 C18.271369,12.9887882 18.6585366,13.8755985 18.6585366,14.8170732 C18.6585366,15.5024689 18.4533427,16.1588932 18.0820256,16.756701 C16.6227798,17.6861326 14.2294192,18.2926829 11.5243902,18.2926829 C8.81936127,18.2926829 6.42600064,17.6861326 4.96667321,16.755925 C4.59543781,16.1588932 4.3902439,15.5024689 4.3902439,14.8170732 C4.3902439,13.8755985 4.77741146,12.9887882 5.45048304,12.2334765 C6.92618292,11.4627839 9.10012241,10.9756098 11.5243902,10.9756098 Z" id="形状结合" fill="url(#linearGradient-19)" opacity="0.319238572"></path>
                <g id="形状结合">
                    <use fill="black" fill-opacity="1" filter="url(#filter-21)" xlink:href="#path-20"></use>
                    <use fill="#03FBFF" fill-rule="evenodd" xlink:href="#path-20"></use>
                </g>
                <g id="形状结合" transform="translate(15.8994, 14.0775) scale(-1, 1) translate(-15.8994, -14.0775)">
                    <use fill="black" fill-opacity="1" filter="url(#filter-23)" xlink:href="#path-22"></use>
                    <use fill="#03FBFF" fill-rule="evenodd" xlink:href="#path-22"></use>
                </g>
                <g id="形状结合备份">
                    <use fill="black" fill-opacity="1" filter="url(#filter-25)" xlink:href="#path-24"></use>
                    <use fill="#03F3FF" fill-rule="evenodd" xlink:href="#path-24"></use>
                </g>
                <g id="椭圆形">
                    <use fill="black" fill-opacity="1" filter="url(#filter-28)" xlink:href="#path-27"></use>
                    <use fill="url(#radialGradient-26)" fill-rule="evenodd" xlink:href="#path-27"></use>
                </g>
                <path d="M11.4329268,1.09756098 C11.7013977,1.09756098 11.9213298,1.31079509 11.9296304,1.57913762 L12.0533756,5.57957438 C12.0639752,5.92223877 11.7947835,6.20861582 11.4521191,6.21921543 C11.4457236,6.21941326 11.4393254,6.2195122 11.4329268,6.2195122 C11.0900985,6.2195122 10.8121813,5.94159496 10.8121813,5.59876667 C10.8121813,5.59236809 10.8122802,5.5859699 10.8124781,5.57957438 L10.9362233,1.57913762 C10.9445239,1.31079509 11.1644559,1.09756098 11.4329268,1.09756098 Z" id="矩形" fill="url(#linearGradient-29)"></path>
                <g id="椭圆形">
                    <use fill="url(#linearGradient-30)" fill-rule="evenodd" xlink:href="#path-31"></use>
                    <use fill="black" fill-opacity="1" filter="url(#filter-32)" xlink:href="#path-31"></use>
                </g>
            </g>
        </g>
    </g>
</svg>