<?xml version="1.0" encoding="UTF-8"?>
<svg width="24px" height="24px" viewBox="0 0 24 24" version="1.1" xmlns="http://www.w3.org/2000/svg" xmlns:xlink="http://www.w3.org/1999/xlink">
    <title>notification 2</title>
    <g id="notification" stroke="none" stroke-width="1" fill="none" fill-rule="evenodd">
        <path d="M12.0026185,3 C12.1579163,3 12.3101153,3.07010933 12.4129813,3.18890225 L16.5809728,8.06696048 L19.4557287,8.10277136 C20.5259975,8.10277136 21.40002,8.96253162 21.40002,10.0137413 L21.40002,18.8838337 C21.4049666,19.9389021 20.5327486,20.8 19.4610384,20.8 L4.54419865,20.8 C3.47396203,20.8 2.6,19.9402443 2.6,18.88903 L2.6,10.0137413 C2.6,8.96252704 3.47396203,8.10277136 4.54419865,8.10277136 L7.41002692,8.102 L11.5931626,3.18783999 C11.6964911,3.06852796 11.8440765,3 12.0026185,3 Z M19.4557562,9.14988453 L4.54419865,9.14988453 C4.06147816,9.14988453 3.66772009,9.53724201 3.66772009,10.0137413 L3.66772009,18.8838337 C3.66772009,19.360333 4.06147816,19.7476905 4.54419865,19.7476905 L19.4557562,19.7476905 C19.9384767,19.7476905 20.3322348,19.360333 20.3322348,18.8838337 L20.3322348,10.0137413 C20.3322348,9.53724201 19.9384767,9.14988453 19.4557562,9.14988453 Z M13.597833,15.2204388 C13.946456,15.2204388 14.231693,15.5010393 14.231693,15.8439954 C14.231693,16.1869515 13.9517382,16.467552 13.6031151,16.467552 L7.71878105,16.467552 C7.37015802,16.467552 7.084921,16.1869515 7.084921,15.8439954 C7.084921,15.5010393 7.37015802,15.2204388 7.71878105,15.2204388 L13.597833,15.2204388 Z M15.1824831,11.8688222 C15.5311061,11.8688222 15.8163431,12.1494226 15.8163431,12.4923788 C15.8163431,12.8353349 15.5363883,13.1159353 15.1877653,13.1159353 L7.71878105,13.1159353 C7.37015802,13.1159353 7.084921,12.8353349 7.084921,12.4923788 C7.084921,12.1494226 7.37015802,11.8688222 7.71878105,11.8688222 L15.1824831,11.8688222 Z M12.0839513,4.43033251 L11.9314403,4.43081552 L8.97553963,7.93754993 L9.052,8.102 L15.002,8.102 L15.0780506,7.93706692 L12.0839513,4.43033251 Z" id="形状" fill="#000000" fill-rule="nonzero"></path>
    </g>
</svg>