<?xml version="1.0" encoding="utf-8" ?>
<svg xmlns="http://www.w3.org/2000/svg" xmlns:xlink="http://www.w3.org/1999/xlink" width="16" height="16">
	<path fill="none" stroke="black" stroke-width="1" stroke-miterlimit="10" stroke-opacity="0.7019608" transform="translate(1 1)" d="M13.995461 5.3030868C13.8178 4.5700574 13.527474 3.8810296 13.143819 3.2546709C13.099487 3.1823347 13.00849 3.1590004 12.930159 3.191335C12.339176 3.4330115 11.638197 3.3200068 11.158211 2.8403208C10.678558 2.3606348 10.565562 1.6599399 10.806889 1.068916C10.838887 0.99057955 10.815555 0.89957583 10.743557 0.8552407C10.116908 0.47189191 9.4275951 0.18188021 8.6946173 0.0045397189C8.6119528 -0.015461088 8.5306225 0.03254085 8.4979563 0.11087734C8.2516298 0.70090115 7.6753139 1.117918 6.9956675 1.117918C6.3173542 1.117918 5.7417045 0.70223457 5.4947119 0.11321077C5.4617128 0.034874275 5.3803816 -0.013127661 5.2977176 0.0068731462C4.5644059 0.18588038 3.8747597 0.47689211 3.2484448 0.86124098C3.1767802 0.90524274 3.1541142 0.99491304 3.18578 1.0725828C3.4271061 1.6632733 3.3137763 2.3639684 2.8341236 2.8436544C2.3554711 3.3226736 1.6561584 3.4363449 1.0658426 3.1966686C0.98817819 3.1650007 0.89851421 3.1880016 0.85451549 3.2596712C0.4715268 3.8866963 0.18153538 4.5763907 0.0045406101 5.3094206C-0.015458799 5.391757 0.032539781 5.473094 0.11053748 5.5060949C0.69785345 5.7534385 1.1121745 6.3284616 1.1121745 7.0064888C1.1121745 7.6831832 0.69885343 8.2575397 0.11320407 8.5058832C0.03520637 8.5388842 -0.012458888 8.6202211 0.0075405212 8.7025576C0.18586859 9.4359207 0.47719333 10.125281 0.86151528 10.75164C0.90518069 10.822976 0.99484468 10.845978 1.0725091 10.814643C1.6621583 10.575967 2.3601377 10.690305 2.8384569 11.168324C3.3161094 11.645677 3.4304395 12.343038 3.1924465 12.932728C3.161114 13.010398 3.1841133 13.099735 3.2554445 13.143403C3.882426 13.527419 4.5720725 13.817764 5.3053842 13.995438C5.3877149 14.015439 5.4690456 13.96777 5.5020447 13.889767C5.7500377 13.303743 6.324687 12.890393 7.0010004 12.890393C7.6776471 12.890393 8.2519636 13.303743 8.4999561 13.889767C8.5329552 13.96777 8.6142864 14.015439 8.6966171 13.995438C9.4299288 13.817764 10.119242 13.527419 10.746223 13.143737C10.817888 13.100068 10.840554 13.010398 10.809221 12.932728C10.569562 12.342705 10.683225 11.643343 11.161878 11.164657C11.640863 10.685971 12.340509 10.572633 12.930492 10.812643C13.008157 10.844311 13.09782 10.82131 13.141486 10.749973C13.525807 10.123281 13.816799 9.4335871 13.994794 8.7002239C14.014793 8.6175537 13.966795 8.5362177 13.888464 8.5035496C13.299814 8.2565393 12.88416 7.6805162 12.88416 7.0021553C12.88416 6.3231282 13.300148 5.7474384 13.889131 5.5007615C13.967462 5.4670935 14.01546 5.385757 13.995461 5.3030868ZM7 9.1000004C8.1597977 9.1000004 9.1000004 8.1597977 9.1000004 7C9.1000004 5.8402019 8.1597977 4.9000001 7 4.9000001C5.8402019 4.9000001 4.9000001 5.8402019 4.9000001 7C4.9000001 8.1597977 5.8402019 9.1000004 7 9.1000004Z" fill-rule="evenodd"/>
</svg>
