<?xml version="1.0" encoding="UTF-8"?>
<svg width="20px" height="20px" viewBox="0 0 20 20" version="1.1" xmlns="http://www.w3.org/2000/svg" xmlns:xlink="http://www.w3.org/1999/xlink">
    <title>润色</title>
    <g id="AI随航" stroke="none" stroke-width="1" fill="none" fill-rule="evenodd">
        <g id="切图" transform="translate(-267, -87)">
            <g id="润色" transform="translate(267, 87)">
                <rect id="矩形" opacity="0.27011399" x="0" y="0" width="20" height="20"></rect>
                <path d="M15.363961,5.05025253 C16.1450096,5.83130112 16.1450096,7.09763107 15.363961,7.87867966 L6.87867966,16.363961 C6.09763107,17.1450096 4.83130112,17.1450096 4.05025253,16.363961 C3.26920395,15.5829124 3.26920395,14.3165825 4.05025253,13.5355339 L12.5355339,5.05025253 C13.3165825,4.26920395 14.5829124,4.26920395 15.363961,5.05025253 Z M11.1213203,7.87867966 L4.75735931,14.2426407 C4.36683502,14.633165 4.36683502,15.26633 4.75735931,15.6568542 C5.1478836,16.0473785 5.78104858,16.0473785 6.17157288,15.6568542 L12.5355339,9.29289322 L11.1213203,7.87867966 Z M11.8284271,7.17157288 L13.2426407,8.58578644 L14.6568542,7.17157288 C15.0473785,6.78104858 15.0473785,6.1478836 14.6568542,5.75735931 C14.26633,5.36683502 13.633165,5.36683502 13.2426407,5.75735931 L11.8284271,7.17157288 Z" id="形状" fill-opacity="0.7" fill="#000000" fill-rule="nonzero"></path>
                <path d="M6.64518341,4.40254272 C6.07404833,5.21567095 6.07405098,6.29905196 6.64060655,7.10584209 L6.52638947,7.23096984 C5.71326552,6.65983742 4.62988452,6.65983476 3.82309146,7.22639192 L3.69739666,7.11161022 C4.26909742,6.29904767 4.26909477,5.21566667 3.69796234,4.40254272 L3.81732197,4.2831831 C4.62988023,4.8548812 5.71326123,4.85488386 6.52582378,4.2831831 L6.64518341,4.40254272 Z" id="路径" fill-opacity="0.7" fill="#000000" fill-rule="nonzero" transform="translate(5.1713, 5.7571) rotate(-45) translate(-5.1713, -5.7571)"></path>
                <path d="M15,13.0809825 C14.6124991,13.6326698 14.6125009,14.3677169 14.9968947,14.9151039 L14.9194013,15 C14.3677169,14.6125009 13.6326698,14.6124991 13.0852808,14.996894 L13,14.9190175 C13.3878848,14.367714 13.3878829,13.6326669 13.0003838,13.0809825 L13.0813663,13 C13.6326669,13.3878829 14.367714,13.3878848 14.9190175,13 L15,13.0809825 Z" id="路径" fill-opacity="0.7" fill="#000000" fill-rule="nonzero" transform="translate(14, 14) rotate(-45) translate(-14, -14)"></path>
            </g>
        </g>
    </g>
</svg>