<?xml version="1.0" encoding="UTF-8"?>
<svg width="21px" height="20px" viewBox="0 0 21 20" version="1.1" xmlns="http://www.w3.org/2000/svg" xmlns:xlink="http://www.w3.org/1999/xlink">
    <title>润色</title>
    <g id="润色" stroke="none" fill="none" transform="translate(0.5, 0)">
        <rect id="矩形" opacity="0.27011399" x="0" y="0" width="20" height="20"></rect>
        <path d="M15.4142136,5.10050506 C16.1952621,5.88155365 16.1952621,7.1478836 15.4142136,7.92893219 L6.92893219,16.4142136 C6.1478836,17.1952621 4.88155365,17.1952621 4.10050506,16.4142136 C3.31945648,15.633165 3.31945648,14.366835 4.10050506,13.5857864 L12.5857864,5.10050506 C13.366835,4.31945648 14.633165,4.31945648 15.4142136,5.10050506 Z M11.1715729,7.92893219 L4.80761184,14.2928932 C4.41708755,14.6834175 4.41708755,15.3165825 4.80761184,15.7071068 C5.19813614,16.0976311 5.83130112,16.0976311 6.22182541,15.7071068 L12.5857864,9.34314575 L11.1715729,7.92893219 Z M14.1075158,12.6933023 C14.2236131,13.3574086 14.7433711,13.8771641 15.4022397,13.9924177 L15.4074742,14.1072444 C14.7433711,14.2233409 14.2236131,14.7430964 14.1083589,15.4019672 L13.9929892,15.4072028 C13.8774347,14.7430964 13.3576767,14.2233409 12.6935737,14.1072444 L12.6935737,13.9927178 C13.3576767,13.8771641 13.8774347,13.3574086 13.9929892,12.6933023 L14.1075158,12.6933023 Z M13.2928932,5.80761184 L11.8786797,7.22182541 L13.2928932,8.63603897 L14.7071068,7.22182541 C15.0976311,6.83130112 15.0976311,6.19813614 14.7071068,5.80761184 C14.3165825,5.41708755 13.6834175,5.41708755 13.2928932,5.80761184 Z M5.0844,4 C5.255515,4.97882198 6.02158294,5.74488615 6.99268499,5.91475764 L7.0004,6.084 C6.02158294,6.25511385 5.255515,7.02117802 5.08564257,7.99228327 L4.9156,8 C4.745285,7.02117802 3.97921706,6.25511385 3.0004,6.084 L3.0004,5.9152 C3.97921706,5.74488615 4.745285,4.97882198 4.9156,4 L5.0844,4 Z" id="形状结合" fill-opacity="1" fill="#000000" fill-rule="evenodd"></path>
    </g>
</svg>