<?xml version="1.0" encoding="UTF-8"?>
<svg width="16px" height="16px" viewBox="0 0 16 16" version="1.1" xmlns="http://www.w3.org/2000/svg" xmlns:xlink="http://www.w3.org/1999/xlink">
    <title>隐藏-dark</title>
    <g id="AI随航" stroke="none" stroke-width="1" fill="none" fill-rule="evenodd" fill-opacity="0.7">
        <g id="切图" transform="translate(-34, -204)" fill="#FFFFFF" fill-rule="nonzero">
            <g id="隐藏-dark" transform="translate(34, 204)">
                <path d="M3.05025253,3.05025253 L3.75735931,2.34314575 L5.68543442,4.27230294 C6.38938428,4.10473606 7.15208433,4.00330536 7.96975683,4.00007813 L8.01,3.99999873 C13.1393333,3.99999873 16,7.7434273 16,7.7434273 C16,7.7434273 14.7255787,9.65711453 12.3316818,10.9181946 L13.6568542,12.2426407 L12.9497475,12.9497475 L3.05025253,3.05025253 Z M3.60018478,5.01331269 L4.353,5.76714575 L4.13969988,5.86206857 C3.63194127,6.09832185 3.14396283,6.37873859 2.67632238,6.6977797 C2.23756569,6.99711529 1.84302334,7.31345885 1.49527833,7.63214383 L1.351,7.76799873 L1.57487291,7.99809956 C1.85270996,8.27402912 2.15532617,8.54805795 2.48087296,8.81303282 L2.8139948,9.07472476 C3.41064637,9.52689509 4.02910193,9.91016698 4.66638427,10.2128192 C4.24538745,9.57824915 4,8.81783896 4,8 C4,7.2584021 4.20191486,6.5638786 4.55375735,5.96841669 L5.29221091,6.70718626 C5.10489751,7.09869543 5,7.53712721 5,8 C5,9.6483151 6.32912141,10.9859002 7.97395015,10.9998893 L8.00399196,10.9999962 C8.46546643,10.9999973 8.9027398,10.8953927 9.29336969,10.7085381 L10.2956246,11.7101967 C9.59406239,11.8919162 8.83149429,11.9999987 8.01,11.9999987 L8,12 L7.966,11.9989987 L7.70005959,11.9940514 C3.08471172,11.816942 0,7.7434273 0,7.7434273 C0,7.7434273 1.28387514,6.1219378 3.60018478,5.01331269 Z M11.1613663,5.55057596 L11.2502809,5.66799455 C11.722151,6.32453994 12,7.12986667 12,8 C12,8.74166965 11.7982824,9.43610962 11.4467023,10.0314648 L11.588,10.1741458 L11.615371,10.1628725 C12.2141881,9.87105523 12.782353,9.50856815 13.3200672,9.08567865 C13.7516325,8.74627079 14.1377448,8.38712253 14.4763013,8.02499043 L14.688,7.78899873 L14.5179282,7.62494206 C14.2637742,7.38709433 13.9828593,7.15049051 13.6760241,6.92129481 L13.36058,6.69479678 C12.6764126,6.22272774 11.9430863,5.83527694 11.1613663,5.55057596 Z M6.06771062,7.48217857 L8.51795802,9.93231581 C8.35276436,9.97646438 8.17913747,10 8,10 C6.8956,10 6,9.1048 6,8 C6,7.82092739 6.02354613,7.64734432 6.06771062,7.48217857 Z M8.0040343,5.00000265 L7.98,5.00099873 L7.82376099,5.00509394 C7.42552566,5.02817794 7.04809935,5.12898711 6.70643118,5.2925723 L7.48201719,6.06775378 C7.64723125,6.02356148 7.82086906,6 8,6 C9.1048,6 10,6.8956 10,8 C10,8.17919581 9.97644905,8.35287746 9.93227267,8.51811943 L10.7076501,9.29391699 C10.8950301,8.9021906 11,8.46339407 11,8 C11,6.34452233 9.65918734,5.00218069 8.0040343,5.00000265 Z" id="形状结合"></path>
            </g>
        </g>
    </g>
</svg>