<?xml version="1.0" encoding="UTF-8"?>
<svg width="24px" height="24px" viewBox="0 0 24 24" version="1.1" xmlns="http://www.w3.org/2000/svg" xmlns:xlink="http://www.w3.org/1999/xlink">
    <title>report</title>
    <g id="report" stroke="none" stroke-width="1" fill="none" fill-rule="evenodd">
        <path d="M19.1052632,3 C20.1516974,3 21,3.84830258 21,4.89473684 L21,19.1052632 C21,20.1516974 20.1516974,21 19.1052632,21 L4.89473684,21 C3.84830258,21 3,20.1516974 3,19.1052632 L3,4.89473684 C3,3.84830258 3.84830258,3 4.89473684,3 L19.1052632,3 Z M19.5789474,4.89473684 L4.42105264,4.89473684 C4.15944407,4.89473684 3.94736842,5.10681249 3.94736842,5.36842106 L3.94736842,19.0526316 C3.94736842,19.6049163 4.39508367,20.0526316 4.94736842,20.0526316 L19.0526316,20.0526316 C19.6049163,20.0526316 20.0526316,19.6049163 20.0526316,19.0526316 L20.0526316,5.36842106 C20.0526316,5.10681249 19.8405559,4.89473684 19.5789474,4.89473684 Z M12,7 C12.2124172,7 12.3846154,7.17219817 12.3846154,7.38461538 L12.3796154,7.40846154 L12.3846154,7.43269231 L12.3846154,11.6153846 L16.5253846,11.6153846 L16.5703846,11.6246154 L16.6153846,11.6153846 C16.8278018,11.6153846 17,11.7875828 17,12 C17,14.7569231 14.7569231,17 12,17 C9.24307692,17 7,14.7569231 7,12 C7,9.24307692 9.24307692,7 12,7 Z M11.6153846,7.78884615 C9.46230769,7.98384615 7.76923077,9.79692308 7.76923077,12 C7.76923077,14.3326923 9.66730769,16.2307692 12,16.2307692 C14.2030769,16.2307692 16.0161538,14.5376923 16.2111538,12.3846154 L12,12.3846154 C11.7875828,12.3846154 11.6153846,12.2124172 11.6153846,12 L11.6153846,7.78884615 Z M13.1265385,7.50615385 C13.1951492,7.30520716 13.4136687,7.1979277 13.6146154,7.26653846 C15.0441574,7.75084303 16.176829,8.85748595 16.6942308,10.2753846 C16.7453378,10.4052244 16.7221144,10.55256 16.6335461,10.6603838 C16.5449778,10.7682076 16.4049586,10.8196052 16.267665,10.7946897 C16.1303715,10.7697741 16.017341,10.672454 15.9723077,10.5403846 C15.5273151,9.34512426 14.5714528,8.41126824 13.3661538,7.99423077 C13.1652072,7.92562001 13.0579277,7.70710053 13.1265385,7.50615385 Z" id="形状" fill="#FFFFFF" fill-rule="nonzero"></path>
    </g>
</svg>