<?xml version="1.0" encoding="UTF-8"?>
<svg width="20px" height="20px" viewBox="0 0 20 20" version="1.1" xmlns="http://www.w3.org/2000/svg" xmlns:xlink="http://www.w3.org/1999/xlink">
    <title>总结1</title>
    <g id="AI随航" stroke="none" stroke-width="1" fill="none" fill-rule="evenodd">
        <g id="切图" transform="translate(-162, -197)">
            <g id="总结1" transform="translate(162, 197)">
                <rect id="矩形" x="0" y="0" width="20" height="20"></rect>
                <g id="编组-46" transform="translate(2.5, 4)" fill="#FFFFFF" fill-opacity="0.7" fill-rule="nonzero">
                    <path d="M12.2513114,0.000407065927 C13.0780338,-0.0158809391 13.845593,0.457752582 14.2364883,1.21970535 C14.6258074,1.97858572 14.5770933,2.89764667 14.1343235,3.55271026 L9.58433011,11.9839943 L9.39568278,12.1835405 L6.54358198,13.9241289 C6.19828272,14.1348592 5.75985059,13.8818028 5.75776793,13.470569 L5.73998428,9.95907672 L5.80466108,9.69955853 L10.3354521,1.30762316 C10.6787774,0.524574796 11.4209321,0.0167671197 12.2513114,0.000407065927 Z M10.1916468,3.76507129 L6.77841879,10.0925772 L6.79128562,12.5341597 L8.74013067,11.3448614 L12.1733424,4.98776851 L10.1916468,3.76507129 Z M2.96798629,9.62871508 C3.24412867,9.62871508 3.46798629,9.85257271 3.46798629,10.1287151 C3.46798629,10.4048575 3.24412867,10.6287151 2.96798629,10.6287151 L0.5,10.6287151 C0.223857625,10.6287151 0,10.4048575 0,10.1287151 C0,9.85257271 0.223857625,9.62871508 0.5,9.62871508 L2.96798629,9.62871508 Z M5.6470234,5.20384063 C5.92316578,5.20384063 6.1470234,5.42769826 6.1470234,5.70384063 C6.1470234,5.97998301 5.92316578,6.20384063 5.6470234,6.20384063 L0.5,6.20384063 C0.223857625,6.20384063 0,5.97998301 0,5.70384063 C0,5.42769826 0.223857625,5.20384063 0.5,5.20384063 L5.6470234,5.20384063 Z M12.2713262,1.06296953 C11.9517604,1.06926559 11.6570275,1.2178415 11.4538412,1.46460207 L11.3601859,1.59596027 L11.2644391,1.78180639 L10.6952444,2.83425069 L12.67694,4.05694791 L13.2511015,2.99516614 C13.4699307,2.66921768 13.5174693,2.24765633 13.3844105,1.87149279 L13.3163012,1.71347042 C13.1066226,1.30475428 12.7010709,1.05450274 12.2713262,1.06296953 Z M8.32606052,0.646272924 C8.60220289,0.646272924 8.82606052,0.870130549 8.82606052,1.14627292 C8.82606052,1.4224153 8.60220289,1.64627292 8.32606052,1.64627292 L0.711050821,1.64627292 C0.434908446,1.64627292 0.211050821,1.4224153 0.211050821,1.14627292 C0.211050821,0.870130549 0.434908446,0.646272924 0.711050821,0.646272924 L8.32606052,0.646272924 Z" id="形状结合"></path>
                </g>
            </g>
        </g>
    </g>
</svg>