<?xml version="1.0" encoding="UTF-8"?>
<svg width="20px" height="20px" viewBox="0 0 20 20" version="1.1" xmlns="http://www.w3.org/2000/svg" xmlns:xlink="http://www.w3.org/1999/xlink">
    <title>随航/图标/20/ 总结 2</title>
    <g id="随航/图标/20/-总结" stroke="none" fill="none">
        <rect id="矩形" x="0" y="0" width="20" height="20"></rect>
        <path d="M3.99810577,16 L16.0018942,16 C16.2780366,16 16.5018942,16.2238576 16.5018942,16.5 C16.5018942,16.7761424 16.2780366,17 16.0018942,17 L3.99810577,17 C3.72196339,17 3.49810577,16.7761424 3.49810577,16.5 C3.49810577,16.2238576 3.72196339,16 3.99810577,16 Z M13.9228459,3.8529992 C14.9502613,4.47016813 15.2824079,5.80167021 14.6660241,6.8277775 L10.7858157,13.2872437 C10.738218,13.3664807 10.6695872,13.4309724 10.5875464,13.4735557 L7.73522708,14.9540528 C7.40238955,15.1268122 7.00488254,14.8852742 7.00488254,14.510272 L7.00488254,11.3690712 C7.00488254,11.2790381 7.02919262,11.1906754 7.07524615,11.1133124 L10.9516228,4.6015817 C11.5697053,3.5709811 12.8983375,3.23855685 13.9228459,3.8529992 Z M10.6111058,7.1274617 L8.00488254,11.5066298 L8.00488254,13.6874057 L10.001384,12.6511211 L12.6211058,8.2884617 L10.6111058,7.1274617 Z M11.8128529,5.10982359 L11.1221058,6.2684617 L13.1361058,7.4304617 L13.8087964,6.31283991 C14.140788,5.76016639 13.96189,5.04300361 13.4092164,4.71101203 C12.8576373,4.38020563 12.1432364,4.55894899 11.8128529,5.10982359 Z" id="形状" fill-opacity="1" fill="#FFFFFF" fill-rule="evenodd"></path>
    </g>
</svg>