<?xml version="1.0" encoding="utf-8" ?>
<svg xmlns="http://www.w3.org/2000/svg" xmlns:xlink="http://www.w3.org/1999/xlink" width="108" height="108">
	<defs>
		<linearGradient id="gradient_0" gradientUnits="userSpaceOnUse" x1="103.88551" y1="37.5303" x2="48" y2="21.770231">
			<stop offset="0" stop-color="#6448FF"/>
			<stop offset="1" stop-color="#FF37DF"/>
		</linearGradient>
	</defs>
	<path fill="url(#gradient_0)" transform="translate(6 4)" d="M21.18919 0L74.810814 0C86.513275 0 96 9.4867229 96 21.18919L96 74.810814C96 86.513275 86.513275 96 74.810814 96L21.18919 96C9.4867229 96 0 86.513275 0 74.810814L0 21.18919C0 9.4867229 9.4867229 0 21.18919 0Z"/>
	<defs>
		<linearGradient id="gradient_1" gradientUnits="userSpaceOnUse" x1="7.2606535" y1="57.09869" x2="54.409653" y2="25.240622">
			<stop offset="0" stop-color="#FF02AA"/>
			<stop offset="1" stop-color="#FF8BF4" stop-opacity="0"/>
		</linearGradient>
	</defs>
	<path fill="url(#gradient_1)" transform="translate(6 4)" d="M21.18919 0L74.810814 0C86.513275 0 96 9.4867229 96 21.18919L96 74.810814C96 86.513275 86.513275 96 74.810814 96L21.18919 96C9.4867229 96 0 86.513275 0 74.810814L0 21.18919C0 9.4867229 9.4867229 0 21.18919 0Z"/>
	<defs>
		<linearGradient id="gradient_2" gradientUnits="userSpaceOnUse" x1="48" y1="33.165756" x2="21.909664" y2="88.815475">
			<stop offset="0" stop-color="#FB6060" stop-opacity="0"/>
			<stop offset="1" stop-color="#FCA506"/>
		</linearGradient>
	</defs>
	<path fill="url(#gradient_2)" transform="translate(6 4)" d="M21.18919 0L74.810814 0C86.513275 0 96 9.4867229 96 21.18919L96 74.810814C96 86.513275 86.513275 96 74.810814 96L21.18919 96C9.4867229 96 0 86.513275 0 74.810814L0 21.18919C0 9.4867229 9.4867229 0 21.18919 0Z"/>
	<path fill="none" stroke="white" stroke-width="4.609375" stroke-miterlimit="10" transform="translate(26.7365 36.7217)" d="M16.520838 46.116077C11.917422 46.116077 7.6597085 43.665638 5.3361969 39.691631L0.18647066 30.751606C0.12694427 30.648266 0.1624614 30.516239 0.26580039 30.456713C0.29858249 30.437828 0.33575052 30.427889 0.37358245 30.427889L14.98252 30.427889C17.262539 30.427889 19.374685 29.229279 20.543913 27.271885L34.949268 3.1560044C36.118496 1.1986098 38.23064 4.1883275e-16 40.510658 0L54.50296 4.1355808e-15C54.581074 6.6882505e-15 54.653099 0.042186819 54.691303 0.11031941L59.714153 9.0675459L59.714153 9.0675459C62.010662 13.102843 61.972282 18.058521 59.613544 22.057764L49.073505 39.734154C46.743824 43.684128 42.499649 46.116077 37.913834 46.116077L16.520838 46.116077Z"/>
	<path fill="none" stroke="white" stroke-width="4.609375" stroke-linejoin="round" transform="matrix(-4.37114e-08 -1 1 -4.37114e-08 26.7365 82.8378)" d="M15.68819 0.3746357L15.68819 14.98252C15.68819 17.262539 16.886801 19.374685 18.844194 20.543913L43.146961 35.060902C44.068405 35.611313 44.369183 36.804489 43.818768 37.725929C43.635948 38.031986 43.372463 38.28186 43.057148 38.448204L34.66325 42.876392C32.012844 44.274612 28.82711 44.199192 26.24584 42.677116L4.2501798 29.707134C1.6164423 28.154121 -3.1782756e-15 25.324432 -3.5527137e-15 22.266914L1.7763568e-15 16.555582C1.2103173e-15 11.933518 2.4623327 7.6614971 6.4618077 5.3446741L15.364017 0.18778723C15.467211 0.1280091 15.599326 0.16320425 15.659104 0.2663978C15.678157 0.29928827 15.68819 0.33662525 15.68819 0.3746357Z"/>
	<path fill="none" stroke="white" stroke-width="4.609375" stroke-miterlimit="10" transform="matrix(-1 -8.74228e-08 8.74228e-08 -1 81.366 67.1496)" d="M16.736773 46.090797C12.133357 46.090797 7.8756433 43.696175 5.5521312 39.722168L0.19514523 30.754562C0.13398583 30.652182 0.16740252 30.519606 0.2697835 30.458447C0.30326018 30.438448 0.3415274 30.427889 0.3805224 30.427889L14.118782 30.427889C16.398802 30.427889 18.510946 29.229279 19.680174 27.271885L34.085529 3.1560044C35.254757 1.1986098 37.366901 5.7479033e-15 39.646919 5.3290705e-15L54.509209 3.4416914e-15C54.583958 3.4279595e-15 54.653397 0.038662057 54.692764 0.10220652L60.146023 8.9038181L60.146023 8.9038181C62.442532 12.939115 62.188217 17.894793 59.829479 21.894035L49.28944 39.76469C46.959759 43.714664 42.715584 46.090797 38.129768 46.090797L16.736773 46.090797Z"/>
	<path fill="none" stroke="white" stroke-width="4.609375" stroke-linejoin="round" transform="matrix(-4.37114e-08 -1 1 -4.37114e-08 35.7617 67.1496)" d="M41.916874 16.421644L19.361542 2.8072293C16.518759 1.0913227 12.944003 1.1569672 10.166135 2.9760878L2.8869817 7.742928C1.8892976 8.3962736 1.6101559 9.7346973 2.2635012 10.732381C2.4427202 11.006056 2.6817777 11.235433 2.9626226 11.403193L27.271885 25.924061C29.229279 27.093288 30.427889 29.205433 30.427889 31.485453L30.427889 45.224571C30.427889 45.343826 30.524567 45.440506 30.643824 45.440506C30.682676 45.440506 30.72081 45.430023 30.754202 45.410164L39.757462 40.05555C43.684334 37.720074 46.090797 33.488945 46.090797 28.920052L46.090797 23.81637C46.090797 20.790516 44.507397 17.985289 41.916874 16.421644Z"/>
</svg>
