<?xml version="1.0" encoding="UTF-8"?>
<svg width="24px" height="24px" viewBox="0 0 24 24" version="1.1" xmlns="http://www.w3.org/2000/svg" xmlns:xlink="http://www.w3.org/1999/xlink">
    <title>write outline 2</title>
    <g id="write-outline" stroke="none" stroke-width="1" fill="none" fill-rule="evenodd">
        <path d="M19.6398734,5.15 C19.9712443,5.15 20.2398734,5.41862915 20.2398734,5.75 C20.2398734,6.08137085 19.9712443,6.35 19.6398734,6.35 L8.50063291,6.35 C8.16926206,6.35 7.90063291,6.08137085 7.90063291,5.75 C7.90063291,5.41862915 8.16926206,5.15 8.50063291,5.15 L19.6398734,5.15 Z M19.6398734,11.3242007 C19.9712443,11.3242007 20.2398734,11.5928298 20.2398734,11.9242007 C20.2398734,12.2555715 19.9712443,12.5242007 19.6398734,12.5242007 L8.50063291,12.5242007 C8.16926206,12.5242007 7.90063291,12.2555715 7.90063291,11.9242007 C7.90063291,11.5928298 8.16926206,11.3242007 8.50063291,11.3242007 L19.6398734,11.3242007 Z M19.6398734,17.4984013 C19.9712443,17.4984013 20.2398734,17.7670305 20.2398734,18.0984013 C20.2398734,18.4297722 19.9712443,18.6984013 19.6398734,18.6984013 L8.50063291,18.6984013 C8.16926206,18.6984013 7.90063291,18.4297722 7.90063291,18.0984013 C7.90063291,17.7670305 8.16926206,17.4984013 8.50063291,17.4984013 L19.6398734,17.4984013 Z M4.45,5 C4.82969577,5 5.14349096,5.28215388 5.19315338,5.64822944 L5.2,5.76029033 C5.2,6.1745039 4.86421356,6.51029033 4.45,6.51029033 C4.07030423,6.51029033 3.75650904,6.22813645 3.70684662,5.86206089 L3.7,5.75 C3.7,5.33578644 4.03578644,5 4.45,5 Z M4.45,11.1742007 C4.82969577,11.1742007 5.14349096,11.4563545 5.19315338,11.8224301 L5.2,11.934491 C5.2,12.3487046 4.86421356,12.684491 4.45,12.684491 C4.07030423,12.684491 3.75650904,12.4023371 3.70684662,12.0362616 L3.7,11.9242007 C3.7,11.5099871 4.03578644,11.1742007 4.45,11.1742007 Z M4.45,17.3484013 C4.82969577,17.3484013 5.14349096,17.6305552 5.19315338,17.9966308 L5.2,18.1086917 C5.2,18.5229052 4.86421356,18.8586917 4.45,18.8586917 C4.07030423,18.8586917 3.75650904,18.5765378 3.70684662,18.2104622 L3.7,18.0984013 C3.7,17.6841878 4.03578644,17.3484013 4.45,17.3484013 Z" id="形状" fill="#000000" fill-rule="nonzero"></path>
    </g>
</svg>