<?xml version="1.0" encoding="UTF-8"?>
<svg width="20px" height="20px" viewBox="0 0 20 20" version="1.1" xmlns="http://www.w3.org/2000/svg" xmlns:xlink="http://www.w3.org/1999/xlink">
    <title>润色</title>
    <g id="AI随航" stroke="none" stroke-width="1" fill="none" fill-rule="evenodd">
        <g id="切图" transform="translate(-267, -197)">
            <g id="润色" transform="translate(267, 197)">
                <rect id="矩形" opacity="0.27011399" x="0" y="0" width="20" height="20"></rect>
                <path d="M15.363961,5.05025253 C16.1450096,5.83130112 16.1450096,7.09763107 15.363961,7.87867966 L6.87867966,16.363961 C6.09763107,17.1450096 4.83130112,17.1450096 4.05025253,16.363961 C3.26920395,15.5829124 3.26920395,14.3165825 4.05025253,13.5355339 L12.5355339,5.05025253 C13.3165825,4.26920395 14.5829124,4.26920395 15.363961,5.05025253 Z M11.1213203,7.87867966 L4.75735931,14.2426407 C4.36683502,14.633165 4.36683502,15.26633 4.75735931,15.6568542 C5.1478836,16.0473785 5.78104858,16.0473785 6.17157288,15.6568542 L12.5355339,9.29289322 L11.1213203,7.87867966 Z M14.0572633,12.6430497 C14.1733606,13.3071561 14.6931186,13.8269116 15.3519872,13.9421652 L15.3572217,14.0569919 C14.6931186,14.1730884 14.1733606,14.6928439 14.0581064,15.3517147 L13.9427367,15.3569503 C13.8271822,14.6928439 13.3074242,14.1730884 12.6433211,14.0569919 L12.6433211,13.9424653 C13.3074242,13.8269116 13.8271822,13.3071561 13.9427367,12.6430497 L14.0572633,12.6430497 Z M13.2426407,5.75735931 L11.8284271,7.17157288 L13.2426407,8.58578644 L14.6568542,7.17157288 C15.0473785,6.78104858 15.0473785,6.1478836 14.6568542,5.75735931 C14.26633,5.36683502 13.633165,5.36683502 13.2426407,5.75735931 Z M5.25569003,3.75707647 C5.42680503,4.73589845 6.19287297,5.50196262 7.16397502,5.67183411 L7.17169003,5.84107647 C6.19287297,6.01219032 5.42680503,6.77825449 5.2569326,7.74935974 L5.08689003,7.75707647 C4.91657503,6.77825449 4.1505071,6.01219032 3.17169003,5.84107647 L3.17169003,5.67227647 C4.1505071,5.50196262 4.91657503,4.73589845 5.08689003,3.75707647 L5.25569003,3.75707647 Z" id="形状结合" fill-opacity="0.7" fill="#FFFFFF"></path>
            </g>
        </g>
    </g>
</svg>