<?xml version="1.0" encoding="UTF-8"?>
<svg width="21px" height="20px" viewBox="0 0 21 20" version="1.1" xmlns="http://www.w3.org/2000/svg" xmlns:xlink="http://www.w3.org/1999/xlink">
    <title>总结</title>
    <g id="总结" stroke="none" fill="none" transform="translate(0.5, 0)">
        <rect id="矩形" x="0" y="0" width="20" height="20"></rect>
        <path d="M15.8497269,3.35294509 C16.9135806,3.91571093 17.3197926,5.2343466 16.7570267,6.29820028 C16.7507236,6.3100567 16.7507236,6.3100567 16.7443233,6.32186093 L12.0052414,15.0195887 C11.9602895,15.1020897 11.8930024,15.1702563 11.8110921,15.2162756 L8.75501419,16.9332589 C8.42171509,17.1205149 8.01010687,16.8796454 8.01010687,16.4973456 L8.01010687,13.1678226 C8.01010687,13.083433 8.03146638,13.0004163 8.07219563,12.926506 L12.8548247,4.2475905 C13.4418826,3.18227148 14.7745307,2.78417919 15.8497269,3.35294509 Z M12.5994168,6.78080863 L9.01010687,13.2964684 L9.01010687,15.6429242 L11.1959222,14.4148768 L14.7344168,7.91880863 L12.5994168,6.78080863 Z M5.49369586,11.0024298 C5.76983824,11.0024298 5.99369586,11.2262874 5.99369586,11.5024298 C5.99369586,11.7785721 5.76983824,12.0024298 5.49369586,12.0024298 L2.50541681,12.0024298 C2.22927444,12.0024298 2.00541681,11.7785721 2.00541681,11.5024298 C2.00541681,11.2262874 2.22927444,11.0024298 2.50541681,11.0024298 L5.49369586,11.0024298 Z M7.49820994,8.00101721 C7.77435232,8.00101721 7.99820994,8.22487483 7.99820994,8.50101721 C7.99820994,8.77715958 7.77435232,9.00101721 7.49820994,9.00101721 L2.50541681,9.00101721 C2.22927444,9.00101721 2.00541681,8.77715958 2.00541681,8.50101721 C2.00541681,8.22487483 2.22927444,8.00101721 2.50541681,8.00101721 L7.49820994,8.00101721 Z M13.7306472,4.73022386 L13.0824168,5.90580863 L15.2124168,7.04080863 L15.86621,5.84340826 C15.8696733,5.83702083 15.8696733,5.83702083 15.873084,5.83060517 C16.1776041,5.25493959 15.9577974,4.54140804 15.3821318,4.23688785 C14.7892343,3.9232522 14.0543697,4.14277298 13.7306472,4.73022386 Z M9.49998746,5.00524294 C9.77612983,5.00524294 9.99998746,5.22910057 9.99998746,5.50524294 C9.99998746,5.78138532 9.77612983,6.00524294 9.49998746,6.00524294 L2.50541681,6.00524294 C2.22927444,6.00524294 2.00541681,5.78138532 2.00541681,5.50524294 C2.00541681,5.22910057 2.22927444,5.00524294 2.50541681,5.00524294 L9.49998746,5.00524294 Z" id="形状结合" fill-opacity="0.7" fill="#000000" fill-rule="evenodd"></path>
    </g>
</svg>