<?xml version="1.0" encoding="UTF-8"?>
<svg width="16px" height="16px" viewBox="0 0 16 16" version="1.1" xmlns="http://www.w3.org/2000/svg" xmlns:xlink="http://www.w3.org/1999/xlink">
    <title>summarize</title>
    <g id="summarize" stroke="none" stroke-width="1" fill="none" fill-rule="evenodd">
        <path d="M11.9929757,3.00031402 C12.6307329,2.98774899 13.22285,3.35312342 13.5243978,3.94091555 C13.8247297,4.52633755 13.7871503,5.23532743 13.445585,5.7406622 L9.93559005,12.2447956 L9.79006211,12.3987312 L7.58987007,13.7414709 C7.32349635,13.9040342 6.98527728,13.7088193 6.98367066,13.3915818 L6.96995184,10.6827163 L7.01984537,10.4825166 L10.515027,4.00873786 C10.7798779,3.40467199 11.3523973,3.01293464 11.9929757,3.00031402 Z M10.4040915,5.90448357 L7.77102989,10.7857024 L7.78095573,12.6692089 L9.28435049,11.7517502 L11.9328281,6.84770713 L10.4040915,5.90448357 Z M4.83155339,9.61447338 C5.06775357,9.61447338 5.25923165,9.80595146 5.25923165,10.0421516 C5.25923165,10.2783518 5.06775357,10.4698299 4.83155339,10.4698299 L2.92767825,10.4698299 C2.69147808,10.4698299 2.5,10.2783518 2.5,10.0421516 C2.5,9.80595146 2.69147808,9.61447338 2.92767825,9.61447338 L4.83155339,9.61447338 Z M6.89823917,6.97242738 C7.13443934,6.97242738 7.32591742,7.16390545 7.32591742,7.40010563 C7.32591742,7.63630581 7.13443934,7.82778388 6.89823917,7.82778388 L2.92767825,7.82778388 C2.69147808,7.82778388 2.5,7.63630581 2.5,7.40010563 C2.5,7.16390545 2.69147808,6.97242738 2.92767825,6.97242738 L6.89823917,6.97242738 Z M12.0084156,3.82000507 C11.7618934,3.82486202 11.534528,3.93947773 11.3777844,4.12983589 L11.3055359,4.23116935 L11.2316741,4.37453636 L10.7925811,5.18642196 L12.3213177,6.12964553 L12.7642423,5.31055673 C12.9330534,5.05911078 12.969726,4.73390631 12.8670806,4.44372301 L12.8145392,4.32182003 C12.6527871,4.00652473 12.339933,3.81347355 12.0084156,3.82000507 Z M8.96492494,4.228018 C9.20112512,4.228018 9.39260319,4.41949608 9.39260319,4.65569626 C9.39260319,4.89189643 9.20112512,5.08337451 8.96492494,5.08337451 L3.09048889,5.08337451 C2.85428871,5.08337451 2.66281063,4.89189643 2.66281063,4.65569626 C2.66281063,4.41949608 2.85428871,4.228018 3.09048889,4.228018 L8.96492494,4.228018 Z" id="形状" fill="#000000" fill-rule="nonzero"></path>
    </g>
</svg>