<?xml version="1.0" encoding="UTF-8"?>
<svg width="15px" height="15px" viewBox="0 0 15 15" version="1.1" xmlns="http://www.w3.org/2000/svg" xmlns:xlink="http://www.w3.org/1999/xlink">
    <title>agency-dark</title>
    <g id="AI助手设置备份" stroke="none" stroke-width="1" fill="none" fill-rule="evenodd">
        <g id="画板" transform="translate(-173.000000, -169.000000)" fill="#C5CFE0">
            <path d="M188,176.886719 C187.991205,177.053711 187.978012,177.220703 187.95749,177.384766 C187.519203,181.109863 184.350044,184 180.50513,184 C178.851656,184 177.322779,183.465332 176.082674,182.560059 C176.007916,182.259766 175.947816,181.953613 175.903841,181.645996 C176.065084,181.638672 176.226327,181.626953 176.384638,181.61084 C177.494283,181.500977 178.545295,181.196289 179.505424,180.730469 C179.684257,180.869629 179.908531,180.953125 180.153327,180.953125 C180.615069,180.953125 181.00645,180.657227 181.150103,180.245605 C183.343008,180.176758 185.343887,179.347656 186.897684,178.011719 C187.114629,177.825684 187.321313,177.629395 187.520668,177.424316 C187.686309,177.251465 187.847552,177.072754 188,176.886719 Z M173.020522,175.933105 C173.301964,176.378418 173.621519,176.798828 173.973322,177.188477 C174.319261,177.572266 174.697449,177.926758 175.102023,178.247559 C174.986221,178.783691 174.912929,179.335938 174.886544,179.901367 C174.879214,180.055176 174.876283,180.211914 174.876283,180.367188 C174.876283,180.478516 174.877748,180.588379 174.882146,180.699707 C174.890941,180.982422 174.912929,181.262207 174.945177,181.537598 C174.688654,181.254883 174.452653,180.95166 174.240106,180.630859 C173.455878,179.445801 173,178.026367 173,176.5 C173,176.30957 173.007329,176.120605 173.020522,175.933105 Z M175.941953,178.84082 C176.809733,179.385742 177.77426,179.788574 178.803283,180.021484 L178.70214,180.06543 C177.785987,180.453613 176.817062,180.67041 175.820287,180.711426 C175.81589,180.597168 175.814424,180.48291 175.814424,180.367188 C175.814424,179.851562 175.856933,179.341797 175.941953,178.84082 Z M183.699208,176.640625 C184.462914,177.024414 185.299912,177.282227 186.185283,177.38623 C185.969804,177.566406 185.744063,177.734863 185.510994,177.893066 C185.065377,178.193359 184.590443,178.451172 184.096453,178.660645 C183.319554,178.98877 182.504544,179.195312 181.66608,179.275879 C182.492817,178.530273 183.184697,177.638184 183.699208,176.640625 Z M180.091762,172.695801 C180.651715,174.115234 181.636763,175.32373 182.888596,176.164551 C182.733216,176.469238 182.55878,176.765137 182.366755,177.049316 C182.069188,177.490234 181.72618,177.904785 181.349458,178.28125 C181.114922,178.515625 180.864263,178.738281 180.601876,178.943359 C180.465553,178.878906 180.313105,178.84375 180.151862,178.84375 C179.8455,178.84375 179.569921,178.974121 179.377895,179.182129 C178.773967,179.07373 178.184697,178.899414 177.615948,178.65918 C177.123424,178.451172 176.647024,178.191895 176.201407,177.891602 C176.18968,177.882812 176.176488,177.874023 176.164761,177.866699 C176.262973,177.523926 176.383172,177.187012 176.523893,176.855957 C176.749634,176.321289 177.02961,175.805664 177.356494,175.32373 C177.473761,175.149414 177.598358,174.979492 177.728819,174.8125 C177.828496,174.843262 177.934037,174.86084 178.04251,174.86084 C178.625916,174.86084 179.097918,174.38916 179.097918,173.806152 C179.097918,173.68457 179.077397,173.565918 179.039285,173.45752 C179.281149,173.253906 179.534741,173.062012 179.797127,172.88623 C179.893873,172.820312 179.992084,172.757324 180.091762,172.695801 Z M179.618294,169.05127 C179.584579,169.341309 179.566989,169.637207 179.566989,169.9375 L179.566989,170.003418 C179.572853,170.615723 179.650542,171.208984 179.794195,171.777344 C179.285547,172.076172 178.807681,172.418945 178.362064,172.799805 C178.260921,172.767578 178.153914,172.75 178.04251,172.75 C177.459103,172.75 176.987101,173.22168 176.987101,173.804688 C176.987101,173.929199 177.009088,174.049316 177.048666,174.15918 C176.318675,175.073242 175.746995,176.117676 175.373204,177.25293 C175.233949,177.131348 175.099091,177.005371 174.970097,176.875 C174.608033,176.513184 174.276752,176.114746 173.98798,175.692871 C173.976253,175.676758 173.964527,175.65918 173.9528,175.643066 C173.697743,175.265137 173.473468,174.866699 173.282908,174.452148 C174.096453,171.581055 176.579595,169.408691 179.618294,169.05127 Z M184.842568,171.345215 C185.241278,171.345215 185.635591,171.370117 186.025506,171.421387 C187.020815,172.498047 187.702433,173.867676 187.928174,175.386719 C187.873937,175.473145 187.818235,175.55957 187.761067,175.643066 C187.55878,175.941895 187.337438,176.229004 187.097039,176.5 L187.07212,176.5 C186.185283,176.5 185.324831,176.327148 184.515685,175.984375 C184.3691,175.922852 184.226913,175.855469 184.086192,175.785156 C184.272354,175.313477 184.420405,174.822754 184.525945,174.317383 C184.917326,174.163574 185.194371,173.78125 185.194371,173.335938 C185.194371,172.969727 185.008209,172.647461 184.7253,172.458496 L184.7253,172.398438 C184.7253,172.071777 184.70771,171.749512 184.675462,171.431641 C184.67253,171.403809 184.669598,171.374512 184.666667,171.34668 C184.7253,171.345215 184.783934,171.345215 184.842568,171.345215 Z M183.732923,171.411133 C183.769569,171.71875 183.788625,172.027832 183.790091,172.341309 C183.38112,172.486328 183.086485,172.875977 183.086485,173.335938 C183.085019,173.715332 183.28584,174.047852 183.586338,174.233887 C183.505717,174.592773 183.400176,174.945801 183.272647,175.291504 C182.973615,175.079102 182.692172,174.840332 182.429786,174.578125 C181.825858,173.974609 181.352389,173.272949 181.022574,172.492188 C180.987394,172.408691 180.953679,172.32373 180.921431,172.23877 C181.056288,172.172852 181.192612,172.111328 181.331867,172.052734 C182.102902,171.727539 182.906186,171.512207 183.732923,171.411133 Z M180.571094,169 C181.528291,169.008789 182.441513,169.194824 183.279977,169.528809 C183.686016,169.689941 184.074465,169.88623 184.442392,170.113281 C184.591909,170.205566 184.738493,170.303711 184.88068,170.40625 L184.844034,170.40625 C184.73263,170.40625 184.622691,170.407715 184.512753,170.412109 C184.193198,170.422363 183.879507,170.447266 183.568748,170.486816 C183.460276,170.5 183.351803,170.516113 183.244796,170.533691 C182.33304,170.680176 181.463794,170.951172 180.651715,171.327637 C180.553503,170.875 180.50513,170.40918 180.50513,169.9375 C180.50513,169.621094 180.527118,169.309082 180.571094,169 Z" id="agency-dark"></path>
        </g>
    </g>
</svg>