<?xml version="1.0" encoding="UTF-8"?>
<svg width="15px" height="17px" viewBox="0 0 15 17" version="1.1" xmlns="http://www.w3.org/2000/svg" xmlns:xlink="http://www.w3.org/1999/xlink">
    <title>agreement-dark</title>
    <g id="AI助手设置备份" stroke="none" stroke-width="1" fill="none" fill-rule="evenodd">
        <g id="画板" transform="translate(-173.000000, -120.000000)" fill="#C5CFE0">
            <path d="M183.531915,126.925926 L188,129.23428 L187.716543,131.642438 C187.44452,133.95346 185.955211,135.941997 183.814751,136.88323 L183.531915,137 L183.249078,136.88323 C181.201682,135.98292 179.750046,134.124396 179.389625,131.941987 L179.347287,131.642438 L179.06383,129.23428 L183.531915,126.925926 Z M180.93484,120 C181.020768,120 181.090426,120.070474 181.090426,120.157407 L181.090426,122.833333 C181.090426,123.70267 181.787004,124.407407 182.646277,124.407407 L185.291223,124.407407 C185.377151,124.407407 185.446809,124.477881 185.446809,124.564815 L185.446809,126.849111 L183.531915,125.859787 L178.036907,128.698682 L178.396229,131.751365 L178.44135,132.0724 C178.624484,133.181992 179.049351,134.215418 179.667762,135.112461 L174.244681,135.111111 C173.557263,135.111111 173,134.547322 173,133.851852 L173,121.259259 C173,120.56379 173.557263,120 174.244681,120 L180.93484,120 Z M184.94284,130.289043 L184.87521,130.381029 L183.511489,132.634148 L182.675718,131.994665 L182.608594,131.90232 C182.410823,131.676363 182.071648,131.615038 181.801706,131.772006 C181.531765,131.928973 181.421921,132.251397 181.526575,132.531499 L181.575981,132.634148 L182.958552,134.188394 L183.02712,134.282817 C183.275235,134.566199 183.726121,134.570231 183.979813,134.293844 L184.056525,134.191327 L185.971419,131.026378 L186.021388,130.923995 C186.127578,130.644456 186.019506,130.32145 185.750431,130.163043 C185.481356,130.004635 185.141849,130.064147 184.94284,130.289043 Z M181.811134,120.233579 C181.869778,120.210123 181.936616,120.224799 181.980372,120.270741 L185.179202,123.507037 C185.224612,123.551306 185.239118,123.618927 185.215934,123.678258 C185.192749,123.737588 185.136459,123.776893 185.073404,123.777778 L182.646277,123.777778 C182.130713,123.777778 181.712766,123.354936 181.712766,122.833333 L181.712766,120.377778 C181.713641,120.313985 181.75249,120.257035 181.811134,120.233579 Z" id="agreement-dark"></path>
        </g>
    </g>
</svg>