<?xml version="1.0" encoding="UTF-8"?>
<svg width="110px" height="110px" viewBox="0 0 110 110" version="1.1" xmlns="http://www.w3.org/2000/svg" xmlns:xlink="http://www.w3.org/1999/xlink">
    <title>PPT助手-110</title>
    <defs>
        <linearGradient x1="50%" y1="-10.4247182%" x2="50%" y2="91.1041357%" id="linearGradient-1">
            <stop stop-color="#FFE94B" offset="0%"></stop>
            <stop stop-color="#FC8100" offset="100%"></stop>
        </linearGradient>
        <path d="M21.1891892,0 L74.8108108,0 C86.5132769,0 96,9.48672314 96,21.1891892 L96,74.8108108 C96,86.5132769 86.5132769,96 74.8108108,96 L21.1891892,96 C9.48672314,96 0,86.5132769 0,74.8108108 L0,21.1891892 C0,9.48672314 9.48672314,0 21.1891892,0 Z" id="path-2"></path>
        <filter x="-7.3%" y="-5.2%" width="114.6%" height="114.6%" filterUnits="objectBoundingBox" id="filter-4">
            <feOffset dx="0" dy="2" in="SourceAlpha" result="shadowOffsetOuter1"></feOffset>
            <feGaussianBlur stdDeviation="2" in="shadowOffsetOuter1" result="shadowBlurOuter1"></feGaussianBlur>
            <feColorMatrix values="0 0 0 0 0   0 0 0 0 0   0 0 0 0 0  0 0 0 0.2 0" type="matrix" in="shadowBlurOuter1"></feColorMatrix>
        </filter>
        <linearGradient x1="50%" y1="0%" x2="50%" y2="100%" id="linearGradient-5">
            <stop stop-color="#FFFFFF" offset="0%"></stop>
            <stop stop-color="#FFFBE8" offset="100%"></stop>
        </linearGradient>
        <radialGradient cx="52.7207854%" cy="50%" fx="52.7207854%" fy="50%" r="38.4880345%" gradientTransform="translate(0.5272, 0.5), scale(0.8734, 1), rotate(90), scale(1, 1.068), translate(-0.5272, -0.5)" id="radialGradient-6">
            <stop stop-color="#FFD43C" stop-opacity="0.3" offset="0%"></stop>
            <stop stop-color="#FFD43C" stop-opacity="0" offset="100%"></stop>
        </radialGradient>
        <radialGradient cx="72.3053767%" cy="58.769557%" fx="72.3053767%" fy="58.769557%" r="40.5193195%" gradientTransform="translate(0.7231, 0.5877), scale(0.8734, 1), rotate(90), translate(-0.7231, -0.5877)" id="radialGradient-7">
            <stop stop-color="#FEA81C" stop-opacity="0.253728693" offset="0%"></stop>
            <stop stop-color="#FEA81C" stop-opacity="0" offset="100%"></stop>
        </radialGradient>
        <linearGradient x1="50%" y1="0%" x2="50%" y2="100%" id="linearGradient-8">
            <stop stop-color="#FFE07F" offset="0%"></stop>
            <stop stop-color="#FF741F" offset="100%"></stop>
        </linearGradient>
        <path d="M40,6.76710332 C62.09139,6.76710332 80,25.5711438 80,48.7671033 C80,64.7833611 62.09139,76.6396439 40,76.6396439 C17.90861,76.6396439 0,64.7833611 0,48.7671033 C0,25.5711438 17.90861,6.76710332 40,6.76710332 Z" id="path-9"></path>
        <filter x="-2.4%" y="-2.7%" width="104.8%" height="105.5%" filterUnits="objectBoundingBox" id="filter-10">
            <feMorphology radius="1" operator="erode" in="SourceAlpha" result="shadowSpreadInner1"></feMorphology>
            <feGaussianBlur stdDeviation="1" in="shadowSpreadInner1" result="shadowBlurInner1"></feGaussianBlur>
            <feOffset dx="0" dy="0" in="shadowBlurInner1" result="shadowOffsetInner1"></feOffset>
            <feComposite in="shadowOffsetInner1" in2="SourceAlpha" operator="arithmetic" k2="-1" k3="1" result="shadowInnerInner1"></feComposite>
            <feColorMatrix values="0 0 0 0 0.992156863   0 0 0 0 0.68627451   0 0 0 0 0.129411765  0 0 0 0.101072298 0" type="matrix" in="shadowInnerInner1"></feColorMatrix>
        </filter>
        <path d="M40.115704,12.4106079 C59.1784893,12.4106079 74.6818401,28.0856866 75.1069555,47.5880052 L75.111,47.8012551 C75.1142708,48.0039694 75.1159127,48.2070915 75.1159127,48.4106079 L75.1139142,48.2326079 L75.0966691,48.2333544 C74.4642012,61.1072459 59.045039,71.4106079 40.1163811,71.4106079 C21.1870247,71.4106079 5.76742304,61.1064855 5.13602309,48.2319293 L5.11591423,48.2325694 L5.12116151,47.8304958 C5.11766706,47.6908207 5.11591272,47.5508548 5.11591272,47.4106079 L5.11791272,47.5876079 C5.54548425,28.2832119 20.7401948,12.7288966 39.5369115,12.4154309 L40.115704,12.4106079 Z" id="path-11"></path>
        <filter x="-12.9%" y="-15.3%" width="125.7%" height="130.5%" filterUnits="objectBoundingBox" id="filter-12">
            <feGaussianBlur stdDeviation="3" in="SourceGraphic"></feGaussianBlur>
        </filter>
        <filter x="-13.6%" y="-16.1%" width="127.1%" height="132.2%" filterUnits="objectBoundingBox" id="filter-13">
            <feOffset dx="-1" dy="-1" in="SourceAlpha" result="shadowOffsetInner1"></feOffset>
            <feComposite in="shadowOffsetInner1" in2="SourceAlpha" operator="arithmetic" k2="-1" k3="1" result="shadowInnerInner1"></feComposite>
            <feColorMatrix values="0 0 0 0 0.992156863   0 0 0 0 0.639215686   0 0 0 0 0.0941176471  0 0 0 1 0" type="matrix" in="shadowInnerInner1"></feColorMatrix>
        </filter>
        <linearGradient x1="50%" y1="0%" x2="50%" y2="100%" id="linearGradient-14">
            <stop stop-color="#282761" offset="38.3704552%"></stop>
            <stop stop-color="#090727" offset="100%"></stop>
        </linearGradient>
        <linearGradient x1="50%" y1="0%" x2="50%" y2="100%" id="linearGradient-15">
            <stop stop-color="#FFD039" offset="0%"></stop>
            <stop stop-color="#FD8100" offset="100%"></stop>
        </linearGradient>
        <path d="M40.0278962,17.4635882 C56.6973369,17.4635882 70.2105885,27.7917776 70.2105885,40.5322449 L70.2105885,42.3365188 C70.2105885,48.6453006 65.1233102,53.7835843 58.7918218,53.8697708 L39.9910987,54.1256929 L21.2635845,53.870145 C14.9322494,53.7837502 9.84520389,48.6455303 9.84520389,42.3368983 L9.84520389,40.5322449 C9.84520389,27.7917776 23.3584555,17.4635882 40.0278962,17.4635882 Z" id="path-16"></path>
        <filter x="-4.1%" y="-6.8%" width="111.6%" height="119.1%" filterUnits="objectBoundingBox" id="filter-17">
            <feOffset dx="2" dy="2" in="SourceAlpha" result="shadowOffsetOuter1"></feOffset>
            <feGaussianBlur stdDeviation="0.5" in="shadowOffsetOuter1" result="shadowBlurOuter1"></feGaussianBlur>
            <feComposite in="shadowBlurOuter1" in2="SourceAlpha" operator="out" result="shadowBlurOuter1"></feComposite>
            <feColorMatrix values="0 0 0 0 1   0 0 0 0 1   0 0 0 0 1  0 0 0 0.5 0" type="matrix" in="shadowBlurOuter1" result="shadowMatrixOuter1"></feColorMatrix>
            <feOffset dx="-1" dy="-1" in="SourceAlpha" result="shadowOffsetOuter2"></feOffset>
            <feComposite in="shadowOffsetOuter2" in2="SourceAlpha" operator="out" result="shadowOffsetOuter2"></feComposite>
            <feColorMatrix values="0 0 0 0 0.156862745   0 0 0 0 0.152941176   0 0 0 0 0.380392157  0 0 0 0.1 0" type="matrix" in="shadowOffsetOuter2" result="shadowMatrixOuter2"></feColorMatrix>
            <feMerge>
                <feMergeNode in="shadowMatrixOuter1"></feMergeNode>
                <feMergeNode in="shadowMatrixOuter2"></feMergeNode>
            </feMerge>
        </filter>
        <filter x="-5.8%" y="-9.5%" width="114.9%" height="124.5%" filterUnits="objectBoundingBox" id="filter-18">
            <feMorphology radius="1" operator="erode" in="SourceAlpha" result="shadowSpreadInner1"></feMorphology>
            <feGaussianBlur stdDeviation="1.5" in="shadowSpreadInner1" result="shadowBlurInner1"></feGaussianBlur>
            <feOffset dx="0" dy="1" in="shadowBlurInner1" result="shadowOffsetInner1"></feOffset>
            <feComposite in="shadowOffsetInner1" in2="SourceAlpha" operator="arithmetic" k2="-1" k3="1" result="shadowInnerInner1"></feComposite>
            <feColorMatrix values="0 0 0 0 0.721918469   0 0 0 0 0.72716529   0 0 0 0 1  0 0 0 0.69782113 0" type="matrix" in="shadowInnerInner1"></feColorMatrix>
        </filter>
        <linearGradient x1="19.7478284%" y1="43.9031749%" x2="19.7478284%" y2="92.4098175%" id="linearGradient-19">
            <stop stop-color="#3D3D73" offset="0%"></stop>
            <stop stop-color="#110F34" stop-opacity="0" offset="100%"></stop>
        </linearGradient>
        <radialGradient cx="50%" cy="4.22995626%" fx="50%" fy="4.22995626%" r="45.1636816%" gradientTransform="translate(0.5, 0.0423), scale(0.8958, 1), rotate(66.2883), scale(1, 1.8215), translate(-0.5, -0.0423)" id="radialGradient-20">
            <stop stop-color="#FFFFFF" stop-opacity="0.4" offset="0%"></stop>
            <stop stop-color="#FFFFFF" stop-opacity="0" offset="100%"></stop>
        </radialGradient>
        <path d="M44.2242177,18.4948883 C28.4921304,18.8033586 18.2632041,24.6047038 13.5374387,35.8989238 C12.4127215,39.841535 12.5262553,43.2020457 13.8780402,45.9804557 C15.6400777,49.7775657 23.2138737,50.8559918 26.8162225,47.4260707 C30.4843965,43.7405873 30.0488767,39.6559545 36.1654156,31.9216313 C37.6882339,29.9960376 39.6171797,27.8442189 42.1166943,25.4160123 C43.3936182,24.2361266 44.3538546,23.3892675 44.9974035,22.8754351 C48.4077767,20.1500787 48.1500481,18.6898964 44.2242177,18.4948883 Z" id="path-21"></path>
        <filter x="-4.3%" y="-4.8%" width="108.7%" height="109.7%" filterUnits="objectBoundingBox" id="filter-22">
            <feGaussianBlur stdDeviation="0.5" in="SourceGraphic"></feGaussianBlur>
        </filter>
        <linearGradient x1="50%" y1="81.3890577%" x2="50%" y2="23.1121783%" id="linearGradient-23">
            <stop stop-color="#FFFFFF" offset="0%"></stop>
            <stop stop-color="#FFE99D" offset="50.1725204%"></stop>
            <stop stop-color="#FFFFFF" stop-opacity="0.882570067" offset="100%"></stop>
        </linearGradient>
        <path d="M14.7503201,1.99618066 C15.2028966,1.99618066 15.5697823,2.36306639 15.5697823,2.81564288 L15.5697823,2.86685927 C15.5697823,3.31943577 15.2028966,3.6863215 14.7503201,3.6863215 C14.2977436,3.6863215 13.9308579,3.31943577 13.9308579,2.86685927 L13.9308579,2.81564288 C13.9308579,2.36306639 14.2977436,1.99618066 14.7503201,1.99618066 Z M16.9014085,1.99618066 C17.3539849,1.99618066 17.7208707,2.36306639 17.7208707,2.81564288 L17.7208707,2.86685927 C17.7208707,3.31943577 17.3539849,3.6863215 16.9014085,3.6863215 C16.448832,3.6863215 16.0819462,3.31943577 16.0819462,2.86685927 L16.0819462,2.81564288 C16.0819462,2.36306639 16.448832,1.99618066 16.9014085,1.99618066 Z M19.0524968,1.99618066 C19.5050733,1.99618066 19.871959,2.36306639 19.871959,2.81564288 L19.871959,2.86685927 C19.871959,3.31943577 19.5050733,3.6863215 19.0524968,3.6863215 C18.5999203,3.6863215 18.2330346,3.31943577 18.2330346,2.86685927 L18.2330346,2.81564288 C18.2330346,2.36306639 18.5999203,1.99618066 19.0524968,1.99618066 Z M19.0524968,10.8694201 C19.5050733,10.8694201 19.871959,11.2363058 19.871959,11.6888823 L19.871959,11.7400987 C19.871959,12.1926752 19.5050733,12.5595609 19.0524968,12.5595609 C18.5999203,12.5595609 18.2330346,12.1926752 18.2330346,11.7400987 L18.2330346,11.6888823 C18.2330346,11.2363058 18.5999203,10.8694201 19.0524968,10.8694201 Z M21.2035851,1.99618066 C21.6561616,1.99618066 22.0230474,2.36306639 22.0230474,2.81564288 L22.0230474,2.86685927 C22.0230474,3.31943577 21.6561616,3.6863215 21.2035851,3.6863215 C20.7510087,3.6863215 20.3841229,3.31943577 20.3841229,2.86685927 L20.3841229,2.81564288 C20.3841229,2.36306639 20.7510087,1.99618066 21.2035851,1.99618066 Z M21.2035851,10.8694201 C21.6561616,10.8694201 22.0230474,11.2363058 22.0230474,11.6888823 L22.0230474,11.7400987 C22.0230474,12.1926752 21.6561616,12.5595609 21.2035851,12.5595609 C20.7510087,12.5595609 20.3841229,12.1926752 20.3841229,11.7400987 L20.3841229,11.6888823 C20.3841229,11.2363058 20.7510087,10.8694201 21.2035851,10.8694201 Z M14.7503201,4.21449052 C15.2028966,4.21449052 15.5697823,4.58137625 15.5697823,5.03395274 L15.5697823,5.08516913 C15.5697823,5.53774562 15.2028966,5.90463136 14.7503201,5.90463136 C14.2977436,5.90463136 13.9308579,5.53774562 13.9308579,5.08516913 L13.9308579,5.03395274 C13.9308579,4.58137625 14.2977436,4.21449052 14.7503201,4.21449052 Z M23.3546735,4.21449052 C23.80725,4.21449052 24.1741357,4.58137625 24.1741357,5.03395274 L24.1741357,5.08516913 C24.1741357,5.53774562 23.80725,5.90463136 23.3546735,5.90463136 C22.902097,5.90463136 22.5352113,5.53774562 22.5352113,5.08516913 L22.5352113,5.03395274 C22.5352113,4.58137625 22.902097,4.21449052 23.3546735,4.21449052 Z M23.3546735,6.43280038 C23.80725,6.43280038 24.1741357,6.79968611 24.1741357,7.2522626 L24.1741357,7.30347899 C24.1741357,7.75605548 23.80725,8.12294122 23.3546735,8.12294122 C22.902097,8.12294122 22.5352113,7.75605548 22.5352113,7.30347899 L22.5352113,7.2522626 C22.5352113,6.79968611 22.902097,6.43280038 23.3546735,6.43280038 Z M23.3546735,8.65111023 C23.80725,8.65111023 24.1741357,9.01799597 24.1741357,9.47057246 L24.1741357,9.52178885 C24.1741357,9.97436534 23.80725,10.3412511 23.3546735,10.3412511 C22.902097,10.3412511 22.5352113,9.97436534 22.5352113,9.52178885 L22.5352113,9.47057246 C22.5352113,9.01799597 22.902097,8.65111023 23.3546735,8.65111023 Z M16.9014085,4.21449052 C17.3539849,4.21449052 17.7208707,4.58137625 17.7208707,5.03395274 L17.7208707,5.08516913 C17.7208707,5.53774562 17.3539849,5.90463136 16.9014085,5.90463136 C16.448832,5.90463136 16.0819462,5.53774562 16.0819462,5.08516913 L16.0819462,5.03395274 C16.0819462,4.58137625 16.448832,4.21449052 16.9014085,4.21449052 Z M25.5057618,4.21449052 C25.9583383,4.21449052 26.3252241,4.58137625 26.3252241,5.03395274 L26.3252241,5.08516913 C26.3252241,5.53774562 25.9583383,5.90463136 25.5057618,5.90463136 C25.0531854,5.90463136 24.6862996,5.53774562 24.6862996,5.08516913 L24.6862996,5.03395274 C24.6862996,4.58137625 25.0531854,4.21449052 25.5057618,4.21449052 Z M25.5057618,6.43280038 C25.9583383,6.43280038 26.3252241,6.79968611 26.3252241,7.2522626 L26.3252241,7.30347899 C26.3252241,7.75605548 25.9583383,8.12294122 25.5057618,8.12294122 C25.0531854,8.12294122 24.6862996,7.75605548 24.6862996,7.30347899 L24.6862996,7.2522626 C24.6862996,6.79968611 25.0531854,6.43280038 25.5057618,6.43280038 Z M25.5057618,8.65111023 C25.9583383,8.65111023 26.3252241,9.01799597 26.3252241,9.47057246 L26.3252241,9.52178885 C26.3252241,9.97436534 25.9583383,10.3412511 25.5057618,10.3412511 C25.0531854,10.3412511 24.6862996,9.97436534 24.6862996,9.52178885 L24.6862996,9.47057246 C24.6862996,9.01799597 25.0531854,8.65111023 25.5057618,8.65111023 Z M14.7503201,6.43280038 C15.2028966,6.43280038 15.5697823,6.79968611 15.5697823,7.2522626 L15.5697823,7.30347899 C15.5697823,7.75605548 15.2028966,8.12294122 14.7503201,8.12294122 C14.2977436,8.12294122 13.9308579,7.75605548 13.9308579,7.30347899 L13.9308579,7.2522626 C13.9308579,6.79968611 14.2977436,6.43280038 14.7503201,6.43280038 Z M16.9014085,6.43280038 C17.3539849,6.43280038 17.7208707,6.79968611 17.7208707,7.2522626 L17.7208707,7.30347899 C17.7208707,7.75605548 17.3539849,8.12294122 16.9014085,8.12294122 C16.448832,8.12294122 16.0819462,7.75605548 16.0819462,7.30347899 L16.0819462,7.2522626 C16.0819462,6.79968611 16.448832,6.43280038 16.9014085,6.43280038 Z M14.7503201,8.65111023 C15.2028966,8.65111023 15.5697823,9.01799597 15.5697823,9.47057246 L15.5697823,9.52178885 C15.5697823,9.97436534 15.2028966,10.3412511 14.7503201,10.3412511 C14.2977436,10.3412511 13.9308579,9.97436534 13.9308579,9.52178885 L13.9308579,9.47057246 C13.9308579,9.01799597 14.2977436,8.65111023 14.7503201,8.65111023 Z M16.9014085,8.65111023 C17.3539849,8.65111023 17.7208707,9.01799597 17.7208707,9.47057246 L17.7208707,9.52178885 C17.7208707,9.97436534 17.3539849,10.3412511 16.9014085,10.3412511 C16.448832,10.3412511 16.0819462,9.97436534 16.0819462,9.52178885 L16.0819462,9.47057246 C16.0819462,9.01799597 16.448832,8.65111023 16.9014085,8.65111023 Z M14.7503201,10.8694201 C15.2028966,10.8694201 15.5697823,11.2363058 15.5697823,11.6888823 L15.5697823,11.7400987 C15.5697823,12.1926752 15.2028966,12.5595609 14.7503201,12.5595609 C14.2977436,12.5595609 13.9308579,12.1926752 13.9308579,11.7400987 L13.9308579,11.6888823 C13.9308579,11.2363058 14.2977436,10.8694201 14.7503201,10.8694201 Z M16.9014085,10.8694201 C17.3539849,10.8694201 17.7208707,11.2363058 17.7208707,11.6888823 L17.7208707,11.7400987 C17.7208707,12.1926752 17.3539849,12.5595609 16.9014085,12.5595609 C16.448832,12.5595609 16.0819462,12.1926752 16.0819462,11.7400987 L16.0819462,11.6888823 C16.0819462,11.2363058 16.448832,10.8694201 16.9014085,10.8694201 Z M14.7503201,13.08773 C15.2028966,13.08773 15.5697823,13.4546157 15.5697823,13.9071922 L15.5697823,13.9584086 C15.5697823,14.4109851 15.2028966,14.7778708 14.7503201,14.7778708 C14.2977436,14.7778708 13.9308579,14.4109851 13.9308579,13.9584086 L13.9308579,13.9071922 C13.9308579,13.4546157 14.2977436,13.08773 14.7503201,13.08773 Z M14.7503201,15.3060398 C15.2028966,15.3060398 15.5697823,15.6729255 15.5697823,16.125502 L15.5697823,16.1767184 C15.5697823,16.6292949 15.2028966,16.9961807 14.7503201,16.9961807 C14.2977436,16.9961807 13.9308579,16.6292949 13.9308579,16.1767184 L13.9308579,16.125502 C13.9308579,15.6729255 14.2977436,15.3060398 14.7503201,15.3060398 Z M16.9014085,13.08773 C17.3539849,13.08773 17.7208707,13.4546157 17.7208707,13.9071922 L17.7208707,13.9584086 C17.7208707,14.4109851 17.3539849,14.7778708 16.9014085,14.7778708 C16.448832,14.7778708 16.0819462,14.4109851 16.0819462,13.9584086 L16.0819462,13.9071922 C16.0819462,13.4546157 16.448832,13.08773 16.9014085,13.08773 Z M16.9014085,15.3060398 C17.3539849,15.3060398 17.7208707,15.6729255 17.7208707,16.125502 L17.7208707,16.1767184 C17.7208707,16.6292949 17.3539849,16.9961807 16.9014085,16.9961807 C16.448832,16.9961807 16.0819462,16.6292949 16.0819462,16.1767184 L16.0819462,16.125502 C16.0819462,15.6729255 16.448832,15.3060398 16.9014085,15.3060398 Z M0.819462228,1.99618066 C1.27203872,1.99618066 1.63892446,2.36306639 1.63892446,2.81564288 L1.63892446,2.86685927 C1.63892446,3.31943577 1.27203872,3.6863215 0.819462228,3.6863215 C0.366885736,3.6863215 -2.27318251e-13,3.31943577 -2.27373675e-13,2.86685927 L-2.27373675e-13,2.81564288 C-2.274291e-13,2.36306639 0.366885736,1.99618066 0.819462228,1.99618066 Z M2.97055058,1.99618066 C3.42312707,1.99618066 3.7900128,2.36306639 3.7900128,2.81564288 L3.7900128,2.86685927 C3.7900128,3.31943577 3.42312707,3.6863215 2.97055058,3.6863215 C2.51797408,3.6863215 2.15108835,3.31943577 2.15108835,2.86685927 L2.15108835,2.81564288 C2.15108835,2.36306639 2.51797408,1.99618066 2.97055058,1.99618066 Z M5.12163892,1.99618066 C5.57421542,1.99618066 5.94110115,2.36306639 5.94110115,2.81564288 L5.94110115,2.86685927 C5.94110115,3.31943577 5.57421542,3.6863215 5.12163892,3.6863215 C4.66906243,3.6863215 4.3021767,3.31943577 4.3021767,2.86685927 L4.3021767,2.81564288 C4.3021767,2.36306639 4.66906243,1.99618066 5.12163892,1.99618066 Z M5.12163892,10.8694201 C5.57421542,10.8694201 5.94110115,11.2363058 5.94110115,11.6888823 L5.94110115,11.7400987 C5.94110115,12.1926752 5.57421542,12.5595609 5.12163892,12.5595609 C4.66906243,12.5595609 4.3021767,12.1926752 4.3021767,11.7400987 L4.3021767,11.6888823 C4.3021767,11.2363058 4.66906243,10.8694201 5.12163892,10.8694201 Z M7.27272727,1.99618066 C7.72530376,1.99618066 8.0921895,2.36306639 8.0921895,2.81564288 L8.0921895,2.86685927 C8.0921895,3.31943577 7.72530376,3.6863215 7.27272727,3.6863215 C6.82015078,3.6863215 6.45326504,3.31943577 6.45326504,2.86685927 L6.45326504,2.81564288 C6.45326504,2.36306639 6.82015078,1.99618066 7.27272727,1.99618066 Z M7.27272727,10.8694201 C7.72530376,10.8694201 8.0921895,11.2363058 8.0921895,11.6888823 L8.0921895,11.7400987 C8.0921895,12.1926752 7.72530376,12.5595609 7.27272727,12.5595609 C6.82015078,12.5595609 6.45326504,12.1926752 6.45326504,11.7400987 L6.45326504,11.6888823 C6.45326504,11.2363058 6.82015078,10.8694201 7.27272727,10.8694201 Z M0.819462228,4.21449052 C1.27203872,4.21449052 1.63892446,4.58137625 1.63892446,5.03395274 L1.63892446,5.08516913 C1.63892446,5.53774562 1.27203872,5.90463136 0.819462228,5.90463136 C0.366885736,5.90463136 -2.27318251e-13,5.53774562 -2.27373675e-13,5.08516913 L-2.27373675e-13,5.03395274 C-2.274291e-13,4.58137625 0.366885736,4.21449052 0.819462228,4.21449052 Z M9.42381562,4.21449052 C9.87639211,4.21449052 10.2432778,4.58137625 10.2432778,5.03395274 L10.2432778,5.08516913 C10.2432778,5.53774562 9.87639211,5.90463136 9.42381562,5.90463136 C8.97123913,5.90463136 8.60435339,5.53774562 8.60435339,5.08516913 L8.60435339,5.03395274 C8.60435339,4.58137625 8.97123913,4.21449052 9.42381562,4.21449052 Z M9.42381562,6.43280038 C9.87639211,6.43280038 10.2432778,6.79968611 10.2432778,7.2522626 L10.2432778,7.30347899 C10.2432778,7.75605548 9.87639211,8.12294122 9.42381562,8.12294122 C8.97123913,8.12294122 8.60435339,7.75605548 8.60435339,7.30347899 L8.60435339,7.2522626 C8.60435339,6.79968611 8.97123913,6.43280038 9.42381562,6.43280038 Z M9.42381562,8.65111023 C9.87639211,8.65111023 10.2432778,9.01799597 10.2432778,9.47057246 L10.2432778,9.52178885 C10.2432778,9.97436534 9.87639211,10.3412511 9.42381562,10.3412511 C8.97123913,10.3412511 8.60435339,9.97436534 8.60435339,9.52178885 L8.60435339,9.47057246 C8.60435339,9.01799597 8.97123913,8.65111023 9.42381562,8.65111023 Z M2.97055058,4.21449052 C3.42312707,4.21449052 3.7900128,4.58137625 3.7900128,5.03395274 L3.7900128,5.08516913 C3.7900128,5.53774562 3.42312707,5.90463136 2.97055058,5.90463136 C2.51797408,5.90463136 2.15108835,5.53774562 2.15108835,5.08516913 L2.15108835,5.03395274 C2.15108835,4.58137625 2.51797408,4.21449052 2.97055058,4.21449052 Z M11.574904,4.21449052 C12.0274805,4.21449052 12.3943662,4.58137625 12.3943662,5.03395274 L12.3943662,5.08516913 C12.3943662,5.53774562 12.0274805,5.90463136 11.574904,5.90463136 C11.1223275,5.90463136 10.7554417,5.53774562 10.7554417,5.08516913 L10.7554417,5.03395274 C10.7554417,4.58137625 11.1223275,4.21449052 11.574904,4.21449052 Z M11.574904,6.43280038 C12.0274805,6.43280038 12.3943662,6.79968611 12.3943662,7.2522626 L12.3943662,7.30347899 C12.3943662,7.75605548 12.0274805,8.12294122 11.574904,8.12294122 C11.1223275,8.12294122 10.7554417,7.75605548 10.7554417,7.30347899 L10.7554417,7.2522626 C10.7554417,6.79968611 11.1223275,6.43280038 11.574904,6.43280038 Z M11.574904,8.65111023 C12.0274805,8.65111023 12.3943662,9.01799597 12.3943662,9.47057246 L12.3943662,9.52178885 C12.3943662,9.97436534 12.0274805,10.3412511 11.574904,10.3412511 C11.1223275,10.3412511 10.7554417,9.97436534 10.7554417,9.52178885 L10.7554417,9.47057246 C10.7554417,9.01799597 11.1223275,8.65111023 11.574904,8.65111023 Z M0.819462228,6.43280038 C1.27203872,6.43280038 1.63892446,6.79968611 1.63892446,7.2522626 L1.63892446,7.30347899 C1.63892446,7.75605548 1.27203872,8.12294122 0.819462228,8.12294122 C0.366885736,8.12294122 -2.27318251e-13,7.75605548 -2.27373675e-13,7.30347899 L-2.27373675e-13,7.2522626 C-2.274291e-13,6.79968611 0.366885736,6.43280038 0.819462228,6.43280038 Z M2.97055058,6.43280038 C3.42312707,6.43280038 3.7900128,6.79968611 3.7900128,7.2522626 L3.7900128,7.30347899 C3.7900128,7.75605548 3.42312707,8.12294122 2.97055058,8.12294122 C2.51797408,8.12294122 2.15108835,7.75605548 2.15108835,7.30347899 L2.15108835,7.2522626 C2.15108835,6.79968611 2.51797408,6.43280038 2.97055058,6.43280038 Z M0.819462228,8.65111023 C1.27203872,8.65111023 1.63892446,9.01799597 1.63892446,9.47057246 L1.63892446,9.52178885 C1.63892446,9.97436534 1.27203872,10.3412511 0.819462228,10.3412511 C0.366885736,10.3412511 -2.27318251e-13,9.97436534 -2.27373675e-13,9.52178885 L-2.27373675e-13,9.47057246 C-2.274291e-13,9.01799597 0.366885736,8.65111023 0.819462228,8.65111023 Z M2.97055058,8.65111023 C3.42312707,8.65111023 3.7900128,9.01799597 3.7900128,9.47057246 L3.7900128,9.52178885 C3.7900128,9.97436534 3.42312707,10.3412511 2.97055058,10.3412511 C2.51797408,10.3412511 2.15108835,9.97436534 2.15108835,9.52178885 L2.15108835,9.47057246 C2.15108835,9.01799597 2.51797408,8.65111023 2.97055058,8.65111023 Z M0.819462228,10.8694201 C1.27203872,10.8694201 1.63892446,11.2363058 1.63892446,11.6888823 L1.63892446,11.7400987 C1.63892446,12.1926752 1.27203872,12.5595609 0.819462228,12.5595609 C0.366885736,12.5595609 -2.27318251e-13,12.1926752 -2.27373675e-13,11.7400987 L-2.27373675e-13,11.6888823 C-2.274291e-13,11.2363058 0.366885736,10.8694201 0.819462228,10.8694201 Z M2.97055058,10.8694201 C3.42312707,10.8694201 3.7900128,11.2363058 3.7900128,11.6888823 L3.7900128,11.7400987 C3.7900128,12.1926752 3.42312707,12.5595609 2.97055058,12.5595609 C2.51797408,12.5595609 2.15108835,12.1926752 2.15108835,11.7400987 L2.15108835,11.6888823 C2.15108835,11.2363058 2.51797408,10.8694201 2.97055058,10.8694201 Z M0.819462228,13.08773 C1.27203872,13.08773 1.63892446,13.4546157 1.63892446,13.9071922 L1.63892446,13.9584086 C1.63892446,14.4109851 1.27203872,14.7778708 0.819462228,14.7778708 C0.366885736,14.7778708 -2.27318251e-13,14.4109851 -2.27373675e-13,13.9584086 L-2.27373675e-13,13.9071922 C-2.274291e-13,13.4546157 0.366885736,13.08773 0.819462228,13.08773 Z M0.819462228,15.3060398 C1.27203872,15.3060398 1.63892446,15.6729255 1.63892446,16.125502 L1.63892446,16.1767184 C1.63892446,16.6292949 1.27203872,16.9961807 0.819462228,16.9961807 C0.366885736,16.9961807 -2.27318251e-13,16.6292949 -2.27373675e-13,16.1767184 L-2.27373675e-13,16.125502 C-2.274291e-13,15.6729255 0.366885736,15.3060398 0.819462228,15.3060398 Z M2.97055058,13.08773 C3.42312707,13.08773 3.7900128,13.4546157 3.7900128,13.9071922 L3.7900128,13.9584086 C3.7900128,14.4109851 3.42312707,14.7778708 2.97055058,14.7778708 C2.51797408,14.7778708 2.15108835,14.4109851 2.15108835,13.9584086 L2.15108835,13.9071922 C2.15108835,13.4546157 2.51797408,13.08773 2.97055058,13.08773 Z M2.97055058,15.3060398 C3.42312707,15.3060398 3.7900128,15.6729255 3.7900128,16.125502 L3.7900128,16.1767184 C3.7900128,16.6292949 3.42312707,16.9961807 2.97055058,16.9961807 C2.51797408,16.9961807 2.15108835,16.6292949 2.15108835,16.1767184 L2.15108835,16.125502 C2.15108835,15.6729255 2.51797408,15.3060398 2.97055058,15.3060398 Z M28.425096,1.99618066 C28.8776725,1.99618066 29.2445583,2.36306639 29.2445583,2.81564288 L29.2445583,2.86685927 C29.2445583,3.31943577 28.8776725,3.6863215 28.425096,3.6863215 C27.9725195,3.6863215 27.6056338,3.31943577 27.6056338,2.86685927 L27.6056338,2.81564288 C27.6056338,2.36306639 27.9725195,1.99618066 28.425096,1.99618066 Z M32.7272727,1.99618066 C33.1798492,1.99618066 33.546735,2.36306639 33.546735,2.81564288 L33.546735,2.86685927 C33.546735,3.31943577 33.1798492,3.6863215 32.7272727,3.6863215 C32.2746962,3.6863215 31.9078105,3.31943577 31.9078105,2.86685927 L31.9078105,2.81564288 C31.9078105,2.36306639 32.2746962,1.99618066 32.7272727,1.99618066 Z M32.7272727,4.21449052 C33.1798492,4.21449052 33.546735,4.58137625 33.546735,5.03395274 L33.546735,5.08516913 C33.546735,5.53774562 33.1798492,5.90463136 32.7272727,5.90463136 C32.2746962,5.90463136 31.9078105,5.53774562 31.9078105,5.08516913 L31.9078105,5.03395274 C31.9078105,4.58137625 32.2746962,4.21449052 32.7272727,4.21449052 Z M32.7272727,8.65111023 C33.1798492,8.65111023 33.546735,9.01799597 33.546735,9.47057246 L33.546735,9.52178885 C33.546735,9.97436534 33.1798492,10.3412511 32.7272727,10.3412511 C32.2746962,10.3412511 31.9078105,9.97436534 31.9078105,9.52178885 L31.9078105,9.47057246 C31.9078105,9.01799597 32.2746962,8.65111023 32.7272727,8.65111023 Z M32.7272727,13.08773 C33.1798492,13.08773 33.546735,13.4546157 33.546735,13.9071922 L33.546735,13.9584086 C33.546735,14.4109851 33.1798492,14.7778708 32.7272727,14.7778708 C32.2746962,14.7778708 31.9078105,14.4109851 31.9078105,13.9584086 L31.9078105,13.9071922 C31.9078105,13.4546157 32.2746962,13.08773 32.7272727,13.08773 Z M32.7272727,6.43280038 C33.1798492,6.43280038 33.546735,6.79968611 33.546735,7.2522626 L33.546735,7.30347899 C33.546735,7.75605548 33.1798492,8.12294122 32.7272727,8.12294122 C32.2746962,8.12294122 31.9078105,7.75605548 31.9078105,7.30347899 L31.9078105,7.2522626 C31.9078105,6.79968611 32.2746962,6.43280038 32.7272727,6.43280038 Z M32.7272727,10.8694201 C33.1798492,10.8694201 33.546735,11.2363058 33.546735,11.6888823 L33.546735,11.7400987 C33.546735,12.1926752 33.1798492,12.5595609 32.7272727,12.5595609 C32.2746962,12.5595609 31.9078105,12.1926752 31.9078105,11.7400987 L31.9078105,11.6888823 C31.9078105,11.2363058 32.2746962,10.8694201 32.7272727,10.8694201 Z M32.7272727,15.3060398 C33.1798492,15.3060398 33.546735,15.6729255 33.546735,16.125502 L33.546735,16.1767184 C33.546735,16.6292949 33.1798492,16.9961807 32.7272727,16.9961807 C32.2746962,16.9961807 31.9078105,16.6292949 31.9078105,16.1767184 L31.9078105,16.125502 C31.9078105,15.6729255 32.2746962,15.3060398 32.7272727,15.3060398 Z M37.0294494,1.99618066 C37.4820259,1.99618066 37.8489117,2.36306639 37.8489117,2.81564288 L37.8489117,2.86685927 C37.8489117,3.31943577 37.4820259,3.6863215 37.0294494,3.6863215 C36.5768729,3.6863215 36.2099872,3.31943577 36.2099872,2.86685927 L36.2099872,2.81564288 C36.2099872,2.36306639 36.5768729,1.99618066 37.0294494,1.99618066 Z M30.5761844,1.99618066 C31.0287609,1.99618066 31.3956466,2.36306639 31.3956466,2.81564288 L31.3956466,2.86685927 C31.3956466,3.31943577 31.0287609,3.6863215 30.5761844,3.6863215 C30.1236079,3.6863215 29.7567222,3.31943577 29.7567222,2.86685927 L29.7567222,2.81564288 C29.7567222,2.36306639 30.1236079,1.99618066 30.5761844,1.99618066 Z M34.8783611,1.99618066 C35.3309376,1.99618066 35.6978233,2.36306639 35.6978233,2.81564288 L35.6978233,2.86685927 C35.6978233,3.31943577 35.3309376,3.6863215 34.8783611,3.6863215 C34.4257846,3.6863215 34.0588988,3.31943577 34.0588988,2.86685927 L34.0588988,2.81564288 C34.0588988,2.36306639 34.4257846,1.99618066 34.8783611,1.99618066 Z M34.8783611,4.21449052 C35.3309376,4.21449052 35.6978233,4.58137625 35.6978233,5.03395274 L35.6978233,5.08516913 C35.6978233,5.53774562 35.3309376,5.90463136 34.8783611,5.90463136 C34.4257846,5.90463136 34.0588988,5.53774562 34.0588988,5.08516913 L34.0588988,5.03395274 C34.0588988,4.58137625 34.4257846,4.21449052 34.8783611,4.21449052 Z M34.8783611,8.65111023 C35.3309376,8.65111023 35.6978233,9.01799597 35.6978233,9.47057246 L35.6978233,9.52178885 C35.6978233,9.97436534 35.3309376,10.3412511 34.8783611,10.3412511 C34.4257846,10.3412511 34.0588988,9.97436534 34.0588988,9.52178885 L34.0588988,9.47057246 C34.0588988,9.01799597 34.4257846,8.65111023 34.8783611,8.65111023 Z M34.8783611,13.08773 C35.3309376,13.08773 35.6978233,13.4546157 35.6978233,13.9071922 L35.6978233,13.9584086 C35.6978233,14.4109851 35.3309376,14.7778708 34.8783611,14.7778708 C34.4257846,14.7778708 34.0588988,14.4109851 34.0588988,13.9584086 L34.0588988,13.9071922 C34.0588988,13.4546157 34.4257846,13.08773 34.8783611,13.08773 Z M34.8783611,6.43280038 C35.3309376,6.43280038 35.6978233,6.79968611 35.6978233,7.2522626 L35.6978233,7.30347899 C35.6978233,7.75605548 35.3309376,8.12294122 34.8783611,8.12294122 C34.4257846,8.12294122 34.0588988,7.75605548 34.0588988,7.30347899 L34.0588988,7.2522626 C34.0588988,6.79968611 34.4257846,6.43280038 34.8783611,6.43280038 Z M34.8783611,10.8694201 C35.3309376,10.8694201 35.6978233,11.2363058 35.6978233,11.6888823 L35.6978233,11.7400987 C35.6978233,12.1926752 35.3309376,12.5595609 34.8783611,12.5595609 C34.4257846,12.5595609 34.0588988,12.1926752 34.0588988,11.7400987 L34.0588988,11.6888823 C34.0588988,11.2363058 34.4257846,10.8694201 34.8783611,10.8694201 Z M34.8783611,15.3060398 C35.3309376,15.3060398 35.6978233,15.6729255 35.6978233,16.125502 L35.6978233,16.1767184 C35.6978233,16.6292949 35.3309376,16.9961807 34.8783611,16.9961807 C34.4257846,16.9961807 34.0588988,16.6292949 34.0588988,16.1767184 L34.0588988,16.125502 C34.0588988,15.6729255 34.4257846,15.3060398 34.8783611,15.3060398 Z M39.1805378,1.99618066 C39.6331143,1.99618066 40,2.36306639 40,2.81564288 L40,2.86685927 C40,3.31943577 39.6331143,3.6863215 39.1805378,3.6863215 C38.7279613,3.6863215 38.3610755,3.31943577 38.3610755,2.86685927 L38.3610755,2.81564288 C38.3610755,2.36306639 38.7279613,1.99618066 39.1805378,1.99618066 Z" id="path-24"></path>
        <filter x="-11.2%" y="-30.0%" width="122.5%" height="160.0%" filterUnits="objectBoundingBox" id="filter-25">
            <feMorphology radius="0.5" operator="dilate" in="SourceAlpha" result="shadowSpreadOuter1"></feMorphology>
            <feOffset dx="0" dy="0" in="shadowSpreadOuter1" result="shadowOffsetOuter1"></feOffset>
            <feGaussianBlur stdDeviation="1" in="shadowOffsetOuter1" result="shadowBlurOuter1"></feGaussianBlur>
            <feColorMatrix values="0 0 0 0 0.532075777   0 0 0 0 0.538357695   0 0 0 0 0.770788663  0 0 0 0.326248276 0" type="matrix" in="shadowBlurOuter1"></feColorMatrix>
        </filter>
        <linearGradient x1="1.14054647%" y1="39.1111111%" x2="100%" y2="63.4617253%" id="linearGradient-26">
            <stop stop-color="#FFFCEC" offset="0%"></stop>
            <stop stop-color="#FFE5AA" offset="100%"></stop>
        </linearGradient>
        <path d="M26.1159127,59.4106079 L56.1159127,59.4106079 C56.1159127,67.1425944 49.8478992,73.4106079 42.1159127,73.4106079 L40.1159127,73.4106079 C32.3839262,73.4106079 26.1159127,67.1425944 26.1159127,59.4106079 L26.1159127,59.4106079 L26.1159127,59.4106079 Z" id="path-27"></path>
        <filter x="-15.0%" y="-32.1%" width="130.0%" height="164.3%" filterUnits="objectBoundingBox" id="filter-28">
            <feMorphology radius="0.5" operator="dilate" in="SourceAlpha" result="shadowSpreadOuter1"></feMorphology>
            <feOffset dx="0" dy="0" in="shadowSpreadOuter1" result="shadowOffsetOuter1"></feOffset>
            <feGaussianBlur stdDeviation="1" in="shadowOffsetOuter1" result="shadowBlurOuter1"></feGaussianBlur>
            <feColorMatrix values="0 0 0 0 1   0 0 0 0 0.582779292   0 0 0 0 0.121568627  0 0 0 0.321605442 0" type="matrix" in="shadowBlurOuter1"></feColorMatrix>
        </filter>
        <linearGradient x1="50%" y1="0%" x2="50%" y2="100%" id="linearGradient-29">
            <stop stop-color="#FFF8DC" offset="0%"></stop>
            <stop stop-color="#FFF8EA" offset="100%"></stop>
        </linearGradient>
        <radialGradient cx="38.8949078%" cy="39.0307208%" fx="38.8949078%" fy="39.0307208%" r="37.4957318%" gradientTransform="translate(0.3889, 0.3903), scale(0.8133, 1), rotate(90), scale(1, 1.4054), translate(-0.3889, -0.3903)" id="radialGradient-30">
            <stop stop-color="#FFFFFF" stop-opacity="0.5" offset="0%"></stop>
            <stop stop-color="#FFFFFF" stop-opacity="0.5" offset="81.2044157%"></stop>
        </radialGradient>
        <linearGradient x1="50%" y1="34.6360543%" x2="9.33155802%" y2="73.5821727%" id="linearGradient-31">
            <stop stop-color="#FFF5C9" offset="0%"></stop>
            <stop stop-color="#FF741F" offset="100%"></stop>
        </linearGradient>
        <ellipse id="path-32" cx="11.7195996" cy="70.0731046" rx="10.1298077" ry="8.23880597"></ellipse>
        <filter x="-36.6%" y="-32.9%" width="173.2%" height="190.0%" filterUnits="objectBoundingBox" id="filter-33">
            <feMorphology radius="0.413461538" operator="dilate" in="SourceAlpha" result="shadowSpreadOuter1"></feMorphology>
            <feOffset dx="0" dy="2" in="shadowSpreadOuter1" result="shadowOffsetOuter1"></feOffset>
            <feGaussianBlur stdDeviation="2" in="shadowOffsetOuter1" result="shadowBlurOuter1"></feGaussianBlur>
            <feComposite in="shadowBlurOuter1" in2="SourceAlpha" operator="out" result="shadowBlurOuter1"></feComposite>
            <feColorMatrix values="0 0 0 0 0.877003545   0 0 0 0 0.471598296   0 0 0 0 0.021148018  0 0 0 0.814094063 0" type="matrix" in="shadowBlurOuter1"></feColorMatrix>
        </filter>
        <filter x="-39.1%" y="-35.9%" width="178.1%" height="196.1%" filterUnits="objectBoundingBox" id="filter-34">
            <feGaussianBlur stdDeviation="2" in="SourceAlpha" result="shadowBlurInner1"></feGaussianBlur>
            <feOffset dx="-1" dy="-3" in="shadowBlurInner1" result="shadowOffsetInner1"></feOffset>
            <feComposite in="shadowOffsetInner1" in2="SourceAlpha" operator="arithmetic" k2="-1" k3="1" result="shadowInnerInner1"></feComposite>
            <feColorMatrix values="0 0 0 0 0.996078431   0 0 0 0 0.733333333   0 0 0 0 0.164705882  0 0 0 0.589850793 0" type="matrix" in="shadowInnerInner1"></feColorMatrix>
        </filter>
        <linearGradient x1="50%" y1="0%" x2="50%" y2="100%" id="linearGradient-35">
            <stop stop-color="#FFF8DC" offset="0%"></stop>
            <stop stop-color="#FFF8EA" offset="100%"></stop>
        </linearGradient>
        <radialGradient cx="38.8949078%" cy="39.0307208%" fx="38.8949078%" fy="39.0307208%" r="37.4957318%" gradientTransform="translate(0.3889, 0.3903), scale(0.793, 1), rotate(90), scale(1, 1.4054), translate(-0.3889, -0.3903)" id="radialGradient-36">
            <stop stop-color="#FFFFFF" stop-opacity="0.5" offset="0%"></stop>
            <stop stop-color="#FFFFFF" stop-opacity="0.5" offset="81.2044157%"></stop>
        </radialGradient>
        <linearGradient x1="26.1442713%" y1="27.9210664%" x2="50%" y2="78.3742934%" id="linearGradient-37">
            <stop stop-color="#FFE5B6" offset="0%"></stop>
            <stop stop-color="#FF741F" offset="100%"></stop>
        </linearGradient>
        <ellipse id="path-38" cx="77.4599842" cy="70.2790747" rx="10.1298077" ry="8.03283582"></ellipse>
        <filter x="-36.6%" y="-33.7%" width="173.2%" height="192.3%" filterUnits="objectBoundingBox" id="filter-39">
            <feMorphology radius="0.413461538" operator="dilate" in="SourceAlpha" result="shadowSpreadOuter1"></feMorphology>
            <feOffset dx="0" dy="2" in="shadowSpreadOuter1" result="shadowOffsetOuter1"></feOffset>
            <feGaussianBlur stdDeviation="2" in="shadowOffsetOuter1" result="shadowBlurOuter1"></feGaussianBlur>
            <feComposite in="shadowBlurOuter1" in2="SourceAlpha" operator="out" result="shadowBlurOuter1"></feComposite>
            <feColorMatrix values="0 0 0 0 0.877003545   0 0 0 0 0.471598296   0 0 0 0 0.021148018  0 0 0 0.814094063 0" type="matrix" in="shadowBlurOuter1"></feColorMatrix>
        </filter>
        <filter x="-36.6%" y="-33.7%" width="173.2%" height="192.3%" filterUnits="objectBoundingBox" id="filter-40">
            <feGaussianBlur stdDeviation="2" in="SourceAlpha" result="shadowBlurInner1"></feGaussianBlur>
            <feOffset dx="-1" dy="-2" in="shadowBlurInner1" result="shadowOffsetInner1"></feOffset>
            <feComposite in="shadowOffsetInner1" in2="SourceAlpha" operator="arithmetic" k2="-1" k3="1" result="shadowInnerInner1"></feComposite>
            <feColorMatrix values="0 0 0 0 0.996078431   0 0 0 0 0.733333333   0 0 0 0 0.164705882  0 0 0 0.800543085 0" type="matrix" in="shadowInnerInner1"></feColorMatrix>
        </filter>
    </defs>
    <g id="PPT助手-110" stroke="none" stroke-width="1" fill="none" fill-rule="evenodd">
        <g id="编组-6">
            <g id="编组-3" transform="translate(7, 7)">
                <mask id="mask-3" fill="white">
                    <use xlink:href="#path-2"></use>
                </mask>
                <g id="蒙版" fill-rule="nonzero">
                    <use fill="black" fill-opacity="1" filter="url(#filter-4)" xlink:href="#path-2"></use>
                    <use fill="url(#linearGradient-1)" xlink:href="#path-2"></use>
                </g>
            </g>
            <g id="编组-21" transform="translate(10.4102, 9.8)">
                <g id="编组-8" transform="translate(43.2582, 41.6664) rotate(-5) translate(-43.2582, -41.6664)translate(3.1873, 3.3466)">
                    <g id="形状结合">
                        <use fill="url(#linearGradient-5)" fill-rule="evenodd" xlink:href="#path-9"></use>
                        <use fill="url(#radialGradient-6)" fill-rule="evenodd" xlink:href="#path-9"></use>
                        <use fill="url(#radialGradient-7)" fill-rule="evenodd" xlink:href="#path-9"></use>
                        <use fill="black" fill-opacity="1" filter="url(#filter-10)" xlink:href="#path-9"></use>
                        <path stroke="url(#linearGradient-8)" stroke-width="0.413461538" d="M40,6.56037255 C51.1038894,6.56037255 61.1570846,11.2853129 68.4339728,18.9260456 C75.7072992,26.5630382 80.2067308,37.113233 80.2067308,48.7671033 C80.2067308,56.76068 75.7902738,63.7323132 68.6168318,68.7308645 C61.3318791,73.807118 51.2022351,76.8463747 40,76.8463747 C28.7977649,76.8463747 18.6681209,73.807118 11.3831682,68.7308645 C4.20972623,63.7323132 -0.206730769,56.76068 -0.206730769,48.7671033 C-0.206730769,37.113233 4.29270082,26.5630382 11.5660272,18.9260456 C18.8429154,11.2853129 28.8961106,6.56037255 40,6.56037255 Z"></path>
                    </g>
                    <g id="形状结合" filter="url(#filter-12)" fill="black" fill-opacity="1">
                        <use filter="url(#filter-13)" xlink:href="#path-11"></use>
                    </g>
                    <g id="路径">
                        <use fill="black" fill-opacity="1" filter="url(#filter-17)" xlink:href="#path-16"></use>
                        <use fill="url(#linearGradient-14)" fill-rule="evenodd" xlink:href="#path-16"></use>
                        <use fill="black" fill-opacity="1" filter="url(#filter-18)" xlink:href="#path-16"></use>
                        <path stroke="url(#linearGradient-15)" stroke-width="1.5" d="M40.0278962,18.2135882 C48.1823711,18.2135882 55.5694104,20.7306043 60.9148473,24.8161262 C66.1773113,28.8382317 69.4605885,34.3862355 69.4605885,40.5322449 L69.4605885,42.3365188 C69.4605885,45.2854813 68.2713901,47.9607556 66.3425445,49.9089398 C64.4127174,51.8581155 61.7425685,53.0795347 58.7816135,53.1198403 L39.9911112,53.3756233 L21.2738178,53.1202148 C18.3129345,53.0798118 15.6428758,51.8583588 13.7131211,49.9091913 C11.7843479,47.9610151 10.5952039,45.2857907 10.5952039,42.3368983 L10.5952039,40.5322449 C10.5952039,34.3862355 13.8784811,28.8382317 19.1409451,24.8161262 C24.486382,20.7306043 31.8734213,18.2135882 40.0278962,18.2135882 Z" stroke-linejoin="square"></path>
                    </g>
                    <g id="路径-11" filter="url(#filter-22)" transform="translate(30.0734, 33.9949) rotate(3) translate(-30.0734, -33.9949)">
                        <use fill="url(#linearGradient-19)" xlink:href="#path-21"></use>
                        <use fill="url(#radialGradient-20)" xlink:href="#path-21"></use>
                    </g>
                    <g id="Image-1-(1)" transform="translate(20.5393, 28.1638)" opacity="0.9">
                        <g id="形状结合">
                            <use fill="black" fill-opacity="1" filter="url(#filter-25)" xlink:href="#path-24"></use>
                            <use fill="url(#linearGradient-23)" fill-rule="evenodd" xlink:href="#path-24"></use>
                        </g>
                    </g>
                    <g id="编组-23" transform="translate(23.1176, 29.3741)"></g>
                    <g id="编组-23" transform="translate(20.6265, 29.1638)"></g>
                    <g id="矩形">
                        <use fill="black" fill-opacity="1" filter="url(#filter-28)" xlink:href="#path-27"></use>
                        <use fill="url(#linearGradient-26)" fill-rule="evenodd" xlink:href="#path-27"></use>
                    </g>
                </g>
                <g id="椭圆形">
                    <use fill="black" fill-opacity="1" filter="url(#filter-33)" xlink:href="#path-32"></use>
                    <use fill="url(#linearGradient-29)" fill-rule="evenodd" xlink:href="#path-32"></use>
                    <use fill-opacity="0.7" fill="url(#radialGradient-30)" fill-rule="evenodd" xlink:href="#path-32"></use>
                    <use fill="black" fill-opacity="1" filter="url(#filter-34)" xlink:href="#path-32"></use>
                    <ellipse stroke="url(#linearGradient-31)" stroke-width="0.413461538" cx="11.7195996" cy="70.0731046" rx="10.3365385" ry="8.44553674"></ellipse>
                </g>
                <g id="椭圆形">
                    <use fill="black" fill-opacity="1" filter="url(#filter-39)" xlink:href="#path-38"></use>
                    <use fill="url(#linearGradient-35)" fill-rule="evenodd" xlink:href="#path-38"></use>
                    <use fill-opacity="0.7" fill="url(#radialGradient-36)" fill-rule="evenodd" xlink:href="#path-38"></use>
                    <use fill="black" fill-opacity="1" filter="url(#filter-40)" xlink:href="#path-38"></use>
                    <ellipse stroke="url(#linearGradient-37)" stroke-width="0.413461538" cx="77.4599842" cy="70.2790747" rx="10.3365385" ry="8.23956659"></ellipse>
                </g>
            </g>
        </g>
    </g>
</svg>