<?xml version="1.0" encoding="UTF-8"?>
<svg width="25px" height="19px" viewBox="0 0 25 19" version="1.1" xmlns="http://www.w3.org/2000/svg" xmlns:xlink="http://www.w3.org/1999/xlink">
    <title>play-02</title>
    <g id="play-02" stroke="none" stroke-width="1" fill="none" fill-rule="evenodd">
        <path d="M11.1046527,0 C13.3950709,0 15.2108147,4.08031641 15.2108147,9.09999325 C15.2108147,14.1196701 13.3950709,18.1998853 11.1011686,18.1998853 L10.9025946,18.1892037 L10.80024,18.1771081 C10.5565151,18.1401082 10.3163748,18.0589022 10.0868697,17.9383465 L9.9168451,17.8406276 C9.74793015,17.7350334 9.61529786,17.6312309 9.41859191,17.4522253 L8.15591499,16.2713936 L4.91054898,13.2022045 L1.91820858,13.1884095 C1.4410076,12.9078497 1.04190242,12.4873764 0.723431262,11.9567375 C-5.21804822e-15,10.7513156 -0.184837997,9.05228813 0.186860238,7.56165242 C0.463475016,6.45242765 1.0618177,5.52827274 1.96919074,4.99823575 L4.84011033,5.02513782 L8.21734825,1.8723466 L9.1939707,0.955671002 C9.50714502,0.65880641 9.66272879,0.524034613 9.87295799,0.384475068 C10.0753498,0.250074414 10.2918746,0.152473908 10.5269057,0.0871641348 C10.6450651,0.0520892193 10.761481,0.0275113576 10.8871544,0.0129480913 L10.9901855,0.0037937932 L11.1046527,0 Z M11.108,1.199 C10.9908117,1.20959509 10.8885358,1.22937496 10.7982998,1.26101614 L10.6775818,1.3117274 C9.36451597,1.98230272 8.22966377,5.26943372 8.20137772,8.95335276 C8.19799488,9.44150005 8.2134995,9.93258608 8.24735631,10.4214517 C8.4672083,13.5474458 9.47495875,16.1808354 10.6081782,16.8501516 L10.6848379,16.8907569 C10.8215726,16.9545566 10.9617268,16.9870581 11.1015514,16.9873243 L11.1128147,16.9979932 L11.2004168,16.9943141 C12.580761,16.8360605 13.9458206,13.3869161 14.0085652,9.38662842 L14.0108147,9.09999325 C14.0108147,4.98088565 12.6141887,1.36777141 11.204191,1.20566659 L11.108,1.199 Z M7.68681473,4.01799325 L7.12057302,4.54181891 L5.61799867,5.95492149 L5.41484524,6.16226569 C4.62116379,6.99021328 4.27214038,7.71592039 4.21579887,8.86325766 C4.1579999,10.0387608 4.51252733,11.0758527 5.27582381,11.9070147 C5.42560551,12.0700838 5.57187244,12.2158444 5.78283999,12.4132442 L6.3956552,12.9764216 L7.67481473,14.1779932 L7.63664901,14.0445918 C6.98980755,11.6860873 6.83493856,9.09754982 7.16040074,6.5402061 L7.23189414,6.02923067 C7.2851387,5.68545834 7.34834465,5.34367989 7.42152889,5.00382746 L7.55407713,4.43699029 L7.68681473,4.01799325 Z M9.00526504,6.09522046 L9.10649379,5.99522801 L9.27551579,6.00171903 L9.52519327,6.02762204 L9.82341309,6.08478718 L10.1742547,6.19069143 L10.4089404,6.28695435 L10.6138412,6.39146255 L10.8114863,6.51157994 L10.9992815,6.64582077 L11.1183822,6.74275153 L11.2871668,6.89827576 L11.3944519,7.01022557 L11.4762136,7.10362747 L11.5902214,7.24756674 L11.7852763,7.54363578 L11.9061224,7.77368197 L11.9686127,7.91489562 L12.0481036,8.12931505 L12.1025654,8.31352197 L12.121165,8.38816838 L12.1811594,8.72411811 L12.1960163,8.87738083 L12.2031602,9.02836106 L12.2000593,9.25746287 L12.1621043,9.60878053 L12.1270832,9.78705054 L12.0570982,10.0438742 L12.0200528,10.1529928 L11.9350064,10.3640381 L11.9030552,10.4334399 C11.5349464,11.2068113 10.8977517,11.7502919 10.0360091,12.0586292 C9.7557742,12.1396642 9.47498369,12.1824591 9.1121725,12.2075802 L9.00526504,12.107819 L9.00526504,11.0966388 L9.10185586,10.9966969 C9.59710837,10.979803 10.0232636,10.8207923 10.3653911,10.5148218 L10.4515746,10.4325801 L10.5333089,10.3441294 L10.6222193,10.2336603 L10.7152806,10.0966803 L10.7956868,9.95304102 L10.8640929,9.80108401 L10.9320038,9.5985953 L10.9594758,9.48483776 L10.9800764,9.36794222 L10.999185,9.13373018 L10.9961372,8.99218617 L10.9793128,8.82764889 L10.968236,8.76042361 L10.9373929,8.62170127 L10.8809736,8.44255681 L10.7963363,8.24785777 L10.7520694,8.16495797 L10.665034,8.02560152 L10.5822644,7.91391384 L10.4891897,7.80602527 C10.1327837,7.42408257 9.66288969,7.22546586 9.10134298,7.20342466 L9.00526504,7.1035016 L9.00526504,6.09522046 Z M3.82481473,6.20299325 L2.84122955,6.19774413 L2.32835515,6.18063812 C1.62604508,6.81858215 1.27261797,7.71392532 1.21817491,8.82514986 C1.16076922,9.99740298 1.4407753,11.0703654 2.07524334,11.7709435 L2.19074237,11.8965498 C2.22514937,11.93505 2.25275107,11.969178 2.26540959,11.9959228 L3.82481473,11.9949932 L3.77883757,11.9232269 C3.1246192,10.8417979 2.87915679,9.56377139 3.0618785,8.27266269 L3.10759407,7.99586318 C3.22038997,7.39836394 3.43741376,6.84833391 3.77095088,6.28992352 L3.82481473,6.20299325 Z M17.4817036,5.43109756 C17.7437372,5.34395962 18.0267966,5.48574054 18.1139346,5.74777411 C18.4280439,6.69233623 18.6008147,7.86521188 18.6008147,9.09999325 C18.6008147,10.4594642 18.4700338,11.3983737 18.1031641,12.4843459 C18.0147831,12.7459628 17.7310538,12.8863982 17.4694369,12.7980173 C17.2078199,12.7096363 17.0673845,12.4259069 17.1557655,12.16429 C17.4848091,11.1902867 17.6008147,10.3574531 17.6008147,9.09999325 C17.6008147,7.96810395 17.4436518,6.90118441 17.1650271,6.06332851 C17.0778891,5.80129494 17.21967,5.51823551 17.4817036,5.43109756 Z" id="形状" fill="#0081FF" fill-rule="nonzero"></path>
    </g>
</svg>