<?xml version="1.0" encoding="UTF-8"?>
<svg width="20px" height="20px" viewBox="0 0 20 20" version="1.1" xmlns="http://www.w3.org/2000/svg" xmlns:xlink="http://www.w3.org/1999/xlink">
    <title>扩写</title>
    <g id="扩写" stroke="none" fill="none" fill-rule="evenodd" stroke-width="1">
        <g id="编组">
            <rect id="矩形" opacity="0.27011399" x="0" y="0" width="20" height="20"></rect>
            <path d="M7.5,4 C7.77614237,4 8,4.22385763 8,4.5 C8,4.77614237 7.77614237,5 7.5,5 L5,5 C4.44771525,5 4,5.44771525 4,6 L4,15 C4,15.5522847 4.44771525,16 5,16 L14,16 C14.5522847,16 15,15.5522847 15,15 L15,12.5 C15,12.2238576 15.2238576,12 15.5,12 C15.7761424,12 16,12.2238576 16,12.5 L16,15 C16,16.1045695 15.1045695,17 14,17 L5,17 C3.8954305,17 3,16.1045695 3,15 L3,6 C3,4.8954305 3.8954305,4 5,4 L7.5,4 Z M15,4 C15.5522847,4 16,4.44771525 16,5 L16,8.5 C16,8.77614237 15.7761424,9 15.5,9 C15.2238576,9 15,8.77614237 15,8.5 L14.999,5.766 L8.765,12 L11.5,12 C11.7761424,12 12,12.2238576 12,12.5 C12,12.7761424 11.7761424,13 11.5,13 L8,13 C7.44771525,13 7,12.5522847 7,12 L7,8.5 C7,8.22385763 7.22385763,8 7.5,8 C7.77614237,8 8,8.22385763 8,8.5 L7.999,11.234 L14.233,5 L11.5,5 C11.2238576,5 11,4.77614237 11,4.5 C11,4.22385763 11.2238576,4 11.5,4 L15,4 Z" id="形状结合" fill-opacity="1" fill="#FFFFFF"></path>
        </g>
    </g>
</svg>