<?xml version="1.0" encoding="UTF-8"?>
<svg width="20px" height="20px" viewBox="0 0 20 20" version="1.1" xmlns="http://www.w3.org/2000/svg" xmlns:xlink="http://www.w3.org/1999/xlink">
    <title>icon_tips</title>
    <g id="新增DeepSeek" stroke="none" stroke-width="1" fill="none" fill-rule="evenodd">
        <g id="新增弹窗" transform="translate(-1642, -307)">
            <g id="对话框-12备份" transform="translate(1422, 181)">
                <g id="编组" transform="translate(220, 126)">
                    <rect id="矩形" x="0" y="0" width="20" height="20"></rect>
                    <path d="M10.5,3 C14.6355,3 18,6.36450005 18,10.5 C18,14.6355 14.6355,18 10.5,18 C6.36450005,18 3,14.6355 3,10.5 C3,6.36450005 6.36450005,3 10.5,3 Z M10.5,4.5 C7.19175017,4.5 4.5,7.19175017 4.5,10.5 C4.5,13.8082495 7.19175017,16.5 10.5,16.5 C13.8082495,16.5 16.5,13.8082495 16.5,10.5 C16.5,7.19175017 13.8082495,4.5 10.5,4.5 Z M10.4961864,12.75 C10.704203,12.75 10.8877426,12.819944 11.0356632,12.9610013 C11.1754267,13.1036665 11.25,13.2863582 11.25,13.4961073 C11.25,13.7112166 11.1715291,13.9024231 11.0240972,14.0428831 C10.8792108,14.1809178 10.702767,14.25 10.4961864,14.25 C10.2928853,14.25 10.1159289,14.1757684 9.9682757,14.0350976 C9.82199356,13.8957331 9.75,13.7132795 9.75,13.4961073 C9.75,13.278935 9.82199356,13.0964814 9.9682757,12.9571169 C10.113162,12.8190822 10.2896059,12.75 10.4961864,12.75 Z M10.599,6.7605 C11.2355697,6.7605 11.7540819,6.93251826 12.1444696,7.28389187 C12.5468689,7.63599126 12.7485,8.11990587 12.7485,8.721 C12.7485,9.20263309 12.6232259,9.61353213 12.3673677,9.95343089 C12.2730566,10.058221 11.9895989,10.319495 11.5740346,10.6830415 C11.4378482,10.7965302 11.3346154,10.927032 11.2617051,11.0728525 C11.1838414,11.22858 11.1465,11.3891479 11.1465,11.574 L11.1465,11.8875 L9.7365,11.8875 L9.7365,11.574 C9.7365,11.1916806 9.80025094,10.8704739 9.93506219,10.6106596 C10.0653291,10.3401051 10.4228294,9.95281318 11.0146394,9.42697662 L11.119883,9.30426791 C11.2544461,9.13980193 11.3205,8.96549299 11.3205,8.784 C11.3205,8.53934679 11.2511286,8.34948822 11.1234175,8.21458252 C10.9931109,8.08427592 10.8000021,8.0175 10.536,8.0175 C10.1934695,8.0175 9.97600539,8.11144451 9.84078303,8.31044832 C9.71706353,8.47783353 9.6525,8.73413116 9.6525,9.081 L9.6525,9.2685 L8.2515,9.2685 L8.2515,9.081 C8.2515,8.36059626 8.46228103,7.79197766 8.89298634,7.38086697 C9.31781776,6.96591534 9.8876008,6.7605 10.599,6.7605 Z" id="形状结合" fill-opacity="0.7" fill="#FFFFFF"></path>
                </g>
            </g>
        </g>
    </g>
</svg>