<?xml version="1.0" encoding="UTF-8"?>
<svg width="110px" height="110px" viewBox="0 0 110 110" version="1.1" xmlns="http://www.w3.org/2000/svg" xmlns:xlink="http://www.w3.org/1999/xlink">
    <title>法律助手-类案查询-110</title>
    <defs>
        <filter x="-0.2%" y="1.8%" width="100.0%" height="100.0%" filterUnits="objectBoundingBox" id="filter-1">
            <feOffset dx="0" dy="2" in="SourceAlpha" result="shadowOffsetOuter1"></feOffset>
            <feGaussianBlur stdDeviation="2" in="shadowOffsetOuter1" result="shadowBlurOuter1"></feGaussianBlur>
            <feColorMatrix values="0 0 0 0 0   0 0 0 0 0   0 0 0 0 0  0 0 0 0.2 0" type="matrix" in="shadowBlurOuter1" result="shadowMatrixOuter1"></feColorMatrix>
            <feMerge>
                <feMergeNode in="shadowMatrixOuter1"></feMergeNode>
                <feMergeNode in="SourceGraphic"></feMergeNode>
            </feMerge>
        </filter>
        <linearGradient x1="50%" y1="15.9013308%" x2="50%" y2="112.276107%" id="linearGradient-2">
            <stop stop-color="#0ECB04" offset="0%"></stop>
            <stop stop-color="#008972" offset="100%"></stop>
        </linearGradient>
        <path d="M21.1891892,0 L74.8108108,0 C86.5132769,0 96,9.48672314 96,21.1891892 L96,74.8108108 C96,86.5132769 86.5132769,96 74.8108108,96 L21.1891892,96 C9.48672314,96 0,86.5132769 0,74.8108108 L0,21.1891892 C0,9.48672314 9.48672314,0 21.1891892,0 Z" id="path-3"></path>
        <linearGradient x1="43.5885539%" y1="22.770867%" x2="57.2406652%" y2="60.0719811%" id="linearGradient-5">
            <stop stop-color="#FFFFFF" offset="0%"></stop>
            <stop stop-color="#D7FFC6" offset="100%"></stop>
        </linearGradient>
        <path d="M48.174648,85.4439864 C48.5419634,86.8501568 49.261959,87.7486213 50.3346348,88.13938 C48.9019375,88.4868086 47.8290364,89.2533867 47.1159314,90.4391143 C46.0092155,91.5432116 44.504921,91.4924205 42.6030479,90.2867409 C43.4658026,90.1857874 44.2038823,89.7825515 44.8172872,89.0770332 C45.7074808,88.1019731 46.7344739,87.6740008 47.8982665,87.7931165 C46.550558,87.637383 45.5918191,86.6919285 45.0220497,84.956753 C44.9300701,84.3246147 44.4886074,83.8380958 43.6976617,83.4971965 L43.8522502,83.4742568 C44.5779764,83.3790986 47.634259,83.1219295 48.174648,85.4439864 Z M66.0715691,83.4971965 C65.2806233,83.8380958 64.8391607,84.3246147 64.747181,84.956753 C64.1774117,86.6919285 63.2186728,87.637383 61.8709643,87.7931165 C63.0347569,87.6740008 64.06175,88.1019731 64.9519436,89.0770332 C65.5653484,89.7825515 66.3034282,90.1857874 67.1661829,90.2867409 C65.2643097,91.4924205 63.7600152,91.5432116 62.6532994,90.4391143 C61.9401944,89.2533867 60.8672933,88.4868086 59.434596,88.13938 C60.5072718,87.7486213 61.2272674,86.8501568 61.5945828,85.4439864 C62.2086612,82.8052854 66.0715691,83.4971965 66.0715691,83.4971965 Z M38.5746114,81.0374905 L38.7049937,81.0480458 C39.0060791,81.0769209 39.8031972,81.1778629 40.8289506,81.498925 C41.87765,81.9287256 42.4700991,82.871381 42.606298,84.326891 C42.6838292,85.3182929 43.1530223,86.1191993 44.0138773,86.7296101 C43.0557631,86.7060959 42.1794304,87.026649 41.3848794,87.6912696 C40.497008,88.7035859 39.5659077,89.0762634 38.5915785,88.8093021 C37.341256,88.2919666 36.5380662,87.8609591 36.1820093,87.5162794 C37.2394685,87.5246981 38.1035198,87.1926616 38.7741633,86.5201701 C39.5632599,85.9370578 40.5180399,85.7627922 41.6385033,85.9973731 C40.4608141,85.2851387 39.8034386,84.2723801 39.6663769,82.9590974 C39.5417766,82.2053366 39.1778547,81.5648009 38.5746114,81.0374905 Z M71.1946194,81.0374905 C70.591376,81.5648009 70.2274542,82.2053366 70.1028539,82.9590974 C69.9657922,84.2723801 69.3084167,85.2851387 68.1307274,85.9973731 C69.2511909,85.7627922 70.2059709,85.9370578 70.9950675,86.5201701 C71.6657109,87.1926616 72.5297623,87.5246981 73.5872215,87.5162794 C73.2311645,87.8609591 72.4279748,88.2919666 71.1776522,88.8093021 C70.203323,89.0762634 69.2722227,88.7035859 68.3843514,87.6912696 C67.5898004,87.026649 66.7134677,86.7060959 65.7553535,86.7296101 C66.6162085,86.1191993 67.0854016,85.3182929 67.1629328,84.326891 C67.2991317,82.871381 67.8915808,81.9287256 68.9402802,81.498925 L69.0962485,81.4512475 C70.3289875,81.0834013 71.1946194,81.0374905 71.1946194,81.0374905 Z M33.9219374,77.7477519 C34.3703123,77.8128242 35.0813966,78.0657236 36.0551901,78.5064502 C37.0166972,79.0385648 37.4509465,80.0168843 37.357938,81.4414085 C37.1752185,82.463886 37.4970281,83.40117 38.3233667,84.2532605 L38.2598628,84.2363599 C37.9703765,84.166109 36.7397715,83.9404709 35.5772142,84.8263176 L35.5150052,84.8748442 C34.6175368,85.5913505 33.8395436,85.8243705 33.1810254,85.5739041 C32.3385584,85.4100166 31.4356252,84.7865864 30.4722257,83.7036136 C31.4556884,83.8683014 32.2366996,83.7428028 32.8152592,83.3271177 C33.8904898,82.698301 34.9798368,82.6212065 36.0833003,83.0958343 C35.2365256,82.47502 34.7946098,81.491558 34.757553,80.1454483 C34.7458311,79.1892271 34.4672925,78.3899949 33.9219374,77.7477519 Z M75.8472934,77.7477519 C75.3019382,78.3899949 75.0233997,79.1892271 75.0116777,80.1454483 C74.9746209,81.491558 74.5327052,82.47502 73.6859305,83.0958343 C74.7893939,82.6212065 75.8787409,82.698301 76.9539715,83.3271177 C77.5325312,83.7428028 78.3135423,83.8683014 79.297005,83.7036136 C78.3336055,84.7865864 77.4306723,85.4100166 76.5882054,85.5739041 C75.948502,85.8172143 75.1960532,85.6042712 74.3308589,84.935075 L74.2542256,84.8748442 C73.1074605,83.9593083 71.8765514,84.1525211 71.5370066,84.2298634 L71.4692911,84.246606 C71.4538869,84.2507739 71.4458641,84.2532605 71.4458641,84.2532605 C72.2722027,83.40117 72.5940122,82.463886 72.4112927,81.4414085 C72.3182843,80.0168843 72.7525336,79.0385648 73.7140406,78.5064502 C74.6878342,78.0657236 75.3989184,77.8128242 75.8472934,77.7477519 Z M79.7301802,73.7422561 C79.3157892,74.3119706 79.1461156,75.1263515 79.2211594,76.1853987 C79.4461006,77.6611335 79.1455856,78.8046533 78.3196142,79.6159583 C79.168708,79.0084417 80.1188711,78.7858228 81.1701037,78.9481016 C82.0314045,79.4195377 83.0012576,79.4730702 84.0796629,79.1086991 C83.6443402,79.8807472 82.9116287,80.6354162 81.8815283,81.3727062 C81.0970305,81.9018565 79.9352274,81.7046552 78.396119,80.7811023 C77.51435,80.6906436 76.8737596,80.7508065 76.4743479,80.9615909 C76.9093786,80.261942 77.1037764,79.553354 77.0575412,78.8358268 C76.5134627,76.8773415 76.7751027,75.5425683 77.8424612,74.8315071 L78.0601768,74.6896741 C79.2294,73.9357759 79.7301802,73.7422561 79.7301802,73.7422561 Z M30.0390506,73.7422561 L30.1004855,73.7684134 C30.2785215,73.8476041 30.8517352,74.1241878 31.9267696,74.8315071 C32.9941281,75.5425683 33.255768,76.8773415 32.7116895,78.8358268 C32.6654544,79.553354 32.8598521,80.261942 33.2948829,80.9615909 C32.8954711,80.7508065 32.2548808,80.6906436 31.3731117,80.7811023 C29.8340033,81.7046552 28.6722002,81.9018565 27.8877025,81.3727062 C26.8576021,80.6354162 26.1248905,79.8807472 25.6895679,79.1086991 C26.7679732,79.4730702 27.7378262,79.4195377 28.5991271,78.9481016 C29.6503597,78.7858228 30.6005228,79.0084417 31.4496165,79.6159583 C30.6236452,78.8046533 30.3231301,77.6611335 30.5480714,76.1853987 C30.6231151,75.1263515 30.4534415,74.3119706 30.0390506,73.7422561 Z M82.7172931,69.1252595 C82.4267567,69.9015258 82.3868364,70.6105921 82.5975321,71.2524583 C83.0976846,72.5574502 83.066728,73.7465486 82.5046623,74.8197534 L82.386,75.031 L82.5632326,74.875976 C83.3450789,74.2248949 84.2599324,73.9469438 85.3077932,74.0421228 C86.5019099,74.2665922 87.3998924,74.1082914 88.0017406,73.5672204 L87.9747617,73.64692 C87.8910921,73.8780618 87.593441,74.6002646 86.8186163,75.6599626 C85.8904453,76.7917666 84.6861406,76.9969552 83.2057022,76.2755282 C82.5008326,76.1113544 81.6937906,76.3014787 80.7845762,76.845901 C81.1372091,76.2783454 81.1854117,75.4157665 80.929184,74.2581643 C80.1143789,73.053751 80.0058717,72.0290597 80.6036621,71.1840904 C81.1311745,70.4186029 81.8357181,69.732326 82.7172931,69.1252595 Z M27.0519377,69.1252595 C27.9335127,69.732326 28.6380563,70.4186029 29.1655686,71.1840904 C29.7633591,72.0290597 29.6548518,73.053751 28.8400468,74.2581643 C28.5838191,75.4157665 28.6320217,76.2783454 28.9846546,76.845901 C28.0754402,76.3014787 27.2683982,76.1113544 26.5635286,76.2755282 C25.0830902,76.9969552 23.8787855,76.7917666 22.9506145,75.6599626 L22.8478896,75.5175646 C21.9828115,74.3018291 21.7674901,73.5672204 21.7674901,73.5672204 C22.3693384,74.1082914 23.2673209,74.2665922 24.4614376,74.0421228 C25.5092983,73.9469438 26.4241519,74.2248949 27.2059981,74.875976 L27.383,75.031 L27.2645685,74.8197534 C26.7025028,73.7465486 26.6715462,72.5574502 27.1716987,71.2524583 C27.3823944,70.6105921 27.3424741,69.9015258 27.0519377,69.1252595 Z M24.76218,64.2105338 C25.6123955,64.9817167 26.224539,65.8045785 26.5986103,66.679119 C26.875444,67.5096543 26.6142864,68.4403565 25.8151374,69.4712254 C25.2987304,70.2195211 25.1694738,71.099872 25.4273678,72.1122781 C24.4322722,71.4625141 23.6657467,71.1519947 23.1277914,71.1807199 C21.8765338,71.4745972 20.9967655,71.3657411 20.4884864,70.8541514 C19.7364113,70.2782413 19.1855152,69.2313921 18.835798,67.7136037 C19.3543874,68.2876561 20.0959103,68.5842498 21.0603668,68.6033849 L21.1609334,68.6043746 C22.681361,68.6043746 23.3313968,69.3828739 24.0515191,69.9330464 C23.8136859,68.9412006 23.8619711,68.0464675 24.1963747,67.248847 C24.8290385,66.2719043 25.0176402,65.2591332 24.76218,64.2105338 Z M85.0070508,64.2105338 C84.7515906,65.2591332 84.9401923,66.2719043 85.572856,67.248847 C85.9072596,68.0464675 85.9555448,68.9412006 85.7177117,69.9330464 C86.4221791,69.3948341 87.0595742,68.6381145 88.5103634,68.605468 L88.6082974,68.6043746 C89.6219159,68.6043746 90.396961,68.307451 90.9334328,67.7136037 C90.5837156,69.2313921 90.0328194,70.2782413 89.2807443,70.8541514 C88.7724653,71.3657411 87.892697,71.4745972 86.6414394,71.1807199 C86.1034841,71.1519947 85.3369586,71.4625141 84.341863,72.1122781 C84.5997569,71.099872 84.4705004,70.2195211 83.9540934,69.4712254 C83.1549444,68.4403565 82.8937867,67.5096543 83.1706205,66.679119 C83.5446918,65.8045785 84.1568352,64.9817167 85.0070508,64.2105338 Z M62.1524384,69.218834 C62.9204362,69.218834 63.5430214,69.8414192 63.5430214,70.609417 C63.5430214,71.3774148 62.9204362,72 62.1524384,72 L33.6078222,72 C32.8398244,72 32.2172392,71.3774148 32.2172392,70.609417 C32.2172392,69.8414192 32.8398244,69.218834 33.6078222,69.218834 L62.1524384,69.218834 Z M55.5177629,63.2286302 C58.6274909,63.2286302 61.1916568,65.5644594 61.5514466,68.5773039 L34.2088139,68.5773039 C34.5686038,65.5644594 37.1327696,63.2286302 40.2424977,63.2286302 L55.5177629,63.2286302 Z M86.345862,58.9092918 C86.331857,59.7662484 86.4612948,60.35759 86.7341752,60.6833169 C87.7684967,62.0301435 88.1907318,63.2606441 88.0008803,64.3748185 C88.5625313,63.4992587 89.3913029,62.8964462 90.4871949,62.5663809 C92.2625816,62.4127662 92.8272117,61.2466497 92.8272117,61.2466497 C92.6965587,62.8145299 92.3654829,63.8910017 91.8339844,64.4760651 C91.4184644,65.0270247 90.662185,65.3251728 89.5651463,65.3705091 C88.5924826,65.5307935 87.786967,66.0009149 87.1485994,66.7808732 C87.1637054,65.603327 86.8235707,64.6863543 86.1281954,64.0299552 C84.8725556,63.0279148 84.5945743,61.8541491 85.2942517,60.5086581 L86.345862,58.9092918 Z M23.4233688,58.9092918 L24.474979,60.5086581 C25.1746564,61.8541491 24.8966752,63.0279148 23.6410353,64.0299552 C22.9456601,64.6863543 22.6055254,65.603327 22.6206313,66.7808732 C21.9822638,66.0009149 21.1767482,65.5307935 20.2040845,65.3705091 C19.1070458,65.3251728 18.3507664,65.0270247 17.9352464,64.4760651 C17.4037479,63.8910017 17.0726721,62.8145299 16.9420191,61.2466497 L16.9602166,61.2805379 C17.0693806,61.4733548 17.687197,62.428388 19.2820359,62.5663809 C20.3779279,62.8964462 21.2066994,63.4992587 21.7683505,64.3748185 C21.578499,63.2606441 22.000734,62.0301435 23.0350556,60.6833169 C23.307936,60.35759 23.4373738,59.7662484 23.4233688,58.9092918 Z M61.2891756,48.743688 L62.08892,49.1435016 C62.4928415,49.349298 62.8963124,49.5660241 63.2699713,49.8031095 C63.4229874,49.9006341 63.4606806,50.088695 63.3830508,50.3672919 C63.3542318,50.470865 63.3865524,50.5478925 63.4800125,50.5983744 C63.6616025,50.6985945 63.8227617,50.8102742 63.9634901,50.9334134 L64.7148495,51.6065454 L65.1956293,52.0292271 C65.9291871,52.6598828 66.7151029,53.2555193 67.5076369,53.5479093 L68.0655231,53.757469 C70.5653333,54.7113798 74.1350863,56.2609329 78.7747819,58.4061283 C80.0286728,58.984162 80.5767221,60.4691717 79.9988225,61.7231244 C79.9672186,61.7916998 79.9325242,61.8588083 79.8948474,61.9242442 L79.3616442,62.8477792 C78.6707212,64.0431831 77.1415511,64.452146 75.946147,63.7612232 C75.8856829,63.726276 75.8267097,63.6888105 75.7692463,63.6491213 L74.3564989,62.663717 C70.5500206,59.9947183 67.7253776,57.8943486 65.8825699,56.3626078 C64.8506118,55.5043542 63.1640077,55.0433535 61.8462767,54.6005346 C61.6692708,54.5402298 61.4919738,54.4565017 61.3143856,54.3493501 C61.223937,54.2936523 61.141069,54.3041756 61.0657815,54.3809202 C60.8633243,54.5874479 60.6816123,54.6488351 60.5206454,54.5650816 C59.8670598,54.2233226 59.2210452,53.7815704 58.6127617,53.379373 C58.3552521,53.1773249 58.3571577,52.9198415 58.5942554,52.4873638 L59.5547088,50.8338096 L60.5074199,49.1736657 C60.7634077,48.7520943 60.9854421,48.6217023 61.2891756,48.743688 Z M22.8702486,53.3107909 C23.1272405,53.702076 23.3694038,54.2553027 23.5967387,54.970471 C24.104187,56.4228186 23.6484203,57.5735001 22.2294385,58.4225155 C21.4953458,58.9774904 20.9789861,59.8055979 20.6803595,60.906838 C20.4863718,60.1405454 19.9183827,59.6012181 18.976392,59.2888563 C17.9759469,58.9635152 17.2674744,58.6243055 16.8509745,58.2712272 C16.1489259,57.7876081 15.8812666,56.5143005 16.0479964,54.4513043 L16.0811536,54.5267073 C16.2218546,54.8270159 16.826117,55.9357537 18.1923224,56.227479 C18.9787102,56.5556902 19.7002358,57.287369 20.3568992,58.4225155 L20.3552115,58.378047 L20.3547847,58.3181869 C20.355877,58.1289978 20.3793528,57.6937631 20.5411379,57.1053555 C20.687823,56.5718659 21.1071372,55.9927976 21.7990804,55.3681505 C22.4211985,54.9042088 22.7782546,54.2184223 22.8702486,53.3107909 Z M86.8989821,53.3107909 C86.9909762,54.2184223 87.3480323,54.9042088 87.9701504,55.3681505 C88.6620936,55.9927976 89.0814077,56.5718659 89.2280929,57.1053555 C89.3828438,57.6681802 89.411051,58.0908617 89.4141671,58.2921223 L89.4143378,58.3588206 C89.4138486,58.4006043 89.4123315,58.4225155 89.4123315,58.4225155 C90.0689949,57.287369 90.7905205,56.5556902 91.5769084,56.227479 C93.1617067,55.8890776 93.7212343,54.4513043 93.7212343,54.4513043 C93.8879642,56.5143005 93.6203049,57.7876081 92.9182563,58.2712272 C92.5017563,58.6243055 91.7932838,58.9635152 90.7928388,59.2888563 C89.8508481,59.6012181 89.2828589,60.1405454 89.0888713,60.906838 C88.7902447,59.8055979 88.273885,58.9774904 87.5397922,58.4225155 C86.1208105,57.5735001 85.6650437,56.4228186 86.1724921,54.970471 C86.3998269,54.2553027 86.6419903,53.702076 86.8989821,53.3107909 Z M40.7356449,53.6720461 C42.4694342,55.3906259 44.3920645,56.8606579 46.503536,58.0821419 C48.0455433,58.9742834 49.6235696,59.6546035 51.2376148,60.1231021 L51.7229089,60.257297 C51.8220642,60.2832327 51.8351849,60.3030342 51.762271,60.3167015 L51.7186445,60.323024 C51.6554274,60.3303282 51.5898484,60.3606825 51.527581,60.3575909 C50.8086102,60.3216308 50.0826339,60.1820544 49.376869,59.9863706 L49.0257969,59.884073 C49.0051615,59.8776194 45.9318742,58.7791272 44.4247209,57.5782046 C43.045974,56.5773967 41.8051117,55.4035902 40.702134,54.0567851 C40.6696563,54.0167226 40.6566954,53.9710831 40.6632513,53.9198666 L40.6949415,53.685604 C40.6992415,53.6538509 40.7128093,53.6493316 40.7356449,53.6720461 Z M43.8248552,48.1767269 L55.0861494,54.6742568 C55.0932409,54.6785153 55.0974574,54.6863485 55.0970676,54.6944872 C55.0966208,54.7026258 55.0916396,54.7096712 55.0841744,54.7126828 C54.5766885,54.9258433 54.4507452,55.5872495 54.4313672,56.0963124 L54.4158757,56.8220243 C54.402361,57.4729716 54.3627941,58.1302212 54.0833035,58.7189632 C53.8693092,59.1690661 53.4934835,59.5496593 52.9558262,59.8607426 C52.7884841,59.9578199 52.6228903,59.9001699 52.451507,59.8627507 C51.9978078,59.7620771 51.5563168,59.643192 51.1270339,59.5060954 C47.194513,58.2501119 43.6869194,55.8502748 40.6473787,53.0385885 C40.5429077,52.9412788 40.4626151,52.827893 40.4065009,52.6984311 C40.1583144,52.1200324 40.1175948,51.5661972 40.5080554,51.0304541 C40.8188755,50.6035548 41.3104601,50.239046 41.7746568,49.9561393 L41.9713146,49.8399456 C42.4543904,49.5630356 42.8963256,49.2960641 43.2971203,49.0390311 C43.5521079,48.8761933 43.8035479,48.6507815 43.7674045,48.3349152 L43.7476499,48.2374138 C43.7236884,48.153439 43.7494235,48.13321 43.8248552,48.1767269 Z M23.3561655,47.4786826 C23.5296056,47.9276863 23.6575678,48.4744643 23.7400523,49.1190165 C24.0146889,50.6865828 23.3814454,51.7941601 21.8403218,52.4417484 C21.1171339,52.7211268 20.4857512,53.4811484 19.9461737,54.721813 C19.6717247,53.7843698 19.175472,53.0882862 18.4574153,52.6335624 C17.7367766,52.236284 17.178643,51.8656294 16.7830146,51.5215985 C16.0312555,50.8833502 15.9279195,49.5396138 16.4730068,47.4903892 L16.4859623,47.5365683 C16.5573497,47.7719574 16.9507352,48.8554619 18.3190069,49.5829413 C19.1446711,50.0297534 19.6987772,50.8777604 19.9813252,52.1269624 C20.1393851,50.9467112 20.7775169,50.0167733 21.8957206,49.3371486 C22.5764855,49.0983872 23.0633004,48.4788986 23.3561655,47.4786826 Z M86.4130653,47.4786826 C86.7059303,48.4788986 87.1927453,49.0983872 87.8735102,49.3371486 C88.9917139,50.0167733 89.6298457,50.9467112 89.7879056,52.1269624 C90.0704536,50.8777604 90.6245597,50.0297534 91.4502239,49.5829413 C92.9926393,48.7628736 93.296224,47.4903892 93.296224,47.4903892 C93.8413112,49.5396138 93.7379753,50.8833502 92.9862162,51.5215985 C92.5905877,51.8656294 92.0324542,52.236284 91.3118154,52.6335624 C90.5937588,53.0882862 90.097506,53.7843698 89.8230571,54.721813 C89.2834796,53.4811484 88.6520969,52.7211268 87.928909,52.4417484 C86.3877854,51.7941601 85.7545419,50.6865828 86.0291785,49.1190165 C86.1116629,48.4744643 86.2396252,47.9276863 86.4130653,47.4786826 Z M48.8562715,39.2475047 L60.6905976,46.0747773 C61.1188474,46.3221738 61.2653031,46.8696252 61.0177154,47.2975443 C60.9886171,47.3478365 60.9546875,47.3951784 60.9166229,47.4390887 C60.0240082,48.4619286 59.2681004,49.5091781 58.6488992,50.5808373 C58.0411719,51.6326387 57.5376401,52.7555339 57.1383039,53.9495229 C56.9807342,54.4180633 56.4726364,54.6697667 56.0038853,54.5118696 C55.9471497,54.4927585 55.8924748,54.468011 55.8406802,54.4380002 L44.0196105,47.6183752 C43.5912143,47.3712316 43.4444349,46.8238668 43.6917696,46.3958016 L47.6327527,39.5750923 C47.8800873,39.1470271 48.4278754,39.0003611 48.8562715,39.2475047 Z M18.4626452,40.7745679 C18.4912638,41.5695215 18.9699224,42.3335736 19.898621,43.066724 C20.4209043,43.6548587 20.7200617,44.4252011 20.7960934,45.3777511 C21.3804386,44.256502 22.1378514,43.5583912 23.0683319,43.2834186 C23.5814584,43.1679325 24.0861662,42.7124532 24.5824555,41.9169807 C24.6643121,42.7273876 24.6579856,43.5344568 24.563476,44.3381883 C24.4570817,45.3263521 23.7228506,45.8978219 22.3607828,46.0525978 C21.6655743,46.2609965 21.0098467,46.7692774 20.3936,47.5774404 C20.3383484,46.7473542 19.9201152,46.0153265 19.1389003,45.3813573 C18.2021291,44.8386624 17.7288792,44.2196689 17.7191507,43.5243769 C17.671339,42.8824903 17.9191705,41.9658873 18.4626452,40.7745679 Z M91.3065855,40.7745679 C91.8500602,41.9658873 92.0978917,42.8824903 92.05008,43.5243769 C92.0403515,44.2196689 91.5671017,44.8386624 90.6303305,45.3813573 C89.8491156,46.0153265 89.4308824,46.7473542 89.3756308,47.5774404 C88.7593841,46.7692774 88.1036565,46.2609965 87.408448,46.0525978 C86.0463801,45.8978219 85.312149,45.3263521 85.2057547,44.3381883 C85.1112452,43.5344568 85.1049187,42.7273876 85.1867753,41.9169807 C85.6830645,42.7124532 86.1877724,43.1679325 86.7008989,43.2834186 C87.6313793,43.5583912 88.3887922,44.256502 88.9731374,45.3777511 C89.049169,44.4252011 89.3483265,43.6548587 89.8706097,43.066724 C90.7993084,42.3335736 91.277967,41.5695215 91.3065855,40.7745679 Z M51.6668865,33.4097767 C51.7472849,33.4067723 51.8279569,33.4173949 51.9089025,33.4416443 C54.345569,34.1761597 56.6101092,35.1385604 58.702523,36.3288464 C60.0871599,37.1167057 61.4183571,38.0597766 62.5913792,39.0942697 C63.1003185,39.5427731 63.5615844,40.0047418 63.9751769,40.4801759 C64.0027512,40.5119179 64.0189811,40.5520823 64.0213084,40.5943382 C64.0809132,41.7763409 63.524736,42.582697 62.6030049,43.1756582 L62.4460412,43.2725371 C62.0604548,43.501304 61.6984127,43.7282203 61.3599148,43.9532862 C60.99043,44.1989184 60.5531555,44.631891 60.6374559,45.1132176 C60.6386567,45.1201597 60.6357461,45.1271701 60.6299803,45.1312234 C60.6242144,45.1352767 60.6165962,45.135698 60.6104891,45.1321748 L49.295733,38.6046443 C49.257385,38.5825212 49.2596,38.5655597 49.3023779,38.5537597 C49.487633,38.501531 49.6556513,38.4368328 49.7201609,38.2332893 C49.8006597,37.9811655 49.8409373,37.7145365 49.8409937,37.4334026 C49.8417103,36.8428613 49.8512974,36.2807277 49.8697551,35.7470017 C49.9112564,34.573882 50.2508365,33.4683399 51.6668865,33.4097767 Z M88.5928332,35.5930187 C88.999812,36.0529808 89.3209838,36.6057127 89.5563488,37.2512144 C90.0608325,38.7798028 88.8323582,39.5919591 88.4053992,40.1194667 C88.1207599,40.4711384 87.9693445,41.047903 87.9511529,41.8497604 C87.5776333,41.398946 86.9597243,41.0894923 86.0974258,40.9213995 C85.1259786,41.0085197 84.4100566,40.6448251 83.9496598,39.8303155 C83.6410721,39.2530116 83.4672596,38.4700236 83.4282221,37.4813515 C84.0357251,38.1907623 84.6283771,38.5416228 85.2061781,38.5339331 C85.7709277,38.5142922 86.4490235,38.9481992 87.2404656,39.835654 C87.1507673,38.8819011 87.372845,38.1119766 87.9066987,37.5258803 C88.5385765,37.1492869 88.5926945,36.0336999 88.5941247,35.6929782 L88.5928332,35.5930187 Z M21.1763976,35.5930187 L21.1751956,35.6506169 L21.175106,35.6929782 C21.1765363,36.0336999 21.2306543,37.1492869 21.8625321,37.5258803 C22.3963857,38.1119766 22.6184634,38.8819011 22.5287652,39.835654 C23.3202073,38.9481992 23.9983031,38.5142922 24.5630527,38.5339331 C25.1408537,38.5416228 25.7335057,38.1907623 26.3410087,37.4813515 C26.3019712,38.4700236 26.1281586,39.2530116 25.819571,39.8303155 C25.3591742,40.6448251 24.6432521,41.0085197 23.6718049,40.9213995 C22.8095065,41.0894923 22.1915975,41.398946 21.8180779,41.8497604 C21.7998863,41.047903 21.6484708,40.4711384 21.3638315,40.1194667 L21.3169081,40.0638638 C20.8542108,39.5350964 19.7257942,38.7270929 20.212882,37.2512144 C20.4482469,36.6057127 20.7694188,36.0529808 21.1763976,35.5930187 Z M52.8672388,33.0024844 C54.5859969,33.2835506 56.2237603,33.7704354 57.7805289,34.4631387 C59.5749392,35.1669021 62.0636405,37.2771446 62.0795516,37.2917748 C62.7023177,37.8724488 63.2850787,38.515067 63.7408392,39.2199504 C63.7633813,39.2548423 63.773776,39.2984401 63.785691,39.3409196 L63.8310236,39.4725021 C63.8366904,39.5032592 63.8208756,39.5022903 63.7835791,39.4695954 L63.751579,39.4391256 C62.4536307,38.1302457 60.9553365,36.9872324 59.2566964,36.0100859 C57.1423066,34.7936527 54.9069221,33.8649083 52.5505429,33.2238528 C52.5349907,33.2196509 52.5264979,33.2140498 52.5250643,33.2070495 L52.5282086,33.1954996 L52.5419418,33.1818508 L52.7291309,33.0372963 C52.770242,33.0060148 52.816278,32.9944109 52.8672388,33.0024844 Z M85.4901723,31.6503727 L86.5520688,32.9587167 C86.8870331,33.7521378 86.7995759,34.4451191 86.289697,35.0376605 C85.8967172,35.5296629 85.7466333,36.2252721 85.8394453,37.1244881 C85.4840908,36.7493751 84.7163027,36.5691422 83.5360811,36.5837895 C82.3035861,36.6993534 81.5689922,35.8365167 81.3322994,33.9952794 C81.5151158,34.3226478 81.9449988,34.5579841 82.6219483,34.7012884 C83.4321193,34.6346415 84.2041245,34.9190071 84.9379639,35.5543853 C84.6522557,34.7763901 84.6970915,34.0844922 85.0724715,33.4786917 C85.4159958,33.0498437 85.5552294,32.4404041 85.4901723,31.6503727 Z M24.2790585,31.6503727 C24.2140014,32.4404041 24.353235,33.0498437 24.6967592,33.4786917 C25.0721392,34.0844922 25.1169751,34.7763901 24.8312669,35.5543853 C25.5651063,34.9190071 26.3371115,34.6346415 27.1472824,34.7012884 C27.8242319,34.5579841 28.2541149,34.3226478 28.4369314,33.9952794 C28.2002386,35.8365167 27.4656447,36.6993534 26.2331497,36.5837895 C25.052928,36.5691422 24.28514,36.7493751 23.9297855,37.1244881 C24.0225975,36.2252721 23.8725136,35.5296629 23.4795337,35.0376605 C22.9696549,34.4451191 22.8821976,33.7521378 23.2171619,32.9587167 L24.2790585,31.6503727 Z M82.0977851,27.9903124 C82.8168513,28.5904176 83.2636602,29.0654556 83.4382117,29.4154264 C83.5634647,29.8508831 83.4897866,30.3616816 83.2171772,30.947822 C82.9809542,31.5392832 82.9695281,32.0775558 83.182899,32.56264 C82.5375871,32.2392228 81.9457931,32.1495095 81.407517,32.2935003 C80.6649241,32.617334 80.0499361,32.4820765 79.562553,31.8877276 L79.5210899,31.8356591 C79.3132905,31.586297 79.1419534,31.2147243 79.0070785,30.7209412 C79.5185002,31.0494211 79.9987321,31.1208529 80.4477742,30.9352367 C81.2749523,30.9213532 81.8431007,31.0847261 82.1522192,31.4253552 C81.8412846,30.6688038 81.7965835,30.0693378 82.0181158,29.6269572 L82.0438261,29.5784502 C82.3836803,28.9716592 82.1522462,28.1614475 82.10552,28.0138785 L82.0977851,27.9903124 Z M27.6714457,27.9903124 L27.6546339,28.0434802 C27.5953767,28.2425875 27.4146566,28.9617077 27.6990859,29.5288223 L27.7254046,29.5784502 C27.9755933,30.0251484 27.9394623,30.6407834 27.6170116,31.4253552 C27.9261301,31.0847261 28.4942784,30.9213532 29.3214566,30.9352367 C29.7704987,31.1208529 30.2507306,31.0494211 30.7621523,30.7209412 C30.636269,31.1818055 30.4786231,31.5362108 30.2892146,31.7841572 L30.2481409,31.8356591 C29.7543327,32.4739727 29.1255236,32.6265864 28.3617137,32.2935003 C27.8234377,32.1495095 27.2316437,32.2392228 26.5863318,32.56264 C26.7997026,32.0775558 26.7882766,31.5392832 26.5520536,30.947822 C26.2794442,30.3616816 26.205766,29.8508831 26.3310191,29.4154264 C26.5055706,29.0654556 26.9523795,28.5904176 27.6714457,27.9903124 Z M31.1640599,25.2751841 L31.1425614,25.3176843 C31.0623044,25.4823469 30.794755,26.0895299 30.9927889,26.5009811 C31.2349635,26.788775 31.1904404,27.2769647 30.8592195,27.9655502 C31.2099599,27.823555 31.6555378,27.8263744 32.1959533,27.9740083 C32.4655244,28.1200111 32.8835832,28.1254458 33.4501297,27.9903124 L33.4466337,28.0009462 L33.4396931,28.0164389 C33.4069915,28.0832467 33.2736584,28.2950031 32.7374097,28.8384395 C32.2792766,29.3027132 31.6524257,29.2747019 30.8568571,28.7544057 C30.4567389,28.7003395 30.0541,28.7157897 29.6489403,28.8007563 C29.9095832,28.4598983 29.9873393,28.0719911 29.8822087,27.6370348 L29.8578594,27.4418822 C29.839539,27.2863946 29.8149116,27.0644896 29.7839772,26.7761673 C29.8677736,26.2040134 30.3278011,25.7036857 31.1640599,25.2751841 Z M78.6051709,25.2751841 C79.4414296,25.7036857 79.9014572,26.2040134 79.9852535,26.7761673 L79.9065313,27.4826412 C79.8987251,27.5478283 79.892222,27.5992929 79.887022,27.6370348 C79.7818915,28.0719911 79.8596476,28.4598983 80.1202905,28.8007563 C79.7151308,28.7157897 79.3124919,28.7003395 78.9123737,28.7544057 C78.1168051,29.2747019 77.4899542,29.3027132 77.0318211,28.8384395 L76.9329811,28.7373498 C76.4318013,28.2197589 76.3391705,28.0427549 76.3225971,28.0009462 L76.319153,27.9905757 C76.8856476,28.1254458 77.3037064,28.1200111 77.5732774,27.9740083 C78.1136929,27.8263744 78.5592709,27.823555 78.9100113,27.9655502 C78.5787904,27.2769647 78.5342673,26.788775 78.7764419,26.5009811 C78.9744758,26.0895299 78.7069264,25.4823469 78.6266694,25.3176843 L78.6051709,25.2751841 Z M75.4679557,23.4250426 C76.3748887,23.6905184 76.8736077,24.0986524 76.9641126,24.6494444 C76.8673145,25.4380548 76.982135,25.9727135 77.3085743,26.2534208 C76.6052499,26.3257501 76.130466,26.4658122 75.8842226,26.6736071 L75.7810596,26.7598825 C75.4716091,27.0141939 75.2586116,27.1277005 74.8370833,26.8429593 L73.9889992,26.1968786 C74.4076353,26.1404138 74.7685232,26.0277052 75.0716629,25.8587527 C75.4841951,25.6943933 75.9225103,25.6693554 76.3866087,25.783639 C75.9747853,25.3622106 75.7678971,24.9778993 75.765944,24.6307052 L75.7669479,24.5835906 C75.7887853,24.1333916 75.5656991,23.6272748 75.491478,23.4724975 L75.4679557,23.4250426 Z M34.3012751,23.4250426 L34.2862266,23.4550097 C34.2250946,23.5798017 33.9986896,24.0729022 34.0008003,24.527054 L34.0022828,24.5835906 C34.0197183,24.9430386 33.8131647,25.3430548 33.3826221,25.783639 C33.8467204,25.6693554 34.2850357,25.6943933 34.6975679,25.8587527 C35.0007075,26.0277052 35.3615954,26.1404138 35.7802316,26.1968786 L34.9321474,26.8429593 C34.4654554,27.1582085 34.2543732,26.9852993 33.8850081,26.6736071 C33.6387648,26.4658122 33.1639809,26.3257501 32.4606565,26.2534208 C32.7870958,25.9727135 32.9019163,25.4380548 32.8051182,24.6494444 C32.8956231,24.0986524 33.3943421,23.6905184 34.3012751,23.4250426 Z M72.8487301,22 C73.7080355,22.172403 74.105221,22.5353724 74.0402866,23.0889083 C74.0497481,23.6768662 74.5026328,24.1650469 74.5026328,24.1650469 C74.1022055,24.1222755 73.7578541,24.2301113 73.4695787,24.4885545 C73.0318231,24.8967498 72.4225603,24.7630183 71.7827608,24.3420267 C72.0389718,24.356271 72.246146,24.2887305 72.4042833,24.1394053 C72.616197,23.8529571 73.0381456,23.7152829 73.6701289,23.7263829 C73.2518977,23.5545318 73.0432981,23.1798551 73.0443302,22.6023527 C73.056002,22.423488 72.990802,22.2227037 72.8487301,22 Z M36.9205006,22 C36.7784288,22.2227037 36.7132288,22.423488 36.7249006,22.6023527 C36.7259326,23.1798551 36.5173331,23.5545318 36.0991018,23.7263829 C36.7310852,23.7152829 37.1530337,23.8529571 37.3649475,24.1394053 C37.5230848,24.2887305 37.7302589,24.356271 37.9864699,24.3420267 C37.3466705,24.7630183 36.7374076,24.8967498 36.2996521,24.4885545 C36.0113766,24.2301113 35.6670252,24.1222755 35.2665979,24.1650469 L35.2981819,24.1285771 C35.4011543,24.0049736 35.7210087,23.5820343 35.7289441,23.0889083 C35.6640098,22.5353724 36.0611953,22.172403 36.9205006,22 Z" id="path-6"></path>
        <filter x="-5.1%" y="-2.9%" width="110.3%" height="111.6%" filterUnits="objectBoundingBox" id="filter-7">
            <feOffset dx="0" dy="2" in="SourceAlpha" result="shadowOffsetOuter1"></feOffset>
            <feGaussianBlur stdDeviation="1" in="shadowOffsetOuter1" result="shadowBlurOuter1"></feGaussianBlur>
            <feColorMatrix values="0 0 0 0 0   0 0 0 0 0.48627451   0 0 0 0 0.121568627  0 0 0 0.2 0" type="matrix" in="shadowBlurOuter1"></feColorMatrix>
        </filter>
    </defs>
    <g id="法律助手-类案查询-110" stroke="none" stroke-width="1" fill="none" fill-rule="evenodd">
        <g id="编组-2" transform="translate(0.217239, 0.000000)" filter="url(#filter-1)">
            <g id="1" transform="translate(6.782761, 7.000000)">
                <mask id="mask-4" fill="white">
                    <use xlink:href="#path-3"></use>
                </mask>
                <use id="蒙版" fill="url(#linearGradient-2)" xlink:href="#path-3"></use>
            </g>
            <g id="形状结合">
                <use fill="black" fill-opacity="1" filter="url(#filter-7)" xlink:href="#path-6"></use>
                <use fill="url(#linearGradient-5)" fill-rule="evenodd" xlink:href="#path-6"></use>
            </g>
        </g>
    </g>
</svg>