<?xml version="1.0" encoding="UTF-8"?>
<svg width="110px" height="110px" viewBox="0 0 110 110" version="1.1" xmlns="http://www.w3.org/2000/svg" xmlns:xlink="http://www.w3.org/1999/xlink">
    <title>法律助手-类案查询-110</title>
    <defs>
        <filter x="-7.3%" y="-5.2%" width="114.6%" height="114.6%" filterUnits="objectBoundingBox" id="filter-1">
            <feOffset dx="0" dy="2" in="SourceAlpha" result="shadowOffsetOuter1"></feOffset>
            <feGaussianBlur stdDeviation="2" in="shadowOffsetOuter1" result="shadowBlurOuter1"></feGaussianBlur>
            <feColorMatrix values="0 0 0 0 0   0 0 0 0 0   0 0 0 0 0  0 0 0 0.2 0" type="matrix" in="shadowBlurOuter1" result="shadowMatrixOuter1"></feColorMatrix>
            <feMerge>
                <feMergeNode in="shadowMatrixOuter1"></feMergeNode>
                <feMergeNode in="SourceGraphic"></feMergeNode>
            </feMerge>
        </filter>
        <linearGradient x1="50%" y1="15.9013308%" x2="50%" y2="112.276107%" id="linearGradient-2">
            <stop stop-color="#0ECB04" offset="0%"></stop>
            <stop stop-color="#008972" offset="100%"></stop>
        </linearGradient>
        <path d="M21.1891892,0 L74.8108108,0 C86.5132769,0 96,9.48672314 96,21.1891892 L96,74.8108108 C96,86.5132769 86.5132769,96 74.8108108,96 L21.1891892,96 C9.48672314,96 0,86.5132769 0,74.8108108 L0,21.1891892 C0,9.48672314 9.48672314,0 21.1891892,0 Z" id="path-3"></path>
        <linearGradient x1="43.5885539%" y1="22.770867%" x2="57.2406652%" y2="60.0719811%" id="linearGradient-5">
            <stop stop-color="#FFFFFF" offset="0%"></stop>
            <stop stop-color="#D7FFC6" offset="100%"></stop>
        </linearGradient>
        <path d="M41.274648,78.4439864 C41.6419634,79.8501568 42.361959,80.7486213 43.4346348,81.13938 C42.0019375,81.4868086 40.9290364,82.2533867 40.2159314,83.4391143 C39.1092155,84.5432116 37.604921,84.4924205 35.7030479,83.2867409 C36.5658026,83.1857874 37.3038823,82.7825515 37.9172872,82.0770332 C38.8074808,81.1019731 39.8344739,80.6740008 40.9982665,80.7931165 C39.650558,80.637383 38.6918191,79.6919285 38.1220497,77.956753 C38.0300701,77.3246147 37.5886074,76.8380958 36.7976617,76.4971965 L36.9522502,76.4742568 C37.6779764,76.3790986 40.734259,76.1219295 41.274648,78.4439864 Z M59.1715691,76.4971965 C58.3806233,76.8380958 57.9391607,77.3246147 57.847181,77.956753 C57.2774117,79.6919285 56.3186728,80.637383 54.9709643,80.7931165 C56.1347569,80.6740008 57.16175,81.1019731 58.0519436,82.0770332 C58.6653484,82.7825515 59.4034282,83.1857874 60.2661829,83.2867409 C58.3643097,84.4924205 56.8600152,84.5432116 55.7532994,83.4391143 C55.0401944,82.2533867 53.9672933,81.4868086 52.534596,81.13938 C53.6072718,80.7486213 54.3272674,79.8501568 54.6945828,78.4439864 C55.3086612,75.8052854 59.1715691,76.4971965 59.1715691,76.4971965 Z M31.6746114,74.0374905 L31.8049937,74.0480458 C32.1060791,74.0769209 32.9031972,74.1778629 33.9289506,74.498925 C34.97765,74.9287256 35.5700991,75.871381 35.706298,77.326891 C35.7838292,78.3182929 36.2530223,79.1191993 37.1138773,79.7296101 C36.1557631,79.7060959 35.2794304,80.026649 34.4848794,80.6912696 C33.597008,81.7035859 32.6659077,82.0762634 31.6915785,81.8093021 C30.441256,81.2919666 29.6380662,80.8609591 29.2820093,80.5162794 C30.3394685,80.5246981 31.2035198,80.1926616 31.8741633,79.5201701 C32.6632599,78.9370578 33.6180399,78.7627922 34.7385033,78.9973731 C33.5608141,78.2851387 32.9034386,77.2723801 32.7663769,75.9590974 C32.6417766,75.2053366 32.2778547,74.5648009 31.6746114,74.0374905 Z M64.2946194,74.0374905 C63.691376,74.5648009 63.3274542,75.2053366 63.2028539,75.9590974 C63.0657922,77.2723801 62.4084167,78.2851387 61.2307274,78.9973731 C62.3511909,78.7627922 63.3059709,78.9370578 64.0950675,79.5201701 C64.7657109,80.1926616 65.6297623,80.5246981 66.6872215,80.5162794 C66.3311645,80.8609591 65.5279748,81.2919666 64.2776522,81.8093021 C63.303323,82.0762634 62.3722227,81.7035859 61.4843514,80.6912696 C60.6898004,80.026649 59.8134677,79.7060959 58.8553535,79.7296101 C59.7162085,79.1191993 60.1854016,78.3182929 60.2629328,77.326891 C60.3991317,75.871381 60.9915808,74.9287256 62.0402802,74.498925 L62.1962485,74.4512475 C63.4289875,74.0834013 64.2946194,74.0374905 64.2946194,74.0374905 Z M27.0219374,70.7477519 C27.4703123,70.8128242 28.1813966,71.0657236 29.1551901,71.5064502 C30.1166972,72.0385648 30.5509465,73.0168843 30.457938,74.4414085 C30.2752185,75.463886 30.5970281,76.40117 31.4233667,77.2532605 L31.3598628,77.2363599 C31.0703765,77.166109 29.8397715,76.9404709 28.6772142,77.8263176 L28.6150052,77.8748442 C27.7175368,78.5913505 26.9395436,78.8243705 26.2810254,78.5739041 C25.4385584,78.4100166 24.5356252,77.7865864 23.5722257,76.7036136 C24.5556884,76.8683014 25.3366996,76.7428028 25.9152592,76.3271177 C26.9904898,75.698301 28.0798368,75.6212065 29.1833003,76.0958343 C28.3365256,75.47502 27.8946098,74.491558 27.857553,73.1454483 C27.8458311,72.1892271 27.5672925,71.3899949 27.0219374,70.7477519 Z M68.9472934,70.7477519 C68.4019382,71.3899949 68.1233997,72.1892271 68.1116777,73.1454483 C68.0746209,74.491558 67.6327052,75.47502 66.7859305,76.0958343 C67.8893939,75.6212065 68.9787409,75.698301 70.0539715,76.3271177 C70.6325312,76.7428028 71.4135423,76.8683014 72.397005,76.7036136 C71.4336055,77.7865864 70.5306723,78.4100166 69.6882054,78.5739041 C69.048502,78.8172143 68.2960532,78.6042712 67.4308589,77.935075 L67.3542256,77.8748442 C66.2074605,76.9593083 64.9765514,77.1525211 64.6370066,77.2298634 L64.5692911,77.246606 C64.5538869,77.2507739 64.5458641,77.2532605 64.5458641,77.2532605 C65.3722027,76.40117 65.6940122,75.463886 65.5112927,74.4414085 C65.4182843,73.0168843 65.8525336,72.0385648 66.8140406,71.5064502 C67.7878342,71.0657236 68.4989184,70.8128242 68.9472934,70.7477519 Z M72.8301802,66.7422561 C72.4157892,67.3119706 72.2461156,68.1263515 72.3211594,69.1853987 C72.5461006,70.6611335 72.2455856,71.8046533 71.4196142,72.6159583 C72.268708,72.0084417 73.2188711,71.7858228 74.2701037,71.9481016 C75.1314045,72.4195377 76.1012576,72.4730702 77.1796629,72.1086991 C76.7443402,72.8807472 76.0116287,73.6354162 74.9815283,74.3727062 C74.1970305,74.9018565 73.0352274,74.7046552 71.496119,73.7811023 C70.61435,73.6906436 69.9737596,73.7508065 69.5743479,73.9615909 C70.0093786,73.261942 70.2037764,72.553354 70.1575412,71.8358268 C69.6134627,69.8773415 69.8751027,68.5425683 70.9424612,67.8315071 L71.1601768,67.6896741 C72.3294,66.9357759 72.8301802,66.7422561 72.8301802,66.7422561 Z M23.1390506,66.7422561 L23.2004855,66.7684134 C23.3785215,66.8476041 23.9517352,67.1241878 25.0267696,67.8315071 C26.0941281,68.5425683 26.355768,69.8773415 25.8116895,71.8358268 C25.7654544,72.553354 25.9598521,73.261942 26.3948829,73.9615909 C25.9954711,73.7508065 25.3548808,73.6906436 24.4731117,73.7811023 C22.9340033,74.7046552 21.7722002,74.9018565 20.9877025,74.3727062 C19.9576021,73.6354162 19.2248905,72.8807472 18.7895679,72.1086991 C19.8679732,72.4730702 20.8378262,72.4195377 21.6991271,71.9481016 C22.7503597,71.7858228 23.7005228,72.0084417 24.5496165,72.6159583 C23.7236452,71.8046533 23.4231301,70.6611335 23.6480714,69.1853987 C23.7231151,68.1263515 23.5534415,67.3119706 23.1390506,66.7422561 Z M75.8172931,62.1252595 C75.5267567,62.9015258 75.4868364,63.6105921 75.6975321,64.2524583 C76.1976846,65.5574502 76.166728,66.7465486 75.6046623,67.8197534 L75.486,68.031 L75.6632326,67.875976 C76.4450789,67.2248949 77.3599324,66.9469438 78.4077932,67.0421228 C79.6019099,67.2665922 80.4998924,67.1082914 81.1017406,66.5672204 L81.0747617,66.64692 C80.9910921,66.8780618 80.693441,67.6002646 79.9186163,68.6599626 C78.9904453,69.7917666 77.7861406,69.9969552 76.3057022,69.2755282 C75.6008326,69.1113544 74.7937906,69.3014787 73.8845762,69.845901 C74.2372091,69.2783454 74.2854117,68.4157665 74.029184,67.2581643 C73.2143789,66.053751 73.1058717,65.0290597 73.7036621,64.1840904 C74.2311745,63.4186029 74.9357181,62.732326 75.8172931,62.1252595 Z M20.1519377,62.1252595 C21.0335127,62.732326 21.7380563,63.4186029 22.2655686,64.1840904 C22.8633591,65.0290597 22.7548518,66.053751 21.9400468,67.2581643 C21.6838191,68.4157665 21.7320217,69.2783454 22.0846546,69.845901 C21.1754402,69.3014787 20.3683982,69.1113544 19.6635286,69.2755282 C18.1830902,69.9969552 16.9787855,69.7917666 16.0506145,68.6599626 L15.9478896,68.5175646 C15.0828115,67.3018291 14.8674901,66.5672204 14.8674901,66.5672204 C15.4693384,67.1082914 16.3673209,67.2665922 17.5614376,67.0421228 C18.6092983,66.9469438 19.5241519,67.2248949 20.3059981,67.875976 L20.483,68.031 L20.3645685,67.8197534 C19.8025028,66.7465486 19.7715462,65.5574502 20.2716987,64.2524583 C20.4823944,63.6105921 20.4424741,62.9015258 20.1519377,62.1252595 Z M17.86218,57.2105338 C18.7123955,57.9817167 19.324539,58.8045785 19.6986103,59.679119 C19.975444,60.5096543 19.7142864,61.4403565 18.9151374,62.4712254 C18.3987304,63.2195211 18.2694738,64.099872 18.5273678,65.1122781 C17.5322722,64.4625141 16.7657467,64.1519947 16.2277914,64.1807199 C14.9765338,64.4745972 14.0967655,64.3657411 13.5884864,63.8541514 C12.8364113,63.2782413 12.2855152,62.2313921 11.935798,60.7136037 C12.4543874,61.2876561 13.1959103,61.5842498 14.1603668,61.6033849 L14.2609334,61.6043746 C15.781361,61.6043746 16.4313968,62.3828739 17.1515191,62.9330464 C16.9136859,61.9412006 16.9619711,61.0464675 17.2963747,60.248847 C17.9290385,59.2719043 18.1176402,58.2591332 17.86218,57.2105338 Z M78.1070508,57.2105338 C77.8515906,58.2591332 78.0401923,59.2719043 78.672856,60.248847 C79.0072596,61.0464675 79.0555448,61.9412006 78.8177117,62.9330464 C79.5221791,62.3948341 80.1595742,61.6381145 81.6103634,61.605468 L81.7082974,61.6043746 C82.7219159,61.6043746 83.496961,61.307451 84.0334328,60.7136037 C83.6837156,62.2313921 83.1328194,63.2782413 82.3807443,63.8541514 C81.8724653,64.3657411 80.992697,64.4745972 79.7414394,64.1807199 C79.2034841,64.1519947 78.4369586,64.4625141 77.441863,65.1122781 C77.6997569,64.099872 77.5705004,63.2195211 77.0540934,62.4712254 C76.2549444,61.4403565 75.9937867,60.5096543 76.2706205,59.679119 C76.6446918,58.8045785 77.2568352,57.9817167 78.1070508,57.2105338 Z M55.2524384,62.218834 C56.0204362,62.218834 56.6430214,62.8414192 56.6430214,63.609417 C56.6430214,64.3774148 56.0204362,65 55.2524384,65 L26.7078222,65 C25.9398244,65 25.3172392,64.3774148 25.3172392,63.609417 C25.3172392,62.8414192 25.9398244,62.218834 26.7078222,62.218834 L55.2524384,62.218834 Z M48.6177629,56.2286302 C51.7274909,56.2286302 54.2916568,58.5644594 54.6514466,61.5773039 L27.3088139,61.5773039 C27.6686038,58.5644594 30.2327696,56.2286302 33.3424977,56.2286302 L48.6177629,56.2286302 Z M79.445862,51.9092918 C79.431857,52.7662484 79.5612948,53.35759 79.8341752,53.6833169 C80.8684967,55.0301435 81.2907318,56.2606441 81.1008803,57.3748185 C81.6625313,56.4992587 82.4913029,55.8964462 83.5871949,55.5663809 C85.3625816,55.4127662 85.9272117,54.2466497 85.9272117,54.2466497 C85.7965587,55.8145299 85.4654829,56.8910017 84.9339844,57.4760651 C84.5184644,58.0270247 83.762185,58.3251728 82.6651463,58.3705091 C81.6924826,58.5307935 80.886967,59.0009149 80.2485994,59.7808732 C80.2637054,58.603327 79.9235707,57.6863543 79.2281954,57.0299552 C77.9725556,56.0279148 77.6945743,54.8541491 78.3942517,53.5086581 L79.445862,51.9092918 Z M16.5233688,51.9092918 L17.574979,53.5086581 C18.2746564,54.8541491 17.9966752,56.0279148 16.7410353,57.0299552 C16.0456601,57.6863543 15.7055254,58.603327 15.7206313,59.7808732 C15.0822638,59.0009149 14.2767482,58.5307935 13.3040845,58.3705091 C12.2070458,58.3251728 11.4507664,58.0270247 11.0352464,57.4760651 C10.5037479,56.8910017 10.1726721,55.8145299 10.0420191,54.2466497 L10.0602166,54.2805379 C10.1693806,54.4733548 10.787197,55.428388 12.3820359,55.5663809 C13.4779279,55.8964462 14.3066994,56.4992587 14.8683505,57.3748185 C14.678499,56.2606441 15.100734,55.0301435 16.1350556,53.6833169 C16.407936,53.35759 16.5373738,52.7662484 16.5233688,51.9092918 Z M54.3891756,41.743688 L55.18892,42.1435016 C55.5928415,42.349298 55.9963124,42.5660241 56.3699713,42.8031095 C56.5229874,42.9006341 56.5606806,43.088695 56.4830508,43.3672919 C56.4542318,43.470865 56.4865524,43.5478925 56.5800125,43.5983744 C56.7616025,43.6985945 56.9227617,43.8102742 57.0634901,43.9334134 L57.8148495,44.6065454 L58.2956293,45.0292271 C59.0291871,45.6598828 59.8151029,46.2555193 60.6076369,46.5479093 L61.1655231,46.757469 C63.6653333,47.7113798 67.2350863,49.2609329 71.8747819,51.4061283 C73.1286728,51.984162 73.6767221,53.4691717 73.0988225,54.7231244 C73.0672186,54.7916998 73.0325242,54.8588083 72.9948474,54.9242442 L72.4616442,55.8477792 C71.7707212,57.0431831 70.2415511,57.452146 69.046147,56.7612232 C68.9856829,56.726276 68.9267097,56.6888105 68.8692463,56.6491213 L67.4564989,55.663717 C63.6500206,52.9947183 60.8253776,50.8943486 58.9825699,49.3626078 C57.9506118,48.5043542 56.2640077,48.0433535 54.9462767,47.6005346 C54.7692708,47.5402298 54.5919738,47.4565017 54.4143856,47.3493501 C54.323937,47.2936523 54.241069,47.3041756 54.1657815,47.3809202 C53.9633243,47.5874479 53.7816123,47.6488351 53.6206454,47.5650816 C52.9670598,47.2233226 52.3210452,46.7815704 51.7127617,46.379373 C51.4552521,46.1773249 51.4571577,45.9198415 51.6942554,45.4873638 L52.6547088,43.8338096 L53.6074199,42.1736657 C53.8634077,41.7520943 54.0854421,41.6217023 54.3891756,41.743688 Z M15.9702486,46.3107909 C16.2272405,46.702076 16.4694038,47.2553027 16.6967387,47.970471 C17.204187,49.4228186 16.7484203,50.5735001 15.3294385,51.4225155 C14.5953458,51.9774904 14.0789861,52.8055979 13.7803595,53.906838 C13.5863718,53.1405454 13.0183827,52.6012181 12.076392,52.2888563 C11.0759469,51.9635152 10.3674744,51.6243055 9.95097449,51.2712272 C9.24892591,50.7876081 8.98126657,49.5143005 9.14799645,47.4513043 L9.18115361,47.5267073 C9.32185465,47.8270159 9.92611697,48.9357537 11.2923224,49.227479 C12.0787102,49.5556902 12.8002358,50.287369 13.4568992,51.4225155 L13.4552115,51.378047 L13.4547847,51.3181869 C13.455877,51.1289978 13.4793528,50.6937631 13.6411379,50.1053555 C13.787823,49.5718659 14.2071372,48.9927976 14.8990804,48.3681505 C15.5211985,47.9042088 15.8782546,47.2184223 15.9702486,46.3107909 Z M79.9989821,46.3107909 C80.0909762,47.2184223 80.4480323,47.9042088 81.0701504,48.3681505 C81.7620936,48.9927976 82.1814077,49.5718659 82.3280929,50.1053555 C82.4828438,50.6681802 82.511051,51.0908617 82.5141671,51.2921223 L82.5143378,51.3588206 C82.5138486,51.4006043 82.5123315,51.4225155 82.5123315,51.4225155 C83.1689949,50.287369 83.8905205,49.5556902 84.6769084,49.227479 C86.2617067,48.8890776 86.8212343,47.4513043 86.8212343,47.4513043 C86.9879642,49.5143005 86.7203049,50.7876081 86.0182563,51.2712272 C85.6017563,51.6243055 84.8932838,51.9635152 83.8928388,52.2888563 C82.9508481,52.6012181 82.3828589,53.1405454 82.1888713,53.906838 C81.8902447,52.8055979 81.373885,51.9774904 80.6397922,51.4225155 C79.2208105,50.5735001 78.7650437,49.4228186 79.2724921,47.970471 C79.4998269,47.2553027 79.7419903,46.702076 79.9989821,46.3107909 Z M33.8356449,46.6720461 C35.5694342,48.3906259 37.4920645,49.8606579 39.603536,51.0821419 C41.1455433,51.9742834 42.7235696,52.6546035 44.3376148,53.1231021 L44.8229089,53.257297 C44.9220642,53.2832327 44.9351849,53.3030342 44.862271,53.3167015 L44.8186445,53.323024 C44.7554274,53.3303282 44.6898484,53.3606825 44.627581,53.3575909 C43.9086102,53.3216308 43.1826339,53.1820544 42.476869,52.9863706 L42.1257969,52.884073 C42.1051615,52.8776194 39.0318742,51.7791272 37.5247209,50.5782046 C36.145974,49.5773967 34.9051117,48.4035902 33.802134,47.0567851 C33.7696563,47.0167226 33.7566954,46.9710831 33.7632513,46.9198666 L33.7949415,46.685604 C33.7992415,46.6538509 33.8128093,46.6493316 33.8356449,46.6720461 Z M36.9248552,41.1767269 L48.1861494,47.6742568 C48.1932409,47.6785153 48.1974574,47.6863485 48.1970676,47.6944872 C48.1966208,47.7026258 48.1916396,47.7096712 48.1841744,47.7126828 C47.6766885,47.9258433 47.5507452,48.5872495 47.5313672,49.0963124 L47.5158757,49.8220243 C47.502361,50.4729716 47.4627941,51.1302212 47.1833035,51.7189632 C46.9693092,52.1690661 46.5934835,52.5496593 46.0558262,52.8607426 C45.8884841,52.9578199 45.7228903,52.9001699 45.551507,52.8627507 C45.0978078,52.7620771 44.6563168,52.643192 44.2270339,52.5060954 C40.294513,51.2501119 36.7869194,48.8502748 33.7473787,46.0385885 C33.6429077,45.9412788 33.5626151,45.827893 33.5065009,45.6984311 C33.2583144,45.1200324 33.2175948,44.5661972 33.6080554,44.0304541 C33.9188755,43.6035548 34.4104601,43.239046 34.8746568,42.9561393 L35.0713146,42.8399456 C35.5543904,42.5630356 35.9963256,42.2960641 36.3971203,42.0390311 C36.6521079,41.8761933 36.9035479,41.6507815 36.8674045,41.3349152 L36.8476499,41.2374138 C36.8236884,41.153439 36.8494235,41.13321 36.9248552,41.1767269 Z M16.4561655,40.4786826 C16.6296056,40.9276863 16.7575678,41.4744643 16.8400523,42.1190165 C17.1146889,43.6865828 16.4814454,44.7941601 14.9403218,45.4417484 C14.2171339,45.7211268 13.5857512,46.4811484 13.0461737,47.721813 C12.7717247,46.7843698 12.275472,46.0882862 11.5574153,45.6335624 C10.8367766,45.236284 10.278643,44.8656294 9.8830146,44.5215985 C9.13125546,43.8833502 9.02791953,42.5396138 9.57300681,40.4903892 L9.58596232,40.5365683 C9.65734974,40.7719574 10.0507352,41.8554619 11.4190069,42.5829413 C12.2446711,43.0297534 12.7987772,43.8777604 13.0813252,45.1269624 C13.2393851,43.9467112 13.8775169,43.0167733 14.9957206,42.3371486 C15.6764855,42.0983872 16.1633004,41.4788986 16.4561655,40.4786826 Z M79.5130653,40.4786826 C79.8059303,41.4788986 80.2927453,42.0983872 80.9735102,42.3371486 C82.0917139,43.0167733 82.7298457,43.9467112 82.8879056,45.1269624 C83.1704536,43.8777604 83.7245597,43.0297534 84.5502239,42.5829413 C86.0926393,41.7628736 86.396224,40.4903892 86.396224,40.4903892 C86.9413112,42.5396138 86.8379753,43.8833502 86.0862162,44.5215985 C85.6905877,44.8656294 85.1324542,45.236284 84.4118154,45.6335624 C83.6937588,46.0882862 83.197506,46.7843698 82.9230571,47.721813 C82.3834796,46.4811484 81.7520969,45.7211268 81.028909,45.4417484 C79.4877854,44.7941601 78.8545419,43.6865828 79.1291785,42.1190165 C79.2116629,41.4744643 79.3396252,40.9276863 79.5130653,40.4786826 Z M41.9562715,32.2475047 L53.7905976,39.0747773 C54.2188474,39.3221738 54.3653031,39.8696252 54.1177154,40.2975443 C54.0886171,40.3478365 54.0546875,40.3951784 54.0166229,40.4390887 C53.1240082,41.4619286 52.3681004,42.5091781 51.7488992,43.5808373 C51.1411719,44.6326387 50.6376401,45.7555339 50.2383039,46.9495229 C50.0807342,47.4180633 49.5726364,47.6697667 49.1038853,47.5118696 C49.0471497,47.4927585 48.9924748,47.468011 48.9406802,47.4380002 L37.1196105,40.6183752 C36.6912143,40.3712316 36.5444349,39.8238668 36.7917696,39.3958016 L40.7327527,32.5750923 C40.9800873,32.1470271 41.5278754,32.0003611 41.9562715,32.2475047 Z M11.5626452,33.7745679 C11.5912638,34.5695215 12.0699224,35.3335736 12.998621,36.066724 C13.5209043,36.6548587 13.8200617,37.4252011 13.8960934,38.3777511 C14.4804386,37.256502 15.2378514,36.5583912 16.1683319,36.2834186 C16.6814584,36.1679325 17.1861662,35.7124532 17.6824555,34.9169807 C17.7643121,35.7273876 17.7579856,36.5344568 17.663476,37.3381883 C17.5570817,38.3263521 16.8228506,38.8978219 15.4607828,39.0525978 C14.7655743,39.2609965 14.1098467,39.7692774 13.4936,40.5774404 C13.4383484,39.7473542 13.0201152,39.0153265 12.2389003,38.3813573 C11.3021291,37.8386624 10.8288792,37.2196689 10.8191507,36.5243769 C10.771339,35.8824903 11.0191705,34.9658873 11.5626452,33.7745679 Z M84.4065855,33.7745679 C84.9500602,34.9658873 85.1978917,35.8824903 85.15008,36.5243769 C85.1403515,37.2196689 84.6671017,37.8386624 83.7303305,38.3813573 C82.9491156,39.0153265 82.5308824,39.7473542 82.4756308,40.5774404 C81.8593841,39.7692774 81.2036565,39.2609965 80.508448,39.0525978 C79.1463801,38.8978219 78.412149,38.3263521 78.3057547,37.3381883 C78.2112452,36.5344568 78.2049187,35.7273876 78.2867753,34.9169807 C78.7830645,35.7124532 79.2877724,36.1679325 79.8008989,36.2834186 C80.7313793,36.5583912 81.4887922,37.256502 82.0731374,38.3777511 C82.149169,37.4252011 82.4483265,36.6548587 82.9706097,36.066724 C83.8993084,35.3335736 84.377967,34.5695215 84.4065855,33.7745679 Z M44.7668865,26.4097767 C44.8472849,26.4067723 44.9279569,26.4173949 45.0089025,26.4416443 C47.445569,27.1761597 49.7101092,28.1385604 51.802523,29.3288464 C53.1871599,30.1167057 54.5183571,31.0597766 55.6913792,32.0942697 C56.2003185,32.5427731 56.6615844,33.0047418 57.0751769,33.4801759 C57.1027512,33.5119179 57.1189811,33.5520823 57.1213084,33.5943382 C57.1809132,34.7763409 56.624736,35.582697 55.7030049,36.1756582 L55.5460412,36.2725371 C55.1604548,36.501304 54.7984127,36.7282203 54.4599148,36.9532862 C54.09043,37.1989184 53.6531555,37.631891 53.7374559,38.1132176 C53.7386567,38.1201597 53.7357461,38.1271701 53.7299803,38.1312234 C53.7242144,38.1352767 53.7165962,38.135698 53.7104891,38.1321748 L42.395733,31.6046443 C42.357385,31.5825212 42.3596,31.5655597 42.4023779,31.5537597 C42.587633,31.501531 42.7556513,31.4368328 42.8201609,31.2332893 C42.9006597,30.9811655 42.9409373,30.7145365 42.9409937,30.4334026 C42.9417103,29.8428613 42.9512974,29.2807277 42.9697551,28.7470017 C43.0112564,27.573882 43.3508365,26.4683399 44.7668865,26.4097767 Z M81.6928332,28.5930187 C82.099812,29.0529808 82.4209838,29.6057127 82.6563488,30.2512144 C83.1608325,31.7798028 81.9323582,32.5919591 81.5053992,33.1194667 C81.2207599,33.4711384 81.0693445,34.047903 81.0511529,34.8497604 C80.6776333,34.398946 80.0597243,34.0894923 79.1974258,33.9213995 C78.2259786,34.0085197 77.5100566,33.6448251 77.0496598,32.8303155 C76.7410721,32.2530116 76.5672596,31.4700236 76.5282221,30.4813515 C77.1357251,31.1907623 77.7283771,31.5416228 78.3061781,31.5339331 C78.8709277,31.5142922 79.5490235,31.9481992 80.3404656,32.835654 C80.2507673,31.8819011 80.472845,31.1119766 81.0066987,30.5258803 C81.6385765,30.1492869 81.6926945,29.0336999 81.6941247,28.6929782 L81.6928332,28.5930187 Z M14.2763976,28.5930187 L14.2751956,28.6506169 L14.275106,28.6929782 C14.2765363,29.0336999 14.3306543,30.1492869 14.9625321,30.5258803 C15.4963857,31.1119766 15.7184634,31.8819011 15.6287652,32.835654 C16.4202073,31.9481992 17.0983031,31.5142922 17.6630527,31.5339331 C18.2408537,31.5416228 18.8335057,31.1907623 19.4410087,30.4813515 C19.4019712,31.4700236 19.2281586,32.2530116 18.919571,32.8303155 C18.4591742,33.6448251 17.7432521,34.0085197 16.7718049,33.9213995 C15.9095065,34.0894923 15.2915975,34.398946 14.9180779,34.8497604 C14.8998863,34.047903 14.7484708,33.4711384 14.4638315,33.1194667 L14.4169081,33.0638638 C13.9542108,32.5350964 12.8257942,31.7270929 13.312882,30.2512144 C13.5482469,29.6057127 13.8694188,29.0529808 14.2763976,28.5930187 Z M45.9672388,26.0024844 C47.6859969,26.2835506 49.3237603,26.7704354 50.8805289,27.4631387 C52.6749392,28.1669021 55.1636405,30.2771446 55.1795516,30.2917748 C55.8023177,30.8724488 56.3850787,31.515067 56.8408392,32.2199504 C56.8633813,32.2548423 56.873776,32.2984401 56.885691,32.3409196 L56.9310236,32.4725021 C56.9366904,32.5032592 56.9208756,32.5022903 56.8835791,32.4695954 L56.851579,32.4391256 C55.5536307,31.1302457 54.0553365,29.9872324 52.3566964,29.0100859 C50.2423066,27.7936527 48.0069221,26.8649083 45.6505429,26.2238528 C45.6349907,26.2196509 45.6264979,26.2140498 45.6250643,26.2070495 L45.6282086,26.1954996 L45.6419418,26.1818508 L45.8291309,26.0372963 C45.870242,26.0060148 45.916278,25.9944109 45.9672388,26.0024844 Z M78.5901723,24.6503727 L79.6520688,25.9587167 C79.9870331,26.7521378 79.8995759,27.4451191 79.389697,28.0376605 C78.9967172,28.5296629 78.8466333,29.2252721 78.9394453,30.1244881 C78.5840908,29.7493751 77.8163027,29.5691422 76.6360811,29.5837895 C75.4035861,29.6993534 74.6689922,28.8365167 74.4322994,26.9952794 C74.6151158,27.3226478 75.0449988,27.5579841 75.7219483,27.7012884 C76.5321193,27.6346415 77.3041245,27.9190071 78.0379639,28.5543853 C77.7522557,27.7763901 77.7970915,27.0844922 78.1724715,26.4786917 C78.5159958,26.0498437 78.6552294,25.4404041 78.5901723,24.6503727 Z M17.3790585,24.6503727 C17.3140014,25.4404041 17.453235,26.0498437 17.7967592,26.4786917 C18.1721392,27.0844922 18.2169751,27.7763901 17.9312669,28.5543853 C18.6651063,27.9190071 19.4371115,27.6346415 20.2472824,27.7012884 C20.9242319,27.5579841 21.3541149,27.3226478 21.5369314,26.9952794 C21.3002386,28.8365167 20.5656447,29.6993534 19.3331497,29.5837895 C18.152928,29.5691422 17.38514,29.7493751 17.0297855,30.1244881 C17.1225975,29.2252721 16.9725136,28.5296629 16.5795337,28.0376605 C16.0696549,27.4451191 15.9821976,26.7521378 16.3171619,25.9587167 L17.3790585,24.6503727 Z M75.1977851,20.9903124 C75.9168513,21.5904176 76.3636602,22.0654556 76.5382117,22.4154264 C76.6634647,22.8508831 76.5897866,23.3616816 76.3171772,23.947822 C76.0809542,24.5392832 76.0695281,25.0775558 76.282899,25.56264 C75.6375871,25.2392228 75.0457931,25.1495095 74.507517,25.2935003 C73.7649241,25.617334 73.1499361,25.4820765 72.662553,24.8877276 L72.6210899,24.8356591 C72.4132905,24.586297 72.2419534,24.2147243 72.1070785,23.7209412 C72.6185002,24.0494211 73.0987321,24.1208529 73.5477742,23.9352367 C74.3749523,23.9213532 74.9431007,24.0847261 75.2522192,24.4253552 C74.9412846,23.6688038 74.8965835,23.0693378 75.1181158,22.6269572 L75.1438261,22.5784502 C75.4836803,21.9716592 75.2522462,21.1614475 75.20552,21.0138785 L75.1977851,20.9903124 Z M20.7714457,20.9903124 L20.7546339,21.0434802 C20.6953767,21.2425875 20.5146566,21.9617077 20.7990859,22.5288223 L20.8254046,22.5784502 C21.0755933,23.0251484 21.0394623,23.6407834 20.7170116,24.4253552 C21.0261301,24.0847261 21.5942784,23.9213532 22.4214566,23.9352367 C22.8704987,24.1208529 23.3507306,24.0494211 23.8621523,23.7209412 C23.736269,24.1818055 23.5786231,24.5362108 23.3892146,24.7841572 L23.3481409,24.8356591 C22.8543327,25.4739727 22.2255236,25.6265864 21.4617137,25.2935003 C20.9234377,25.1495095 20.3316437,25.2392228 19.6863318,25.56264 C19.8997026,25.0775558 19.8882766,24.5392832 19.6520536,23.947822 C19.3794442,23.3616816 19.305766,22.8508831 19.4310191,22.4154264 C19.6055706,22.0654556 20.0523795,21.5904176 20.7714457,20.9903124 Z M24.2640599,18.2751841 L24.2425614,18.3176843 C24.1623044,18.4823469 23.894755,19.0895299 24.0927889,19.5009811 C24.3349635,19.788775 24.2904404,20.2769647 23.9592195,20.9655502 C24.3099599,20.823555 24.7555378,20.8263744 25.2959533,20.9740083 C25.5655244,21.1200111 25.9835832,21.1254458 26.5501297,20.9903124 L26.5466337,21.0009462 L26.5396931,21.0164389 C26.5069915,21.0832467 26.3736584,21.2950031 25.8374097,21.8384395 C25.3792766,22.3027132 24.7524257,22.2747019 23.9568571,21.7544057 C23.5567389,21.7003395 23.1541,21.7157897 22.7489403,21.8007563 C23.0095832,21.4598983 23.0873393,21.0719911 22.9822087,20.6370348 L22.9578594,20.4418822 C22.939539,20.2863946 22.9149116,20.0644896 22.8839772,19.7761673 C22.9677736,19.2040134 23.4278011,18.7036857 24.2640599,18.2751841 Z M71.7051709,18.2751841 C72.5414296,18.7036857 73.0014572,19.2040134 73.0852535,19.7761673 L73.0065313,20.4826412 C72.9987251,20.5478283 72.992222,20.5992929 72.987022,20.6370348 C72.8818915,21.0719911 72.9596476,21.4598983 73.2202905,21.8007563 C72.8151308,21.7157897 72.4124919,21.7003395 72.0123737,21.7544057 C71.2168051,22.2747019 70.5899542,22.3027132 70.1318211,21.8384395 L70.0329811,21.7373498 C69.5318013,21.2197589 69.4391705,21.0427549 69.4225971,21.0009462 L69.419153,20.9905757 C69.9856476,21.1254458 70.4037064,21.1200111 70.6732774,20.9740083 C71.2136929,20.8263744 71.6592709,20.823555 72.0100113,20.9655502 C71.6787904,20.2769647 71.6342673,19.788775 71.8764419,19.5009811 C72.0744758,19.0895299 71.8069264,18.4823469 71.7266694,18.3176843 L71.7051709,18.2751841 Z M68.5679557,16.4250426 C69.4748887,16.6905184 69.9736077,17.0986524 70.0641126,17.6494444 C69.9673145,18.4380548 70.082135,18.9727135 70.4085743,19.2534208 C69.7052499,19.3257501 69.230466,19.4658122 68.9842226,19.6736071 L68.8810596,19.7598825 C68.5716091,20.0141939 68.3586116,20.1277005 67.9370833,19.8429593 L67.0889992,19.1968786 C67.5076353,19.1404138 67.8685232,19.0277052 68.1716629,18.8587527 C68.5841951,18.6943933 69.0225103,18.6693554 69.4866087,18.783639 C69.0747853,18.3622106 68.8678971,17.9778993 68.865944,17.6307052 L68.8669479,17.5835906 C68.8887853,17.1333916 68.6656991,16.6272748 68.591478,16.4724975 L68.5679557,16.4250426 Z M27.4012751,16.4250426 L27.3862266,16.4550097 C27.3250946,16.5798017 27.0986896,17.0729022 27.1008003,17.527054 L27.1022828,17.5835906 C27.1197183,17.9430386 26.9131647,18.3430548 26.4826221,18.783639 C26.9467204,18.6693554 27.3850357,18.6943933 27.7975679,18.8587527 C28.1007075,19.0277052 28.4615954,19.1404138 28.8802316,19.1968786 L28.0321474,19.8429593 C27.5654554,20.1582085 27.3543732,19.9852993 26.9850081,19.6736071 C26.7387648,19.4658122 26.2639809,19.3257501 25.5606565,19.2534208 C25.8870958,18.9727135 26.0019163,18.4380548 25.9051182,17.6494444 C25.9956231,17.0986524 26.4943421,16.6905184 27.4012751,16.4250426 Z M65.9487301,15 C66.8080355,15.172403 67.205221,15.5353724 67.1402866,16.0889083 C67.1497481,16.6768662 67.6026328,17.1650469 67.6026328,17.1650469 C67.2022055,17.1222755 66.8578541,17.2301113 66.5695787,17.4885545 C66.1318231,17.8967498 65.5225603,17.7630183 64.8827608,17.3420267 C65.1389718,17.356271 65.346146,17.2887305 65.5042833,17.1394053 C65.716197,16.8529571 66.1381456,16.7152829 66.7701289,16.7263829 C66.3518977,16.5545318 66.1432981,16.1798551 66.1443302,15.6023527 C66.156002,15.423488 66.090802,15.2227037 65.9487301,15 Z M30.0205006,15 C29.8784288,15.2227037 29.8132288,15.423488 29.8249006,15.6023527 C29.8259326,16.1798551 29.6173331,16.5545318 29.1991018,16.7263829 C29.8310852,16.7152829 30.2530337,16.8529571 30.4649475,17.1394053 C30.6230848,17.2887305 30.8302589,17.356271 31.0864699,17.3420267 C30.4466705,17.7630183 29.8374076,17.8967498 29.3996521,17.4885545 C29.1113766,17.2301113 28.7670252,17.1222755 28.3665979,17.1650469 L28.3981819,17.1285771 C28.5011543,17.0049736 28.8210087,16.5820343 28.8289441,16.0889083 C28.7640098,15.5353724 29.1611953,15.172403 30.0205006,15 Z" id="path-6"></path>
        <filter x="-5.1%" y="-2.9%" width="110.3%" height="111.6%" filterUnits="objectBoundingBox" id="filter-7">
            <feOffset dx="0" dy="2" in="SourceAlpha" result="shadowOffsetOuter1"></feOffset>
            <feGaussianBlur stdDeviation="1" in="shadowOffsetOuter1" result="shadowBlurOuter1"></feGaussianBlur>
            <feColorMatrix values="0 0 0 0 0   0 0 0 0 0.48627451   0 0 0 0 0.121568627  0 0 0 0.2 0" type="matrix" in="shadowBlurOuter1"></feColorMatrix>
        </filter>
    </defs>
    <g id="法律助手-类案查询-110" stroke="none" stroke-width="1" fill="none" fill-rule="evenodd">
        <g id="编组-2" filter="url(#filter-1)" transform="translate(7, 7)">
            <mask id="mask-4" fill="white">
                <use xlink:href="#path-3"></use>
            </mask>
            <use id="蒙版" fill="url(#linearGradient-2)" xlink:href="#path-3"></use>
            <g id="形状结合" mask="url(#mask-4)">
                <use fill="black" fill-opacity="1" filter="url(#filter-7)" xlink:href="#path-6"></use>
                <use fill="url(#linearGradient-5)" fill-rule="evenodd" xlink:href="#path-6"></use>
            </g>
        </g>
    </g>
</svg>