<?xml version="1.0" encoding="UTF-8"?>
<svg width="16px" height="16px" viewBox="0 0 16 16" version="1.1" xmlns="http://www.w3.org/2000/svg" xmlns:xlink="http://www.w3.org/1999/xlink">
    <title>法律助手-法规查询-16</title>
    <defs>
        <linearGradient x1="50%" y1="0%" x2="50%" y2="101.812788%" id="linearGradient-1">
            <stop stop-color="#00D9FC" offset="0%"></stop>
            <stop stop-color="#1170E7" offset="100%"></stop>
        </linearGradient>
        <linearGradient x1="43.5885539%" y1="26.4015105%" x2="74.3926199%" y2="93.0073361%" id="linearGradient-2">
            <stop stop-color="#FFFFFF" offset="0%"></stop>
            <stop stop-color="#9CD8F8" offset="100%"></stop>
        </linearGradient>
        <path d="M6.87835361,12.5805445 C6.93975451,12.8039694 7.06010986,12.9467254 7.23941966,13.0088126 C6.99992823,13.0640152 6.82058076,13.1858159 6.70137726,13.3742148 C6.51637727,13.5496436 6.26491756,13.5415735 5.94699812,13.3500044 C6.09121725,13.333964 6.21459556,13.2698943 6.31713307,13.1577953 C6.46593893,13.0028691 6.63761236,12.934869 6.83215335,12.9537952 C6.60686875,12.9290509 6.44660477,12.7788286 6.35136143,12.5031285 C6.335986,12.4026888 6.26219056,12.3253863 6.1299751,12.2712212 L6.15581631,12.2675764 C6.27712959,12.2524568 6.78802153,12.2115955 6.87835361,12.5805445 Z M9.8700249,12.2712212 C9.73780944,12.3253863 9.664014,12.4026888 9.64863857,12.5031285 C9.55339523,12.7788286 9.39313125,12.9290509 9.16784665,12.9537952 C9.36238764,12.934869 9.53406107,13.0028691 9.68286693,13.1577953 C9.78540444,13.2698943 9.90878275,13.333964 10.0530019,13.3500044 C9.73508244,13.5415735 9.48362273,13.5496436 9.29862274,13.3742148 C9.17941924,13.1858159 9.00007177,13.0640152 8.76058034,13.0088126 C8.93989014,12.9467254 9.06024549,12.8039694 9.12164639,12.5805445 C9.22429648,12.1612842 9.8700249,12.2712212 9.8700249,12.2712212 Z M5.27359973,11.8804013 L5.29539459,11.8820784 C5.34572441,11.8866663 5.47897164,11.9027049 5.65043784,11.9537181 C5.82573971,12.0220086 5.92477423,12.1717861 5.9475414,12.4030505 C5.96050161,12.5605732 6.03893251,12.6878283 6.18283409,12.7848158 C6.02267454,12.7810797 5.8761857,12.832012 5.74336758,12.9376128 C5.59494991,13.0984586 5.43930604,13.157673 5.27643598,13.1152558 C5.06743052,13.0330569 4.93316834,12.9645746 4.87364943,12.9098088 C5.0504156,12.9111465 5.19485148,12.8583896 5.30695707,12.7515381 C5.43886343,12.6588881 5.59846562,12.6311992 5.78576366,12.6684715 C5.58889968,12.5553054 5.47901199,12.3943893 5.45610059,12.1857233 C5.43527224,12.065959 5.37443862,11.964185 5.27359973,11.8804013 Z M10.7264003,11.8804013 C10.6255614,11.964185 10.5647278,12.065959 10.5438994,12.1857233 C10.520988,12.3943893 10.4111003,12.5553054 10.2142363,12.6684715 C10.4015344,12.6311992 10.5611366,12.6588881 10.6930429,12.7515381 C10.8051485,12.8583896 10.9495844,12.9111465 11.1263506,12.9098088 C11.0668317,12.9645746 10.9325695,13.0330569 10.723564,13.1152558 C10.560694,13.157673 10.4050501,13.0984586 10.2566324,12.9376128 C10.1238143,12.832012 9.97732546,12.7810797 9.81716591,12.7848158 C9.96106749,12.6878283 10.0394984,12.5605732 10.0524586,12.4030505 C10.0752258,12.1717861 10.1742603,12.0220086 10.3495622,11.9537181 L10.375634,11.9461427 C10.5817002,11.887696 10.7264003,11.8804013 10.7264003,11.8804013 Z M11.504147,11.3576984 C11.4129847,11.4597436 11.3664239,11.5867327 11.3644644,11.7386657 C11.35827,11.9525476 11.2843988,12.1088087 11.1428509,12.2074492 C11.3273072,12.1320361 11.5094038,12.1442856 11.6891406,12.2441976 C11.7858534,12.3102453 11.9164082,12.3301857 12.080805,12.3040186 C11.919762,12.476091 11.7688265,12.5751471 11.6279987,12.601187 C11.5210651,12.6398463 11.3952849,12.606012 11.2506579,12.4996841 L11.2378478,12.4901141 C11.0128149,12.3193468 10.7683986,12.3913514 10.7683986,12.3913514 C10.9065304,12.2559637 10.9603245,12.1070397 10.9297809,11.9445793 C10.9142335,11.7182383 10.9868231,11.5627942 11.1475498,11.4782471 C11.3103303,11.4082205 11.4291961,11.3680376 11.504147,11.3576984 Z M4.49585304,11.3576984 C4.57080394,11.3680376 4.68966966,11.4082205 4.85245018,11.4782471 C5.01317687,11.5627942 5.08576652,11.7182383 5.07021912,11.9445793 C5.0396755,12.1070397 5.09346958,12.2559637 5.23160135,12.3913514 L5.22098597,12.3886661 C5.17259509,12.377504 4.96688565,12.3416526 4.77255114,12.4824038 L4.7621522,12.4901141 C4.61213029,12.603959 4.48207998,12.6409833 4.37200128,12.601187 C4.23117347,12.5751471 4.08023804,12.476091 3.919195,12.3040186 C4.08359183,12.3301857 4.21414662,12.3102453 4.31085936,12.2441976 C4.49059622,12.1442856 4.6726928,12.1320361 4.8571491,12.2074492 C4.71560121,12.1088087 4.64173003,11.9525476 4.63553557,11.7386657 C4.63357611,11.5867327 4.58701527,11.4597436 4.49585304,11.3576984 Z M3.84678491,10.7212696 L3.85705445,10.7254257 C3.88681517,10.7380082 3.98263428,10.7819543 4.16233834,10.8943395 C4.34075929,11.0073192 4.38449535,11.2193998 4.29354652,11.5305814 C4.28581779,11.6445885 4.31831356,11.7571752 4.39103383,11.8683417 C4.32426768,11.8348504 4.21718581,11.8252912 4.06978821,11.839664 C3.81250896,11.9864063 3.61830054,12.0177394 3.48716293,11.9336633 C3.31497008,11.8165161 3.19248912,11.6966076 3.11972006,11.5739378 C3.2999876,11.6318323 3.46210943,11.6233265 3.60608554,11.5484206 C3.78181086,11.5226363 3.9406413,11.558008 4.08257685,11.6545356 C3.94450647,11.5256283 3.894272,11.3439357 3.93187346,11.1094578 C3.94441786,10.941187 3.91605502,10.8117909 3.84678491,10.7212696 Z M12.1532151,10.7212696 C12.083945,10.8117909 12.0555821,10.941187 12.0681265,11.1094578 C12.105728,11.3439357 12.0554935,11.5256283 11.9174232,11.6545356 C12.0593587,11.558008 12.2181891,11.5226363 12.3939145,11.5484206 C12.5378906,11.6233265 12.7000124,11.6318323 12.8802799,11.5739378 C12.8075109,11.6966076 12.6850299,11.8165161 12.5128371,11.9336633 C12.3816995,12.0177394 12.187491,11.9864063 11.9302118,11.839664 C11.7828142,11.8252912 11.6757323,11.8348504 11.6089662,11.8683417 C11.6816864,11.7571752 11.7141822,11.6445885 11.7064535,11.5305814 C11.6155046,11.2193998 11.6592407,11.0073192 11.8376617,10.8943395 L11.8740553,10.8718038 C12.0695041,10.7520177 12.1532151,10.7212696 12.1532151,10.7212696 Z M8.02519725,3.73 C8.16538959,3.73 8.28554466,3.83511011 8.33602788,3.98451775 C8.62513158,3.91977343 9.02535412,3.83022198 9.35488656,3.83022198 C9.74325071,3.83022198 10.2302622,4.16700411 10.6259265,4.22938633 L10.6246264,4.18071162 C10.6246264,4.09786891 10.6917837,4.03071162 10.7746264,4.03071162 C10.8574691,4.03071162 10.9246264,4.09786891 10.9246264,4.18071162 L10.9267659,4.24795177 C11.1771567,4.2536081 11.3007362,4.23363782 11.3900991,4.20495702 C11.5028805,4.16876013 11.5789939,4.13880354 11.4992341,4.21143041 C11.4194743,4.28405729 11.2204835,4.42740968 10.9921489,4.52395077 L10.9239184,4.546 L10.9239184,4.681 L12.2389184,8.521 L12.4984233,8.52179894 C12.504903,8.54711002 12.4899982,8.5727709 12.4793417,8.59873169 L12.4697473,8.63789155 C12.4697473,9.11235356 11.6974244,9.49698102 10.7982708,9.49698102 C9.89911723,9.49698102 9.12679427,9.11235356 9.12679427,8.63789155 C9.12679427,8.59851924 9.08839869,8.55976556 9.09811824,8.52179894 L9.33191843,8.521 L10.6239184,4.691 L10.6242611,4.56922538 C10.4882533,4.55398408 10.3339503,4.51125611 10.1466025,4.44957998 C9.77190691,4.32622771 9.6463502,4.23792069 9.35488656,4.23792069 C9.17726057,4.23792069 8.82221903,4.29070313 8.28976194,4.39626803 L8.258,4.43642343 L8.25768856,9.31992341 C8.27768564,9.52184856 8.34206969,9.73719009 8.45148513,9.96592152 C8.56234602,10.1976746 8.7207544,10.4459196 8.92683842,10.7103034 L8.921,10.7194234 L9.59805285,10.7202813 C9.95602284,10.7202813 10.2840275,11.0430847 10.3306718,11.4412828 C9.36905307,11.5442831 8.63090334,11.5957832 8.11622265,11.5957832 C7.59540319,11.5957832 6.81417399,11.5442831 5.77253507,11.4412828 C5.81917937,11.0430847 6.14718405,10.7202813 6.50515404,10.7202813 L7.106,10.7194234 L7.10126473,10.7103233 C7.30341246,10.4508541 7.46103205,10.2026386 7.57426748,9.96592152 C7.68603989,9.73226289 7.75118123,9.51689749 7.76994335,9.32977841 L7.76922448,4.40919776 C7.7670129,4.40602041 7.76484003,4.40280138 7.76270678,4.39954177 L7.769,4.40042343 L7.769,4.39942343 L7.70658771,4.38764039 C7.18736134,4.28782725 6.84138855,4.23792069 6.66866936,4.23792069 C6.37720572,4.23792069 6.25164901,4.32622771 5.87695338,4.44957998 C5.68818627,4.51172335 5.53296658,4.55463038 5.39620683,4.56956703 L5.39591843,4.693 L6.70691843,8.521 L6.93580019,8.52179894 C6.94227989,8.54711002 6.92737509,8.5727709 6.91671859,8.59873169 L6.90712416,8.63789155 C6.90712416,9.11235356 6.13480121,9.49698102 5.23564764,9.49698102 C4.33649407,9.49698102 3.56417112,9.11235356 3.56417112,8.63789155 C3.56417112,8.59851924 3.52577554,8.55976556 3.53549509,8.52179894 L3.79991843,8.521 L5.09460177,4.68524377 L5.09584721,4.54728408 C5.07417936,4.54072604 5.05273133,4.53296682 5.03140698,4.52395077 C4.80307244,4.42740968 4.60408165,4.28405729 4.52432185,4.21143041 C4.44456205,4.13880354 4.52067537,4.16876013 4.63345677,4.20495702 C4.72254946,4.23355108 4.84565202,4.25348722 5.0945217,4.24800239 L5.09592169,4.19589198 C5.09592169,4.11304927 5.16307898,4.04589198 5.24592169,4.04589198 C5.32876441,4.04589198 5.39592169,4.11304927 5.39592169,4.19589198 L5.39591843,4.225 L5.50279343,4.20729 C5.87724541,4.11097986 6.314076,3.83022198 6.66866936,3.83022198 C7.00160536,3.83022198 7.42023618,3.92163284 7.71749186,3.98668662 C7.76381662,3.83601623 7.88440193,3.73 8.02519725,3.73 Z M12.6525445,9.98768012 C12.6039781,10.1110202 12.597305,10.223683 12.6325251,10.3256684 C12.7068417,10.5099783 12.7110104,10.6797388 12.6450313,10.8349498 L12.598,10.925 L12.6823588,10.8618436 C12.8002615,10.7868623 12.9346672,10.7558861 13.0855757,10.7689151 C13.2851857,10.8045808 13.4352936,10.7794285 13.5358993,10.6934583 L13.5313895,10.7061217 C13.5174031,10.7428476 13.4676474,10.8575976 13.3381268,11.0259718 C13.1829726,11.2058029 12.9816595,11.2384051 12.7341876,11.1237784 C12.6163607,11.097693 12.4814546,11.1279016 12.3294692,11.2144043 C12.3884158,11.124226 12.3964734,10.9871718 12.353642,10.8032417 C12.2174382,10.6118738 12.1993,10.4490617 12.2992274,10.3148055 C12.387407,10.193178 12.5051794,10.0841362 12.6525445,9.98768012 Z M3.34745546,9.98768012 C3.49482061,10.0841362 3.61259299,10.193178 3.7007726,10.3148055 C3.80069999,10.4490617 3.78256178,10.6118738 3.64635796,10.8032417 C3.60352663,10.9871718 3.61158424,11.124226 3.67053079,11.2144043 C3.51854539,11.1279016 3.38363926,11.097693 3.26581239,11.1237784 C3.0183405,11.2384051 2.81702745,11.2058029 2.66187325,11.0259718 L2.64470162,11.0033464 C2.50009411,10.8101795 2.46410072,10.6934583 2.46410072,10.6934583 C2.56470641,10.7794285 2.71481427,10.8045808 2.91442428,10.7689151 C3.06533282,10.7558861 3.19973845,10.7868623 3.31764119,10.8618436 L3.401,10.925 L3.35496874,10.8349498 C3.28898961,10.6797388 3.29315831,10.5099783 3.36747485,10.3256684 C3.40269501,10.223683 3.39602188,10.1110202 3.34745546,9.98768012 Z M2.96469675,9.20678481 C3.10681983,9.32931722 3.20914648,9.4600608 3.2716767,9.59901557 C3.31795256,9.73097841 3.27429713,9.87885664 3.1407104,10.0426503 C3.05438717,10.1615461 3.03278049,10.3014241 3.07589037,10.4622842 C2.90954895,10.3590439 2.78141562,10.3097058 2.69149035,10.3142699 C2.4823286,10.3609638 2.33526545,10.3436677 2.2503009,10.2623818 C2.1245831,10.1708761 2.03249463,10.0045434 1.97403547,9.76338369 C2.06072351,9.85459424 2.18467739,9.90171969 2.34589711,9.90476005 L2.36270795,9.90491731 C2.6168645,9.90491731 2.72552528,10.0286122 2.84590181,10.1160285 C2.80614533,9.95843521 2.81421674,9.81627205 2.87011605,9.68953903 C2.9758729,9.53431368 3.0073998,9.37339561 2.96469675,9.20678481 Z M13.0353033,9.20678481 C12.9926002,9.37339561 13.0241271,9.53431368 13.1298839,9.68953903 C13.1857833,9.81627205 13.1938547,9.95843521 13.1540982,10.1160285 C13.2718578,10.0305125 13.3784056,9.9102782 13.6209213,9.90509103 L13.6372921,9.90491731 C13.8067298,9.90491731 13.9362872,9.85773943 14.0259645,9.76338369 C13.9675054,10.0045434 13.8754169,10.1708761 13.7496991,10.2623818 C13.6647346,10.3436677 13.5176714,10.3609638 13.3085097,10.3142699 C13.2185844,10.3097058 13.090451,10.3590439 12.9241096,10.4622842 C12.9672195,10.3014241 12.9456128,10.1615461 12.8592896,10.0426503 C12.7257029,9.87885664 12.6820474,9.73097841 12.7283233,9.59901557 C12.7908535,9.4600608 12.8931802,9.32931722 13.0353033,9.20678481 Z M13.2591006,8.36447636 C13.2567595,8.50063724 13.2783965,8.59459486 13.3240115,8.64634924 C13.4969099,8.86034503 13.5674913,9.05585789 13.5357555,9.23288783 C13.6296417,9.09377111 13.7681802,8.9979909 13.9513709,8.94554719 C14.2481467,8.92113952 14.3425309,8.73585657 14.3425309,8.73585657 C14.3206908,8.98497531 14.2653478,9.15601472 14.1765018,9.24897479 C14.107043,9.33651615 13.9806224,9.38388856 13.7972401,9.39109201 C13.6346484,9.41655942 13.4999974,9.49125648 13.3932871,9.61518319 C13.3958123,9.42808418 13.3389549,9.28238741 13.2227152,9.17809288 C13.0128209,9.0188798 12.9663532,8.83238147 13.0833121,8.61859789 L13.2591006,8.36447636 Z M2.74089943,8.36447636 L2.91668789,8.61859789 C3.03364682,8.83238147 2.98717914,9.0188798 2.77728484,9.17809288 C2.66104505,9.28238741 2.60418773,9.42808418 2.60671285,9.61518319 C2.50000255,9.49125648 2.36535157,9.41655942 2.20275992,9.39109201 C2.01937758,9.38388856 1.89295699,9.33651615 1.82349816,9.24897479 C1.73465221,9.15601472 1.67930918,8.98497531 1.65746907,8.73585657 C1.67875897,8.77187748 1.78203391,8.92362165 2.04862914,8.94554719 C2.2318198,8.9979909 2.37035826,9.09377111 2.46424454,9.23288783 C2.43250873,9.05585789 2.50309006,8.86034503 2.67598852,8.64634924 C2.72160355,8.59459486 2.74324052,8.50063724 2.74089943,8.36447636 Z M13.3515608,7.47493677 C13.3669387,7.61914932 13.4266246,7.72811318 13.5306186,7.80182836 C13.6462847,7.90107784 13.7163778,7.99308536 13.7408978,8.07785093 C13.7667662,8.16727752 13.7714813,8.23443692 13.7720022,8.26641499 L13.7720307,8.27701261 C13.771949,8.28365158 13.7716954,8.28713302 13.7716954,8.28713302 C13.881464,8.10677086 14.0020751,7.99051522 14.1335287,7.9383661 C14.3984455,7.88459789 14.4919769,7.65615169 14.4919769,7.65615169 C14.5198476,7.98393886 14.4751054,8.18625329 14.3577501,8.26309499 C14.2881274,8.31919521 14.1696983,8.37309186 14.0024627,8.42478494 C13.8449983,8.47441577 13.7500526,8.56010887 13.7176254,8.68186425 C13.6677066,8.50688945 13.5813913,8.37531237 13.4586794,8.28713302 C13.2214807,8.1522339 13.1452942,7.9694034 13.2301198,7.7386415 C13.2681214,7.62500921 13.3086017,7.53710763 13.3515608,7.47493677 Z M2.64843919,7.47493677 C2.69139826,7.53710763 2.73187858,7.62500921 2.76988016,7.7386415 C2.85470584,7.9694034 2.77851932,8.1522339 2.54132058,8.28713302 C2.41860874,8.37531237 2.33229342,8.50688945 2.28237463,8.68186425 C2.24994742,8.56010887 2.15500166,8.47441577 1.99753733,8.42478494 C1.83030171,8.37309186 1.71187258,8.31919521 1.64224994,8.26309499 C1.52489464,8.18625329 1.48015237,7.98393886 1.50802315,7.65615169 L1.51356574,7.66813238 C1.5370855,7.71584808 1.63809473,7.89201419 1.8664713,7.9383661 C1.99792485,7.99051522 2.11853596,8.10677086 2.22830462,8.28713302 L2.22795116,8.27055636 C2.22813374,8.24049631 2.23205799,8.17134236 2.25910218,8.07785093 C2.28362225,7.99308536 2.35371532,7.90107784 2.46938139,7.80182836 C2.57337542,7.72811318 2.63306135,7.61914932 2.64843919,7.47493677 Z M10.6377181,5.54980002 L9.63591843,8.521 L10.6059184,8.521 L10.6377181,5.54980002 Z M10.924,5.56442343 L10.8929184,8.521 L11.9349184,8.521 L10.924,5.56442343 Z M5.10571811,5.54980002 L4.10391843,8.521 L5.07391843,8.521 L5.10571811,5.54980002 Z M5.392,5.56442343 L5.36091843,8.521 L6.40291843,8.521 L5.392,5.56442343 Z M2.72966565,6.54827957 C2.7586581,6.61962127 2.78004843,6.70649821 2.79383664,6.8089104 C2.83974522,7.05797926 2.73389146,7.23396099 2.47627536,7.33685558 C2.35538638,7.38124571 2.24984367,7.50200468 2.15964723,7.6991325 C2.11377001,7.5501832 2.03081579,7.43958326 1.91078456,7.36733269 C1.79032171,7.30420957 1.69702341,7.24531667 1.63088968,7.19065398 C1.5052247,7.08924343 1.48795094,6.87573864 1.5790684,6.55013962 C1.59316727,6.59487767 1.65892606,6.76703451 1.88764803,6.8826229 C2.02566708,6.95361637 2.11829213,7.08835526 2.1655232,7.28683957 C2.19194468,7.09931078 2.29861558,6.95155398 2.48553588,6.84356917 C2.59933338,6.80563264 2.68070996,6.70720277 2.72966565,6.54827957 Z M13.2703344,6.54827957 C13.31929,6.70720277 13.4006666,6.80563264 13.5144641,6.84356917 C13.7013844,6.95155398 13.8080553,7.09931078 13.8344768,7.28683957 C13.8817079,7.08835526 13.9743329,6.95361637 14.112352,6.8826229 C14.370184,6.75232325 14.4209316,6.55013962 14.4209316,6.55013962 C14.5120491,6.87573864 14.4947753,7.08924343 14.3691103,7.19065398 C14.3029766,7.24531667 14.2096783,7.30420957 14.0892154,7.36733269 C13.9691842,7.43958326 13.88623,7.5501832 13.8403528,7.6991325 C13.7501563,7.50200468 13.6446136,7.38124571 13.5237246,7.33685558 C13.2661085,7.23396099 13.1602548,7.05797926 13.2061634,6.8089104 C13.2199516,6.70649821 13.2413419,6.61962127 13.2703344,6.54827957 Z M14.0883412,5.48307023 C14.1791891,5.67235765 14.2206169,5.81799568 14.2126247,5.91998433 C14.2109984,6.03045851 14.1318894,6.12880969 13.9752976,6.21503789 C13.8447087,6.31576854 13.7747964,6.43207961 13.7655604,6.56397109 C13.6625479,6.43556296 13.5529357,6.35480278 13.4367238,6.32169055 C13.2090388,6.29709837 13.0863038,6.20629816 13.0685188,6.04928993 C13.0527205,5.92158591 13.051663,5.79335158 13.0653462,5.66458693 C13.1483065,5.79097867 13.2326741,5.86334927 13.318449,5.88169873 C13.4739892,5.92538883 13.6005993,6.03631088 13.6982792,6.21446489 C13.7109887,6.06311528 13.7609962,5.94071644 13.8483017,5.84726836 C14.0035441,5.73077891 14.0835573,5.60937953 14.0883412,5.48307023 Z M1.9116588,5.48307023 C1.91644271,5.60937953 1.99645586,5.73077891 2.15169827,5.84726836 C2.23900378,5.94071644 2.28901131,6.06311528 2.30172085,6.21446489 C2.39940072,6.03631088 2.52601078,5.92538883 2.68155103,5.88169873 C2.76732588,5.86334927 2.85169347,5.79097867 2.93465379,5.66458693 C2.94833704,5.79335158 2.94727949,5.92158591 2.93148116,6.04928993 C2.91369615,6.20629816 2.79096118,6.29709837 2.56327625,6.32169055 C2.44706434,6.35480278 2.33745212,6.43556296 2.23443956,6.56397109 C2.22520364,6.43207961 2.15529126,6.31576854 2.02470243,6.21503789 C1.8681106,6.12880969 1.78900157,6.03045851 1.78737535,5.91998433 C1.77938308,5.81799568 1.8208109,5.67235765 1.9116588,5.48307023 Z M2.36529296,4.65977964 L2.36507707,4.67566209 C2.36531616,4.72979898 2.37436258,4.90705337 2.47998805,4.96688987 C2.56922768,5.06001405 2.60635046,5.18234651 2.5913564,5.33388724 C2.72365483,5.19288054 2.83700616,5.12393754 2.93141038,5.12705826 C3.02799632,5.12828007 3.12706475,5.07253223 3.22861569,4.95981473 C3.22209014,5.11690375 3.19303542,5.24131185 3.14145153,5.33303902 C3.06449103,5.46245554 2.94481663,5.52024258 2.78242832,5.50640014 C2.63828546,5.53310822 2.53499503,5.58227697 2.47255703,5.65390638 C2.4695161,5.52650014 2.44420531,5.43485865 2.39662466,5.37898193 L2.38878088,5.37014725 C2.31143583,5.28613199 2.12280833,5.1577492 2.20423052,4.92324852 C2.24357442,4.82068547 2.2972619,4.73286251 2.36529296,4.65977964 Z M13.634707,4.65977964 C13.7027381,4.73286251 13.7564256,4.82068547 13.7957695,4.92324852 C13.8800996,5.16612423 13.6747463,5.29516684 13.6033753,5.37898193 C13.5557947,5.43485865 13.5304839,5.52650014 13.527443,5.65390638 C13.465005,5.58227697 13.3617145,5.53310822 13.2175717,5.50640014 C13.0551834,5.52024258 12.935509,5.46245554 12.8585485,5.33303902 C12.8069646,5.24131185 12.7779099,5.11690375 12.7713843,4.95981473 C12.8729352,5.07253223 12.9720037,5.12828007 13.0685896,5.12705826 C13.1629938,5.12393754 13.2763452,5.19288054 13.4086436,5.33388724 C13.3936495,5.18234651 13.4307723,5.06001405 13.5200119,4.96688987 C13.6256374,4.90705337 13.6346838,4.72979898 13.6349229,4.67566209 L13.634707,4.65977964 Z M2.88393757,4.03333699 C2.87306255,4.1588642 2.89633701,4.2556974 2.95376094,4.32383657 C3.01650992,4.42009154 3.02400474,4.53002642 2.97624541,4.65364122 C3.0989149,4.55268669 3.22796423,4.50750415 3.3633934,4.5180936 C3.47655311,4.49532414 3.54841288,4.45793181 3.5789727,4.40591661 C3.53940684,4.69846877 3.41661122,4.83556393 3.21058585,4.81720211 C3.01329855,4.81487482 2.88495416,4.84351182 2.82555267,4.9031131 C2.84106723,4.76023768 2.81597902,4.64971311 2.75028804,4.57153939 C2.66505606,4.47739115 2.6504366,4.36728412 2.70642964,4.24121832 L2.88393757,4.03333699 Z M13.1160624,4.03333699 L13.2935704,4.24121832 C13.3495634,4.36728412 13.3349439,4.47739115 13.249712,4.57153939 C13.184021,4.64971311 13.1589328,4.76023768 13.1744473,4.9031131 C13.1150458,4.84351182 12.9867014,4.81487482 12.7894142,4.81720211 C12.5833888,4.83556393 12.4605932,4.69846877 12.4210273,4.40591661 C12.4515871,4.45793181 12.5234469,4.49532414 12.6366066,4.5180936 C12.7720358,4.50750415 12.9010851,4.55268669 13.0237546,4.65364122 C12.9759953,4.53002642 12.9834901,4.42009154 13.0462391,4.32383657 C13.103663,4.2556974 13.1269375,4.1588642 13.1160624,4.03333699 Z M3.45101317,3.45179408 C3.43829739,3.49187779 3.408088,3.606138 3.45563354,3.6962462 C3.50185486,3.77510691 3.49581515,3.87292447 3.44191391,3.99758421 C3.49358653,3.94346203 3.58855891,3.9175039 3.72683103,3.91970983 C3.80189346,3.94920218 3.88216961,3.93785246 3.96765948,3.88566066 C3.94661668,3.95888687 3.9202644,4.01519794 3.88860264,4.05459387 L3.88173671,4.06277695 C3.79919112,4.16419789 3.69407863,4.18844651 3.56639923,4.13552282 C3.47642034,4.11264429 3.37749534,4.12689873 3.26962421,4.17828614 C3.30529154,4.10121165 3.30338154,4.0156861 3.26389422,3.92170949 C3.2183245,3.8285783 3.20600837,3.74741809 3.22694583,3.67822886 C3.25612407,3.62262239 3.33081318,3.54714413 3.45101317,3.45179408 Z M12.5489868,3.45179408 C12.6691868,3.54714413 12.7438759,3.62262239 12.7730542,3.67822886 C12.7939916,3.74741809 12.7816755,3.8285783 12.7361058,3.92170949 C12.6966185,4.0156861 12.6947085,4.10121165 12.7303758,4.17828614 C12.6225047,4.12689873 12.5235797,4.11264429 12.4336008,4.13552282 C12.309468,4.18697641 12.2066659,4.16548549 12.1251943,4.07105005 L12.1182633,4.06277695 C12.0835273,4.02315608 12.0548864,3.96411731 12.0323405,3.88566066 C12.1178304,3.93785246 12.1981065,3.94920218 12.273169,3.91970983 C12.4114411,3.9175039 12.5064135,3.94346203 12.5580861,3.99758421 C12.5061099,3.8773766 12.4986376,3.78212811 12.5356692,3.71183875 C12.5967774,3.60771918 12.5580906,3.47898555 12.5502798,3.45553847 Z M4.03484285,3.02039037 C4.01783328,3.05330624 3.97310939,3.14978086 4.00621298,3.21515589 C4.04669519,3.26088314 4.03925264,3.33845106 3.98388535,3.44785964 C4.04251555,3.42529818 4.11699891,3.42574615 4.20733542,3.44920355 C4.25239725,3.47240177 4.32228047,3.47326528 4.41698509,3.45179408 C4.40977404,3.46656032 4.38748593,3.50020605 4.29784593,3.58655205 C4.22126384,3.66031998 4.11647868,3.6558693 3.98349045,3.57320002 C3.91660621,3.5646095 3.84930059,3.56706437 3.7815736,3.58056462 C3.82514298,3.52640606 3.83814079,3.46477192 3.82056704,3.3956622 L3.81649677,3.36465461 C3.81343431,3.33994936 3.80931757,3.30469113 3.80414654,3.25887991 C3.81815404,3.16797101 3.89505281,3.0884745 4.03484285,3.02039037 Z M11.9651572,3.02039037 C12.1049472,3.0884745 12.181846,3.16797101 12.1958535,3.25887991 L12.1826942,3.37113077 C12.1813893,3.38148828 12.1803022,3.38966542 12.179433,3.3956622 C12.1618592,3.46477192 12.174857,3.52640606 12.2184264,3.58056462 C12.1506994,3.56706437 12.0833938,3.5646095 12.0165095,3.57320002 C11.8835213,3.6558693 11.7787362,3.66031998 11.7021541,3.58655205 L11.6856318,3.57049002 C11.601854,3.48825057 11.5863697,3.46012661 11.5835993,3.45348368 C11.6777195,3.47326528 11.7476028,3.47240177 11.7926646,3.44920355 C11.8830011,3.42574615 11.9574845,3.42529818 12.0161147,3.44785964 C11.9607474,3.33845106 11.9533048,3.26088314 11.993787,3.21515589 C12.0268906,3.14978086 11.9821667,3.05330624 11.9687509,3.02714318 Z M4.55926359,2.72642343 C4.54652916,2.75101293 4.50868302,2.82936112 4.50903586,2.9015208 C4.51219821,2.96761614 4.47767046,3.03117426 4.40570043,3.1011782 C4.48327968,3.0830198 4.556549,3.08699804 4.62550838,3.11311293 C4.67618158,3.1399576 4.73650804,3.15786575 4.80648777,3.16683738 L4.66472098,3.26949242 C4.58670817,3.31958202 4.55142341,3.29210867 4.48967989,3.24258423 C4.44851755,3.20956795 4.3691521,3.18731363 4.25158353,3.1758213 C4.30615152,3.13122004 4.32534506,3.0462687 4.30916416,2.92096728 C4.32429308,2.83345254 4.40765956,2.76860459 4.55926359,2.72642343 Z M11.4407364,2.72642343 C11.5923404,2.76860459 11.6757069,2.83345254 11.6908358,2.92096728 C11.6746549,3.0462687 11.6938485,3.13122004 11.7484165,3.1758213 C11.6308479,3.18731363 11.5514824,3.20956795 11.5103201,3.24258423 L11.4930752,3.25629244 C11.4413471,3.29669969 11.4057422,3.31473464 11.335279,3.26949242 L11.1935122,3.16683738 C11.263492,3.15786575 11.3238184,3.1399576 11.3744916,3.11311293 C11.443451,3.08699804 11.5167203,3.0830198 11.5942996,3.1011782 C11.5254587,3.03421791 11.490875,2.97315512 11.4905485,2.91798983 C11.4943667,2.83897222 11.4570753,2.75855589 11.4446684,2.73396349 Z" id="path-3"></path>
        <filter x="-1.2%" y="-1.4%" width="102.3%" height="105.6%" filterUnits="objectBoundingBox" id="filter-4">
            <feOffset dx="0" dy="0.3" in="SourceAlpha" result="shadowOffsetOuter1"></feOffset>
            <feColorMatrix values="0 0 0 0 0   0 0 0 0 0.290980179   0 0 0 0 0.5330899  0 0 0 0.2 0" type="matrix" in="shadowOffsetOuter1"></feColorMatrix>
        </filter>
    </defs>
    <g id="法律助手-法规查询-16" stroke="none" stroke-width="1" fill="none" fill-rule="evenodd">
        <g id="编组-4">
            <g id="编组-2" transform="translate(1.002086, 1.000000)" fill="url(#linearGradient-1)">
                <path d="M3.09009009,0 L10.9099099,0 C12.6165195,0 14,1.38348046 14,3.09009009 L14,10.9099099 C14,12.6165195 12.6165195,14 10.9099099,14 L3.09009009,14 C1.38348046,14 0,12.6165195 0,10.9099099 L0,3.09009009 C0,1.38348046 1.38348046,0 3.09009009,0 Z" id="蒙版"></path>
            </g>
            <g id="形状结合">
                <use fill="black" fill-opacity="1" filter="url(#filter-4)" xlink:href="#path-3"></use>
                <use fill="url(#linearGradient-2)" fill-rule="evenodd" xlink:href="#path-3"></use>
            </g>
        </g>
    </g>
</svg>