<?xml version="1.0" encoding="UTF-8"?>
<svg width="110px" height="110px" viewBox="0 0 110 110" version="1.1" xmlns="http://www.w3.org/2000/svg" xmlns:xlink="http://www.w3.org/1999/xlink">
    <title>法律助手-法规查询-110</title>
    <defs>
        <filter x="-0.2%" y="1.8%" width="100.0%" height="100.0%" filterUnits="objectBoundingBox" id="filter-1">
            <feOffset dx="0" dy="2" in="SourceAlpha" result="shadowOffsetOuter1"></feOffset>
            <feGaussianBlur stdDeviation="2" in="shadowOffsetOuter1" result="shadowBlurOuter1"></feGaussianBlur>
            <feColorMatrix values="0 0 0 0 0   0 0 0 0 0   0 0 0 0 0  0 0 0 0.2 0" type="matrix" in="shadowBlurOuter1" result="shadowMatrixOuter1"></feColorMatrix>
            <feMerge>
                <feMergeNode in="shadowMatrixOuter1"></feMergeNode>
                <feMergeNode in="SourceGraphic"></feMergeNode>
            </feMerge>
        </filter>
        <linearGradient x1="50%" y1="0%" x2="50%" y2="101.812788%" id="linearGradient-2">
            <stop stop-color="#00D9FC" offset="0%"></stop>
            <stop stop-color="#1170E7" offset="100%"></stop>
        </linearGradient>
        <path d="M21.1891892,0 L74.8108108,0 C86.5132769,0 96,9.48672314 96,21.1891892 L96,74.8108108 C96,86.5132769 86.5132769,96 74.8108108,96 L21.1891892,96 C9.48672314,96 0,86.5132769 0,74.8108108 L0,21.1891892 C0,9.48672314 9.48672314,0 21.1891892,0 Z" id="path-3"></path>
        <linearGradient x1="43.5885539%" y1="22.770867%" x2="74.3926199%" y2="99.6240437%" id="linearGradient-5">
            <stop stop-color="#FFFFFF" offset="0%"></stop>
            <stop stop-color="#9CD8F8" offset="100%"></stop>
        </linearGradient>
        <path d="M47.9574088,83.4439864 C48.3247242,84.8501568 49.0447198,85.7486213 50.1173956,86.13938 C48.6846983,86.4868086 47.6117972,87.2533867 46.8986922,88.4391143 C45.7919763,89.5432116 44.2876818,89.4924205 42.3858087,88.2867409 C43.2485634,88.1857874 43.9866432,87.7825515 44.600048,87.0770332 C45.4902416,86.1019731 46.5172347,85.6740008 47.6810273,85.7931165 C46.3333188,85.637383 45.3745799,84.6919285 44.8048105,82.956753 C44.7128309,82.3246147 44.2713683,81.8380958 43.4804225,81.4971965 L43.6350111,81.4742568 C44.3607373,81.3790986 47.4170198,81.1219295 47.9574088,83.4439864 Z M65.8543299,81.4971965 C65.0633841,81.8380958 64.6219215,82.3246147 64.5299419,82.956753 C63.9601725,84.6919285 63.0014336,85.637383 61.6537251,85.7931165 C62.8175177,85.6740008 63.8445108,86.1019731 64.7347044,87.0770332 C65.3481092,87.7825515 66.086189,88.1857874 66.9489437,88.2867409 C65.0470706,89.4924205 63.5427761,89.5432116 62.4360602,88.4391143 C61.7229552,87.2533867 60.6500541,86.4868086 59.2173568,86.13938 C60.2900326,85.7486213 61.0100282,84.8501568 61.3773436,83.4439864 C61.991422,80.8052854 65.8543299,81.4971965 65.8543299,81.4971965 Z M38.3573722,79.0374905 L38.4877545,79.0480458 C38.78884,79.0769209 39.585958,79.1778629 40.6117114,79.498925 C41.6604108,79.9287256 42.2528599,80.871381 42.3890588,82.326891 C42.46659,83.3182929 42.9357831,84.1191993 43.7966381,84.7296101 C42.8385239,84.7060959 41.9621912,85.026649 41.1676402,85.6912696 C40.2797688,86.7035859 39.3486685,87.0762634 38.3743394,86.8093021 C37.1240168,86.2919666 36.3208271,85.8609591 35.9647701,85.5162794 C37.0222293,85.5246981 37.8862806,85.1926616 38.5569241,84.5201701 C39.3460207,83.9370578 40.3008007,83.7627922 41.4212641,83.9973731 C40.2435749,83.2851387 39.5861994,82.2723801 39.4491377,80.9590974 C39.3245374,80.2053366 38.9606155,79.5648009 38.3573722,79.0374905 Z M70.9773802,79.0374905 C70.3741369,79.5648009 70.010215,80.2053366 69.8856147,80.9590974 C69.748553,82.2723801 69.0911775,83.2851387 67.9134883,83.9973731 C69.0339517,83.7627922 69.9887317,83.9370578 70.7778283,84.5201701 C71.4484718,85.1926616 72.3125231,85.5246981 73.3699823,85.5162794 C73.0139254,85.8609591 72.2107356,86.2919666 70.9604131,86.8093021 C69.9860839,87.0762634 69.0549836,86.7035859 68.1671122,85.6912696 C67.3725612,85.026649 66.4962285,84.7060959 65.5381143,84.7296101 C66.3989693,84.1191993 66.8681624,83.3182929 66.9456936,82.326891 C67.0818925,80.871381 67.6743416,79.9287256 68.723041,79.498925 L68.8790093,79.4512475 C70.1117483,79.0834013 70.9773802,79.0374905 70.9773802,79.0374905 Z M33.7046982,75.7477519 C34.1530732,75.8128242 34.8641574,76.0657236 35.8379509,76.5064502 C36.799458,77.0385648 37.2337073,78.0168843 37.1406988,79.4414085 C36.9579793,80.463886 37.2797889,81.40117 38.1061275,82.2532605 L38.0426236,82.2363599 C37.7531373,82.166109 36.5225324,81.9404709 35.359975,82.8263176 L35.297766,82.8748442 C34.4002976,83.5913505 33.6223044,83.8243705 32.9637862,83.5739041 C32.1213193,83.4100166 31.218386,82.7865864 30.2549866,81.7036136 C31.2384492,81.8683014 32.0194604,81.7428028 32.59802,81.3271177 C33.6732506,80.698301 34.7625977,80.6212065 35.8660611,81.0958343 C35.0192864,80.47502 34.5773707,79.491558 34.5403139,78.1454483 C34.5285919,77.1892271 34.2500533,76.3899949 33.7046982,75.7477519 Z M75.6300542,75.7477519 C75.0846991,76.3899949 74.8061605,77.1892271 74.7944385,78.1454483 C74.7573818,79.491558 74.315466,80.47502 73.4686913,81.0958343 C74.5721548,80.6212065 75.6615018,80.698301 76.7367324,81.3271177 C77.315292,81.7428028 78.0963032,81.8683014 79.0797659,81.7036136 C78.1163664,82.7865864 77.2134331,83.4100166 76.3709662,83.5739041 C75.7312628,83.8172143 74.978814,83.6042712 74.1136197,82.935075 L74.0369864,82.8748442 C72.8902213,81.9593083 71.6593122,82.1525211 71.3197674,82.2298634 L71.252052,82.246606 C71.2366477,82.2507739 71.2286249,82.2532605 71.2286249,82.2532605 C72.0549635,81.40117 72.3767731,80.463886 72.1940536,79.4414085 C72.1010451,78.0168843 72.5352944,77.0385648 73.4968015,76.5064502 C74.470595,76.0657236 75.1816792,75.8128242 75.6300542,75.7477519 Z M29.8218114,71.7422561 L29.8832463,71.7684134 C30.0612823,71.8476041 30.634496,72.1241878 31.7095304,72.8315071 C32.7768889,73.5425683 33.0385289,74.8773415 32.4944504,76.8358268 C32.4482152,77.553354 32.642613,78.261942 33.0776437,78.9615909 C32.678232,78.7508065 32.0376416,78.6906436 31.1558726,78.7811023 C29.6167642,79.7046552 28.4549611,79.9018565 27.6704633,79.3727062 C26.6403629,78.6354162 25.9076514,77.8807472 25.4723287,77.1086991 C26.550734,77.4730702 27.5205871,77.4195377 28.3818879,76.9481016 C29.4331205,76.7858228 30.3832836,77.0084417 31.2323774,77.6159583 C30.406406,76.8046533 30.105891,75.6611335 30.3308322,74.1853987 C30.405876,73.1263515 30.2362024,72.3119706 29.8218114,71.7422561 Z M79.512941,71.7422561 C79.09855,72.3119706 78.9288764,73.1263515 79.0039202,74.1853987 C79.2288614,75.6611335 78.9283464,76.8046533 78.102375,77.6159583 C78.9514688,77.0084417 79.9016319,76.7858228 80.9528645,76.9481016 C81.8141653,77.4195377 82.7840184,77.4730702 83.8624237,77.1086991 C83.4271011,77.8807472 82.6943895,78.6354162 81.6642891,79.3727062 C80.8797913,79.9018565 79.7179883,79.7046552 78.1788798,78.7811023 C77.2971108,78.6906436 76.6565204,78.7508065 76.2571087,78.9615909 C76.6921395,78.261942 76.8865372,77.553354 76.840302,76.8358268 C76.2962235,74.8773415 76.5578635,73.5425683 77.625222,72.8315071 L77.8429376,72.6896741 C79.0121608,71.9357759 79.512941,71.7422561 79.512941,71.7422561 Z M82.5000539,67.1252595 C82.2095175,67.9015258 82.1695972,68.6105921 82.3802929,69.2524583 C82.8804454,70.5574502 82.8494888,71.7465486 82.2874231,72.8197534 L82.1687608,73.031 L82.3459935,72.875976 C83.1278397,72.2248949 84.0426932,71.9469438 85.090554,72.0421228 C86.2846707,72.2665922 87.1826532,72.1082914 87.7845015,71.5672204 L87.7575226,71.64692 C87.6738529,71.8780618 87.3762019,72.6002646 86.6013771,73.6599626 C85.6732061,74.7917666 84.4689014,74.9969552 82.988463,74.2755282 C82.2835934,74.1113544 81.4765514,74.3014787 80.567337,74.845901 C80.9199699,74.2783454 80.9681725,73.4157665 80.7119448,72.2581643 C79.8971398,71.053751 79.7886325,70.0290597 80.386423,69.1840904 C80.9139353,68.4186029 81.6184789,67.732326 82.5000539,67.1252595 Z M26.8346985,67.1252595 C27.7162735,67.732326 28.4208171,68.4186029 28.9483295,69.1840904 C29.5461199,70.0290597 29.4376126,71.053751 28.6228076,72.2581643 C28.3665799,73.4157665 28.4147825,74.2783454 28.7674154,74.845901 C27.858201,74.3014787 27.051159,74.1113544 26.3462894,74.2755282 C24.865851,74.9969552 23.6615463,74.7917666 22.7333753,73.6599626 L22.6306504,73.5175646 C21.7655723,72.3018291 21.5502509,71.5672204 21.5502509,71.5672204 C22.1520992,72.1082914 23.0500817,72.2665922 24.2441984,72.0421228 C25.2920592,71.9469438 26.2069127,72.2248949 26.988759,72.875976 L27.1657608,73.031 L27.0473293,72.8197534 C26.4852636,71.7465486 26.454307,70.5574502 26.9544595,69.2524583 C27.1651552,68.6105921 27.1252349,67.9015258 26.8346985,67.1252595 Z M54.6828195,30.5 C55.5088749,30.5 56.2169487,31.080461 56.5149955,31.9057903 C58.2295981,31.5475575 60.5840588,31.0542558 62.5233308,31.0542558 C63.6788056,31.0542558 64.9823733,31.5284439 66.2901152,32.0426106 L67.1609821,32.3865461 C68.313502,32.8382599 69.4442492,33.2457259 70.4535133,33.3081138 L70.4533916,32.9993082 C70.4533916,32.7618985 70.6458502,32.5694399 70.8832599,32.5694399 C71.1206696,32.5694399 71.3131282,32.7618985 71.3131282,32.9993082 L71.3141281,33.3502467 C73.1169572,33.4178189 73.9430602,33.3015051 74.5239591,33.1266463 C75.1889745,32.9264673 75.6377766,32.7607989 75.167473,33.162446 C74.6971695,33.5640931 73.5238205,34.3568723 72.1774462,34.8907717 C71.8952133,35.0026901 71.6093058,35.07959 71.3133147,35.1249511 L71.313,35.603 L71.3735048,35.5875439 L71.4571266,35.8166502 L79.188,57 L81.0591912,57 C81.1069507,57.1749717 80.9576887,57.3529662 80.9066081,57.5334443 L80.8901031,57.6420249 C80.8901031,60.2659337 76.3361018,62.393032 71.034244,62.393032 C65.7323862,62.393032 61.1783849,60.2659337 61.1783849,57.6420249 C61.1783849,57.4242849 60.9519854,57.2099661 61.0092968,57 L62.726,57 L70.3292322,35.8697644 L70.4196386,35.6184753 L70.453,35.63 L70.4534421,35.1723855 C69.5443322,35.1427254 68.5058904,34.8852555 67.191683,34.4794803 C64.9822907,33.7973075 64.2419457,33.3089447 62.5233308,33.3089447 C61.4760812,33.3089447 59.3829444,33.6007786 56.2439204,34.1844464 C56.0394123,34.4825119 55.7730217,34.7203204 55.466731,34.8719676 L55.4669247,61.4683544 C55.5919738,62.6526425 55.9911663,63.9048749 56.6645022,65.2250517 C57.2947628,66.4607727 58.1732005,67.7716835 59.2998155,69.1577839 L64.5563269,69.1582278 C66.6670965,69.1582278 68.6011757,70.9434216 68.8762137,73.1455696 C62.8065857,73.7151899 58.2543647,74 55.2195507,74 C52.1485394,74 47.5420225,73.7151899 41.4,73.1455696 C41.675038,70.9434216 43.6091172,69.1582278 45.7198868,69.1582278 L49.932,69.158 L50.057091,69.0053562 C51.1045284,67.6976054 51.9374434,66.4375039 52.555836,65.2250517 C53.242939,63.8778826 53.646782,62.6256501 53.7673651,61.4683544 L53.767583,34.8002429 C53.5202114,34.6520712 53.303438,34.4457092 53.1310107,34.1969543 C49.8870561,33.6046663 47.7382566,33.3089447 46.6840546,33.3089447 C44.9654397,33.3089447 44.2250947,33.7973075 42.0157024,34.4794803 C40.6817574,34.8913497 39.6319235,35.1504256 38.7130696,35.1735674 L38.713,35.599 L38.7560352,35.5870228 L38.8398472,35.8166502 L46.571,57 L48.2591912,57 C48.3069507,57.1749717 48.1576887,57.3529662 48.1066081,57.5334443 L48.0901031,57.6420249 C48.0901031,60.2659337 43.5361018,62.393032 38.234244,62.393032 C32.9323862,62.393032 28.3783849,60.2659337 28.3783849,57.6420249 C28.3783849,57.4242849 28.1519854,57.2099661 28.2092968,57 L30.109,57 L37.7119528,35.8697644 L37.80274,35.6174168 L37.853,35.636 L37.8533647,35.1185034 C37.5718338,35.0724548 37.2992141,34.9975516 37.0299392,34.8907717 C35.6835649,34.3568723 34.510216,33.5640931 34.0399124,33.162446 C33.5696088,32.7607989 34.0184109,32.9264673 34.6834263,33.1266463 C35.259927,33.3001811 36.0779326,33.4160542 37.8524748,33.35175 L37.8533916,33.0832599 C37.8533916,32.8458502 38.0458502,32.6533916 38.2832599,32.6533916 C38.5206696,32.6533916 38.7131282,32.8458502 38.7131282,33.0832599 L38.7125408,33.3105555 L38.7400901,33.3089447 C41.1453643,33.1676126 44.2447189,31.0542558 46.6840546,31.0542558 C48.639729,31.0542558 51.0968584,31.5559375 52.8483627,31.9154295 C53.1435548,31.08468 53.8537677,30.5 54.6828195,30.5 Z M24.5449408,62.2105338 C25.3951564,62.9817167 26.0072998,63.8045785 26.3813711,64.679119 C26.6582049,65.5096543 26.3970472,66.4403565 25.5978982,67.4712254 C25.0814912,68.2195211 24.9522347,69.099872 25.2101286,70.1122781 C24.215033,69.4625141 23.4485075,69.1519947 22.9105522,69.1807199 C21.6592946,69.4745972 20.7795263,69.3657411 20.2712472,68.8541514 C19.5191722,68.2782413 18.968276,67.2313921 18.6185588,65.7136037 C19.1371482,66.2876561 19.8786711,66.5842498 20.8431276,66.6033849 L20.9436942,66.6043746 C22.4641218,66.6043746 23.1141576,67.3828739 23.8342799,67.9330464 C23.5964468,66.9412006 23.644732,66.0464675 23.9791356,65.248847 C24.6117993,64.2719043 24.800401,63.2591332 24.5449408,62.2105338 Z M84.7898116,62.2105338 C84.5343514,63.2591332 84.7229531,64.2719043 85.3556169,65.248847 C85.6900204,66.0464675 85.7383056,66.9412006 85.5004725,67.9330464 C86.2049399,67.3948341 86.842335,66.6381145 88.2931243,66.605468 L88.3910582,66.6043746 C89.4046767,66.6043746 90.1797218,66.307451 90.7161936,65.7136037 C90.3664764,67.2313921 89.8155802,68.2782413 89.0635052,68.8541514 C88.5552261,69.3657411 87.6754578,69.4745972 86.4242002,69.1807199 C85.8862449,69.1519947 85.1197194,69.4625141 84.1246238,70.1122781 C84.3825178,69.099872 84.2532612,68.2195211 83.7368542,67.4712254 C82.9377052,66.4403565 82.6765476,65.5096543 82.9533813,64.679119 C83.3274526,63.8045785 83.939596,62.9817167 84.7898116,62.2105338 Z M86.1286228,56.9092918 C86.1146178,57.7662484 86.2440556,58.35759 86.516936,58.6833169 C87.5512576,60.0301435 87.9734926,61.2606441 87.7836411,62.3748185 C88.3452922,61.4992587 89.1740637,60.8964462 90.2699557,60.5663809 C92.0453424,60.4127662 92.6099725,59.2466497 92.6099725,59.2466497 C92.4793195,60.8145299 92.1482437,61.8910017 91.6167452,62.4760651 C91.2012252,63.0270247 90.4449458,63.3251728 89.3479071,63.3705091 C88.3752434,63.5307935 87.5697278,64.0009149 86.9313603,64.7808732 C86.9464662,63.603327 86.6063315,62.6863543 85.9109563,62.0299552 C84.6553164,61.0279148 84.3773352,59.8541491 85.0770126,58.5086581 L86.1286228,56.9092918 Z M23.2061296,56.9092918 L24.2577399,58.5086581 C24.9574173,59.8541491 24.679436,61.0279148 23.4237962,62.0299552 C22.7284209,62.6863543 22.3882862,63.603327 22.4033921,64.7808732 C21.7650246,64.0009149 20.959509,63.5307935 19.9868453,63.3705091 C18.8898066,63.3251728 18.1335272,63.0270247 17.7180072,62.4760651 C17.1865087,61.8910017 16.8554329,60.8145299 16.7247799,59.2466497 L16.7429774,59.2805379 C16.8521414,59.4733548 17.4699578,60.428388 19.0647967,60.5663809 C20.1606887,60.8964462 20.9894603,61.4992587 21.5511113,62.3748185 C21.3612598,61.2606441 21.7834949,60.0301435 22.8178164,58.6833169 C23.0906968,58.35759 23.2201346,57.7662484 23.2061296,56.9092918 Z M86.681743,51.3107909 C86.773737,52.2184223 87.1307931,52.9042088 87.7529112,53.3681505 C88.4448544,53.9927976 88.8641686,54.5718659 89.0108537,55.1053555 C89.1656046,55.6681802 89.1938118,56.0908617 89.1969279,56.2921223 L89.1970986,56.3588206 C89.1966094,56.4006043 89.1950924,56.4225155 89.1950924,56.4225155 C89.8517558,55.287369 90.5732814,54.5556902 91.3596692,54.227479 C92.9444675,53.8890776 93.5039951,52.4513043 93.5039951,52.4513043 C93.670725,54.5143005 93.4030657,55.7876081 92.7010171,56.2712272 C92.2845172,56.6243055 91.5760447,56.9635152 90.5755996,57.2888563 C89.6336089,57.6012181 89.0656197,58.1405454 88.8716321,58.906838 C88.5730055,57.8055979 88.0566458,56.9774904 87.3225531,56.4225155 C85.9035713,55.5735001 85.4478046,54.4228186 85.9552529,52.970471 C86.1825878,52.2553027 86.4247511,51.702076 86.681743,51.3107909 Z M22.6530094,51.3107909 C22.9100013,51.702076 23.1521647,52.2553027 23.3794995,52.970471 C23.8869479,54.4228186 23.4311811,55.5735001 22.0121993,56.4225155 C21.2781066,56.9774904 20.7617469,57.8055979 20.4631203,58.906838 C20.2691327,58.1405454 19.7011435,57.6012181 18.7591528,57.2888563 C17.7587077,56.9635152 17.0502353,56.6243055 16.6337353,56.2712272 C15.9316867,55.7876081 15.6640274,54.5143005 15.8307573,52.4513043 L15.8639144,52.5267073 C16.0046155,52.8270159 16.6088778,53.9357537 17.9750832,54.227479 C18.761471,54.5556902 19.4829966,55.287369 20.13966,56.4225155 L20.1379723,56.378047 L20.1375455,56.3181869 C20.1386378,56.1289978 20.1621137,55.6937631 20.3238987,55.1053555 C20.4705838,54.5718659 20.889898,53.9927976 21.5818412,53.3681505 C22.2039593,52.9042088 22.5610154,52.2184223 22.6530094,51.3107909 Z M38.8509128,38.88251 L38.651,57 L45.461,57 L38.8509128,38.88251 Z M37.8129128,38.67151 L31.218,57 L37.609,57 L37.8129128,38.67151 Z M71.4679128,38.88251 L71.269,57 L78.078,57 L71.4679128,38.88251 Z M70.4299128,38.67451 L63.835,57 L70.227,57 L70.4299128,38.67451 Z M23.1389263,45.4786826 C23.3123664,45.9276863 23.4403286,46.4744643 23.5228131,47.1190165 C23.7974497,48.6865828 23.1642062,49.7941601 21.6230826,50.4417484 C20.8998947,50.7211268 20.268512,51.4811484 19.7289345,52.721813 C19.4544856,51.7843698 18.9582328,51.0882862 18.2401761,50.6335624 C17.5195374,50.236284 16.9614039,49.8656294 16.5657754,49.5215985 C15.8140163,48.8833502 15.7106804,47.5396138 16.2557676,45.4903892 L16.2687231,45.5365683 C16.3401106,45.7719574 16.733496,46.8554619 18.1017677,47.5829413 C18.9274319,48.0297534 19.481538,48.8777604 19.764086,50.1269624 C19.9221459,48.9467112 20.5602777,48.0167733 21.6784814,47.3371486 C22.3592463,47.0983872 22.8460613,46.4788986 23.1389263,45.4786826 Z M86.1958261,45.4786826 C86.4886912,46.4788986 86.9755061,47.0983872 87.656271,47.3371486 C88.7744747,48.0167733 89.4126065,48.9467112 89.5706664,50.1269624 C89.8532144,48.8777604 90.4073205,48.0297534 91.2329847,47.5829413 C92.7754001,46.7628736 93.0789848,45.4903892 93.0789848,45.4903892 C93.6240721,47.5396138 93.5207361,48.8833502 92.768977,49.5215985 C92.3733486,49.8656294 91.815215,50.236284 91.0945763,50.6335624 C90.3765196,51.0882862 89.8802668,51.7843698 89.6058179,52.721813 C89.0662404,51.4811484 88.4348577,50.7211268 87.7116698,50.4417484 C86.1705462,49.7941601 85.5373027,48.6865828 85.8119393,47.1190165 C85.8944238,46.4744643 86.022386,45.9276863 86.1958261,45.4786826 Z M18.245406,38.7745679 C18.2740246,39.5695215 18.7526832,40.3335736 19.6813819,41.066724 C20.2036651,41.6548587 20.5028226,42.4252011 20.5788542,43.3777511 C21.1631994,42.256502 21.9206123,41.5583912 22.8510927,41.2834186 C23.3642192,41.1679325 23.8689271,40.7124532 24.3652163,39.9169807 C24.4470729,40.7273876 24.4407464,41.5344568 24.3462369,42.3381883 C24.2398425,43.3263521 23.5056114,43.8978219 22.1435436,44.0525978 C21.4483351,44.2609965 20.7926075,44.7692774 20.1763608,45.5774404 C20.1211092,44.7473542 19.702876,44.0153265 18.9216611,43.3813573 C17.9848899,42.8386624 17.51164,42.2196689 17.5019116,41.5243769 C17.4540999,40.8824903 17.7019314,39.9658873 18.245406,38.7745679 Z M91.0893464,38.7745679 C91.632821,39.9658873 91.8806525,40.8824903 91.8328409,41.5243769 C91.8231124,42.2196689 91.3498625,42.8386624 90.4130913,43.3813573 C89.6318764,44.0153265 89.2136432,44.7473542 89.1583916,45.5774404 C88.5421449,44.7692774 87.8864173,44.2609965 87.1912088,44.0525978 C85.829141,43.8978219 85.0949099,43.3263521 84.9885155,42.3381883 C84.894006,41.5344568 84.8876795,40.7273876 84.9695361,39.9169807 C85.4658254,40.7124532 85.9705332,41.1679325 86.4836597,41.2834186 C87.4141401,41.5583912 88.171553,42.256502 88.7558982,43.3777511 C88.8319299,42.4252011 89.1310873,41.6548587 89.6533706,41.066724 C90.5820692,40.3335736 91.0607278,39.5695215 91.0893464,38.7745679 Z M20.9591584,33.5930187 L20.9579564,33.6506169 L20.9578669,33.6929782 C20.9592971,34.0336999 21.0134151,35.1492869 21.6452929,35.5258803 C22.1791465,36.1119766 22.4012242,36.8819011 22.311526,37.835654 C23.1029681,36.9481992 23.7810639,36.5142922 24.3458135,36.5339331 C24.9236145,36.5416228 25.5162665,36.1907623 26.1237695,35.4813515 C26.084732,36.4700236 25.9109194,37.2530116 25.6023318,37.8303155 C25.141935,38.6448251 24.426013,39.0085197 23.4545657,38.9213995 C22.5922673,39.0894923 21.9743583,39.398946 21.6008387,39.8497604 C21.5826471,39.047903 21.4312317,38.4711384 21.1465924,38.1194667 L21.099669,38.0638638 C20.6369716,37.5350964 19.508555,36.7270929 19.9956428,35.2512144 C20.2310078,34.6057127 20.5521796,34.0529808 20.9591584,33.5930187 Z M88.375594,33.5930187 C88.7825728,34.0529808 89.1037446,34.6057127 89.3391096,35.2512144 C89.8435934,36.7798028 88.615119,37.5919591 88.1881601,38.1194667 C87.9035208,38.4711384 87.7521053,39.047903 87.7339137,39.8497604 C87.3603941,39.398946 86.7424851,39.0894923 85.8801867,38.9213995 C84.9087394,39.0085197 84.1928174,38.6448251 83.7324206,37.8303155 C83.423833,37.2530116 83.2500204,36.4700236 83.2109829,35.4813515 C83.8184859,36.1907623 84.4111379,36.5416228 84.9889389,36.5339331 C85.5536885,36.5142922 86.2317843,36.9481992 87.0232264,37.835654 C86.9335282,36.8819011 87.1556059,36.1119766 87.6894595,35.5258803 C88.3213373,35.1492869 88.3754553,34.0336999 88.3768855,33.6929782 L88.375594,33.5930187 Z M24.0618193,29.6503727 C23.9967622,30.4404041 24.1359958,31.0498437 24.4795201,31.4786917 C24.8549,32.0844922 24.8997359,32.7763901 24.6140277,33.5543853 C25.3478671,32.9190071 26.1198723,32.6346415 26.9300432,32.7012884 C27.6069928,32.5579841 28.0368757,32.3226478 28.2196922,31.9952794 C27.9829994,33.8365167 27.2484055,34.6993534 26.0159105,34.5837895 C24.8356888,34.5691422 24.0679008,34.7493751 23.7125463,35.1244881 C23.8053583,34.2252721 23.6552744,33.5296629 23.2622946,33.0376605 C22.7524157,32.4451191 22.6649585,31.7521378 22.9999228,30.9587167 L24.0618193,29.6503727 Z M85.2729331,29.6503727 L86.3348296,30.9587167 C86.6697939,31.7521378 86.5823367,32.4451191 86.0724578,33.0376605 C85.679478,33.5296629 85.5293941,34.2252721 85.6222061,35.1244881 C85.2668516,34.7493751 84.4990636,34.5691422 83.3188419,34.5837895 C82.0863469,34.6993534 81.351753,33.8365167 81.1150602,31.9952794 C81.2978767,32.3226478 81.7277596,32.5579841 82.4047092,32.7012884 C83.2148801,32.6346415 83.9868853,32.9190071 84.7207247,33.5543853 C84.4350165,32.7763901 84.4798524,32.0844922 84.8552324,31.4786917 C85.1987566,31.0498437 85.3379902,30.4404041 85.2729331,29.6503727 Z M81.8805459,25.9903124 C82.5996121,26.5904176 83.046421,27.0654556 83.2209725,27.4154264 C83.3462256,27.8508831 83.2725474,28.3616816 82.999938,28.947822 C82.763715,29.5392832 82.752289,30.0775558 82.9656598,30.56264 C82.3203479,30.2392228 81.7285539,30.1495095 81.1902779,30.2935003 C80.4476849,30.617334 79.8326969,30.4820765 79.3453139,29.8877276 L79.3038507,29.8356591 C79.0960514,29.586297 78.9247142,29.2147243 78.7898393,28.7209412 C79.301261,29.0494211 79.7814929,29.1208529 80.230535,28.9352367 C81.0577132,28.9213532 81.6258615,29.0847261 81.93498,29.4253552 C81.6240454,28.6688038 81.5793443,28.0693378 81.8008767,27.6269572 L81.826587,27.5784502 C82.1664411,26.9716592 81.935007,26.1614475 81.8882808,26.0138785 L81.8805459,25.9903124 Z M27.4542065,25.9903124 L27.4373947,26.0434802 C27.3781375,26.2425875 27.1974175,26.9617077 27.4818467,27.5288223 L27.5081654,27.5784502 C27.7583541,28.0251484 27.7222231,28.6407834 27.3997724,29.4253552 C27.7088909,29.0847261 28.2770392,28.9213532 29.1042174,28.9352367 C29.5532595,29.1208529 30.0334914,29.0494211 30.5449131,28.7209412 C30.4190298,29.1818055 30.2613839,29.5362108 30.0719754,29.7841572 L30.0309017,29.8356591 C29.5370935,30.4739727 28.9082844,30.6265864 28.1444746,30.2935003 C27.6061985,30.1495095 27.0144045,30.2392228 26.3690926,30.56264 C26.5824635,30.0775558 26.5710374,29.5392832 26.3348144,28.947822 C26.062205,28.3616816 25.9885268,27.8508831 26.1137799,27.4154264 C26.2883314,27.0654556 26.7351403,26.5904176 27.4542065,25.9903124 Z M78.3879317,23.2751841 C79.2241905,23.7036857 79.684218,24.2040134 79.7680144,24.7761673 L79.6892921,25.4826412 C79.6814859,25.5478283 79.6749828,25.5992929 79.6697828,25.6370348 C79.5646523,26.0719911 79.6424084,26.4598983 79.9030513,26.8007563 C79.4978916,26.7157897 79.0952527,26.7003395 78.6951345,26.7544057 C77.8995659,27.2747019 77.272715,27.3027132 76.8145819,26.8384395 L76.7157419,26.7373498 C76.2145621,26.2197589 76.1219313,26.0427549 76.1053579,26.0009462 L76.1019138,25.9905757 C76.6684084,26.1254458 77.0864672,26.1200111 77.3560383,25.9740083 C77.8964538,25.8263744 78.3420317,25.823555 78.6927721,25.9655502 C78.3615512,25.2769647 78.3170281,24.788775 78.5592027,24.5009811 C78.7572366,24.0895299 78.4896872,23.4823469 78.4094302,23.3176843 L78.3879317,23.2751841 Z M30.9468207,23.2751841 L30.9253222,23.3176843 C30.8450652,23.4823469 30.5775158,24.0895299 30.7755497,24.5009811 C31.0177243,24.788775 30.9732012,25.2769647 30.6419803,25.9655502 C30.9927207,25.823555 31.4382987,25.8263744 31.9787141,25.9740083 C32.2482852,26.1200111 32.666344,26.1254458 33.2328906,25.9903124 L33.2293945,26.0009462 L33.2224539,26.0164389 C33.1897523,26.0832467 33.0564193,26.2950031 32.5201705,26.8384395 C32.0620374,27.3027132 31.4351865,27.2747019 30.6396179,26.7544057 C30.2394997,26.7003395 29.8368608,26.7157897 29.4317011,26.8007563 C29.692344,26.4598983 29.7701001,26.0719911 29.6649696,25.6370348 L29.6406202,25.4418822 C29.6222998,25.2863946 29.5976724,25.0644896 29.566738,24.7761673 C29.6505344,24.2040134 30.110562,23.7036857 30.9468207,23.2751841 Z M75.2507165,21.4250426 C76.1576495,21.6905184 76.6563685,22.0986524 76.7468734,22.6494444 C76.6500753,23.4380548 76.7648958,23.9727135 77.0913351,24.2534208 C76.3880107,24.3257501 75.9132268,24.4658122 75.6669835,24.6736071 L75.5638204,24.7598825 C75.25437,25.0141939 75.0413724,25.1277005 74.6198442,24.8429593 L73.77176,24.1968786 C74.1903962,24.1404138 74.5512841,24.0277052 74.8544237,23.8587527 C75.2669559,23.6943933 75.7052711,23.6693554 76.1693695,23.783639 C75.7575461,23.3622106 75.5506579,22.9778993 75.5487048,22.6307052 L75.5497087,22.5835906 C75.5715461,22.1333916 75.3484599,21.6272748 75.2742388,21.4724975 L75.2507165,21.4250426 Z M34.0840359,21.4250426 L34.0689874,21.4550097 C34.0078554,21.5798017 33.7814504,22.0729022 33.7835612,22.527054 L33.7850437,22.5835906 C33.8024791,22.9430386 33.5959255,23.3430548 33.1653829,23.783639 C33.6294813,23.6693554 34.0677965,23.6943933 34.4803287,23.8587527 C34.7834684,24.0277052 35.1443563,24.1404138 35.5629924,24.1968786 L34.7149083,24.8429593 C34.2482162,25.1582085 34.037134,24.9852993 33.6677689,24.6736071 C33.4215256,24.4658122 32.9467417,24.3257501 32.2434173,24.2534208 C32.5698566,23.9727135 32.6846771,23.4380548 32.587879,22.6494444 C32.6783839,22.0986524 33.1771029,21.6905184 34.0840359,21.4250426 Z M36.7032614,20 C36.5611896,20.2227037 36.4959896,20.423488 36.5076614,20.6023527 C36.5086935,21.1798551 36.3000939,21.5545318 35.8818627,21.7263829 C36.513846,21.7152829 36.9357945,21.8529571 37.1477083,22.1394053 C37.3058456,22.2887305 37.5130197,22.356271 37.7692308,22.3420267 C37.1294313,22.7630183 36.5201685,22.8967498 36.0824129,22.4885545 C35.7941375,22.2301113 35.4497861,22.1222755 35.0493587,22.1650469 L35.0809427,22.1285771 C35.1839151,22.0049736 35.5037695,21.5820343 35.511705,21.0889083 C35.4467706,20.5353724 35.8439561,20.172403 36.7032614,20 Z M72.631491,20 C73.4907963,20.172403 73.8879818,20.5353724 73.8230475,21.0889083 C73.8325089,21.6768662 74.2853937,22.1650469 74.2853937,22.1650469 C73.8849663,22.1222755 73.540615,22.2301113 73.2523395,22.4885545 C72.8145839,22.8967498 72.2053211,22.7630183 71.5655216,22.3420267 C71.8217327,22.356271 72.0289068,22.2887305 72.1870441,22.1394053 C72.3989579,21.8529571 72.8209064,21.7152829 73.4528898,21.7263829 C73.0346585,21.5545318 72.8260589,21.1798551 72.827091,20.6023527 C72.8387628,20.423488 72.7735628,20.2227037 72.631491,20 Z" id="path-6"></path>
        <filter x="-5.1%" y="-2.9%" width="110.3%" height="111.6%" filterUnits="objectBoundingBox" id="filter-7">
            <feOffset dx="0" dy="2" in="SourceAlpha" result="shadowOffsetOuter1"></feOffset>
            <feGaussianBlur stdDeviation="1" in="shadowOffsetOuter1" result="shadowBlurOuter1"></feGaussianBlur>
            <feColorMatrix values="0 0 0 0 0   0 0 0 0 0.290980179   0 0 0 0 0.5330899  0 0 0 0.15 0" type="matrix" in="shadowBlurOuter1"></feColorMatrix>
        </filter>
    </defs>
    <g id="法律助手-法规查询-110" stroke="none" stroke-width="1" fill="none" fill-rule="evenodd">
        <g id="编组-2" transform="translate(0.217239, 0.000000)" filter="url(#filter-1)">
            <g id="1" transform="translate(6.782761, 7.000000)">
                <mask id="mask-4" fill="white">
                    <use xlink:href="#path-3"></use>
                </mask>
                <use id="蒙版" fill="url(#linearGradient-2)" fill-rule="nonzero" xlink:href="#path-3"></use>
            </g>
            <g id="形状结合">
                <use fill="black" fill-opacity="1" filter="url(#filter-7)" xlink:href="#path-6"></use>
                <use fill="url(#linearGradient-5)" fill-rule="evenodd" xlink:href="#path-6"></use>
            </g>
        </g>
    </g>
</svg>