<?xml version="1.0" encoding="UTF-8"?>
<svg width="36px" height="36px" viewBox="0 0 36 36" version="1.1" xmlns="http://www.w3.org/2000/svg" xmlns:xlink="http://www.w3.org/1999/xlink">
    <title>法律助手-类案查询-36</title>
    <defs>
        <filter x="-6.7%" y="-3.3%" width="113.3%" height="113.3%" filterUnits="objectBoundingBox" id="filter-1">
            <feOffset dx="0" dy="1" in="SourceAlpha" result="shadowOffsetOuter1"></feOffset>
            <feGaussianBlur stdDeviation="0.5" in="shadowOffsetOuter1" result="shadowBlurOuter1"></feGaussianBlur>
            <feColorMatrix values="0 0 0 0 0   0 0 0 0 0   0 0 0 0 0  0 0 0 0.15 0" type="matrix" in="shadowBlurOuter1" result="shadowMatrixOuter1"></feColorMatrix>
            <feMerge>
                <feMergeNode in="shadowMatrixOuter1"></feMergeNode>
                <feMergeNode in="SourceGraphic"></feMergeNode>
            </feMerge>
        </filter>
        <linearGradient x1="50%" y1="15.9013308%" x2="50%" y2="112.276107%" id="linearGradient-2">
            <stop stop-color="#0ECB04" offset="0%"></stop>
            <stop stop-color="#008972" offset="100%"></stop>
        </linearGradient>
        <path d="M6.62162162,0 L23.3783784,0 C27.035399,0 30,2.96460098 30,6.62162162 L30,23.3783784 C30,27.035399 27.035399,30 23.3783784,30 L6.62162162,30 C2.96460098,30 0,27.035399 0,23.3783784 L0,6.62162162 C0,2.96460098 2.96460098,0 6.62162162,0 Z" id="path-3"></path>
        <linearGradient x1="28.5927262%" y1="13.7892697%" x2="67.7159262%" y2="86.4905609%" id="linearGradient-5">
            <stop stop-color="#FFFFFF" offset="0%"></stop>
            <stop stop-color="#D7FFC6" offset="100%"></stop>
        </linearGradient>
        <path d="M21.642776,27.3674102 C21.6922481,27.3726412 21.7285921,27.3779101 21.7488117,27.381509 L21.759735,27.4766971 C21.5100859,27.5836205 21.3747183,27.7318667 21.3447524,27.9313201 C21.1876736,28.4066827 20.941347,28.712072 20.6015082,28.7916084 C20.5864925,28.7970958 20.571328,28.8028288 20.5559775,28.8081867 L20.6258351,28.8128145 C20.8644555,28.846257 21.0845211,28.9536045 21.2852519,29.1343247 L21.4033639,29.2515572 C21.5676917,29.4393744 21.7587526,29.5594774 21.989769,29.6661286 C22.0283569,29.675399 22.0667953,29.6818137 22.1060038,29.6863728 L22.0751296,29.7042287 L22.1326545,29.7286781 C21.4790701,30.1404106 20.9510266,30.1581275 20.5544695,29.7628831 C20.3635949,29.4474969 20.0937366,29.2244206 19.7403459,29.0392195 C19.6701992,29.013126 19.5971955,28.9912944 19.5211607,28.9729718 L19.5664828,28.9540184 C19.5459488,28.9445821 19.5251687,28.9352313 19.5041417,28.9259574 C19.8461146,28.8021647 20.0760567,28.5170283 20.19461,28.0661011 C20.2827517,27.6897344 20.5627373,27.4759642 20.9679013,27.3924674 C21.1895981,27.3467798 21.42442,27.3443216 21.642776,27.3674102 Z M15.80539,28.0661011 C15.9039174,28.4408581 16.0793806,28.7011042 16.3291026,28.9042819 C16.3763507,28.9313404 16.4263312,28.9539641 16.4788393,28.9729718 L16.4366513,28.985238 C16.4543033,28.9975566 16.4722707,29.0096654 16.4905528,29.0215804 C16.0243026,29.1339356 15.6768936,29.3805969 15.4379562,29.7725029 C15.1211041,30.0866195 14.7119828,30.133112 14.2291824,29.8673126 C14.1221469,29.8200642 14.010295,29.7596365 13.8939962,29.6863728 L13.942626,29.6790201 C13.9245785,29.6653176 13.9064433,29.6512141 13.8882212,29.6367074 C14.1640843,29.6046306 14.399581,29.4767798 14.5974464,29.2506535 C14.8437942,28.9825152 15.1225942,28.8338377 15.4262854,28.8571018 C15.4343594,28.8561797 15.4363453,28.8560005 15.4383325,28.8558265 L15.4147324,28.8508455 C15.1076526,28.7388971 14.8729107,28.4819228 14.7106853,28.0802751 L14.6532504,27.9228764 C14.6302439,27.7657555 14.5345671,27.6375701 14.369286,27.4844045 C14.3605264,27.479123 14.3515353,27.4743034 14.3423724,27.4695549 L14.3189267,27.4725793 L14.3128198,27.4547739 C14.2957486,27.4465325 14.2781254,27.4385196 14.2599502,27.4307353 L14.2964082,27.424965 L14.2894082,27.413965 L14.2804082,27.405965 L14.2704082,27.396965 L14.2594082,27.386965 L14.3051724,27.3735333 C15.0162729,27.2808786 15.6560546,27.4284364 15.80539,28.0661011 Z M23.450169,26.5636356 L23.4855895,26.6513139 C23.2925712,26.8189762 23.1768423,27.02139 23.1375253,27.2571894 C23.0988291,27.6256353 22.9397204,27.9264497 22.6424401,28.1078676 L22.5886222,28.1521567 L22.5324082,28.192965 L22.5612191,28.1887645 C22.8888108,28.1491186 23.1750753,28.2181396 23.4213784,28.3996163 C23.602607,28.5802026 23.8277682,28.6834306 24.1199059,28.7613792 C24.162995,28.7648179 24.2073152,28.766323 24.2527011,28.7659639 L24.2259584,28.7879555 C24.2461266,28.7927134 24.2665932,28.7973893 24.2873646,28.8019979 C24.1623759,28.9222326 23.8897773,29.0675955 23.4602636,29.2437785 C23.1142883,29.3379785 22.784283,29.2067221 22.4813036,28.8625506 C22.2689072,28.6860027 22.0395471,28.5855444 21.7750702,28.5088968 C21.7287172,28.5048112 21.681825,28.5034566 21.6343318,28.5046149 L21.6667336,28.4792202 C21.6465392,28.4739767 21.6261411,28.4688244 21.6055321,28.4637422 C21.8813873,28.269369 22.0303405,28.0167051 22.0551374,27.7016907 C22.1023024,27.200821 22.3109125,26.8709833 22.6845917,26.7190236 L22.7370536,26.7030886 C23.050241,26.6102214 23.301786,26.571456 23.450169,26.5636356 Z M12.5514082,26.563965 L12.5955327,26.5672985 C12.7886607,26.5857038 13.0361495,26.6321632 13.3157257,26.7191212 C13.6890875,26.8709833 13.8976976,27.200821 13.9449287,27.7024555 C13.9654734,27.9635128 14.0717459,28.1820688 14.2480728,28.4121015 C14.2853346,28.4447713 14.3241381,28.475352 14.3656682,28.5046149 L14.3224222,28.5049984 C14.3360979,28.5214339 14.3501087,28.5379616 14.3644491,28.5546 C14.0564804,28.5470893 13.7752165,28.6493263 13.5242222,28.8571861 C13.215717,29.2067221 12.8857117,29.3379785 12.5338583,29.2417785 C12.1888979,29.0999438 11.9440842,28.9772186 11.8164961,28.8251587 C11.7900421,28.8040274 11.7666876,28.7846152 11.7472989,28.7659639 L11.773155,28.7649852 C11.7634785,28.7490138 11.754986,28.7326899 11.7476944,28.7159655 C12.0882512,28.7186597 12.3641892,28.6132888 12.5843201,28.394733 C12.8081503,28.2303701 13.0701137,28.1595388 13.3490411,28.2309057 L13.4001511,28.2348174 L13.4484082,28.239965 L13.4167082,28.2187676 C13.0901642,27.9805442 12.9047286,27.6594137 12.862879,27.2601716 C12.8311019,27.0691463 12.75068,26.9013965 12.6397978,26.7112501 L12.6316012,26.6939397 C12.6230209,26.6849557 12.6142547,26.6760591 12.6053025,26.66725 L12.5867797,26.666912 L12.5881715,26.6507146 C12.5749022,26.6381494 12.5612449,26.6257666 12.5471995,26.6135663 L12.5814082,26.615965 L12.5744082,26.602965 L12.5674082,26.591965 L12.5614082,26.581965 L12.5554082,26.570965 Z M10.9988431,25.471154 C11.1545806,25.4936141 11.3958752,25.5788922 11.7289943,25.7288866 C12.0690102,25.9158751 12.2226101,26.2597462 12.1896488,26.7566065 C12.1419347,27.0219318 12.2022126,27.268531 12.3453675,27.5449395 C12.3637262,27.5702893 12.3837361,27.594722 12.4049463,27.6189534 L12.4547555,27.6279636 L12.4431748,27.661031 L12.4632027,27.6819165 L12.4419719,27.6763018 L12.4314082,27.697965 L12.4384082,27.709965 L12.4454082,27.721965 L12.4302505,27.7249085 C12.1772866,27.6639062 11.8649902,27.692798 11.5757347,27.9118166 L11.55538,27.9275907 C11.2429311,28.1754715 10.9658127,28.257951 10.7345127,28.1697549 C10.4943876,28.1233361 10.2433705,27.9728471 10.0051783,27.6744234 C9.95036607,27.6204206 9.89468683,27.5621982 9.83839001,27.4993116 L9.88357666,27.5071542 C9.87120141,27.4885399 9.85887381,27.4694873 9.84659741,27.4499898 C10.1632997,27.5026907 10.4111868,27.4631086 10.5965957,27.3310013 C10.8966998,27.1565968 11.2018482,27.1051818 11.4838744,27.2221462 C11.5144743,27.2293674 11.5453091,27.2374655 11.5761772,27.2468551 L11.4890587,27.1523107 C11.3199111,26.9434551 11.2306802,26.6647126 11.221075,26.3178268 C11.2172958,26.011475 11.1281465,25.7572792 10.9536938,25.5531238 L10.9988431,25.471154 Z M25.0011569,25.471154 L25.0463062,25.5531238 C24.8718535,25.7572792 24.7827042,26.011475 24.7789097,26.3185946 C24.7685293,26.6932993 24.6649205,26.9887337 24.4414878,27.1561141 L24.4194168,27.180563 L24.3954082,27.202965 L24.4097625,27.1988785 C24.7447736,27.0971654 25.0775323,27.1416536 25.4073347,27.3335386 C25.558122,27.4411961 25.7547554,27.4867289 26.0246924,27.5162421 L26.16161,27.4993116 L26.13405,27.5270689 C26.155239,27.5289806 26.1768398,27.5308387 26.1988633,27.5326612 C25.8701525,27.899849 25.5596471,28.1128906 25.2736749,28.1674345 C25.0409187,28.2554068 24.77249,28.1799187 24.4705392,27.947836 L24.44462,27.9275907 C24.4135626,27.9029514 24.3817975,27.8804273 24.3493702,27.8599494 C24.1047183,27.7054515 23.8457503,27.6750207 23.6158694,27.7154065 C23.5843775,27.7209391 23.5623878,27.7263527 23.5010135,27.6469949 C23.766414,27.3750427 23.8684556,27.0797095 23.8096693,26.7510349 C23.7773899,26.2597462 23.9309898,25.9158751 24.2745911,25.727098 C24.6041248,25.5788922 24.8454194,25.4936141 25.0011569,25.471154 Z M9.7130526,24.1438793 L9.73432272,24.1528855 C9.86046342,24.2086406 10.0633652,24.3212122 10.3522769,24.5101086 C10.7304817,24.7604813 10.8223621,25.2262703 10.6369883,25.8853601 C10.6250467,26.0695181 10.6634927,26.2521046 10.7180713,26.4712819 C10.7356965,26.5105668 10.7577583,26.5495003 10.7820677,26.5883508 L10.7431935,26.5708898 L10.758846,26.6326312 C10.6358821,26.5681462 10.4305591,26.5489838 10.1651839,26.5713332 C9.63582867,26.8869812 9.22873247,26.9556465 8.94534592,26.7656775 C8.6599257,26.5626725 8.44100658,26.3550343 8.32109489,26.1032538 C8.29156624,26.0594571 8.26407846,26.0162007 8.23944011,25.9727789 L8.27282711,25.9835516 L8.25535486,25.9253793 C8.60322546,26.0421793 8.9130873,26.0251835 9.20458975,25.870003 C9.49707438,25.8251357 9.76799344,25.8659615 9.98280074,26.0318551 L10.0025084,26.041605 L10.0214082,26.050965 L9.9650225,25.9724163 C9.80400955,25.7141054 9.75395166,25.3878459 9.81387355,24.9980372 C9.8381898,24.6570325 9.78386864,24.3979456 9.65322325,24.2194596 L9.7130526,24.1438793 Z M26.2885059,24.1432506 L26.3467768,24.2194596 C26.2161314,24.3979456 26.1618102,24.6570325 26.1856751,24.9940127 C26.2482236,25.4017871 26.192037,25.7385011 25.9826628,25.9611115 L25.9646593,25.9882077 L25.9474082,26.010965 L26.067519,25.9536226 C26.293481,25.8584335 26.5399085,25.8316652 26.8117194,25.8755017 C27.0438671,26.0017703 27.3006859,26.0336159 27.6198408,26.0136399 C27.6662581,26.0022462 27.7130945,25.9887158 27.7605599,25.9727789 L27.7408062,26.0039675 C27.7616249,26.0019728 27.7827022,25.9997983 27.804047,25.9974543 C27.6545221,26.2609719 27.404561,26.5168065 27.0535127,26.7664657 C26.7712675,26.9556465 26.3641713,26.8869812 25.8553527,26.5781306 C25.6201591,26.5541542 25.4394989,26.5628679 25.2778368,26.5631974 L25.2179323,26.5883508 L25.2311775,26.5630179 C25.2124354,26.5628178 25.1939113,26.5624443 25.175546,26.561829 C25.3156167,26.3379721 25.3777641,26.1128653 25.3647533,25.8955866 C25.1776379,25.2262703 25.2695183,24.7604813 25.6481516,24.5098281 L25.7211359,24.4625811 C26.0170056,24.273007 26.2014029,24.1766989 26.2885059,24.1432506 Z M8.72314735,22.6147946 C9.02273319,22.8197982 9.26266733,23.0520433 9.44227697,23.3110491 C9.65582311,23.6109977 9.61718733,23.9735635 9.34151989,24.3721942 C9.27301969,24.6797248 9.2714732,24.9199805 9.2963821,25.1320357 C9.30856201,25.1633985 9.32370934,25.1932745 9.34106157,25.2210271 L9.3058173,25.2031435 C9.30883993,25.22365 9.31207886,25.2439213 9.31549425,25.2639958 C9.02171179,25.0891889 8.76446575,25.0289672 8.55341647,25.076538 C8.03854182,25.3258634 7.61082412,25.253447 7.28328432,24.8564057 L7.24875082,24.8088341 C7.07003331,24.5592516 6.96340871,24.3619986 6.95295529,24.2009492 C6.9352314,24.1556099 6.92820145,24.1317765 6.92820145,24.1317765 L6.95286557,24.1514841 C6.95413408,24.1319382 6.95699997,24.112951 6.96151283,24.0944891 C7.14956852,24.2624921 7.43434226,24.312378 7.82435378,24.2397521 C8.13995239,24.2112659 8.4219723,24.2801874 8.6282917,24.4787613 L8.66542806,24.5044591 L8.70140818,24.530965 L8.69287849,24.5132569 C8.52625188,24.1588096 8.52489603,23.7684584 8.68747294,23.3470781 C8.75410988,23.1453498 8.7414221,22.9214047 8.64811974,22.6736819 L8.72314735,22.6147946 Z M27.2768527,22.6147946 L27.3518803,22.6736819 C27.2585779,22.9214047 27.2458901,23.1453498 27.3117009,23.3447688 C27.4605523,23.7307104 27.4726733,24.0893585 27.3066577,24.3850111 L27.2840299,24.442255 L27.2584082,24.497965 L27.2694015,24.4902824 C27.5304635,24.2926004 27.8338433,24.2089287 28.1803326,24.2403999 C28.4555648,24.2918128 28.6794953,24.2810502 28.8829091,24.2289419 L28.9831835,24.1987132 C28.9871097,24.1962247 28.9910068,24.1936986 28.9948745,24.191135 L29.0154496,24.142132 L29.0467857,24.1530547 C29.0552867,24.1461718 29.0636243,24.1390791 29.0717986,24.1317765 L29.0624082,24.156965 L29.081,24.162 L29.1191279,24.1478991 L29.109759,24.1753681 C29.0493918,24.341088 28.925627,24.5724824 28.7148171,24.8588572 C28.3891759,25.253447 27.9614582,25.3258634 27.4571007,25.0802489 C27.2768199,25.0385228 27.0729175,25.0706175 26.8083213,25.1407673 C26.758855,25.1642547 26.7093668,25.1910212 26.6589384,25.2210271 L26.6834152,25.175243 C26.6615246,25.18148 26.6392396,25.1879111 26.6165432,25.1945196 C26.7261514,25.0192156 26.7415615,24.7451869 26.665953,24.3894614 C26.3828127,23.9735635 26.3441769,23.6109977 26.5573677,23.3115549 C26.7373327,23.0520433 26.9772668,22.8197982 27.2768527,22.6147946 Z M20.7875992,22.9502242 C21.0515985,22.9502242 21.2656121,23.1642378 21.2656121,23.4282371 C21.2656121,23.6922363 21.0515985,23.90625 20.7875992,23.90625 L10.9780129,23.90625 C10.7140137,23.90625 10.5,23.6922363 10.5,23.4282371 C10.5,23.1642378 10.7140137,22.9502242 10.9780129,22.9502242 L20.7875992,22.9502242 Z M7.96286934,20.9861375 C8.2522336,21.2469548 8.46121733,21.5261123 8.5907577,21.8274955 C8.68938433,22.1215287 8.59741493,22.4472263 8.32248873,22.7995166 C8.184345,22.9984352 8.13346604,23.2266856 8.12509157,23.5190921 C8.13158174,23.5618508 8.14059125,23.6047621 8.15178073,23.6484124 L8.1238478,23.6300884 C8.12393852,23.649893 8.12418146,23.6699792 8.12456481,23.6903563 C7.80002328,23.4797729 7.55221972,23.3800183 7.3943448,23.3876195 C6.96093597,23.4887728 6.64995757,23.4505364 6.47032365,23.2702246 C6.25934319,23.1096789 6.09545046,22.8466453 6.02197057,22.4584749 C5.99534749,22.3745732 5.97047445,22.2836964 5.94807094,22.187075 L5.99094619,22.2322902 C5.98863675,22.2064649 5.98667429,22.1801835 5.98506788,22.1534413 C6.1485548,22.3332762 6.38332288,22.4265887 6.6922832,22.4326825 L6.7254159,22.4330089 C7.07099764,22.4330089 7.28386096,22.5296659 7.55947564,22.7534534 C7.57815791,22.7687733 7.59061275,22.7789866 7.60091796,22.7874273 L7.616,22.8 L7.61048281,22.7689923 C7.57788411,22.5495188 7.58949739,22.3435102 7.64678745,22.149067 L7.69834229,22.0053734 C7.90246528,21.6921521 7.96287093,21.369818 7.88083158,21.0351828 L7.96286934,20.9861375 Z M28.0371307,20.9861375 L28.1191684,21.0351828 C28.0371291,21.369818 28.0975347,21.6921521 28.3058357,22.0132364 C28.4025851,22.2425537 28.4303564,22.4946396 28.34403,22.7388622 C28.3384757,22.7748436 28.3322283,22.8120672 28.3246935,22.849725 C28.3844776,22.7994132 28.3844776,22.7994132 28.4405244,22.7534534 C28.7076304,22.5365745 28.9126045,22.4407218 29.2412879,22.4333752 L29.2745841,22.4330089 C29.5429627,22.4330089 29.7569617,22.3694997 29.96661,22.2681376 C29.9972587,22.2431536 30.0254623,22.2161883 30.0519291,22.187075 L30.0405609,22.2308031 L30.1006369,22.1983688 C29.9813227,22.7129447 29.7918571,23.070718 29.5347569,23.2657867 C29.3500424,23.4505364 29.039064,23.4887728 28.61437,23.3888578 C28.4894277,23.3822282 28.3188026,23.4366827 28.0724682,23.5302312 L27.9783804,23.5673849 C27.9363773,23.592353 27.8929902,23.6193621 27.8482193,23.6484124 L27.8544082,23.614965 L27.7997853,23.6359966 C27.8825304,23.3132074 27.8415264,23.0356885 27.6791564,22.8017505 C27.4025851,22.4472263 27.3106157,22.1215287 27.4107205,21.8236278 C27.5387827,21.5261123 27.7477664,21.2469548 28.0371307,20.9861375 Z M18.5708874,20.8910916 C19.6264733,20.8910916 20.4934279,21.6987181 20.5875459,22.7297659 L11.1780662,22.7297659 C11.2721843,21.6987181 12.1391389,20.8910916 13.1947248,20.8910916 L18.5708874,20.8910916 Z M7.52349723,19.2344962 L7.87767656,19.7702492 C8.1229735,20.2389959 8.02383855,20.65496 7.58877681,20.9997525 C7.40333701,21.1736987 7.2969963,21.4059163 7.21817266,21.7175414 C7.21432446,21.7698517 7.21272195,21.822686 7.21342571,21.8772012 L7.18777238,21.8474716 C7.18338687,21.8676738 7.17907699,21.888178 7.17483125,21.9089891 C6.96907856,21.6591794 6.71059797,21.5092706 6.40346824,21.4586048 C6.02318849,21.442988 5.75653071,21.3385239 5.61009309,21.1452293 C5.4600157,20.9810647 5.35715585,20.711791 5.34806578,20.3224882 C5.33955541,20.2683749 5.33214549,20.2110027 5.32570428,20.1512703 L5.27703373,20.073638 L5.316445,20.0562096 L5.31493814,20.0386092 L5.32102197,20.0498676 L5.357,20.037 L5.35740818,20.026965 L5.35892638,20.0148387 L5.36446583,20.0251162 C5.47401913,20.2174052 5.70614184,20.3932401 6.11159457,20.4291526 C6.4172229,20.5206247 6.66353408,20.6740157 6.80096742,20.9078136 L6.83573379,20.9501201 L6.86840818,20.991965 L6.86500102,20.9563626 C6.84802303,20.6062578 6.99823224,20.2274289 7.31374937,19.8192295 C7.39539289,19.722387 7.43630742,19.5366415 7.43180563,19.2629091 L7.52349723,19.2344962 Z M28.4765028,19.2344962 L28.5681944,19.2629091 C28.5636926,19.5366415 28.6046071,19.722387 28.6875854,19.8208827 C28.9771731,20.1955964 29.1273486,20.5464901 29.0857746,20.853628 L29.0862692,20.916343 L29.0834082,20.974965 L29.1185148,20.9274023 C29.3079679,20.692192 29.5662788,20.5257187 29.8984585,20.427237 C30.1324216,20.4071206 30.3170519,20.3326298 30.4588032,20.2212747 C30.5378134,20.159207 30.5905885,20.0976881 30.6684543,20.0634419 C30.6805406,20.0478881 30.6850619,20.0386092 30.6850619,20.0386092 L30.680762,20.058344 C30.6974606,20.0518493 30.7153501,20.0465846 30.734887,20.0427874 C30.6903676,20.5736786 30.5767174,20.9408837 30.3928321,21.1417202 C30.2434693,21.3385239 29.9768115,21.442988 29.6025602,21.4579897 C29.3415951,21.5007238 29.1186005,21.6119495 28.8811806,21.7736342 L28.7865743,21.8772012 L28.7863281,21.8402283 C28.7698492,21.8521167 28.7532715,21.8642277 28.7365785,21.8765558 C28.7414568,21.4986648 28.6328115,21.2076067 28.4143626,21.0024616 C27.9761615,20.65496 27.8770265,20.2389959 28.1249259,19.7658413 L28.4765028,19.2344962 Z M20.4910416,15.9118927 L20.7658867,16.0493287 C20.9047008,16.1200712 21.0433601,16.1945708 21.1717741,16.2760689 C21.2243605,16.309593 21.2373144,16.3742389 21.2106357,16.4700066 C21.2007316,16.5056099 21.211839,16.5320881 21.2439581,16.5494412 C21.3063645,16.5838919 21.3617494,16.6222817 21.410113,16.6646109 L21.6683299,16.896 L21.8335576,17.0412968 C22.0856566,17.2580847 22.3557493,17.4628348 22.6281164,17.5633438 L22.8198431,17.63538 C23.6789433,17.9632868 24.9057467,18.4959457 26.5002532,19.2333566 C26.9311731,19.4320557 27.1195191,19.9425278 26.9209146,20.373574 C26.9100534,20.3971468 26.8981301,20.4202154 26.8851818,20.442709 L26.7019379,20.7601741 C26.4644911,21.1710942 25.938967,21.3116752 25.528147,21.0741705 C25.5073676,21.0621574 25.4871005,21.0492786 25.4673522,21.0356354 L24.9818387,20.6969027 C23.6736808,19.7794344 22.7029466,19.0574323 22.0696359,18.5308964 C21.7149867,18.2358718 21.1353579,18.0774028 20.6824984,17.9251838 C20.6216674,17.904454 20.5607364,17.8756724 20.4997054,17.8388391 C20.4686213,17.819693 20.4401423,17.8233104 20.4142685,17.8496913 C20.3446909,17.9206852 20.2822426,17.9417871 20.2269237,17.9129968 C20.0023084,17.7955172 19.7802951,17.6436648 19.5712486,17.5054095 C19.4827513,17.4359554 19.4834062,17.3474455 19.5648886,17.1987813 L19.894964,16.6303721 L20.2223785,16.0596976 C20.3103529,15.9147824 20.3866586,15.8699602 20.4910416,15.9118927 Z M7.33859078,17.3745711 C7.42738631,17.5089181 7.51009864,17.696689 7.58692955,17.9369381 C7.76470564,18.4425476 7.60252637,18.8494319 7.11267319,19.140345 C6.9203001,19.2848656 6.77401472,19.4880428 6.62155923,19.7504369 C6.59997432,19.8065232 6.58135489,19.8648645 6.56474926,19.9257162 L6.54966473,19.877376 C6.53862036,19.8973052 6.52750393,19.9175329 6.51629678,19.9380595 C6.45598496,19.7013115 6.27912282,19.5344292 5.97969984,19.4357642 C5.63960287,19.3258606 5.39749059,19.2106679 5.2562564,19.0913667 C5.05253282,18.9519096 4.95248866,18.643055 4.99909213,18.1568045 C4.99976731,18.0705179 5.00270813,17.9785804 5.00883682,17.8808839 L4.98140818,17.8263281 L5.0136905,17.8109905 L5.01604629,17.7810444 L5.02540818,17.803965 L5.055,17.79 L5.05840818,17.774965 L5.06176959,17.7608113 L5.0723568,17.784772 C5.18689099,18.0276951 5.40314619,18.250037 5.75209767,18.3249438 C5.9748878,18.4173446 6.18080997,18.6000209 6.32071304,18.8864889 L6.36436112,18.9515251 L6.40740818,19.018965 L6.4098117,18.97676 C6.41729969,18.8826261 6.43598634,18.7724294 6.470015,18.6494456 C6.52202263,18.4614836 6.66756284,18.2617568 6.90899311,18.0454694 C7.1051414,17.9001116 7.21774894,17.6851885 7.24713645,17.397067 L7.33859078,17.3745711 Z M28.6614092,17.3745711 L28.7528636,17.397067 C28.7822511,17.6851885 28.8948586,17.9001116 29.0946252,18.0484223 C29.3324372,18.2617568 29.4779774,18.4614836 29.529985,18.6494456 C29.5518938,18.7286269 29.5674664,18.8026861 29.5777779,18.8708548 L29.585,18.937 L29.5979393,18.9181462 C29.7634407,18.6701421 29.9420297,18.4909937 30.1374078,18.3803712 L30.256679,18.3222181 C30.4510789,18.2809687 30.6108208,18.1859662 30.7394731,18.0530576 C30.824466,17.9652528 30.8824,17.8775316 30.9658619,17.8168677 L30.9761697,17.7978469 L30.9839537,17.7810444 L30.9839477,17.8044277 C30.9995309,17.794309 31.0160451,17.7851124 31.0337892,17.7769913 C31.0908745,18.4788873 30.9981524,18.9172135 30.7477135,19.0883477 C30.6025094,19.2106679 30.3603971,19.3258606 30.0205734,19.435675 C29.7722957,19.5174861 29.6083188,19.6460534 29.4700976,19.8228309 C29.4558788,19.8558582 29.4443375,19.8900471 29.4352507,19.9257162 L29.4224316,19.8870236 C29.4104876,19.9039182 29.3986961,19.9212031 29.3870145,19.9388792 C29.2899524,19.5831936 29.1233179,19.3176338 28.8918059,19.1433463 C28.3974736,18.8494319 28.2352944,18.4425476 28.4126169,17.9382893 C28.4899014,17.696689 28.5726137,17.5089181 28.6614092,17.3745711 Z M13.427488,17.6060159 C14.0233328,18.1967777 14.6840758,18.7021011 15.4097171,19.1219863 C15.9396529,19.4286599 16.4819672,19.66252 17.03666,19.8235663 L17.2034391,19.8696959 C17.2375155,19.8786112 17.2420246,19.885418 17.2169666,19.8901162 L17.2019736,19.8922895 C17.180248,19.8948003 17.1577108,19.9052346 17.1363115,19.9041719 C16.8892256,19.8918106 16.6397321,19.8438312 16.3971846,19.7765649 L16.2765329,19.7414001 C16.2694413,19.7391817 15.2132563,19.361575 14.6952987,18.9487578 C14.22147,18.6047301 13.7950276,18.2012341 13.4159714,17.7382699 C13.40481,17.7244984 13.4003558,17.7088098 13.4026088,17.6912041 L13.4134996,17.6106764 C13.4149774,17.5997612 13.4196402,17.5982077 13.427488,17.6060159 Z M14.4891451,15.7169999 L18.3592712,17.9505258 C18.3628699,17.9602776 18.361158,17.9626995 18.3585925,17.9637347 C18.1841867,18.0370086 18.1409043,18.264367 18.1342447,18.4393574 L18.1289208,18.6888208 C18.1242762,18.912584 18.1106784,19.1385135 18.0146269,19.3408936 C17.9410844,19.4956165 17.8119258,19.6264454 17.6271511,19.7333803 C17.5696413,19.7667506 17.5127323,19.7469334 17.4538337,19.7340705 C17.2979126,19.699464 17.1461871,19.6585973 16.9986571,19.6114703 C15.6471826,19.179726 14.4417413,18.354782 13.3971539,17.3882648 C13.3612508,17.3548146 13.3336569,17.3158382 13.3143724,17.2713357 C13.229079,17.0725111 13.2150851,16.8821303 13.3492732,16.6979686 C13.4560916,16.551222 13.6250326,16.425922 13.7845613,16.3286729 L13.8521459,16.2887313 C14.0181627,16.1935435 14.1700409,16.101772 14.3077805,16.0134169 C14.3954111,15.9574414 14.4818225,15.8799561 14.4694013,15.7713771 L14.4626123,15.737861 C14.4543775,15.7089946 14.4632218,15.7020409 14.4891451,15.7169999 Z M16.2182728,12.6475797 L20.2853305,14.9944547 C20.4325055,15.0794973 20.4828374,15.2676837 20.3977499,15.4147809 C20.3877497,15.4320688 20.3760893,15.4483426 20.3630078,15.4634368 C20.0562463,15.8150379 19.7964663,16.17503 19.5836678,16.5434128 C19.3748125,16.9049696 19.2017657,17.2909648 19.0645273,17.7013985 C19.0103759,17.8624593 18.8357599,17.9489823 18.674666,17.8947052 C18.6551679,17.8881357 18.636378,17.8796288 18.6185779,17.8693126 L14.5560759,15.5250665 C14.4088507,15.4401109 14.3584076,15.2519542 14.4434081,15.1048068 L15.7977907,12.760188 C15.8827913,12.6130406 16.0710475,12.5626241 16.2182728,12.6475797 Z M28.4940658,15.4464691 L28.58863,15.4504526 C28.6823636,15.7685678 28.8348774,15.9614276 29.0547777,16.0392087 C29.3694351,16.2292506 29.5753001,16.4780225 29.6175149,16.7815129 L29.6341351,16.8371779 L29.6474082,16.892965 L29.6612389,16.8435048 C29.7674965,16.4982949 29.9472983,16.2560715 30.2013466,16.1194571 C30.3234573,16.0549414 30.4277479,15.9785687 30.5157206,15.8928086 C30.6527584,15.7592174 30.7328895,15.626292 30.8232863,15.5233113 C30.8280628,15.5123959 30.8310866,15.5037376 30.8335179,15.4964047 L30.8414082,15.468965 L30.8481567,15.4960825 C30.8617384,15.4818413 30.8756702,15.4682982 30.8901628,15.455545 C31.0769103,16.1532013 31.0409609,16.6177349 30.7709121,16.8455632 C30.6356219,16.9624698 30.4462254,17.0874573 30.2050613,17.2194682 C30.0139371,17.3397412 29.8719353,17.513318 29.7244711,17.7449654 L29.6807055,17.8709134 L29.6667181,17.8380073 L29.6349004,17.8909605 C29.459355,17.4898602 29.2565319,17.2472473 29.0281832,17.1595644 C28.491771,16.9355772 28.2671272,16.5451311 28.3627363,16.0031536 C28.3907978,15.7852518 28.4344893,15.5997326 28.4940658,15.4464691 Z M7.50593419,15.4464691 C7.56551072,15.5997326 7.60920219,15.7852518 7.63691383,16.0008585 C7.73287285,16.5451311 7.50822896,16.9355772 6.9704701,17.160104 C6.78100387,17.2328378 6.60838144,17.4138769 6.39988459,17.7015357 C6.37186165,17.7555649 6.3452601,17.811585 6.31929446,17.8709134 L6.30746233,17.8323776 C6.29554943,17.8496209 6.28350899,17.8671763 6.27133264,17.8850436 C6.18290048,17.5848809 6.02428776,17.3637958 5.7975465,17.2210012 C5.5537746,17.0874573 5.36437805,16.9624698 5.22953754,16.8459471 C5.01209839,16.6624996 4.94621751,16.3263486 5.07582041,15.8388147 C5.09118362,15.7502886 5.11062284,15.6571759 5.13487669,15.5588577 L5.11434904,15.4974006 L5.15214259,15.4910802 L5.15511962,15.4797987 L5.15740818,15.468965 L5.16246811,15.4838155 L5.19440818,15.482965 L5.206,15.455 L5.21029056,15.4692205 C5.27744182,15.6892505 5.45569234,15.9382579 5.79897694,16.1196295 C6.03353884,16.2457664 6.2048776,16.4622461 6.26136818,16.7692443 L6.28272871,16.8319553 L6.30140818,16.893965 L6.30995163,16.8533398 C6.3947192,16.5154201 6.60825146,16.2428844 6.95461642,16.0347936 C7.16512264,15.9614276 7.31763642,15.7685678 7.41136997,15.4504526 L7.50593419,15.4464691 Z M30.2221228,13.2164679 C30.4070447,13.6192781 30.4918687,13.9310283 30.4752444,14.1515803 C30.471704,14.4030157 30.3025341,14.6228938 29.981982,14.8067278 C29.7708358,14.9770001 29.6434407,15.1674017 29.5445691,15.3952296 C29.5376765,15.4286252 29.5334412,15.4627526 29.5311209,15.4973941 L29.5117963,15.4746032 C29.5049009,15.4921279 29.4981275,15.5098687 29.4914536,15.5278327 C29.2913833,15.2671032 29.0804784,15.1046493 28.8678372,15.0404918 C28.3913517,14.9866874 28.1257532,14.7812642 28.0873841,14.4271182 C28.060695,14.2015739 28.054758,13.9752387 28.1228635,13.7356909 L28.1306924,13.6168636 L28.1506722,13.6488614 L28.1730383,13.5902773 C28.3325472,13.8443386 28.4917749,13.9871327 28.6509861,14.0228504 C28.9183872,14.1013755 29.14406,14.2785234 29.2753785,14.5631214 L29.315819,14.6257208 L29.3554082,14.689965 L29.3663605,14.6042153 C29.4100084,14.348578 29.50848,14.1345033 29.6657424,13.9594943 C29.9656383,13.7242323 30.1177513,13.4829494 30.1267152,13.2355185 L30.2221228,13.2164679 Z M5.7778772,13.2164679 L5.87328481,13.2355185 C5.8822487,13.4829494 6.03436169,13.7242323 6.34067879,13.9655167 C6.49003537,14.1326481 6.5868724,14.341585 6.57966356,14.5808175 L6.58750495,14.6308422 L6.59440818,14.680965 L6.63755535,14.6061592 C6.82729962,14.3015687 7.06491115,14.1062941 7.35218916,14.0220301 C7.48114055,13.9931901 7.61227177,13.8906598 7.79591747,13.7246888 C7.82113592,13.6911214 7.84525133,13.6551797 7.86930758,13.6168636 L7.87054117,13.6565557 C7.88632791,13.6420319 7.90248946,13.6271141 7.91905127,13.6118074 C7.94678677,13.8846729 7.94464277,14.1564651 7.91267139,14.4266285 C7.87424683,14.7812642 7.60864828,14.9866874 7.14082671,15.0387267 C6.95587511,15.0938203 6.77818744,15.2163359 6.55574255,15.3914747 C6.52636293,15.4247354 6.49749372,15.4601039 6.46887912,15.4973941 L6.46621111,15.462731 C6.45070055,15.4751798 6.43496547,15.4878495 6.41899091,15.5007357 C6.40150737,15.2397174 6.26886687,15.0090171 6.02445897,14.811139 C5.69746593,14.6228938 5.52829596,14.4030157 5.52489057,14.1546137 C5.50813126,13.9310283 5.59295529,13.6192781 5.7778772,13.2164679 Z M17.1841861,10.6408607 C17.2118163,10.639828 17.2395406,10.6434795 17.2673589,10.6518152 C18.1047588,10.9043049 18.8830046,11.2351301 19.6020965,11.644291 C20.0779494,11.9151176 20.5354369,12.2392982 20.9385649,12.5949052 C21.1134701,12.7490782 21.2719916,12.90788 21.4141294,13.0713105 C21.4236057,13.0822218 21.4291834,13.0960283 21.4299832,13.1105538 C21.4504674,13.5168672 21.2593281,13.7940521 20.9425602,13.9978825 L20.8886171,14.0311846 C20.7561041,14.1098232 20.6316825,14.1878257 20.5153522,14.2651921 C20.3883728,14.3496282 20.2380963,14.4984625 20.2670675,14.6639185 C20.2625169,14.6715014 20.2598988,14.6716462 20.2578,14.6704351 L16.3693008,12.4265965 C16.3561219,12.4189916 16.3568832,12.4131611 16.3715845,12.4091049 C16.4352504,12.3911513 16.4929926,12.3689113 16.5151624,12.2989432 C16.5428271,12.2122756 16.5566692,12.1206219 16.5566885,12.0239821 C16.5569348,11.8209836 16.5602296,11.6277501 16.5665728,11.4442818 C16.5808354,11.0410219 16.6975376,10.6609918 17.1841861,10.6408607 Z M29.3067565,11.4826531 C29.4471203,11.6402939 29.5576846,11.8293781 29.6389904,12.0510328 C29.7436135,12.36605 29.6580124,12.607198 29.4327157,12.854208 L29.3957744,12.8929694 L29.2815793,13.0116223 C29.264933,13.0292598 29.2517685,13.0435924 29.2455183,13.0512659 C29.1736287,13.1395275 29.128401,13.2790428 29.0615127,13.4873469 C29.0575044,13.5205255 29.0557479,13.5567775 29.0548859,13.5945315 L29.0347395,13.5705126 L29.0164833,13.6265509 C28.8999349,13.486768 28.7035416,13.3890306 28.4395816,13.335912 C28.0955878,13.3665679 27.8373835,13.2362218 27.6730633,12.9473133 C27.5858732,12.7852233 27.5300954,12.5781502 27.5523817,12.3074043 C27.5486115,12.2545256 27.5450198,12.1999038 27.5427686,12.143249 L27.5688721,12.1748568 C27.5723437,12.1537916 27.576262,12.1323779 27.5806449,12.1106087 C27.7750018,12.3361429 27.9605015,12.4452722 28.1354523,12.4429698 C28.3060124,12.4370753 28.4972956,12.5383874 28.6636318,12.7652589 C28.695769,12.797301 28.7297339,12.8312655 28.764374,12.867915 L28.7654082,12.891965 L28.7608579,12.7922509 C28.7611134,12.5238636 28.8431446,12.2992879 29.0145448,12.1150214 C29.1600959,12.0288192 29.2187988,11.7968742 29.2198501,11.5497617 L29.2194183,11.5165529 L29.3067565,11.4826531 Z M6.69324355,11.4826531 L6.78057491,11.5169527 L6.7801537,11.5489004 C6.7812012,11.7968742 6.83990406,12.0288192 6.99683464,12.1242571 C7.15406495,12.2957895 7.23465242,12.5118786 7.18857782,12.7483112 L7.18919748,12.7975537 L7.18740818,12.846965 L7.2464311,12.7848982 C7.47808651,12.5518121 7.68292429,12.4366944 7.86348196,12.4429444 C8.01028215,12.4448858 8.16367864,12.3693001 8.37426436,12.2334038 C8.40179095,12.2054641 8.42946477,12.1754697 8.45723138,12.143249 L8.45268685,12.1818696 L8.50719196,12.1452341 C8.49386299,12.4806861 8.43414657,12.7480057 8.32636401,12.9483484 C8.16261654,13.2362218 7.90441222,13.3665679 7.57436544,13.3351969 C7.34119462,13.3803647 7.16540644,13.456439 6.99380857,13.5440844 C6.97618499,13.5593441 6.96006401,13.5766012 6.94511407,13.5945315 L6.9439951,13.5698711 C6.92772964,13.5783897 6.91145549,13.5869958 6.89512709,13.5956727 C6.88927532,13.339356 6.84133807,13.1579028 6.75513802,13.052055 L6.7400369,13.0342607 C6.71839151,13.0096798 6.59996561,12.890039 6.5672843,12.854208 C6.34198755,12.607198 6.25638649,12.36605 6.36152119,12.0495688 C6.4423154,11.8293781 6.55287973,11.6402939 6.69324355,11.4826531 Z M17.5967066,10.500854 C18.1873857,10.5974705 18.7502296,10.7648372 19.2852383,11.0029539 C19.9019165,11.2448726 20.757199,11.9702685 20.762667,11.9752976 C20.9766907,12.1749043 21.176966,12.3958043 21.3335954,12.638108 C21.3413424,12.650102 21.3449147,12.6650888 21.3490095,12.6796911 L21.3645888,12.7249226 C21.3665363,12.7354954 21.3611012,12.7351623 21.3482837,12.7239234 L21.3372863,12.7134494 C20.8912254,12.263522 20.3763124,11.8706112 19.7925472,11.534717 C19.0659029,11.1165681 18.2976768,10.7973122 17.487869,10.5769494 L17.4801934,10.567203 L17.5492436,10.5128206 C17.5633721,10.5020676 17.5791931,10.4980787 17.5967066,10.500854 Z M28.2708496,10.1744392 L28.6331598,10.6211782 C28.7523961,10.9018358 28.720575,11.1523914 28.5383953,11.3627251 C28.4368764,11.4890262 28.3870105,11.6609856 28.3408393,11.9027254 C28.3417509,11.9416735 28.3445132,11.9825079 28.3488947,12.024691 L28.3229489,12.0003998 C28.3195544,12.0195971 28.316146,12.0391911 28.3127047,12.0591915 C28.2062201,11.9474923 27.9612416,11.8903466 27.583467,11.8948433 C27.2278948,11.9279738 26.987073,11.7359611 26.9110407,11.3156168 C26.880902,11.2193779 26.8580694,11.1088948 26.8420546,10.9850984 L26.8857798,11.0460851 C26.8852103,11.0182752 26.885162,10.9897812 26.8856432,10.9606028 C26.9382135,11.0541487 27.0699,11.1257867 27.2691395,11.1698165 C27.5021959,11.1507651 27.7259891,11.2136915 27.8957987,11.3875761 C27.9227321,11.4060105 27.9503107,11.4255109 27.9777329,11.4464401 L28.0006094,11.5204002 C27.8999467,11.2480137 27.9159885,11.0020154 28.0535508,10.7820971 C28.1594068,10.650779 28.2030683,10.4608687 28.1822957,10.2101975 L28.2708496,10.1744392 Z M7.7291504,10.1744392 L7.81770434,10.2101975 C7.79693171,10.4608687 7.84059322,10.650779 7.94994923,10.7870205 C8.0601563,10.9637589 8.09060741,11.1614489 7.99786321,11.3468421 L7.98968214,11.3821267 L7.97940818,11.416965 L8.03011145,11.3784962 C8.25234282,11.2199135 8.48461085,11.1499836 8.716494,11.1707211 C8.88943647,11.1343407 9.00868026,11.080456 9.12516306,11.0280168 C9.13954614,11.0144719 9.14952893,11.000075 9.1579454,10.9850984 L9.15285466,11.015575 C9.17098523,11.0074589 9.18914686,10.9994144 9.20753221,10.9915131 C9.1253434,11.6268448 8.8603091,11.9361922 8.42055511,11.8950552 C8.09794273,11.8910765 7.87301839,11.9312618 7.69495457,11.9872749 C7.67833314,11.998565 7.66391743,12.0112515 7.65110534,12.024691 L7.65145682,12.0015672 C7.63435072,12.0074274 7.61767315,12.013423 7.60137289,12.0195255 C7.631147,11.7328689 7.5837841,11.5147303 7.46277793,11.3641313 C7.27942498,11.1523914 7.24760388,10.9018358 7.37413455,10.6091002 L7.7291504,10.1744392 Z M27.1298916,8.95162796 C27.3752706,9.1551254 27.5284872,9.31699883 27.5941368,9.44966739 C27.6397587,9.60728087 27.6133832,9.78898957 27.5186047,9.99131135 C27.4569536,10.1447053 27.4441101,10.2845289 27.4401269,10.4497397 C27.4448143,10.4704758 27.4522491,10.4899353 27.4607516,10.5091437 L27.4391687,10.4993967 L27.4384614,10.5539003 C27.2329505,10.4515494 27.047322,10.4235858 26.8870824,10.4656071 C26.6187572,10.5818847 26.3892216,10.5317188 26.211371,10.3161898 L26.1982148,10.2997525 C26.135948,10.2255008 26.0837747,10.1230546 26.0844745,9.96029431 L26.064681,9.89729046 L26.0861502,9.91212242 C26.0873192,9.89383728 26.0891132,9.87485661 26.0915815,9.85514349 C26.2496334,9.95602062 26.3933659,9.97726571 26.5455041,9.91849114 C26.7626085,9.91487013 26.9311615,9.94661911 27.0152983,10.0381119 L27.0367052,10.0659889 L27.0232494,10.0228454 C26.9713527,9.85830945 26.9611666,9.71604177 26.9942611,9.5960912 L27.0272217,9.5103135 L27.0363761,9.49317929 C27.1154409,9.35290021 27.1021041,9.16748081 27.0530823,9.01362557 L27.1298916,8.95162796 Z M8.8701084,8.95162796 L8.94967238,9.00527589 L8.94430376,9.02212366 C8.89910949,9.17302481 8.88841236,9.34498919 8.95537849,9.47770096 L8.96362386,9.49317929 C9.03792232,9.62500178 9.04415932,9.79270402 8.9420018,9.96795713 C8.9347692,9.99008651 8.92762111,10.0131314 8.91960019,10.0366881 C9.03727275,9.95320669 9.21962549,9.91518436 9.47265995,9.92223399 C9.58396157,9.96795265 9.70199812,9.96102677 9.87245269,9.93129717 C9.89416511,9.92240813 9.91466596,9.9104723 9.93531896,9.89729046 L9.92520728,9.92172402 C9.94401861,9.91819894 9.9634428,9.9144607 9.9835308,9.91054259 C9.93986537,10.0693994 9.88461133,10.1928362 9.81619998,10.28181 L9.80292713,10.2983394 C9.62365478,10.5286173 9.38894764,10.5852235 9.11995339,10.4680514 C8.98200553,10.4313817 8.83157587,10.4439704 8.62966245,10.4704631 C8.5995721,10.4804598 8.56958718,10.4940341 8.53924842,10.5091437 L8.55081927,10.4810674 C8.5321535,10.4836169 8.51306464,10.4862373 8.49352735,10.4889056 C8.55909395,10.3407807 8.55557116,10.1758681 8.48250301,9.99386036 C8.38661681,9.78898957 8.36024126,9.60728087 8.40920454,9.44114039 C8.47151283,9.31699883 8.62472944,9.1551254 8.8701084,8.95162796 Z M10.0469982,8.04353247 L10.1142447,8.11077137 L10.1073892,8.12422674 C10.046757,8.24784375 10.0145734,8.38505693 10.050583,8.46301435 C10.1327339,8.56002698 10.133631,8.70433218 10.0221731,8.85319597 L10.0099749,8.88627524 L9.99540818,8.91996504 L10.0300818,8.91080709 C10.1432413,8.88636538 10.2776147,8.8959518 10.4383672,8.94067013 C10.5025794,8.97522974 10.6024447,8.98214149 10.7714626,8.99622822 L10.7926964,8.99932269 L10.773,8.996 L10.7848991,8.97824501 L10.8028616,8.99716488 C10.8130779,8.99495902 10.8234474,8.99260903 10.8339702,8.9901149 L10.8284082,9.00096504 L10.8814397,9.00581983 L10.8753346,9.02088879 C10.8516967,9.0688766 10.7790124,9.15823087 10.6311709,9.30711272 C10.4587206,9.48077668 10.2235481,9.47033385 9.96032679,9.29351893 C9.85610187,9.27952395 9.75135225,9.28016679 9.61912529,9.25270524 L9.56314721,9.25936238 L9.57658438,9.2430882 C9.55938283,9.23888048 9.54171239,9.23416854 9.52352118,9.22887012 C9.60130424,9.12778763 9.62415566,9.01450345 9.59152361,8.87897732 L9.58334134,8.81380146 C9.58128461,8.7960253 9.57963922,8.78180437 9.57820907,8.76926393 L9.5706421,8.6991892 C9.56793479,8.67255427 9.56451954,8.63764335 9.55882744,8.57945847 C9.58960756,8.37061486 9.75438784,8.19252504 10.0469982,8.04353247 Z M25.9530018,8.04353247 C26.2456122,8.19252504 26.4103924,8.37061486 26.4413955,8.59232069 L26.4150292,8.82743734 C26.4112977,8.8579288 26.4112977,8.8579288 26.4074494,8.88456529 C26.3812266,8.99237537 26.392492,9.08872073 26.4130574,9.22151881 C26.4191125,9.2352454 26.427641,9.24739123 26.4368528,9.25936238 L26.4182324,9.25459242 C26.420949,9.27184669 26.4237735,9.28972229 26.4266522,9.30831081 C26.2967069,9.28123097 26.1677936,9.27631534 26.0602651,9.28588807 C25.7764519,9.47033385 25.5412794,9.48077668 25.3686675,9.30694932 L25.3354532,9.27319158 C25.1991239,9.13328262 25.1371509,9.05326869 25.1197768,9.009496 L25.1775586,8.94154554 C25.3562117,8.98381178 25.4845939,8.98213318 25.5722298,8.93644476 C25.7347635,8.89232177 25.8749707,8.88514296 25.9528955,8.95864116 L25.9684082,8.96196504 L25.9427139,8.90273994 C25.8662206,8.70880949 25.8650782,8.56295868 25.9425745,8.47353049 C25.9854266,8.38505693 25.953243,8.24784375 25.8929427,8.12489088 L25.8857553,8.11077137 L25.9530018,8.04353247 Z M11.104562,7.42542067 L11.1631528,7.49598207 L11.1583429,7.50549458 C11.1083155,7.6069767 11.0675637,7.73080995 11.0680543,7.83822454 L11.0685079,7.85588848 C11.0739419,7.9672116 11.0243901,8.08459026 10.8961673,8.16283709 L10.8674082,8.19596504 L10.9218759,8.18744535 C11.0428877,8.17578763 11.1600613,8.19228824 11.2752416,8.23822373 C11.354513,8.28212748 11.4469269,8.31410442 11.56604,8.38497663 C11.5809608,8.38972263 11.5968399,8.39213366 11.6129755,8.39429633 L11.5966337,8.40369242 C11.6117184,8.41317609 11.6272172,8.42330172 11.6431545,8.43416148 L11.3573087,8.65045312 C11.1987374,8.75689469 11.1195547,8.73549073 10.9472326,8.59098855 C10.8863392,8.53992591 10.7708965,8.50068947 10.5861179,8.424159 C10.5610993,8.41948053 10.5327373,8.41610278 10.5031671,8.4130809 L10.5208097,8.39671957 C10.5045695,8.38979196 10.4878639,8.38258364 10.4706853,8.37506855 C10.5642735,8.29509703 10.5992215,8.13338502 10.5689982,7.87204724 C10.6030225,7.66628401 10.7848487,7.51841869 11.104562,7.42542067 Z M24.895438,7.42542067 C25.2151513,7.51841869 25.3969775,7.66628401 25.4312945,7.88633378 C25.4051728,8.09780964 25.4270189,8.24675438 25.4753679,8.39046599 C25.4816948,8.39941553 25.4890856,8.40646079 25.4968329,8.4130809 L25.4841072,8.41560695 C25.4897485,8.4313427 25.4956943,8.4470557 25.5019161,8.46282184 C25.2759304,8.48591605 25.1254698,8.53002337 25.0525975,8.59113037 L25.0177769,8.6200656 C24.8789597,8.73343113 24.7889488,8.74862897 24.6403791,8.64880385 L24.4874082,8.46996504 L24.3870245,8.39429633 L24.4174082,8.38796504 L24.3803823,8.34473947 C24.514448,8.32677056 24.6291601,8.29116998 24.7305776,8.23547434 C24.8537063,8.18672606 24.9833371,8.17240785 25.0911245,8.24075378 L25.1064082,8.24096504 L25.0739033,8.20415544 C24.9799127,8.08842481 24.9316916,7.97850802 24.9311085,7.87290683 L24.9314921,7.85588848 C24.9367535,7.74810136 24.8971414,7.62041556 24.8445943,7.51151453 L24.8367302,7.49574895 L24.895438,7.42542067 Z M11.984417,6.95096504 L12.0362689,7.02701158 C11.9940921,7.09271022 11.9755753,7.14937467 11.9787995,7.20002504 C11.9790839,7.35815687 11.9339261,7.47841753 11.8353652,7.51565693 L11.8051854,7.52325164 L11.8257299,7.52611898 C11.9605541,7.53558933 12.0636543,7.56921725 12.1321534,7.62670838 L12.1769951,7.67429648 C12.211247,7.70643653 12.254268,7.72441464 12.3237085,7.77642427 C12.3327904,7.77876692 12.3415904,7.77856943 12.3505706,7.7780733 L12.3341794,7.78437496 C12.3477568,7.79482491 12.3623023,7.80656636 12.3779338,7.81992129 C12.1285541,7.98298369 11.9102454,8.00946303 11.7533697,7.8640866 C11.6890777,7.8068099 11.616139,7.77479476 11.5149265,7.73290656 L11.4824082,7.71696504 L11.499,7.726 L11.4895095,7.74001124 L11.4738307,7.7167895 C11.4630988,7.7172817 11.4522406,7.71811076 11.4412563,7.71927668 L11.4518155,7.70716062 L11.4394082,7.70096504 L11.4294082,7.69696504 L11.4035623,7.68642607 L11.4134992,7.67503805 C11.4859766,7.58858586 11.5439676,7.47629778 11.5461738,7.36762132 C11.5207723,7.15244538 11.674627,7.01272795 11.984417,6.95096504 Z M24.015583,6.95096504 C24.325373,7.01272795 24.4792277,7.15244538 24.4541644,7.36094994 C24.4553786,7.43592455 24.4814726,7.51265091 24.5246047,7.58648069 C24.5515137,7.63254118 24.578308,7.66696332 24.5534662,7.76899738 C24.4334474,7.75625818 24.332353,7.78771766 24.2473545,7.86342855 C24.1209388,7.98056732 23.9554621,7.98670828 23.7817664,7.85303173 C23.7387898,7.83259166 23.6943346,7.80743552 23.6494294,7.7780733 L23.6983125,7.77844439 C23.682956,7.76279109 23.6675741,7.74603254 23.6521876,7.72814943 C23.7247873,7.73216033 23.7806124,7.7140752 23.8171122,7.6809 C23.8835319,7.59168313 23.9977341,7.54151549 24.1473728,7.57784904 L24.1826827,7.57568003 C24.0751958,7.50112695 24.0209078,7.37281791 24.0213078,7.19683863 C24.0244247,7.14937467 24.0059079,7.09271022 23.9637311,7.02701158 L24.015583,6.95096504 Z" id="path-6"></path>
        <filter x="-7.7%" y="-4.3%" width="115.3%" height="117.3%" filterUnits="objectBoundingBox" id="filter-7">
            <feOffset dx="0" dy="1" in="SourceAlpha" result="shadowOffsetOuter1"></feOffset>
            <feGaussianBlur stdDeviation="0.5" in="shadowOffsetOuter1" result="shadowBlurOuter1"></feGaussianBlur>
            <feColorMatrix values="0 0 0 0 0   0 0 0 0 0.486523614   0 0 0 0 0.122359232  0 0 0 0.15 0" type="matrix" in="shadowBlurOuter1"></feColorMatrix>
        </filter>
    </defs>
    <g id="法律助手-类案查询-36" stroke="none" stroke-width="1" fill="none" fill-rule="evenodd">
        <g id="编组-5">
            <g id="编组-2" transform="translate(3.000000, 3.000000)" filter="url(#filter-1)">
                <mask id="mask-4" fill="white">
                    <use xlink:href="#path-3"></use>
                </mask>
                <use id="蒙版" fill="url(#linearGradient-2)" xlink:href="#path-3"></use>
            </g>
            <g id="形状结合">
                <use fill="black" fill-opacity="1" filter="url(#filter-7)" xlink:href="#path-6"></use>
                <use fill="url(#linearGradient-5)" fill-rule="evenodd" xlink:href="#path-6"></use>
            </g>
        </g>
    </g>
</svg>