<?xml version="1.0" encoding="UTF-8"?>
<svg width="110px" height="110px" viewBox="0 0 110 110" version="1.1" xmlns="http://www.w3.org/2000/svg" xmlns:xlink="http://www.w3.org/1999/xlink">
    <title>法律助手-法规查询-110</title>
    <defs>
        <filter x="-7.3%" y="-5.2%" width="114.6%" height="114.6%" filterUnits="objectBoundingBox" id="filter-1">
            <feOffset dx="0" dy="2" in="SourceAlpha" result="shadowOffsetOuter1"></feOffset>
            <feGaussianBlur stdDeviation="2" in="shadowOffsetOuter1" result="shadowBlurOuter1"></feGaussianBlur>
            <feColorMatrix values="0 0 0 0 0   0 0 0 0 0   0 0 0 0 0  0 0 0 0.2 0" type="matrix" in="shadowBlurOuter1" result="shadowMatrixOuter1"></feColorMatrix>
            <feMerge>
                <feMergeNode in="shadowMatrixOuter1"></feMergeNode>
                <feMergeNode in="SourceGraphic"></feMergeNode>
            </feMerge>
        </filter>
        <linearGradient x1="50%" y1="0%" x2="50%" y2="101.812788%" id="linearGradient-2">
            <stop stop-color="#00D9FC" offset="0%"></stop>
            <stop stop-color="#1170E7" offset="100%"></stop>
        </linearGradient>
        <path d="M21.1891892,0 L74.8108108,0 C86.5132769,0 96,9.48672314 96,21.1891892 L96,74.8108108 C96,86.5132769 86.5132769,96 74.8108108,96 L21.1891892,96 C9.48672314,96 0,86.5132769 0,74.8108108 L0,21.1891892 C0,9.48672314 9.48672314,0 21.1891892,0 Z" id="path-3"></path>
        <linearGradient x1="43.5885539%" y1="22.770867%" x2="74.3926199%" y2="99.6240437%" id="linearGradient-5">
            <stop stop-color="#FFFFFF" offset="0%"></stop>
            <stop stop-color="#9CD8F8" offset="100%"></stop>
        </linearGradient>
        <path d="M41.274648,76.8439864 C41.6419634,78.2501568 42.361959,79.1486213 43.4346348,79.53938 C42.0019375,79.8868086 40.9290364,80.6533867 40.2159314,81.8391143 C39.1092155,82.9432116 37.604921,82.8924205 35.7030479,81.6867409 C36.5658026,81.5857874 37.3038823,81.1825515 37.9172872,80.4770332 C38.8074808,79.5019731 39.8344739,79.0740008 40.9982665,79.1931165 C39.650558,79.037383 38.6918191,78.0919285 38.1220497,76.356753 C38.0300701,75.7246147 37.5886074,75.2380958 36.7976617,74.8971965 L36.9522502,74.8742568 C37.6779764,74.7790986 40.734259,74.5219295 41.274648,76.8439864 Z M59.1715691,74.8971965 C58.3806233,75.2380958 57.9391607,75.7246147 57.847181,76.356753 C57.2774117,78.0919285 56.3186728,79.037383 54.9709643,79.1931165 C56.1347569,79.0740008 57.16175,79.5019731 58.0519436,80.4770332 C58.6653484,81.1825515 59.4034282,81.5857874 60.2661829,81.6867409 C58.3643097,82.8924205 56.8600152,82.9432116 55.7532994,81.8391143 C55.0401944,80.6533867 53.9672933,79.8868086 52.534596,79.53938 C53.6072718,79.1486213 54.3272674,78.2501568 54.6945828,76.8439864 C55.3086612,74.2052854 59.1715691,74.8971965 59.1715691,74.8971965 Z M31.6746114,72.4374905 L31.8049937,72.4480458 C32.1060791,72.4769209 32.9031972,72.5778629 33.9289506,72.898925 C34.97765,73.3287256 35.5700991,74.271381 35.706298,75.726891 C35.7838292,76.7182929 36.2530223,77.5191993 37.1138773,78.1296101 C36.1557631,78.1060959 35.2794304,78.426649 34.4848794,79.0912696 C33.597008,80.1035859 32.6659077,80.4762634 31.6915785,80.2093021 C30.441256,79.6919666 29.6380662,79.2609591 29.2820093,78.9162794 C30.3394685,78.9246981 31.2035198,78.5926616 31.8741633,77.9201701 C32.6632599,77.3370578 33.6180399,77.1627922 34.7385033,77.3973731 C33.5608141,76.6851387 32.9034386,75.6723801 32.7663769,74.3590974 C32.6417766,73.6053366 32.2778547,72.9648009 31.6746114,72.4374905 Z M64.2946194,72.4374905 C63.691376,72.9648009 63.3274542,73.6053366 63.2028539,74.3590974 C63.0657922,75.6723801 62.4084167,76.6851387 61.2307274,77.3973731 C62.3511909,77.1627922 63.3059709,77.3370578 64.0950675,77.9201701 C64.7657109,78.5926616 65.6297623,78.9246981 66.6872215,78.9162794 C66.3311645,79.2609591 65.5279748,79.6919666 64.2776522,80.2093021 C63.303323,80.4762634 62.3722227,80.1035859 61.4843514,79.0912696 C60.6898004,78.426649 59.8134677,78.1060959 58.8553535,78.1296101 C59.7162085,77.5191993 60.1854016,76.7182929 60.2629328,75.726891 C60.3991317,74.271381 60.9915808,73.3287256 62.0402802,72.898925 L62.1962485,72.8512475 C63.4289875,72.4834013 64.2946194,72.4374905 64.2946194,72.4374905 Z M27.0219374,69.1477519 C27.4703123,69.2128242 28.1813966,69.4657236 29.1551901,69.9064502 C30.1166972,70.4385648 30.5509465,71.4168843 30.457938,72.8414085 C30.2752185,73.863886 30.5970281,74.80117 31.4233667,75.6532605 L31.3598628,75.6363599 C31.0703765,75.566109 29.8397715,75.3404709 28.6772142,76.2263176 L28.6150052,76.2748442 C27.7175368,76.9913505 26.9395436,77.2243705 26.2810254,76.9739041 C25.4385584,76.8100166 24.5356252,76.1865864 23.5722257,75.1036136 C24.5556884,75.2683014 25.3366996,75.1428028 25.9152592,74.7271177 C26.9904898,74.098301 28.0798368,74.0212065 29.1833003,74.4958343 C28.3365256,73.87502 27.8946098,72.891558 27.857553,71.5454483 C27.8458311,70.5892271 27.5672925,69.7899949 27.0219374,69.1477519 Z M68.9472934,69.1477519 C68.4019382,69.7899949 68.1233997,70.5892271 68.1116777,71.5454483 C68.0746209,72.891558 67.6327052,73.87502 66.7859305,74.4958343 C67.8893939,74.0212065 68.9787409,74.098301 70.0539715,74.7271177 C70.6325312,75.1428028 71.4135423,75.2683014 72.397005,75.1036136 C71.4336055,76.1865864 70.5306723,76.8100166 69.6882054,76.9739041 C69.048502,77.2172143 68.2960532,77.0042712 67.4308589,76.335075 L67.3542256,76.2748442 C66.2074605,75.3593083 64.9765514,75.5525211 64.6370066,75.6298634 L64.5692911,75.646606 C64.5538869,75.6507739 64.5458641,75.6532605 64.5458641,75.6532605 C65.3722027,74.80117 65.6940122,73.863886 65.5112927,72.8414085 C65.4182843,71.4168843 65.8525336,70.4385648 66.8140406,69.9064502 C67.7878342,69.4657236 68.4989184,69.2128242 68.9472934,69.1477519 Z M23.1390506,65.1422561 L23.2004855,65.1684134 C23.3785215,65.2476041 23.9517352,65.5241878 25.0267696,66.2315071 C26.0941281,66.9425683 26.355768,68.2773415 25.8116895,70.2358268 C25.7654544,70.953354 25.9598521,71.661942 26.3948829,72.3615909 C25.9954711,72.1508065 25.3548808,72.0906436 24.4731117,72.1811023 C22.9340033,73.1046552 21.7722002,73.3018565 20.9877025,72.7727062 C19.9576021,72.0354162 19.2248905,71.2807472 18.7895679,70.5086991 C19.8679732,70.8730702 20.8378262,70.8195377 21.6991271,70.3481016 C22.7503597,70.1858228 23.7005228,70.4084417 24.5496165,71.0159583 C23.7236452,70.2046533 23.4231301,69.0611335 23.6480714,67.5853987 C23.7231151,66.5263515 23.5534415,65.7119706 23.1390506,65.1422561 Z M72.8301802,65.1422561 C72.4157892,65.7119706 72.2461156,66.5263515 72.3211594,67.5853987 C72.5461006,69.0611335 72.2455856,70.2046533 71.4196142,71.0159583 C72.268708,70.4084417 73.2188711,70.1858228 74.2701037,70.3481016 C75.1314045,70.8195377 76.1012576,70.8730702 77.1796629,70.5086991 C76.7443402,71.2807472 76.0116287,72.0354162 74.9815283,72.7727062 C74.1970305,73.3018565 73.0352274,73.1046552 71.496119,72.1811023 C70.61435,72.0906436 69.9737596,72.1508065 69.5743479,72.3615909 C70.0093786,71.661942 70.2037764,70.953354 70.1575412,70.2358268 C69.6134627,68.2773415 69.8751027,66.9425683 70.9424612,66.2315071 L71.1601768,66.0896741 C72.3294,65.3357759 72.8301802,65.1422561 72.8301802,65.1422561 Z M75.8172931,60.5252595 C75.5267567,61.3015258 75.4868364,62.0105921 75.6975321,62.6524583 C76.1976846,63.9574502 76.166728,65.1465486 75.6046623,66.2197534 L75.486,66.431 L75.6632326,66.275976 C76.4450789,65.6248949 77.3599324,65.3469438 78.4077932,65.4421228 C79.6019099,65.6665922 80.4998924,65.5082914 81.1017406,64.9672204 L81.0747617,65.04692 C80.9910921,65.2780618 80.693441,66.0002646 79.9186163,67.0599626 C78.9904453,68.1917666 77.7861406,68.3969552 76.3057022,67.6755282 C75.6008326,67.5113544 74.7937906,67.7014787 73.8845762,68.245901 C74.2372091,67.6783454 74.2854117,66.8157665 74.029184,65.6581643 C73.2143789,64.453751 73.1058717,63.4290597 73.7036621,62.5840904 C74.2311745,61.8186029 74.9357181,61.132326 75.8172931,60.5252595 Z M20.1519377,60.5252595 C21.0335127,61.132326 21.7380563,61.8186029 22.2655686,62.5840904 C22.8633591,63.4290597 22.7548518,64.453751 21.9400468,65.6581643 C21.6838191,66.8157665 21.7320217,67.6783454 22.0846546,68.245901 C21.1754402,67.7014787 20.3683982,67.5113544 19.6635286,67.6755282 C18.1830902,68.3969552 16.9787855,68.1917666 16.0506145,67.0599626 L15.9478896,66.9175646 C15.0828115,65.7018291 14.8674901,64.9672204 14.8674901,64.9672204 C15.4693384,65.5082914 16.3673209,65.6665922 17.5614376,65.4421228 C18.6092983,65.3469438 19.5241519,65.6248949 20.3059981,66.275976 L20.483,66.431 L20.3645685,66.2197534 C19.8025028,65.1465486 19.7715462,63.9574502 20.2716987,62.6524583 C20.4823944,62.0105921 20.4424741,61.3015258 20.1519377,60.5252595 Z M48.0000587,23.9 C48.826114,23.9 49.5341878,24.480461 49.8322346,25.3057903 C51.5468373,24.9475575 53.901298,24.4542558 55.8405699,24.4542558 C56.9960448,24.4542558 58.2996125,24.9284439 59.6073544,25.4426106 L60.4782213,25.7865461 C61.6307412,26.2382599 62.7614883,26.6457259 63.7707525,26.7081138 L63.7706308,26.3993082 C63.7706308,26.1618985 63.9630894,25.9694399 64.2004991,25.9694399 C64.4379088,25.9694399 64.6303674,26.1618985 64.6303674,26.3993082 L64.6313673,26.7502467 C66.4341964,26.8178189 67.2602994,26.7015051 67.8411983,26.5266463 C68.5062137,26.3264673 68.9550158,26.1607989 68.4847122,26.562446 C68.0144086,26.9640931 66.8410597,27.7568723 65.4946854,28.2907717 C65.2124524,28.4026901 64.926545,28.47959 64.6305538,28.5249511 L64.6302392,29.003 L64.690744,28.9875439 L64.7743658,29.2166502 L72.5052392,50.4 L74.3764304,50.4 C74.4241898,50.5749717 74.2749279,50.7529662 74.2238473,50.9334443 L74.2073423,51.0420249 C74.2073423,53.6659337 69.653341,55.793032 64.3514832,55.793032 C59.0496254,55.793032 54.4956241,53.6659337 54.4956241,51.0420249 C54.4956241,50.8242849 54.2692246,50.6099661 54.3265359,50.4 L56.0432392,50.4 L63.6464714,29.2697644 L63.7368778,29.0184753 L63.7702392,29.03 L63.7706813,28.5723855 C62.8615714,28.5427254 61.8231296,28.2852555 60.5089221,27.8794803 C58.2995299,27.1973075 57.5591849,26.7089447 55.8405699,26.7089447 C54.7933204,26.7089447 52.7001836,27.0007786 49.5611596,27.5844464 C49.3566515,27.8825119 49.0902609,28.1203204 48.7839702,28.2719676 L48.7841639,54.8683544 C48.9092129,56.0526425 49.3084054,57.3048749 49.9817414,58.6250517 C50.612002,59.8607727 51.4904397,61.1716835 52.6170546,62.5577839 L57.8735661,62.5582278 C59.9843356,62.5582278 61.9184148,64.3434216 62.1934529,66.5455696 C56.1238249,67.1151899 51.5716039,67.4 48.5367899,67.4 C45.4657786,67.4 40.8592617,67.1151899 34.7172392,66.5455696 C34.9922772,64.3434216 36.9263564,62.5582278 39.037126,62.5582278 L43.2492392,62.558 L43.3743302,62.4053562 C44.4217675,61.0976054 45.2546825,59.8375039 45.8730752,58.6250517 C46.5601782,57.2778826 46.9640212,56.0256501 47.0846043,54.8683544 L47.0848222,28.2002429 C46.8374506,28.0520712 46.6206772,27.8457092 46.4482499,27.5969543 C43.2042953,27.0046663 41.0554958,26.7089447 40.0012938,26.7089447 C38.2826789,26.7089447 37.5423339,27.1973075 35.3329416,27.8794803 C33.9989966,28.2913497 32.9491627,28.5504256 32.0303088,28.5735674 L32.0302392,28.999 L32.0732744,28.9870228 L32.1570864,29.2166502 L39.8882392,50.4 L41.5764304,50.4 C41.6241898,50.5749717 41.4749279,50.7529662 41.4238473,50.9334443 L41.4073423,51.0420249 C41.4073423,53.6659337 36.853341,55.793032 31.5514832,55.793032 C26.2496254,55.793032 21.6956241,53.6659337 21.6956241,51.0420249 C21.6956241,50.8242849 21.4692246,50.6099661 21.5265359,50.4 L23.4262392,50.4 L31.029192,29.2697644 L31.1199792,29.0174168 L31.1702392,29.036 L31.1706039,28.5185034 C30.889073,28.4724548 30.6164533,28.3975516 30.3471784,28.2907717 C29.0008041,27.7568723 27.8274551,26.9640931 27.3571516,26.562446 C26.886848,26.1607989 27.3356501,26.3264673 28.0006655,26.5266463 C28.5771661,26.7001811 29.3951718,26.8160542 31.169714,26.75175 L31.1706308,26.4832599 C31.1706308,26.2458502 31.3630894,26.0533916 31.6004991,26.0533916 C31.8379088,26.0533916 32.0303674,26.2458502 32.0303674,26.4832599 L32.02978,26.7105555 L32.0573293,26.7089447 C34.4626035,26.5676126 37.561958,24.4542558 40.0012938,24.4542558 C41.9569682,24.4542558 44.4140976,24.9559375 46.1656019,25.3154295 C46.460794,24.48468 47.1710068,23.9 48.0000587,23.9 Z M17.86218,55.6105338 C18.7123955,56.3817167 19.324539,57.2045785 19.6986103,58.079119 C19.975444,58.9096543 19.7142864,59.8403565 18.9151374,60.8712254 C18.3987304,61.6195211 18.2694738,62.499872 18.5273678,63.5122781 C17.5322722,62.8625141 16.7657467,62.5519947 16.2277914,62.5807199 C14.9765338,62.8745972 14.0967655,62.7657411 13.5884864,62.2541514 C12.8364113,61.6782413 12.2855152,60.6313921 11.935798,59.1136037 C12.4543874,59.6876561 13.1959103,59.9842498 14.1603668,60.0033849 L14.2609334,60.0043746 C15.781361,60.0043746 16.4313968,60.7828739 17.1515191,61.3330464 C16.9136859,60.3412006 16.9619711,59.4464675 17.2963747,58.648847 C17.9290385,57.6719043 18.1176402,56.6591332 17.86218,55.6105338 Z M78.1070508,55.6105338 C77.8515906,56.6591332 78.0401923,57.6719043 78.672856,58.648847 C79.0072596,59.4464675 79.0555448,60.3412006 78.8177117,61.3330464 C79.5221791,60.7948341 80.1595742,60.0381145 81.6103634,60.005468 L81.7082974,60.0043746 C82.7219159,60.0043746 83.496961,59.707451 84.0334328,59.1136037 C83.6837156,60.6313921 83.1328194,61.6782413 82.3807443,62.2541514 C81.8724653,62.7657411 80.992697,62.8745972 79.7414394,62.5807199 C79.2034841,62.5519947 78.4369586,62.8625141 77.441863,63.5122781 C77.6997569,62.499872 77.5705004,61.6195211 77.0540934,60.8712254 C76.2549444,59.8403565 75.9937867,58.9096543 76.2706205,58.079119 C76.6446918,57.2045785 77.2568352,56.3817167 78.1070508,55.6105338 Z M79.445862,50.3092918 C79.431857,51.1662484 79.5612948,51.75759 79.8341752,52.0833169 C80.8684967,53.4301435 81.2907318,54.6606441 81.1008803,55.7748185 C81.6625313,54.8992587 82.4913029,54.2964462 83.5871949,53.9663809 C85.3625816,53.8127662 85.9272117,52.6466497 85.9272117,52.6466497 C85.7965587,54.2145299 85.4654829,55.2910017 84.9339844,55.8760651 C84.5184644,56.4270247 83.762185,56.7251728 82.6651463,56.7705091 C81.6924826,56.9307935 80.886967,57.4009149 80.2485994,58.1808732 C80.2637054,57.003327 79.9235707,56.0863543 79.2281954,55.4299552 C77.9725556,54.4279148 77.6945743,53.2541491 78.3942517,51.9086581 L79.445862,50.3092918 Z M16.5233688,50.3092918 L17.574979,51.9086581 C18.2746564,53.2541491 17.9966752,54.4279148 16.7410353,55.4299552 C16.0456601,56.0863543 15.7055254,57.003327 15.7206313,58.1808732 C15.0822638,57.4009149 14.2767482,56.9307935 13.3040845,56.7705091 C12.2070458,56.7251728 11.4507664,56.4270247 11.0352464,55.8760651 C10.5037479,55.2910017 10.1726721,54.2145299 10.0420191,52.6466497 L10.0602166,52.6805379 C10.1693806,52.8733548 10.787197,53.828388 12.3820359,53.9663809 C13.4779279,54.2964462 14.3066994,54.8992587 14.8683505,55.7748185 C14.678499,54.6606441 15.100734,53.4301435 16.1350556,52.0833169 C16.407936,51.75759 16.5373738,51.1662484 16.5233688,50.3092918 Z M79.9989821,44.7107909 C80.0909762,45.6184223 80.4480323,46.3042088 81.0701504,46.7681505 C81.7620936,47.3927976 82.1814077,47.9718659 82.3280929,48.5053555 C82.4828438,49.0681802 82.511051,49.4908617 82.5141671,49.6921223 L82.5143378,49.7588206 C82.5138486,49.8006043 82.5123315,49.8225155 82.5123315,49.8225155 C83.1689949,48.687369 83.8905205,47.9556902 84.6769084,47.627479 C86.2617067,47.2890776 86.8212343,45.8513043 86.8212343,45.8513043 C86.9879642,47.9143005 86.7203049,49.1876081 86.0182563,49.6712272 C85.6017563,50.0243055 84.8932838,50.3635152 83.8928388,50.6888563 C82.9508481,51.0012181 82.3828589,51.5405454 82.1888713,52.306838 C81.8902447,51.2055979 81.373885,50.3774904 80.6397922,49.8225155 C79.2208105,48.9735001 78.7650437,47.8228186 79.2724921,46.370471 C79.4998269,45.6553027 79.7419903,45.102076 79.9989821,44.7107909 Z M15.9702486,44.7107909 C16.2272405,45.102076 16.4694038,45.6553027 16.6967387,46.370471 C17.204187,47.8228186 16.7484203,48.9735001 15.3294385,49.8225155 C14.5953458,50.3774904 14.0789861,51.2055979 13.7803595,52.306838 C13.5863718,51.5405454 13.0183827,51.0012181 12.076392,50.6888563 C11.0759469,50.3635152 10.3674744,50.0243055 9.95097449,49.6712272 C9.24892591,49.1876081 8.98126657,47.9143005 9.14799645,45.8513043 L9.18115361,45.9267073 C9.32185465,46.2270159 9.92611697,47.3357537 11.2923224,47.627479 C12.0787102,47.9556902 12.8002358,48.687369 13.4568992,49.8225155 L13.4552115,49.778047 L13.4547847,49.7181869 C13.455877,49.5289978 13.4793528,49.0937631 13.6411379,48.5053555 C13.787823,47.9718659 14.2071372,47.3927976 14.8990804,46.7681505 C15.5211985,46.3042088 15.8782546,45.6184223 15.9702486,44.7107909 Z M32.168152,32.28251 L31.9682392,50.4 L38.7782392,50.4 L32.168152,32.28251 Z M31.130152,32.07151 L24.5352392,50.4 L30.9262392,50.4 L31.130152,32.07151 Z M64.785152,32.28251 L64.5862392,50.4 L71.3952392,50.4 L64.785152,32.28251 Z M63.747152,32.07451 L57.1522392,50.4 L63.5442392,50.4 L63.747152,32.07451 Z M16.4561655,38.8786826 C16.6296056,39.3276863 16.7575678,39.8744643 16.8400523,40.5190165 C17.1146889,42.0865828 16.4814454,43.1941601 14.9403218,43.8417484 C14.2171339,44.1211268 13.5857512,44.8811484 13.0461737,46.121813 C12.7717247,45.1843698 12.275472,44.4882862 11.5574153,44.0335624 C10.8367766,43.636284 10.278643,43.2656294 9.8830146,42.9215985 C9.13125546,42.2833502 9.02791953,40.9396138 9.57300681,38.8903892 L9.58596232,38.9365683 C9.65734974,39.1719574 10.0507352,40.2554619 11.4190069,40.9829413 C12.2446711,41.4297534 12.7987772,42.2777604 13.0813252,43.5269624 C13.2393851,42.3467112 13.8775169,41.4167733 14.9957206,40.7371486 C15.6764855,40.4983872 16.1633004,39.8788986 16.4561655,38.8786826 Z M79.5130653,38.8786826 C79.8059303,39.8788986 80.2927453,40.4983872 80.9735102,40.7371486 C82.0917139,41.4167733 82.7298457,42.3467112 82.8879056,43.5269624 C83.1704536,42.2777604 83.7245597,41.4297534 84.5502239,40.9829413 C86.0926393,40.1628736 86.396224,38.8903892 86.396224,38.8903892 C86.9413112,40.9396138 86.8379753,42.2833502 86.0862162,42.9215985 C85.6905877,43.2656294 85.1324542,43.636284 84.4118154,44.0335624 C83.6937588,44.4882862 83.197506,45.1843698 82.9230571,46.121813 C82.3834796,44.8811484 81.7520969,44.1211268 81.028909,43.8417484 C79.4877854,43.1941601 78.8545419,42.0865828 79.1291785,40.5190165 C79.2116629,39.8744643 79.3396252,39.3276863 79.5130653,38.8786826 Z M11.5626452,32.1745679 C11.5912638,32.9695215 12.0699224,33.7335736 12.998621,34.466724 C13.5209043,35.0548587 13.8200617,35.8252011 13.8960934,36.7777511 C14.4804386,35.656502 15.2378514,34.9583912 16.1683319,34.6834186 C16.6814584,34.5679325 17.1861662,34.1124532 17.6824555,33.3169807 C17.7643121,34.1273876 17.7579856,34.9344568 17.663476,35.7381883 C17.5570817,36.7263521 16.8228506,37.2978219 15.4607828,37.4525978 C14.7655743,37.6609965 14.1098467,38.1692774 13.4936,38.9774404 C13.4383484,38.1473542 13.0201152,37.4153265 12.2389003,36.7813573 C11.3021291,36.2386624 10.8288792,35.6196689 10.8191507,34.9243769 C10.771339,34.2824903 11.0191705,33.3658873 11.5626452,32.1745679 Z M84.4065855,32.1745679 C84.9500602,33.3658873 85.1978917,34.2824903 85.15008,34.9243769 C85.1403515,35.6196689 84.6671017,36.2386624 83.7303305,36.7813573 C82.9491156,37.4153265 82.5308824,38.1473542 82.4756308,38.9774404 C81.8593841,38.1692774 81.2036565,37.6609965 80.508448,37.4525978 C79.1463801,37.2978219 78.412149,36.7263521 78.3057547,35.7381883 C78.2112452,34.9344568 78.2049187,34.1273876 78.2867753,33.3169807 C78.7830645,34.1124532 79.2877724,34.5679325 79.8008989,34.6834186 C80.7313793,34.9583912 81.4887922,35.656502 82.0731374,36.7777511 C82.149169,35.8252011 82.4483265,35.0548587 82.9706097,34.466724 C83.8993084,33.7335736 84.377967,32.9695215 84.4065855,32.1745679 Z M14.2763976,26.9930187 L14.2751956,27.0506169 L14.275106,27.0929782 C14.2765363,27.4336999 14.3306543,28.5492869 14.9625321,28.9258803 C15.4963857,29.5119766 15.7184634,30.2819011 15.6287652,31.235654 C16.4202073,30.3481992 17.0983031,29.9142922 17.6630527,29.9339331 C18.2408537,29.9416228 18.8335057,29.5907623 19.4410087,28.8813515 C19.4019712,29.8700236 19.2281586,30.6530116 18.919571,31.2303155 C18.4591742,32.0448251 17.7432521,32.4085197 16.7718049,32.3213995 C15.9095065,32.4894923 15.2915975,32.798946 14.9180779,33.2497604 C14.8998863,32.447903 14.7484708,31.8711384 14.4638315,31.5194667 L14.4169081,31.4638638 C13.9542108,30.9350964 12.8257942,30.1270929 13.312882,28.6512144 C13.5482469,28.0057127 13.8694188,27.4529808 14.2763976,26.9930187 Z M81.6928332,26.9930187 C82.099812,27.4529808 82.4209838,28.0057127 82.6563488,28.6512144 C83.1608325,30.1798028 81.9323582,30.9919591 81.5053992,31.5194667 C81.2207599,31.8711384 81.0693445,32.447903 81.0511529,33.2497604 C80.6776333,32.798946 80.0597243,32.4894923 79.1974258,32.3213995 C78.2259786,32.4085197 77.5100566,32.0448251 77.0496598,31.2303155 C76.7410721,30.6530116 76.5672596,29.8700236 76.5282221,28.8813515 C77.1357251,29.5907623 77.7283771,29.9416228 78.3061781,29.9339331 C78.8709277,29.9142922 79.5490235,30.3481992 80.3404656,31.235654 C80.2507673,30.2819011 80.472845,29.5119766 81.0066987,28.9258803 C81.6385765,28.5492869 81.6926945,27.4336999 81.6941247,27.0929782 L81.6928332,26.9930187 Z M17.3790585,23.0503727 C17.3140014,23.8404041 17.453235,24.4498437 17.7967592,24.8786917 C18.1721392,25.4844922 18.2169751,26.1763901 17.9312669,26.9543853 C18.6651063,26.3190071 19.4371115,26.0346415 20.2472824,26.1012884 C20.9242319,25.9579841 21.3541149,25.7226478 21.5369314,25.3952794 C21.3002386,27.2365167 20.5656447,28.0993534 19.3331497,27.9837895 C18.152928,27.9691422 17.38514,28.1493751 17.0297855,28.5244881 C17.1225975,27.6252721 16.9725136,26.9296629 16.5795337,26.4376605 C16.0696549,25.8451191 15.9821976,25.1521378 16.3171619,24.3587167 L17.3790585,23.0503727 Z M78.5901723,23.0503727 L79.6520688,24.3587167 C79.9870331,25.1521378 79.8995759,25.8451191 79.389697,26.4376605 C78.9967172,26.9296629 78.8466333,27.6252721 78.9394453,28.5244881 C78.5840908,28.1493751 77.8163027,27.9691422 76.6360811,27.9837895 C75.4035861,28.0993534 74.6689922,27.2365167 74.4322994,25.3952794 C74.6151158,25.7226478 75.0449988,25.9579841 75.7219483,26.1012884 C76.5321193,26.0346415 77.3041245,26.3190071 78.0379639,26.9543853 C77.7522557,26.1763901 77.7970915,25.4844922 78.1724715,24.8786917 C78.5159958,24.4498437 78.6552294,23.8404041 78.5901723,23.0503727 Z M75.1977851,19.3903124 C75.9168513,19.9904176 76.3636602,20.4654556 76.5382117,20.8154264 C76.6634647,21.2508831 76.5897866,21.7616816 76.3171772,22.347822 C76.0809542,22.9392832 76.0695281,23.4775558 76.282899,23.96264 C75.6375871,23.6392228 75.0457931,23.5495095 74.507517,23.6935003 C73.7649241,24.017334 73.1499361,23.8820765 72.662553,23.2877276 L72.6210899,23.2356591 C72.4132905,22.986297 72.2419534,22.6147243 72.1070785,22.1209412 C72.6185002,22.4494211 73.0987321,22.5208529 73.5477742,22.3352367 C74.3749523,22.3213532 74.9431007,22.4847261 75.2522192,22.8253552 C74.9412846,22.0688038 74.8965835,21.4693378 75.1181158,21.0269572 L75.1438261,20.9784502 C75.4836803,20.3716592 75.2522462,19.5614475 75.20552,19.4138785 L75.1977851,19.3903124 Z M20.7714457,19.3903124 L20.7546339,19.4434802 C20.6953767,19.6425875 20.5146566,20.3617077 20.7990859,20.9288223 L20.8254046,20.9784502 C21.0755933,21.4251484 21.0394623,22.0407834 20.7170116,22.8253552 C21.0261301,22.4847261 21.5942784,22.3213532 22.4214566,22.3352367 C22.8704987,22.5208529 23.3507306,22.4494211 23.8621523,22.1209412 C23.736269,22.5818055 23.5786231,22.9362108 23.3892146,23.1841572 L23.3481409,23.2356591 C22.8543327,23.8739727 22.2255236,24.0265864 21.4617137,23.6935003 C20.9234377,23.5495095 20.3316437,23.6392228 19.6863318,23.96264 C19.8997026,23.4775558 19.8882766,22.9392832 19.6520536,22.347822 C19.3794442,21.7616816 19.305766,21.2508831 19.4310191,20.8154264 C19.6055706,20.4654556 20.0523795,19.9904176 20.7714457,19.3903124 Z M71.7051709,16.6751841 C72.5414296,17.1036857 73.0014572,17.6040134 73.0852535,18.1761673 L73.0065313,18.8826412 C72.9987251,18.9478283 72.992222,18.9992929 72.987022,19.0370348 C72.8818915,19.4719911 72.9596476,19.8598983 73.2202905,20.2007563 C72.8151308,20.1157897 72.4124919,20.1003395 72.0123737,20.1544057 C71.2168051,20.6747019 70.5899542,20.7027132 70.1318211,20.2384395 L70.0329811,20.1373498 C69.5318013,19.6197589 69.4391705,19.4427549 69.4225971,19.4009462 L69.419153,19.3905757 C69.9856476,19.5254458 70.4037064,19.5200111 70.6732774,19.3740083 C71.2136929,19.2263744 71.6592709,19.223555 72.0100113,19.3655502 C71.6787904,18.6769647 71.6342673,18.188775 71.8764419,17.9009811 C72.0744758,17.4895299 71.8069264,16.8823469 71.7266694,16.7176843 L71.7051709,16.6751841 Z M24.2640599,16.6751841 L24.2425614,16.7176843 C24.1623044,16.8823469 23.894755,17.4895299 24.0927889,17.9009811 C24.3349635,18.188775 24.2904404,18.6769647 23.9592195,19.3655502 C24.3099599,19.223555 24.7555378,19.2263744 25.2959533,19.3740083 C25.5655244,19.5200111 25.9835832,19.5254458 26.5501297,19.3903124 L26.5466337,19.4009462 L26.5396931,19.4164389 C26.5069915,19.4832467 26.3736584,19.6950031 25.8374097,20.2384395 C25.3792766,20.7027132 24.7524257,20.6747019 23.9568571,20.1544057 C23.5567389,20.1003395 23.1541,20.1157897 22.7489403,20.2007563 C23.0095832,19.8598983 23.0873393,19.4719911 22.9822087,19.0370348 L22.9578594,18.8418822 C22.939539,18.6863946 22.9149116,18.4644896 22.8839772,18.1761673 C22.9677736,17.6040134 23.4278011,17.1036857 24.2640599,16.6751841 Z M68.5679557,14.8250426 C69.4748887,15.0905184 69.9736077,15.4986524 70.0641126,16.0494444 C69.9673145,16.8380548 70.082135,17.3727135 70.4085743,17.6534208 C69.7052499,17.7257501 69.230466,17.8658122 68.9842226,18.0736071 L68.8810596,18.1598825 C68.5716091,18.4141939 68.3586116,18.5277005 67.9370833,18.2429593 L67.0889992,17.5968786 C67.5076353,17.5404138 67.8685232,17.4277052 68.1716629,17.2587527 C68.5841951,17.0943933 69.0225103,17.0693554 69.4866087,17.183639 C69.0747853,16.7622106 68.8678971,16.3778993 68.865944,16.0307052 L68.8669479,15.9835906 C68.8887853,15.5333916 68.6656991,15.0272748 68.591478,14.8724975 L68.5679557,14.8250426 Z M27.4012751,14.8250426 L27.3862266,14.8550097 C27.3250946,14.9798017 27.0986896,15.4729022 27.1008003,15.927054 L27.1022828,15.9835906 C27.1197183,16.3430386 26.9131647,16.7430548 26.4826221,17.183639 C26.9467204,17.0693554 27.3850357,17.0943933 27.7975679,17.2587527 C28.1007075,17.4277052 28.4615954,17.5404138 28.8802316,17.5968786 L28.0321474,18.2429593 C27.5654554,18.5582085 27.3543732,18.3852993 26.9850081,18.0736071 C26.7387648,17.8658122 26.2639809,17.7257501 25.5606565,17.6534208 C25.8870958,17.3727135 26.0019163,16.8380548 25.9051182,16.0494444 C25.9956231,15.4986524 26.4943421,15.0905184 27.4012751,14.8250426 Z M30.0205006,13.4 C29.8784288,13.6227037 29.8132288,13.823488 29.8249006,14.0023527 C29.8259326,14.5798551 29.6173331,14.9545318 29.1991018,15.1263829 C29.8310852,15.1152829 30.2530337,15.2529571 30.4649475,15.5394053 C30.6230848,15.6887305 30.8302589,15.756271 31.0864699,15.7420267 C30.4466705,16.1630183 29.8374076,16.2967498 29.3996521,15.8885545 C29.1113766,15.6301113 28.7670252,15.5222755 28.3665979,15.5650469 L28.3981819,15.5285771 C28.5011543,15.4049736 28.8210087,14.9820343 28.8289441,14.4889083 C28.7640098,13.9353724 29.1611953,13.572403 30.0205006,13.4 Z M65.9487301,13.4 C66.8080355,13.572403 67.205221,13.9353724 67.1402866,14.4889083 C67.1497481,15.0768662 67.6026328,15.5650469 67.6026328,15.5650469 C67.2022055,15.5222755 66.8578541,15.6301113 66.5695787,15.8885545 C66.1318231,16.2967498 65.5225603,16.1630183 64.8827608,15.7420267 C65.1389718,15.756271 65.346146,15.6887305 65.5042833,15.5394053 C65.716197,15.2529571 66.1381456,15.1152829 66.7701289,15.1263829 C66.3518977,14.9545318 66.1432981,14.5798551 66.1443302,14.0023527 C66.156002,13.823488 66.090802,13.6227037 65.9487301,13.4 Z" id="path-6"></path>
        <filter x="-5.1%" y="-2.9%" width="110.3%" height="111.6%" filterUnits="objectBoundingBox" id="filter-7">
            <feOffset dx="0" dy="2" in="SourceAlpha" result="shadowOffsetOuter1"></feOffset>
            <feGaussianBlur stdDeviation="1" in="shadowOffsetOuter1" result="shadowBlurOuter1"></feGaussianBlur>
            <feColorMatrix values="0 0 0 0 0   0 0 0 0 0.290980179   0 0 0 0 0.5330899  0 0 0 0.15 0" type="matrix" in="shadowBlurOuter1"></feColorMatrix>
        </filter>
    </defs>
    <g id="法律助手-法规查询-110" stroke="none" stroke-width="1" fill="none" fill-rule="evenodd">
        <g id="编组-2" filter="url(#filter-1)" transform="translate(7, 7)">
            <mask id="mask-4" fill="white">
                <use xlink:href="#path-3"></use>
            </mask>
            <use id="蒙版" fill="url(#linearGradient-2)" fill-rule="nonzero" xlink:href="#path-3"></use>
            <g id="形状结合" mask="url(#mask-4)">
                <use fill="black" fill-opacity="1" filter="url(#filter-7)" xlink:href="#path-6"></use>
                <use fill="url(#linearGradient-5)" fill-rule="evenodd" xlink:href="#path-6"></use>
            </g>
        </g>
    </g>
</svg>