<?xml version="1.0" encoding="UTF-8"?>
<svg width="15px" height="15.0000077px" viewBox="0 0 15 15.0000077" version="1.1" xmlns="http://www.w3.org/2000/svg" xmlns:xlink="http://www.w3.org/1999/xlink">
    <title>model-dark</title>
    <g id="AI助手设置备份" stroke="none" stroke-width="1" fill="none" fill-rule="evenodd">
        <g id="画板" transform="translate(-173.000000, -72.999993)" fill="#C5CFE0">
            <path d="M187.4125,79.0750038 C187.306663,78.9515705 187.122815,78.9323626 186.99375,79.0312538 L185.00625,80.531253 C184.966529,80.5569942 184.944755,80.6029624 184.95,80.650003 C184.953115,80.7062098 184.953115,80.762546 184.95,80.8187529 C184.875657,81.331075 184.400124,81.6861665 183.887786,81.6119334 C183.375447,81.5377004 183.020254,81.0622443 183.094377,80.5498903 C183.1685,80.0375362 183.64388,79.6822405 184.15625,79.7562534 C184.211991,79.7641886 184.266559,79.77888 184.31875,79.8000034 C184.358236,79.8190674 184.404264,79.8190674 184.44375,79.8000034 L184.88125,79.4687536 C185.019321,79.3652002 185.047303,79.1693249 184.94375,79.0312538 L184.40625,78.3187542 C184.35059,78.2394348 184.259394,78.1926674 184.1625,78.1937542 L184.0625,78.1937542 C183.544733,78.119541 183.185162,77.6396465 183.259375,77.1218798 C183.333588,76.6041131 183.813483,76.244542 184.33125,76.3187552 C184.57579,76.3543016 184.796176,76.4855834 184.943878,76.6836925 C185.091581,76.8818016 185.154489,77.1304928 185.11875,77.3750047 L185.11875,77.4750046 C185.0951,77.5675823 185.113387,77.6658769 185.16875,77.7437545 L185.70625,78.4562541 C185.755505,78.5238399 185.829794,78.5688636 185.9125,78.581254 C185.994584,78.5888217 186.076654,78.5666406 186.14375,78.5187541 L186.93125,77.8937544 C186.995761,77.848219 187.038703,77.7781549 187.05,77.7000045 C187.06239,77.592144 187.066569,77.4834982 187.0625,77.3750047 C187.0625,76.1668824 186.083123,75.1875058 184.875,75.1875058 C184.792618,73.9544779 183.767024,72.9972579 182.53125,73 C182.006415,72.9995635 181.497127,73.1781451 181.0875,73.5062566 C181.012146,73.5646037 180.968251,73.6547055 180.96875,73.7500065 L180.96875,79.2500037 C180.96875,79.508887 180.758883,79.7187534 180.5,79.7187534 C180.241117,79.7187534 180.03125,79.508887 180.03125,79.2500037 L180.03125,73.7500065 C180.031749,73.6547055 179.987854,73.5646037 179.9125,73.5062566 C179.502873,73.1781451 178.993585,72.9995635 178.46875,73 C177.235226,72.9970387 176.210521,73.9506966 176.125,75.1812558 C175.543754,75.1812534 174.986406,75.4125791 174.57599,75.8241675 C174.165574,76.2357559 173.935839,76.7937617 173.9375,77.3750047 C173.938321,77.4923298 173.948773,77.6093896 173.96875,77.7250045 C173.980047,77.8031549 174.022989,77.873219 174.0875,77.9187544 L174.875,78.5125041 C174.942096,78.5603906 175.024166,78.5825717 175.10625,78.575004 C175.188956,78.5626136 175.263245,78.5175899 175.3125,78.4500041 L175.85,77.7375045 C175.905363,77.6596269 175.92365,77.5613323 175.9,77.4687546 L175.9,77.3687547 C175.825146,76.8637619 176.170819,76.3926437 176.675,76.3125052 C177.009936,76.2644977 177.345042,76.3988233 177.554086,76.6648828 C177.76313,76.9309424 177.814354,77.2883152 177.688461,77.6023824 C177.562569,77.9164495 177.278686,78.1394967 176.94375,78.1875042 L176.84375,78.1875042 C176.746856,78.1864174 176.65566,78.2331848 176.6,78.3125042 L176.0625,79.0125038 C175.958947,79.1505749 175.986929,79.3464502 176.125,79.4500036 L176.55625,79.7812534 C176.598054,79.7997076 176.645696,79.7997076 176.6875,79.7812534 C176.739691,79.76013 176.794259,79.7454387 176.85,79.7375034 C177.36237,79.6634905 177.83775,80.0187862 177.911873,80.5311403 C177.985996,81.0434943 177.630803,81.5189504 177.118464,81.5931834 C176.606126,81.6674165 176.130593,81.3123251 176.05625,80.8000029 C176.053135,80.743796 176.053135,80.6874598 176.05625,80.631253 C176.061495,80.5842124 176.039721,80.5382442 176,80.512503 L174.00625,79.0312538 C173.877185,78.9323626 173.693337,78.9515705 173.5875,79.0750038 C173.223286,79.4617192 173.014158,79.9689662 173,80.5 C173.030439,81.2387275 173.414151,81.9177803 174.03125,82.3250021 C174.156017,82.4112645 174.200821,82.574667 174.1375,82.7125019 C173.883501,83.2618889 173.869915,83.8922691 174.100011,84.4520887 C174.330106,85.0119082 174.783069,85.4505294 175.35,85.6625004 C175.467464,85.7059828 175.599507,85.6766399 175.6875,85.5875004 L176.75,84.543751 C176.78092,84.5099901 176.79473,84.463957 176.7875,84.418751 C176.768746,84.3640755 176.756168,84.3074735 176.75,84.2500011 C176.75,83.7322344 177.169733,83.3125016 177.6875,83.3125016 C178.205267,83.3125016 178.625,83.7322344 178.625,84.2500011 C178.625,84.7677678 178.205267,85.1875006 177.6875,85.1875006 C177.631418,85.1936429 177.574832,85.1936429 177.51875,85.1875006 C177.473544,85.1802704 177.427511,85.1940803 177.39375,85.2250006 L176.38125,86.2187501 C176.294612,86.3108247 176.26794,86.4441857 176.3125,86.5624999 C176.676887,87.4315885 177.526365,87.9979065 178.46875,88 C178.993585,88.0004426 179.502873,87.821861 179.9125,87.4937494 C179.987854,87.4354024 180.031749,87.3453006 180.03125,87.2499996 L180.03125,85.8125003 C180.03125,85.553617 180.241117,85.3437505 180.5,85.3437505 C180.758883,85.3437505 180.96875,85.553617 180.96875,85.8125003 L180.96875,87.2499996 C180.968251,87.3453006 181.012146,87.4354024 181.0875,87.4937494 C181.497127,87.821861 182.006415,88.0004426 182.53125,88 C183.473635,87.9979065 184.323113,87.4315885 184.6875,86.5624999 C184.73206,86.4441857 184.705388,86.3108247 184.61875,86.2187501 L183.625,85.2062506 C183.591239,85.1753303 183.545206,85.1615204 183.5,85.1687506 C183.443918,85.1748929 183.387332,85.1748929 183.33125,85.1687506 C182.94876,85.1763269 182.600036,84.9507367 182.450142,84.5987598 C182.300248,84.2467828 182.379257,83.839037 182.649771,83.5685227 C182.920286,83.2980084 183.328032,83.2189994 183.680009,83.3688935 C184.031986,83.5187876 184.257576,83.8675111 184.25,84.2500011 C184.256142,84.3060834 184.256142,84.3626687 184.25,84.418751 C184.24277,84.463957 184.25658,84.5099901 184.2875,84.543751 L185.33125,85.5875004 C185.419243,85.6766399 185.551286,85.7059828 185.66875,85.6625004 C186.235681,85.4505294 186.688644,85.0119082 186.918739,84.4520887 C187.148835,83.8922691 187.135249,83.2618889 186.88125,82.7125019 C186.817929,82.574667 186.862733,82.4112645 186.9875,82.3250021 C187.597465,81.9136223 187.973816,81.2352617 188,80.5 C187.985842,79.9689662 187.776714,79.4617192 187.4125,79.0750038 L187.4125,79.0750038 Z" id="model-dark"></path>
        </g>
    </g>
</svg>