<?xml version="1.0" encoding="UTF-8"?>
<svg width="21px" height="20px" viewBox="0 0 21 20" version="1.1" xmlns="http://www.w3.org/2000/svg" xmlns:xlink="http://www.w3.org/1999/xlink">
    <title>续写</title>
    <g id="续写" stroke="none" fill="none" transform="translate(0.5, 0)">
        <rect id="矩形" opacity="0.27011399" x="0" y="0" width="20" height="20"></rect>
        <path d="M8.5,4 L15.5,4 C15.7761424,4 16,4.22385763 16,4.5 C16,4.77614237 15.7761424,5 15.5,5 L8.5,5 C8.22385763,5 8,4.77614237 8,4.5 C8,4.22385763 8.22385763,4 8.5,4 Z M5.08021154,3 C5.25132654,3.97882198 6.01739447,4.74488615 6.98849653,4.91475764 L6.99621154,5.084 C6.01739447,5.25511385 5.25132654,6.02117802 5.0814541,6.99228327 L4.91141154,7 C4.74109654,6.02117802 3.9750286,5.25511385 2.99621154,5.084 L2.99621154,4.9152 C3.9750286,4.74488615 4.74109654,3.97882198 4.91141154,3 L5.08021154,3 Z M3.5,8.02512627 L11.5,8.02512627 C11.7761424,8.02512627 12,8.24898389 12,8.52512627 C12,8.80126864 11.7761424,9.02512627 11.5,9.02512627 L3.5,9.02512627 C3.22385763,9.02512627 3,8.80126864 3,8.52512627 C3,8.24898389 3.22385763,8.02512627 3.5,8.02512627 Z M3.5,12 L11.5,12 C11.7761424,12 12,12.2238576 12,12.5 C12,12.7761424 11.7761424,13 11.5,13 L3.5,13 C3.22385763,13 3,12.7761424 3,12.5 C3,12.2238576 3.22385763,12 3.5,12 Z M3.5,16 L15.5,16 C15.7761424,16 16,16.2238576 16,16.5 C16,16.7761424 15.7761424,17 15.5,17 L3.5,17 C3.22385763,17 3,16.7761424 3,16.5 C3,16.2238576 3.22385763,16 3.5,16 Z M15.8725145,10.8535534 L14.1047475,12.6213203 C13.9094854,12.8165825 13.5929029,12.8165825 13.3976408,12.6213203 C13.2023786,12.4260582 13.2023786,12.1094757 13.3976408,11.9142136 L14.8118543,10.5 L14.8118543,10.5 L13.3976408,9.08578644 C13.2023786,8.89052429 13.2023786,8.5739418 13.3976408,8.37867966 C13.5929029,8.18341751 13.9094854,8.18341751 14.1047475,8.37867966 L15.8725145,10.1464466 C16.0677766,10.3417088 16.0677766,10.6582912 15.8725145,10.8535534 Z" id="形状结合" fill-opacity="1" fill="#000000" fill-rule="evenodd"></path>
    </g>
</svg>