<?xml version="1.0" encoding="UTF-8"?>
<svg width="16px" height="16px" viewBox="0 0 16 16" version="1.1" xmlns="http://www.w3.org/2000/svg" xmlns:xlink="http://www.w3.org/1999/xlink">
    <title>status-ai-assistant</title>
    <g id="status-ai-assistant" stroke="none" stroke-width="1" fill="none" fill-rule="evenodd">
        <path d="M10.3476136,1.00923574 C11.3594294,1.00923574 12.2980905,1.53659771 12.8244027,2.40075434 L13.905764,4.17625101 L13.9311093,4.22471966 L13.9706173,4.28487875 L15.2608643,6.56273694 C15.7709775,7.46331294 15.7624543,8.56749421 15.2384995,9.4600882 L12.8228157,13.5753764 C12.302105,14.4624438 11.3504649,15.0073095 10.3218598,15.0073095 L5.67989975,15.0073095 C4.64661951,15.0073095 3.69138885,14.4575207 3.17234047,13.5640685 L2.16283367,11.8263768 L2.13786202,11.7778577 L2.10717868,11.7302909 L0.803423514,9.4597709 C0.289085011,8.56403842 0.289997008,7.46234318 0.805817801,6.56746348 L3.17283829,2.46100126 C3.69060633,1.56274334 4.64853206,1.00923574 5.68533051,1.00923574 L10.3476136,1.00923574 Z M11.3060764,7.73690229 L10.2103099,5.54223574 L6.7193571,11.2842087 C6.44724204,11.7316822 5.96144516,12.004832 5.43772846,12.004832 L3.42230993,12.0052357 L4.04130993,13.0682357 L4.12045899,13.1927637 L4.21987173,13.3232333 L4.33960862,13.4540766 L4.44747003,13.5534171 L4.57313356,13.651689 L4.63896157,13.6967942 L4.7655328,13.7728229 L4.85210852,13.8175092 L4.97126735,13.8702367 L5.13418553,13.9272937 L5.2049632,13.9470378 L5.30752301,13.9705061 C5.37887013,13.9847624 5.45136234,13.9949789 5.52468889,14.0009768 L5.67989975,14.0073095 L7.19927416,14.0073095 C7.54818648,14.0073095 7.87187074,13.8254499 8.05335443,13.5274508 L11.2856216,8.22001609 C11.3750331,8.07320099 11.382758,7.8907497 11.3060764,7.73690229 Z M13.2302847,5.007549 L11.0633099,5.00723574 L12.2010663,7.29081592 C12.431111,7.75235814 12.4079363,8.29971202 12.1397019,8.74015733 L8.93130993,14.0073095 L10.3218598,14.0073095 C10.9957735,14.0073095 11.6192619,13.6503285 11.9604171,13.0691464 L14.376101,8.95385824 C14.7193817,8.36905527 14.7249659,7.64562615 14.3907538,7.05559358 L13.2302847,5.007549 Z M7.14030993,2.00923574 L5.68533051,2.00923574 C5.00604876,2.00923574 4.37844223,2.37187866 4.03921489,2.96039248 L1.6721944,7.06685469 C1.33424284,7.6531552 1.33364533,8.37495554 1.67062573,8.96181476 L2.84410471,11.004832 L5.13830993,11.0042357 L3.86131594,8.76579906 C3.58817478,8.28714213 3.59950743,7.69725205 3.89083167,7.22943933 L7.14030993,2.00923574 Z M10.3476136,2.00923574 L8.87500754,2.00923574 C8.52963811,2.00923574 8.20871503,2.18744846 8.02614696,2.48061895 L4.73969225,7.75805611 C4.64258417,7.91399369 4.63880662,8.11062371 4.72985368,8.27017603 L6.013,10.519832 L9.5357907,4.72817231 C9.80790576,4.28069877 10.2937026,4.007549 10.8174193,4.007549 L12.631,4.007832 L11.9703375,2.92092035 C11.6542477,2.40192973 11.1111488,2.06835359 10.5122149,2.01636167 L10.3476136,2.00923574 Z" id="形状" fill="#FFFFFF" fill-rule="nonzero"></path>
    </g>
</svg>