<?xml version="1.0" encoding="UTF-8"?>
<svg width="110px" height="110px" viewBox="0 0 110 110" version="1.1" xmlns="http://www.w3.org/2000/svg" xmlns:xlink="http://www.w3.org/1999/xlink">
    <title>招投标宝典-110</title>
    <defs>
        <filter x="-7.3%" y="-5.2%" width="114.6%" height="114.6%" filterUnits="objectBoundingBox" id="filter-1">
            <feOffset dx="0" dy="2" in="SourceAlpha" result="shadowOffsetOuter1"></feOffset>
            <feGaussianBlur stdDeviation="2" in="shadowOffsetOuter1" result="shadowBlurOuter1"></feGaussianBlur>
            <feColorMatrix values="0 0 0 0 0   0 0 0 0 0   0 0 0 0 0  0 0 0 0.2 0" type="matrix" in="shadowBlurOuter1" result="shadowMatrixOuter1"></feColorMatrix>
            <feMerge>
                <feMergeNode in="shadowMatrixOuter1"></feMergeNode>
                <feMergeNode in="SourceGraphic"></feMergeNode>
            </feMerge>
        </filter>
        <linearGradient x1="50%" y1="0%" x2="50%" y2="100%" id="linearGradient-2">
            <stop stop-color="#81EF5A" offset="0%"></stop>
            <stop stop-color="#00BF88" offset="100%"></stop>
        </linearGradient>
        <path d="M21.1891892,0 L74.8108108,0 C86.5132769,0 96,9.48672314 96,21.1891892 L96,74.8108108 C96,86.5132769 86.5132769,96 74.8108108,96 L21.1891892,96 C9.48672314,96 0,86.5132769 0,74.8108108 L0,21.1891892 C0,9.48672314 9.48672314,0 21.1891892,0 Z" id="path-3"></path>
        <linearGradient x1="23.963712%" y1="0%" x2="57.8490472%" y2="100%" id="linearGradient-5">
            <stop stop-color="#EEFEF4" offset="0%"></stop>
            <stop stop-color="#87F4BB" offset="100%"></stop>
        </linearGradient>
        <linearGradient x1="-6.6266843%" y1="26.2224179%" x2="55.4776816%" y2="50%" id="linearGradient-6">
            <stop stop-color="#EEFEF4" offset="0%"></stop>
            <stop stop-color="#87F4BB" offset="100%"></stop>
        </linearGradient>
        <linearGradient x1="53.2737835%" y1="2.30999754%" x2="50%" y2="97.6900025%" id="linearGradient-7">
            <stop stop-color="#F1FFF6" offset="0%"></stop>
            <stop stop-color="#90E3B9" offset="100%"></stop>
        </linearGradient>
        <radialGradient cx="50%" cy="50%" fx="50%" fy="50%" r="40.4335179%" gradientTransform="translate(0.5, 0.5), scale(0.9766, 1), rotate(90), scale(1, 1.0317), translate(-0.5, -0.5)" id="radialGradient-8">
            <stop stop-color="#27D188" stop-opacity="0.5" offset="0%"></stop>
            <stop stop-color="#27D188" stop-opacity="0" offset="100%"></stop>
        </radialGradient>
        <radialGradient cx="50%" cy="64.3892989%" fx="50%" fy="64.3892989%" r="35.6107011%" gradientTransform="translate(0.5, 0.6439), scale(0.9766, 1), rotate(90), scale(1, 1.5316), translate(-0.5, -0.6439)" id="radialGradient-9">
            <stop stop-color="#39D094" offset="0%"></stop>
            <stop stop-color="#39D094" stop-opacity="0" offset="100%"></stop>
        </radialGradient>
        <radialGradient cx="50%" cy="65.7514398%" fx="50%" fy="65.7514398%" r="14.0055603%" gradientTransform="translate(0.5, 0.6575), scale(0.9766, 1), rotate(90), scale(1, 2.8115), translate(-0.5, -0.6575)" id="radialGradient-10">
            <stop stop-color="#63E698" offset="0%"></stop>
            <stop stop-color="#63E698" stop-opacity="0" offset="100%"></stop>
        </radialGradient>
        <path d="M35.0864355,75.5800934 C52.8298418,74.0755129 65.9455335,58.8064631 64.3811529,41.475716 C62.8167723,24.144969 47.1647185,11.3153261 29.4213122,12.8199066 C11.677906,14.3244871 -1.43778572,29.5935369 0.126594876,46.924284 C1.69097547,64.255031 17.3430293,77.0846739 35.0864355,75.5800934 Z" id="path-11"></path>
        <filter x="-5.4%" y="-5.6%" width="110.9%" height="111.1%" filterUnits="objectBoundingBox" id="filter-12">
            <feGaussianBlur stdDeviation="2.5" in="SourceAlpha" result="shadowBlurInner1"></feGaussianBlur>
            <feOffset dx="0" dy="-1" in="shadowBlurInner1" result="shadowOffsetInner1"></feOffset>
            <feComposite in="shadowOffsetInner1" in2="SourceAlpha" operator="arithmetic" k2="-1" k3="1" result="shadowInnerInner1"></feComposite>
            <feColorMatrix values="0 0 0 0 0.890196078   0 0 0 0 0.996078431   0 0 0 0 0.929411765  0 0 0 0.657120711 0" type="matrix" in="shadowInnerInner1" result="shadowMatrixInner1"></feColorMatrix>
            <feGaussianBlur stdDeviation="1.5" in="SourceAlpha" result="shadowBlurInner2"></feGaussianBlur>
            <feOffset dx="-4" dy="-4" in="shadowBlurInner2" result="shadowOffsetInner2"></feOffset>
            <feComposite in="shadowOffsetInner2" in2="SourceAlpha" operator="arithmetic" k2="-1" k3="1" result="shadowInnerInner2"></feComposite>
            <feColorMatrix values="0 0 0 0 0.556862745   0 0 0 0 0.921568627   0 0 0 0 0.729411765  0 0 0 0.181995525 0" type="matrix" in="shadowInnerInner2" result="shadowMatrixInner2"></feColorMatrix>
            <feMerge>
                <feMergeNode in="shadowMatrixInner1"></feMergeNode>
                <feMergeNode in="shadowMatrixInner2"></feMergeNode>
            </feMerge>
        </filter>
        <radialGradient cx="50%" cy="50%" fx="50%" fy="50%" r="50%" gradientTransform="translate(0.5, 0.5), scale(0.898, 1), rotate(90), translate(-0.5, -0.5)" id="radialGradient-13">
            <stop stop-color="#46D094" offset="0%"></stop>
            <stop stop-color="#46D094" stop-opacity="0.49093009" offset="100%"></stop>
        </radialGradient>
        <filter x="-12.2%" y="-13.6%" width="124.5%" height="127.3%" filterUnits="objectBoundingBox" id="filter-14">
            <feGaussianBlur stdDeviation="2" in="SourceGraphic"></feGaussianBlur>
        </filter>
        <radialGradient cx="50%" cy="50%" fx="50%" fy="50%" r="50%" gradientTransform="translate(0.5, 0.5), scale(0.5, 1), rotate(90), scale(1, 0.913), translate(-0.5, -0.5)" id="radialGradient-15">
            <stop stop-color="#4ADE94" offset="0%"></stop>
            <stop stop-color="#4ADE94" offset="100%"></stop>
        </radialGradient>
        <filter x="-6.8%" y="-13.6%" width="113.6%" height="127.3%" filterUnits="objectBoundingBox" id="filter-16">
            <feGaussianBlur stdDeviation="1" in="SourceGraphic"></feGaussianBlur>
        </filter>
        <radialGradient cx="81.4653236%" cy="44.7867309%" fx="81.4653236%" fy="44.7867309%" r="30.0996482%" gradientTransform="translate(0.8147, 0.4479), scale(1, 0.7778), rotate(12.2181), scale(1, 2.6367), translate(-0.8147, -0.4479)" id="radialGradient-17">
            <stop stop-color="#D7FCC8" offset="0%"></stop>
            <stop stop-color="#8CF0AB" stop-opacity="0.345504334" offset="100%"></stop>
        </radialGradient>
        <filter x="-21.4%" y="-16.7%" width="142.9%" height="133.3%" filterUnits="objectBoundingBox" id="filter-18">
            <feGaussianBlur stdDeviation="2" in="SourceGraphic"></feGaussianBlur>
        </filter>
        <linearGradient x1="95.3338095%" y1="42.397595%" x2="5.05210594%" y2="58.8806454%" id="linearGradient-19">
            <stop stop-color="#18252C" offset="0%"></stop>
            <stop stop-color="#15352C" offset="51.1190241%"></stop>
            <stop stop-color="#47736A" offset="100%"></stop>
        </linearGradient>
        <linearGradient x1="50%" y1="0%" x2="50%" y2="100%" id="linearGradient-20">
            <stop stop-color="#285643" offset="0%"></stop>
            <stop stop-color="#09502C" offset="100%"></stop>
        </linearGradient>
        <path d="M43.6095609,29.7006921 C46.7590715,30.2559457 50.860469,31.8713884 52.7576334,34.5960852 C53.183215,35.2073035 53.5453484,35.8987381 53.6610487,36.6416676 C53.7867089,37.448082 53.8701051,38.2913542 53.86103,39.105614 C53.8466863,40.3852378 53.8537011,41.6659236 53.8574576,42.9455144 C53.862425,44.6298356 53.9334623,47.7397672 53.6610487,49.2186987 C53.3407004,50.9581263 51.9086675,52.3521473 50.4957017,53.3100593 C43.7330917,57.8946069 28.6861486,57.4481756 20.9571355,55.9482886 L20.3107274,55.7919448 C17.141633,55.0045281 13.3797528,53.7338573 11.4892869,50.9878359 C11.3841389,50.8381771 11.287383,50.6832943 11.1990193,50.5231876 C11.1106741,50.363012 11.0311986,50.1985912 10.9605929,50.0299254 C10.8900057,49.8611905 10.8287061,49.6891363 10.7766941,49.5137629 C10.7247327,49.3384771 10.6823456,49.1608736 10.6495326,48.9809524 C10.2104833,46.4901435 10.4838856,43.8547472 10.4864202,41.3429823 C10.488042,39.8051428 10.4900291,38.1423054 10.7766941,36.6416676 C11.0938626,34.9816254 12.2718135,33.396549 13.642268,32.4908369 C14.8039492,31.7230637 16.1928994,31.1575738 17.5025636,30.6924717 C18.9115611,30.1921709 20.3626701,29.7393328 21.8300576,29.4444509 C28.2293827,28.1583951 37.2567227,28.4190631 43.6095609,29.7006921 Z" id="path-21"></path>
        <filter x="-9.2%" y="-7.0%" width="118.4%" height="128.2%" filterUnits="objectBoundingBox" id="filter-22">
            <feOffset dx="0" dy="2" in="SourceAlpha" result="shadowOffsetOuter1"></feOffset>
            <feGaussianBlur stdDeviation="1" in="shadowOffsetOuter1" result="shadowBlurOuter1"></feGaussianBlur>
            <feComposite in="shadowBlurOuter1" in2="SourceAlpha" operator="out" result="shadowBlurOuter1"></feComposite>
            <feColorMatrix values="0 0 0 0 0.498039216   0 0 0 0 0.874509804   0 0 0 0 0.698039216  0 0 0 1 0" type="matrix" in="shadowBlurOuter1"></feColorMatrix>
        </filter>
        <filter x="-12.7%" y="-12.3%" width="125.3%" height="138.7%" filterUnits="objectBoundingBox" id="filter-23">
            <feGaussianBlur stdDeviation="1.5" in="SourceAlpha" result="shadowBlurInner1"></feGaussianBlur>
            <feOffset dx="0" dy="4" in="shadowBlurInner1" result="shadowOffsetInner1"></feOffset>
            <feComposite in="shadowOffsetInner1" in2="SourceAlpha" operator="arithmetic" k2="-1" k3="1" result="shadowInnerInner1"></feComposite>
            <feColorMatrix values="0 0 0 0 0.0588235294   0 0 0 0 0.2   0 0 0 0 0.160784314  0 0 0 1 0" type="matrix" in="shadowInnerInner1"></feColorMatrix>
        </filter>
        <linearGradient x1="50.0000166%" y1="40.9065518%" x2="50%" y2="63.3114383%" id="linearGradient-24">
            <stop stop-color="#FFFFFF" offset="0%"></stop>
            <stop stop-color="#9DE8C6" offset="50.449238%"></stop>
            <stop stop-color="#FFFFFF" offset="100%"></stop>
        </linearGradient>
        <path d="M19.9,36.7 L21.0142857,36.7 C21.1799711,36.7 21.3142857,36.8343146 21.3142857,37 L21.3142857,37.7043478 C21.3142857,37.8700332 21.1799711,38.0043478 21.0142857,38.0043478 L19.9,38.0043478 C19.7343146,38.0043478 19.6,37.8700332 19.6,37.7043478 L19.6,37 C19.6,36.8343146 19.7343146,36.7 19.9,36.7 Z M19.9,38.4391304 L21.0142857,38.4391304 C21.1799711,38.4391304 21.3142857,38.573445 21.3142857,38.7391304 L21.3142857,39.4434782 C21.3142857,39.6091637 21.1799711,39.7434783 21.0142857,39.7434783 L19.9,39.7434783 C19.7343146,39.7434783 19.6,39.6091637 19.6,39.4434782 L19.6,38.7391304 C19.6,38.573445 19.7343146,38.4391304 19.9,38.4391304 Z M19.9,40.1782609 L21.0142857,40.1782609 C21.1799711,40.1782609 21.3142857,40.3125754 21.3142857,40.4782609 L21.3142857,41.1826087 C21.3142857,41.3482941 21.1799711,41.4826087 21.0142857,41.4826087 L19.9,41.4826087 C19.7343146,41.4826087 19.6,41.3482941 19.6,41.1826087 L19.6,40.4782609 C19.6,40.3125754 19.7343146,40.1782609 19.9,40.1782609 Z M19.9,41.9173913 L21.0142857,41.9173913 C21.1799711,41.9173913 21.3142857,42.0517059 21.3142857,42.2173913 L21.3142857,42.9217391 C21.3142857,43.0874246 21.1799711,43.2217391 21.0142857,43.2217391 L19.9,43.2217391 C19.7343146,43.2217391 19.6,43.0874246 19.6,42.9217391 L19.6,42.2173913 C19.6,42.0517059 19.7343146,41.9173913 19.9,41.9173913 Z M19.9,43.6565217 L21.0142857,43.6565217 C21.1799711,43.6565217 21.3142857,43.7908363 21.3142857,43.9565218 L21.3142857,44.6608696 C21.3142857,44.826555 21.1799711,44.9608696 21.0142857,44.9608696 L19.9,44.9608696 C19.7343146,44.9608696 19.6,44.826555 19.6,44.6608696 L19.6,43.9565218 C19.6,43.7908363 19.7343146,43.6565217 19.9,43.6565217 Z M19.9,45.3956522 L21.0142857,45.3956522 C21.1799711,45.3956522 21.3142857,45.5299668 21.3142857,45.6956522 L21.3142857,46.4 C21.3142857,46.5656854 21.1799711,46.7 21.0142857,46.7 L19.9,46.7 C19.7343146,46.7 19.6,46.5656854 19.6,46.4 L19.6,45.6956522 C19.6,45.5299668 19.7343146,45.3956522 19.9,45.3956522 Z M22.1857143,36.7 L23.3,36.7 C23.4656854,36.7 23.6,36.8343146 23.6,37 L23.6,37.7043478 C23.6,37.8700332 23.4656854,38.0043478 23.3,38.0043478 L22.1857143,38.0043478 C22.0200289,38.0043478 21.8857143,37.8700332 21.8857143,37.7043478 L21.8857143,37 C21.8857143,36.8343146 22.0200289,36.7 22.1857143,36.7 Z M22.1857143,38.4391304 L23.3,38.4391304 C23.4656854,38.4391304 23.6,38.573445 23.6,38.7391304 L23.6,39.4434782 C23.6,39.6091637 23.4656854,39.7434783 23.3,39.7434783 L22.1857143,39.7434783 C22.0200289,39.7434783 21.8857143,39.6091637 21.8857143,39.4434782 L21.8857143,38.7391304 C21.8857143,38.573445 22.0200289,38.4391304 22.1857143,38.4391304 Z M22.1857143,40.1782609 L23.3,40.1782609 C23.4656854,40.1782609 23.6,40.3125754 23.6,40.4782609 L23.6,41.1826087 C23.6,41.3482941 23.4656854,41.4826087 23.3,41.4826087 L22.1857143,41.4826087 C22.0200289,41.4826087 21.8857143,41.3482941 21.8857143,41.1826087 L21.8857143,40.4782609 C21.8857143,40.3125754 22.0200289,40.1782609 22.1857143,40.1782609 Z M22.1857143,41.9173913 L23.3,41.9173913 C23.4656854,41.9173913 23.6,42.0517059 23.6,42.2173913 L23.6,42.9217391 C23.6,43.0874246 23.4656854,43.2217391 23.3,43.2217391 L22.1857143,43.2217391 C22.0200289,43.2217391 21.8857143,43.0874246 21.8857143,42.9217391 L21.8857143,42.2173913 C21.8857143,42.0517059 22.0200289,41.9173913 22.1857143,41.9173913 Z M22.1857143,43.6565217 L23.3,43.6565217 C23.4656854,43.6565217 23.6,43.7908363 23.6,43.9565218 L23.6,44.6608696 C23.6,44.826555 23.4656854,44.9608696 23.3,44.9608696 L22.1857143,44.9608696 C22.0200289,44.9608696 21.8857143,44.826555 21.8857143,44.6608696 L21.8857143,43.9565218 C21.8857143,43.7908363 22.0200289,43.6565217 22.1857143,43.6565217 Z M22.1857143,45.3956522 L23.3,45.3956522 C23.4656854,45.3956522 23.6,45.5299668 23.6,45.6956522 L23.6,46.4 C23.6,46.5656854 23.4656854,46.7 23.3,46.7 L22.1857143,46.7 C22.0200289,46.7 21.8857143,46.5656854 21.8857143,46.4 L21.8857143,45.6956522 C21.8857143,45.5299668 22.0200289,45.3956522 22.1857143,45.3956522 Z" id="path-25"></path>
        <filter x="-175.0%" y="-50.0%" width="450.0%" height="240.0%" filterUnits="objectBoundingBox" id="filter-26">
            <feOffset dx="0" dy="2" in="SourceAlpha" result="shadowOffsetOuter1"></feOffset>
            <feGaussianBlur stdDeviation="2" in="shadowOffsetOuter1" result="shadowBlurOuter1"></feGaussianBlur>
            <feColorMatrix values="0 0 0 0 0   0 0 0 0 0   0 0 0 0 0  0 0 0 0.2 0" type="matrix" in="shadowBlurOuter1"></feColorMatrix>
        </filter>
        <linearGradient x1="50.000044%" y1="40.9065518%" x2="50%" y2="63.3114383%" id="linearGradient-27">
            <stop stop-color="#FFFFFF" offset="0%"></stop>
            <stop stop-color="#9DE8C6" offset="50.449238%"></stop>
            <stop stop-color="#FFFFFF" offset="100%"></stop>
        </linearGradient>
        <path d="M39.3703704,36.8 L40.7345679,36.8 L40.7345679,38.3243137 L39.3703704,38.3243137 Z M41.1358025,36.8 L42.5,36.8 L42.5,38.3243137 L41.1358025,38.3243137 Z M39.3703704,45.2423529 L40.7345679,45.2423529 L40.7345679,46.7666667 L39.3703704,46.7666667 Z M41.1358025,45.2423529 L42.5,45.2423529 L42.5,46.7666667 L41.1358025,46.7666667 Z M37.7654321,38.9105882 L39.1296296,38.9105882 L39.1296296,40.434902 L37.7654321,40.434902 Z M39.5308642,38.9105882 L40.8950617,38.9105882 L40.8950617,40.434902 L39.5308642,40.434902 Z M37.7654321,43.1317647 L39.1296296,43.1317647 L39.1296296,44.6560784 L37.7654321,44.6560784 Z M39.5308642,43.1317647 L40.8950617,43.1317647 L40.8950617,44.6560784 L39.5308642,44.6560784 Z M36,41.0211765 L37.3641975,41.0211765 L37.3641975,42.5454902 L36,42.5454902 Z M37.7654321,41.0211765 L39.1296296,41.0211765 L39.1296296,42.5454902 L37.7654321,42.5454902 Z" id="path-28"></path>
        <filter x="-107.7%" y="-50.2%" width="315.4%" height="240.5%" filterUnits="objectBoundingBox" id="filter-29">
            <feOffset dx="0" dy="2" in="SourceAlpha" result="shadowOffsetOuter1"></feOffset>
            <feGaussianBlur stdDeviation="2" in="shadowOffsetOuter1" result="shadowBlurOuter1"></feGaussianBlur>
            <feColorMatrix values="0 0 0 0 0   0 0 0 0 0   0 0 0 0 0  0 0 0 0.2 0" type="matrix" in="shadowBlurOuter1"></feColorMatrix>
        </filter>
        <radialGradient cx="2.97285743%" cy="4.98531689%" fx="2.97285743%" fy="4.98531689%" r="162.129826%" gradientTransform="translate(0.0297, 0.0499), scale(0.5604, 1), rotate(26.3095), translate(-0.0297, -0.0499)" id="radialGradient-30">
            <stop stop-color="#38D094" offset="0%"></stop>
            <stop stop-color="#6ADAAF" stop-opacity="0" offset="100%"></stop>
        </radialGradient>
        <filter x="-15.3%" y="-27.3%" width="130.6%" height="154.5%" filterUnits="objectBoundingBox" id="filter-31">
            <feGaussianBlur stdDeviation="2" in="SourceGraphic"></feGaussianBlur>
        </filter>
        <linearGradient x1="60.3442918%" y1="56.5076375%" x2="6.60842491%" y2="49.9831985%" id="linearGradient-32">
            <stop stop-color="#9FF1C2" stop-opacity="0" offset="0%"></stop>
            <stop stop-color="#A1F1C3" stop-opacity="0.301163787" offset="100%"></stop>
        </linearGradient>
        <path d="M43.6095609,29.7006921 C46.7590715,30.2559457 50.860469,31.8713884 52.7576334,34.5960852 C53.183215,35.2073035 53.5453484,35.8987381 53.6610487,36.6416676 C53.7867089,37.448082 53.8701051,38.2913542 53.86103,39.105614 C53.8466863,40.3852378 53.8537011,41.6659236 53.8574576,42.9455144 C53.862425,44.6298356 53.9334623,47.7397672 53.6610487,49.2186987 C53.3407004,50.9581263 51.9086675,52.3521473 50.4957017,53.3100593 C43.7330917,57.8946069 28.6861486,57.4481756 20.9571355,55.9482886 L20.3107274,55.7919448 C17.141633,55.0045281 13.3797528,53.7338573 11.4892869,50.9878359 C11.3841389,50.8381771 11.287383,50.6832943 11.1990193,50.5231876 C11.1106741,50.363012 11.0311986,50.1985912 10.9605929,50.0299254 C10.8900057,49.8611905 10.8287061,49.6891363 10.7766941,49.5137629 C10.7247327,49.3384771 10.6823456,49.1608736 10.6495326,48.9809524 C10.2104833,46.4901435 10.4838856,43.8547472 10.4864202,41.3429823 C10.488042,39.8051428 10.4900291,38.1423054 10.7766941,36.6416676 C11.0938626,34.9816254 12.2718135,33.396549 13.642268,32.4908369 C14.8039492,31.7230637 16.1928994,31.1575738 17.5025636,30.6924717 C18.9115611,30.1921709 20.3626701,29.7393328 21.8300576,29.4444509 C28.2293827,28.1583951 37.2567227,28.4190631 43.6095609,29.7006921 Z" id="path-33"></path>
        <filter x="-8.1%" y="-12.3%" width="116.1%" height="124.7%" filterUnits="objectBoundingBox" id="filter-34">
            <feGaussianBlur stdDeviation="1.5" in="SourceAlpha" result="shadowBlurInner1"></feGaussianBlur>
            <feOffset dx="0" dy="4" in="shadowBlurInner1" result="shadowOffsetInner1"></feOffset>
            <feComposite in="shadowOffsetInner1" in2="SourceAlpha" operator="arithmetic" k2="-1" k3="1" result="shadowInnerInner1"></feComposite>
            <feColorMatrix values="0 0 0 0 0.0588235294   0 0 0 0 0.2   0 0 0 0 0.160784314  0 0 0 0.306055136 0" type="matrix" in="shadowInnerInner1" result="shadowMatrixInner1"></feColorMatrix>
            <feGaussianBlur stdDeviation="2" in="SourceAlpha" result="shadowBlurInner2"></feGaussianBlur>
            <feOffset dx="0" dy="-2" in="shadowBlurInner2" result="shadowOffsetInner2"></feOffset>
            <feComposite in="shadowOffsetInner2" in2="SourceAlpha" operator="arithmetic" k2="-1" k3="1" result="shadowInnerInner2"></feComposite>
            <feColorMatrix values="0 0 0 0 0.0588235294   0 0 0 0 0.2   0 0 0 0 0.160784314  0 0 0 0.590502012 0" type="matrix" in="shadowInnerInner2" result="shadowMatrixInner2"></feColorMatrix>
            <feMerge>
                <feMergeNode in="shadowMatrixInner1"></feMergeNode>
                <feMergeNode in="shadowMatrixInner2"></feMergeNode>
            </feMerge>
        </filter>
        <linearGradient x1="62.9086221%" y1="15.4720896%" x2="50.4558828%" y2="100%" id="linearGradient-35">
            <stop stop-color="#285643" offset="0%"></stop>
            <stop stop-color="#9BFDBB" offset="55.9162273%"></stop>
            <stop stop-color="#9BFDBB" offset="80.5356753%"></stop>
            <stop stop-color="#09502C" offset="100%"></stop>
        </linearGradient>
        <filter x="-24.9%" y="-17.5%" width="156.6%" height="135.1%" filterUnits="objectBoundingBox" id="filter-36">
            <feGaussianBlur stdDeviation="1.07208124" in="SourceGraphic"></feGaussianBlur>
        </filter>
        <linearGradient x1="97.7546142%" y1="41.3123135%" x2="0%" y2="57.6317855%" id="linearGradient-37">
            <stop stop-color="#84FFC3" offset="0%"></stop>
            <stop stop-color="#FFF496" offset="100%"></stop>
        </linearGradient>
        <path d="M46.0965179,78.1139579 C43.5582583,78.7860836 40.953637,79.247031 38.3648824,79.6747474 C37.7762026,79.7722967 36.9939049,79.9974106 36.4153026,79.9480999 C34.1621095,80.3039942 31.9016262,80.3018503 29.6518637,80.5923544 C28.6546137,80.7327825 27.5680594,80.6556006 26.5589093,80.6502408 C22.7999781,80.6277294 18.9476685,80.5130285 15.2784705,79.6286526 C11.4772992,78.7110457 7.03995498,77.0033962 4.91841341,73.4775772 C4.87567311,73.4057551 4.83386194,73.3334328 4.79297991,73.2606103 L4.67290681,73.0405347 C4.63381158,72.9667116 4.59564548,72.8923883 4.55840853,72.8175648 C4.5211001,72.7428127 4.48475655,72.6675603 4.44937787,72.5918077 C4.41399919,72.5161266 4.37958538,72.4400167 4.34613644,72.3634779 C4.31261604,72.2869392 4.2800605,72.2099717 4.24846984,72.1325754 C4.21687918,72.0552506 4.18625339,71.9775327 4.15659248,71.8994218 C4.12700304,71.8213109 4.09834273,71.7428426 4.07061156,71.664017 C4.0428804,71.58512 4.01614984,71.5059371 3.99041989,71.4264683 C3.96468994,71.3469995 3.9399606,71.2672092 3.91623187,71.1870972 C3.89250313,71.1069853 3.86973928,71.0265875 3.84794029,70.9459038 L3.78575958,70.7031024 C3.76596181,70.6219185 3.74720039,70.5404845 3.72947531,70.4588003 C3.71175024,70.3771161 3.69506151,70.2952533 3.67940912,70.2132118 C3.66368526,70.1311703 3.64899775,70.0489144 3.63534658,69.9664441 C3.62176688,69.8840453 3.60915206,69.8014678 3.59750211,69.7187117 C3.58592363,69.6359555 3.5753815,69.5530565 3.56587572,69.4700144 C3.55629846,69.3870439 3.54779328,69.3039304 3.54036018,69.220674 L3.52990739,69.0958163 L3.52106272,68.9707977 C3.51563084,68.8873983 3.51127104,68.8039633 3.50798333,68.7204925 C3.50462414,68.6370217 3.50233703,68.5535152 3.50112201,68.4699729 C3.49996416,68.3864307 3.49962109,68.3028527 3.50047876,68.219239 C3.50126495,68.1356967 3.50312323,68.0521902 3.50605358,67.9687194 C3.50891247,67.8851771 3.51284343,67.8017063 3.51784648,67.718307 L3.53585744,67.4683234 C3.54293318,67.385067 3.55100952,67.3019178 3.56008648,67.2188758 C3.5692349,67.1358338 3.57938394,67.052899 3.59053358,66.9700714 C3.60168323,66.8872438 3.61386922,66.8045949 3.62709155,66.7221246 C3.64031389,66.6395828 3.65457257,66.5572555 3.6698676,66.4751425 C3.68509115,66.3929581 3.70135105,66.3109881 3.71864729,66.2292324 C3.73601501,66.1474768 3.7543476,66.0659713 3.77364506,65.9847159 C3.79294252,65.903389 3.81327633,65.822348 3.83464648,65.7415929 C4.147587,64.5230837 4.60354315,63.2898886 5.21441504,62.1882242 C6.57992492,59.7253714 10.405218,55.1328342 12.8375559,53.6882464 C12.9064907,54.5816268 12.8766869,55.4935524 12.9187125,56.3906847 C12.9837878,57.7828531 13.1717236,59.0812241 13.4537882,60.4443422 C13.2755368,60.5863426 13.1018597,60.7337385 12.9327567,60.8865301 C11.1328395,62.5413314 8.93421533,65.716616 8.87203462,68.2195605 C8.87024781,68.2933836 8.87028355,68.3672424 8.87214182,68.4411369 C8.87407157,68.51496 8.87782385,68.5887115 8.88339868,68.6623917 C8.88890203,68.7360718 8.89626365,68.8095375 8.90548355,68.8827889 C8.91470345,68.9561117 8.92571015,69.0291486 8.93850365,69.1018997 C8.95136863,69.1746508 8.96598467,69.2470445 8.98235178,69.319081 C8.99879035,69.3911174 9.01701574,69.4626893 9.03702792,69.5337967 C9.05696863,69.6049041 9.07869614,69.6754755 9.10221046,69.7455109 C9.1256533,69.8155464 9.15084721,69.8849743 9.17779219,69.9537949 C9.20473716,70.0226154 9.23336173,70.0906855 9.26366589,70.1580053 C9.29404153,70.2253965 9.32602529,70.2920016 9.35961716,70.3578206 C9.39320904,70.4235682 9.42844478,70.4884581 9.46532438,70.5524905 C9.5021325,70.6165229 9.54054874,70.6795905 9.58057311,70.7416934 C9.620526,70.8038677 9.66201555,70.86497 9.70504174,70.9250004 C9.74806794,70.9851022 9.79255931,71.0440606 9.83851586,71.1018756 C9.88447241,71.159762 9.93182266,71.2164335 9.98056662,71.2718901 C10.0293106,71.3274182 10.0794125,71.3816957 10.1308724,71.4347225 C12.8458109,74.2696564 19.7367203,75.2445066 23.4913633,75.3062521 C24.3014279,75.4247049 25.1834291,75.3731431 26.0032496,75.3712135 C29.0558937,75.3640313 32.052468,75.1108318 35.0812047,74.7512928 C36.9233619,74.4363478 38.7691642,74.1858283 40.6073547,73.8392601 C41.9963432,73.5772705 43.4718486,73.1509477 44.8718795,73.0466449 C45.8647339,72.6777798 46.9442125,72.4689599 47.9692294,72.1942138 C49.7050361,71.7290856 51.4534934,71.2271889 53.1659288,70.6829494 C53.8518464,70.4649105 54.5057087,70.1543606 55.1863731,69.9199206 C61.083356,67.8893935 66.8993967,65.4872143 72.3570407,62.4501067 C73.2512637,61.8186087 74.2395082,61.3190703 75.1741486,60.749961 C76.0744824,60.201648 76.9407241,59.5769034 77.8046071,58.9728479 C78.4268431,58.537735 79.090783,58.0962974 79.6192118,57.5477699 L79.6123505,57.4337123 C80.7370709,56.373962 81.9797203,55.4297701 83.1489321,54.4182585 C84.9152932,52.7934724 87.0594557,50.1298394 87.8267442,47.8293902 C88.2009006,46.7080015 88.2684417,45.3852968 87.7199649,44.3110749 C86.6222609,42.1610231 84.0700643,41.1488683 81.9081053,40.4476922 C81.1639737,40.1755189 80.36002,40.0887964 79.6039883,39.840528 C79.070199,39.1420318 78.711159,38.2472578 78.2648516,37.4839075 C77.6564455,36.4432382 76.9676333,35.4452334 76.3794895,34.3936301 C76.3141998,34.2768925 76.2868617,34.1805223 76.2613462,34.0508139 C77.088587,33.7810218 81.2664126,34.6574141 82.5229276,34.9929454 L82.6501999,35.0279152 C86.1619092,35.785477 89.950966,37.7003384 91.9669075,40.7862206 C93.4335147,43.0311418 93.8162477,45.8719715 93.2501888,48.4689279 C92.2812418,52.9137475 88.2204124,57.8149051 84.6492026,60.495368 C83.4076253,61.7382109 81.452578,62.9763371 79.9833978,63.992351 C79.3181714,64.4524409 78.2344045,64.93933 77.7946368,65.5967697 C76.010908,65.9796776 74.6084113,67.6204361 72.8917948,68.2576155 C71.8208929,68.8292975 70.7158987,69.3288359 69.6236624,69.8567815 C67.5497569,70.8829434 65.443832,71.8386768 63.3058876,72.7239817 C61.1680147,73.6092152 59.0029466,74.4220549 56.8106834,75.1625008 C55.8860133,75.4689773 54.9296097,75.6804771 53.9983999,75.9693732 C51.7080993,76.6799826 49.4358566,77.3777887 47.1011604,77.9009234 L46.0965179,78.1139579 Z" id="path-38"></path>
        <filter x="-1.7%" y="-3.2%" width="103.3%" height="106.4%" filterUnits="objectBoundingBox" id="filter-39">
            <feGaussianBlur stdDeviation="1" in="SourceAlpha" result="shadowBlurInner1"></feGaussianBlur>
            <feOffset dx="0" dy="1" in="shadowBlurInner1" result="shadowOffsetInner1"></feOffset>
            <feComposite in="shadowOffsetInner1" in2="SourceAlpha" operator="arithmetic" k2="-1" k3="1" result="shadowInnerInner1"></feComposite>
            <feColorMatrix values="0 0 0 0 1   0 0 0 0 1   0 0 0 0 1  0 0 0 0.333180781 0" type="matrix" in="shadowInnerInner1"></feColorMatrix>
        </filter>
    </defs>
    <g id="招投标宝典-110" stroke="none" stroke-width="1" fill="none" fill-rule="evenodd">
        <g id="编组-3">
            <g id="编组-27" filter="url(#filter-1)" transform="translate(7, 7)">
                <mask id="mask-4" fill="white">
                    <use xlink:href="#path-3"></use>
                </mask>
                <use id="蒙版" fill="url(#linearGradient-2)" fill-rule="nonzero" xlink:href="#path-3"></use>
                <g id="编组" mask="url(#mask-4)">
                    <g transform="translate(45.7512, 46.05) rotate(-15) translate(-45.7512, -46.05)translate(13.4973, 8.2)">
                        <path d="M10.2275565,21.5765373 C12.4625179,15.4124047 15.4411179,9.2343048 19.7975415,4.26280347 L20.8837395,3.0581221 C21.9153498,1.93444951 23.2198445,0.659203285 24.6769388,0.608567855 C25.3226886,0.586162738 25.917074,0.816343123 26.3801619,1.267703 C26.6788299,1.55892307 26.9605756,1.94105043 27.079146,2.34437757 C27.4417092,3.57683696 27.3829814,6.68437106 27.444245,8.15072177 C27.5151978,9.8468418 27.6577453,11.5412816 27.6904726,13.2388119 L26.2937758,13.4768933 C25.5928377,13.6006881 24.8922919,13.7372444 24.2113853,13.9118985 C22.5614158,14.3352015 21.0351666,14.9512424 19.4834235,15.6359177 C17.0418933,16.7131994 15.451766,17.5171017 13.2531808,19.1035057 C12.1901227,19.8706261 11.271849,20.8057204 10.2275565,21.5765373 Z" id="路径" stroke="none" fill="url(#linearGradient-5)" fill-rule="nonzero"></path>
                        <path d="M34.0983356,12.8274868 C33.928226,11.5817837 33.9765866,10.2974023 33.9096756,9.04184044 C33.8032136,7.04455401 33.4556622,4.15676526 33.6667509,2.26010331 C33.7167367,1.81093823 33.8645464,1.39475471 34.1369245,1.03103747 C34.536645,0.497351933 35.1921308,0.110549378 35.8539323,0.0211970319 C37.022689,-0.136739631 38.1243988,0.617470045 38.9955919,1.30081269 C39.4943319,1.6975429 39.9812743,2.10820264 40.456419,2.53279189 C40.9315452,2.95745018 41.3941655,3.39536732 41.8442799,3.84654331 C42.2943252,4.2977008 42.7310714,4.76134969 43.1545185,5.23748998 C43.5780101,5.71371621 43.9874995,6.20165355 44.3829687,6.70129724 C44.8624333,7.3094188 45.2855156,7.96724427 45.7479756,8.58912096 L46.7749996,9.97691385 C47.6298155,11.1433661 48.4714188,12.3346132 49.2201668,13.5499009 C50.5571853,15.7198792 51.6559408,17.9999186 52.7285595,20.307913 C52.2466434,20.0299617 51.7964343,19.6262221 51.3513398,19.2895524 C50.5941912,18.7170054 49.8138823,18.1546774 49.0008876,17.6633849 C45.4316653,15.5065594 41.3465795,14.0430712 37.2424049,13.3351153 C36.3449377,13.1802041 35.4291479,13.1856306 34.5364458,13.0365464 L34.3768621,13.0073048 C34.2725509,12.9827115 34.2227219,12.9476171 34.0983356,12.8274868 Z" id="路径" stroke="none" fill="url(#linearGradient-6)" fill-rule="nonzero"></path>
                        <g id="椭圆形" stroke="none" fill="none">
                            <use fill="url(#linearGradient-7)" fill-rule="evenodd" xlink:href="#path-11"></use>
                            <use fill="url(#radialGradient-8)" fill-rule="evenodd" xlink:href="#path-11"></use>
                            <use fill="url(#radialGradient-9)" fill-rule="evenodd" xlink:href="#path-11"></use>
                            <use fill="url(#radialGradient-10)" fill-rule="evenodd" xlink:href="#path-11"></use>
                            <use fill="black" fill-opacity="1" filter="url(#filter-12)" xlink:href="#path-11"></use>
                        </g>
                        <ellipse id="椭圆形" stroke="none" fill="url(#radialGradient-13)" fill-rule="evenodd" filter="url(#filter-14)" cx="31.7" cy="48.825641" rx="24.5" ry="22"></ellipse>
                        <ellipse id="椭圆形" stroke="none" fill="url(#radialGradient-15)" fill-rule="evenodd" filter="url(#filter-16)" cx="32.2" cy="51.8" rx="22" ry="11"></ellipse>
                        <ellipse id="椭圆形" stroke="none" fill="url(#radialGradient-17)" fill-rule="evenodd" filter="url(#filter-18)" cx="47" cy="43" rx="14" ry="18"></ellipse>
                        <g id="路径" stroke="none" fill="none" fill-rule="nonzero">
                            <use fill="black" fill-opacity="1" filter="url(#filter-22)" xlink:href="#path-21"></use>
                            <use fill="url(#linearGradient-19)" xlink:href="#path-21"></use>
                            <use fill="black" fill-opacity="1" filter="url(#filter-23)" xlink:href="#path-21"></use>
                            <path stroke="url(#linearGradient-20)" stroke-width="1" d="M21.9285716,29.9346498 C28.2700312,28.6602231 37.2155535,28.920831 43.5106824,30.1908177 C46.5514923,30.7270606 50.5183528,32.255065 52.3473024,34.8817922 C52.7297075,35.4310006 53.0628561,36.0498584 53.1670108,36.7186514 C53.2884602,37.4980436 53.3698325,38.3130252 53.3610614,39.1000096 C53.3485876,40.2128132 53.352214,41.3264181 53.3558556,42.439356 L53.3574597,42.946989 C53.3581717,43.1883947 53.3602347,43.4590001 53.3624545,43.7498582 C53.3754979,45.4589283 53.3987791,47.8823971 53.1693185,49.1281373 C52.8721821,50.7415288 51.518612,52.0125119 50.215134,52.8961973 C43.5398599,57.4215376 28.6902998,56.9373141 21.0635496,55.4596098 L20.4312951,55.306699 C17.3793956,54.5484015 13.7271514,53.3567247 11.8984055,50.7003956 C10.9053876,47.3746189 10.8856461,45.541624 10.9319123,43.8363483 L10.9433478,43.444469 C10.9646276,42.7385012 10.9857208,42.0363226 10.98642,41.3435096 C10.9880094,39.8363789 10.986837,38.2063444 11.2678106,36.7355005 C11.5607139,35.2024607 12.653802,33.7434252 13.917955,32.9079659 C15.0467009,32.1619602 16.3975998,31.6154719 17.6698677,31.1636504 C19.0565168,30.671285 20.4844172,30.2248629 21.9285716,29.9346498 Z" stroke-linejoin="square"></path>
                        </g>
                        <g id="形状结合" stroke="none" fill="none">
                            <use fill="black" fill-opacity="1" filter="url(#filter-26)" xlink:href="#path-25"></use>
                            <use fill="url(#linearGradient-24)" fill-rule="evenodd" xlink:href="#path-25"></use>
                        </g>
                        <g id="形状结合" stroke="none" fill="none">
                            <use fill="black" fill-opacity="1" filter="url(#filter-29)" xlink:href="#path-28"></use>
                            <use fill="url(#linearGradient-27)" fill-rule="evenodd" xlink:href="#path-28"></use>
                        </g>
                        <path d="M10.2,51.8 C9.8040134,61.7735556 14.9128586,68.8696136 25.5265357,73.088174 C35.032791,75.5059468 43.0079001,71.8447997 49.4518629,62.104733 C35.4610771,68.1393109 22.3771228,64.7043999 10.2,51.8 Z" id="路径-2" stroke="none" fill="url(#radialGradient-30)" fill-rule="evenodd" filter="url(#filter-31)"></path>
                        <g id="路径" stroke="none" fill="none" fill-rule="nonzero">
                            <use fill="url(#linearGradient-32)" xlink:href="#path-33"></use>
                            <use fill="black" fill-opacity="1" filter="url(#filter-34)" xlink:href="#path-33"></use>
                        </g>
                        <path d="M43.9174774,31.2030322 C46.7165571,31.6965054 50.361612,33.1322056 52.0476881,35.5537386 C52.4259172,36.0969496 52.7477578,36.7114516 52.8505847,37.3717189 C52.9622633,38.0884074 53.0363804,38.8378529 53.0283151,39.5615139 C53.0155673,40.6987602 53.0218016,41.8369503 53.0251401,42.9741672 C53.0295549,44.4710821 53.0926882,47.2349867 52.8505847,48.5493646 C52.56588,50.0952545 51.2931824,51.3341695 50.0374306,52.1854993 C47.5383543,53.8796874 43.7663155,54.8008202 39.7181843,55.2030322" id="路径" stroke="url(#linearGradient-35)" stroke-width="2" fill="none" opacity="0.75" fill-rule="nonzero" filter="url(#filter-36)"></path>
                    </g>
                </g>
                <g id="形状结合" fill-rule="nonzero" mask="url(#mask-4)">
                    <use fill="url(#linearGradient-37)" xlink:href="#path-38"></use>
                    <use fill="black" fill-opacity="1" filter="url(#filter-39)" xlink:href="#path-38"></use>
                </g>
            </g>
            <rect id="矩形" x="0" y="0" width="110" height="110"></rect>
        </g>
    </g>
</svg>