<?xml version="1.0" encoding="UTF-8"?>
<svg width="36px" height="36px" viewBox="0 0 36 36" version="1.1" xmlns="http://www.w3.org/2000/svg" xmlns:xlink="http://www.w3.org/1999/xlink">
    <title>招投标宝典-36</title>
    <defs>
        <filter x="-6.7%" y="-3.3%" width="113.3%" height="113.3%" filterUnits="objectBoundingBox" id="filter-1">
            <feOffset dx="0" dy="1" in="SourceAlpha" result="shadowOffsetOuter1"></feOffset>
            <feGaussianBlur stdDeviation="0.5" in="shadowOffsetOuter1" result="shadowBlurOuter1"></feGaussianBlur>
            <feColorMatrix values="0 0 0 0 0   0 0 0 0 0   0 0 0 0 0  0 0 0 0.15 0" type="matrix" in="shadowBlurOuter1" result="shadowMatrixOuter1"></feColorMatrix>
            <feMerge>
                <feMergeNode in="shadowMatrixOuter1"></feMergeNode>
                <feMergeNode in="SourceGraphic"></feMergeNode>
            </feMerge>
        </filter>
        <linearGradient x1="50%" y1="0%" x2="50%" y2="100%" id="linearGradient-2">
            <stop stop-color="#81EF5A" offset="0%"></stop>
            <stop stop-color="#00BF88" offset="100%"></stop>
        </linearGradient>
        <path d="M5.7387536,0 L24.2613137,0 C27.4307398,0 30.0000673,2.5693275 30.0000673,5.7387536 L30.0000673,24.2613137 C30.0000673,27.4307398 27.4307398,30.0000673 24.2613137,30.0000673 L5.7387536,30.0000673 C2.5693275,30.0000673 0,27.4307398 0,24.2613137 L0,5.7387536 C0,2.5693275 2.5693275,0 5.7387536,0 Z" id="path-3"></path>
        <linearGradient x1="23.963712%" y1="0%" x2="57.8490472%" y2="100%" id="linearGradient-5">
            <stop stop-color="#EEFEF4" offset="0%"></stop>
            <stop stop-color="#87F4BB" offset="100%"></stop>
        </linearGradient>
        <linearGradient x1="-6.6266843%" y1="26.2224179%" x2="55.4776816%" y2="50%" id="linearGradient-6">
            <stop stop-color="#EEFEF4" offset="0%"></stop>
            <stop stop-color="#87F4BB" offset="100%"></stop>
        </linearGradient>
        <linearGradient x1="53.2737835%" y1="2.30999754%" x2="50%" y2="97.6900025%" id="linearGradient-7">
            <stop stop-color="#F1FFF6" offset="0%"></stop>
            <stop stop-color="#90E3B9" offset="100%"></stop>
        </linearGradient>
        <radialGradient cx="50%" cy="50%" fx="50%" fy="50%" r="40.4335179%" gradientTransform="translate(0.5, 0.5), scale(0.9766, 1), rotate(90), scale(1, 1.0317), translate(-0.5, -0.5)" id="radialGradient-8">
            <stop stop-color="#27D188" stop-opacity="0.5" offset="0%"></stop>
            <stop stop-color="#27D188" stop-opacity="0" offset="100%"></stop>
        </radialGradient>
        <radialGradient cx="50%" cy="64.3892989%" fx="50%" fy="64.3892989%" r="35.6107011%" gradientTransform="translate(0.5, 0.6439), scale(0.9766, 1), rotate(90), scale(1, 1.5316), translate(-0.5, -0.6439)" id="radialGradient-9">
            <stop stop-color="#39D094" offset="0%"></stop>
            <stop stop-color="#39D094" stop-opacity="0" offset="100%"></stop>
        </radialGradient>
        <radialGradient cx="50%" cy="65.7514398%" fx="50%" fy="65.7514398%" r="14.0055603%" gradientTransform="translate(0.5, 0.6575), scale(0.9766, 1), rotate(90), scale(1, 2.8115), translate(-0.5, -0.6575)" id="radialGradient-10">
            <stop stop-color="#63E698" offset="0%"></stop>
            <stop stop-color="#63E698" stop-opacity="0" offset="100%"></stop>
        </radialGradient>
        <path d="M12.4264459,26.7679498 C18.710569,26.2350775 23.3557098,20.827289 22.8016583,14.6893161 C22.2476069,8.55134319 16.7041711,4.00751133 10.4200481,4.54038358 C4.13592504,5.07325584 -0.509215776,10.4810443 0.0448356851,16.6190172 C0.598887146,22.7569901 6.14232287,27.300822 12.4264459,26.7679498 Z" id="path-11"></path>
        <filter x="-8.8%" y="-9.0%" width="117.5%" height="117.9%" filterUnits="objectBoundingBox" id="filter-12">
            <feGaussianBlur stdDeviation="1" in="SourceAlpha" result="shadowBlurInner1"></feGaussianBlur>
            <feOffset dx="0" dy="-1" in="shadowBlurInner1" result="shadowOffsetInner1"></feOffset>
            <feComposite in="shadowOffsetInner1" in2="SourceAlpha" operator="arithmetic" k2="-1" k3="1" result="shadowInnerInner1"></feComposite>
            <feColorMatrix values="0 0 0 0 0.890196078   0 0 0 0 0.996078431   0 0 0 0 0.929411765  0 0 0 0.657120711 0" type="matrix" in="shadowInnerInner1" result="shadowMatrixInner1"></feColorMatrix>
            <feGaussianBlur stdDeviation="1" in="SourceAlpha" result="shadowBlurInner2"></feGaussianBlur>
            <feOffset dx="-2" dy="-2" in="shadowBlurInner2" result="shadowOffsetInner2"></feOffset>
            <feComposite in="shadowOffsetInner2" in2="SourceAlpha" operator="arithmetic" k2="-1" k3="1" result="shadowInnerInner2"></feComposite>
            <feColorMatrix values="0 0 0 0 0.556862745   0 0 0 0 0.921568627   0 0 0 0 0.729411765  0 0 0 0.181995525 0" type="matrix" in="shadowInnerInner2" result="shadowMatrixInner2"></feColorMatrix>
            <feMerge>
                <feMergeNode in="shadowMatrixInner1"></feMergeNode>
                <feMergeNode in="shadowMatrixInner2"></feMergeNode>
            </feMerge>
        </filter>
        <radialGradient cx="50%" cy="50%" fx="50%" fy="50%" r="50%" gradientTransform="translate(0.5, 0.5), scale(0.898, 1), rotate(90), translate(-0.5, -0.5)" id="radialGradient-13">
            <stop stop-color="#46D094" offset="0%"></stop>
            <stop stop-color="#46D094" stop-opacity="0.49093009" offset="100%"></stop>
        </radialGradient>
        <filter x="-12.6%" y="-14.0%" width="125.2%" height="128.1%" filterUnits="objectBoundingBox" id="filter-14">
            <feGaussianBlur stdDeviation="0.729166667" in="SourceGraphic"></feGaussianBlur>
        </filter>
        <radialGradient cx="50%" cy="50%" fx="50%" fy="50%" r="50%" gradientTransform="translate(0.5, 0.5), scale(0.5, 1), rotate(90), scale(1, 0.913), translate(-0.5, -0.5)" id="radialGradient-15">
            <stop stop-color="#4ADE94" offset="0%"></stop>
            <stop stop-color="#4ADE94" offset="100%"></stop>
        </radialGradient>
        <filter x="-10.8%" y="-21.6%" width="121.6%" height="143.1%" filterUnits="objectBoundingBox" id="filter-16">
            <feGaussianBlur stdDeviation="0.56" in="SourceGraphic"></feGaussianBlur>
        </filter>
        <radialGradient cx="81.4653236%" cy="44.7867309%" fx="81.4653236%" fy="44.7867309%" r="30.0996482%" gradientTransform="translate(0.8147, 0.4479), scale(1, 0.7778), rotate(12.2181), scale(1, 2.6367), translate(-0.8147, -0.4479)" id="radialGradient-17">
            <stop stop-color="#D7FCC8" offset="0%"></stop>
            <stop stop-color="#8CF0AB" stop-opacity="0.345504334" offset="100%"></stop>
        </radialGradient>
        <filter x="-22.1%" y="-17.2%" width="144.1%" height="134.3%" filterUnits="objectBoundingBox" id="filter-18">
            <feGaussianBlur stdDeviation="0.729166667" in="SourceGraphic"></feGaussianBlur>
        </filter>
        <linearGradient x1="95.3338095%" y1="42.397595%" x2="5.05210594%" y2="58.8806454%" id="linearGradient-19">
            <stop stop-color="#18252C" offset="0%"></stop>
            <stop stop-color="#15352C" offset="51.1190241%"></stop>
            <stop stop-color="#47736A" offset="100%"></stop>
        </linearGradient>
        <linearGradient x1="50%" y1="0%" x2="50%" y2="100%" id="linearGradient-20">
            <stop stop-color="#285643" offset="0%"></stop>
            <stop stop-color="#09502C" offset="100%"></stop>
        </linearGradient>
        <path d="M15.4450528,10.5189951 C16.5605045,10.7156474 18.0130828,11.2877834 18.6849952,12.2527802 C18.835722,12.4692533 18.9639775,12.7141364 19.0049548,12.9772573 C19.0494594,13.2628624 19.0789955,13.5615213 19.0757815,13.8499049 C19.0707014,14.3031051 19.0731858,14.7566813 19.0745162,15.2098697 C19.0762755,15.8064001 19.1014346,16.9078342 19.0049548,17.4316224 C18.8914981,18.0476697 18.3843197,18.5413855 17.8838944,18.880646 C15.4888033,20.5043399 10.1596776,20.3462289 7.42231882,19.8150189 L7.19338261,19.7596471 C6.070995,19.4807704 4.73866244,19.0307411 4.06912243,18.0581919 C4.03188253,18.0051877 3.99761483,17.9503334 3.96631934,17.893629 C3.93503039,17.8369001 3.90688283,17.7786677 3.88187664,17.7189319 C3.856877,17.6591716 3.83516674,17.5982358 3.81674584,17.5361244 C3.79834285,17.474044 3.78333072,17.4111427 3.77170946,17.3474206 C3.61621284,16.4652592 3.7130428,15.5318896 3.7139405,14.6423062 C3.71451488,14.0976547 3.71521862,13.5087332 3.81674584,12.9772573 C3.92907633,12.3893257 4.3462673,11.8279445 4.83163657,11.5071714 C5.24306533,11.2352517 5.73498522,11.034974 6.1988246,10.8702504 C6.69784456,10.6930605 7.211779,10.5326804 7.73147873,10.428243 C9.99790636,9.97276492 13.1950893,10.0650848 15.4450528,10.5189951 Z" id="path-21"></path>
        <filter x="-13.0%" y="-9.9%" width="126.0%" height="139.8%" filterUnits="objectBoundingBox" id="filter-22">
            <feOffset dx="0" dy="1" in="SourceAlpha" result="shadowOffsetOuter1"></feOffset>
            <feGaussianBlur stdDeviation="0.5" in="shadowOffsetOuter1" result="shadowBlurOuter1"></feGaussianBlur>
            <feComposite in="shadowBlurOuter1" in2="SourceAlpha" operator="out" result="shadowBlurOuter1"></feComposite>
            <feColorMatrix values="0 0 0 0 0.498039216   0 0 0 0 0.874509804   0 0 0 0 0.698039216  0 0 0 1 0" type="matrix" in="shadowBlurOuter1"></feColorMatrix>
        </filter>
        <filter x="-19.5%" y="-19.9%" width="139.0%" height="159.7%" filterUnits="objectBoundingBox" id="filter-23">
            <feGaussianBlur stdDeviation="1" in="SourceAlpha" result="shadowBlurInner1"></feGaussianBlur>
            <feOffset dx="0" dy="2" in="shadowBlurInner1" result="shadowOffsetInner1"></feOffset>
            <feComposite in="shadowOffsetInner1" in2="SourceAlpha" operator="arithmetic" k2="-1" k3="1" result="shadowInnerInner1"></feComposite>
            <feColorMatrix values="0 0 0 0 0.0588235294   0 0 0 0 0.2   0 0 0 0 0.160784314  0 0 0 1 0" type="matrix" in="shadowInnerInner1"></feColorMatrix>
        </filter>
        <linearGradient x1="50.0000166%" y1="40.9065518%" x2="50%" y2="63.3114383%" id="linearGradient-24">
            <stop stop-color="#FFFFFF" offset="0%"></stop>
            <stop stop-color="#9DE8C6" offset="50.449238%"></stop>
            <stop stop-color="#FFFFFF" offset="100%"></stop>
        </linearGradient>
        <path d="M7.05104167,12.9979167 L7.43943452,12.9979167 C7.49984067,12.9979167 7.54880952,13.0468855 7.54880952,13.1072917 L7.54880952,13.3504982 C7.54880952,13.4109043 7.49984067,13.4598732 7.43943452,13.4598732 L7.05104167,13.4598732 C6.99063552,13.4598732 6.94166667,13.4109043 6.94166667,13.3504982 L6.94166667,13.1072917 C6.94166667,13.0468855 6.99063552,12.9979167 7.05104167,12.9979167 Z M7.05104167,13.6138587 L7.43943452,13.6138587 C7.49984067,13.6138587 7.54880952,13.6628276 7.54880952,13.7232337 L7.54880952,13.9664402 C7.54880952,14.0268464 7.49984067,14.0758152 7.43943452,14.0758152 L7.05104167,14.0758152 C6.99063552,14.0758152 6.94166667,14.0268464 6.94166667,13.9664402 L6.94166667,13.7232337 C6.94166667,13.6628276 6.99063552,13.6138587 7.05104167,13.6138587 Z M7.05104167,14.2298007 L7.43943452,14.2298007 C7.49984067,14.2298007 7.54880952,14.2787696 7.54880952,14.3391757 L7.54880952,14.5823822 C7.54880952,14.6427884 7.49984067,14.6917572 7.43943452,14.6917572 L7.05104167,14.6917572 C6.99063552,14.6917572 6.94166667,14.6427884 6.94166667,14.5823822 L6.94166667,14.3391757 C6.94166667,14.2787696 6.99063552,14.2298007 7.05104167,14.2298007 Z M7.05104167,14.8457428 L7.43943452,14.8457428 C7.49984067,14.8457428 7.54880952,14.8947116 7.54880952,14.9551178 L7.54880952,15.1983243 C7.54880952,15.2587304 7.49984067,15.3076993 7.43943452,15.3076993 L7.05104167,15.3076993 C6.99063552,15.3076993 6.94166667,15.2587304 6.94166667,15.1983243 L6.94166667,14.9551178 C6.94166667,14.8947116 6.99063552,14.8457428 7.05104167,14.8457428 Z M7.05104167,15.4616848 L7.43943452,15.4616848 C7.49984067,15.4616848 7.54880952,15.5106536 7.54880952,15.5710598 L7.54880952,15.8142663 C7.54880952,15.8746724 7.49984067,15.9236413 7.43943452,15.9236413 L7.05104167,15.9236413 C6.99063552,15.9236413 6.94166667,15.8746724 6.94166667,15.8142663 L6.94166667,15.5710598 C6.94166667,15.5106536 6.99063552,15.4616848 7.05104167,15.4616848 Z M7.05104167,16.0776268 L7.43943452,16.0776268 C7.49984067,16.0776268 7.54880952,16.1265957 7.54880952,16.1870018 L7.54880952,16.4302083 C7.54880952,16.4906145 7.49984067,16.5395833 7.43943452,16.5395833 L7.05104167,16.5395833 C6.99063552,16.5395833 6.94166667,16.4906145 6.94166667,16.4302083 L6.94166667,16.1870018 C6.94166667,16.1265957 6.99063552,16.0776268 7.05104167,16.0776268 Z M7.86056548,12.9979167 L8.24895833,12.9979167 C8.30936448,12.9979167 8.35833333,13.0468855 8.35833333,13.1072917 L8.35833333,13.3504982 C8.35833333,13.4109043 8.30936448,13.4598732 8.24895833,13.4598732 L7.86056548,13.4598732 C7.80015933,13.4598732 7.75119048,13.4109043 7.75119048,13.3504982 L7.75119048,13.1072917 C7.75119048,13.0468855 7.80015933,12.9979167 7.86056548,12.9979167 Z M7.86056548,13.6138587 L8.24895833,13.6138587 C8.30936448,13.6138587 8.35833333,13.6628276 8.35833333,13.7232337 L8.35833333,13.9664402 C8.35833333,14.0268464 8.30936448,14.0758152 8.24895833,14.0758152 L7.86056548,14.0758152 C7.80015933,14.0758152 7.75119048,14.0268464 7.75119048,13.9664402 L7.75119048,13.7232337 C7.75119048,13.6628276 7.80015933,13.6138587 7.86056548,13.6138587 Z M7.86056548,14.2298007 L8.24895833,14.2298007 C8.30936448,14.2298007 8.35833333,14.2787696 8.35833333,14.3391757 L8.35833333,14.5823822 C8.35833333,14.6427884 8.30936448,14.6917572 8.24895833,14.6917572 L7.86056548,14.6917572 C7.80015933,14.6917572 7.75119048,14.6427884 7.75119048,14.5823822 L7.75119048,14.3391757 C7.75119048,14.2787696 7.80015933,14.2298007 7.86056548,14.2298007 Z M7.86056548,14.8457428 L8.24895833,14.8457428 C8.30936448,14.8457428 8.35833333,14.8947116 8.35833333,14.9551178 L8.35833333,15.1983243 C8.35833333,15.2587304 8.30936448,15.3076993 8.24895833,15.3076993 L7.86056548,15.3076993 C7.80015933,15.3076993 7.75119048,15.2587304 7.75119048,15.1983243 L7.75119048,14.9551178 C7.75119048,14.8947116 7.80015933,14.8457428 7.86056548,14.8457428 Z M7.86056548,15.4616848 L8.24895833,15.4616848 C8.30936448,15.4616848 8.35833333,15.5106536 8.35833333,15.5710598 L8.35833333,15.8142663 C8.35833333,15.8746724 8.30936448,15.9236413 8.24895833,15.9236413 L7.86056548,15.9236413 C7.80015933,15.9236413 7.75119048,15.8746724 7.75119048,15.8142663 L7.75119048,15.5710598 C7.75119048,15.5106536 7.80015933,15.4616848 7.86056548,15.4616848 Z M7.86056548,16.0776268 L8.24895833,16.0776268 C8.30936448,16.0776268 8.35833333,16.1265957 8.35833333,16.1870018 L8.35833333,16.4302083 C8.35833333,16.4906145 8.30936448,16.5395833 8.24895833,16.5395833 L7.86056548,16.5395833 C7.80015933,16.5395833 7.75119048,16.4906145 7.75119048,16.4302083 L7.75119048,16.1870018 C7.75119048,16.1265957 7.80015933,16.0776268 7.86056548,16.0776268 Z" id="path-25"></path>
        <filter x="-247.1%" y="-70.6%" width="594.1%" height="297.6%" filterUnits="objectBoundingBox" id="filter-26">
            <feOffset dx="0" dy="1" in="SourceAlpha" result="shadowOffsetOuter1"></feOffset>
            <feGaussianBlur stdDeviation="1" in="shadowOffsetOuter1" result="shadowBlurOuter1"></feGaussianBlur>
            <feColorMatrix values="0 0 0 0 0   0 0 0 0 0   0 0 0 0 0  0 0 0 0.2 0" type="matrix" in="shadowBlurOuter1"></feColorMatrix>
        </filter>
        <path d="M7.03058036,12.9882655 L7.4252232,12.9882655 C7.48390346,12.9882655 7.53147321,13.0358353 7.53147321,13.0945155 L7.53147321,13.3439721 C7.53147321,13.4026523 7.48390346,13.4502221 7.4252232,13.4502221 L7.03058036,13.4502221 C6.9719001,13.4502221 6.92433035,13.4026523 6.92433035,13.3439721 L6.92433035,13.0945155 C6.92433035,13.0358353 6.9719001,12.9882655 7.03058036,12.9882655 Z M7.03058036,13.6042076 L7.4252232,13.6042076 C7.48390346,13.6042076 7.53147321,13.6517773 7.53147321,13.7104576 L7.53147321,13.9599141 C7.53147321,14.0185943 7.48390346,14.0661641 7.4252232,14.0661641 L7.03058036,14.0661641 C6.9719001,14.0661641 6.92433035,14.0185943 6.92433035,13.9599141 L6.92433035,13.7104576 C6.92433035,13.6517773 6.9719001,13.6042076 7.03058036,13.6042076 Z M7.03058036,14.2201496 L7.4252232,14.2201496 C7.48390346,14.2201496 7.53147321,14.2677193 7.53147321,14.3263996 L7.53147321,14.5758561 C7.53147321,14.6345364 7.48390346,14.6821061 7.4252232,14.6821061 L7.03058036,14.6821061 C6.9719001,14.6821061 6.92433035,14.6345364 6.92433035,14.5758561 L6.92433035,14.3263996 C6.92433035,14.2677193 6.9719001,14.2201496 7.03058036,14.2201496 Z M7.03058036,14.8360916 L7.4252232,14.8360916 C7.48390346,14.8360916 7.53147321,14.8836614 7.53147321,14.9423416 L7.53147321,15.1917981 C7.53147321,15.2504784 7.48390346,15.2980481 7.4252232,15.2980481 L7.03058036,15.2980481 C6.9719001,15.2980481 6.92433035,15.2504784 6.92433035,15.1917981 L6.92433035,14.9423416 C6.92433035,14.8836614 6.9719001,14.8360916 7.03058036,14.8360916 Z M7.03058036,15.4520337 L7.4252232,15.4520337 C7.48390346,15.4520337 7.53147321,15.4996034 7.53147321,15.5582837 L7.53147321,15.8077402 C7.53147321,15.8664204 7.48390346,15.9139902 7.4252232,15.9139902 L7.03058036,15.9139902 C6.9719001,15.9139902 6.92433035,15.8664204 6.92433035,15.8077402 L6.92433035,15.5582837 C6.92433035,15.4996034 6.9719001,15.4520337 7.03058036,15.4520337 Z M7.03058036,16.0679757 L7.4252232,16.0679757 C7.48390346,16.0679757 7.53147321,16.1155454 7.53147321,16.1742257 L7.53147321,16.4236822 C7.53147321,16.4823625 7.48390346,16.5299322 7.4252232,16.5299322 L7.03058036,16.5299322 C6.9719001,16.5299322 6.92433035,16.4823625 6.92433035,16.4236822 L6.92433035,16.1742257 C6.92433035,16.1155454 6.9719001,16.0679757 7.03058036,16.0679757 Z M7.84010417,12.9882655 L8.23474701,12.9882655 C8.29342727,12.9882655 8.34099702,13.0358353 8.34099702,13.0945155 L8.34099702,13.3439721 C8.34099702,13.4026523 8.29342727,13.4502221 8.23474701,13.4502221 L7.84010417,13.4502221 C7.78142391,13.4502221 7.73385416,13.4026523 7.73385416,13.3439721 L7.73385416,13.0945155 C7.73385416,13.0358353 7.78142391,12.9882655 7.84010417,12.9882655 Z M7.84010417,13.6042076 L8.23474701,13.6042076 C8.29342727,13.6042076 8.34099702,13.6517773 8.34099702,13.7104576 L8.34099702,13.9599141 C8.34099702,14.0185943 8.29342727,14.0661641 8.23474701,14.0661641 L7.84010417,14.0661641 C7.78142391,14.0661641 7.73385416,14.0185943 7.73385416,13.9599141 L7.73385416,13.7104576 C7.73385416,13.6517773 7.78142391,13.6042076 7.84010417,13.6042076 Z M7.84010417,14.2201496 L8.23474701,14.2201496 C8.29342727,14.2201496 8.34099702,14.2677193 8.34099702,14.3263996 L8.34099702,14.5758561 C8.34099702,14.6345364 8.29342727,14.6821061 8.23474701,14.6821061 L7.84010417,14.6821061 C7.78142391,14.6821061 7.73385416,14.6345364 7.73385416,14.5758561 L7.73385416,14.3263996 C7.73385416,14.2677193 7.78142391,14.2201496 7.84010417,14.2201496 Z M7.84010417,14.8360916 L8.23474701,14.8360916 C8.29342727,14.8360916 8.34099702,14.8836614 8.34099702,14.9423416 L8.34099702,15.1917981 C8.34099702,15.2504784 8.29342727,15.2980481 8.23474701,15.2980481 L7.84010417,15.2980481 C7.78142391,15.2980481 7.73385416,15.2504784 7.73385416,15.1917981 L7.73385416,14.9423416 C7.73385416,14.8836614 7.78142391,14.8360916 7.84010417,14.8360916 Z M7.84010417,15.4520337 L8.23474701,15.4520337 C8.29342727,15.4520337 8.34099702,15.4996034 8.34099702,15.5582837 L8.34099702,15.8077402 C8.34099702,15.8664204 8.29342727,15.9139902 8.23474701,15.9139902 L7.84010417,15.9139902 C7.78142391,15.9139902 7.73385416,15.8664204 7.73385416,15.8077402 L7.73385416,15.5582837 C7.73385416,15.4996034 7.78142391,15.4520337 7.84010417,15.4520337 Z M7.84010417,16.0679757 L8.23474701,16.0679757 C8.29342727,16.0679757 8.34099702,16.1155454 8.34099702,16.1742257 L8.34099702,16.4236822 C8.34099702,16.4823625 8.29342727,16.5299322 8.23474701,16.5299322 L7.84010417,16.5299322 C7.78142391,16.5299322 7.73385416,16.4823625 7.73385416,16.4236822 L7.73385416,16.1742257 C7.73385416,16.1155454 7.78142391,16.0679757 7.84010417,16.0679757 Z" id="path-27"></path>
        <filter x="-141.2%" y="-28.2%" width="382.4%" height="212.9%" filterUnits="objectBoundingBox" id="filter-28">
            <feOffset dx="0" dy="1" in="SourceAlpha" result="shadowOffsetOuter1"></feOffset>
            <feGaussianBlur stdDeviation="0.5" in="shadowOffsetOuter1" result="shadowBlurOuter1"></feGaussianBlur>
            <feColorMatrix values="0 0 0 0 0   0 0 0 0 0   0 0 0 0 0  0 0 0 0.2 0" type="matrix" in="shadowBlurOuter1"></feColorMatrix>
        </filter>
        <linearGradient x1="50.000044%" y1="40.9065518%" x2="50%" y2="63.3114383%" id="linearGradient-29">
            <stop stop-color="#FFFFFF" offset="0%"></stop>
            <stop stop-color="#9DE8C6" offset="50.449238%"></stop>
            <stop stop-color="#FFFFFF" offset="100%"></stop>
        </linearGradient>
        <path d="M14.0370332,12.8526328 L14.377028,12.8526328 C14.4322565,12.8526328 14.477028,12.8974043 14.477028,12.9526328 L14.477028,13.3560069 C14.477028,13.4112354 14.4322565,13.4560069 14.377028,13.4560069 L14.0370332,13.4560069 C13.9818047,13.4560069 13.9370332,13.4112354 13.9370332,13.3560069 L13.9370332,12.9526328 C13.9370332,12.8974043 13.9818047,12.8526328 14.0370332,12.8526328 Z M14.73585,12.8526328 L15.0758449,12.8526328 C15.1310734,12.8526328 15.1758449,12.8974043 15.1758449,12.9526328 L15.1758449,13.3560069 C15.1758449,13.4112354 15.1310734,13.4560069 15.0758449,13.4560069 L14.73585,13.4560069 C14.6806216,13.4560069 14.63585,13.4112354 14.63585,13.3560069 L14.63585,12.9526328 C14.63585,12.8974043 14.6806216,12.8526328 14.73585,12.8526328 Z M14.0370332,16.1943975 L14.377028,16.1943975 C14.4322565,16.1943975 14.477028,16.239169 14.477028,16.2943975 L14.477028,16.6977717 C14.477028,16.7530001 14.4322565,16.7977717 14.377028,16.7977717 L14.0370332,16.7977717 C13.9818047,16.7977717 13.9370332,16.7530001 13.9370332,16.6977717 L13.9370332,16.2943975 C13.9370332,16.239169 13.9818047,16.1943975 14.0370332,16.1943975 Z M14.73585,16.1943975 L15.0758449,16.1943975 C15.1310734,16.1943975 15.1758449,16.239169 15.1758449,16.2943975 L15.1758449,16.6977717 C15.1758449,16.7530001 15.1310734,16.7977717 15.0758449,16.7977717 L14.73585,16.7977717 C14.6806216,16.7977717 14.63585,16.7530001 14.63585,16.6977717 L14.63585,16.2943975 C14.63585,16.239169 14.6806216,16.1943975 14.73585,16.1943975 Z M13.4017451,13.6880739 L13.74174,13.6880739 C13.7969684,13.6880739 13.84174,13.7328455 13.84174,13.7880739 L13.84174,14.1914481 C13.84174,14.2466766 13.7969684,14.2914481 13.74174,14.2914481 L13.4017451,14.2914481 C13.3465166,14.2914481 13.3017451,14.2466766 13.3017451,14.1914481 L13.3017451,13.7880739 C13.3017451,13.7328455 13.3465166,13.6880739 13.4017451,13.6880739 Z M14.100562,13.6880739 L14.4405568,13.6880739 C14.4957853,13.6880739 14.5405568,13.7328455 14.5405568,13.7880739 L14.5405568,14.1914481 C14.5405568,14.2466766 14.4957853,14.2914481 14.4405568,14.2914481 L14.100562,14.2914481 C14.0453335,14.2914481 14.000562,14.2466766 14.000562,14.1914481 L14.000562,13.7880739 C14.000562,13.7328455 14.0453335,13.6880739 14.100562,13.6880739 Z M13.4017451,15.3589563 L13.74174,15.3589563 C13.7969684,15.3589563 13.84174,15.4037278 13.84174,15.4589563 L13.84174,15.8623305 C13.84174,15.9175589 13.7969684,15.9623305 13.74174,15.9623305 L13.4017451,15.9623305 C13.3465166,15.9623305 13.3017451,15.9175589 13.3017451,15.8623305 L13.3017451,15.4589563 C13.3017451,15.4037278 13.3465166,15.3589563 13.4017451,15.3589563 Z M14.100562,15.3589563 L14.4405568,15.3589563 C14.4957853,15.3589563 14.5405568,15.4037278 14.5405568,15.4589563 L14.5405568,15.8623305 C14.5405568,15.9175589 14.4957853,15.9623305 14.4405568,15.9623305 L14.100562,15.9623305 C14.0453335,15.9623305 14.000562,15.9175589 14.000562,15.8623305 L14.000562,15.4589563 C14.000562,15.4037278 14.0453335,15.3589563 14.100562,15.3589563 Z M12.7029282,14.5235151 L13.0429231,14.5235151 C13.0981516,14.5235151 13.1429231,14.5682866 13.1429231,14.6235151 L13.1429231,15.0268893 C13.1429231,15.0821178 13.0981516,15.1268893 13.0429231,15.1268893 L12.7029282,15.1268893 C12.6476998,15.1268893 12.6029282,15.0821178 12.6029282,15.0268893 L12.6029282,14.6235151 C12.6029282,14.5682866 12.6476998,14.5235151 12.7029282,14.5235151 Z M13.4017451,14.5235151 L13.74174,14.5235151 C13.7969684,14.5235151 13.84174,14.5682866 13.84174,14.6235151 L13.84174,15.0268893 C13.84174,15.0821178 13.7969684,15.1268893 13.74174,15.1268893 L13.4017451,15.1268893 C13.3465166,15.1268893 13.3017451,15.0821178 13.3017451,15.0268893 L13.3017451,14.6235151 C13.3017451,14.5682866 13.3465166,14.5235151 13.4017451,14.5235151 Z" id="path-30"></path>
        <filter x="-136.0%" y="-63.4%" width="372.1%" height="277.4%" filterUnits="objectBoundingBox" id="filter-31">
            <feOffset dx="0" dy="1" in="SourceAlpha" result="shadowOffsetOuter1"></feOffset>
            <feGaussianBlur stdDeviation="1" in="shadowOffsetOuter1" result="shadowBlurOuter1"></feGaussianBlur>
            <feColorMatrix values="0 0 0 0 0   0 0 0 0 0   0 0 0 0 0  0 0 0 0.2 0" type="matrix" in="shadowBlurOuter1"></feColorMatrix>
        </filter>
        <radialGradient cx="2.97285743%" cy="4.98531689%" fx="2.97285743%" fy="4.98531689%" r="162.129826%" gradientTransform="translate(0.0297, 0.0499), scale(0.5604, 1), rotate(26.3095), translate(-0.0297, -0.0499)" id="radialGradient-32">
            <stop stop-color="#38D094" offset="0%"></stop>
            <stop stop-color="#6ADAAF" stop-opacity="0" offset="100%"></stop>
        </radialGradient>
        <filter x="-15.7%" y="-28.1%" width="131.5%" height="156.1%" filterUnits="objectBoundingBox" id="filter-33">
            <feGaussianBlur stdDeviation="0.729166667" in="SourceGraphic"></feGaussianBlur>
        </filter>
        <linearGradient x1="60.3442918%" y1="56.5076375%" x2="6.60842491%" y2="49.9831985%" id="linearGradient-34">
            <stop stop-color="#9FF1C2" stop-opacity="0" offset="0%"></stop>
            <stop stop-color="#A1F1C3" stop-opacity="0.301163787" offset="100%"></stop>
        </linearGradient>
        <path d="M15.4450528,10.5189951 C16.5605045,10.7156474 18.0130828,11.2877834 18.6849952,12.2527802 C18.835722,12.4692533 18.9639775,12.7141364 19.0049548,12.9772573 C19.0494594,13.2628624 19.0789955,13.5615213 19.0757815,13.8499049 C19.0707014,14.3031051 19.0731858,14.7566813 19.0745162,15.2098697 C19.0762755,15.8064001 19.1014346,16.9078342 19.0049548,17.4316224 C18.8914981,18.0476697 18.3843197,18.5413855 17.8838944,18.880646 C15.4888033,20.5043399 10.1596776,20.3462289 7.42231882,19.8150189 L7.19338261,19.7596471 C6.070995,19.4807704 4.73866244,19.0307411 4.06912243,18.0581919 C4.03188253,18.0051877 3.99761483,17.9503334 3.96631934,17.893629 C3.93503039,17.8369001 3.90688283,17.7786677 3.88187664,17.7189319 C3.856877,17.6591716 3.83516674,17.5982358 3.81674584,17.5361244 C3.79834285,17.474044 3.78333072,17.4111427 3.77170946,17.3474206 C3.61621284,16.4652592 3.7130428,15.5318896 3.7139405,14.6423062 C3.71451488,14.0976547 3.71521862,13.5087332 3.81674584,12.9772573 C3.92907633,12.3893257 4.3462673,11.8279445 4.83163657,11.5071714 C5.24306533,11.2352517 5.73498522,11.034974 6.1988246,10.8702504 C6.69784456,10.6930605 7.211779,10.5326804 7.73147873,10.428243 C9.99790636,9.97276492 13.1950893,10.0650848 15.4450528,10.5189951 Z" id="path-35"></path>
        <filter x="-13.0%" y="-19.9%" width="126.0%" height="139.8%" filterUnits="objectBoundingBox" id="filter-36">
            <feGaussianBlur stdDeviation="1" in="SourceAlpha" result="shadowBlurInner1"></feGaussianBlur>
            <feOffset dx="0" dy="2" in="shadowBlurInner1" result="shadowOffsetInner1"></feOffset>
            <feComposite in="shadowOffsetInner1" in2="SourceAlpha" operator="arithmetic" k2="-1" k3="1" result="shadowInnerInner1"></feComposite>
            <feColorMatrix values="0 0 0 0 0.0588235294   0 0 0 0 0.2   0 0 0 0 0.160784314  0 0 0 0.306055136 0" type="matrix" in="shadowInnerInner1" result="shadowMatrixInner1"></feColorMatrix>
            <feGaussianBlur stdDeviation="1" in="SourceAlpha" result="shadowBlurInner2"></feGaussianBlur>
            <feOffset dx="0" dy="-1" in="shadowBlurInner2" result="shadowOffsetInner2"></feOffset>
            <feComposite in="shadowOffsetInner2" in2="SourceAlpha" operator="arithmetic" k2="-1" k3="1" result="shadowInnerInner2"></feComposite>
            <feColorMatrix values="0 0 0 0 0.0588235294   0 0 0 0 0.2   0 0 0 0 0.160784314  0 0 0 0.590502012 0" type="matrix" in="shadowInnerInner2" result="shadowMatrixInner2"></feColorMatrix>
            <feMerge>
                <feMergeNode in="shadowMatrixInner1"></feMergeNode>
                <feMergeNode in="shadowMatrixInner2"></feMergeNode>
            </feMerge>
        </filter>
        <linearGradient x1="62.9086221%" y1="15.4720896%" x2="50.4558828%" y2="100%" id="linearGradient-37">
            <stop stop-color="#285643" offset="0%"></stop>
            <stop stop-color="#9BFDBB" offset="55.9162273%"></stop>
            <stop stop-color="#9BFDBB" offset="80.5356753%"></stop>
            <stop stop-color="#09502C" offset="100%"></stop>
        </linearGradient>
        <filter x="-38.3%" y="-25.0%" width="183.5%" height="150.1%" filterUnits="objectBoundingBox" id="filter-38">
            <feGaussianBlur stdDeviation="0.59" in="SourceGraphic"></feGaussianBlur>
        </filter>
        <linearGradient x1="97.7546142%" y1="41.0451771%" x2="0%" y2="57.8664542%" id="linearGradient-39">
            <stop stop-color="#84FFC3" offset="0%"></stop>
            <stop stop-color="#FFF496" offset="100%"></stop>
        </linearGradient>
        <path d="M28.9760104,14.3118992 L29.06423,14.3362327 C30.1762713,14.5840323 31.3761392,15.2103864 32.0145207,16.2197833 C32.4789463,16.9541006 32.6001451,17.8833404 32.4208931,18.7328089 C32.1140599,20.1867163 30.8281306,21.7898926 29.6972475,22.6666762 C29.3040814,23.073212 28.684983,23.4782051 28.2197426,23.8105448 C28.0090876,23.9610409 27.6658948,24.1203031 27.526635,24.3353526 C26.9617875,24.4606024 26.5176636,24.9972971 25.9740684,25.2057195 L25.6319003,25.3860696 L24.9391598,25.7288092 C24.282423,26.0644683 23.6155468,26.3770902 22.9385311,26.6666748 C22.261538,26.9562361 21.5759331,27.2221172 20.8817164,27.4643182 C20.5889042,27.5645671 20.2860431,27.6337491 19.99116,27.7282474 C19.3280634,27.9407653 18.6697469,28.1497824 17.9967253,28.3148327 L17.4888973,28.4297444 C16.6851151,28.6495978 15.8603184,28.8003744 15.0405461,28.9402811 C14.8541308,28.9721896 14.6064032,29.0458247 14.4231792,29.0296952 C13.709668,29.1461087 12.9938483,29.1454074 12.2814235,29.2404318 C11.9656277,29.2863661 11.6215521,29.2611197 11.301988,29.2593665 C10.1116597,29.252003 8.89176171,29.2144842 7.72984899,28.9252034 C6.52614476,28.6250528 5.12098574,28.066478 4.44916425,26.9131771 L4.42908327,26.8778147 L4.37142049,26.7702198 C4.35904033,26.7460722 4.3469544,26.7217609 4.3351627,26.697286 L4.31767036,26.660486 L4.30063632,26.6234405 C4.28943308,26.5986851 4.27853537,26.5737894 4.26794321,26.5487535 L4.25225017,26.5110944 L4.23701545,26.4732249 C4.22701174,26.4479318 4.21731357,26.4225102 4.20792095,26.39696 C4.19855096,26.3714098 4.1894752,26.3457427 4.18069366,26.3199587 L4.167759,26.2811776 L4.13180676,26.1639575 C4.12429266,26.1377528 4.1170841,26.1114545 4.11018109,26.0850628 L4.09049053,26.005642 L4.07266718,25.9257304 L4.05681289,25.8453981 L4.04285975,25.76468 C4.03855951,25.7377272 4.03456482,25.710716 4.03087567,25.6836463 L4.02086064,25.602297 L4.01278072,25.5207374 L4.00666986,25.4390025 L4.00252805,25.3571272 L4.0003553,25.2751819 L4.00015161,25.1931664 C4.00040057,25.1658396 4.00098902,25.1385245 4.00191697,25.1112211 L4.00565138,25.0293108 L4.01135486,24.9475408 C4.01359551,24.9203075 4.01615302,24.8931093 4.01902738,24.8659461 L4.02866897,24.7845618 L4.03421118,24.7439661 L4.04024566,24.703458 C4.04443273,24.6764585 4.04894798,24.649529 4.05379141,24.6226698 L4.06923831,24.5422322 L4.07771713,24.50218 L4.08665427,24.4622505 C4.09276513,24.4356483 4.09920417,24.4091397 4.10597139,24.3827245 C4.20506922,23.9841483 4.34945533,23.5807682 4.5428981,23.2204121 C4.77411811,22.7896383 5.2280563,22.1596805 5.71817927,21.5944796 C5.83631572,22.3054774 6.0223059,23.0147007 6.2794824,23.7152742 L6.26672577,23.6786364 C5.9542456,24.1634557 5.71262849,24.7157684 5.7011443,25.1932716 L5.70072842,25.2295018 L5.70117824,25.2657496 C5.70178933,25.2898972 5.70297755,25.3140215 5.70474291,25.3381224 C5.70648564,25.3622233 5.70881682,25.386254 5.71173646,25.4102146 C5.71465609,25.4341986 5.71814155,25.4580891 5.72219282,25.4818861 C5.72626673,25.5056831 5.73089515,25.5293632 5.73607806,25.5529265 L5.75339217,25.6231603 C5.75970673,25.6464197 5.76658711,25.6695037 5.77403331,25.6924124 C5.78145688,25.7153211 5.78943495,25.7380311 5.79796753,25.7605424 L5.81116529,25.7941252 L5.83997122,25.8602127 L5.85554544,25.8926998 C5.86618286,25.914206 5.87734085,25.9354316 5.88901939,25.9563767 C5.90067529,25.9773218 5.91284044,25.9979513 5.92551482,26.0182652 C5.93816657,26.0386025 5.95130492,26.0585892 5.96492988,26.0782252 C5.97855485,26.0978846 5.99264378,26.11717 6.00719669,26.1360814 L6.02935705,26.1641854 L6.05217943,26.1916934 C6.06761502,26.2098567 6.08348063,26.227611 6.09977626,26.2449561 C6.9595068,27.1722674 9.14162811,27.4911424 10.3305984,27.5113395 C10.5871188,27.5500856 10.8664192,27.5332196 11.126029,27.5325885 C12.0926997,27.5302392 13.0416149,27.4474172 14.0007148,27.3298114 C14.5840646,27.2267924 15.1685687,27.1448471 15.7506623,27.0314841 C16.1905087,26.9457869 16.6577521,26.806336 17.1010952,26.7722185 C17.4154991,26.6515621 17.757334,26.5832568 18.0819226,26.4933869 C18.6315948,26.3412428 19.1852729,26.1770716 19.7275441,25.99905 C19.9447514,25.9277291 20.1518078,25.8261477 20.3673515,25.749462 C22.2347294,25.0852735 24.0764756,24.2995169 25.8047296,23.3060743 L26.0960932,23.1114568 L26.6968137,22.749954 C26.9819194,22.5705999 27.2562293,22.366245 27.5297923,22.1686575 C27.7268336,22.0263314 27.9370813,21.8819365 28.1044171,21.7025123 L28.1022443,21.6652038 C28.4584058,21.3185579 28.8519114,21.0097112 29.2221618,20.6788442 C29.7815095,20.1473741 30.4604943,19.2760956 30.703469,18.5236151 C30.8219518,18.1568071 30.8433399,17.7241483 30.6696556,17.3727687 C30.4452809,16.9188086 30.0290014,16.6199293 29.5779232,16.4033856 C29.4896879,16.0712307 29.3844418,15.7396846 29.2634361,15.4100535 C29.1182961,15.0146781 28.9540055,14.6316572 28.7719527,14.2616152 C28.8509679,14.2799701 28.9197555,14.2970862 28.9760104,14.3118992 Z" id="path-40"></path>
        <filter x="-3.5%" y="-6.7%" width="107.0%" height="113.3%" filterUnits="objectBoundingBox" id="filter-41">
            <feGaussianBlur stdDeviation="0.5" in="SourceAlpha" result="shadowBlurInner1"></feGaussianBlur>
            <feOffset dx="0" dy="1" in="shadowBlurInner1" result="shadowOffsetInner1"></feOffset>
            <feComposite in="shadowOffsetInner1" in2="SourceAlpha" operator="arithmetic" k2="-1" k3="1" result="shadowInnerInner1"></feComposite>
            <feColorMatrix values="0 0 0 0 1   0 0 0 0 1   0 0 0 0 1  0 0 0 0.333180781 0" type="matrix" in="shadowInnerInner1"></feColorMatrix>
        </filter>
    </defs>
    <g id="招投标宝典-36" stroke="none" stroke-width="1" fill="none" fill-rule="evenodd">
        <g id="编组-3" filter="url(#filter-1)" transform="translate(3, 3)">
            <mask id="mask-4" fill="white">
                <use xlink:href="#path-3"></use>
            </mask>
            <use id="蒙版" fill="url(#linearGradient-2)" fill-rule="nonzero" xlink:href="#path-3"></use>
        </g>
        <g id="编组" transform="translate(17.2035, 17.405) rotate(-15) translate(-17.2035, -17.405)translate(5.7803, 3.9998)">
            <path d="M3.62225961,7.6416903 C4.41380842,5.45855998 5.46872926,3.27048295 7.01162928,1.5097429 L7.39632441,1.08308491 C7.76168639,0.685117536 8.22369493,0.23346783 8.73974914,0.215534449 C8.96845223,0.207599303 9.1789637,0.289121523 9.34297402,0.448978146 C9.44875225,0.552118588 9.5485372,0.687455361 9.59053089,0.830300389 C9.71893869,1.26679642 9.69813924,2.36738142 9.71983679,2.88671396 C9.74496588,3.48742314 9.79545148,4.08753725 9.80704239,4.6887459 L9.31237894,4.77306636 C9.06413001,4.81691036 8.81602005,4.86527405 8.57486563,4.92713071 C7.99050144,5.07705051 7.44995483,5.29523167 6.90037914,5.53772084 C6.03567055,5.91925813 5.47250046,6.20397352 4.69383488,6.76582494 C4.31733511,7.03751341 3.99211317,7.36869265 3.62225961,7.6416903 Z" id="路径" fill="url(#linearGradient-5)" fill-rule="nonzero"></path>
            <path d="M12.0764938,4.54306824 C12.0162467,4.10188174 12.0333744,3.64699665 12.0096768,3.20231849 C11.9719715,2.49494621 11.8488803,1.4721877 11.9236409,0.800453257 C11.9413442,0.641373957 11.9936935,0.493975627 12.0901607,0.365159102 C12.2317284,0.176145476 12.4638796,0.0391529047 12.6982677,0.00750728213 C13.1122023,-0.0484286194 13.5023913,0.218687307 13.8109388,0.460704494 C13.9875759,0.60121311 14.1600346,0.7466551 14.3283151,0.897030462 C14.4965889,1.04743027 14.6604336,1.20252593 14.8198491,1.36231742 C14.9792402,1.52210237 15.1339211,1.68631135 15.283892,1.85494437 C15.4338786,2.02360782 15.5789061,2.19641897 15.7189681,2.37337611 C15.8887784,2.58875249 16.0386201,2.82173235 16.202408,3.04198034 L16.5661457,3.53349032 C16.868893,3.94660882 17.1669608,4.36850883 17.4321424,4.79892323 C17.9056698,5.56745723 18.2948124,6.37497119 18.6746982,7.19238584 C18.5040195,7.09394475 18.3445705,6.95095367 18.1869328,6.83171647 C17.9187761,6.62893941 17.6424166,6.42978159 17.354481,6.25578217 C16.0903815,5.49190645 14.6435802,4.9735877 13.1900184,4.72285333 C12.8721654,4.66798897 12.5478232,4.66991084 12.2316579,4.61711018 L12.1751387,4.60675377 C12.1381951,4.59804366 12.1205474,4.5856144 12.0764938,4.54306824 Z" id="路径" fill="url(#linearGradient-6)" fill-rule="nonzero"></path>
            <g id="椭圆形">
                <use fill="url(#linearGradient-7)" fill-rule="evenodd" xlink:href="#path-11"></use>
                <use fill="url(#radialGradient-8)" fill-rule="evenodd" xlink:href="#path-11"></use>
                <use fill="url(#radialGradient-9)" fill-rule="evenodd" xlink:href="#path-11"></use>
                <use fill="url(#radialGradient-10)" fill-rule="evenodd" xlink:href="#path-11"></use>
                <use fill="black" fill-opacity="1" filter="url(#filter-12)" xlink:href="#path-11"></use>
            </g>
            <ellipse id="椭圆形" fill="url(#radialGradient-13)" filter="url(#filter-14)" cx="11.2270833" cy="17.2924145" rx="8.67708333" ry="7.79166667"></ellipse>
            <ellipse id="椭圆形" fill="url(#radialGradient-15)" filter="url(#filter-16)" cx="11.4041667" cy="18.3458333" rx="7.79166667" ry="3.89583333"></ellipse>
            <ellipse id="椭圆形" fill="url(#radialGradient-17)" filter="url(#filter-18)" cx="16.6458333" cy="15.2291667" rx="4.95833333" ry="6.375"></ellipse>
            <g id="路径" fill-rule="nonzero">
                <use fill="black" fill-opacity="1" filter="url(#filter-22)" xlink:href="#path-21"></use>
                <use fill="url(#linearGradient-19)" xlink:href="#path-21"></use>
                <use fill="black" fill-opacity="1" filter="url(#filter-23)" xlink:href="#path-21"></use>
                <path stroke="url(#linearGradient-20)" stroke-width="0.364583333" d="M7.7673953,10.6069614 C10.0127261,10.155723 13.1800797,10.248021 15.4134032,10.6985183 C16.4848246,10.8874081 17.8883529,11.4276655 18.5353953,12.3569442 C18.6703807,12.5508096 18.7880689,12.7692324 18.8248368,13.0053243 C18.8678062,13.2810775 18.8966045,13.5694222 18.8935012,13.8478617 C18.8890832,14.2420048 18.8903674,14.6364316 18.8916602,15.0312336 C18.8985931,16.0950546 18.9071937,16.9560579 18.8256781,17.3986053 C18.7206841,17.9687019 18.242112,18.4175601 17.781604,18.7297588 C15.4171665,20.332672 10.1559059,20.1598045 7.46608937,19.6380601 C6.17478045,19.3186563 4.88911141,18.9026144 4.23610105,17.9787732 C3.8642899,16.6576843 3.87910266,15.8003719 3.89174901,15.0353503 C3.89672157,14.113895 3.89591253,13.5343526 3.99579872,13.0114672 C4.09928254,12.4698385 4.48553392,11.9544097 4.93214748,11.6592497 C5.33156857,11.3952661 5.80961556,11.2019161 6.25982089,11.0420343 C6.75069298,10.8677375 7.25616594,10.7096966 7.7673953,10.6069614 Z" stroke-linejoin="square"></path>
            </g>
            <g id="形状结合">
                <use fill="black" fill-opacity="1" filter="url(#filter-26)" xlink:href="#path-25"></use>
                <use fill="url(#linearGradient-24)" fill-rule="evenodd" xlink:href="#path-25"></use>
            </g>
            <g id="形状结合">
                <use fill="black" fill-opacity="1" filter="url(#filter-28)" xlink:href="#path-27"></use>
                <use fill="url(#linearGradient-24)" fill-rule="evenodd" xlink:href="#path-27"></use>
            </g>
            <g id="形状结合">
                <use fill="black" fill-opacity="1" filter="url(#filter-31)" xlink:href="#path-30"></use>
                <use fill="url(#linearGradient-29)" fill-rule="evenodd" xlink:href="#path-30"></use>
            </g>
            <path d="M3.6125,18.3458333 C3.47225474,21.8781343 5.28163743,24.3913215 9.04064806,25.885395 C12.4074468,26.7416895 15.2319646,25.4450332 17.5142015,21.9954263 C12.5591315,24.1326726 7.92523098,22.9161416 3.6125,18.3458333 Z" id="路径-2" fill="url(#radialGradient-32)" filter="url(#filter-33)"></path>
            <g id="路径" fill-rule="nonzero">
                <use fill="url(#linearGradient-34)" xlink:href="#path-35"></use>
                <use fill="black" fill-opacity="1" filter="url(#filter-36)" xlink:href="#path-35"></use>
            </g>
            <path d="M15.5541066,11.0510739 C16.5454473,11.2258457 17.8364042,11.7343228 18.4335562,12.5919491 C18.5675123,12.7843363 18.6814975,13.0019724 18.7179154,13.2358171 C18.7574683,13.4896443 18.783718,13.7550729 18.7808616,14.0113695 C18.7763467,14.4141442 18.7785547,14.8172532 18.7797371,15.2200175 C18.7813007,15.7501749 18.8036604,16.7290578 18.7179154,17.1945666 C18.6170825,17.7420693 18.1663354,18.1808517 17.72159,18.4823643 C16.8365005,19.0823893 15.5005701,19.4086238 14.066857,19.5510739" id="路径" stroke="url(#linearGradient-37)" stroke-width="0.729166667" opacity="0.75" fill-rule="nonzero" filter="url(#filter-38)"></path>
        </g>
        <g id="形状结合" fill-rule="nonzero">
            <use fill="url(#linearGradient-39)" xlink:href="#path-40"></use>
            <use fill-opacity="0.5" fill="url(#linearGradient-39)" style="mix-blend-mode: color-burn;" xlink:href="#path-40"></use>
            <use fill="black" fill-opacity="1" filter="url(#filter-41)" xlink:href="#path-40"></use>
        </g>
    </g>
</svg>