<?xml version="1.0" encoding="UTF-8"?>
<svg width="16px" height="16px" viewBox="0 0 16 16" version="1.1" xmlns="http://www.w3.org/2000/svg" xmlns:xlink="http://www.w3.org/1999/xlink">
    <title>copy</title>
    <g id="copy" stroke="none" stroke-width="1" fill="none" fill-rule="evenodd">
        <path d="M6.40789474,2.5 L12.4868421,2.5 C13.0463938,2.5 13.5,2.95360624 13.5,3.51315789 L13.5,9.59210526 C13.5,10.1516569 13.0463938,10.6052632 12.4868421,10.6052632 L6.40789474,10.6052632 C5.84834308,10.6052632 5.39473684,10.1516569 5.39473684,9.59210526 L5.39473684,3.51315789 C5.39473684,2.95360623 5.84834309,2.5 6.40789474,2.5 Z M6.40789474,3.36842105 C6.32795879,3.36842105 6.26315789,3.43322194 6.26315789,3.51315789 L6.26315789,9.59210526 C6.26315789,9.67204121 6.32795879,9.73684211 6.40789474,9.73684211 L12.4868421,9.73684211 C12.5667781,9.73684211 12.6315789,9.67204121 12.6315789,9.59210526 L12.6315789,3.51315789 C12.6315789,3.43322194 12.5667781,3.36842105 12.4868421,3.36842105 L6.40789474,3.36842105 Z M9.73684211,11.4736842 C9.73684211,11.2338764 9.93124478,11.0394737 10.1710526,11.0394737 C10.4108605,11.0394737 10.6052632,11.2338764 10.6052632,11.4736842 L10.6052632,12.4868421 C10.6052632,13.0463938 10.1516569,13.5 9.59210526,13.5 L3.51315789,13.5 C2.95360624,13.5 2.5,13.0463938 2.5,12.4868421 L2.5,6.40789474 C2.5,5.84834309 2.95360623,5.39473684 3.51315789,5.39473684 L4.52631579,5.39473684 C4.76612364,5.39473684 4.96052631,5.58913951 4.96052631,5.82894737 C4.96052631,6.06875522 4.76612364,6.26315789 4.52631579,6.26315789 L3.51315789,6.26315789 C3.43322194,6.2631579 3.36842105,6.32795879 3.36842105,6.40789474 L3.36842105,12.4868421 C3.36842106,12.5667781 3.43322194,12.6315789 3.51315789,12.6315789 L9.59210526,12.6315789 C9.67204121,12.6315789 9.7368421,12.5667781 9.73684211,12.4868421 L9.73684211,11.4736842 Z" id="形状" fill="#000000" fill-rule="nonzero"></path>
    </g>
</svg>