<?xml version="1.0" encoding="UTF-8"?>
<svg width="21px" height="20px" viewBox="0 0 21 20" version="1.1" xmlns="http://www.w3.org/2000/svg" xmlns:xlink="http://www.w3.org/1999/xlink">
    <title>搜索</title>
    <g id="搜索" stroke="none" fill="none" transform="translate(0.5, 0)">
        <rect id="矩形" x="0" y="0" width="20" height="20"></rect>
        <path d="M8.94648046,3.95652174 C9.24265187,3.95652174 9.53376615,3.97722295 9.8183267,4.01719454 L9.81864373,4.91706907 C9.53538936,4.86960227 9.24395823,4.84485058 8.94648046,4.84485058 C6.1754785,4.84485058 3.92913757,6.99252978 3.92913757,9.64182634 C3.92913757,12.2911229 6.1754785,14.4388021 8.94648046,14.4388021 C11.652787,14.4388021 13.8586454,12.3902372 13.9601718,9.82654679 L14.887,9.82552174 L14.8856734,9.92577504 C14.8276013,11.0545746 14.4251925,12.0968192 13.7767667,12.9585079 C13.8020744,12.9770962 13.8264807,12.9985634 13.849906,13.0215006 L16.3720158,15.4910653 C16.7305123,15.8420929 16.7234944,16.4045116 16.356341,16.7472626 C15.9891876,17.0900135 15.400932,17.0833039 15.0424355,16.7322763 L12.5203258,14.2627116 L12.4781398,14.2162993 C11.4905718,14.9143928 10.2689404,15.3271309 8.94648046,15.3271309 C5.66232999,15.3271309 3,12.7817334 3,9.64182634 C3,6.50191931 5.66232999,3.95652174 8.94648046,3.95652174 Z M14.7340909,2 L14.7362089,2.01258163 C15.0257642,3.5959054 16.3315618,4.84492308 17.9868494,5.12188746 L18,5.1226087 L18,5.39782609 L17.9868494,5.39985167 C16.36288,5.67157587 15.0753009,6.8789187 14.753731,8.41965106 L14.7362089,8.5091575 L14.7340909,8.52173913 L14.4463636,8.52173913 L14.4456093,8.5091575 C14.1681188,6.99180556 12.9573085,5.78148125 11.3884369,5.43770607 L11.347,5.429 L11.1818182,5.39782609 L11.1818182,5.1226087 L11.1949688,5.12188746 L11.4262533,5.07639651 C11.4477581,5.07152669 11.4691958,5.06649095 11.4905649,5.06129076 C11.5420284,5.04875885 11.5924945,5.03544372 11.642551,5.02121683 L11.4905649,5.06129076 C11.5715738,5.04157721 11.651597,5.01950024 11.7305498,4.99513937 L11.642551,5.02121683 C11.717151,5.00001428 11.7908414,4.97678669 11.8635528,4.95159918 L11.7305498,4.99513937 C11.8059318,4.97188028 11.880338,4.94653921 11.9536948,4.91918539 L11.8635528,4.95159918 C11.9315651,4.92803947 11.9987208,4.902765 12.0649632,4.87582906 L11.9536948,4.91918539 C13.2389969,4.43991217 14.2021079,3.34273551 14.4463636,2 L14.7340909,2 Z" id="形状结合" fill-opacity="1" fill="#000000" fill-rule="evenodd"></path>
    </g>
</svg>