<?xml version="1.0" encoding="UTF-8"?>
<svg width="22px" height="6px" viewBox="0 0 22 6" version="1.1" xmlns="http://www.w3.org/2000/svg" xmlns:xlink="http://www.w3.org/1999/xlink">
    <defs>
        <linearGradient x1="100%" y1="50%" x2="1.70625273%" y2="50%" id="linearGradient-1">
            <stop stop-color="#FFFFFF" stop-opacity="0.4" offset="0%"></stop>
            <stop stop-color="#FFFFFF" stop-opacity="0.3" offset="51.2205324%"></stop>
            <stop stop-color="#FFFFFF" stop-opacity="0.7" offset="100%"></stop>
        </linearGradient>
    </defs>
    <g id="v1.1.3" stroke="none" stroke-width="1" fill="none" fill-rule="evenodd">
        <g id="画板" transform="translate(-18.000000, -49.000000)" fill="url(#linearGradient-1)" fill-rule="nonzero">
            <path d="M21,49 C20.1552632,49 19.4447368,49.2917214 18.8684211,49.8751643 C18.2842105,50.4586071 18,51.1681997 18,52.0118265 C18,52.847569 18.2842105,53.5571616 18.8684211,54.1406045 C19.4368421,54.7082786 20.1473684,55 21,55 C21.8368421,55 22.5473684,54.7082786 23.1315789,54.1406045 C23.7078947,53.565046 24,52.8554534 24,52.0118265 C24,51.1681997 23.7078947,50.4586071 23.1315789,49.8751643 C22.5473684,49.2917214 21.8368421,49 21,49 Z M29,49 C28.1552632,49 27.4447368,49.2917214 26.8684211,49.8751643 C26.2842105,50.4586071 26,51.1681997 26,52.0118265 C26,52.847569 26.2842105,53.5571616 26.8684211,54.1406045 C27.4368421,54.7082786 28.1473684,55 29,55 C29.8368421,55 30.5473684,54.7082786 31.1315789,54.1406045 C31.7078947,53.565046 32,52.8554534 32,52.0118265 C32,51.1681997 31.7078947,50.4586071 31.1315789,49.8751643 C30.5473684,49.2917214 29.8368421,49 29,49 Z M37,49 C36.1552632,49 35.4447368,49.2917214 34.8684211,49.8751643 C34.2842105,50.4586071 34,51.1681997 34,52.0118265 C34,52.847569 34.2842105,53.5571616 34.8684211,54.1406045 C35.4368421,54.7082786 36.1473684,55 37,55 C37.8368421,55 38.5473684,54.7082786 39.1315789,54.1406045 C39.7078947,53.565046 40,52.8554534 40,52.0118265 C40,51.1681997 39.7078947,50.4586071 39.1315789,49.8751643 C38.5473684,49.2917214 37.8368421,49 37,49 Z" id="1"></path>
        </g>
    </g>
</svg>