<?xml version="1.0" encoding="UTF-8"?>
<svg width="22px" height="6px" viewBox="0 0 22 6" version="1.1" xmlns="http://www.w3.org/2000/svg" xmlns:xlink="http://www.w3.org/1999/xlink">
    <title>2</title>
    <defs>
        <linearGradient x1="100%" y1="50%" x2="1.70625273%" y2="50%" id="linearGradient-1">
            <stop stop-color="#000000" stop-opacity="0.3" offset="0%"></stop>
            <stop stop-color="#000000" stop-opacity="0.5" offset="48.9397809%"></stop>
            <stop stop-color="#000000" stop-opacity="0.4" offset="100%"></stop>
        </linearGradient>
    </defs>
    <g id="桌面版" stroke="none" stroke-width="1" fill="none" fill-rule="evenodd">
        <g id="画板" transform="translate(-64.000000, -49.000000)" fill="url(#linearGradient-1)" fill-rule="nonzero">
            <path d="M67,49 C66.1552632,49 65.4447368,49.2917214 64.8684211,49.8751643 C64.2842105,50.4586071 64,51.1681997 64,52.0118265 C64,52.847569 64.2842105,53.5571616 64.8684211,54.1406045 C65.4368421,54.7082786 66.1473684,55 67,55 C67.8368421,55 68.5473684,54.7082786 69.1315789,54.1406045 C69.7078947,53.565046 70,52.8554534 70,52.0118265 C70,51.1681997 69.7078947,50.4586071 69.1315789,49.8751643 C68.5473684,49.2917214 67.8368421,49 67,49 Z M75,49 C74.1552632,49 73.4447368,49.2917214 72.8684211,49.8751643 C72.2842105,50.4586071 72,51.1681997 72,52.0118265 C72,52.847569 72.2842105,53.5571616 72.8684211,54.1406045 C73.4368421,54.7082786 74.1473684,55 75,55 C75.8368421,55 76.5473684,54.7082786 77.1315789,54.1406045 C77.7078947,53.565046 78,52.8554534 78,52.0118265 C78,51.1681997 77.7078947,50.4586071 77.1315789,49.8751643 C76.5473684,49.2917214 75.8368421,49 75,49 Z M83,49 C82.1552632,49 81.4447368,49.2917214 80.8684211,49.8751643 C80.2842105,50.4586071 80,51.1681997 80,52.0118265 C80,52.847569 80.2842105,53.5571616 80.8684211,54.1406045 C81.4368421,54.7082786 82.1473684,55 83,55 C83.8368421,55 84.5473684,54.7082786 85.1315789,54.1406045 C85.7078947,53.565046 86,52.8554534 86,52.0118265 C86,51.1681997 85.7078947,50.4586071 85.1315789,49.8751643 C84.5473684,49.2917214 83.8368421,49 83,49 Z" id="2"></path>
        </g>
    </g>
</svg>