<?xml version="1.0" encoding="UTF-8"?>
<svg width="18px" height="18px" viewBox="0 0 18 18" version="1.1" xmlns="http://www.w3.org/2000/svg" xmlns:xlink="http://www.w3.org/1999/xlink">
    <g id="1" stroke="none" stroke-width="1" fill-rule="evenodd" fill-opacity="0.7">
        <path d="M7.28526255,14.1017349 C7.41276351,14.1017349 7.52242577,14.1898559 7.54694606,14.3120152 C7.67209904,14.9344234 8.17271098,15.4263099 8.7860317,15.547112 C8.91031309,15.571751 8.99962798,15.6784383 8.99962798,15.8022542 C8.99962798,15.9260701 8.91031309,16.0327574 8.7860317,16.0573964 C8.17271098,16.1778514 7.67174349,16.6693907 7.54694606,17.2911047 C7.52242577,17.413264 7.41276351,17.501385 7.28526255,17.501385 C7.15776159,17.501385 7.04809933,17.413264 7.02357904,17.2911047 C6.89842606,16.6690436 6.39816967,16.1778514 5.7844934,16.0570493 C5.66021201,16.0324103 5.57089712,15.925723 5.57089712,15.8019071 C5.57089712,15.6780911 5.66021201,15.5714039 5.7844934,15.5467648 C6.39781412,15.4263099 6.8987816,14.9340763 7.02357904,14.3120152 C7.04809933,14.1898559 7.15776159,14.1017349 7.28526255,14.1017349 Z M13.6423339,8.43565151 C13.8920506,8.43565151 14.1068294,8.61027955 14.1548535,8.85236077 C14.3999716,10.0857778 15.3804438,11.0605418 16.5816615,11.2999334 C16.8250726,11.3487602 17,11.5601807 17,11.8055449 C17,12.0509091 16.8250726,12.2623296 16.5816615,12.3111564 C15.3804438,12.5498601 14.3992752,13.5239362 14.1548535,14.7559774 C14.1068294,14.9980586 13.8920506,15.1726867 13.6423339,15.1726867 C13.3926173,15.1726867 13.1778385,14.9980586 13.1298144,14.7559774 C12.8846963,13.5232483 11.9049204,12.5498601 10.7030063,12.3104685 C10.4595953,12.2616417 10.2846679,12.0502212 10.2846679,11.804857 C10.2846679,11.5594928 10.4595953,11.3480723 10.7030063,11.2992455 C11.9042241,11.0605418 12.8853927,10.0850899 13.1298144,8.85236077 C13.1778385,8.61027955 13.3926173,8.43565151 13.6423339,8.43565151 Z M9.81749665,2.62003362 L11.6700544,4.4657786 C11.8880734,4.68299581 11.8887233,5.03582445 11.6715061,5.25384342 L4.23223372,12.6631437 L1.33411383,13.2456385 C1.18325138,13.2759605 1.03637242,13.1782431 1.00605049,13.0273806 C0.998739545,12.9910061 0.998767073,12.9535376 1.00613146,12.9171739 L1.59059457,10.0312191 L9.03092995,2.6199874 C9.24838851,2.40337946 9.60006354,2.40340012 9.81749665,2.62003362 Z M11.7817425,0.662384984 L13.6347212,2.50757623 C13.8534163,2.72687869 13.8529231,3.07970757 13.6350006,3.29702163 L13.1162605,3.81431364 C12.8988236,4.03114349 12.5469515,4.03120621 12.3294373,3.81445388 L10.4769256,1.96843049 C10.2583071,1.74904922 10.2589254,1.39622053 10.4769249,1.17898377 L10.9951981,0.662523915 C11.2126031,0.445879586 11.564261,0.445817471 11.7817425,0.662384984 Z" id="形状"></path>
    </g>
</svg>