<?xml version="1.0" encoding="UTF-8"?>
<svg width="18px" height="18px" viewBox="0 0 18 18" version="1.1" xmlns="http://www.w3.org/2000/svg" xmlns:xlink="http://www.w3.org/1999/xlink">
    <g id="10" stroke="none" stroke-width="1" fill-rule="evenodd" fill-opacity="0.7">
        <path d="M2,5.27430556 C2,5.21180556 2.07067308,5.18055556 2.11442308,5.22569444 L5.73894231,9.03125 C5.7625,9.05902778 5.7625,9.10069444 5.73894231,9.12847222 L3.20480769,11.9131944 C3.03317308,12.0902778 3.03317308,12.375 3.20480769,12.5520833 C3.28894231,12.6388889 3.40336538,12.6840278 3.51442308,12.6840278 C3.62548077,12.6840278 3.73990385,12.6388889 3.82403846,12.5520833 L6.34807692,9.77777778 C6.375,9.75 6.41875,9.75 6.44567308,9.77777778 L7.03798077,10.3993056 C7.55961538,10.9444444 8.26634615,11.2673611 9.01009615,11.2638889 C9.74375,11.2604167 10.4269231,10.9618056 10.9418269,10.4236111 L11.5576923,9.77777778 C11.5846154,9.75 11.6283654,9.75 11.6552885,9.77777778 L14.1793269,12.5520833 C14.2634615,12.6388889 14.3778846,12.6840278 14.4889423,12.6840278 C14.6,12.6840278 14.7144231,12.6388889 14.7985577,12.5520833 C14.9701923,12.375 14.9701923,12.0902778 14.7985577,11.9131944 L12.2644231,9.12847222 C12.2375,9.10069444 12.2375,9.05902778 12.2644231,9.03125 L15.8855769,5.22569444 C15.9259615,5.18402778 16,5.21180556 16,5.27430556 L16,12.8888889 C16,13.5 15.5153846,14 14.9230769,14 L3.07692308,14 C2.48461538,14 2,13.5 2,12.8888889 L2,5.27430556 Z M14.9298077,4 C15.1822115,4 15.4110577,4.09027778 15.5961538,4.24305556 L10.3158654,9.78819444 C9.96586538,10.15625 9.49807692,10.3576389 9,10.3576389 C8.50192308,10.3576389 8.03413462,10.1527778 7.6875,9.78819444 L2.40721154,4.24305556 C2.58894231,4.09027778 2.82115385,4 3.07355769,4 L14.9298077,4 Z" id="形状" fill-rule="nonzero"></path>
    </g>
</svg>