<?xml version="1.0" encoding="UTF-8"?>
<svg width="24px" height="24px" viewBox="0 0 24 24" version="1.1" xmlns="http://www.w3.org/2000/svg" xmlns:xlink="http://www.w3.org/1999/xlink">
    <title>11</title>
    <defs>
        <rect id="path-1" x="0" y="0" width="24" height="24"></rect>
        <filter x="-11.3%" y="-5.7%" width="122.6%" height="122.6%" filterUnits="objectBoundingBox" id="filter-3">
            <feOffset dx="0" dy="1" in="SourceAlpha" result="shadowOffsetOuter1"></feOffset>
            <feGaussianBlur stdDeviation="0.5" in="shadowOffsetOuter1" result="shadowBlurOuter1"></feGaussianBlur>
            <feColorMatrix values="0 0 0 0 0   0 0 0 0 0   0 0 0 0 0  0 0 0 0.196570763 0" type="matrix" in="shadowBlurOuter1" result="shadowMatrixOuter1"></feColorMatrix>
            <feMerge>
                <feMergeNode in="shadowMatrixOuter1"></feMergeNode>
                <feMergeNode in="SourceGraphic"></feMergeNode>
            </feMerge>
        </filter>
        <rect id="path-4" x="0" y="0" width="2.5" height="2.875" rx="1.25"></rect>
        <filter x="-109.1%" y="-52.4%" width="318.2%" height="204.7%" filterUnits="objectBoundingBox" id="filter-6">
            <feGaussianBlur stdDeviation="0.5" in="SourceGraphic"></feGaussianBlur>
        </filter>
        <filter x="-43.2%" y="-59.0%" width="186.4%" height="218.0%" filterUnits="objectBoundingBox" id="filter-7">
            <feGaussianBlur stdDeviation="0.5" in="SourceGraphic"></feGaussianBlur>
        </filter>
        <path d="M8.27248285,13.624808 C4.89975309,13.6190741 0,13.4805556 0,12.625 C0,12.0833982 0.490232386,10.9712626 1.5,10.25 C2.50976761,9.52873742 3.125,8.875 3.125,6.625 C3.125,4.375 3.375,0 8.5,0 C13.625,0 13.875,4.375 13.875,6.625 C13.875,8.875 14.4902324,9.52873742 15.5,10.25 C16.5097676,10.9712626 17,12.0833982 17,12.625 C17,13.5 11.875,13.625 8.5,13.625 Z" id="path-8"></path>
        <filter x="-5.9%" y="-7.3%" width="111.8%" height="114.7%" filterUnits="objectBoundingBox" id="filter-10">
            <feGaussianBlur stdDeviation="0.5" in="SourceAlpha" result="shadowBlurInner1"></feGaussianBlur>
            <feOffset dx="1" dy="0" in="shadowBlurInner1" result="shadowOffsetInner1"></feOffset>
            <feComposite in="shadowOffsetInner1" in2="SourceAlpha" operator="arithmetic" k2="-1" k3="1" result="shadowInnerInner1"></feComposite>
            <feColorMatrix values="0 0 0 0 0.818190201   0 0 0 0 0.668893228   0 0 0 0 0.0878455457  0 0 0 1 0" type="matrix" in="shadowInnerInner1"></feColorMatrix>
        </filter>
        <filter x="-14.2%" y="-86.7%" width="128.4%" height="273.4%" filterUnits="objectBoundingBox" id="filter-11">
            <feGaussianBlur stdDeviation="0.875" in="SourceGraphic"></feGaussianBlur>
        </filter>
        <filter x="-15.8%" y="-9.6%" width="131.5%" height="119.2%" filterUnits="objectBoundingBox" id="filter-12">
            <feGaussianBlur stdDeviation="0.5" in="SourceGraphic"></feGaussianBlur>
        </filter>
        <filter x="-16.5%" y="-9.6%" width="132.9%" height="119.2%" filterUnits="objectBoundingBox" id="filter-13">
            <feGaussianBlur stdDeviation="0.5" in="SourceGraphic"></feGaussianBlur>
        </filter>
        <filter x="-35.0%" y="-0.0%" width="170.1%" height="100.0%" filterUnits="objectBoundingBox" id="filter-14">
            <feGaussianBlur stdDeviation="1.25 0" in="SourceGraphic"></feGaussianBlur>
        </filter>
        <filter x="-10.5%" y="-21.8%" width="121.0%" height="143.5%" filterUnits="objectBoundingBox" id="filter-15">
            <feGaussianBlur stdDeviation="0.5" in="SourceGraphic"></feGaussianBlur>
        </filter>
        <ellipse id="path-16" cx="8.25" cy="1.125" rx="8.25" ry="1.125"></ellipse>
        <filter x="0.0%" y="0.0%" width="100.0%" height="100.0%" filterUnits="objectBoundingBox" id="filter-18">
            <feGaussianBlur stdDeviation="0.25" in="SourceGraphic"></feGaussianBlur>
        </filter>
        <path d="M2.80929011,0.000775963511 C3.40624253,0.00377616112 3.98699431,0.0154251844 4.54500536,0.0348312021 C4.67684744,0.329006112 4.75,0.655960208 4.75,1 C4.75,2.31167628 3.68667628,3.375 2.375,3.375 C1.06332372,3.375 0,2.31167628 0,1 C0,0.659892091 0.0714900552,0.33648158 0.200262837,0.0439757945 C0.930644017,0.0154462838 1.70209387,0 2.5,0 Z" id="path-19"></path>
        <filter x="-21.1%" y="-29.6%" width="142.1%" height="159.3%" filterUnits="objectBoundingBox" id="filter-21">
            <feGaussianBlur stdDeviation="0.5" in="SourceAlpha" result="shadowBlurInner1"></feGaussianBlur>
            <feOffset dx="0" dy="1" in="shadowBlurInner1" result="shadowOffsetInner1"></feOffset>
            <feComposite in="shadowOffsetInner1" in2="SourceAlpha" operator="arithmetic" k2="-1" k3="1" result="shadowInnerInner1"></feComposite>
            <feColorMatrix values="0 0 0 0 0.811764706   0 0 0 0 0.611764706   0 0 0 0 0.101960784  0 0 0 0.901964734 0" type="matrix" in="shadowInnerInner1" result="shadowMatrixInner1"></feColorMatrix>
            <feOffset dx="-0" dy="-0" in="SourceAlpha" result="shadowOffsetInner2"></feOffset>
            <feComposite in="shadowOffsetInner2" in2="SourceAlpha" operator="arithmetic" k2="-1" k3="1" result="shadowInnerInner2"></feComposite>
            <feColorMatrix values="0 0 0 0 0.949019608   0 0 0 0 0.788235294   0 0 0 0 0.254901961  0 0 0 1 0" type="matrix" in="shadowInnerInner2" result="shadowMatrixInner2"></feColorMatrix>
            <feMerge>
                <feMergeNode in="shadowMatrixInner1"></feMergeNode>
                <feMergeNode in="shadowMatrixInner2"></feMergeNode>
            </feMerge>
        </filter>
        <filter x="0.0%" y="0.0%" width="100.0%" height="100.0%" filterUnits="objectBoundingBox" id="filter-22">
            <feGaussianBlur stdDeviation="0.25" in="SourceGraphic"></feGaussianBlur>
        </filter>
        <filter x="-34.9%" y="-47.0%" width="169.8%" height="194.0%" filterUnits="objectBoundingBox" id="filter-23">
            <feGaussianBlur stdDeviation="0.5" in="SourceGraphic"></feGaussianBlur>
        </filter>
        <filter x="-34.9%" y="-47.0%" width="169.8%" height="194.0%" filterUnits="objectBoundingBox" id="filter-24">
            <feGaussianBlur stdDeviation="0.5" in="SourceGraphic"></feGaussianBlur>
        </filter>
        <linearGradient x1="50%" y1="0%" x2="50%" y2="100%" id="linearGradient-25">
            <stop stop-color="#FFF6C3" offset="0%"></stop>
            <stop stop-color="#FEE47C" stop-opacity="0" offset="100%"></stop>
        </linearGradient>
        <filter x="-52.2%" y="-32.6%" width="204.3%" height="165.1%" filterUnits="objectBoundingBox" id="filter-26">
            <feGaussianBlur stdDeviation="0.5" in="SourceGraphic"></feGaussianBlur>
        </filter>
        <filter x="-38.8%" y="-57.1%" width="177.6%" height="214.3%" filterUnits="objectBoundingBox" id="filter-27">
            <feGaussianBlur stdDeviation="0.5" in="SourceGraphic"></feGaussianBlur>
        </filter>
    </defs>
    <g id="11" stroke="none" stroke-width="1" fill="none" fill-rule="evenodd">
        <g>
            <mask id="mask-2" fill="white">
                <use xlink:href="#path-1"></use>
            </mask>
            <g id="蒙版"></g>
            <g id="编组" filter="url(#filter-3)" mask="url(#mask-2)">
                <g transform="translate(3.161165, 3.161165)">
                    <g id="路径-451" stroke-width="1" fill="none" transform="translate(7.463835, 0.463835)">
                        <mask id="mask-5" fill="white">
                            <use xlink:href="#path-4"></use>
                        </mask>
                        <use id="蒙版" fill="#FFDC51" xlink:href="#path-4"></use>
                        <path d="M0.375,-0.125 C-0.0416666667,0.541666667 0.0416666667,1.29166667 0.625,2.125 L-0.375,2.375 C-0.625,0.958333333 -0.75,0.25 -0.75,0.25 C-0.75,0.25 1,-1.125 0.375,-0.125 Z" id="路径-449" fill-opacity="0.437880189" fill="#A67A09" filter="url(#filter-6)" mask="url(#mask-5)"></path>
                        <path d="M0.25,0.375 C0.875,-0.125 2,0.125 2,1 C2,1.58333333 2.08333333,1.875 2.25,1.875 C3,1.95833333 3.375,1.91666667 3.375,1.75 C3.375,1.5 3.125,0.125 3.125,0.125 C3.125,0.125 2.125,-0.625 2,-0.625 C1.91666667,-0.625 1.29166667,-0.541666667 0.125,-0.375 C-0.208333333,0.458333333 -0.166666667,0.708333333 0.25,0.375 Z" fill="#CC9509" filter="url(#filter-7)" mask="url(#mask-5)"></path>
                        <ellipse id="椭圆形" fill="#FEEFA9" mask="url(#mask-5)" transform="translate(0.687500, 0.875000) rotate(-80.000000) translate(-0.687500, -0.875000) " cx="0.6875" cy="0.875" rx="1" ry="1"></ellipse>
                    </g>
                    <g id="路径-445" stroke-width="1" fill="none" transform="translate(0.338835, 1.713835)">
                        <mask id="mask-9" fill="white">
                            <use xlink:href="#path-8"></use>
                        </mask>
                        <g id="蒙版">
                            <use fill="#FFDC51" fill-rule="evenodd" xlink:href="#path-8"></use>
                            <use fill="black" fill-opacity="1" filter="url(#filter-10)" xlink:href="#path-8"></use>
                        </g>
                        <path d="M0.875,8.25 C2.75,7.5 13,6.625 16.25,8.5 C19.5,10.375 17.25,10.75 16.75,10.125 C16.25,9.5 12.75,8.5 8.5,8.5 C5.66666667,8.5 2.70833333,9.04166667 -0.375,10.125 C-0.791666667,9.375 -0.375,8.75 0.875,8.25 Z" id="路径-446" fill="#CF9C1A" filter="url(#filter-11)" mask="url(#mask-9)"></path>
                        <path d="M8.125,-0.5 C9.625,0.5 10.5,3 10.5,6.25 C10.5,9.5 13.375,8.625 13.375,11.5 C13.375,14.375 16,14.75 14.375,14.75 C12.75,14.75 16.9818502,13.7059912 17.25,13.125 C17.5181498,12.5440088 16.75,12.625 15.875,11.5 C15,10.375 13.75,9.375 13.625,8.25 C13.5,7.125 13.75,3.875 12.125,1.75 C10.5,-0.375 6.625,-1.5 8.125,-0.5 Z" fill="#DBA10E" opacity="0.825549898" filter="url(#filter-12)" mask="url(#mask-9)"></path>
                        <path d="M8.125,-0.5 C9.625,0.5 10.5,3 10.5,6.25 C10.5,9.5 13.375,8.625 13.375,11.5 C13.375,14.375 16,14.75 14.375,14.75 C13.2916667,14.75 14.0833333,14.3333333 16.75,13.5 C15.6666667,12.9166667 14.8333333,12.25 14.25,11.5 C13.375,10.375 12.125,9.375 12,8.25 C11.875,7.125 12.125,3.875 10.5,1.75 C8.875,-0.375 6.625,-1.5 8.125,-0.5 Z" fill="#CC9509" filter="url(#filter-13)" mask="url(#mask-9)"></path>
                        <path d="M3.75,11.125 C2.125,11.375 0.75,12.75 2.75,12.75 C4.75,12.75 11.375,13 12.25,12.375 C13.125,11.75 11,11 9.75,10.875 C8.5,10.75 5.375,10.875 3.75,11.125 Z" id="路径" fill="#FFEDA6" filter="url(#filter-14)" mask="url(#mask-9)"></path>
                        <path d="M1.75,2.875 C5.75,-0.875 11.375,0.125 13.875,3.5 C15.5416667,5.75 14.5,3.75 10.75,-2.5 C8,-2 6.08333333,-1.66666667 5,-1.5 C3.375,-1.25 -2.25,6.625 1.75,2.875 Z" id="路径-448" fill-opacity="0.437880189" fill="#A67A09" filter="url(#filter-15)" mask="url(#mask-9)"></path>
                    </g>
                    <g id="形状结合" stroke-width="1" fill="none" transform="translate(0.588835, 13.463835)">
                        <mask id="mask-17" fill="white">
                            <use xlink:href="#path-16"></use>
                        </mask>
                        <use id="蒙版" fill="#81610D" xlink:href="#path-16"></use>
                        <path d="M8.55929011,-0.249224036 C12.9723345,-0.227044705 16.5,0.267800573 16.5,0.875 C16.5,0.983554549 16.3872489,1.08851804 16.1768451,1.1878316 C15.2103561,0.730971944 12.1833746,0.393990094 8.55929011,0.375775964 L8.25,0.375 C4.4897175,0.375 1.31701355,0.718053107 0.323154898,1.1871684 C0.112751088,1.08851804 0,0.983554549 0,0.875 C0,0.253679656 3.69365081,-0.25 8.25,-0.25 Z" fill="#4F3A05" filter="url(#filter-18)" mask="url(#mask-17)"></path>
                    </g>
                    <g id="形状结合" stroke-width="1" fill="none" transform="translate(6.338835, 13.463835)">
                        <mask id="mask-20" fill="white">
                            <use xlink:href="#path-19"></use>
                        </mask>
                        <g id="蒙版">
                            <use fill="#F1CC3C" fill-rule="evenodd" xlink:href="#path-19"></use>
                            <use fill="black" fill-opacity="1" filter="url(#filter-21)" xlink:href="#path-19"></use>
                        </g>
                        <path d="M2.80929011,-0.249224036 C7.22233453,-0.227044705 10.75,0.267800573 10.75,0.875 C10.75,0.983554549 10.6372489,1.08851804 10.4268451,1.1878316 C9.46035605,0.730971944 6.43337455,0.393990094 2.80929011,0.375775964 L2.5,0.375 C-1.2602825,0.375 -4.43298645,0.718053107 -5.4268451,1.1871684 C-5.63724891,1.08851804 -5.75,0.983554549 -5.75,0.875 C-5.75,0.253679656 -2.05634919,-0.25 2.5,-0.25 Z" fill="#4F3A05" filter="url(#filter-22)" mask="url(#mask-20)"></path>
                        <path d="M0.387716326,1.75550643 C1.44243714,2.19467739 2.36804182,2.3152463 3.16453036,2.11721319 C3.9610189,1.91918007 4.46779328,1.20465866 4.68485351,-0.0263510268 C4.72370913,1.67287795 4.2496634,2.68349711 3.26271633,3.00550643 C1.78229571,3.48852042 0.887716326,2.75550643 0.637716326,2.50550643 C0.471049659,2.33883977 0.387716326,2.08883977 0.387716326,1.75550643 Z" id="路径-2" fill="#D59A03" opacity="0.825549898" filter="url(#filter-23)" mask="url(#mask-20)" transform="translate(2.537389, 1.570145) rotate(-10.000000) translate(-2.537389, -1.570145) "></path>
                        <path d="M0.0127163257,1.50550643 C1.06743714,1.94467739 1.99304182,2.0652463 2.78953036,1.86721319 C3.5860189,1.66918007 4.09279328,0.954658664 4.30985351,-0.276351027 C4.34870913,1.42287795 3.8746634,2.43349711 2.88771633,2.75550643 C1.40729571,3.23852042 0.512716326,2.50550643 0.262716326,2.25550643 C0.0960496591,2.08883977 0.0127163257,1.83883977 0.0127163257,1.50550643 Z" id="路径-2" fill="#D4A40B" opacity="0.574016753" filter="url(#filter-24)" mask="url(#mask-20)" transform="translate(2.162389, 1.320145) rotate(-10.000000) translate(-2.162389, -1.320145) "></path>
                    </g>
                    <path d="M6.44249906,3.08883476 C6.85508327,2.83883476 7.41950928,2.83883476 7.81626629,2.96383476 C8.2130233,3.08883476 8.25987496,5.46383476 8.07670599,7.08883476 C7.98050945,7.94225111 7.28326639,7.1826585 6.61135429,7.08883476 C6.00387073,7.00400764 5.41614396,7.66977101 5.32917154,6.83883476 C5.14600258,5.08883476 6.02991486,3.33883476 6.44249906,3.08883476 Z" id="路径-447" fill="url(#linearGradient-25)" filter="url(#filter-26)"></path>
                    <path d="M6.96383476,15.7138348 C7.68553245,16.0056981 8.43553245,16.0056981 9.21383476,15.7138348 C9.88050143,15.4638348 10.3805014,14.7138348 10.7138348,13.4638348 C11.0471681,14.4638348 10.6721681,15.2138348 9.58883476,15.7138348 C8.50550143,16.2138348 7.63050143,16.2138348 6.96383476,15.7138348 Z" id="路径-450" fill="#A57600" filter="url(#filter-27)"></path>
                    <rect id="矩形" fill="#D60707" transform="translate(8.838835, 8.838835) rotate(-45.000000) translate(-8.838835, -8.838835) " x="7.58883476" y="-2.41116524" width="2.5" height="22.5"></rect>
                </g>
            </g>
        </g>
    </g>
</svg>