<?xml version="1.0" encoding="UTF-8"?>
<svg width="24px" height="24px" viewBox="0 0 24 24" version="1.1" xmlns="http://www.w3.org/2000/svg" xmlns:xlink="http://www.w3.org/1999/xlink">
    <title>12</title>
    <defs>
        <rect id="path-1" x="0" y="0" width="24" height="24"></rect>
        <linearGradient x1="-89.2771784%" y1="17.7413471%" x2="134.629767%" y2="80.7965687%" id="linearGradient-3">
            <stop stop-color="#F7F6F9" offset="0%"></stop>
            <stop stop-color="#B6C5E9" offset="100%"></stop>
        </linearGradient>
        <rect id="path-4" x="0" y="0" width="18.2608696" height="12.8445099" rx="1.23802506"></rect>
        <filter x="-6.8%" y="-5.8%" width="113.7%" height="123.4%" filterUnits="objectBoundingBox" id="filter-6">
            <feOffset dx="0" dy="1" in="SourceAlpha" result="shadowOffsetOuter1"></feOffset>
            <feGaussianBlur stdDeviation="0.25" in="shadowOffsetOuter1" result="shadowBlurOuter1"></feGaussianBlur>
            <feColorMatrix values="0 0 0 0 0   0 0 0 0 0   0 0 0 0 0  0 0 0 0.196570763 0" type="matrix" in="shadowBlurOuter1"></feColorMatrix>
        </filter>
        <filter x="-5.5%" y="-3.9%" width="111.0%" height="119.5%" filterUnits="objectBoundingBox" id="filter-7">
            <feGaussianBlur stdDeviation="0.5" in="SourceAlpha" result="shadowBlurInner1"></feGaussianBlur>
            <feOffset dx="0" dy="0" in="shadowBlurInner1" result="shadowOffsetInner1"></feOffset>
            <feComposite in="shadowOffsetInner1" in2="SourceAlpha" operator="arithmetic" k2="-1" k3="1" result="shadowInnerInner1"></feComposite>
            <feColorMatrix values="0 0 0 0 0.719479523   0 0 0 0 0.787085639   0 0 0 0 0.951875548  0 0 0 1 0" type="matrix" in="shadowInnerInner1"></feColorMatrix>
        </filter>
        <linearGradient x1="44.4413615%" y1="40.1472541%" x2="50%" y2="71.2877784%" id="linearGradient-8">
            <stop stop-color="#D4DCF1" offset="0%"></stop>
            <stop stop-color="#FAF9FA" offset="100%"></stop>
        </linearGradient>
        <path d="M9.26006867,5.56052469 L17.2232415,5.56052469 C17.9149936,5.66337254 18.2608696,5.98861561 18.2608696,6.53625392 C18.2608696,7.08389223 17.8673601,7.60763241 17.0803413,8.10747447 L9.88781545,12.6425953 C9.37782083,12.9118148 8.89826431,12.9118148 8.44914587,12.6425953 C8.00002743,12.3733758 5.47098493,10.7416652 0.862018351,7.74746357 C0.108532289,7.18586273 -0.0686653442,6.59901113 0.330425451,5.98690877 C0.546035793,5.70265272 1.15402762,5.56052469 2.15440093,5.56052469 C3.1612354,5.56052469 5.48076135,5.56052469 9.1129788,5.56052469 C9.13381841,5.56052469 9.18284836,5.56052469 9.26006867,5.56052469 Z" id="path-9"></path>
        <filter x="-11.0%" y="-13.7%" width="122.1%" height="154.9%" filterUnits="objectBoundingBox" id="filter-10">
            <feOffset dx="0" dy="1" in="SourceAlpha" result="shadowOffsetOuter1"></feOffset>
            <feGaussianBlur stdDeviation="0.5" in="shadowOffsetOuter1" result="shadowBlurOuter1"></feGaussianBlur>
            <feColorMatrix values="0 0 0 0 0.345031827   0 0 0 0 0.345031827   0 0 0 0 0.493039338  0 0 0 0.0382054469 0" type="matrix" in="shadowBlurOuter1"></feColorMatrix>
        </filter>
        <filter x="-6.9%" y="-3.4%" width="113.8%" height="134.3%" filterUnits="objectBoundingBox" id="filter-11">
            <feGaussianBlur stdDeviation="0.25" in="SourceAlpha" result="shadowBlurInner1"></feGaussianBlur>
            <feOffset dx="-0" dy="0" in="shadowBlurInner1" result="shadowOffsetInner1"></feOffset>
            <feComposite in="shadowOffsetInner1" in2="SourceAlpha" operator="arithmetic" k2="-1" k3="1" result="shadowInnerInner1"></feComposite>
            <feColorMatrix values="0 0 0 0 0.670588235   0 0 0 0 0.733333333   0 0 0 0 0.91372549  0 0 0 0.29974664 0" type="matrix" in="shadowInnerInner1" result="shadowMatrixInner1"></feColorMatrix>
            <feGaussianBlur stdDeviation="0.25" in="SourceAlpha" result="shadowBlurInner2"></feGaussianBlur>
            <feOffset dx="0" dy="-0" in="shadowBlurInner2" result="shadowOffsetInner2"></feOffset>
            <feComposite in="shadowOffsetInner2" in2="SourceAlpha" operator="arithmetic" k2="-1" k3="1" result="shadowInnerInner2"></feComposite>
            <feColorMatrix values="0 0 0 0 1   0 0 0 0 1   0 0 0 0 1  0 0 0 0.5 0" type="matrix" in="shadowInnerInner2" result="shadowMatrixInner2"></feColorMatrix>
            <feGaussianBlur stdDeviation="0.25" in="SourceAlpha" result="shadowBlurInner3"></feGaussianBlur>
            <feOffset dx="0" dy="0" in="shadowBlurInner3" result="shadowOffsetInner3"></feOffset>
            <feComposite in="shadowOffsetInner3" in2="SourceAlpha" operator="arithmetic" k2="-1" k3="1" result="shadowInnerInner3"></feComposite>
            <feColorMatrix values="0 0 0 0 0.668279227   0 0 0 0 0.727310414   0 0 0 0 0.867509483  0 0 0 1 0" type="matrix" in="shadowInnerInner3" result="shadowMatrixInner3"></feColorMatrix>
            <feMerge>
                <feMergeNode in="shadowMatrixInner1"></feMergeNode>
                <feMergeNode in="shadowMatrixInner2"></feMergeNode>
                <feMergeNode in="shadowMatrixInner3"></feMergeNode>
            </feMerge>
        </filter>
        <linearGradient x1="66.6451132%" y1="61.6154366%" x2="40.2971529%" y2="42.1056459%" id="linearGradient-12">
            <stop stop-color="#738DCD" stop-opacity="0.261303882" offset="0%"></stop>
            <stop stop-color="#7C95D0" stop-opacity="0.310925442" offset="100%"></stop>
        </linearGradient>
        <filter x="-7.4%" y="-18.5%" width="114.7%" height="137.1%" filterUnits="objectBoundingBox" id="filter-13">
            <feGaussianBlur stdDeviation="0.5" in="SourceGraphic"></feGaussianBlur>
        </filter>
        <linearGradient x1="46.2220819%" y1="37.8529894%" x2="36.5227572%" y2="54.3375275%" id="linearGradient-14">
            <stop stop-color="#E4ECFF" offset="0%"></stop>
            <stop stop-color="#FAF9FA" offset="100%"></stop>
        </linearGradient>
        <path d="M9.13692674,0 L17.1000996,0 C17.7918516,0.102847846 18.1377276,0.428090923 18.1377276,0.975729229 C18.1377276,1.52336754 17.7442182,2.04710772 16.9571993,2.54694977 L9.76467353,7.08207064 C9.25467891,7.35129013 8.77512238,7.35129013 8.32600394,7.08207064 C7.87688551,6.81285114 5.347843,5.18114056 0.738876426,2.18693888 C-0.0146096364,1.62533804 -0.19180727,1.03848644 0.207283525,0.426384078 C0.422893868,0.142128026 1.03088569,0 2.031259,0 C3.03809347,0 5.35761943,0 8.98983688,0 C9.01067648,0 9.05970644,0 9.13692674,0 Z" id="path-15"></path>
        <filter x="-6.9%" y="-10.3%" width="113.8%" height="141.2%" filterUnits="objectBoundingBox" id="filter-17">
            <feOffset dx="0" dy="1" in="SourceAlpha" result="shadowOffsetOuter1"></feOffset>
            <feGaussianBlur stdDeviation="0.25" in="shadowOffsetOuter1" result="shadowBlurOuter1"></feGaussianBlur>
            <feColorMatrix values="0 0 0 0 0.345031827   0 0 0 0 0.345031827   0 0 0 0 0.493039338  0 0 0 0.0382054469 0" type="matrix" in="shadowBlurOuter1"></feColorMatrix>
        </filter>
        <filter x="-4.1%" y="-3.4%" width="108.3%" height="127.5%" filterUnits="objectBoundingBox" id="filter-18">
            <feGaussianBlur stdDeviation="0.25" in="SourceAlpha" result="shadowBlurInner1"></feGaussianBlur>
            <feOffset dx="-0" dy="0" in="shadowBlurInner1" result="shadowOffsetInner1"></feOffset>
            <feComposite in="shadowOffsetInner1" in2="SourceAlpha" operator="arithmetic" k2="-1" k3="1" result="shadowInnerInner1"></feComposite>
            <feColorMatrix values="0 0 0 0 0.670588235   0 0 0 0 0.733333333   0 0 0 0 0.91372549  0 0 0 0.29974664 0" type="matrix" in="shadowInnerInner1" result="shadowMatrixInner1"></feColorMatrix>
            <feGaussianBlur stdDeviation="0.25" in="SourceAlpha" result="shadowBlurInner2"></feGaussianBlur>
            <feOffset dx="-0" dy="-0" in="shadowBlurInner2" result="shadowOffsetInner2"></feOffset>
            <feComposite in="shadowOffsetInner2" in2="SourceAlpha" operator="arithmetic" k2="-1" k3="1" result="shadowInnerInner2"></feComposite>
            <feColorMatrix values="0 0 0 0 0.677465815   0 0 0 0 0.725191701   0 0 0 0 0.861210478  0 0 0 1 0" type="matrix" in="shadowInnerInner2" result="shadowMatrixInner2"></feColorMatrix>
            <feMerge>
                <feMergeNode in="shadowMatrixInner1"></feMergeNode>
                <feMergeNode in="shadowMatrixInner2"></feMergeNode>
            </feMerge>
        </filter>
        <filter x="-26.2%" y="-26.2%" width="152.5%" height="152.5%" filterUnits="objectBoundingBox" id="filter-19">
            <feGaussianBlur stdDeviation="1.08327192" in="SourceGraphic"></feGaussianBlur>
        </filter>
        <filter x="-24.3%" y="-38.6%" width="148.6%" height="177.1%" filterUnits="objectBoundingBox" id="filter-20">
            <feGaussianBlur stdDeviation="0.928518791" in="SourceGraphic"></feGaussianBlur>
        </filter>
        <linearGradient x1="74.5258402%" y1="-90.2685055%" x2="53.0540258%" y2="97.1735876%" id="linearGradient-21">
            <stop stop-color="#729DD5" offset="0%"></stop>
            <stop stop-color="#214D9F" offset="100%"></stop>
        </linearGradient>
        <path d="M3.43565217,7.57565217 C4.06956522,7.57565217 4.96847537,7.33064048 5.18869565,7.15304348 C5.18869565,7.15304348 5.18869565,7.15304348 5.18869565,7.15304348 C5.36694444,7.00929445 5.39491203,6.74826365 5.251163,6.57001486 C5.13976388,6.43187994 4.95280716,6.37995305 4.78612676,6.44085188 C4.24335069,6.63910888 3.82971996,6.73826087 3.54521739,6.73826087 C2.16782609,6.73826087 0.931304348,5.90869565 0.931304348,4.14782609 C0.931304348,2.13652174 2.44173913,0.837391304 3.96782609,0.837391304 C5.74434783,0.837391304 6.40956522,1.99565217 6.40956522,3.25565217 C6.40956522,4.21043478 5.89304348,4.83652174 5.35304348,4.83652174 C4.96956522,4.83652174 4.83652174,4.60173913 4.96173913,4.10086957 L5.37652174,2.10521739 L4.53130435,2.10521739 L4.39043478,2.48086957 L4.37478261,2.48086957 C4.22608696,2.16782609 3.99130435,2.03478261 3.70173913,2.03478261 C2.67652174,2.03478261 1.87826087,3.13043478 1.87826087,4.24173913 C1.87826087,5.06347826 2.35565217,5.60347826 3.06782609,5.60347826 C3.43565217,5.60347826 3.90521739,5.36869565 4.14782609,5.00869565 L4.17130435,5.00869565 C4.26521739,5.44695652 4.69565217,5.68956522 5.21217391,5.68956522 C6.16695652,5.68956522 7.27826087,4.86782609 7.27826087,3.21652174 C7.27826087,1.33043478 6.03391304,0 4.08521739,0 C1.8626087,0 0,1.66695652 0,4.17913043 C0,6.49565217 1.63565217,7.57565217 3.43565217,7.57565217 Z M3.37304348,4.7426087 C3.09130435,4.7426087 2.91913043,4.53913043 2.91913043,4.16347826 C2.91913043,3.64695652 3.24,2.91913043 3.74869565,2.91913043 C3.92086957,2.91913043 4.06173913,3.01304348 4.14782609,3.16956522 L3.92869565,4.35130435 C3.7173913,4.63304348 3.55304348,4.7426087 3.37304348,4.7426087 Z" id="path-22"></path>
        <filter x="-10.3%" y="-9.9%" width="120.6%" height="119.8%" filterUnits="objectBoundingBox" id="filter-23">
            <feOffset dx="0" dy="0" in="SourceAlpha" result="shadowOffsetOuter1"></feOffset>
            <feGaussianBlur stdDeviation="0.25" in="shadowOffsetOuter1" result="shadowBlurOuter1"></feGaussianBlur>
            <feColorMatrix values="0 0 0 0 0.355303987   0 0 0 0 0.411129351   0 0 0 0 0.576727383  0 0 0 0.5 0" type="matrix" in="shadowBlurOuter1"></feColorMatrix>
        </filter>
        <filter x="-10.3%" y="-9.9%" width="120.6%" height="119.8%" filterUnits="objectBoundingBox" id="filter-24">
            <feGaussianBlur stdDeviation="0.25" in="SourceAlpha" result="shadowBlurInner1"></feGaussianBlur>
            <feOffset dx="0" dy="0" in="shadowBlurInner1" result="shadowOffsetInner1"></feOffset>
            <feComposite in="shadowOffsetInner1" in2="SourceAlpha" operator="arithmetic" k2="-1" k3="1" result="shadowInnerInner1"></feComposite>
            <feColorMatrix values="0 0 0 0 0.639426925   0 0 0 0 0.791360243   0 0 0 0 1  0 0 0 0.5 0" type="matrix" in="shadowInnerInner1"></feColorMatrix>
        </filter>
    </defs>
    <g id="12" stroke="none" stroke-width="1" fill="none" fill-rule="evenodd">
        <g>
            <mask id="mask-2" fill="white">
                <use xlink:href="#path-1"></use>
            </mask>
            <g id="蒙版"></g>
            <g id="编组" mask="url(#mask-2)">
                <g transform="translate(2.869565, 5.665817)">
                    <g id="路径-261备份-+-蒙版-蒙版" transform="translate(0.000000, 0.023857)">
                        <mask id="mask-5" fill="white">
                            <use xlink:href="#path-4"></use>
                        </mask>
                        <g id="蒙版">
                            <use fill="black" fill-opacity="1" filter="url(#filter-6)" xlink:href="#path-4"></use>
                            <use fill="url(#linearGradient-3)" fill-rule="evenodd" xlink:href="#path-4"></use>
                            <use fill="black" fill-opacity="1" filter="url(#filter-7)" xlink:href="#path-4"></use>
                        </g>
                        <g id="路径-261备份" mask="url(#mask-5)" transform="translate(9.192006, 9.202517) rotate(-180.000000) translate(-9.192006, -9.202517) ">
                            <use fill="black" fill-opacity="1" filter="url(#filter-10)" xlink:href="#path-9"></use>
                            <use fill="url(#linearGradient-8)" fill-rule="evenodd" xlink:href="#path-9"></use>
                            <use fill="black" fill-opacity="1" filter="url(#filter-11)" xlink:href="#path-9"></use>
                        </g>
                        <path d="M9.56403216,0.0407787426 L18.4645241,0.0407787426 C19.2710222,-0.217694504 19.6742712,-0.0560575872 19.6742712,0.525689493 C19.6742712,1.10743657 19.4468557,1.76425142 18.9920246,2.49613403 L12.1652481,7.01683328 C11.9021303,6.90670494 11.7137029,6.85184306 11.599966,6.85224763 C11.4862291,6.85265221 11.34717,6.90751409 11.1827886,7.01683328 L10.0133447,7.80229206 C9.44332033,8.08827946 8.90731677,8.08827946 8.40533407,7.80229206 C7.90335137,7.51630466 5.14262065,5.51227319 0.123141926,1.79019763 C-0.719034518,1.19361839 -0.917089506,0.570215677 -0.471023038,-0.0800105005 C-0.193812,0.000515661562 0.503855509,0.0407787426 1.62197949,0.0407787426 C2.74732515,0.0407787426 5.33987493,0.0407787426 9.39962883,0.0407787426 C9.42292139,0.0407787426 9.4777225,0.0407787426 9.56403216,0.0407787426 Z" id="蒙版" fill="url(#linearGradient-12)" filter="url(#filter-13)" mask="url(#mask-5)"></path>
                    </g>
                    <g id="路径-262" transform="translate(0.123142, 0.000000)">
                        <mask id="mask-16" fill="white">
                            <use xlink:href="#path-15"></use>
                        </mask>
                        <g id="蒙版">
                            <use fill="black" fill-opacity="1" filter="url(#filter-17)" xlink:href="#path-15"></use>
                            <use fill="url(#linearGradient-14)" fill-rule="evenodd" xlink:href="#path-15"></use>
                            <use fill="black" fill-opacity="1" filter="url(#filter-18)" xlink:href="#path-15"></use>
                        </g>
                        <circle id="椭圆形" fill="#FFFFFF" opacity="0.350048247" filter="url(#filter-19)" mask="url(#mask-16)" cx="2.81716758" cy="7.28398526" r="6.19012528"></circle>
                        <path d="M-0.871220376,0.48491075 C4.62195895,4.3621649 8.03155715,6.62852307 9.35757423,7.28398526 C10.6835913,7.93944745 8.25635976,7.83369941 2.07587961,6.96674115 C-0.481057681,4.42674103 -1.75952633,3.03576323 -1.75952633,2.79380775 C-1.75952633,2.55185226 -1.46342434,1.78221993 -0.871220376,0.48491075 Z" fill="#94A7DD" opacity="0.222178141" filter="url(#filter-20)" mask="url(#mask-16)"></path>
                    </g>
                    <g id="形状" transform="translate(5.748261, 2.633314)" fill-rule="nonzero">
                        <use fill="black" fill-opacity="1" filter="url(#filter-23)" xlink:href="#path-22"></use>
                        <use fill="url(#linearGradient-21)" xlink:href="#path-22"></use>
                        <use fill="black" fill-opacity="1" filter="url(#filter-24)" xlink:href="#path-22"></use>
                    </g>
                </g>
            </g>
        </g>
    </g>
</svg>