<?xml version="1.0" encoding="UTF-8"?>
<svg width="18px" height="18px" viewBox="0 0 18 18" version="1.1" xmlns="http://www.w3.org/2000/svg" xmlns:xlink="http://www.w3.org/1999/xlink">
    <g id="12" stroke="none" stroke-width="1" fill-rule="evenodd" fill-opacity="0.7">
        <path d="M10.312963,2 C10.6519435,2 10.9451895,2.229054 11.0176288,2.55041251 L11.3147952,3.868718 C11.5181352,3.95522366 11.7153494,4.05277812 11.9056308,4.16059885 L12.1678269,4.31779295 L12.4218567,4.4890291 L13.7469129,4.07962036 C14.0699166,3.97982035 14.4209514,4.11174309 14.5904407,4.39662845 L15.9033338,6.6033874 C16.0728244,6.8882731 16.015037,7.24924965 15.7644718,7.47080779 L14.7365808,8.3797061 C14.7601748,8.58618011 14.7717565,8.79300327 14.7715886,8.99921761 C14.7718184,9.20595665 14.7602381,9.41330919 14.7365821,9.62031126 L15.7644718,10.5292079 C16.015037,10.7507664 16.0728244,11.1117426 15.9033338,11.3966283 L14.5904407,13.6033871 C14.4209501,13.8882721 14.0699166,14.020195 13.7469129,13.9203943 L12.421856,13.5109858 C12.2533382,13.6312382 12.0787866,13.7420164 11.8991231,13.8430815 C11.7108539,13.9494417 11.5158177,14.0457617 11.3147945,14.1312817 L11.0176288,15.4495869 C10.9451895,15.7709454 10.6519435,16 10.312963,16 L7.68717802,16 C7.3481975,16 7.05495111,15.7709467 6.98251222,15.4495882 L6.68534611,14.1312817 C6.49594285,14.0507044 6.31185474,13.9605421 6.13373325,13.861425 C5.94247985,13.755464 5.75691617,13.6385561 5.57814253,13.5109858 L4.25308639,13.9203943 C3.93008264,14.020195 3.57904869,13.8882721 3.40955843,13.6033871 L2.09666595,11.3966283 C1.92717573,11.1117426 1.98496298,10.7507664 2.23552778,10.5292079 L3.26341789,9.62031059 C3.23979249,9.41356821 3.22821226,9.20647469 3.22841167,9 C3.22821329,8.79352064 3.23979361,8.58643646 3.26341807,8.37970343 L2.23552862,7.47080679 C1.98496384,7.24924831 1.92717623,6.88827143 2.09666649,6.60338607 L3.4095592,4.39662762 C3.57904955,4.11174209 3.93008298,3.97981935 4.25308691,4.07961953 L5.57814288,4.48902876 C5.75495631,4.36285748 5.93841153,4.24711518 6.1274447,4.1420784 C6.3075209,4.04158194 6.49371298,3.95024357 6.68534576,3.86871834 L6.98251187,2.55041246 C7.05495111,2.229054 7.3481975,2 7.68717767,2 L10.312963,2 Z M9.00002027,6.2 C7.40650564,6.2 6.11470662,7.45360279 6.11470662,9 C6.11470662,10.4891232 7.31258884,11.7067389 8.82425502,11.79489 L9.00002027,11.8 C10.5935349,11.8 11.8853339,10.5463972 11.8853339,9 C11.8853339,7.45360279 10.5935349,6.2 9.00002027,6.2 Z" id="形状" fill-rule="nonzero"></path>
    </g>
</svg>