<?xml version="1.0" encoding="UTF-8"?>
<svg width="24px" height="24px" viewBox="0 0 24 24" version="1.1" xmlns="http://www.w3.org/2000/svg" xmlns:xlink="http://www.w3.org/1999/xlink">
    <title>13</title>
    <defs>
        <rect id="path-1" x="0" y="0" width="24" height="24"></rect>
        <filter x="-7.8%" y="-4.7%" width="115.6%" height="118.7%" filterUnits="objectBoundingBox" id="filter-3">
            <feOffset dx="0" dy="1" in="SourceAlpha" result="shadowOffsetOuter1"></feOffset>
            <feGaussianBlur stdDeviation="0.25" in="shadowOffsetOuter1" result="shadowBlurOuter1"></feGaussianBlur>
            <feColorMatrix values="0 0 0 0 0   0 0 0 0 0   0 0 0 0 0  0 0 0 0.196570763 0" type="matrix" in="shadowBlurOuter1" result="shadowMatrixOuter1"></feColorMatrix>
            <feMerge>
                <feMergeNode in="shadowMatrixOuter1"></feMergeNode>
                <feMergeNode in="SourceGraphic"></feMergeNode>
            </feMerge>
        </filter>
        <radialGradient cx="50%" cy="50%" fx="50%" fy="50%" r="50.002635%" gradientTransform="translate(0.500000,0.500000),rotate(90.588214),scale(1.000000,1.033564),translate(-0.500000,-0.500000)" id="radialGradient-4">
            <stop stop-color="#00BCDD" offset="0%"></stop>
            <stop stop-color="#5FD9FC" offset="86.0087198%"></stop>
            <stop stop-color="#78E1FF" offset="90.2725465%"></stop>
            <stop stop-color="#5FD9FC" offset="92.7175294%"></stop>
            <stop stop-color="#1D88A4" offset="99.9268504%"></stop>
            <stop stop-color="#1B85A1" offset="100%"></stop>
        </radialGradient>
        <path d="M8.01086957,0 C12.4351507,0 16.0217391,3.58658847 16.0217391,8.01086957 C16.0217391,12.4351507 12.4351507,16.0217391 8.01086957,16.0217391 C3.58658847,16.0217391 0,12.4351507 0,8.01086957 C0,3.58658847 3.58658847,0 8.01086957,0 Z M8.01086957,1.0013587 C4.13962361,1.0013587 1.0013587,4.13962361 1.0013587,8.01086957 C1.0013587,11.8821155 4.13962361,15.0203804 8.01086957,15.0203804 C11.8821155,15.0203804 15.0203804,11.8821155 15.0203804,8.01086957 C15.0203804,4.13962361 11.8821155,1.0013587 8.01086957,1.0013587 Z" id="path-5"></path>
        <filter x="-1.6%" y="-1.6%" width="103.1%" height="103.1%" filterUnits="objectBoundingBox" id="filter-6">
            <feGaussianBlur stdDeviation="0.25" in="SourceAlpha" result="shadowBlurInner1"></feGaussianBlur>
            <feOffset dx="0" dy="0" in="shadowBlurInner1" result="shadowOffsetInner1"></feOffset>
            <feComposite in="shadowOffsetInner1" in2="SourceAlpha" operator="arithmetic" k2="-1" k3="1" result="shadowInnerInner1"></feComposite>
            <feColorMatrix values="0 0 0 0 0.349019608   0 0 0 0 0.968627451   0 0 0 0 1  0 0 0 1 0" type="matrix" in="shadowInnerInner1" result="shadowMatrixInner1"></feColorMatrix>
            <feGaussianBlur stdDeviation="0.25" in="SourceAlpha" result="shadowBlurInner2"></feGaussianBlur>
            <feOffset dx="0" dy="-0" in="shadowBlurInner2" result="shadowOffsetInner2"></feOffset>
            <feComposite in="shadowOffsetInner2" in2="SourceAlpha" operator="arithmetic" k2="-1" k3="1" result="shadowInnerInner2"></feComposite>
            <feColorMatrix values="0 0 0 0 0.105882353   0 0 0 0 0.521568627   0 0 0 0 0.631372549  0 0 0 1 0" type="matrix" in="shadowInnerInner2" result="shadowMatrixInner2"></feColorMatrix>
            <feMerge>
                <feMergeNode in="shadowMatrixInner1"></feMergeNode>
                <feMergeNode in="shadowMatrixInner2"></feMergeNode>
            </feMerge>
        </filter>
        <linearGradient x1="-47.3337481%" y1="47.3935296%" x2="100%" y2="47.3935296%" id="linearGradient-7">
            <stop stop-color="#00BCDD" offset="0%"></stop>
            <stop stop-color="#5FD9FC" offset="28.6986677%"></stop>
            <stop stop-color="#78E1FF" offset="45.5860994%"></stop>
            <stop stop-color="#4ECFF5" offset="60.1207386%"></stop>
            <stop stop-color="#008BAA" offset="100%"></stop>
        </linearGradient>
        <path d="M8.01086957,0 C8.19469191,0 8.37686157,0.00279466215 8.55712104,0.0186739515 C8.55712104,1.44755849 8.55712104,2.51833986 8.55712104,3.23101809 C8.55712104,3.46139474 8.55712104,3.701125 8.55712104,3.95020886 C8.55712104,4.74746397 8.55712104,5.92947282 8.55712104,7.49623541 C8.55712104,8.91333111 8.55712104,11.747177 8.55712104,15.997773 C8.37686157,16.0136523 8.19469191,16.0217391 8.01086957,16.0217391 C7.82702406,16.0217391 7.64483166,16.0136503 7.46454996,15.997767 C7.46454996,12.2089543 7.46454996,9.78250241 7.46454996,8.71841146 C7.46454996,8.22657951 7.46454996,7.81358574 7.46454996,7.47943014 C7.46454996,5.92212011 7.46454996,4.74593788 7.46454996,3.95088345 C7.46454996,3.69371006 7.46454996,3.44644814 7.46454996,3.20909766 C7.46454996,2.50129198 7.46454996,1.43781741 7.46454996,0.0186739515 C7.64483166,0.00279069778 7.82702406,0 8.01086957,0 Z" id="path-8"></path>
        <filter x="-45.8%" y="-3.1%" width="191.5%" height="106.2%" filterUnits="objectBoundingBox" id="filter-9">
            <feGaussianBlur stdDeviation="0.5" in="SourceAlpha" result="shadowBlurInner1"></feGaussianBlur>
            <feOffset dx="0" dy="0" in="shadowBlurInner1" result="shadowOffsetInner1"></feOffset>
            <feComposite in="shadowOffsetInner1" in2="SourceAlpha" operator="arithmetic" k2="-1" k3="1" result="shadowInnerInner1"></feComposite>
            <feColorMatrix values="0 0 0 0 0.349019608   0 0 0 0 0.968627451   0 0 0 0 1  0 0 0 1 0" type="matrix" in="shadowInnerInner1"></feColorMatrix>
        </filter>
        <linearGradient x1="44.217235%" y1="49.5475572%" x2="44.2021759%" y2="50.4524428%" id="linearGradient-10">
            <stop stop-color="#00BCDD" offset="0%"></stop>
            <stop stop-color="#5FD9FC" offset="28.6986677%"></stop>
            <stop stop-color="#78E1FF" offset="54.6441879%"></stop>
            <stop stop-color="#5FD9FC" offset="68.6088082%"></stop>
            <stop stop-color="#1B85A1" offset="100%"></stop>
        </linearGradient>
        <linearGradient x1="44.217235%" y1="49.5386785%" x2="44.2021759%" y2="50.4613215%" id="linearGradient-11">
            <stop stop-color="#00BCDD" offset="0%"></stop>
            <stop stop-color="#5FD9FC" offset="28.6986677%"></stop>
            <stop stop-color="#78E1FF" offset="54.6441879%"></stop>
            <stop stop-color="#5FD9FC" offset="68.6088082%"></stop>
            <stop stop-color="#1B85A1" offset="100%"></stop>
        </linearGradient>
        <linearGradient x1="44.217235%" y1="49.6493313%" x2="44.2021759%" y2="50.3506687%" id="linearGradient-12">
            <stop stop-color="#00BCDD" offset="0%"></stop>
            <stop stop-color="#5FD9FC" offset="28.6986677%"></stop>
            <stop stop-color="#78E1FF" offset="54.6441879%"></stop>
            <stop stop-color="#5FD9FC" offset="68.6088082%"></stop>
            <stop stop-color="#1B85A1" offset="100%"></stop>
        </linearGradient>
        <radialGradient cx="131.778336%" cy="50%" fx="131.778336%" fy="50%" r="139.257488%" gradientTransform="translate(1.317783,0.500000),scale(1.000000,0.301109),rotate(179.250854),scale(1.000000,1.502569),translate(-1.317783,-0.500000)" id="radialGradient-13">
            <stop stop-color="#00BCDD" offset="0%"></stop>
            <stop stop-color="#5FD9FC" offset="38.9080038%"></stop>
            <stop stop-color="#77E1FF" offset="55.4025672%"></stop>
            <stop stop-color="#75E0FF" offset="61.8851924%"></stop>
            <stop stop-color="#78E1FF" offset="85.6727646%"></stop>
            <stop stop-color="#5FD9FC" offset="87.5972218%"></stop>
            <stop stop-color="#1D88A4" offset="99.9268504%"></stop>
            <stop stop-color="#1B85A1" offset="100%"></stop>
        </radialGradient>
        <path d="M9.17175789,11.8653904 C9.66070531,12.2951793 9.90517902,12.5100738 9.90517902,12.5100738 C10.4143041,13.7489067 11.076615,14.5288869 11.7349983,15.1140889 C12.1739204,15.5042236 12.5406424,15.8067737 12.8351642,16.0217391 C12.1541627,16.0217391 11.5274607,15.9546459 10.8968661,15.7929986 C10.0006487,15.114201 9.2189263,13.8729863 8.71767132,12.4640087 C8.71767132,12.4640087 8.86903351,12.2644693 9.17175789,11.8653904 Z M8.60559182,7.97605105 C8.87203872,8.30446025 9.03190687,8.50150576 9.08519625,8.5671876 L9.10517977,8.59181829 C9.14460943,9.60476443 9.30477228,10.5589409 9.53973624,11.4087694 C9.53973624,11.4087694 9.41707679,11.5609764 9.17175789,11.8653904 C8.64886085,11.5263651 8.38741233,11.3568525 8.38741233,11.3568525 C8.17453747,10.4887669 8.04413322,9.54595521 8.01086957,8.55981584 C8.01086957,8.55981584 8.20911032,8.36522757 8.60559182,7.97605105 Z M9.36223322,3.86806795 C9.51082159,4.29817488 9.58511577,4.51322834 9.58511577,4.51322834 C9.31986929,5.40608859 9.14954043,6.41858042 9.10590479,7.50210161 C9.10590479,7.50210161 8.9391338,7.66008475 8.60559182,7.97605105 C8.21103551,7.64065963 8.01375736,7.47296392 8.01375736,7.47296392 C8.05408523,6.44199539 8.20065624,5.45953764 8.43659463,4.56172899 L8.48588899,4.52478847 C8.59543202,4.4426984 8.88754676,4.22379157 9.36223322,3.86806795 Z M12.8266937,0 C11.2371913,1.3178187 10.290624,2.45441829 9.98699177,3.40979879 C9.89285426,3.49031065 9.68460141,3.64306704 9.36223322,3.86806795 C9.25351153,3.80385824 9.0621234,3.6666139 8.78806885,3.45633493 C9.32435941,2.03783537 10.1527651,0.821444633 11.0944634,0.192462964 C11.6660794,0.0614103216 12.2153366,0 12.8266937,0 Z" id="path-14"></path>
        <filter x="-5.2%" y="-1.6%" width="110.4%" height="103.1%" filterUnits="objectBoundingBox" id="filter-15">
            <feGaussianBlur stdDeviation="0.25" in="SourceAlpha" result="shadowBlurInner1"></feGaussianBlur>
            <feOffset dx="-0" dy="0" in="shadowBlurInner1" result="shadowOffsetInner1"></feOffset>
            <feComposite in="shadowOffsetInner1" in2="SourceAlpha" operator="arithmetic" k2="-1" k3="1" result="shadowInnerInner1"></feComposite>
            <feColorMatrix values="0 0 0 0 0.349019608   0 0 0 0 0.968627451   0 0 0 0 1  0 0 0 1 0" type="matrix" in="shadowInnerInner1" result="shadowMatrixInner1"></feColorMatrix>
            <feGaussianBlur stdDeviation="0.25" in="SourceAlpha" result="shadowBlurInner2"></feGaussianBlur>
            <feOffset dx="0" dy="0" in="shadowBlurInner2" result="shadowOffsetInner2"></feOffset>
            <feComposite in="shadowOffsetInner2" in2="SourceAlpha" operator="arithmetic" k2="-1" k3="1" result="shadowInnerInner2"></feComposite>
            <feColorMatrix values="0 0 0 0 0.105882353   0 0 0 0 0.521568627   0 0 0 0 0.631372549  0 0 0 1 0" type="matrix" in="shadowInnerInner2" result="shadowMatrixInner2"></feColorMatrix>
            <feMerge>
                <feMergeNode in="shadowMatrixInner1"></feMergeNode>
                <feMergeNode in="shadowMatrixInner2"></feMergeNode>
            </feMerge>
        </filter>
        <linearGradient x1="0%" y1="46.48051%" x2="100%" y2="46.48051%" id="linearGradient-16">
            <stop stop-color="#37DBFF" offset="0%"></stop>
            <stop stop-color="#12AFD4" offset="100%"></stop>
        </linearGradient>
        <path d="M4.34702963,11.8653904 C4.83597705,12.2951793 5.08045076,12.5100738 5.08045076,12.5100738 C5.5895758,13.7489067 6.25188676,14.5288869 6.91027,15.1140889 C7.34919216,15.5042236 7.71591415,15.8067737 8.01043596,16.0217391 C7.32943449,16.0217391 6.70273249,15.9546459 6.07213786,15.7929986 C5.17592049,15.114201 4.39419803,13.8729863 3.89294306,12.4640087 C3.89294306,12.4640087 4.04430525,12.2644693 4.34702963,11.8653904 Z M3.78086356,7.97605105 C4.04731046,8.30446025 4.20717861,8.50150576 4.26046799,8.5671876 L4.28045151,8.59181829 C4.31988117,9.60476443 4.48004401,10.5589409 4.71500798,11.4087694 C4.71500798,11.4087694 4.59234853,11.5609764 4.34702963,11.8653904 C3.82413259,11.5263651 3.56268407,11.3568525 3.56268407,11.3568525 C3.34980921,10.4887669 3.21940496,9.54595521 3.1861413,8.55981584 C3.1861413,8.55981584 3.38438205,8.36522757 3.78086356,7.97605105 Z M4.53750496,3.86806795 C4.68609333,4.29817488 4.76038751,4.51322834 4.76038751,4.51322834 C4.49514103,5.40608859 4.32481217,6.41858042 4.28117653,7.50210161 C4.28117653,7.50210161 4.11440554,7.66008475 3.78086356,7.97605105 C3.38630725,7.64065963 3.1890291,7.47296392 3.1890291,7.47296392 C3.22935697,6.44199539 3.37592798,5.45953764 3.61186637,4.56172899 L3.66116073,4.52478847 C3.77070376,4.4426984 4.0628185,4.22379157 4.53750496,3.86806795 Z M8.0019654,0 C6.41246301,1.3178187 5.46589571,2.45441829 5.1622635,3.40979879 C5.068126,3.49031065 4.85987315,3.64306704 4.53750496,3.86806795 C4.42878327,3.80385824 4.23739514,3.6666139 3.96334059,3.45633493 C4.49963115,2.03783537 5.32803681,0.821444633 6.26973518,0.192462964 C6.84135109,0.0614103216 7.39060833,0 8.0019654,0 Z" id="path-17"></path>
        <filter x="-5.2%" y="-1.6%" width="110.4%" height="103.1%" filterUnits="objectBoundingBox" id="filter-18">
            <feGaussianBlur stdDeviation="0.25" in="SourceAlpha" result="shadowBlurInner1"></feGaussianBlur>
            <feOffset dx="-0" dy="0" in="shadowBlurInner1" result="shadowOffsetInner1"></feOffset>
            <feComposite in="shadowOffsetInner1" in2="SourceAlpha" operator="arithmetic" k2="-1" k3="1" result="shadowInnerInner1"></feComposite>
            <feColorMatrix values="0 0 0 0 0.105882353   0 0 0 0 0.521568627   0 0 0 0 0.631372549  0 0 0 1 0" type="matrix" in="shadowInnerInner1" result="shadowMatrixInner1"></feColorMatrix>
            <feGaussianBlur stdDeviation="0.25" in="SourceAlpha" result="shadowBlurInner2"></feGaussianBlur>
            <feOffset dx="0" dy="0" in="shadowBlurInner2" result="shadowOffsetInner2"></feOffset>
            <feComposite in="shadowOffsetInner2" in2="SourceAlpha" operator="arithmetic" k2="-1" k3="1" result="shadowInnerInner2"></feComposite>
            <feColorMatrix values="0 0 0 0 0.349019608   0 0 0 0 0.968627451   0 0 0 0 1  0 0 0 1 0" type="matrix" in="shadowInnerInner2" result="shadowMatrixInner2"></feColorMatrix>
            <feMerge>
                <feMergeNode in="shadowMatrixInner1"></feMergeNode>
                <feMergeNode in="shadowMatrixInner2"></feMergeNode>
            </feMerge>
        </filter>
    </defs>
    <g id="13" stroke="none" stroke-width="1" fill="none" fill-rule="evenodd">
        <g id="白底184" transform="translate(-80.000000, -80.000000)">
            <rect id="矩形" x="0" y="0" width="184" height="184"></rect>
        </g>
        <rect id="矩形" x="-60" y="-60" width="144" height="144"></rect>
        <g>
            <mask id="mask-2" fill="white">
                <use xlink:href="#path-1"></use>
            </mask>
            <g id="蒙版"></g>
            <g id="编组-163" filter="url(#filter-3)" mask="url(#mask-2)">
                <g transform="translate(3.989130, 3.989130)">
                    <g id="椭圆形" fill="none" fill-rule="nonzero">
                        <use fill="url(#radialGradient-4)" xlink:href="#path-5"></use>
                        <use fill="black" fill-opacity="1" filter="url(#filter-6)" xlink:href="#path-5"></use>
                    </g>
                    <g id="路径" fill="none" fill-rule="nonzero">
                        <use fill="url(#linearGradient-7)" xlink:href="#path-8"></use>
                        <use fill="black" fill-opacity="1" filter="url(#filter-9)" xlink:href="#path-8"></use>
                    </g>
                    <path d="M15.3723444,11.1688212 C15.1982502,11.568863 15.0104738,11.9425096 14.7753427,12.3048173 L14.5472104,12.3249846 L14.4031967,12.3354969 L13.9685787,12.3656271 L13.6767424,12.384535 L13.3832863,12.4024939 C13.2852027,12.4083215 13.1868566,12.41399 13.0882557,12.4194986 L12.7916958,12.4355441 L12.4936519,12.4506251 L12.1941694,12.4647366 L12.128542,12.467602 L11.6659625,11.8720241 L10.9827587,12.5113847 C10.9691065,12.5118177 10.9554507,12.5122477 10.9417913,12.5126747 C10.8535974,12.5154316 10.7652528,12.5180641 10.6767623,12.5205717 L10.3695991,12.5287583 C10.2670219,12.5313199 10.1642578,12.5337139 10.0613143,12.5359395 L9.75195318,12.5421102 L9.4415611,12.5472652 L9.13018334,12.5513994 L8.81786519,12.5545077 C8.73469556,12.5551974 8.65143098,12.5557777 8.56807531,12.5562587 L8.54610856,12.5347656 C8.48753055,12.4774508 8.31179654,12.3055064 8.01890653,12.0189325 C8.23416513,11.796909 8.38542739,11.6414926 8.47269333,11.5526832 L8.56189678,11.4638738 L8.65288897,11.4633156 L8.96141031,11.4607617 C9.11544351,11.4592312 9.26912981,11.457321 9.42244364,11.4550342 L9.80493747,11.4485341 L10.1857906,11.4404749 L10.4892321,11.432912 L10.8669083,11.4220726 L11.2426952,11.409703 L11.3192151,11.4069573 L11.6699625,11.8590241 L12.4590521,11.3583351 L12.7251745,11.3451308 L13.0173726,11.3293567 C13.114518,11.3239416 13.211407,11.3183696 13.308032,11.3126418 L13.5971073,11.2949913 L13.8845531,11.2764106 L14.0276507,11.266773 L14.3125668,11.2468069 L14.5957398,11.2259237 C14.6898352,11.2188104 14.7836326,11.2115452 14.8771242,11.2041289 L15.3723444,11.1688212 Z M4.72291821,11.4060828 L4.82381066,11.409703 L5.19959754,11.4220726 L5.57727369,11.432912 C5.67823134,11.4355976 5.77938104,11.4381189 5.88071522,11.4404749 L6.26156835,11.4485341 L6.64406217,11.4550342 C6.79737601,11.457321 6.95106231,11.4592312 7.1050955,11.4607617 L7.41361685,11.4633156 L7.46449323,11.4636386 C7.46479066,11.4636386 7.47241912,11.4710421 7.48737859,11.4858491 L7.73703142,11.7357164 C7.81445333,11.8134529 7.90837005,11.9078473 8.01878158,12.0188994 C7.76115468,12.2695844 7.59417621,12.4325296 7.51784615,12.5077351 L7.47462,12.5507096 C7.39591205,12.5556427 7.32223917,12.555118 7.24864062,12.5545077 L6.93632247,12.5513994 L6.62494471,12.5472652 L6.31455264,12.5421102 L6.00519154,12.5359395 C5.90224804,12.5337139 5.79948392,12.5313199 5.69690673,12.5287583 L5.38974349,12.5205717 C5.28754771,12.5176758 5.18554641,12.5146132 5.08374713,12.5113847 L4.35493986,11.8627038 L4.72291821,11.4060828 Z M0.641962462,11.1550241 L1.04937439,11.1928912 C1.14255844,11.2004584 1.23605197,11.2078749 1.32984738,11.2151399 L1.75393898,11.2468069 L2.03885516,11.266773 L2.18195275,11.2764106 L2.46939849,11.2949913 L2.83099192,11.3169084 L3.19504276,11.3373617 L3.34133128,11.3451308 C3.44669928,11.3504506 3.52572528,11.3544405 3.57840928,11.3571004 C3.58394305,11.3573798 3.84278658,11.5259143 4.35493986,11.8627038 L3.91686088,12.4666806 L3.87233639,12.4647366 L3.57285387,12.4506251 L3.27481001,12.4355441 L2.8305408,12.4111159 L2.38976338,12.384535 L2.09792715,12.3656271 L1.73547879,12.3406654 L1.24677291,12.3048173 C1.01179173,11.942327 0.816033848,11.555115 0.641962462,11.1550241 Z" id="形状结合" fill="url(#linearGradient-10)" fill-rule="nonzero"></path>
                    <g id="编组-162" stroke-width="1" fill="none" fill-rule="evenodd" transform="translate(0.688786, 1.001359)">
                        <path d="M10.795015,2.86670926 C11.1705018,2.58813922 11.3594245,2.4488542 11.3617831,2.4488542 C11.3936944,2.45024751 11.4415613,2.45233747 11.5053838,2.45512409 C11.6054461,2.45966577 11.7052761,2.46436988 11.8048663,2.46923559 L12.1029102,2.48431663 L12.3994701,2.50036208 C12.2501143,2.48073368 12.2993508,2.48352794 12.5471794,2.50874486 C12.795008,2.53396178 13.2872971,2.57105189 14.0240467,2.62001519 C14.175864,2.85932324 14.2783801,3.02766585 14.3315948,3.12504302 C14.5638489,3.55004241 14.6530447,3.77101236 14.6530447,3.77101236 L13.1957675,3.64345015 L12.9083217,3.62486943 L12.6192464,3.60721896 L12.328587,3.59050402 L12.0363889,3.57472994 C11.9387382,3.56962931 11.8408386,3.56468637 11.7426977,3.559902 C11.7317274,3.56007717 11.7243794,3.56007717 11.7206536,3.559902 L10.795015,2.86670926 Z M7.33055453,2.91304348 C7.6872255,2.54575067 7.86575268,2.36257885 7.86613606,2.363528 C7.95388611,2.36402225 8.04153544,2.36462703 8.12907959,2.36535298 L8.44139774,2.36846128 L8.7527755,2.3725955 L9.06316757,2.37775051 L9.37252867,2.38392119 C9.47547217,2.38614679 9.57823629,2.38854081 9.68081348,2.39110241 L10.064587,2.4014922 L10.1719116,2.40485041 L10.795015,2.86670926 L10.5750798,3.51102647 L10.4038272,3.50502691 L10.1027357,3.49549751 C10.0524528,3.49399084 10.0021199,3.49252504 9.95173801,3.4911002 L9.64886696,3.48304367 L9.34486631,3.47597568 L9.03978152,3.46990154 L8.88684677,3.46723882 L8.580221,3.46266539 C8.47784813,3.46130846 8.37531351,3.46011939 8.27262471,3.45909904 L7.96410337,3.45654509 C7.93127072,3.45632768 7.89842318,3.4561275 7.86556099,3.45594458 C7.86556099,3.45594458 7.6872255,3.27497755 7.33055453,2.91304348 Z M6.77558966,2.36380808 C6.77593296,2.3632291 6.95778887,2.54630756 7.32115739,2.91304348 L7.21760232,3.01624638 L6.97240298,3.2606743 C6.95061409,3.28240123 6.9306437,3.30231758 6.91249181,3.32042335 L6.77660062,3.45621664 C6.75934007,3.45632136 6.7420836,3.45643085 6.72483125,3.45654509 L6.4163099,3.45909904 L6.10871361,3.46266539 L5.80208784,3.46723882 L5.49647802,3.47281405 L5.34406831,3.47597568 L5.04006766,3.48304367 L4.7371966,3.4911002 L4.43550058,3.50013997 C4.38531836,3.50172824 4.33518699,3.50335726 4.28510742,3.50502691 C4.18904353,3.50796763 4.11787502,3.51024854 4.07160191,3.51186964 C4.07160191,3.51186964 3.99755211,3.29752359 3.84945252,2.8688315 C3.24253885,3.32829172 2.93370326,3.56051387 2.93012283,3.56068909 L2.65254568,3.57472994 L2.36034761,3.59050402 L2.0696882,3.60721896 L1.78061289,3.62486943 L1.49316715,3.64345015 L1.13622077,3.66797614 L0.78198038,3.693937 C0.687884963,3.7010503 0.594087653,3.70831554 0.500596024,3.71573185 L0.22104576,3.73843309 L0,3.74718058 C0.188238717,3.31896974 0.388874502,2.9605389 0.632031247,2.598262 L1.11897047,2.57408548 L1.40914155,2.55423364 L1.70097778,2.53532571 L1.84750618,2.52622731 L2.1417552,2.50874486 L2.28946451,2.50036208 L2.58602441,2.48431663 L2.88406827,2.46923559 C2.98365851,2.46436988 3.08348854,2.45966577 3.18355079,2.45512409 C3.22865574,2.45315472 3.26248445,2.45167769 3.28503693,2.45069301 L3.31326373,2.47110435 C3.37896944,2.51861741 3.55938638,2.64908038 3.85451454,2.86249323 L4.4815107,2.4059616 L4.62434764,2.4014922 L5.00812113,2.39110241 C5.11069832,2.38854081 5.21346244,2.38614679 5.31640594,2.38392119 L5.62576704,2.37775051 L6.24753687,2.36846128 L6.55985502,2.36535298 C6.63169655,2.36475724 6.70360892,2.3642431 6.77558966,2.36380808 Z" id="形状结合" fill="url(#linearGradient-11)" fill-rule="nonzero"></path>
                    </g>
                    <path d="M11.740129,7.50210161 C11.740129,7.50210161 11.9069,7.66008475 12.240442,7.97605105 L11.7415108,8.59640342 L11.5302328,8.60181803 L10.9546815,8.61443717 L10.3759632,8.62480094 L9.9884861,8.63044853 L9.59974344,8.63508085 L9.40491526,8.63701467 L9.01438072,8.64011441 C8.86182105,8.64112334 8.70900493,8.64189761 8.55594755,8.64244019 C8.55683586,8.64280118 8.37796672,8.43935036 8.01934013,8.03208773 C8.37796672,7.71053272 8.55758385,7.54984664 8.5581915,7.55002948 C8.6428372,7.54972824 8.72740732,7.54935426 8.81189923,7.54890779 L9.19959932,7.54634672 L9.58614141,7.54277037 C9.65046542,7.54208999 9.71473882,7.54136754 9.7789604,7.5406031 L10.1636587,7.5355137 L10.5470566,7.52942218 L11.0243886,7.5204066 L11.4994885,7.50984374 C11.5794524,7.50793164 11.6603677,7.50414474 11.740129,7.50210161 Z M15.9957756,7.35333786 C16.0130846,7.52614371 16.0217391,7.70650066 16.0217391,7.8944087 C16.0217391,8.08231674 16.0178763,8.27037336 16.0101505,8.45857854 L14.814517,8.48416069 L14.3537732,8.50550047 L13.9830142,8.52149728 L13.7969329,8.52913557 L13.4234023,8.54368872 L13.0480948,8.55727297 L12.8319584,8.56435389 L12.240442,7.97605105 C12.6372125,7.639659 12.8347021,7.47146298 12.8329106,7.47146298 C12.8708222,7.47019673 12.9276896,7.46829737 13.0035129,7.46576488 L13.3753425,7.45232554 L13.8376134,7.43418077 L14.2969847,7.4145505 L14.6623194,7.39778364 L14.8442464,7.38904781 L15.9957756,7.35333786 Z M4.28357715,7.50278003 C4.37791445,7.50522666 4.47239583,7.50758115 4.56701731,7.50984374 L5.0421172,7.5204066 L5.51944918,7.52942218 C5.64702543,7.53161912 5.7748279,7.53364992 5.9028471,7.5355137 L6.28754541,7.5406031 L6.67348714,7.54468513 C6.73791122,7.54528122 6.80238473,7.54583512 6.8669065,7.54634672 L7.25460658,7.54890779 C7.32429179,7.54927602 7.3940302,7.54959494 7.46382034,7.54986441 C7.46384107,7.54986441 7.64882756,7.71060552 8.0187798,8.03208773 C7.64882756,8.43925802 7.46385144,8.64265128 7.46385144,8.64226751 C7.32640974,8.64173764 7.18916396,8.6410207 7.0521251,8.64011441 L6.66159055,8.63701467 L6.07801972,8.63044853 L5.69054265,8.62480094 L5.11182429,8.61443717 L4.63197015,8.6040771 C4.51737724,8.60121765 4.40278433,8.59835819 4.28819143,8.59549873 C4.28511524,8.59549873 4.1186427,8.38812064 3.78877379,7.97336446 C4.1186427,7.6596415 4.28357715,7.50278003 4.28357715,7.50278003 Z M0.0290561061,7.30068585 L0.499653611,7.35177052 L0.859921889,7.37087464 L1.22225944,7.38904781 L1.4041864,7.39778364 L1.76952108,7.4145505 L2.22889244,7.43418077 L2.69116333,7.45232554 L2.87685864,7.4591652 L3.19668937,7.47028564 L3.78877379,7.97336446 L3.20671335,8.56370015 L3.01841105,8.55727297 L2.64310356,8.54368872 L2.26957287,8.52913557 L2.08349158,8.52149728 L1.7127326,8.50550047 L1.25198885,8.48416069 L0.794354166,8.46133722 L0.430559506,8.44201696 L0.0100438032,8.41455094 C0.00302752842,8.27787298 0,8.13184641 0,7.99342346 C0,7.76419952 0.00997081318,7.52496969 0.0290561061,7.30068585 Z" id="形状结合" fill="url(#linearGradient-12)" fill-rule="nonzero"></path>
                    <g id="形状结合" fill="none" fill-rule="nonzero" transform="translate(10.423017, 8.010870) scale(-1, 1) translate(-10.423017, -8.010870) ">
                        <use fill="url(#radialGradient-13)" xlink:href="#path-14"></use>
                        <use fill="black" fill-opacity="1" filter="url(#filter-15)" xlink:href="#path-14"></use>
                    </g>
                    <g id="形状结合" fill="none" fill-rule="nonzero">
                        <use fill="url(#linearGradient-16)" xlink:href="#path-17"></use>
                        <use fill="black" fill-opacity="1" filter="url(#filter-18)" xlink:href="#path-17"></use>
                    </g>
                </g>
            </g>
        </g>
    </g>
</svg>