<?xml version="1.0" encoding="UTF-8"?>
<svg width="18px" height="18px" viewBox="0 0 18 18" version="1.1" xmlns="http://www.w3.org/2000/svg" xmlns:xlink="http://www.w3.org/1999/xlink">
    <g id="13" stroke="none" stroke-width="1" fill-rule="evenodd" fill-opacity="0.7">
        <path d="M13.42,3 C14.5687523,3 15.5,3.95371296 15.5,5.13017751 L15.5,12.8698225 C15.5,14.046287 14.5687523,15 13.42,15 L4.58,15 C3.43124772,15 2.5,14.046287 2.5,12.8698225 L2.5,5.13017751 C2.5,3.95371296 3.43124772,3 4.58,3 L13.42,3 Z M14.46,7.26035503 L3.54,7.26035503 L3.54,12.8698225 C3.54,13.4580548 4.00562386,13.9349112 4.58,13.9349112 L13.42,13.9349112 C13.9943761,13.9349112 14.46,13.4580548 14.46,12.8698225 L14.46,7.26035503 Z M13.42,4.59763314 L12.38,4.59763314 L12.38,5.66272189 L13.42,5.66272189 L13.42,4.59763314 Z M9.26,4.59763314 L8.22,4.59763314 L8.22,5.66272189 L9.26,5.66272189 L9.26,4.59763314 Z M11.34,4.59763314 L10.3,4.59763314 L10.3,5.66272189 L11.34,5.66272189 L11.34,4.59763314 Z" id="形状结合" fill-rule="nonzero"></path>
    </g>
</svg>