<?xml version="1.0" encoding="UTF-8"?>
<svg width="18px" height="18px" viewBox="0 0 18 18" version="1.1" xmlns="http://www.w3.org/2000/svg" xmlns:xlink="http://www.w3.org/1999/xlink">
    <g id="14" stroke="none" stroke-width="1" fill-rule="evenodd" fill-opacity="0.7">
        <path d="M13,2.5 C14.1045695,2.5 15,3.3954305 15,4.5 L15,13.5 C15,14.6045695 14.1045695,15.5 13,15.5 L5,15.5 C3.8954305,15.5 3,14.6045695 3,13.5 L3,4.5 C3,3.3954305 3.8954305,2.5 5,2.5 L13,2.5 Z M6,12.5 L4,12.5 L4,13.5 C4,14.0522847 4.44771525,14.5 5,14.5 L6,14.5 L6,12.5 Z M14,12.5 L12,12.5 L12,14.5 L13,14.5 C13.5522847,14.5 14,14.0522847 14,13.5 L14,12.5 Z M6,9.5 L4,9.5 L4,11.5 L6,11.5 L6,9.5 Z M14,9.5 L12,9.5 L12,11.5 L14,11.5 L14,9.5 Z M6,6.5 L4,6.5 L4,8.5 L6,8.5 L6,6.5 Z M14,6.5 L12,6.5 L12,8.5 L14,8.5 L14,6.5 Z M6,3.5 L5,3.5 C4.44771525,3.5 4,3.94771525 4,4.5 L4,5.5 L6,5.5 L6,3.5 Z M13,3.5 L12,3.5 L12,5.5 L14,5.5 L14,4.5 C14,3.94771525 13.5522847,3.5 13,3.5 Z" id="形状" fill-rule="nonzero"></path>
    </g>
</svg>