<?xml version="1.0" encoding="UTF-8"?>
<svg width="24px" height="24px" viewBox="0 0 24 24" version="1.1" xmlns="http://www.w3.org/2000/svg" xmlns:xlink="http://www.w3.org/1999/xlink">
    <title>14</title>
    <defs>
        <rect id="path-1" x="0" y="0" width="24" height="24"></rect>
        <filter x="-13.2%" y="-24.7%" width="126.4%" height="155.2%" filterUnits="objectBoundingBox" id="filter-3">
            <feOffset dx="0" dy="1" in="SourceAlpha" result="shadowOffsetOuter1"></feOffset>
            <feGaussianBlur stdDeviation="0.5" in="shadowOffsetOuter1" result="shadowBlurOuter1"></feGaussianBlur>
            <feColorMatrix values="0 0 0 0 0   0 0 0 0 0   0 0 0 0 0  0 0 0 0.196570763 0" type="matrix" in="shadowBlurOuter1" result="shadowMatrixOuter1"></feColorMatrix>
            <feMerge>
                <feMergeNode in="shadowMatrixOuter1"></feMergeNode>
                <feMergeNode in="SourceGraphic"></feMergeNode>
            </feMerge>
        </filter>
        <filter x="-63.9%" y="-102.2%" width="227.8%" height="304.4%" filterUnits="objectBoundingBox" id="filter-4">
            <feGaussianBlur stdDeviation="2" in="SourceGraphic"></feGaussianBlur>
        </filter>
    </defs>
    <g id="14" stroke="none" stroke-width="1" fill="none" fill-rule="evenodd">
        <g>
            <mask id="mask-2" fill="white">
                <use xlink:href="#path-1"></use>
            </mask>
            <g id="蒙版"></g>
            <g id="编组" filter="url(#filter-3)" mask="url(#mask-2)">
                <g transform="translate(1.956522, 4.956522)">
                    <rect id="矩形" fill="#32230A" x="0" y="2.86956522" width="20.0869565" height="8.34782609"></rect>
                    <rect id="矩形" fill="#E6D4B2" x="3.91304348" y="2.86956522" width="12.2608696" height="8.34782609" rx="0.260869565"></rect>
                    <path d="M0,2.86956522 L2.86956522,2.86956522 C3.0136395,2.86956522 3.13043478,2.9863605 3.13043478,3.13043478 L3.13043478,10.9565217 C3.13043478,11.100596 3.0136395,11.2173913 2.86956522,11.2173913 L0,11.2173913 L0,11.2173913 L0,2.86956522 Z" id="矩形" fill="#E6D4B2"></path>
                    <path d="M16.9565217,2.86956522 L19.826087,2.86956522 C19.9701612,2.86956522 20.0869565,2.9863605 20.0869565,3.13043478 L20.0869565,10.9565217 C20.0869565,11.100596 19.9701612,11.2173913 19.826087,11.2173913 L16.9565217,11.2173913 L16.9565217,11.2173913 L16.9565217,2.86956522 Z" id="矩形" fill="#E6D4B2" transform="translate(18.521739, 7.043478) scale(-1, 1) translate(-18.521739, -7.043478) "></path>
                    <path d="M20.0869565,0 L20.0869565,2.86956522 L0,2.86956522 L0,0 L20.0869565,0 Z M2.34782609,0.782608696 L0.391304348,0.782608696 L0.391304348,2.08695652 L2.34782609,2.08695652 L2.34782609,0.782608696 Z M4.82608696,0.782608696 L2.86956522,0.782608696 L2.86956522,2.08695652 L4.82608696,2.08695652 L4.82608696,0.782608696 Z M7.30434783,0.782608696 L5.34782609,0.782608696 L5.34782609,2.08695652 L7.30434783,2.08695652 L7.30434783,0.782608696 Z M9.7826087,0.782608696 L7.82608696,0.782608696 L7.82608696,2.08695652 L9.7826087,2.08695652 L9.7826087,0.782608696 Z M12.2608696,0.782608696 L10.3043478,0.782608696 L10.3043478,2.08695652 L12.2608696,2.08695652 L12.2608696,0.782608696 Z M14.7391304,0.782608696 L12.7826087,0.782608696 L12.7826087,2.08695652 L14.7391304,2.08695652 L14.7391304,0.782608696 Z M17.2173913,0.782608696 L15.2608696,0.782608696 L15.2608696,2.08695652 L17.2173913,2.08695652 L17.2173913,0.782608696 Z M19.6956522,0.782608696 L17.7391304,0.782608696 L17.7391304,2.08695652 L19.6956522,2.08695652 L19.6956522,0.782608696 Z" id="形状结合" fill="#32230A"></path>
                    <path d="M20.0869565,11.2173913 L20.0869565,14.0869565 L0,14.0869565 L0,11.2173913 L20.0869565,11.2173913 Z M2.34782609,12 L0.391304348,12 L0.391304348,13.3043478 L2.34782609,13.3043478 L2.34782609,12 Z M4.82608696,12 L2.86956522,12 L2.86956522,13.3043478 L4.82608696,13.3043478 L4.82608696,12 Z M7.30434783,12 L5.34782609,12 L5.34782609,13.3043478 L7.30434783,13.3043478 L7.30434783,12 Z M9.7826087,12 L7.82608696,12 L7.82608696,13.3043478 L9.7826087,13.3043478 L9.7826087,12 Z M12.2608696,12 L10.3043478,12 L10.3043478,13.3043478 L12.2608696,13.3043478 L12.2608696,12 Z M14.7391304,12 L12.7826087,12 L12.7826087,13.3043478 L14.7391304,13.3043478 L14.7391304,12 Z M17.2173913,12 L15.2608696,12 L15.2608696,13.3043478 L17.2173913,13.3043478 L17.2173913,12 Z M19.6956522,12 L17.7391304,12 L17.7391304,13.3043478 L19.6956522,13.3043478 L19.6956522,12 Z" id="形状结合" fill="#32230A"></path>
                    <ellipse id="椭圆形" fill="#FFF9EA" filter="url(#filter-4)" cx="10.0434783" cy="6.45652174" rx="4.69565217" ry="2.93478261"></ellipse>
                </g>
            </g>
        </g>
    </g>
</svg>