<?xml version="1.0" encoding="UTF-8"?>
<svg width="18px" height="18px" viewBox="0 0 18 18" version="1.1" xmlns="http://www.w3.org/2000/svg" xmlns:xlink="http://www.w3.org/1999/xlink">
    <g id="15" stroke="none" stroke-width="1" fill-rule="evenodd" fill-opacity="0.7">
        <path d="M14.9606842,3.54451614 C14.9868265,3.67353862 15,3.80494785 15,3.93670109 L15,12.149045 C15,13.2124569 14.1403867,14.0745225 13.08,14.0745225 C12.0196133,14.0745225 11.16,13.2124569 11.16,12.149045 C11.16,11.0856332 12.0196133,10.2235675 13.08,10.2235675 C13.4301775,10.2235675 13.7584595,10.3175806 14.0411186,10.4818116 L14.04,4.75036558 C14.04,4.39389995 13.7569104,4.10492746 13.4077017,4.10492746 C13.3667777,4.10492746 13.3259503,4.10898307 13.285794,4.11703722 L7.35039066,5.30750447 C7.05385247,5.36698131 6.84,5.63234439 6.84,5.94083284 L6.84,14.0745225 C6.84,15.1379344 5.98038672,16 4.92,16 C3.85961328,16 3,15.1379344 3,14.0745225 C3,13.0111107 3.85961328,12.149045 4.92,12.149045 C5.27017749,12.149045 5.59845952,12.2430581 5.8811186,12.4072891 L5.88,5.06120742 C5.88,4.1429737 6.51179799,3.35100677 7.39269407,3.1650259 L12.7189042,2.04051956 C13.7448168,1.8239218 14.7484959,2.497284 14.9606842,3.54451614 Z" id="路径" fill-rule="nonzero"></path>
    </g>
</svg>