<?xml version="1.0" encoding="UTF-8"?>
<svg width="24px" height="24px" viewBox="0 0 24 24" version="1.1" xmlns="http://www.w3.org/2000/svg" xmlns:xlink="http://www.w3.org/1999/xlink">
    <title>16</title>
    <defs>
        <rect id="path-1" x="0" y="0" width="24" height="24"></rect>
        <filter x="-11.2%" y="-6.0%" width="122.4%" height="122.3%" filterUnits="objectBoundingBox" id="filter-3">
            <feOffset dx="0" dy="1" in="SourceAlpha" result="shadowOffsetOuter1"></feOffset>
            <feGaussianBlur stdDeviation="0.5" in="shadowOffsetOuter1" result="shadowBlurOuter1"></feGaussianBlur>
            <feColorMatrix values="0 0 0 0 0   0 0 0 0 0   0 0 0 0 0  0 0 0 0.196570763 0" type="matrix" in="shadowBlurOuter1" result="shadowMatrixOuter1"></feColorMatrix>
            <feMerge>
                <feMergeNode in="shadowMatrixOuter1"></feMergeNode>
                <feMergeNode in="SourceGraphic"></feMergeNode>
            </feMerge>
        </filter>
        <linearGradient x1="50%" y1="35.3140547%" x2="50%" y2="100%" id="linearGradient-4">
            <stop stop-color="#FFFFFF" offset="0%"></stop>
            <stop stop-color="#EFEFEF" offset="100%"></stop>
        </linearGradient>
        <rect id="path-5" x="0" y="0" width="17.8695652" height="17.5678131" rx="1.09565217"></rect>
        <filter x="-2.8%" y="-2.8%" width="105.6%" height="105.7%" filterUnits="objectBoundingBox" id="filter-7">
            <feGaussianBlur stdDeviation="0.5" in="SourceAlpha" result="shadowBlurInner1"></feGaussianBlur>
            <feOffset dx="0" dy="0" in="shadowBlurInner1" result="shadowOffsetInner1"></feOffset>
            <feComposite in="shadowOffsetInner1" in2="SourceAlpha" operator="arithmetic" k2="-1" k3="1" result="shadowInnerInner1"></feComposite>
            <feColorMatrix values="0 0 0 0 0.472293577   0 0 0 0 0.472293577   0 0 0 0 0.472293577  0 0 0 0.693898875 0" type="matrix" in="shadowInnerInner1"></feColorMatrix>
        </filter>
        <linearGradient x1="50%" y1="59.4886485%" x2="88.7939875%" y2="100%" id="linearGradient-8">
            <stop stop-color="#C9C9C9" offset="0%"></stop>
            <stop stop-color="#ECEDEE" stop-opacity="0.326241767" offset="100%"></stop>
        </linearGradient>
        <filter x="-23.2%" y="-21.9%" width="146.4%" height="143.7%" filterUnits="objectBoundingBox" id="filter-9">
            <feGaussianBlur stdDeviation="0.5" in="SourceGraphic"></feGaussianBlur>
        </filter>
        <linearGradient x1="75.7487505%" y1="21.9607282%" x2="32.5928128%" y2="80.546615%" id="linearGradient-10">
            <stop stop-color="#C8C8C8" stop-opacity="0" offset="0%"></stop>
            <stop stop-color="#979797" stop-opacity="0.826767395" offset="100%"></stop>
        </linearGradient>
        <filter x="0.0%" y="-0.4%" width="101.9%" height="103.0%" filterUnits="objectBoundingBox" id="filter-11">
            <feGaussianBlur stdDeviation="0.15" in="SourceGraphic"></feGaussianBlur>
        </filter>
        <linearGradient x1="50%" y1="0%" x2="50%" y2="100%" id="linearGradient-12">
            <stop stop-color="#F4F4F4" offset="0%"></stop>
            <stop stop-color="#D0D0D0" offset="100%"></stop>
        </linearGradient>
        <path d="M13.3138079,13.1820041 C13.7583733,13.433956 14.4063905,13.4776575 15.2578595,13.3131084 C16.1093286,13.1485593 16.9798971,12.233569 17.8695652,10.5681376 C17.0590387,12.7945062 16.1426508,14.3499897 15.1204013,15.2345879 C14.0981519,16.1191862 12.3226676,16.8969279 9.79394844,17.5678131 C10.837042,16.9017125 11.6615151,16.2410288 12.2673678,15.5857619 C12.8732204,14.9304951 13.2220338,14.1292425 13.3138079,13.1820041 Z" id="path-13"></path>
        <filter x="-0.6%" y="-0.7%" width="101.2%" height="101.4%" filterUnits="objectBoundingBox" id="filter-14">
            <feOffset dx="0" dy="0.1" in="SourceAlpha" result="shadowOffsetInner1"></feOffset>
            <feComposite in="shadowOffsetInner1" in2="SourceAlpha" operator="arithmetic" k2="-1" k3="1" result="shadowInnerInner1"></feComposite>
            <feColorMatrix values="0 0 0 0 1   0 0 0 0 1   0 0 0 0 1  0 0 0 0.628283094 0" type="matrix" in="shadowInnerInner1"></feColorMatrix>
        </filter>
        <linearGradient x1="50%" y1="0%" x2="50%" y2="100%" id="linearGradient-15">
            <stop stop-color="#2698EF" offset="0%"></stop>
            <stop stop-color="#0180E0" offset="100%"></stop>
        </linearGradient>
        <path d="M1.09565217,0.823491239 L16.773913,0.823491239 C17.379025,0.823491239 17.8695652,1.31403143 17.8695652,1.91914341 L17.8695652,7.41142116 L17.8695652,7.41142116 L0,7.41142116 L0,1.91914341 C1.47939759e-16,1.31403143 0.490540187,0.823491239 1.09565217,0.823491239 Z" id="path-16"></path>
        <filter x="-2.8%" y="-7.6%" width="105.6%" height="115.2%" filterUnits="objectBoundingBox" id="filter-17">
            <feGaussianBlur stdDeviation="0.5" in="SourceAlpha" result="shadowBlurInner1"></feGaussianBlur>
            <feOffset dx="0" dy="0" in="shadowBlurInner1" result="shadowOffsetInner1"></feOffset>
            <feComposite in="shadowOffsetInner1" in2="SourceAlpha" operator="arithmetic" k2="-1" k3="1" result="shadowInnerInner1"></feComposite>
            <feColorMatrix values="0 0 0 0 0.0959644095   0 0 0 0 0.325471454   0 0 0 0 0.612556789  0 0 0 0.5 0" type="matrix" in="shadowInnerInner1"></feColorMatrix>
        </filter>
        <linearGradient x1="50%" y1="0%" x2="50%" y2="100%" id="linearGradient-18">
            <stop stop-color="#EEEEEE" offset="0%"></stop>
            <stop stop-color="#ECECEC" offset="100%"></stop>
        </linearGradient>
        <rect id="path-19" x="3.84882943" y="0" width="1" height="1.92147956" rx="0.273913043"></rect>
        <filter x="-15.6%" y="-7.8%" width="131.2%" height="115.6%" filterUnits="objectBoundingBox" id="filter-20">
            <feOffset dx="0" dy="0" in="SourceAlpha" result="shadowOffsetOuter1"></feOffset>
            <feGaussianBlur stdDeviation="0.05" in="shadowOffsetOuter1" result="shadowBlurOuter1"></feGaussianBlur>
            <feColorMatrix values="0 0 0 0 0   0 0 0 0 0.355550615   0 0 0 0 0.627948263  0 0 0 1 0" type="matrix" in="shadowBlurOuter1"></feColorMatrix>
        </filter>
        <filter x="-36.4%" y="-18.2%" width="172.7%" height="136.4%" filterUnits="objectBoundingBox" id="filter-21">
            <feGaussianBlur stdDeviation="0.25" in="SourceAlpha" result="shadowBlurInner1"></feGaussianBlur>
            <feOffset dx="0" dy="0" in="shadowBlurInner1" result="shadowOffsetInner1"></feOffset>
            <feComposite in="shadowOffsetInner1" in2="SourceAlpha" operator="arithmetic" k2="-1" k3="1" result="shadowInnerInner1"></feComposite>
            <feColorMatrix values="0 0 0 0 0.177472757   0 0 0 0 0.372595161   0 0 0 0 0.629253  0 0 0 0.5 0" type="matrix" in="shadowInnerInner1"></feColorMatrix>
        </filter>
        <rect id="path-22" x="13.0585284" y="0" width="1" height="1.92147956" rx="0.273913043"></rect>
        <filter x="-15.6%" y="-7.8%" width="131.2%" height="115.6%" filterUnits="objectBoundingBox" id="filter-23">
            <feOffset dx="0" dy="0" in="SourceAlpha" result="shadowOffsetOuter1"></feOffset>
            <feGaussianBlur stdDeviation="0.05" in="shadowOffsetOuter1" result="shadowBlurOuter1"></feGaussianBlur>
            <feColorMatrix values="0 0 0 0 0   0 0 0 0 0.355550615   0 0 0 0 0.627948263  0 0 0 1 0" type="matrix" in="shadowBlurOuter1"></feColorMatrix>
        </filter>
        <filter x="-62.4%" y="-31.2%" width="224.7%" height="162.5%" filterUnits="objectBoundingBox" id="filter-24">
            <feGaussianBlur stdDeviation="0.5" in="SourceAlpha" result="shadowBlurInner1"></feGaussianBlur>
            <feOffset dx="0" dy="0" in="shadowBlurInner1" result="shadowOffsetInner1"></feOffset>
            <feComposite in="shadowOffsetInner1" in2="SourceAlpha" operator="arithmetic" k2="-1" k3="1" result="shadowInnerInner1"></feComposite>
            <feColorMatrix values="0 0 0 0 0.177472757   0 0 0 0 0.372595161   0 0 0 0 0.629253  0 0 0 0.5 0" type="matrix" in="shadowInnerInner1"></feColorMatrix>
        </filter>
    </defs>
    <g id="16" stroke="none" stroke-width="1" fill="none" fill-rule="evenodd">
        <g>
            <mask id="mask-2" fill="white">
                <use xlink:href="#path-1"></use>
            </mask>
            <g id="蒙版"></g>
            <g id="编组" filter="url(#filter-3)" mask="url(#mask-2)">
                <g transform="translate(3.100000, 2.739130)">
                    <g id="矩形" stroke-width="1" fill="none" fill-rule="evenodd" transform="translate(0.000000, 0.823491)">
                        <mask id="mask-6" fill="white">
                            <use xlink:href="#path-5"></use>
                        </mask>
                        <g id="蒙版">
                            <use fill="url(#linearGradient-4)" fill-rule="evenodd" xlink:href="#path-5"></use>
                            <use fill="black" fill-opacity="1" filter="url(#filter-7)" xlink:href="#path-5"></use>
                        </g>
                        <path d="M14.230966,14.8389892 C14.8579252,14.394918 15.42932,13.9777901 15.9451505,13.5876055 C16.460981,13.1974208 17.1024526,12.236681 17.8695652,10.7053861 L17.5946488,17.293316 L13.1959866,17.293316 L11.4090301,17.5678131 C12.6639556,16.784043 13.397066,16.1892993 13.6083612,15.7835821 C13.8196564,15.3778649 14.0271913,15.0630006 14.230966,14.8389892 Z" fill="url(#linearGradient-8)" filter="url(#filter-9)" mask="url(#mask-6)"></path>
                        <path d="M10.0344482,17.7050616 C10.1719064,17.7050616 16.5762797,16.1021477 17.1822742,12.3523686" id="路径-562" stroke="url(#linearGradient-10)" stroke-width="0.273913043" filter="url(#filter-11)" mask="url(#mask-6)"></path>
                        <g id="路径-561" mask="url(#mask-6)">
                            <use fill="url(#linearGradient-12)" fill-rule="evenodd" xlink:href="#path-13"></use>
                            <use fill="black" fill-opacity="1" filter="url(#filter-14)" xlink:href="#path-13"></use>
                        </g>
                    </g>
                    <g id="矩形" fill="none">
                        <use fill="url(#linearGradient-15)" fill-rule="evenodd" xlink:href="#path-16"></use>
                        <use fill="black" fill-opacity="1" filter="url(#filter-17)" xlink:href="#path-16"></use>
                    </g>
                    <text id="Aug" fill="none" font-family="PingFangSC-Medium, PingFang SC" font-size="3.28695652" font-weight="400">
                        <tspan x="1.37458194" y="5.20098266" fill="#FFFFFF">Aug</tspan>
                    </text>
                    <g id="21" stroke-width="1" fill="none" fill-rule="evenodd" transform="translate(4.811037, 9.332901)">
                        <path d="M2.22472499,0 C1.56586413,0 1.03535278,0.225479744 0.633190958,0.676439232 C0.239585768,1.10138183 0.0427831728,1.65640889 0.0342265383,2.35019272 L1.03535278,2.35019272 C1.05246605,1.86454404 1.15514567,1.49163523 1.34339163,1.24881089 C1.53163759,0.988641955 1.81400653,0.858557487 2.19049845,0.858557487 C2.54132047,0.858557487 2.80657614,0.936608168 2.98626546,1.10138183 C3.15739815,1.26615549 3.25152113,1.51765212 3.25152113,1.85587174 C3.25152113,2.20276365 3.11461498,2.53231097 2.84935931,2.8358414 C2.67822662,3.01795965 2.40441431,3.25211169 2.01080912,3.52962523 C1.30060845,4.0239462 0.829993553,4.40552731 0.607521054,4.66569624 C0.196802595,5.13400033 0,5.68035509 0,6.31343284 L4.26120401,6.31343284 L4.26120401,5.42018616 L1.24926865,5.42018616 C1.3861748,5.10798343 1.76266672,4.74374692 2.38730104,4.32747663 C2.98626546,3.91987863 3.41409719,3.59033131 3.65368296,3.33016237 C4.04728815,2.88787518 4.25264738,2.4022265 4.25264738,1.86454404 C4.25264738,1.30951698 4.06440142,0.867229785 3.6879095,0.520337871 C3.30286094,0.173445957 2.81513277,0 2.22472499,0 Z" id="路径" fill="#343F4C" fill-rule="nonzero"></path>
                        <path d="M6.92003822,0.13724854 C6.70795987,0.353501491 6.44286192,0.552454207 6.12474439,0.742756804 C5.80662685,0.915759165 5.50618251,1.03686082 5.22341137,1.10606176 L5.22341137,2.10947546 C5.80662685,1.94512321 6.28380315,1.69426979 6.66377688,1.35691519 L6.66377688,6.31343284 L7.69765886,6.31343284 L7.69765886,0.13724854 L6.92003822,0.13724854 Z" id="路径" fill="#343F4C" fill-rule="nonzero"></path>
                    </g>
                    <rect id="矩形" fill-opacity="0.400955734" fill="#FFFFFF" fill-rule="evenodd" x="11.5464883" y="3.56846204" width="1" height="1" rx="0.136956522"></rect>
                    <rect id="矩形" fill-opacity="0.400955734" fill="#FFFFFF" fill-rule="evenodd" x="9.89698997" y="3.56846204" width="1" height="1" rx="0.136956522"></rect>
                    <rect id="矩形" fill-opacity="0.400955734" fill="#FFFFFF" fill-rule="evenodd" x="11.5464883" y="4.52920182" width="1" height="1" rx="0.136956522"></rect>
                    <rect id="矩形" fill-opacity="0.400955734" fill="#FFFFFF" fill-rule="evenodd" x="9.89698997" y="4.52920182" width="1" height="1" rx="0.136956522"></rect>
                    <rect id="矩形" fill-opacity="0.400955734" fill="#FFFFFF" fill-rule="evenodd" x="11.5464883" y="5.4899416" width="1" height="1" rx="0.136956522"></rect>
                    <rect id="矩形" fill-opacity="0.400955734" fill="#FFFFFF" fill-rule="evenodd" x="9.89698997" y="5.4899416" width="1" height="1" rx="0.136956522"></rect>
                    <rect id="矩形" fill-opacity="0.400955734" fill="#FFFFFF" fill-rule="evenodd" x="13.3138079" y="3.56846204" width="1" height="1" rx="0.136956522"></rect>
                    <rect id="矩形" fill-opacity="0.400955734" fill="#FFFFFF" fill-rule="evenodd" x="13.3138079" y="4.52920182" width="1" height="1" rx="0.136956522"></rect>
                    <rect id="矩形" fill-opacity="0.400955734" fill="#FFFFFF" fill-rule="evenodd" x="13.3138079" y="5.4899416" width="1" height="1" rx="0.136956522"></rect>
                    <rect id="矩形" fill-opacity="0.400955734" fill="#FFFFFF" fill-rule="evenodd" x="14.9436694" y="3.56846204" width="1" height="1" rx="0.136956522"></rect>
                    <rect id="矩形" fill-opacity="0.400955734" fill="#FFFFFF" fill-rule="evenodd" x="14.9436694" y="4.52920182" width="1" height="1" rx="0.136956522"></rect>
                    <g id="矩形" fill="none">
                        <use fill="black" fill-opacity="1" filter="url(#filter-20)" xlink:href="#path-19"></use>
                        <use fill="url(#linearGradient-18)" fill-rule="evenodd" xlink:href="#path-19"></use>
                        <use fill="black" fill-opacity="1" filter="url(#filter-21)" xlink:href="#path-19"></use>
                    </g>
                    <g id="矩形" fill="none">
                        <use fill="black" fill-opacity="1" filter="url(#filter-23)" xlink:href="#path-22"></use>
                        <use fill="url(#linearGradient-18)" fill-rule="evenodd" xlink:href="#path-22"></use>
                        <use fill="black" fill-opacity="1" filter="url(#filter-24)" xlink:href="#path-22"></use>
                    </g>
                </g>
            </g>
        </g>
    </g>
</svg>