<?xml version="1.0" encoding="UTF-8"?>
<svg width="18px" height="18px" viewBox="0 0 18 18" version="1.1" xmlns="http://www.w3.org/2000/svg" xmlns:xlink="http://www.w3.org/1999/xlink">
    <g id="16" stroke="none" stroke-width="1" fill-rule="evenodd" fill-opacity="0.7">
        <path d="M11.7857143,2.5 C12.2985501,2.5 12.7142857,2.91573559 12.7142857,3.42857143 L13.42,3.42857143 C14.5687523,3.42857143 15.5,4.38796125 15.5,5.57142857 L15.5,13.3571429 C15.5,14.5406102 14.5687523,15.5 13.42,15.5 L4.58,15.5 C3.43124772,15.5 2.5,14.5406102 2.5,13.3571429 L2.5,5.57142857 C2.5,4.38796125 3.43124772,3.42857143 4.58,3.42857143 L5.28571429,3.42857143 C5.28571429,2.91573559 5.70144988,2.5 6.21428571,2.5 C6.72712155,2.5 7.14285714,2.91573559 7.14285714,3.42857143 L10.8571429,3.42857143 C10.8571429,2.91573559 11.2728784,2.5 11.7857143,2.5 Z M14.46,7.71428571 L3.54,7.71428571 L3.54,13.3571429 C3.54,13.9488765 4.00562386,14.4285714 4.58,14.4285714 L13.42,14.4285714 C13.9943761,14.4285714 14.46,13.9488765 14.46,13.3571429 L14.46,7.71428571 Z M6.21428571,11.3214286 C6.72712155,11.3214286 7.14285714,11.7371642 7.14285714,12.25 C7.14285714,12.7628358 6.72712155,13.1785714 6.21428571,13.1785714 C5.70144988,13.1785714 5.28571429,12.7628358 5.28571429,12.25 C5.28571429,11.7371642 5.70144988,11.3214286 6.21428571,11.3214286 Z M9,11.3214286 C9.51283584,11.3214286 9.92857143,11.7371642 9.92857143,12.25 C9.92857143,12.7628358 9.51283584,13.1785714 9,13.1785714 C8.48716416,13.1785714 8.07142857,12.7628358 8.07142857,12.25 C8.07142857,11.7371642 8.48716416,11.3214286 9,11.3214286 Z M6.21428571,8.53571429 C6.72712155,8.53571429 7.14285714,8.95144988 7.14285714,9.46428571 C7.14285714,9.97712155 6.72712155,10.3928571 6.21428571,10.3928571 C5.70144988,10.3928571 5.28571429,9.97712155 5.28571429,9.46428571 C5.28571429,8.95144988 5.70144988,8.53571429 6.21428571,8.53571429 Z M9,8.53571429 C9.51283584,8.53571429 9.92857143,8.95144988 9.92857143,9.46428571 C9.92857143,9.97712155 9.51283584,10.3928571 9,10.3928571 C8.48716416,10.3928571 8.07142857,9.97712155 8.07142857,9.46428571 C8.07142857,8.95144988 8.48716416,8.53571429 9,8.53571429 Z M11.7857143,8.53571429 C12.2985501,8.53571429 12.7142857,8.95144988 12.7142857,9.46428571 C12.7142857,9.97712155 12.2985501,10.3928571 11.7857143,10.3928571 C11.2728784,10.3928571 10.8571429,9.97712155 10.8571429,9.46428571 C10.8571429,8.95144988 11.2728784,8.53571429 11.7857143,8.53571429 Z" id="形状" fill-rule="nonzero"></path>
    </g>
</svg>