<?xml version="1.0" encoding="UTF-8"?>
<svg width="18px" height="18px" viewBox="0 0 18 18" version="1.1" xmlns="http://www.w3.org/2000/svg" xmlns:xlink="http://www.w3.org/1999/xlink">
    <g id="17" stroke="none" stroke-width="1" fill-rule="evenodd" fill-opacity="0.7">
        <path d="M14.2806926,5 C15.2302398,5 16,5.76807871 16,6.71906129 L16,13.2809387 C16,14.23035 15.2310913,15 14.2806926,15 L5.71930742,15 C4.76976015,15 4,14.2319213 4,13.2809387 L4,6.71906129 C4,5.76964995 4.76890868,5 5.71930742,5 L14.2806926,5 Z M10.9291213,8.51887492 L9.76021005,10.8702487 C9.655949,11.0799795 9.46626595,11.0846977 9.34351484,10.8917488 L8.58876005,9.70537217 C8.40149612,9.52331002 8.09090137,9.54830158 7.93697137,9.75781742 L5.79411423,12.6744841 C5.59150143,12.9502626 5.7942689,13.3333313 6.14285714,13.3333313 L13.8571429,13.3333313 C14.1902691,13.3333313 14.3960318,12.980012 14.2246398,12.7022934 L11.6532113,8.53562677 C11.4913404,8.27333611 11.1036412,8.26436667 10.9291213,8.51887492 Z M11.9914698,3 C12.8160609,3 13.5245933,3.49037709 13.8339612,4.1989246 L4.40000005,4.2 C3.73725832,4.2 3.2,4.73725832 3.2,5.40000005 L3.20030271,12.8326807 C2.49350103,12.5248644 2,11.8242948 2,11.000385 L2,4.99961498 C2,3.89525812 2.90195036,3 4.0085302,3 L11.9914698,3 Z M7,6.66666667 C6.28991961,6.66666667 5.71428571,7.22631073 5.71428571,7.91666667 C5.71428571,8.6070226 6.28991961,9.16666667 7,9.16666667 C7.71008039,9.16666667 8.28571429,8.6070226 8.28571429,7.91666667 C8.28571429,7.22631073 7.71008039,6.66666667 7,6.66666667 Z" id="形状" fill-rule="nonzero"></path>
    </g>
</svg>