<?xml version="1.0" encoding="UTF-8"?>
<svg width="18px" height="18px" viewBox="0 0 18 18" version="1.1" xmlns="http://www.w3.org/2000/svg" xmlns:xlink="http://www.w3.org/1999/xlink">
    <g id="2" stroke="none" stroke-width="1" fill-rule="evenodd" fill-opacity="0.7">
        <path d="M16.0451333,4.9444612 C16.9046437,7.60778993 16.5502439,10.0137954 14.9463616,12.1479336 C14.3318645,12.8105861 13.4646439,13.4161531 12.2751828,13.9998685 L12.0038255,14.0917193 C11.4834715,14.2771578 11.3867441,14.376084 11.4077195,14.4217064 L11.5788733,14.8189986 C11.9143567,15.5609472 12.2051249,15.9857636 12.3833071,16.0697345 L11.9412392,17 C11.4155226,16.7522485 10.9548403,16.03544 10.4919981,14.8905285 C9.970819,14.0642684 10.6289611,13.4503061 11.8851491,13.049847 C12.8995535,12.5466772 13.6664693,12.0111515 14.152713,11.4909168 C15.517402,9.67108229 15.8206299,7.61248037 15.0977501,5.34501796 C13.8038941,2.94128129 11.9291118,1.86271879 9.37009952,2.05103564 C7.21880568,2.10970508 5.8831674,3.01158942 5.27932996,4.71880931 C5.15402726,5.46067654 4.80059433,5.9928612 4.16674183,6.26998683 L2.72897419,6.73155562 C2.48031202,6.81716955 2.44739683,6.88874338 2.66098019,7.24151552 L3.09819259,7.89338636 L3.18233212,8.11271224 C3.27701175,8.80810479 3.21790868,9.47761529 3.00470388,10.1151179 L2.942,10.283 L2.9278151,10.4309079 C2.8358922,11.4801718 3.16450216,12.0091111 3.96474626,12.1824151 L4.12033147,12.2107822 L4.28307222,12.2638858 C6.18284063,13.2563335 7.30731657,14.6780452 7.61195172,16.5030247 L6.59247323,16.6717898 C6.35678318,15.2598401 5.52317583,14.1472537 4.05377311,13.3119268 L3.864,13.209 L3.76637538,13.1925925 C2.40523896,12.907221 1.76476136,11.8915755 1.90032397,10.3241391 L1.92497522,10.0964852 L1.95741357,9.97184931 C2.14693233,9.49800206 2.2219893,9.00181934 2.18228016,8.47745796 L2.16943199,8.36341785 L1.86114109,7.90907969 C1.2475785,6.94611248 1.40818214,6.09735488 2.40154523,5.75546117 L3.7984552,5.30992591 C4.03404437,5.20575077 4.18834111,4.97341714 4.28168612,4.46444312 C5.0532212,2.25490587 6.77504952,1.09224828 9.31775997,1.02346314 C12.2690422,0.805633184 14.5257444,2.10391429 16.0451333,4.9444612 Z M8.8658465,4.75083845 C10.0860015,3.89735485 11.134716,4.21368623 12.0119901,5.69983258 C12.8342997,5.90648411 13.2221919,6.50734822 13.1756667,7.50242492 C13.6446692,7.74482624 13.7856785,8.23385416 13.5986946,8.96950869 C13.1378555,9.74470939 12.3293573,10.0459695 11.1732001,9.87328891 C10.9660024,10.6127636 10.4158949,11.331851 9.52287759,12.0305511 L8.3647203,12.2293955 C9.0380557,11.6302194 9.3540194,10.9886775 9.3126114,10.3047699 C9.37970393,10.0171159 9.15592593,9.81574777 8.6412774,9.70066549 C7.02316074,9.00373549 6.24174557,7.98966654 6.2970319,6.65845867 L6.30975711,6.47496458 C6.34859732,5.4476209 7.20062712,4.87291219 8.8658465,4.75083845 Z" id="形状"></path>
    </g>
</svg>