<?xml version="1.0" encoding="UTF-8"?>
<svg width="24px" height="24px" viewBox="0 0 24 24" version="1.1" xmlns="http://www.w3.org/2000/svg" xmlns:xlink="http://www.w3.org/1999/xlink">
    <title>2</title>
    <defs>
        <rect id="path-1" x="0" y="0" width="24" height="24"></rect>
        <filter x="-18.7%" y="-5.3%" width="137.3%" height="120.9%" filterUnits="objectBoundingBox" id="filter-3">
            <feOffset dx="0" dy="1" in="SourceAlpha" result="shadowOffsetOuter1"></feOffset>
            <feGaussianBlur stdDeviation="0.5" in="shadowOffsetOuter1" result="shadowBlurOuter1"></feGaussianBlur>
            <feColorMatrix values="0 0 0 0 0   0 0 0 0 0   0 0 0 0 0  0 0 0 0.196570763 0" type="matrix" in="shadowBlurOuter1" result="shadowMatrixOuter1"></feColorMatrix>
            <feMerge>
                <feMergeNode in="shadowMatrixOuter1"></feMergeNode>
                <feMergeNode in="SourceGraphic"></feMergeNode>
            </feMerge>
        </filter>
        <path d="M2.45374644,9.4323014 L2.45374644,7.68449352 C2.45374644,7.38017602 2.74617108,7.2706585 2.74617108,7.05249888 L2.74617108,5.51732982 C2.74617108,5.43931327 3.06193663,5.3620306 3.06193663,5.19762411 L3.06193663,3.5342942 C3.06193663,3.46019778 2.89070655,3.377684 2.89070655,3.31333717 C2.89070655,3.24899034 2.91535752,3.22643219 3.01625108,3.22643219 L3.35606126,3.22643219 C3.45695481,3.22643219 3.48160578,3.24899034 3.48160578,3.31333717 C3.48160578,3.377684 3.3103757,3.46019778 3.3103757,3.5342942 L3.3103757,5.19762411 C3.3103757,5.3620306 3.62614126,5.43931327 3.62614126,5.51732982 L3.62614126,7.05249888 C3.62614126,7.2706585 3.91856589,7.38017602 3.91856589,7.68449352 L3.91856589,9.4323014 L2.45374644,9.4323014 Z" id="path-4"></path>
        <filter x="-34.1%" y="-8.1%" width="168.3%" height="116.1%" filterUnits="objectBoundingBox" id="filter-5">
            <feGaussianBlur stdDeviation="0.5" in="SourceAlpha" result="shadowBlurInner1"></feGaussianBlur>
            <feOffset dx="0" dy="0" in="shadowBlurInner1" result="shadowOffsetInner1"></feOffset>
            <feComposite in="shadowOffsetInner1" in2="SourceAlpha" operator="arithmetic" k2="-1" k3="1" result="shadowInnerInner1"></feComposite>
            <feColorMatrix values="0 0 0 0 0.184313725   0 0 0 0 0.17254902   0 0 0 0 0.133333333  0 0 0 1 0" type="matrix" in="shadowInnerInner1"></feColorMatrix>
        </filter>
        <filter x="-2.1%" y="-59.0%" width="104.1%" height="218.0%" filterUnits="objectBoundingBox" id="filter-6">
            <feGaussianBlur stdDeviation="0.25" in="SourceGraphic"></feGaussianBlur>
        </filter>
        <radialGradient cx="50%" cy="31.4955196%" fx="50%" fy="31.4955196%" r="68.0305957%" gradientTransform="translate(0.500000,0.314955),scale(1.000000,0.784341),rotate(90.000000),translate(-0.500000,-0.314955)" id="radialGradient-7">
            <stop stop-color="#FFF7CC" stop-opacity="0.416090745" offset="0%"></stop>
            <stop stop-color="#FFC41B" stop-opacity="0.4182385" offset="100%"></stop>
        </radialGradient>
        <path d="M5.36078581,0 C1.98375224,0 0,2.97183014 0,5.58417644 C0,8.19652273 2.06351281,9.63260618 2.68039291,11.0884401 C3.297273,12.544274 3.54997971,13.6695353 3.73996178,13.6695353 C3.86661649,13.6695353 4.40689117,13.6695353 5.36078581,13.6695353 L5.36078581,0 Z M5.36078581,0 C8.73781938,0 10.7215716,2.97183014 10.7215716,5.58417644 C10.7215716,8.19652273 8.65805881,9.63260618 8.04117872,11.0884401 C7.42429862,12.544274 7.17159191,13.6695353 6.98160984,13.6695353 C6.85495513,13.6695353 6.31468045,13.6695353 5.36078581,13.6695353 L5.36078581,0 Z" id="path-8"></path>
        <filter x="-2.3%" y="-1.8%" width="104.7%" height="103.7%" filterUnits="objectBoundingBox" id="filter-9">
            <feGaussianBlur stdDeviation="0.25" in="SourceAlpha" result="shadowBlurInner1"></feGaussianBlur>
            <feOffset dx="0" dy="-0" in="shadowBlurInner1" result="shadowOffsetInner1"></feOffset>
            <feComposite in="shadowOffsetInner1" in2="SourceAlpha" operator="arithmetic" k2="-1" k3="1" result="shadowInnerInner1"></feComposite>
            <feColorMatrix values="0 0 0 0 0.467898493   0 0 0 0 0.362554969   0 0 0 0 0.210873722  0 0 0 0.6 0" type="matrix" in="shadowInnerInner1"></feColorMatrix>
        </filter>
        <filter x="-31.5%" y="-896.8%" width="163.1%" height="1893.5%" filterUnits="objectBoundingBox" id="filter-10">
            <feGaussianBlur stdDeviation="0.55" in="SourceGraphic"></feGaussianBlur>
        </filter>
        <linearGradient x1="-1.11022302e-14%" y1="50%" x2="100%" y2="50%" id="linearGradient-11">
            <stop stop-color="#232321" offset="0%"></stop>
            <stop stop-color="#555451" offset="24.0260904%"></stop>
            <stop stop-color="#3C3C39" offset="42.0052087%"></stop>
            <stop stop-color="#0F0F0E" offset="77.6109705%"></stop>
            <stop stop-color="#252523" offset="100%"></stop>
        </linearGradient>
        <path d="M0.04954935,2.5336718e-05 C0.01651645,-0.00270977886 0,0.215998246 0,0.656149411 C0,1.31637616 0,3.94187846 0,4.06427239 C0,4.18666631 1.15810316,5.06312595 1.5040948,5.06312595 C1.7347559,5.06312595 1.91657408,5.06312595 2.04954935,5.06312595 L2.04954935,2.5336718e-05 L0.04954935,2.5336718e-05 Z M4.04954935,2.5336718e-05 C4.08258225,-0.00270977886 4.0990987,0.215998246 4.0990987,0.656149411 C4.0990987,1.31637616 4.0990987,3.94187846 4.0990987,4.06427239 C4.0990987,4.18666631 2.94099554,5.06312595 2.5950039,5.06312595 C2.3643428,5.06312595 2.18252462,5.06312595 2.04954935,5.06312595 L2.04954935,2.5336718e-05 L4.04954935,2.5336718e-05 Z" id="path-12"></path>
        <linearGradient x1="50%" y1="0%" x2="50%" y2="100%" id="linearGradient-14">
            <stop stop-color="#141413" offset="0%"></stop>
            <stop stop-color="#141313" stop-opacity="0.251023513" offset="95.1847957%"></stop>
        </linearGradient>
        <filter x="0.0%" y="0.0%" width="100.0%" height="100.0%" filterUnits="objectBoundingBox" id="filter-15">
            <feGaussianBlur stdDeviation="0.0625" in="SourceGraphic"></feGaussianBlur>
        </filter>
        <filter x="0.0%" y="0.0%" width="100.0%" height="75.8%" filterUnits="objectBoundingBox" id="filter-16">
            <feGaussianBlur stdDeviation="0.0625" in="SourceGraphic"></feGaussianBlur>
        </filter>
        <filter x="0.0%" y="0.0%" width="100.0%" height="75.8%" filterUnits="objectBoundingBox" id="filter-17">
            <feGaussianBlur stdDeviation="0.0625" in="SourceGraphic"></feGaussianBlur>
        </filter>
        <filter x="0.0%" y="0.0%" width="100.0%" height="75.8%" filterUnits="objectBoundingBox" id="filter-18">
            <feGaussianBlur stdDeviation="0.0625" in="SourceGraphic"></feGaussianBlur>
        </filter>
        <filter x="0.0%" y="0.0%" width="100.0%" height="75.8%" filterUnits="objectBoundingBox" id="filter-19">
            <feGaussianBlur stdDeviation="0.0625" in="SourceGraphic"></feGaussianBlur>
        </filter>
        <linearGradient x1="-1.11022302e-14%" y1="50%" x2="100%" y2="50%" id="linearGradient-20">
            <stop stop-color="#232321" offset="0%"></stop>
            <stop stop-color="#696762" offset="25.7114842%"></stop>
            <stop stop-color="#3C3C39" offset="42.0052087%"></stop>
            <stop stop-color="#0F0F0E" offset="77.6109705%"></stop>
            <stop stop-color="#373735" offset="92.0828307%"></stop>
            <stop stop-color="#252523" offset="100%"></stop>
        </linearGradient>
        <path d="M4.2507231,0.0931488922 C4.27057702,0.0825591413 4.27598124,0.0515095106 4.26693577,0 C4.29758641,0.00929132888 4.40140013,0.114556501 4.4174903,0.145481965 C4.4492689,0.206560742 4.42612798,0.282158691 4.36580361,0.31433471 C4.16905685,0.419276159 3.90244778,0.504341105 3.55351217,0.570670606 L3.4517319,0.589107277 C3.43442098,0.592094393 3.41693623,0.595038731 3.39927755,0.597940371 L3.29123733,0.614838477 L3.17901764,0.630715671 L3.06261354,0.645575793 L2.9420201,0.659422682 L2.81723236,0.672260177 C2.79608461,0.674315857 2.77476189,0.676329638 2.7532641,0.678301602 L2.62217567,0.689632205 C2.59997719,0.691437216 2.57760342,0.693200568 2.55505428,0.694922343 L2.41765405,0.704754692 C2.39440298,0.706310474 2.37097633,0.707824838 2.34737398,0.709297863 L2.13178433,0.721437621 L1.9914831,0.728430264 L1.78953307,0.737449674 L1.53591897,0.746827464 L1.35726666,0.751953972 L1.18836614,0.755513964 L1.08111443,0.757047188 L0.978093306,0.75792946 L0.831403389,0.758071945 L0.738777558,0.757406066 L0.607486448,0.755311217 L0.485248257,0.751955464 L0.408716506,0.749047978 L0.301255907,0.743726546 L0.234446464,0.739565202 L0.17145347,0.734934007 L0.112235509,0.729851073 C0.0443351933,0.72357216 -0.00568169228,0.662749645 0.000519668286,0.594000183 C0.00354303974,0.560482513 0.00354303974,0.494827192 0.0678742982,0.459923792 C0.132205557,0.425020392 0.197626168,0.414807602 0.192079463,0.430094244 C0.184863764,0.449980609 0.184863764,0.468551693 0.192079463,0.485807496 L0.253258382,0.490290714 L0.352226371,0.496155909 L0.459956584,0.500934409 L0.576587048,0.504564188 L0.659353436,0.506315231 L0.791124381,0.507892636 L0.93216365,0.508155912 L1.08260927,0.507043034 L1.2980741,0.503311301 L1.41227168,0.500440701 L1.59176453,0.494827192 L1.78121584,0.487589418 L1.98076364,0.478665351 L2.19054596,0.467992965 L2.32965553,0.459923792 L2.46460016,0.450915054 L2.59537491,0.440970592 L2.72197485,0.430094244 L2.84439503,0.418289849 C2.88450458,0.414200803 2.92391669,0.409957723 2.96263052,0.405561247 L3.07667638,0.391912277 L3.18652766,0.377346779 C3.20448639,0.374843032 3.22227013,0.372301256 3.2398788,0.369721531 L3.34342896,0.353788437 L3.44277221,0.336948413 C3.523804,0.322538238 3.60044843,0.307187343 3.67269265,0.290905725 L3.75727279,0.270921677 C3.78476159,0.264111838 3.81154553,0.257153724 3.83762378,0.250047974 L3.91374069,0.228288456 C4.0494041,0.187586356 4.15794012,0.142637792 4.2507231,0.0931488922 Z" id="path-21"></path>
        <filter x="0.0%" y="0.0%" width="100.0%" height="100.0%" filterUnits="objectBoundingBox" id="filter-23">
            <feGaussianBlur stdDeviation="0.0625" in="SourceGraphic"></feGaussianBlur>
        </filter>
        <path d="M4.2507231,0.0931488922 C4.27057702,0.0825591413 4.27598124,0.0515095106 4.26693577,0 C4.29758641,0.00929132888 4.40140013,0.114556501 4.4174903,0.145481965 C4.4492689,0.206560742 4.42612798,0.282158691 4.36580361,0.31433471 C4.16905685,0.419276159 3.90244778,0.504341105 3.55351217,0.570670606 L3.4517319,0.589107277 C3.43442098,0.592094393 3.41693623,0.595038731 3.39927755,0.597940371 L3.29123733,0.614838477 L3.17901764,0.630715671 L3.06261354,0.645575793 L2.9420201,0.659422682 L2.81723236,0.672260177 C2.79608461,0.674315857 2.77476189,0.676329638 2.7532641,0.678301602 L2.62217567,0.689632205 C2.59997719,0.691437216 2.57760342,0.693200568 2.55505428,0.694922343 L2.41765405,0.704754692 C2.39440298,0.706310474 2.37097633,0.707824838 2.34737398,0.709297863 L2.13178433,0.721437621 L1.9914831,0.728430264 L1.78953307,0.737449674 L1.53591897,0.746827464 L1.35726666,0.751953972 L1.18836614,0.755513964 L1.08111443,0.757047188 L0.978093306,0.75792946 L0.831403389,0.758071945 L0.738777558,0.757406066 L0.607486448,0.755311217 L0.485248257,0.751955464 L0.408716506,0.749047978 L0.301255907,0.743726546 L0.234446464,0.739565202 L0.17145347,0.734934007 L0.112235509,0.729851073 C0.0443351933,0.72357216 -0.00568169228,0.662749645 0.000519668286,0.594000183 C0.00354303974,0.560482513 0.00354303974,0.494827192 0.0678742982,0.459923792 C0.132205557,0.425020392 0.197626168,0.414807602 0.192079463,0.430094244 C0.184863764,0.449980609 0.184863764,0.468551693 0.192079463,0.485807496 L0.253258382,0.490290714 L0.352226371,0.496155909 L0.459956584,0.500934409 L0.576587048,0.504564188 L0.659353436,0.506315231 L0.791124381,0.507892636 L0.93216365,0.508155912 L1.08260927,0.507043034 L1.2980741,0.503311301 L1.41227168,0.500440701 L1.59176453,0.494827192 L1.78121584,0.487589418 L1.98076364,0.478665351 L2.19054596,0.467992965 L2.32965553,0.459923792 L2.46460016,0.450915054 L2.59537491,0.440970592 L2.72197485,0.430094244 L2.84439503,0.418289849 C2.88450458,0.414200803 2.92391669,0.409957723 2.96263052,0.405561247 L3.07667638,0.391912277 L3.18652766,0.377346779 C3.20448639,0.374843032 3.22227013,0.372301256 3.2398788,0.369721531 L3.34342896,0.353788437 L3.44277221,0.336948413 C3.523804,0.322538238 3.60044843,0.307187343 3.67269265,0.290905725 L3.75727279,0.270921677 C3.78476159,0.264111838 3.81154553,0.257153724 3.83762378,0.250047974 L3.91374069,0.228288456 C4.0494041,0.187586356 4.15794012,0.142637792 4.2507231,0.0931488922 Z" id="path-24"></path>
        <filter x="0.0%" y="0.0%" width="100.0%" height="100.0%" filterUnits="objectBoundingBox" id="filter-26">
            <feGaussianBlur stdDeviation="0.46" in="SourceGraphic"></feGaussianBlur>
        </filter>
        <path d="M4.2507231,0.0931488922 C4.27057702,0.0825591413 4.27598124,0.0515095106 4.26693577,0 C4.29758641,0.00929132888 4.40140013,0.114556501 4.4174903,0.145481965 C4.4492689,0.206560742 4.42612798,0.282158691 4.36580361,0.31433471 C4.16905685,0.419276159 3.90244778,0.504341105 3.55351217,0.570670606 L3.4517319,0.589107277 C3.43442098,0.592094393 3.41693623,0.595038731 3.39927755,0.597940371 L3.29123733,0.614838477 L3.17901764,0.630715671 L3.06261354,0.645575793 L2.9420201,0.659422682 L2.81723236,0.672260177 C2.79608461,0.674315857 2.77476189,0.676329638 2.7532641,0.678301602 L2.62217567,0.689632205 C2.59997719,0.691437216 2.57760342,0.693200568 2.55505428,0.694922343 L2.41765405,0.704754692 C2.39440298,0.706310474 2.37097633,0.707824838 2.34737398,0.709297863 L2.13178433,0.721437621 L1.9914831,0.728430264 L1.78953307,0.737449674 L1.53591897,0.746827464 L1.35726666,0.751953972 L1.18836614,0.755513964 L1.08111443,0.757047188 L0.978093306,0.75792946 L0.831403389,0.758071945 L0.738777558,0.757406066 L0.607486448,0.755311217 L0.485248257,0.751955464 L0.408716506,0.749047978 L0.301255907,0.743726546 L0.234446464,0.739565202 L0.17145347,0.734934007 L0.112235509,0.729851073 C0.0443351933,0.72357216 -0.00568169228,0.662749645 0.000519668286,0.594000183 C0.00354303974,0.560482513 0.00354303974,0.494827192 0.0678742982,0.459923792 C0.132205557,0.425020392 0.197626168,0.414807602 0.192079463,0.430094244 C0.184863764,0.449980609 0.184863764,0.468551693 0.192079463,0.485807496 L0.253258382,0.490290714 L0.352226371,0.496155909 L0.459956584,0.500934409 L0.576587048,0.504564188 L0.659353436,0.506315231 L0.791124381,0.507892636 L0.93216365,0.508155912 L1.08260927,0.507043034 L1.2980741,0.503311301 L1.41227168,0.500440701 L1.59176453,0.494827192 L1.78121584,0.487589418 L1.98076364,0.478665351 L2.19054596,0.467992965 L2.32965553,0.459923792 L2.46460016,0.450915054 L2.59537491,0.440970592 L2.72197485,0.430094244 L2.84439503,0.418289849 C2.88450458,0.414200803 2.92391669,0.409957723 2.96263052,0.405561247 L3.07667638,0.391912277 L3.18652766,0.377346779 C3.20448639,0.374843032 3.22227013,0.372301256 3.2398788,0.369721531 L3.34342896,0.353788437 L3.44277221,0.336948413 C3.523804,0.322538238 3.60044843,0.307187343 3.67269265,0.290905725 L3.75727279,0.270921677 C3.78476159,0.264111838 3.81154553,0.257153724 3.83762378,0.250047974 L3.91374069,0.228288456 C4.0494041,0.187586356 4.15794012,0.142637792 4.2507231,0.0931488922 Z" id="path-27"></path>
        <filter x="0.0%" y="0.0%" width="100.0%" height="100.0%" filterUnits="objectBoundingBox" id="filter-29">
            <feGaussianBlur stdDeviation="0.0625" in="SourceGraphic"></feGaussianBlur>
        </filter>
        <path d="M4.2507231,0.0931488922 C4.27057702,0.0825591413 4.27598124,0.0515095106 4.26693577,0 C4.29758641,0.00929132888 4.40140013,0.114556501 4.4174903,0.145481965 C4.4492689,0.206560742 4.42612798,0.282158691 4.36580361,0.31433471 C4.16905685,0.419276159 3.90244778,0.504341105 3.55351217,0.570670606 L3.4517319,0.589107277 C3.43442098,0.592094393 3.41693623,0.595038731 3.39927755,0.597940371 L3.29123733,0.614838477 L3.17901764,0.630715671 L3.06261354,0.645575793 L2.9420201,0.659422682 L2.81723236,0.672260177 C2.79608461,0.674315857 2.77476189,0.676329638 2.7532641,0.678301602 L2.62217567,0.689632205 C2.59997719,0.691437216 2.57760342,0.693200568 2.55505428,0.694922343 L2.41765405,0.704754692 C2.39440298,0.706310474 2.37097633,0.707824838 2.34737398,0.709297863 L2.13178433,0.721437621 L1.9914831,0.728430264 L1.78953307,0.737449674 L1.53591897,0.746827464 L1.35726666,0.751953972 L1.18836614,0.755513964 L1.08111443,0.757047188 L0.978093306,0.75792946 L0.831403389,0.758071945 L0.738777558,0.757406066 L0.607486448,0.755311217 L0.485248257,0.751955464 L0.408716506,0.749047978 L0.301255907,0.743726546 L0.234446464,0.739565202 L0.17145347,0.734934007 L0.112235509,0.729851073 C0.0443351933,0.72357216 -0.00568169228,0.662749645 0.000519668286,0.594000183 C0.00354303974,0.560482513 0.00354303974,0.494827192 0.0678742982,0.459923792 C0.132205557,0.425020392 0.197626168,0.414807602 0.192079463,0.430094244 C0.184863764,0.449980609 0.184863764,0.468551693 0.192079463,0.485807496 L0.253258382,0.490290714 L0.352226371,0.496155909 L0.459956584,0.500934409 L0.576587048,0.504564188 L0.659353436,0.506315231 L0.791124381,0.507892636 L0.93216365,0.508155912 L1.08260927,0.507043034 L1.2980741,0.503311301 L1.41227168,0.500440701 L1.59176453,0.494827192 L1.78121584,0.487589418 L1.98076364,0.478665351 L2.19054596,0.467992965 L2.32965553,0.459923792 L2.46460016,0.450915054 L2.59537491,0.440970592 L2.72197485,0.430094244 L2.84439503,0.418289849 C2.88450458,0.414200803 2.92391669,0.409957723 2.96263052,0.405561247 L3.07667638,0.391912277 L3.18652766,0.377346779 C3.20448639,0.374843032 3.22227013,0.372301256 3.2398788,0.369721531 L3.34342896,0.353788437 L3.44277221,0.336948413 C3.523804,0.322538238 3.60044843,0.307187343 3.67269265,0.290905725 L3.75727279,0.270921677 C3.78476159,0.264111838 3.81154553,0.257153724 3.83762378,0.250047974 L3.91374069,0.228288456 C4.0494041,0.187586356 4.15794012,0.142637792 4.2507231,0.0931488922 Z" id="path-30"></path>
        <filter x="0.0%" y="0.0%" width="100.0%" height="100.0%" filterUnits="objectBoundingBox" id="filter-32">
            <feGaussianBlur stdDeviation="0.0625" in="SourceGraphic"></feGaussianBlur>
        </filter>
        <linearGradient x1="50%" y1="0%" x2="50%" y2="98.9805848%" id="linearGradient-33">
            <stop stop-color="#FFFFFF" offset="0%"></stop>
            <stop stop-color="#FFFFFF" stop-opacity="0.403214035" offset="99.2406031%"></stop>
        </linearGradient>
        <linearGradient x1="50%" y1="0%" x2="50%" y2="98.9805848%" id="linearGradient-34">
            <stop stop-color="#FFFFFF" offset="0%"></stop>
            <stop stop-color="#FFFFFF" stop-opacity="0.403214035" offset="99.2406031%"></stop>
        </linearGradient>
    </defs>
    <g id="2" stroke="none" stroke-width="1" fill="none" fill-rule="evenodd">
        <g>
            <mask id="mask-2" fill="white">
                <use xlink:href="#path-1"></use>
            </mask>
            <g id="蒙版"></g>
            <g id="编组-3" filter="url(#filter-3)" mask="url(#mask-2)">
                <g transform="translate(6.739214, 2.597358)">
                    <g id="编组-2" opacity="0.165183658" stroke="none" stroke-width="1" fill="none" fill-rule="evenodd" transform="translate(2.174630, 4.199493)">
                        <g id="形状结合">
                            <use fill-opacity="0" fill="#FEFEFE" fill-rule="evenodd" xlink:href="#path-4"></use>
                            <use fill="black" fill-opacity="1" filter="url(#filter-5)" xlink:href="#path-4"></use>
                        </g>
                        <path d="M0.178509509,0.224777508 C0.426415362,0.224777508 0.845209987,0.524660232 1.24822831,0.992625234 L1.31170447,1.06789203 C1.54377007,1.34885101 1.7672548,1.68382271 1.94593601,2.04723106 C1.99467267,2.14635345 2.04374158,2.25310934 2.09272515,2.36599371 L2.14166482,2.48086517 L2.19045481,2.59948783 L2.23900233,2.72152726 C2.24706823,2.74213332 2.25512015,2.7628678 2.26315617,2.78372375 L2.31116601,2.91026124 L2.35870139,3.03937938 L2.40566953,3.17074372 L2.45197763,3.30401981 L2.49753291,3.43887322 L2.54224257,3.5749695 L2.58601382,3.71197419 L2.62875386,3.84955286 C2.63578611,3.87251189 2.64277153,3.8954809 2.64970818,3.91845292 L2.69072742,4.05626546 L2.73048349,4.19381586 L2.76888357,4.33076967 C2.77516543,4.35352701 2.78138693,4.37624556 2.78754612,4.39891834 L2.82373825,4.53435019 L2.85834242,4.66834933 L2.89126584,4.80058133 L2.92241571,4.93071173 C2.92745441,4.95220642 2.93241534,4.97359961 2.93729657,4.99488432 L2.96561214,5.12123525 L2.99192219,5.24464847 C2.99613492,5.26495395 3.00026021,5.28512309 3.00429614,5.30514892 L3.02742391,5.42352849 L3.04831418,5.53813424 L3.06687414,5.64863171 C3.11317784,5.93751668 3.13363522,6.17901268 3.120328,6.34458034 C3.09897458,6.61025842 3.05331139,6.85189191 2.97719553,7.14305843 L2.95055555,7.24192412 L2.84577243,7.62416439 L2.83931953,7.64941104 C2.80769128,7.77713091 2.79083028,7.87520298 2.78777436,7.95950494 L2.7872657,7.98711738 L2.7872657,9.1103283 L2.6622657,9.1103283 L2.6622657,7.98711738 C2.6622657,7.89479564 2.67713099,7.79299569 2.70734435,7.66355826 L2.72545229,7.59020945 L2.81364898,7.26759888 L2.83687549,7.18424686 C2.92304074,6.86610653 2.97331006,6.6135111 2.9957298,6.33456597 C3.00696257,6.19480841 2.99262665,5.99667769 2.95799723,5.75932673 L2.94192896,5.65525949 L2.92346806,5.5467248 L2.90270679,5.43405772 L2.87973743,5.31759326 C2.87573033,5.29788469 2.87163506,5.27803185 2.86745356,5.25804172 L2.84134509,5.13650941 C2.83682634,5.11599807 2.83222519,5.0953634 2.82754357,5.0746124 L2.79850362,4.94876606 C2.79350782,4.92757759 2.78843539,4.90628674 2.78328826,4.88490049 L2.75152445,4.75549395 L2.71806007,4.62413275 L2.68298741,4.49115192 L2.64639875,4.3568865 C2.64017943,4.33442049 2.63390079,4.31191492 2.62756475,4.28937676 L2.58887509,4.15381264 C2.58231714,4.13117206 2.57570564,4.10851286 2.5690425,4.08584201 L2.52845948,3.94973303 L2.48672957,3.81367959 L2.44394503,3.67801675 L2.40019815,3.54307953 L2.3555812,3.40920297 L2.31018647,3.27672211 L2.26410623,3.14597199 L2.21743275,3.01728764 L2.17025832,2.8910041 L2.12267522,2.7674564 L2.07477571,2.64697959 C2.06677121,2.62717464 2.05875738,2.6075116 2.05073614,2.58799746 L2.00253505,2.47275516 L1.95424825,2.36142134 C1.91399918,2.27036475 1.87375694,2.18372848 1.83376186,2.10238502 C1.65097132,1.73061896 1.41977435,1.39003973 1.18415813,1.10998191 L1.1226217,1.03831553 C1.09183228,1.00318806 1.06103276,0.969133666 1.03032073,0.936217427 L0.969042275,0.871921784 C0.89775434,0.798725676 0.827297101,0.731962494 0.7589106,0.672459208 L0.700829642,0.623253614 C0.489937664,0.449493638 0.302999107,0.349777508 0.178509509,0.349777508 C0.115725735,0.349777508 0.108469191,0.373555193 0.146915041,0.452785559 C0.182683194,0.526497648 0.252711291,0.599186691 0.280480508,0.609194758 L0.286103803,0.610363568 L0.286103803,0.735363568 C0.201683982,0.735363568 0.0918258113,0.625585724 0.0344556267,0.507355516 C-0.0384448106,0.357120096 0.00194388641,0.224777508 0.178509509,0.224777508 Z" id="路径-354" fill="#030103" fill-rule="nonzero"></path>
                        <path d="M3.42713029,0.224777508 C3.67503614,0.224777508 4.09383077,0.524660232 4.49684909,0.992625234 L4.56032525,1.06789203 C4.79239085,1.34885101 5.01587558,1.68382271 5.19455679,2.04723106 C5.24329345,2.14635345 5.29236235,2.25310934 5.34134593,2.36599371 L5.3902856,2.48086517 L5.43907559,2.59948783 L5.48762311,2.72152726 L5.53583537,2.84664901 C5.54383766,2.86774091 5.55182211,2.88894731 5.55978678,2.91026124 L5.60732217,3.03937938 L5.65429031,3.17074372 L5.70059841,3.30401981 C5.70825627,3.32637323 5.71588276,3.34879237 5.72347596,3.37127026 L5.76862002,3.50678691 L5.81287207,3.64337919 L5.85613932,3.78071268 L5.89832896,3.91845292 L5.9393482,4.05626546 L5.97910427,4.19381586 L6.01750435,4.33076967 C6.02378621,4.35352701 6.0300077,4.37624556 6.0361669,4.39891834 L6.07235903,4.53435019 L6.1069632,4.66834933 L6.13988662,4.80058133 L6.17103649,4.93071173 C6.17607519,4.95220642 6.18103612,4.97359961 6.18591735,4.99488432 L6.21423292,5.12123525 L6.24054297,5.24464847 C6.24475569,5.26495395 6.24888099,5.28512309 6.25291692,5.30514892 L6.27604469,5.42352849 L6.29693496,5.53813424 L6.31549492,5.64863171 C6.36179862,5.93751668 6.382256,6.17901268 6.36894878,6.34458034 C6.34759536,6.61025842 6.30193217,6.85189191 6.22581631,7.14305843 L6.18716001,7.28506547 L6.11134851,7.56051891 L6.08794031,7.64941104 C6.05631206,7.77713091 6.03945106,7.87520298 6.03639514,7.95950494 L6.03588648,7.98711738 L6.03588648,9.1103283 L5.91088648,9.1103283 L5.91088648,7.98711738 C5.91088648,7.89479564 5.92575176,7.79299569 5.95596513,7.66355826 L5.97407307,7.59020945 L6.06226976,7.26759888 L6.08549627,7.18424686 C6.17166152,6.86610653 6.22193084,6.6135111 6.24435058,6.33456597 C6.25558335,6.19480841 6.24124743,5.99667769 6.206618,5.75932673 L6.19054974,5.65525949 L6.17208884,5.5467248 L6.15132757,5.43405772 L6.12835821,5.31759326 C6.12435111,5.29788469 6.12025584,5.27803185 6.11607434,5.25804172 L6.08996587,5.13650941 C6.08544712,5.11599807 6.08084597,5.0953634 6.07616435,5.0746124 L6.0471244,4.94876606 C6.0421286,4.92757759 6.03705617,4.90628674 6.03190904,4.88490049 L6.00014523,4.75549395 L5.96668085,4.62413275 L5.93160819,4.49115192 L5.89501953,4.3568865 C5.88880021,4.33442049 5.88252157,4.31191492 5.87618553,4.28937676 L5.83749587,4.15381264 C5.83093792,4.13117206 5.82432642,4.10851286 5.81766328,4.08584201 L5.77708026,3.94973303 L5.73535034,3.81367959 L5.69256581,3.67801675 L5.64881893,3.54307953 L5.60420198,3.40920297 L5.55880725,3.27672211 L5.51272701,3.14597199 L5.46605353,3.01728764 L5.4188791,2.8910041 L5.37129599,2.7674564 L5.32339649,2.64697959 C5.31539199,2.62717464 5.30737816,2.6075116 5.29935692,2.58799746 L5.25115583,2.47275516 C5.19485329,2.34052061 5.13837576,2.21626586 5.08238264,2.10238502 C4.85985502,1.64980025 4.56558708,1.24343566 4.27894151,0.936217427 L4.21766305,0.871921784 C4.14637512,0.798725676 4.07591788,0.731962494 4.00753138,0.672459208 L3.94945042,0.623253614 C3.73855844,0.449493638 3.55161989,0.349777508 3.42713029,0.349777508 C3.36434651,0.349777508 3.35708997,0.373555193 3.39553582,0.452785559 C3.43130397,0.526497648 3.50133207,0.599186691 3.52910129,0.609194758 L3.53472458,0.610363568 L3.53472458,0.735363568 C3.45030476,0.735363568 3.34044659,0.625585724 3.28307641,0.507355516 C3.21017597,0.357120096 3.25056467,0.224777508 3.42713029,0.224777508 Z" id="路径-354" fill="#030103" fill-rule="nonzero" transform="translate(4.810783, 4.667553) scale(-1, 1) translate(-4.810783, -4.667553) "></path>
                        <path d="M2.50400541,0 C2.42976111,0.0887845819 2.31956802,0.296091762 2.22936419,0.26644104 C2.13916037,0.236790319 2.15894418,0.101408578 2.28264915,0.118033674 C2.40635411,0.134658769 2.63837451,0.579101218 2.85015557,1.58479062 C2.99134295,2.25525023 3.08437742,2.83863682 3.12925899,3.33495039" id="路径-355" stroke="#2F2C22" stroke-width="0.2"></path>
                        <path d="M3.62900541,0 C3.55476111,0.0887845819 3.44456802,0.296091762 3.35436419,0.26644104 C3.26416037,0.236790319 3.28394418,0.101408578 3.40764915,0.118033674 C3.53135411,0.134658769 3.76337451,0.579101218 3.97515557,1.58479062 C4.11634295,2.25525023 4.20937742,2.83863682 4.25425899,3.33495039" id="路径-355" stroke="#2F2C22" stroke-width="0.2" transform="translate(3.776357, 1.667475) scale(-1, 1) translate(-3.776357, -1.667475) "></path>
                    </g>
                    <ellipse id="椭圆形" stroke="none" fill="#46453F" fill-rule="evenodd" cx="5.36078581" cy="13.3901424" rx="2" ry="1"></ellipse>
                    <path d="M2.52071757,4.42427074 C2.77619997,4.57739879 3.47875281,4.57739879 4.62837609,4.42427074 C4.87862822,4.56504202 5.10379907,4.63542765 5.30388864,4.63542765 C5.5039782,4.63542765 5.82796382,4.56504202 6.27584548,4.42427074 C6.55641249,4.55753791 6.84513213,4.62792355 7.1420044,4.63542765 C7.43887667,4.64293176 7.90740009,4.59168713 8.54757468,4.48169376" id="路径-357" stroke="#FFFCE7" stroke-width="0.25" fill="none" stroke-linecap="round" stroke-linejoin="round"></path>
                    <path d="M2.52071757,4.42427074 C2.77619997,4.57739879 3.47875281,4.57739879 4.62837609,4.42427074 C4.87862822,4.56504202 5.10379907,4.63542765 5.30388864,4.63542765 C5.5039782,4.63542765 5.82796382,4.56504202 6.27584548,4.42427074 C6.55641249,4.55753791 6.84513213,4.62792355 7.1420044,4.63542765 C7.43887667,4.64293176 7.90740009,4.59168713 8.54757468,4.48169376" id="路径-357" stroke="#FFFCEB" stroke-width="0.25" fill="none" stroke-linecap="round" stroke-linejoin="round" filter="url(#filter-6)"></path>
                    <g id="形状结合" stroke="none" fill="none">
                        <use fill="url(#radialGradient-7)" fill-rule="evenodd" xlink:href="#path-8"></use>
                        <use fill="black" fill-opacity="1" filter="url(#filter-9)" xlink:href="#path-8"></use>
                    </g>
                    <path d="M2.52071757,4.42427074 C2.77619997,4.57739879 3.47875281,4.57739879 4.62837609,4.42427074 C4.87862822,4.56504202 5.10379907,4.63542765 5.30388864,4.63542765 C5.5039782,4.63542765 5.82796382,4.56504202 6.27584548,4.42427074 C6.55641249,4.55753791 6.84513213,4.62792355 7.1420044,4.63542765 C7.43887667,4.64293176 7.90740009,4.59168713 8.54757468,4.48169376" id="路径-357" stroke-opacity="0.378279039" stroke="#FFFFFF" stroke-width="0.5" fill="none" stroke-linecap="round" stroke-linejoin="round" filter="url(#filter-10)"></path>
                    <g id="编组" stroke="none" stroke-width="1" fill="none" fill-rule="evenodd" transform="translate(3.136211, 13.390091)">
                        <path d="M2.09188636,5.5876684 C1.58023904,5.49512461 1.29926657,4.8873875 1.29926657,4.72612293 C1.29926657,4.60965408 1.60770265,4.60022508 2.2245748,4.69783593 C2.84144696,4.60022508 3.14988304,4.60965408 3.14988304,4.72612293 C3.14988304,4.90082622 2.82013062,5.59951463 2.2245748,5.59951463 Z" id="形状结合" fill="#000000"></path>
                        <g id="路径-352-+-路径-352-+-路径-352-+-路径-352-蒙版" transform="translate(0.175025, 0.000000)">
                            <mask id="mask-13" fill="white">
                                <use xlink:href="#path-12"></use>
                            </mask>
                            <use id="蒙版" fill="url(#linearGradient-11)" xlink:href="#path-12"></use>
                            <path d="M-0.219574445,4.01395566 C0.382301148,4.13262571 1.11806511,4.19196073 1.98771744,4.19196073 C2.85736976,4.19196073 3.63752081,4.13262571 4.32817059,4.01395566 C4.20487472,4.80660415 4.09373754,5.2029284 3.99475905,5.2029284 C3.89578057,5.2029284 2.49100274,5.22327082 -0.219574445,5.26395566 L-0.219574445,4.01395566 Z" id="路径-362" fill="url(#linearGradient-14)" filter="url(#filter-15)" mask="url(#mask-13)"></path>
                            <path d="M4.07569765,0.583919722 C4.09555157,0.573329972 4.10095579,0.542280341 4.09191031,0.49077083 C4.12256096,0.500062159 4.22637467,0.605327331 4.24246484,0.636252796 C4.27424345,0.697331573 4.25110253,0.772929522 4.19077815,0.80510554 C3.9940314,0.910046989 3.72742232,0.995111935 3.37848672,1.06144144 L3.27670644,1.07987811 C3.25939553,1.08286522 3.24191078,1.08580956 3.22425209,1.0887112 L3.11621187,1.10560931 L3.00399219,1.1214865 L2.88758809,1.13634662 L2.76699464,1.15019351 L2.64220691,1.16303101 C2.62105916,1.16508669 2.59973644,1.16710047 2.57823864,1.16907243 L2.44715022,1.18040303 C2.42495173,1.18220805 2.40257797,1.1839714 2.38002883,1.18569317 L2.2426286,1.19552552 C2.21937753,1.1970813 2.19595087,1.19859567 2.17234853,1.20006869 L1.95675888,1.21220845 L1.81645765,1.21920109 L1.61450762,1.2282205 L1.36089351,1.23759829 L1.18224121,1.2427248 L1.01334069,1.24628479 L0.906088973,1.24781802 L0.803067852,1.24870029 L0.656377935,1.24884278 L0.563752105,1.2481769 L0.432460994,1.24608205 L0.310222803,1.24272629 L0.233691052,1.23981881 L0.126230453,1.23449738 L0.0594210105,1.23033603 L-0.00357198405,1.22570484 L-0.0627899445,1.2206219 C-0.13069026,1.21434299 -0.180707146,1.15352047 -0.174505785,1.08477101 C-0.171482414,1.05125334 -0.171482414,0.985598022 -0.107151155,0.950694622 C-0.0428198969,0.915791222 0.022600714,0.905578432 0.0170540091,0.920865074 C0.00983831064,0.940751439 0.00983831064,0.959322523 0.0170540091,0.976578327 L0.0782329284,0.981061544 L0.177200918,0.986926739 L0.28493113,0.991705239 L0.401561594,0.995335018 L0.484327983,0.997086061 L0.616098927,0.998663466 L0.757138196,0.998926742 L0.907583818,0.997813864 L1.12304865,0.994082132 L1.23724623,0.991211531 L1.41673908,0.985598022 L1.60619039,0.978360248 L1.80573819,0.969436181 L2.01552051,0.958763795 L2.15463007,0.950694622 L2.2895747,0.941685884 L2.42034946,0.931741422 L2.54694939,0.920865074 L2.66936958,0.909060679 C2.70947913,0.904971633 2.74889123,0.900728553 2.78760507,0.896332078 L2.90165092,0.882683108 L3.01150221,0.868117609 C3.02946093,0.865613862 3.04724468,0.863072086 3.06485334,0.860492361 L3.16840351,0.844559268 L3.26774676,0.827719243 C3.34877854,0.813309069 3.42542298,0.797958173 3.4976672,0.781676555 L3.58224734,0.761692507 C3.60973613,0.754882669 3.63652007,0.747924554 3.66259833,0.740818804 L3.73871524,0.719059287 C3.87437865,0.678357186 3.98291467,0.633408622 4.07569765,0.583919722 Z" id="路径-352" fill="#252523" opacity="0.68123663" filter="url(#filter-16)" mask="url(#mask-13)"></path>
                            <path d="M4.07569765,1.45891972 C4.09555157,1.44832997 4.10095579,1.41728034 4.09191031,1.36577083 C4.12256096,1.37506216 4.22637467,1.48032733 4.24246484,1.5112528 C4.27424345,1.57233157 4.25110253,1.64792952 4.19077815,1.68010554 C3.9940314,1.78504699 3.72742232,1.87011194 3.37848672,1.93644144 L3.27670644,1.95487811 C3.25939553,1.95786522 3.24191078,1.96080956 3.22425209,1.9637112 L3.11621187,1.98060931 L3.00399219,1.9964865 L2.88758809,2.01134662 L2.76699464,2.02519351 L2.64220691,2.03803101 C2.62105916,2.04008669 2.59973644,2.04210047 2.57823864,2.04407243 L2.44715022,2.05540303 C2.42495173,2.05720805 2.40257797,2.0589714 2.38002883,2.06069317 L2.2426286,2.07052552 C2.21937753,2.0720813 2.19595087,2.07359567 2.17234853,2.07506869 L1.95675888,2.08720845 L1.81645765,2.09420109 L1.61450762,2.1032205 L1.36089351,2.11259829 L1.18224121,2.1177248 L1.01334069,2.12128479 L0.906088973,2.12281802 L0.803067852,2.12370029 L0.656377935,2.12384278 L0.563752105,2.1231769 L0.432460994,2.12108205 L0.310222803,2.11772629 L0.233691052,2.11481881 L0.126230453,2.10949738 L0.0594210105,2.10533603 L-0.00357198405,2.10070484 L-0.0627899445,2.0956219 C-0.13069026,2.08934299 -0.180707146,2.02852047 -0.174505785,1.95977101 C-0.171482414,1.92625334 -0.171482414,1.86059802 -0.107151155,1.82569462 C-0.0428198969,1.79079122 0.022600714,1.78057843 0.0170540091,1.79586507 C0.00983831064,1.81575144 0.00983831064,1.83432252 0.0170540091,1.85157833 L0.0782329284,1.85606154 L0.177200918,1.86192674 L0.28493113,1.86670524 L0.401561594,1.87033502 L0.484327983,1.87208606 L0.616098927,1.87366347 L0.757138196,1.87392674 L0.907583818,1.87281386 L1.12304865,1.86908213 L1.23724623,1.86621153 L1.41673908,1.86059802 L1.60619039,1.85336025 L1.80573819,1.84443618 L2.01552051,1.8337638 L2.15463007,1.82569462 L2.2895747,1.81668588 L2.42034946,1.80674142 L2.54694939,1.79586507 L2.66936958,1.78406068 C2.70947913,1.77997163 2.74889123,1.77572855 2.78760507,1.77133208 L2.90165092,1.75768311 L3.01150221,1.74311761 C3.02946093,1.74061386 3.04724468,1.73807209 3.06485334,1.73549236 L3.16840351,1.71955927 L3.26774676,1.70271924 C3.34877854,1.68830907 3.42542298,1.67295817 3.4976672,1.65667656 L3.58224734,1.63669251 C3.60973613,1.62988267 3.63652007,1.62292455 3.66259833,1.6158188 L3.73871524,1.59405929 C3.87437865,1.55335719 3.98291467,1.50840862 4.07569765,1.45891972 Z" id="路径-352" fill="#252523" opacity="0.68123663" filter="url(#filter-17)" mask="url(#mask-13)"></path>
                            <path d="M4.07569765,2.33391972 C4.09555157,2.32332997 4.10095579,2.29228034 4.09191031,2.24077083 C4.12256096,2.25006216 4.22637467,2.35532733 4.24246484,2.3862528 C4.27424345,2.44733157 4.25110253,2.52292952 4.19077815,2.55510554 C3.9940314,2.66004699 3.72742232,2.74511194 3.37848672,2.81144144 L3.27670644,2.82987811 C3.25939553,2.83286522 3.24191078,2.83580956 3.22425209,2.8387112 L3.11621187,2.85560931 L3.00399219,2.8714865 L2.88758809,2.88634662 L2.76699464,2.90019351 L2.64220691,2.91303101 C2.62105916,2.91508669 2.59973644,2.91710047 2.57823864,2.91907243 L2.44715022,2.93040303 C2.42495173,2.93220805 2.40257797,2.9339714 2.38002883,2.93569317 L2.2426286,2.94552552 C2.21937753,2.9470813 2.19595087,2.94859567 2.17234853,2.95006869 L1.95675888,2.96220845 L1.81645765,2.96920109 L1.61450762,2.9782205 L1.36089351,2.98759829 L1.18224121,2.9927248 L1.01334069,2.99628479 L0.906088973,2.99781802 L0.803067852,2.99870029 L0.656377935,2.99884278 L0.563752105,2.9981769 L0.432460994,2.99608205 L0.310222803,2.99272629 L0.233691052,2.98981881 L0.126230453,2.98449738 L0.0594210105,2.98033603 L-0.00357198405,2.97570484 L-0.0627899445,2.9706219 C-0.13069026,2.96434299 -0.180707146,2.90352047 -0.174505785,2.83477101 C-0.171482414,2.80125334 -0.171482414,2.73559802 -0.107151155,2.70069462 C-0.0428198969,2.66579122 0.022600714,2.65557843 0.0170540091,2.67086507 C0.00983831064,2.69075144 0.00983831064,2.70932252 0.0170540091,2.72657833 L0.0782329284,2.73106154 L0.177200918,2.73692674 L0.28493113,2.74170524 L0.401561594,2.74533502 L0.484327983,2.74708606 L0.616098927,2.74866347 L0.757138196,2.74892674 L0.907583818,2.74781386 L1.12304865,2.74408213 L1.23724623,2.74121153 L1.41673908,2.73559802 L1.60619039,2.72836025 L1.80573819,2.71943618 L2.01552051,2.7087638 L2.15463007,2.70069462 L2.2895747,2.69168588 L2.42034946,2.68174142 L2.54694939,2.67086507 L2.66936958,2.65906068 C2.70947913,2.65497163 2.74889123,2.65072855 2.78760507,2.64633208 L2.90165092,2.63268311 L3.01150221,2.61811761 C3.02946093,2.61561386 3.04724468,2.61307209 3.06485334,2.61049236 L3.16840351,2.59455927 L3.26774676,2.57771924 C3.34877854,2.56330907 3.42542298,2.54795817 3.4976672,2.53167656 L3.58224734,2.51169251 C3.60973613,2.50488267 3.63652007,2.49792455 3.66259833,2.4908188 L3.73871524,2.46905929 C3.87437865,2.42835719 3.98291467,2.38340862 4.07569765,2.33391972 Z" id="路径-352" fill="#252523" opacity="0.68123663" filter="url(#filter-18)" mask="url(#mask-13)"></path>
                            <path d="M4.07569765,3.20891972 C4.09555157,3.19832997 4.10095579,3.16728034 4.09191031,3.11577083 C4.12256096,3.12506216 4.22637467,3.23032733 4.24246484,3.2612528 C4.27424345,3.32233157 4.25110253,3.39792952 4.19077815,3.43010554 C3.9940314,3.53504699 3.72742232,3.62011194 3.37848672,3.68644144 L3.27670644,3.70487811 C3.25939553,3.70786522 3.24191078,3.71080956 3.22425209,3.7137112 L3.11621187,3.73060931 L3.00399219,3.7464865 L2.88758809,3.76134662 L2.76699464,3.77519351 L2.64220691,3.78803101 C2.62105916,3.79008669 2.59973644,3.79210047 2.57823864,3.79407243 L2.44715022,3.80540303 C2.42495173,3.80720805 2.40257797,3.8089714 2.38002883,3.81069317 L2.2426286,3.82052552 C2.21937753,3.8220813 2.19595087,3.82359567 2.17234853,3.82506869 L1.95675888,3.83720845 L1.81645765,3.84420109 L1.61450762,3.8532205 L1.36089351,3.86259829 L1.18224121,3.8677248 L1.01334069,3.87128479 L0.906088973,3.87281802 L0.803067852,3.87370029 L0.656377935,3.87384278 L0.563752105,3.8731769 L0.432460994,3.87108205 L0.310222803,3.86772629 L0.233691052,3.86481881 L0.126230453,3.85949738 L0.0594210105,3.85533603 L-0.00357198405,3.85070484 L-0.0627899445,3.8456219 C-0.13069026,3.83934299 -0.180707146,3.77852047 -0.174505785,3.70977101 C-0.171482414,3.67625334 -0.171482414,3.61059802 -0.107151155,3.57569462 C-0.0428198969,3.54079122 0.022600714,3.53057843 0.0170540091,3.54586507 C0.00983831064,3.56575144 0.00983831064,3.58432252 0.0170540091,3.60157833 L0.0782329284,3.60606154 L0.177200918,3.61192674 L0.28493113,3.61670524 L0.401561594,3.62033502 L0.484327983,3.62208606 L0.616098927,3.62366347 L0.757138196,3.62392674 L0.907583818,3.62281386 L1.12304865,3.61908213 L1.23724623,3.61621153 L1.41673908,3.61059802 L1.60619039,3.60336025 L1.80573819,3.59443618 L2.01552051,3.5837638 L2.15463007,3.57569462 L2.2895747,3.56668588 L2.42034946,3.55674142 L2.54694939,3.54586507 L2.66936958,3.53406068 C2.70947913,3.52997163 2.74889123,3.52572855 2.78760507,3.52133208 L2.90165092,3.50768311 L3.01150221,3.49311761 C3.02946093,3.49061386 3.04724468,3.48807209 3.06485334,3.48549236 L3.16840351,3.46955927 L3.26774676,3.45271924 C3.34877854,3.43830907 3.42542298,3.42295817 3.4976672,3.40667656 L3.58224734,3.38669251 C3.60973613,3.37988267 3.63652007,3.37292455 3.66259833,3.3658188 L3.73871524,3.34405929 C3.87437865,3.30335719 3.98291467,3.25840862 4.07569765,3.20891972 Z" id="路径-352" fill="#252523" opacity="0.68123663" filter="url(#filter-19)" mask="url(#mask-13)"></path>
                        </g>
                        <g id="路径-363" transform="translate(0.000000, 0.365771)">
                            <mask id="mask-22" fill="white">
                                <use xlink:href="#path-21"></use>
                            </mask>
                            <use id="蒙版" fill="url(#linearGradient-20)" xlink:href="#path-21"></use>
                            <path d="M1.09594863,0.602911149 C1.38152661,0.602911149 1.82189269,0.53917956 2.41704688,0.411716383 C1.48514361,0.450761181 0.928879699,0.47028358 0.748255152,0.47028358 C0.477318332,0.47028358 0.667581664,0.602911149 1.09594863,0.602911149 Z" fill="#FFF0BD" opacity="0.431209746" filter="url(#filter-23)" mask="url(#mask-22)"></path>
                        </g>
                        <g id="路径-363" transform="translate(0.000000, 1.240771)">
                            <mask id="mask-25" fill="white">
                                <use xlink:href="#path-24"></use>
                            </mask>
                            <use id="蒙版" fill="url(#linearGradient-20)" xlink:href="#path-24"></use>
                            <path d="M1.09594863,0.602911149 C1.38152661,0.602911149 1.82189269,0.53917956 2.41704688,0.411716383 C1.48514361,0.450761181 0.928879699,0.47028358 0.748255152,0.47028358 C0.477318332,0.47028358 0.667581664,0.602911149 1.09594863,0.602911149 Z" fill="#FFFAE9" opacity="0.431209746" filter="url(#filter-26)" mask="url(#mask-25)"></path>
                        </g>
                        <g id="路径-363" transform="translate(0.000000, 2.115771)">
                            <mask id="mask-28" fill="white">
                                <use xlink:href="#path-27"></use>
                            </mask>
                            <use id="蒙版" fill="url(#linearGradient-20)" xlink:href="#path-27"></use>
                            <path d="M1.09594863,0.602911149 C1.38152661,0.602911149 1.82189269,0.53917956 2.41704688,0.411716383 C1.48514361,0.450761181 0.928879699,0.47028358 0.748255152,0.47028358 C0.477318332,0.47028358 0.667581664,0.602911149 1.09594863,0.602911149 Z" fill="#FFFAE9" opacity="0.335803077" filter="url(#filter-29)" mask="url(#mask-28)"></path>
                        </g>
                        <g id="路径-363" transform="translate(0.000000, 2.990771)">
                            <mask id="mask-31" fill="white">
                                <use xlink:href="#path-30"></use>
                            </mask>
                            <use id="蒙版" fill="url(#linearGradient-20)" xlink:href="#path-30"></use>
                            <path d="M1.09594863,0.602911149 C1.38152661,0.602911149 1.82189269,0.53917956 2.41704688,0.411716383 C1.48514361,0.450761181 0.928879699,0.47028358 0.748255152,0.47028358 C0.477318332,0.47028358 0.667581664,0.602911149 1.09594863,0.602911149 Z" fill="#FFFAE9" opacity="0.178615025" filter="url(#filter-32)" mask="url(#mask-31)"></path>
                        </g>
                    </g>
                    <path d="M2.49812094,1.52665278 L2.64684944,2.27248565 C2.24151315,2.52476723 1.88630125,2.8234151 1.58121375,3.16842928 L0.878095971,3.40375328 C1.31617836,2.65688944 1.85618668,2.03118928 2.49812094,1.52665278 Z M3.49850296,0.901875752 L3.67527635,1.78111098 C3.49221044,1.84247519 3.31252199,1.91618844 3.13621101,2.00225073 C3.03805533,2.05016324 2.94235101,2.10034333 2.84909806,2.15279099 C2.80276262,1.93523339 2.7471355,1.68025078 2.68329315,1.38935856 L2.79355315,1.30801146 C3.02887427,1.1441651 3.26385754,1.00878653 3.49850296,0.901875752 Z M5.10234686,0.614976436 L5.10234686,1.55241516 C4.71276878,1.55241516 4.3360251,1.59934166 3.97211584,1.69319467 C3.91993428,1.45054293 3.85463252,1.14843312 3.77664433,0.790517105 C4.21979953,0.628850555 4.66167692,0.571043342 5.10234686,0.614976436 Z" id="形状结合" stroke="none" fill="url(#linearGradient-33)" fill-rule="evenodd"></path>
                    <path d="M9.86215252,6.53590037 L10.2077783,6.85824874 C10.1912029,6.9346078 10.1743255,6.9997085 10.1571463,7.05355083 C9.91751636,7.80458508 9.58045057,8.35420565 9.14594888,8.70241256 L9.14594888,8.30575241 C9.50715157,7.79040672 9.73267174,7.28456337 9.82250939,6.78822235 C9.8373649,6.70614766 9.85057928,6.62204033 9.86215252,6.53590037 Z M9.91196706,5.07619001 L10.3779963,5.56346926 C10.3396969,5.98741231 10.2992496,6.33127253 10.2566546,6.59504992 L9.88986752,6.29362312 C9.92522347,5.92247869 9.93258999,5.51666765 9.91196706,5.07619001 Z" id="形状结合" stroke="none" fill="url(#linearGradient-34)" fill-rule="evenodd" opacity="0.58547683"></path>
                </g>
            </g>
        </g>
    </g>
</svg>