<?xml version="1.0" encoding="UTF-8"?>
<svg width="22px" height="6px" viewBox="0 0 22 6" version="1.1" xmlns="http://www.w3.org/2000/svg" xmlns:xlink="http://www.w3.org/1999/xlink">
    <title>3</title>
    <defs>
        <linearGradient x1="100%" y1="50%" x2="2.16421895%" y2="50%" id="linearGradient-1">
            <stop stop-color="#000000" stop-opacity="0.5" offset="0%"></stop>
            <stop stop-color="#000000" stop-opacity="0.4" offset="51.2205324%"></stop>
            <stop stop-color="#000000" stop-opacity="0.3" offset="100%"></stop>
        </linearGradient>
    </defs>
    <g id="桌面版" stroke="none" stroke-width="1" fill="none" fill-rule="evenodd">
        <g id="画板" transform="translate(-110.000000, -49.000000)" fill="url(#linearGradient-1)" fill-rule="nonzero">
            <path d="M113,49 C112.155263,49 111.444737,49.2917214 110.868421,49.8751643 C110.284211,50.4586071 110,51.1681997 110,52.0118265 C110,52.847569 110.284211,53.5571616 110.868421,54.1406045 C111.436842,54.7082786 112.147368,55 113,55 C113.836842,55 114.547368,54.7082786 115.131579,54.1406045 C115.707895,53.565046 116,52.8554534 116,52.0118265 C116,51.1681997 115.707895,50.4586071 115.131579,49.8751643 C114.547368,49.2917214 113.836842,49 113,49 Z M121,49 C120.155263,49 119.444737,49.2917214 118.868421,49.8751643 C118.284211,50.4586071 118,51.1681997 118,52.0118265 C118,52.847569 118.284211,53.5571616 118.868421,54.1406045 C119.436842,54.7082786 120.147368,55 121,55 C121.836842,55 122.547368,54.7082786 123.131579,54.1406045 C123.707895,53.565046 124,52.8554534 124,52.0118265 C124,51.1681997 123.707895,50.4586071 123.131579,49.8751643 C122.547368,49.2917214 121.836842,49 121,49 Z M129,49 C128.155263,49 127.444737,49.2917214 126.868421,49.8751643 C126.284211,50.4586071 126,51.1681997 126,52.0118265 C126,52.847569 126.284211,53.5571616 126.868421,54.1406045 C127.436842,54.7082786 128.147368,55 129,55 C129.836842,55 130.547368,54.7082786 131.131579,54.1406045 C131.707895,53.565046 132,52.8554534 132,52.0118265 C132,51.1681997 131.707895,50.4586071 131.131579,49.8751643 C130.547368,49.2917214 129.836842,49 129,49 Z" id="3"></path>
        </g>
    </g>
</svg>