<?xml version="1.0" encoding="UTF-8"?>
<svg width="18px" height="18px" viewBox="0 0 18 18" version="1.1" xmlns="http://www.w3.org/2000/svg" xmlns:xlink="http://www.w3.org/1999/xlink">
    <g id="4" stroke="none" stroke-width="1" fill-rule="evenodd" fill-opacity="0.7">
        <path d="M15,6 L11,6 L11,2 L15,6 Z M12.4995642,13.0010024 L5.50043583,13.0010024 C5.23079681,13.0010024 5,13.22486 5,13.5010024 C5,13.7690688 5.22405275,14.0010024 5.50043583,14.0010024 L12.4995642,14.0010024 C12.7692032,14.0010024 13,13.7771448 13,13.5010024 C13,13.232936 12.7759472,13.0010024 12.4995642,13.0010024 Z M12.4995642,11.0010024 L5.50043583,11.0010024 C5.23079681,11.0010024 5,11.22486 5,11.5010024 C5,11.7690688 5.22405275,12.0010024 5.50043583,12.0010024 L12.4995642,12.0010024 C12.7692032,12.0010024 13,11.7771448 13,11.5010024 C13,11.232936 12.7759472,11.0010024 12.4995642,11.0010024 Z M12.4995642,9.00100238 L5.50043583,9.00100238 C5.23079681,9.00100238 5,9.22486 5,9.50100238 C5,9.76906878 5.22405275,10.0010024 5.50043583,10.0010024 L12.4995642,10.0010024 C12.7692032,10.0010024 13,9.77714475 13,9.50100238 C13,9.23293597 12.7759472,9.00100238 12.4995642,9.00100238 Z M10,2 L10,7 L15,7 L15,14 C15,15.1045695 14.1045695,16 13,16 L5,16 C3.8954305,16 3,15.1045695 3,14 L3,4 C3,2.8954305 3.8954305,2 5,2 L10,2 Z" id="形状"></path>
    </g>
</svg>