<?xml version="1.0" encoding="UTF-8"?>
<svg width="24px" height="24px" viewBox="0 0 24 24" version="1.1" xmlns="http://www.w3.org/2000/svg" xmlns:xlink="http://www.w3.org/1999/xlink">
    <title>5</title>
    <defs>
        <filter x="-12.4%" y="-5.4%" width="126.0%" height="120.7%" filterUnits="objectBoundingBox" id="filter-1">
            <feOffset dx="0" dy="1" in="SourceAlpha" result="shadowOffsetOuter1"></feOffset>
            <feGaussianBlur stdDeviation="0.5" in="shadowOffsetOuter1" result="shadowBlurOuter1"></feGaussianBlur>
            <feColorMatrix values="0 0 0 0 0   0 0 0 0 0   0 0 0 0 0  0 0 0 0.196570763 0" type="matrix" in="shadowBlurOuter1" result="shadowMatrixOuter1"></feColorMatrix>
            <feMerge>
                <feMergeNode in="shadowMatrixOuter1"></feMergeNode>
                <feMergeNode in="SourceGraphic"></feMergeNode>
            </feMerge>
        </filter>
        <path d="M8.744357,10.4686341 C9.91843796,10.5716566 10.2909766,10.9032218 11.3424322,10.7640099 C12.3938878,10.624798 13.6352942,10.1712737 14.2912324,10.1712737 C14.7285244,10.1712737 15.6677669,10.1712737 17.1089599,10.1712737 C17.6109789,9.05004685 17.8619884,7.97433021 17.8619884,6.94412377 C17.8619884,5.91391733 17.7151015,4.95547164 17.4213276,4.0687867 C17.0619329,4.07965295 16.4925725,4.02288783 15.7132465,3.89849133 C14.5442576,3.71189658 11.2343997,1.82585122 10.3142851,1.38750698 C9.3941704,0.949162746 8.50463732,0.207279758 7.2667456,0.0127779305 C6.02885389,-0.181723897 2.0252801,1.89649025 1.49507184,2.69110858 C0.964863577,3.4857269 0.897681457,4.39691605 0.688361017,5.93659722 C0.479040577,7.47627839 0.353289667,7.78452488 0.0505705093,8.3838548 C-0.252148649,8.98318472 0.877393847,9.46102825 1.49507184,8.8742212 C1.90685717,8.48301651 2.28966121,8.20275939 2.64348397,8.03344985 C2.817699,9.22764105 3.46567198,9.940249 4.58740291,10.1712737 C6.26999929,10.5178107 7.57027605,10.3656115 8.744357,10.4686341 Z" id="path-2"></path>
        <filter x="-5.6%" y="-9.3%" width="111.2%" height="118.5%" filterUnits="objectBoundingBox" id="filter-4">
            <feGaussianBlur stdDeviation="0.5" in="SourceAlpha" result="shadowBlurInner1"></feGaussianBlur>
            <feOffset dx="0" dy="0" in="shadowBlurInner1" result="shadowOffsetInner1"></feOffset>
            <feComposite in="shadowOffsetInner1" in2="SourceAlpha" operator="arithmetic" k2="-1" k3="1" result="shadowInnerInner1"></feComposite>
            <feColorMatrix values="0 0 0 0 0.86489647   0 0 0 0 0.512586907   0 0 0 0 0.0608017027  0 0 0 1 0" type="matrix" in="shadowInnerInner1" result="shadowMatrixInner1"></feColorMatrix>
            <feGaussianBlur stdDeviation="0.5" in="SourceAlpha" result="shadowBlurInner2"></feGaussianBlur>
            <feOffset dx="-0" dy="-1" in="shadowBlurInner2" result="shadowOffsetInner2"></feOffset>
            <feComposite in="shadowOffsetInner2" in2="SourceAlpha" operator="arithmetic" k2="-1" k3="1" result="shadowInnerInner2"></feComposite>
            <feColorMatrix values="0 0 0 0 0.885718304   0 0 0 0 0.584062526   0 0 0 0 0.099122224  0 0 0 1 0" type="matrix" in="shadowInnerInner2" result="shadowMatrixInner2"></feColorMatrix>
            <feGaussianBlur stdDeviation="0.5" in="SourceAlpha" result="shadowBlurInner3"></feGaussianBlur>
            <feOffset dx="0" dy="-0" in="shadowBlurInner3" result="shadowOffsetInner3"></feOffset>
            <feComposite in="shadowOffsetInner3" in2="SourceAlpha" operator="arithmetic" k2="-1" k3="1" result="shadowInnerInner3"></feComposite>
            <feColorMatrix values="0 0 0 0 0.768617492   0 0 0 0 0.423570598   0 0 0 0 0.0812930531  0 0 0 0.504392824 0" type="matrix" in="shadowInnerInner3" result="shadowMatrixInner3"></feColorMatrix>
            <feMerge>
                <feMergeNode in="shadowMatrixInner1"></feMergeNode>
                <feMergeNode in="shadowMatrixInner2"></feMergeNode>
                <feMergeNode in="shadowMatrixInner3"></feMergeNode>
            </feMerge>
        </filter>
        <path d="M2.24938469,9.08622808 C3.91369753,6.16055679 6.0490582,4.69772114 8.6554667,4.69772114 C11.2618752,4.69772114 13.8267898,6.07307062 16.3502105,8.82376959 L17.677385,10.5662443 C16.1484358,10.3890816 15.1457676,10.3151025 14.6693806,10.3443068 C12.8779542,10.4541281 12.1385116,10.8886066 11.0654113,10.8886066 C10.0558193,10.8886066 9.28008528,10.6634513 7.61101263,10.5662443 C7.0692469,10.5346917 5.99056455,10.5346917 4.37496556,10.5662443 L2.24938469,9.08622808 Z" id="path-5"></path>
        <filter x="-3.2%" y="-8.1%" width="106.5%" height="116.2%" filterUnits="objectBoundingBox" id="filter-6">
            <feGaussianBlur stdDeviation="0.5" in="SourceAlpha" result="shadowBlurInner1"></feGaussianBlur>
            <feOffset dx="0" dy="0" in="shadowBlurInner1" result="shadowOffsetInner1"></feOffset>
            <feComposite in="shadowOffsetInner1" in2="SourceAlpha" operator="arithmetic" k2="-1" k3="1" result="shadowInnerInner1"></feComposite>
            <feColorMatrix values="0 0 0 0 0.485178187   0 0 0 0 0.191920082   0 0 0 0 0.00474442418  0 0 0 1 0" type="matrix" in="shadowInnerInner1"></feColorMatrix>
        </filter>
        <filter x="-34.3%" y="-69.8%" width="168.5%" height="239.7%" filterUnits="objectBoundingBox" id="filter-7">
            <feGaussianBlur stdDeviation="0.5" in="SourceGraphic"></feGaussianBlur>
        </filter>
        <filter x="-11.5%" y="-90.2%" width="123.0%" height="280.5%" filterUnits="objectBoundingBox" id="filter-8">
            <feGaussianBlur stdDeviation="0.5" in="SourceGraphic"></feGaussianBlur>
        </filter>
        <path d="M9.10658077,8.01675756 C9.35620649,8.30116613 8.84397107,8.38090184 8.35300153,8.5827292 C8.10532797,8.68454265 7.77108365,8.86484001 7.83920324,8.92339466 C8.04235802,9.09802365 9.04700241,9.32645557 9.10658077,9.91875628 C9.16615912,10.511057 8.39261038,10.7917328 7.73213682,10.511057 C7.07166325,10.2303812 5.87841492,9.14062704 5.6370373,8.32594219 C5.39565967,7.51125733 8.73102933,7.58887678 9.10658077,8.01675756 Z" id="path-9"></path>
        <filter x="-42.3%" y="-51.4%" width="184.6%" height="202.8%" filterUnits="objectBoundingBox" id="filter-10">
            <feGaussianBlur stdDeviation="0.5" in="SourceGraphic"></feGaussianBlur>
        </filter>
        <linearGradient x1="100%" y1="56.1948891%" x2="86.6618515%" y2="85.223606%" id="linearGradient-12">
            <stop stop-color="#9B4600" offset="0%"></stop>
            <stop stop-color="#973D05" offset="100%"></stop>
        </linearGradient>
        <path d="M1.42303793,7.64107213 C1.79858937,8.06895291 1.9224603,8.50540279 2.12561507,8.68003178 C2.32876985,8.85466077 3.44048067,8.98704445 3.50005902,9.57934516 C3.55963738,10.1716459 2.78608864,10.4523217 2.12561507,10.1716459 C1.46514151,9.89097003 0.27189318,8.80121592 0.0305155545,7.98653106 C-0.210862071,7.1718462 1.0474865,7.21319136 1.42303793,7.64107213 Z" id="path-13"></path>
        <filter x="0.0%" y="-0.0%" width="100.0%" height="100.0%" filterUnits="objectBoundingBox" id="filter-15">
            <feGaussianBlur stdDeviation="0.20122764" in="SourceGraphic"></feGaussianBlur>
        </filter>
        <filter x="0.0%" y="0.0%" width="100.0%" height="100.0%" filterUnits="objectBoundingBox" id="filter-16">
            <feGaussianBlur stdDeviation="0.20122764" in="SourceGraphic"></feGaussianBlur>
        </filter>
        <filter x="0.0%" y="0.0%" width="100.0%" height="100.0%" filterUnits="objectBoundingBox" id="filter-17">
            <feGaussianBlur stdDeviation="0.20122764" in="SourceGraphic"></feGaussianBlur>
        </filter>
        <linearGradient x1="88.4436437%" y1="64.5043216%" x2="13.8414815%" y2="52.2641291%" id="linearGradient-18">
            <stop stop-color="#9B4600" offset="0%"></stop>
            <stop stop-color="#994500" offset="100%"></stop>
        </linearGradient>
        <path d="M0,0.544804404 C0.612516919,1.50865153 1.10465975,2.13341588 1.4764285,2.41909745 C2.03408163,2.84761981 2.39441703,2.8975045 2.72118589,2.83084143 C3.04795474,2.76417836 3.23731172,2.34756249 3.11490993,2.04413674 C2.99250814,1.740711 1.85183139,0.77605978 1.85183139,0.21636434 C1.85183139,-0.156765954 1.23455426,-0.0472859328 0,0.544804404 Z" id="path-19"></path>
        <filter x="0.0%" y="0.0%" width="100.0%" height="100.0%" filterUnits="objectBoundingBox" id="filter-21">
            <feGaussianBlur stdDeviation="0.3" in="SourceGraphic"></feGaussianBlur>
        </filter>
        <filter x="0.0%" y="0.0%" width="100.0%" height="100.0%" filterUnits="objectBoundingBox" id="filter-22">
            <feGaussianBlur stdDeviation="0.20122764" in="SourceGraphic"></feGaussianBlur>
        </filter>
        <filter x="0.0%" y="0.0%" width="100.0%" height="100.0%" filterUnits="objectBoundingBox" id="filter-23">
            <feGaussianBlur stdDeviation="0.20122764" in="SourceGraphic"></feGaussianBlur>
        </filter>
        <linearGradient x1="65.8083901%" y1="67.6814742%" x2="35.131275%" y2="52.7600837%" id="linearGradient-24">
            <stop stop-color="#994B0E" offset="0%"></stop>
            <stop stop-color="#994500" offset="100%"></stop>
        </linearGradient>
        <path d="M1.00055899,0.26467529 C1.40896574,0.989741815 1.61316912,1.4736986 1.61316912,1.71654564 C1.61316912,2.08081621 1.46241683,2.51563917 1.08050297,2.51563917 C0.698589108,2.51563917 0,1.80987473 0,0.691094221 C0,-0.0547594535 0.333519663,-0.196899097 1.00055899,0.26467529 Z" id="path-25"></path>
        <filter x="-0.0%" y="0.0%" width="100.0%" height="100.0%" filterUnits="objectBoundingBox" id="filter-27">
            <feGaussianBlur stdDeviation="0.20122764" in="SourceGraphic"></feGaussianBlur>
        </filter>
        <filter x="0.0%" y="0.0%" width="100.0%" height="100.0%" filterUnits="objectBoundingBox" id="filter-28">
            <feGaussianBlur stdDeviation="0.20122764" in="SourceGraphic"></feGaussianBlur>
        </filter>
        <filter x="0.0%" y="0.0%" width="100.0%" height="100.0%" filterUnits="objectBoundingBox" id="filter-29">
            <feGaussianBlur stdDeviation="0.20122764" in="SourceGraphic"></feGaussianBlur>
        </filter>
        <linearGradient x1="67.3047147%" y1="56.2012926%" x2="22.9889373%" y2="31.7806389%" id="linearGradient-30">
            <stop stop-color="#FFEC9A" stop-opacity="0.371203016" offset="0%"></stop>
            <stop stop-color="#FFD461" offset="100%"></stop>
        </linearGradient>
        <filter x="-26.9%" y="-19.8%" width="153.8%" height="139.5%" filterUnits="objectBoundingBox" id="filter-31">
            <feGaussianBlur stdDeviation="0.5" in="SourceGraphic"></feGaussianBlur>
        </filter>
        <filter x="-18.1%" y="-74.5%" width="136.2%" height="249.0%" filterUnits="objectBoundingBox" id="filter-32">
            <feGaussianBlur stdDeviation="0.5" in="SourceGraphic"></feGaussianBlur>
        </filter>
        <filter x="-78.3%" y="-53.2%" width="256.7%" height="206.4%" filterUnits="objectBoundingBox" id="filter-33">
            <feGaussianBlur stdDeviation="0.5" in="SourceGraphic"></feGaussianBlur>
        </filter>
        <path d="M4.92938106,8.98811745 L4.10066495,9.44769074 C4.0000898,9.50346575 3.92818062,9.5996035 3.90308795,9.71183795 L3.51908058,11.4294253 L3.51908058,11.4294253 L4.92938106,8.98811745 Z" id="path-34"></path>
        <filter x="-35.5%" y="-20.5%" width="170.9%" height="141.0%" filterUnits="objectBoundingBox" id="filter-35">
            <feGaussianBlur stdDeviation="0.5" in="SourceAlpha" result="shadowBlurInner1"></feGaussianBlur>
            <feOffset dx="0" dy="0" in="shadowBlurInner1" result="shadowOffsetInner1"></feOffset>
            <feComposite in="shadowOffsetInner1" in2="SourceAlpha" operator="arithmetic" k2="-1" k3="1" result="shadowInnerInner1"></feComposite>
            <feColorMatrix values="0 0 0 0 0.485178187   0 0 0 0 0.191920082   0 0 0 0 0.00474442418  0 0 0 1 0" type="matrix" in="shadowInnerInner1"></feColorMatrix>
        </filter>
        <linearGradient x1="-4.54747351e-11%" y1="34.67747%" x2="100%" y2="34.67747%" id="linearGradient-36">
            <stop stop-color="#6758A1" offset="0%"></stop>
            <stop stop-color="#7E6DCF" offset="29.7259742%"></stop>
            <stop stop-color="#8170D5" offset="50.5170692%"></stop>
            <stop stop-color="#7765C0" offset="69.9970469%"></stop>
            <stop stop-color="#543D72" offset="100%"></stop>
        </linearGradient>
        <path d="M5.52738101,-0.851311361 L6.33300097,-0.851161158 C6.66631789,-0.850873889 6.93650915,-0.580682621 6.93679641,-0.247365694 L6.93996783,16.7663689 L6.93996783,16.7663689 L6.02899073,19.1393553 C6.00907574,19.1912315 5.9508775,19.2171411 5.89900132,19.1972261 C5.87241882,19.1870213 5.85140502,19.1660308 5.84117061,19.1394597 L4.92698205,16.7659936 L4.92698205,16.7659936 L4.92381063,-0.247741003 C4.92352345,-0.581145826 5.19375111,-0.851474252 5.52715598,-0.8515364 C5.527231,-0.851536414 5.52730603,-0.851536414 5.52738101,-0.851311361 Z" id="path-37"></path>
        <filter x="-24.8%" y="-2.5%" width="149.6%" height="104.1%" filterUnits="objectBoundingBox" id="filter-39">
            <feGaussianBlur stdDeviation="0.5" in="SourceAlpha" result="shadowBlurInner1"></feGaussianBlur>
            <feOffset dx="-0" dy="0" in="shadowBlurInner1" result="shadowOffsetInner1"></feOffset>
            <feComposite in="shadowOffsetInner1" in2="SourceAlpha" operator="arithmetic" k2="-1" k3="1" result="shadowInnerInner1"></feComposite>
            <feColorMatrix values="0 0 0 0 0.135284009   0 0 0 0 0.0832636523   0 0 0 0 0.366485596  0 0 0 1 0" type="matrix" in="shadowInnerInner1"></feColorMatrix>
        </filter>
        <linearGradient x1="14.5878397%" y1="45.7750796%" x2="41.6501485%" y2="56.7410949%" id="linearGradient-40">
            <stop stop-color="#4536CB" offset="0%"></stop>
            <stop stop-color="#3C255D" offset="100%"></stop>
        </linearGradient>
        <filter x="-12.8%" y="-7.5%" width="125.5%" height="114.9%" filterUnits="objectBoundingBox" id="filter-41">
            <feGaussianBlur stdDeviation="0.5" in="SourceGraphic"></feGaussianBlur>
        </filter>
        <linearGradient x1="85.4398518%" y1="55.9878288%" x2="94.603413%" y2="53.6798603%" id="linearGradient-42">
            <stop stop-color="#FFCB35" offset="0%"></stop>
            <stop stop-color="#FFCB35" offset="82.4547632%"></stop>
            <stop stop-color="#FFCB35" stop-opacity="0" offset="100%"></stop>
        </linearGradient>
        <linearGradient x1="80.916269%" y1="43.7109633%" x2="48.1034479%" y2="60.2660717%" id="linearGradient-43">
            <stop stop-color="#C57F12" stop-opacity="0" offset="0%"></stop>
            <stop stop-color="#D88C0E" stop-opacity="0" offset="72.565344%"></stop>
            <stop stop-color="#D98D0E" offset="100%"></stop>
        </linearGradient>
        <path d="M15.86333,7.09933552 C15.4208841,6.84559608 15.0312602,6.37079671 14.6212471,6.17988386 C13.9576298,5.87088622 13.1002712,5.89331493 12.4778196,6.17988386 C11.855368,6.4664528 10.8845839,6.77321525 10.004009,6.68404008 C9.12343408,6.59486491 7.77606546,5.64223894 7.00861259,5.2078068 C6.58306831,4.96691889 5.80898322,4.65794052 4.92520947,5.2078068 C4.12956391,5.70284149 3.92040617,6.38362207 2.09890692,6.52416658 C0.670277213,6.63439779 0,5.86311068 0,5.2078068 C0,4.55250291 0.321100063,4.50851582 0.545644481,4.32002001 C1.38368472,3.61651966 2.3945967,3.08578689 3.10843753,2.37135536 C3.99562313,1.48343562 5.44708445,0.993720857 6.13169712,0.462157385 C6.81630979,-0.069406087 9.74055889,-0.324079827 11.3428585,0.718301388 C12.2301864,1.2955555 13.7062751,2.33738246 15.3906967,4.78694505 C16.1263779,5.85680622 16.0009317,6.75283304 15.9414705,6.91490621 C15.9361113,6.92951363 15.8655031,7.10053563 15.86333,7.09933552 Z" id="path-44"></path>
        <filter x="-8.5%" y="-34.8%" width="117.0%" height="169.7%" filterUnits="objectBoundingBox" id="filter-46">
            <feGaussianBlur stdDeviation="0.5" in="SourceGraphic"></feGaussianBlur>
        </filter>
        <filter x="-8.4%" y="-37.5%" width="116.8%" height="174.9%" filterUnits="objectBoundingBox" id="filter-47">
            <feGaussianBlur stdDeviation="0.5" in="SourceGraphic"></feGaussianBlur>
        </filter>
        <linearGradient x1="82.0326433%" y1="52.6764712%" x2="0%" y2="42.1365435%" id="linearGradient-48">
            <stop stop-color="#FFEC9A" stop-opacity="0.371203016" offset="0%"></stop>
            <stop stop-color="#FFD461" offset="100%"></stop>
        </linearGradient>
        <filter x="-15.9%" y="-24.1%" width="131.7%" height="148.3%" filterUnits="objectBoundingBox" id="filter-49">
            <feGaussianBlur stdDeviation="0.503069101" in="SourceGraphic"></feGaussianBlur>
        </filter>
        <linearGradient x1="82.0326433%" y1="52.9735739%" x2="0%" y2="41.2636575%" id="linearGradient-50">
            <stop stop-color="#FFEC9A" stop-opacity="0.371203016" offset="0%"></stop>
            <stop stop-color="#FFD461" offset="100%"></stop>
        </linearGradient>
        <filter x="0.0%" y="-0.0%" width="100.0%" height="100.0%" filterUnits="objectBoundingBox" id="filter-51">
            <feGaussianBlur stdDeviation="0.402455281" in="SourceGraphic"></feGaussianBlur>
        </filter>
        <filter x="0.0%" y="-0.0%" width="100.0%" height="100.0%" filterUnits="objectBoundingBox" id="filter-52">
            <feGaussianBlur stdDeviation="0.20122764" in="SourceGraphic"></feGaussianBlur>
        </filter>
        <linearGradient x1="82.0326433%" y1="51.4074001%" x2="0%" y2="45.8650667%" id="linearGradient-53">
            <stop stop-color="#FFEC9A" stop-opacity="0.371203016" offset="0%"></stop>
            <stop stop-color="#FFD461" offset="100%"></stop>
        </linearGradient>
        <filter x="-35.7%" y="-74.9%" width="171.4%" height="249.9%" filterUnits="objectBoundingBox" id="filter-54">
            <feGaussianBlur stdDeviation="0.503069101" in="SourceGraphic"></feGaussianBlur>
        </filter>
        <filter x="-31.3%" y="-31.1%" width="162.6%" height="162.1%" filterUnits="objectBoundingBox" id="filter-55">
            <feGaussianBlur stdDeviation="0.804910562" in="SourceGraphic"></feGaussianBlur>
        </filter>
    </defs>
    <g id="5" stroke="none" stroke-width="1" fill="none" fill-rule="evenodd">
        <g>
            <rect id="蒙版" x="0" y="0" width="24" height="24"></rect>
            <g id="编组-599" filter="url(#filter-1)" transform="translate(2.490118, 2.893478)">
                <g id="路径-1369" transform="translate(0.554415, 5.200488)">
                    <mask id="mask-3" fill="white">
                        <use xlink:href="#path-2"></use>
                    </mask>
                    <g id="蒙版">
                        <use fill="#FFCB35" fill-rule="evenodd" xlink:href="#path-2"></use>
                        <use fill="black" fill-opacity="1" filter="url(#filter-4)" xlink:href="#path-2"></use>
                    </g>
                    <g mask="url(#mask-3)">
                        <use fill="#9A4100" fill-rule="evenodd" xlink:href="#path-5"></use>
                        <use fill="black" fill-opacity="1" filter="url(#filter-6)" xlink:href="#path-5"></use>
                    </g>
                    <path d="M14.9416631,10.3362418 C16.0532848,10.3362418 16.1816781,10.6690117 16.9626243,10.4595704 C17.7435705,10.2501292 15.9628887,8.60854228 14.851267,8.60854228 C13.7396454,8.60854228 12.776502,9.39095649 12.776502,10.3362418 C12.776502,11.2815271 13.8300415,10.3362418 14.9416631,10.3362418 Z" id="椭圆形" fill="#98480D" filter="url(#filter-7)" mask="url(#mask-3)"></path>
                    <path d="M14.4251369,9.96360277 C13.1702789,10.0638688 12.1844765,10.4853984 11.0816351,10.4853984 C10.3464075,10.4853984 8.50790404,10.2625762 5.56612458,9.81693183 L4.37496556,10.4853984 L12.7858615,11.4790588 C14.6769511,11.2610374 16.0909083,11.0046815 17.0277331,10.7099911 C18.4329702,10.2679554 15.6799949,9.86333672 14.4251369,9.96360277 Z" id="路径-1377" fill="#6B2802" opacity="0.620820545" filter="url(#filter-8)" mask="url(#mask-3)"></path>
                    <mask id="mask-11" fill="white">
                        <use xlink:href="#path-9"></use>
                    </mask>
                    <use id="蒙版" fill="#7A3500" filter="url(#filter-10)" xlink:href="#path-9"></use>
                </g>
                <g id="路径-1379" transform="translate(6.060299, 5.640581)">
                    <polygon id="路径-1371" fill="#B35600" points="3.38602493 0.15939218 3.08672914 0 1.10551468 3.50510766"></polygon>
                    <mask id="mask-14" fill="white">
                        <use xlink:href="#path-13"></use>
                    </mask>
                    <use id="蒙版" stroke="url(#linearGradient-12)" stroke-width="0.1" fill="#AA4900" xlink:href="#path-13"></use>
                    <path d="M1.75164953,9.00922327 C2.59893322,9.1390382 2.86771701,8.89410695 3.07876541,9.28487385 C3.28981382,9.67564074 3.50922505,9.92623702 3.07876541,9.92623702 C2.64830578,9.92623702 1.75164953,9.68670764 1.50388259,9.36095576 C1.32585995,9.12690028 0.436918418,7.6897999 0.675002016,7.57738251 C0.754224742,7.53997542 1.54010593,8.97681202 1.75164953,9.00922327 Z" fill="#D67900" filter="url(#filter-15)" mask="url(#mask-14)"></path>
                    <path d="M2.10869592,9.12230295 C2.71944982,9.21587843 2.9956527,9.18223891 3.14778432,9.46391836 C3.29991593,9.74559781 3.45807579,9.92623702 3.14778432,9.92623702 C2.83749285,9.92623702 2.19114936,9.75357525 2.01254964,9.51876106 C1.88422424,9.35004508 1.95620734,9.09893971 2.10869592,9.12230295 Z" fill="#E88801" filter="url(#filter-16)" mask="url(#mask-14)"></path>
                </g>
                <path d="M6.80329977,15.9981163 L7.26796024,14.6615163 L8.70790771,14.5412107 C7.99397992,13.6696955 7.35911061,13.2339379 6.80329977,13.2339379 C5.96958352,13.2339379 5.29372296,13.6621673 5.29372296,14.190415 C5.29372296,14.5425801 5.79691523,15.1451472 6.80329977,15.9981163 Z" id="椭圆形" fill="#6B2701" fill-rule="nonzero" opacity="0.247764951" filter="url(#filter-17)"></path>
                <g id="路径-1379-+-路径-1379-蒙版" transform="translate(4.387977, 13.233938)">
                    <mask id="mask-20" fill="white">
                        <use xlink:href="#path-19"></use>
                    </mask>
                    <use id="蒙版" stroke="url(#linearGradient-18)" stroke-width="0.1" fill="#B14E00" xlink:href="#path-19"></use>
                    <path d="M1.59879075,1.32013645 C2.4461257,1.45005327 2.71488956,1.20516611 2.92599607,1.59594365 C3.13710259,1.98672119 3.35655455,2.23733494 2.92607721,2.23728048 C2.49559987,2.23722599 1.59887645,1.99759298 1.35105812,1.67182312 C1.17299855,1.43775474 0.283838665,0.000600930097 0.521917832,-0.111781718 C0.601139084,-0.149177237 1.38723435,1.28769976 1.59879075,1.32013645 Z" id="路径-1379" fill="#D67900" filter="url(#filter-21)" mask="url(#mask-20)" transform="translate(1.827504, 1.062391) rotate(18.000000) translate(-1.827504, -1.062391) "></path>
                    <path d="M1.58452859,1.49745977 C2.19531944,1.5911087 2.47152942,1.55750551 2.62370293,1.83919264 C2.77587643,2.12087977 2.93406564,2.30153157 2.62376141,2.30149231 C2.31345718,2.30145303 1.66706527,2.12871656 1.48842851,1.89388941 C1.36007649,1.72516413 1.43203079,1.47407819 1.58452859,1.49745977 Z" id="路径-1379" fill="#E88801" filter="url(#filter-22)" mask="url(#mask-20)" transform="translate(2.112037, 1.898715) rotate(18.000000) translate(-2.112037, -1.898715) "></path>
                    <path d="M1.20766145,2.76417836 L1.67232192,1.42757839 L3.11226939,1.30727274 C2.3983416,0.43575758 1.76347229,0 1.20766145,0 C0.373945199,0 -0.301915363,0.428229347 -0.301915363,0.956477017 C-0.301915363,1.30864213 0.201276909,1.91120925 1.20766145,2.76417836 Z" id="椭圆形" fill="#6B2701" fill-rule="nonzero" opacity="0.247764951" filter="url(#filter-23)" mask="url(#mask-20)"></path>
                </g>
                <g id="路径-1379-+-路径-1379-蒙版" transform="translate(3.817394, 13.624705)">
                    <mask id="mask-26" fill="white">
                        <use xlink:href="#path-25"></use>
                    </mask>
                    <use id="蒙版" stroke="url(#linearGradient-24)" stroke-width="0.1" fill="#AA4900" xlink:href="#path-25"></use>
                    <path d="M0.410182475,0.955093245 C1.06382422,1.28408293 1.34661932,1.15616683 1.41492481,1.52910831 C1.48323029,1.90204979 1.59528448,2.16340018 1.24581416,2.04980149 C0.896343842,1.9362028 0.231547617,1.50511155 0.116289295,1.17526271 C0.0334752183,0.938263529 -0.309289732,-0.463044441 -0.0863591239,-0.491480465 C-0.0121785808,-0.5009426 0.246985976,0.872953503 0.410182475,0.955093245 Z" id="路径-1379" fill="#D67900" filter="url(#filter-27)" mask="url(#mask-26)"></path>
                    <path d="M0.670235816,1.14112229 C1.14140533,1.37827041 1.37451157,1.42385023 1.42374873,1.69268045 C1.47298589,1.96151067 1.55375876,2.14990184 1.30184743,2.06801564 C1.0499361,1.98612944 0.570726014,1.67538268 0.487643488,1.43761525 C0.427947991,1.26677734 0.552597651,1.08191288 0.670235816,1.14112229 Z" id="路径-1379" fill="#E88801" filter="url(#filter-28)" mask="url(#mask-26)"></path>
                    <polygon id="路径-1370" fill="#6B2701" fill-rule="nonzero" opacity="0.247764951" filter="url(#filter-29)" mask="url(#mask-26)" points="1.60425944 1.39271508 0.974240004 1.53938602 -0.160532936 2.07661177 -0.224116028 0.499177909"></polygon>
                </g>
                <path d="M6.79571159,6.22130586 L6.58857443,6.93381711 L5.80270935,7.27810513 L5.58335918,7.38617043 L5.42488419,7.46541595 L5.27160652,7.54308981 L5.17231868,7.59398775 L5.02774763,7.66899051 L4.84315732,7.76644889 L4.71086882,7.83760356 L4.58387757,7.9070703 L4.46220358,7.97482586 L4.34586681,8.04084697 L4.27128397,8.08388597 L4.16388701,8.14696467 L4.06188058,8.2082469 L3.99688091,8.24809221 L3.93429183,8.28712186 L3.87411928,8.32532898 L3.78840437,8.38108231 L3.73429902,8.41720292 L3.68263092,8.45247688 L3.63340599,8.48689729 L3.58663015,8.52045725 L3.54230932,8.55314989 L3.50044943,8.58496831 L3.4610564,8.61590562 L3.42413614,8.64595493 C3.41818916,8.65088877 3.41234546,8.65578532 3.40660516,8.66064444 L3.37340518,8.68934883 L3.34269279,8.71714799 L3.3144739,8.74403504 C3.30548385,8.7528446 3.29691036,8.761501 3.28875444,8.77000308 L3.26554033,8.79504522 L3.2448375,8.81915458 C3.22863315,8.83885513 3.21505088,8.85757685 3.2041061,8.8753018 L3.19149348,8.89671104 C3.18935104,8.90050838 3.18718848,8.90442021 3.18500582,8.90844643 L3.17166915,8.93397549 L3.15785242,8.96224464 L3.14355774,8.9932487 L3.12878722,9.0269825 L3.11354297,9.06344087 L3.08979296,9.12322569 L3.05648792,9.2124265 L3.03028959,9.28642027 L3.00305384,9.36647451 L2.96513806,9.48261072 L2.93550936,9.57673817 L2.89442881,9.71157532 L2.85156303,9.85704182 L2.81825229,9.97309233 L2.78395397,10.0950811 L2.72461481,10.3115446 L2.6625851,10.544374 L2.61104628,10.7423667 L2.55782349,10.9507405 L2.46068228,11.3402499 L2.37342337,11.6991502 L2.26704044,12.1468787 L2.18807974,12.4856968 L2.00633145,13.366619 L1.92300239,13.7337324 L1.90604983,13.8090304 L1.21875342,13.654366 L1.45732116,12.5193222 L1.57374412,12.0165195 L1.65369421,11.6778959 L1.7157541,11.4192477 L1.77614321,11.1714441 L1.82034875,10.9926833 L1.86363109,10.819982 L1.9337361,10.5455643 L1.9880101,10.3380597 L2.02767084,10.1894214 L2.07917234,10.0005239 L2.12911275,9.82220212 L2.17750895,9.65441474 L2.22437782,9.49712035 L2.25853731,9.3860107 L2.30277394,9.2469795 L2.33497864,9.14951973 L2.36635744,9.05788082 L2.38682131,9.0000134 L2.41683943,8.91803713 L2.44605062,8.84183518 L2.47446202,8.77139008 L2.50208073,8.7066844 L2.52005635,8.66672721 L2.53768494,8.62930795 L2.5549686,8.59442143 L2.57190946,8.56206249 L2.58850962,8.53222595 L2.60477119,8.50490665 C2.61818175,8.48318838 2.63312216,8.46114175 2.64960004,8.43875789 L2.67547093,8.40492806 L2.70365374,8.37058572 C2.71343396,8.35905212 2.72360046,8.347432 2.73415419,8.33572423 L2.76697801,8.30033694 C2.77264258,8.29439486 2.7784042,8.28843061 2.78426297,8.28244403 L2.82058256,8.24625554 C2.83307838,8.23410267 2.84596381,8.2218594 2.85923981,8.20952461 L2.90024043,8.17224459 C2.90726947,8.16598513 2.91439638,8.1597025 2.9216213,8.15339659 L2.96614771,8.11528045 L3.01303179,8.07659859 L3.06227926,8.03734435 L3.11389584,7.99751107 L3.16788724,7.95709211 L3.22425919,7.91608082 L3.28301739,7.87447053 L3.34416758,7.8322546 L3.40771546,7.78942638 L3.47366676,7.74597921 L3.54202719,7.70190643 L3.61280248,7.6572014 L3.72350575,7.58894383 L3.80034318,7.54262906 L3.87961547,7.49565876 L3.96132834,7.44802626 L4.04548751,7.39972491 L4.13209869,7.35074807 L4.22116762,7.30108908 L4.31269999,7.25074129 L4.45463004,7.17391354 L4.60213502,7.09549856 L4.70357838,7.04232903 L4.91394696,6.93381711 L5.07829253,6.85050573 L5.24829022,6.76551731 L5.48377936,6.64955188 L6.79571159,6.22130586 Z" id="路径-1380" fill="url(#linearGradient-30)" filter="url(#filter-31)"></path>
                <path d="M6.43815658,13.5372023 C7.35135594,13.0172442 8.16081358,12.9785057 8.85177012,13.4299122 L9.34917568,13.7570033 L9.53992927,13.8806273 L9.611697,13.9264875 L9.73987481,14.0072973 C9.76092858,14.0204435 9.78183132,14.03343 9.80258838,14.0462587 L9.92542545,14.1213515 C10.3293407,14.3654479 10.6792662,14.5479213 11.0180183,14.6839602 C11.5046983,14.8794054 11.9359575,14.9617549 12.3161001,14.9174155 C13.0459786,14.8322833 13.7642844,14.6194294 14.4713701,14.2785541 L14.549889,14.2401522 L14.7362986,14.2785541 C13.9834927,14.6520059 13.1197366,15.0264077 12.3394088,15.1174243 C11.9213932,15.1661812 11.4582967,15.0777523 10.943038,14.8708303 C10.5408374,14.7093111 10.1272491,14.4865192 9.63416517,14.1786589 L9.50368651,14.0964021 L9.35727302,14.0024441 L9.15354926,13.8695352 L8.74171837,13.5985107 C8.13015783,13.1989742 7.4145721,13.2259523 6.58093964,13.6879243 L6.53771537,13.7122074 L6.43815658,13.5372023 Z" id="路径-1378" fill="#6B2701" fill-rule="nonzero" filter="url(#filter-32)"></path>
                <path d="M5.10544999,8.69010422 L3.92554577,9.29916147 C3.80512216,9.36132319 3.72406994,9.47991855 3.70989813,9.61469646 L3.51908058,11.4294253 L3.51908058,11.4294253 C3.6178648,11.5097183 3.68903931,11.5299316 3.73260409,11.4900653 C4.51974312,10.7697513 5.02390319,9.95593829 5.26883751,9.53489059 C5.53410593,9.07888811 5.47964343,8.79729265 5.10544999,8.69010422 Z" id="路径-1373" fill="#97430C" opacity="0.709644136" filter="url(#filter-33)"></path>
                <g id="路径-1373">
                    <use fill="#7D3201" fill-rule="evenodd" xlink:href="#path-34"></use>
                    <use fill="black" fill-opacity="1" filter="url(#filter-35)" xlink:href="#path-34"></use>
                </g>
                <g id="路径-1374">
                    <mask id="mask-38" fill="white">
                        <use xlink:href="#path-37" transform="translate(5.931833, 9.266101) rotate(-330.000000) translate(-5.931833, -9.266101) "></use>
                    </mask>
                    <g id="蒙版" transform="translate(5.931833, 9.266101) rotate(-330.000000) translate(-5.931833, -9.266101) ">
                        <use fill="url(#linearGradient-36)" fill-rule="evenodd" xlink:href="#path-37"></use>
                        <use fill="black" fill-opacity="1" filter="url(#filter-39)" xlink:href="#path-37"></use>
                    </g>
                    <polygon fill="url(#linearGradient-40)" mask="url(#mask-38)" points="0.30809493 16.140344 3.30272782 18.0632333 0.30809493 18.3095066"></polygon>
                    <path d="M3.81739417,13.6247048 C4.38797687,12.7133561 5.40440655,11.021489 8.69642329,6.01462961 C9.31985527,5.06644604 10.8646867,3.15495296 13.3309175,0.28015039 C13.2088113,1.68821018 12.9822935,2.73554413 12.6513641,3.42215224 C9.98717961,8.94976961 6.01329298,12.704861 4.62397873,15.0174199 C2.97580581,17.7608576 1.96067439,19.5418536 1.57858448,20.360408 C2.69073581,16.477505 3.4370057,14.2322707 3.81739417,13.6247048 Z" id="路径-1372" fill="#30226F" filter="url(#filter-41)" mask="url(#mask-38)"></path>
                </g>
                <g id="路径-1375" transform="translate(1.820944, 8.227947)">
                    <mask id="mask-45" fill="white">
                        <use xlink:href="#path-44"></use>
                    </mask>
                    <use id="蒙版" stroke="url(#linearGradient-43)" stroke-width="0.1" fill="url(#linearGradient-42)" xlink:href="#path-44"></use>
                    <path d="M-0.502185257,4.48540928 C0.0291704915,5.34102455 0.828836241,5.88790702 1.89681199,6.1260567 C3.49877562,6.48328122 4.26625873,4.48540928 5.82006575,4.48540928 C7.37387276,4.48540928 8.85918427,6.1260567 10.4231711,6.1260567 C11.9871579,6.1260567 13.3721865,5.08830131 14.5774924,5.754631 C15.3810296,6.1988508 16.1119049,7.03465334 16.770118,8.26203863 L10.1403292,8.78661801 C5.47622121,8.84111095 2.36104068,8.4818818 0.79478764,7.70893057 C-0.771465403,6.93597934 -1.2037897,5.86147225 -0.502185257,4.48540928 Z" fill="#E29519" filter="url(#filter-46)" mask="url(#mask-45)"></path>
                    <path d="M-0.502185257,4.78745465 C-0.167395086,5.81431758 0.632270664,6.36120005 1.89681199,6.42810208 C3.79362399,6.52845511 4.25119283,4.82152501 5.82006575,4.78745465 C7.38893867,4.7533843 8.50506209,6.43903692 10.3315811,6.4335695 C12.1581001,6.42810208 12.9691727,5.29745163 14.467471,5.7763786 C15.4663366,6.09566325 16.3162227,6.73984724 17.0171294,7.70893057 L10.1403292,8.78661801 C5.47622121,8.84111095 2.36104068,8.4818818 0.79478764,7.70893057 C-0.771465403,6.93597934 -1.2037897,5.96215404 -0.502185257,4.78745465 Z" fill="#BC6600" filter="url(#filter-47)" mask="url(#mask-45)"></path>
                </g>
                <path d="M11.3691076,8.15596202 C11.8329535,8.76934811 12.7748535,11.9258321 11.9026964,12.5800377 C11.3428534,12.9999739 10.4189436,12.1573879 9.57023339,11.2601942 C8.897353,11.5853633 7.90485409,11.8082619 7.52947844,11.9398605 C6.93931951,12.1467577 6.47693664,12.2504064 5.93199738,12.7133561 C5.56870454,13.0219893 4.78913146,13.3786097 3.59327814,13.7832173 C3.26205736,13.7832173 2.99889805,13.654361 2.80380019,13.3966484 C2.51115341,13.0100794 3.30272782,12.2741451 3.81739417,11.9398605 C4.33206052,11.6055759 5.43056329,10.7638636 7.27814707,9.89820923 C7.54099763,9.77505501 7.78890827,9.68694241 8.02080984,9.62841228 C7.41158192,8.90526017 7.80701757,8.47896448 8.5814288,7.89804421 C9.45360607,7.2438653 10.9052599,7.54257726 11.3691076,8.15596202 Z" id="形状结合" fill="url(#linearGradient-48)" filter="url(#filter-49)"></path>
                <ellipse id="椭圆形" fill="url(#linearGradient-50)" filter="url(#filter-51)" transform="translate(6.674863, 10.461598) rotate(-29.000000) translate(-6.674863, -10.461598) " cx="6.67486286" cy="10.4615982" rx="1" ry="1"></ellipse>
                <ellipse id="椭圆形" fill="url(#linearGradient-50)" filter="url(#filter-52)" transform="translate(3.454432, 13.079325) rotate(-29.000000) translate(-3.454432, -13.079325) " cx="3.45443232" cy="13.0793247" rx="1" ry="1"></ellipse>
                <ellipse id="椭圆形" fill="url(#linearGradient-53)" filter="url(#filter-54)" cx="12.079975" cy="12.7865875" rx="2.11340754" ry="1.00681791"></ellipse>
                <path d="M16.505984,11.7347621 C16.505984,12.6065049 16.0036568,13.3752519 14.9990024,14.0410031 C13.3057656,14.852738 12.7627022,14.852738 13.3698123,14.0410031 C14.2804775,12.8234007 14.7599348,12.460865 14.4739878,11.0624126 C14.1880407,9.66396032 10.5178004,8.39101682 9.48540972,7.80142378 C8.45301908,7.21183074 8.38163058,6.46395032 10.6725516,7.15531118 C12.9634726,7.84667203 16.505984,10.427148 16.505984,11.7347621 Z" id="路径-1368" fill="#E29519" opacity="0.439521426" filter="url(#filter-55)"></path>
            </g>
        </g>
    </g>
</svg>