<?xml version="1.0" encoding="UTF-8"?>
<svg width="18px" height="18px" viewBox="0 0 18 18" version="1.1" xmlns="http://www.w3.org/2000/svg" xmlns:xlink="http://www.w3.org/1999/xlink">
    <g id="5" stroke="none" stroke-width="1" fill-rule="evenodd" fill-opacity="0.7">
        <path d="M15.6796875,1.5 C16.1667188,1.5 16.5,1.90862069 16.5,2.36206897 L16.5,3.22413793 C16.5,3.67758621 16.1667188,4.0862069 15.6796875,4.0862069 L15,4.086 L15,10.2931034 C15,11.4357616 14.1045695,12.362069 13,12.362069 L11.223,12.362 L13.2674534,14.4769103 C13.4627155,14.6789056 13.4627155,15.0064047 13.2674534,15.2084001 C13.0721912,15.4103954 12.7556088,15.4103954 12.5603466,15.2084001 L9.9995,12.5591379 L10,15.9827586 C10,16.2684231 9.77614237,16.5 9.5,16.5 C9.24358208,16.5 9.03224642,16.300324 9.00336387,16.0430799 L9,15.9827586 L8.9995,12.5596552 L6.43965339,15.2084001 C6.25941141,15.3948573 5.97579588,15.4092001 5.77965028,15.2514286 L5.73254661,15.2084001 C5.55230463,15.0219428 5.53843986,14.7285475 5.69095231,14.5256382 L5.73254661,14.4769103 L7.776,12.362 L5,12.362069 C3.8954305,12.362069 3,11.4357616 3,10.2931034 L3,4.086 L2.3203125,4.0862069 C1.83328125,4.0862069 1.5,3.67758621 1.5,3.22413793 L1.5,2.36206897 C1.5,1.90862069 1.83328125,1.5 2.3203125,1.5 L15.6796875,1.5 Z M14,4.086 L4,4.086 L4,10.2931034 C4,10.8644325 4.44771525,11.3275862 5,11.3275862 L13,11.3275862 C13.5522847,11.3275862 14,10.8644325 14,10.2931034 L14,4.086 Z M9,6.15517241 L9,8.22413793 L11,8.22413793 C11,9.36679603 10.1045695,10.2931034 9,10.2931034 C7.8954305,10.2931034 7,9.36679603 7,8.22413793 C7,7.08147983 7.8954305,6.15517241 9,6.15517241 Z M10,5.12068966 C11.1045695,5.12068966 12,6.04699707 12,7.18965517 L10,7.18965517 L10,5.12068966 Z" id="形状"></path>
    </g>
</svg>