<?xml version="1.0" encoding="UTF-8"?>
<svg width="18px" height="18px" viewBox="0 0 18 18" version="1.1" xmlns="http://www.w3.org/2000/svg" xmlns:xlink="http://www.w3.org/1999/xlink">
    <g id="6" stroke="none" stroke-width="1" fill-rule="evenodd" fill-opacity="0.7">
        <path d="M10.9234032,4.67259901 C10.9234032,4.60094016 10.9541401,4.53688149 11.0024409,4.49019467 C11.0496439,4.44350784 11.1166063,4.4152786 11.1912529,4.4152786 L12.5513585,4.4152786 C12.6984562,4.4152786 12.8159149,4.53036705 12.8159149,4.67368475 C12.8159149,4.81591671 12.6984562,4.93100517 12.5513585,4.93100517 L11.1912529,4.93100517 C11.0430574,4.92991943 10.9234032,4.81483097 10.9234032,4.67259901 Z M7.81019963,3.05589896 C7.3414627,3.05589896 6.96054533,3.39682137 6.96054533,3.81591707 L6.96054533,4.11670005 L6.10869554,4.11670005 L6.10869554,3.64219864 C6.10869554,3.01138361 6.63671068,2.5 7.28767322,2.5 L11.0518394,2.5 C11.7017042,2.5 12.230817,3.01138361 12.230817,3.64219864 L12.230817,4.11670005 L11.3789672,4.11670005 L11.3789672,3.81591707 C11.3789672,3.39682137 10.9980499,3.05589896 10.5293129,3.05589896 L7.81019963,3.05589896 Z M7.09995889,4.92991943 L5.73875562,4.92991943 C5.59385334,4.92991943 5.47310143,4.81483097 5.47310143,4.67259901 C5.47310143,4.60094016 5.50383828,4.53688149 5.55213904,4.49019467 C5.59934206,4.44350784 5.66630448,4.4152786 5.73875562,4.4152786 L7.09995889,4.4152786 C7.24705667,4.4152786 7.36561308,4.53036705 7.36561308,4.67368475 C7.36561308,4.81483097 7.24705667,4.92991943 7.09995889,4.92991943 Z M16,8.32753344 L2,8.32753344 L2,6.24279578 C2,5.61198075 2.52801514,5.10168287 3.17897767,5.10168287 L5.38137878,5.10168287 C5.58116829,5.31014498 5.86109315,5.4404338 6.17614585,5.4404338 L12.2422824,5.4404338 C12.5573351,5.4404338 12.8383577,5.30905924 13.034854,5.10059713 L14.8210223,5.10059713 C15.4730826,5.10168287 16,5.61198075 16,6.24279578 L16,8.32753344 Z M3.17897767,15.5 C2.52801514,15.5 2,14.9886164 2,14.3578014 L2,9.16047297 L16,9.16047297 L16,14.3578014 C16,14.9886164 15.4730826,15.5 14.8221201,15.5 L3.17897767,15.5 Z M4.6969108,10.0985608 L4.6969108,9.49488094 L4.20459659,9.49488094 L4.20459659,10.3311105 C4.20459659,10.7667851 4.49345931,11.1198809 4.84758006,11.1198809 L5.91282133,11.1198809 C6.26886143,11.1198809 6.55676448,10.7667851 6.55676448,10.3311105 L6.55676448,9.49488094 L6.06445027,9.49488094 L6.06445027,10.0976117 C6.06445027,10.3510433 5.89842618,10.5560667 5.69113599,10.5560667 L5.07118476,10.5560667 C4.86389457,10.5570159 4.6969108,10.3510433 4.6969108,10.0985608 Z M12.0230834,10.0985608 L12.0230834,9.49488094 L11.5307692,9.49488094 L11.5307692,10.3311105 C11.5307692,10.7667851 11.819632,11.1198809 12.1737527,11.1198809 L13.238994,11.1198809 C13.5950341,11.1198809 13.8829371,10.7667851 13.8829371,10.3311105 L13.8829371,9.49488094 L13.3906229,9.49488094 L13.3906229,10.0976117 C13.3906229,10.3510433 13.2245988,10.5560667 13.0173086,10.5560667 L12.3973574,10.5560667 C12.1900672,10.5570159 12.0230834,10.3510433 12.0230834,10.0985608 Z" id="形状"></path>
    </g>
</svg>