<?xml version="1.0" encoding="UTF-8"?>
<svg width="18px" height="18px" viewBox="0 0 18 18" version="1.1" xmlns="http://www.w3.org/2000/svg" xmlns:xlink="http://www.w3.org/1999/xlink">
    <g id="7" stroke="none" stroke-width="1" fill-rule="evenodd" fill-opacity="0.7">
        <path d="M2,8.47674118 C2,5.15890157 5.14834473,2.5 9,2.5 C12.8521383,2.5 16,5.1586977 16,8.47674118 C16,11.7940677 12.8521479,14.4520398 9,14.4520398 C8.1701124,14.4520398 7.35870225,14.3277601 6.59327021,14.0884734 L4.17500944,15.5039851 C3.82250911,15.7103187 3.40023795,15.3731888 3.52921313,14.9883988 L4.24259849,12.860055 C2.82894195,11.7425495 2,10.1696955 2,8.47674118 Z M6.11702606,8.12593216 C6.11702606,7.52078575 5.62095434,7.02965243 5.00972311,7.02965243 C4.39849189,7.02965243 3.90242017,7.52078575 3.90242017,8.12593216 C3.90242017,8.73107857 4.39849189,9.22221189 5.00972311,9.22221189 C5.62095434,9.22221189 6.11702606,8.73107857 6.11702606,8.12593216 Z M10.1076573,8.12593216 C10.1076573,7.52078575 9.61158557,7.02965243 9.00035434,7.02965243 C8.38912312,7.02965243 7.8930514,7.52078575 7.8930514,8.12593216 C7.8930514,8.73107857 8.38912312,9.22221189 9.00035434,9.22221189 C9.61158557,9.22221189 10.1076573,8.73107857 10.1076573,8.12593216 Z M14.107767,8.12593216 C14.107767,7.52078575 13.6116953,7.02965243 13.0004641,7.02965243 C12.3892329,7.02965243 11.8931611,7.52078575 11.8931611,8.12593216 C11.8931611,8.73107857 12.3892329,9.22221189 13.0004641,9.22221189 C13.6116953,9.22221189 14.107767,8.73107857 14.107767,8.12593216 Z" id="Shape"></path>
    </g>
</svg>