<?xml version="1.0" encoding="UTF-8"?>
<svg width="18px" height="18px" viewBox="0 0 18 18" version="1.1" xmlns="http://www.w3.org/2000/svg" xmlns:xlink="http://www.w3.org/1999/xlink">
    <g id="8" stroke="none" stroke-width="1" fill-rule="evenodd" fill-opacity="0.7">
        <path d="M13.637417,3.5 C14.6660932,3.5 15.5,4.32678783 15.5,5.36600006 L15.5,12.6339999 C15.5,13.6645633 14.6670156,14.5 13.637417,14.5 L4.36258304,14.5 C3.33390683,14.5 2.5,13.6732122 2.5,12.6339999 L2.5,5.36600006 C2.5,4.33543668 3.3329844,3.5 4.36258304,3.5 L13.637417,3.5 Z M10.0065481,7.37076241 L8.74022755,9.95727355 C8.62727808,10.1879774 8.42178811,10.1931675 8.28880774,9.98092373 L7.47115672,8.67590939 C7.26828746,8.47564102 6.93180982,8.50313174 6.76505232,8.73359916 L4.44362375,11.9419325 C4.22412655,12.2452889 4.44379131,12.6666644 4.82142857,12.6666644 L13.1785714,12.6666644 C13.5394581,12.6666644 13.7623678,12.2780132 13.5766931,11.9725228 L10.7909789,7.38918945 C10.6156188,7.10066972 10.1956113,7.09080334 10.0065481,7.37076241 Z M5.75,5.33333333 C4.98074624,5.33333333 4.35714286,5.9489418 4.35714286,6.70833333 C4.35714286,7.46772486 4.98074624,8.08333333 5.75,8.08333333 C6.51925376,8.08333333 7.14285714,7.46772486 7.14285714,6.70833333 C7.14285714,5.9489418 6.51925376,5.33333333 5.75,5.33333333 Z" id="形状" fill-rule="nonzero"></path>
    </g>
</svg>