<?xml version="1.0" encoding="UTF-8"?>
<svg width="18px" height="18px" viewBox="0 0 18 18" version="1.1" xmlns="http://www.w3.org/2000/svg" xmlns:xlink="http://www.w3.org/1999/xlink">
    <g id="9" stroke="none" stroke-width="1" fill-rule="evenodd" fill-opacity="0.7">
        <path d="M9,13.5 C9.27614237,13.5 9.5,13.7238576 9.5,14 L9.5,16 C9.5,16.2761424 9.27614237,16.5 9,16.5 C8.72385763,16.5 8.5,16.2761424 8.5,16 L8.5,14 C8.5,13.7238576 8.72385763,13.5 9,13.5 Z M12.8890873,12.1819805 L14.3033009,13.5961941 C14.498563,13.7914562 14.498563,14.1080387 14.3033009,14.3033009 C14.1080387,14.498563 13.7914562,14.498563 13.5961941,14.3033009 L12.1819805,12.8890873 C11.9867184,12.6938252 11.9867184,12.3772427 12.1819805,12.1819805 C12.3772427,11.9867184 12.6938252,11.9867184 12.8890873,12.1819805 Z M5.81801948,12.1819805 C6.01328163,12.3772427 6.01328163,12.6938252 5.81801948,12.8890873 L4.40380592,14.3033009 C4.20854378,14.498563 3.89196129,14.498563 3.69669914,14.3033009 C3.501437,14.1080387 3.501437,13.7914562 3.69669914,13.5961941 L5.1109127,12.1819805 C5.30617485,11.9867184 5.62275734,11.9867184 5.81801948,12.1819805 Z M9,5.5 C10.9329966,5.5 12.5,7.06700338 12.5,9 C12.5,10.9329966 10.9329966,12.5 9,12.5 C7.06700338,12.5 5.5,10.9329966 5.5,9 C5.5,7.06700338 7.06700338,5.5 9,5.5 Z M16,8.5 C16.2761424,8.5 16.5,8.72385763 16.5,9 C16.5,9.27614237 16.2761424,9.5 16,9.5 L14,9.5 C13.7238576,9.5 13.5,9.27614237 13.5,9 C13.5,8.72385763 13.7238576,8.5 14,8.5 L16,8.5 Z M4,8.5 C4.27614237,8.5 4.5,8.72385763 4.5,9 C4.5,9.27614237 4.27614237,9.5 4,9.5 L2,9.5 C1.72385763,9.5 1.5,9.27614237 1.5,9 C1.5,8.72385763 1.72385763,8.5 2,8.5 L4,8.5 Z M14.3033009,3.69669914 C14.498563,3.89196129 14.498563,4.20854378 14.3033009,4.40380592 L12.8890873,5.81801948 C12.6938252,6.01328163 12.3772427,6.01328163 12.1819805,5.81801948 C11.9867184,5.62275734 11.9867184,5.30617485 12.1819805,5.1109127 L13.5961941,3.69669914 C13.7914562,3.501437 14.1080387,3.501437 14.3033009,3.69669914 Z M4.40380592,3.69669914 L5.81801948,5.1109127 C6.01328163,5.30617485 6.01328163,5.62275734 5.81801948,5.81801948 C5.62275734,6.01328163 5.30617485,6.01328163 5.1109127,5.81801948 L3.69669914,4.40380592 C3.501437,4.20854378 3.501437,3.89196129 3.69669914,3.69669914 C3.89196129,3.501437 4.20854378,3.501437 4.40380592,3.69669914 Z M9,1.5 C9.27614237,1.5 9.5,1.72385763 9.5,2 L9.5,4 C9.5,4.27614237 9.27614237,4.5 9,4.5 C8.72385763,4.5 8.5,4.27614237 8.5,4 L8.5,2 C8.5,1.72385763 8.72385763,1.5 9,1.5 Z" id="形状" fill-rule="nonzero"></path>
    </g>
</svg>