<?xml version="1.0" encoding="UTF-8"?>
<svg width="24px" height="24px" viewBox="0 0 24 24" version="1.1" xmlns="http://www.w3.org/2000/svg" xmlns:xlink="http://www.w3.org/1999/xlink">
    <title>9</title>
    <defs>
        <rect id="path-1" x="0" y="0" width="24" height="24"></rect>
        <filter x="-11.3%" y="-6.1%" width="122.5%" height="124.3%" filterUnits="objectBoundingBox" id="filter-3">
            <feOffset dx="0" dy="1" in="SourceAlpha" result="shadowOffsetOuter1"></feOffset>
            <feGaussianBlur stdDeviation="0.5" in="shadowOffsetOuter1" result="shadowBlurOuter1"></feGaussianBlur>
            <feColorMatrix values="0 0 0 0 0   0 0 0 0 0   0 0 0 0 0  0 0 0 0.196570763 0" type="matrix" in="shadowBlurOuter1" result="shadowMatrixOuter1"></feColorMatrix>
            <feMerge>
                <feMergeNode in="shadowMatrixOuter1"></feMergeNode>
                <feMergeNode in="SourceGraphic"></feMergeNode>
            </feMerge>
        </filter>
        <path d="M3.42711037,3.29201021 C1.17001795,3.28876248 0,3.26494804 0,3.21385619 L0,2.90271609 C0,2.74514332 0.192804757,2.66069475 0.32323954,2.66069475 C0.453674322,2.66069475 1.64181583,2.20872021 1.64181583,1.68698107 L1.64181583,0 L6.337468,4.54747351e-13 L6.337468,1.68698107 C6.337468,2.20872021 7.52560951,2.66069475 7.65604429,2.66069475 C7.78647908,2.66069475 7.97928383,2.74514332 7.97928383,2.90271609 L7.97928383,3.21385619 C7.97928383,3.26494804 6.80926589,3.28876248 4.55217346,3.29201021 Z" id="path-4"></path>
        <filter x="-6.3%" y="-15.2%" width="112.5%" height="130.4%" filterUnits="objectBoundingBox" id="filter-6">
            <feGaussianBlur stdDeviation="0.25" in="SourceAlpha" result="shadowBlurInner1"></feGaussianBlur>
            <feOffset dx="0" dy="-0.5" in="shadowBlurInner1" result="shadowOffsetInner1"></feOffset>
            <feComposite in="shadowOffsetInner1" in2="SourceAlpha" operator="arithmetic" k2="-1" k3="1" result="shadowInnerInner1"></feComposite>
            <feColorMatrix values="0 0 0 0 0   0 0 0 0 0   0 0 0 0 0  0 0 0 0.5 0" type="matrix" in="shadowInnerInner1"></feColorMatrix>
        </filter>
        <linearGradient x1="50%" y1="-2.48949813e-15%" x2="50%" y2="60.9689851%" id="linearGradient-7">
            <stop stop-color="#C0C0C0" stop-opacity="0" offset="0%"></stop>
            <stop stop-color="#A9A9A9" offset="81.5452%"></stop>
            <stop stop-color="#777777" offset="90.3017926%"></stop>
            <stop stop-color="#535353" offset="100%"></stop>
        </linearGradient>
        <linearGradient x1="50%" y1="100%" x2="50%" y2="3.061617e-15%" id="linearGradient-8">
            <stop stop-color="#878787" stop-opacity="0" offset="0%"></stop>
            <stop stop-color="#4F4F4F" stop-opacity="0.670010653" offset="100%"></stop>
        </linearGradient>
        <linearGradient x1="50%" y1="100%" x2="50%" y2="3.061617e-15%" id="linearGradient-9">
            <stop stop-color="#3A3A3A" stop-opacity="0" offset="0%"></stop>
            <stop stop-color="#1E1E1E" stop-opacity="0.670010653" offset="100%"></stop>
        </linearGradient>
        <linearGradient x1="50%" y1="0%" x2="50%" y2="100%" id="linearGradient-10">
            <stop stop-color="#F1F1F1" offset="0%"></stop>
            <stop stop-color="#E2E2E2" offset="84.1524126%"></stop>
            <stop stop-color="#D5D5D5" offset="100%"></stop>
        </linearGradient>
        <rect id="path-11" x="0" y="0" width="17.7391304" height="13.3043478" rx="1.04347826"></rect>
        <filter x="-0.3%" y="-0.4%" width="100.6%" height="100.8%" filterUnits="objectBoundingBox" id="filter-12">
            <feOffset dx="0" dy="-0.1" in="SourceAlpha" result="shadowOffsetInner1"></feOffset>
            <feComposite in="shadowOffsetInner1" in2="SourceAlpha" operator="arithmetic" k2="-1" k3="1" result="shadowInnerInner1"></feComposite>
            <feColorMatrix values="0 0 0 0 0   0 0 0 0 0   0 0 0 0 0  0 0 0 0.276035976 0" type="matrix" in="shadowInnerInner1"></feColorMatrix>
        </filter>
        <linearGradient x1="50%" y1="0%" x2="50%" y2="100%" id="linearGradient-13">
            <stop stop-color="#FFFFFF" stop-opacity="0.281764531" offset="0%"></stop>
            <stop stop-color="#FFFFFF" stop-opacity="0.0315095061" offset="100%"></stop>
        </linearGradient>
        <filter x="-32.6%" y="0.0%" width="165.2%" height="100.0%" filterUnits="objectBoundingBox" id="filter-14">
            <feGaussianBlur stdDeviation="0.52173913 0" in="SourceGraphic"></feGaussianBlur>
        </filter>
        <filter x="-32.6%" y="0.0%" width="165.2%" height="100.0%" filterUnits="objectBoundingBox" id="filter-15">
            <feGaussianBlur stdDeviation="0.52173913 0" in="SourceGraphic"></feGaussianBlur>
        </filter>
    </defs>
    <g id="9" stroke="none" stroke-width="1" fill="none" fill-rule="evenodd">
        <g>
            <mask id="mask-2" fill="white">
                <use xlink:href="#path-1"></use>
            </mask>
            <g id="蒙版"></g>
            <g id="U+1F5A5" filter="url(#filter-3)" mask="url(#mask-2)">
                <g transform="translate(3.130435, 3.843478)">
                    <g id="矩形" stroke-width="1" fill="none" fill-rule="evenodd" transform="translate(4.879923, 13.173913)">
                        <mask id="mask-5" fill="white">
                            <use xlink:href="#path-4"></use>
                        </mask>
                        <g id="蒙版">
                            <use fill="#EFEFEF" fill-rule="evenodd" xlink:href="#path-4"></use>
                            <use fill="black" fill-opacity="1" filter="url(#filter-6)" xlink:href="#path-4"></use>
                        </g>
                        <rect fill="url(#linearGradient-7)" mask="url(#mask-5)" x="-1.56521739" y="1.95652174" width="10.6956522" height="2.08695652"></rect>
                        <rect fill="url(#linearGradient-8)" mask="url(#mask-5)" x="0.598337568" y="-0.260869565" width="6.39130435" height="1.56521739"></rect>
                        <rect fill="url(#linearGradient-9)" opacity="0.800159273" mask="url(#mask-5)" x="0.598337568" y="-0.130434783" width="6.39130435" height="1"></rect>
                    </g>
                    <g id="矩形" fill="none">
                        <use fill="url(#linearGradient-10)" fill-rule="evenodd" xlink:href="#path-11"></use>
                        <use fill="black" fill-opacity="1" filter="url(#filter-12)" xlink:href="#path-11"></use>
                    </g>
                    <path d="M1.04347826,0 L16.6956522,0 C17.2719493,1.71951003e-15 17.7391304,0.467181131 17.7391304,1.04347826 L17.7391304,11.2173913 L17.7391304,11.2173913 L0,11.2173913 L0,1.04347826 C-2.92620649e-16,0.467181131 0.467181131,-5.60269749e-16 1.04347826,0 Z" id="矩形" fill="#080808" fill-rule="evenodd"></path>
                    <polygon id="矩形" fill="#252525" fill-rule="evenodd" points="1.04347826 1.04347826 16.6956522 1.04347826 16.6956522 10.173913 1.04347826 10.173913"></polygon>
                    <path d="M10.5652174,0 L16.6956522,0 C17.2719493,-1.05864065e-16 17.7391304,0.467181131 17.7391304,1.04347826 L17.7391304,11.2173913 L17.7391304,11.2173913 L14.4988494,11.2173913 L10.5652174,0 Z" id="矩形" fill="url(#linearGradient-13)" fill-rule="evenodd"></path>
                    <path d="M6.45557289,16.1634988 C7.56661901,16.0706153 8.36724535,16.0241735 8.85745191,16.0241735 C9.34765846,16.0241735 10.1482848,16.0706153 11.2593309,16.1634988 C10.4704917,16.2159247 9.67390317,16.2421376 8.86956522,16.2421376 C8.06522727,16.2421376 7.26056316,16.2159247 6.45557289,16.1634988 Z" id="路径-313" fill="#FFFFFF" fill-rule="evenodd" filter="url(#filter-14)"></path>
                    <path d="M6.45557289,16.1634988 C7.56661901,16.0706153 8.36724535,16.0241735 8.85745191,16.0241735 C9.34765846,16.0241735 10.1482848,16.0706153 11.2593309,16.1634988 C10.4704917,16.2159247 9.67390317,16.2421376 8.86956522,16.2421376 C8.06522727,16.2421376 7.26056316,16.2159247 6.45557289,16.1634988 Z" id="路径-313" fill="#FFFFFF" fill-rule="evenodd" filter="url(#filter-15)"></path>
                </g>
            </g>
        </g>
    </g>
</svg>