<?xml version="1.0" encoding="UTF-8"?>
<svg width="12.3001813px" fill="currentColor" height="14.3001646px" viewBox="0 0 12.3001813 14.3001646" version="1.1" xmlns="http://www.w3.org/2000/svg" xmlns:xlink="http://www.w3.org/1999/xlink">
    <g id="桌面版" stroke="none" stroke-width="1" fill="none" fill-rule="evenodd">
        <g id="聊天框各状态" transform="translate(-784.849804, -3522.850012)" fill="currentColor" fill-rule="nonzero">
            <g id="编组-4" transform="translate(750.000000, 2916.000000)">
                <g id="编组-11" transform="translate(20.000000, 426.000000)">
                    <g id="编组-31" transform="translate(0.000000, 172.000000)">
                        <g id="编组-46" transform="translate(14.849867, 6.000000)">
                            <g id="刷新-(15)" transform="translate(0.000000, 2.850012)">
                                <path d="M11.8055299,0.487000143 L11.8262711,0.581699705 L12.2933062,3.87306046 C12.3232224,4.08453194 12.2533541,4.29356715 12.1081203,4.44167687 C12.0072348,4.54456014 11.8758319,4.61178253 11.7307837,4.63187248 L8.48322874,5.08244143 C8.12009988,5.1328738 7.78465383,4.87437484 7.73244196,4.50676481 C7.68018234,4.1388184 7.93118253,3.79835748 8.29471482,3.74786909 L10.1791326,3.48598755 L10.0309384,3.35303075 C7.99528751,1.62732273 5.00633037,1.66840182 3.05043321,3.48427434 L2.87015501,3.65971223 C0.802478602,5.76833289 0.81752025,9.21693192 2.90446312,11.3452006 C4.98978459,13.4718157 8.36651995,13.4870587 10.4326008,11.3800652 C10.6912349,11.1163095 11.112827,11.118208 11.3728054,11.3833345 C11.6311864,11.646832 11.6330258,12.071652 11.3760111,12.3337561 C10.7440304,12.9782514 10.0053706,13.476516 9.18118524,13.8141752 C8.38537643,14.1402643 7.54362852,14.3036875 6.67948143,14.3001071 C5.8159609,14.2961602 4.97291068,14.1251411 4.17413002,13.7918981 C3.34727096,13.4468458 2.6046878,12.9421948 1.96758586,12.2924769 C1.33059447,11.6428718 0.835889957,10.8858255 0.49792868,10.0433844 C0.171588173,9.2300453 0.00413913842,8.3713994 6.4006889e-13,7.49133338 C-0.00372781756,6.61164911 0.156397785,5.75424413 0.47597955,4.94312192 C0.806959056,4.10311574 1.29528964,3.35022826 1.92698663,2.70602238 C2.55889159,2.0616044 3.29768544,1.56323859 4.12181254,1.22560328 C4.91772305,0.899472567 5.75949062,0.736087204 6.62340678,0.739977505 C7.48710293,0.743866816 8.33025179,0.914877553 9.12887607,1.24813022 C9.62402614,1.45478919 10.0891121,1.7187372 10.5195367,2.03700995 L10.7151326,2.18898755 L10.5132344,0.765142769 C10.4657257,0.43064603 10.6688449,0.118864579 10.979277,0.027011371 L11.0754827,0.00625046885 C11.3990482,-0.0386872286 11.705873,0.162495185 11.8055299,0.487000143 Z" id="again"></path>
                            </g>
                        </g>
                    </g>
                </g>
            </g>
        </g>
    </g>
</svg>