<?xml version="1.0" encoding="UTF-8"?>
<svg width="4.58578644px" height="8.17157288px" viewBox="0 0 4.58578644 8.17157288" version="1.1" xmlns="http://www.w3.org/2000/svg" xmlns:xlink="http://www.w3.org/1999/xlink">
    <g id="桌面版" stroke="none" stroke-width="1" fill-rule="evenodd" opacity="0.9">
        <g id="聊天框各状态" transform="translate(-1109.914214, -3425.414214)" fill-rule="nonzero">
            <g id="编组-4" transform="translate(750.000000, 2916.000000)">
                <g id="编组-11" transform="translate(20.000000, 426.000000)">
                    <g id="编组-8" transform="translate(284.000000, 78.000000)">
                        <g id="arrow_left" transform="translate(58.000000, 9.914214) scale(-1, 1) translate(-58.000000, -9.914214) translate(50.000000, 1.914214)">
                            <path d="M9.23223305,3.64644661 C9.42749519,3.45118446 9.74407768,3.45118446 9.93933983,3.64644661 C10.134602,3.84170876 10.134602,4.15829124 9.93933983,4.35355339 L6.707,7.586 L9.93933983,10.8180195 C10.1129062,10.9915858 10.1321913,11.2610102 9.99719528,11.4558784 L9.93933983,11.5251263 C9.74407768,11.7203884 9.42749519,11.7203884 9.23223305,11.5251263 L5.64644661,7.93933983 C5.45118446,7.74407768 5.45118446,7.42749519 5.64644661,7.23223305 L9.23223305,3.64644661 Z"></path>
                        </g>
                    </g>
                </g>
            </g>
        </g>
    </g>
</svg>