<?xml version="1.0" encoding="utf-8" ?>
<svg xmlns="http://www.w3.org/2000/svg" xmlns:xlink="http://www.w3.org/1999/xlink" width="20" height="20">
	<path fill-opacity="0.7019608" transform="translate(4 3)" d="M7.585309 0C7.8508077 0 8.1054087 0.10558069 8.2929916 0.29346967L8.35814 0.35823888L11.634315 3.6343145L11.669 3.675L11.707683 3.7137306C11.894867 3.9012198 12 4.1553268 12 4.4202609L12 13C12 14.104569 11.104569 15 10 15L2 15C0.89543051 15 0 14.104569 0 13L0 2C0 0.89543051 0.89543051 0 2 0L7.585309 0ZM7 1L2 1C1.4871641 1 1.0644928 1.3860402 1.0067277 1.8833789L1 2L1 13C1 13.552285 1.4477153 14 2 14L10 14C10.552285 14 11 13.552285 11 13L11 4.9990001L9 5C7.8954306 5 7 4.1045694 7 3L7 1ZM8 1.416L8 3C8 3.5128357 8.3860397 3.9355071 8.883379 3.9932723L9 4L10.58 3.9990001L8 1.416ZM5.5 10.5C5.7761426 10.5 6 10.723858 6 11C6 11.276142 5.7761426 11.5 5.5 11.5L3.5 11.5C3.2238576 11.5 3 11.276142 3 11C3 10.723858 3.2238576 10.5 3.5 10.5L5.5 10.5ZM7.5 8C7.7761426 8 8 8.2238579 8 8.5C8 8.7761421 7.7761426 9 7.5 9L3.5 9C3.2238576 9 3 8.7761421 3 8.5C3 8.2238579 3.2238576 8 3 8L7.5 8ZM7.5 5.5C7.7761426 5.5 8 5.7238574 8 6C8 6.2761426 7.7761426 6.5 7.5 6.5L3.5 6.5C3.2238576 6.5 3 6.2761426 3 6C3 5.7238574 3.2238576 5.5 3 5.5L7.5 5.5Z" fill-rule="evenodd"/>
</svg>
