<?xml version="1.0" encoding="UTF-8"?>
<svg width="18px" height="20px" viewBox="0 0 18 20" version="1.1" xmlns="http://www.w3.org/2000/svg" xmlns:xlink="http://www.w3.org/1999/xlink">
    <g id="桌面版" stroke="none" stroke-width="1" fill-rule="evenodd">
        <g id="聊天框各状态" transform="translate(-1245.347776, -827.554371)">
            <g id="编组-4" transform="translate(1221.000000, 144.000000)">
                <g id="编组-4备份-2" transform="translate(15.000000, 676.000000)">
                    <g id="list_icon_clear" transform="translate(7.347776, 7.554371)">
                        <path d="M8.68087772,11.2151396 L15.7569954,15.3374296 L15.8197826,15.5327128 C14.9248127,17.6138096 13.7201455,18.9958412 12.2301645,19.6557561 C11.8390641,19.933566 11.553694,20 10.8969523,20 C10.488326,20 10.0970237,19.886769 9.74146744,19.6700764 C8.72733341,19.2144431 7.93802218,18.7487053 7.37285758,18.2710562 L7.41578497,18.0089889 C8.41756514,17.6284534 8.94260299,17.2355411 9.00230506,16.8835995 C9.00571586,16.825242 9.00667501,16.7744372 9.00707987,16.7350952 L9.00772397,16.6662373 L8.99305678,16.6707405 L8.97092729,16.6794651 L8.95706293,16.6861804 L8.79241189,16.7936765 C7.99907958,17.2709081 6.8166601,17.4785823 5.17975809,17.402238 L2,15.1253522 L2.06225102,14.8482488 C4.81412209,14.4098819 6.85320095,13.3532395 8.1764578,11.6955416 C8.29083144,11.5115695 8.39710315,11.3622046 8.49598223,11.247025 L8.68087772,11.2151396 Z M19.2701958,0.138607051 L19.292219,0.152444645 L19.3329282,0.178136075 C19.3906643,0.21473776 19.4793597,0.271684664 19.804576,0.480489978 C19.9853505,0.673822424 20.0456571,0.907447493 19.9646934,1.19759101 L15.3207238,9.56935052 L15.4586838,9.66243337 C16.847665,10.6585636 17.3382591,11.7904808 17.1869418,13.1424552 L17.1536276,13.3833404 C17.073056,13.6973374 16.8380818,14.097526 16.4490256,14.5925813 L16.2620161,14.6307439 L9.05619404,10.5873104 L9.00409528,10.3671092 C9.01011501,10.3579358 9.01011501,10.3579358 9.01520863,10.3501737 C9.02817419,10.3304156 9.02817419,10.3304156 9.04854866,10.2993672 C9.10041092,10.220335 9.10041092,10.220335 9.18190877,10.0961415 C9.38935785,9.78001252 9.38935785,9.78001252 9.71914261,9.27772403 C10.4108659,8.31778239 11.6707299,8.12850014 13.4726718,8.68282011 L13.687,8.752 L13.6050862,8.72532039 L13.8007352,8.37367431 C15.5757422,5.17252545 16.8293464,2.92871556 17.5685486,1.62982452 L17.7243511,1.35673124 C18.0435892,0.798708065 18.2436966,0.459526873 18.3254546,0.33780134 L18.3460652,0.308301305 C18.5500114,-0.0369884413 18.8814447,-0.0903038732 19.2701958,0.138607051 Z M4.92467411,4.26637915 L4.98876322,4.50182679 C5.35462956,5.79649095 5.67559549,6.10474613 7.05647101,6.50478219 L7.05774681,6.79929472 L6.83338837,6.86650953 C5.60064881,7.24992697 5.30666844,7.58682782 4.92501513,9.03679987 L4.63799874,9.03807368 L4.57390963,8.80262604 C4.20804329,7.50796187 3.88707736,7.1997067 2.50620184,6.79967064 L2.50492604,6.50515811 L2.72928448,6.4379433 C3.96202404,6.05452585 4.25600441,5.717625 4.63765772,4.26765296 L4.92467411,4.26637915 Z M11.031564,1.92185099 L11.0795302,2.09807366 C11.3502179,3.05593622 11.5809862,3.27756577 12.604662,3.57412199 L12.6059378,3.86863452 L12.4380324,3.91893467 C11.5263309,4.20250004 11.3149218,4.44477444 11.0319051,5.52000763 L10.7448887,5.52128144 L10.6969226,5.34505877 C10.4262349,4.38719621 10.1954665,4.16556666 9.17179074,3.86901044 L9.17051494,3.57449791 L9.33842035,3.52419776 C10.2501218,3.24063239 10.461531,2.99835799 10.7445477,1.9231248 L11.031564,1.92185099 Z" id="形状结合"></path>
                    </g>
                </g>
            </g>
        </g>
    </g>
</svg>