<?xml version="1.0" encoding="UTF-8"?>
<svg width="18px" height="18px" viewBox="0 0 18 18" version="1.1" xmlns="http://www.w3.org/2000/svg" xmlns:xlink="http://www.w3.org/1999/xlink">
    <g id="草稿4" stroke="none" stroke-width="1" fill-rule="evenodd" fill-opacity="0.7">
        <g id="指令" transform="translate(-689, -815)" fill-rule="nonzero">
            <g id="能听能说" transform="translate(670, 16)">
                <g id="编组-13" transform="translate(10, 787)">
                    <g id="list_icon_clear3" transform="translate(0, 3)">
                        <path d="M25.8509878,9.21382968 C26.4233188,9.59987183 26.5743357,10.3767868 26.1882936,10.9491178 L21.987075,17.1775692 C22.5584523,17.8538222 22.9023582,18.7241351 22.9023582,19.6741959 C22.9023582,20.3376007 22.7340707,20.9778078 22.4177718,21.5472148 C21.2437042,23.6607931 19.4324204,26.1178742 18.3771989,26.4546126 L18.1745636,26.4652519 C15.2831832,25.867126 12.4549653,24.3574177 9.6908908,21.9434211 L9,21.3400336 L9.91227563,21.244327 C12.0159193,21.0236343 13.4630512,20.3388695 14.4588342,19.3123613 C14.8016931,18.9589234 15.0701373,18.5888124 15.3199284,18.1590487 L15.5988877,17.6568939 C15.6840838,17.5068591 15.7650672,17.3693349 15.802472,17.3206024 C16.5446149,16.3537096 17.7003958,15.7741959 18.9523582,15.7741959 C19.2609199,15.7741959 19.561259,15.8091432 19.8495225,15.8752551 L24.1156997,9.55113552 C24.5017418,8.97880451 25.2786568,8.82778754 25.8509878,9.21382968 Z M16.2205267,18.2182347 C15.9464878,18.6712678 15.4856133,19.3707285 15.1113432,19.7855444 L15.033048,19.8693878 C14.0827383,20.8490197 12.7827681,21.5478268 11.0300677,21.8873734 L10.8940105,21.9111959 L10.979839,21.9819784 C11.6210057,22.4999768 12.2645106,22.9671978 12.9103672,23.383742 C12.9462967,23.3008788 13.0081169,23.2299122 13.0915127,23.1821079 C13.9775829,22.6741929 14.6665522,22.1532596 15.1588641,21.6229739 C15.3242,21.444885 15.6026007,21.4345467 15.7806895,21.5998826 C15.9587783,21.7652184 15.9691166,22.0436191 15.8037808,22.2217079 C15.275961,22.7902404 14.5692327,23.3338339 13.6839707,23.8555869 C14.1177746,24.1097668 14.5541536,24.339746 14.9916014,24.546885 C15.0284057,24.49638 15.0781624,24.4558021 15.1379922,24.4281333 C16.0842874,23.9905107 16.6972341,23.5904638 17.4531446,22.8300377 C17.6088884,22.6733635 17.8621533,22.6726093 18.0188275,22.8283532 C18.1755017,22.984097 18.1762559,23.2373619 18.0205121,23.3940361 C17.3127316,24.1060445 16.7064651,24.5385632 15.9069186,24.9447934 C16.5823412,25.2162711 17.2620764,25.432575 17.9443773,25.594677 L18.2230105,25.6561959 L18.3199096,25.6037776 C19.1174589,25.1196761 20.5965331,23.1130119 21.5745163,21.4131922 L16.2205267,18.2182347 Z M18.9523582,16.5741959 C18.0689548,16.5741959 17.2472149,16.9340721 16.6594649,17.5484217 L21.9284745,20.6928739 C22.0428424,20.3692286 22.1023582,20.0261419 22.1023582,19.6741959 C22.1023582,18.8739193 21.7940362,18.1440153 21.2876445,17.5937603 L20.0813291,16.779204 C19.7309247,16.6467822 19.3503128,16.5741959 18.9523582,16.5741959 Z M11.2282913,12.4741959 L11.2845985,12.6810546 C11.6060399,13.8185157 11.888033,14.0893414 13.1012373,14.4408035 L13.1023582,14.6995552 L12.9052422,14.7586086 C11.8221866,15.09547 11.5639024,15.3914631 11.2285909,16.665374 L10.9764251,16.6664931 L10.920118,16.4596345 C10.5986765,15.3221733 10.3166835,15.0513477 9.10347911,14.6998855 L9.10235822,14.4411338 L9.29947421,14.3820805 L9.60054956,14.2812293 C10.434957,13.9762412 10.6743452,13.6218349 10.9761255,12.475315 L11.2282913,12.4741959 Z M24.7789297,9.99848984 L20.6326457,16.1436789 C20.9079608,16.2716354 21.1659054,16.4300635 21.4020058,16.614571 L25.5250635,10.5017635 C25.648597,10.3186175 25.619367,10.0772788 25.4666385,9.92830238 L25.4036334,9.87705974 C25.1975943,9.73808457 24.9179049,9.79245068 24.7789297,9.99848984 Z M17.3275286,9.97419587 L17.3694152,10.1280832 C17.6057946,10.9645414 17.8073142,11.1580805 18.7012441,11.4170497 L18.7023582,11.6742342 L18.555734,11.7181591 C17.7595862,11.9657839 17.5749721,12.1773512 17.3278264,13.1163039 L17.0771879,13.1174163 L17.0353012,12.963529 C16.7989219,12.1270708 16.5974023,11.9335317 15.7034723,11.6745625 L15.7023582,11.417378 L15.8489825,11.3734531 C16.6451303,11.1258282 16.8297443,10.9142609 17.0768901,9.97530823 L17.3275286,9.97419587 Z" id="形状"></path>
                    </g>
                </g>
            </g>
        </g>
    </g>
</svg>