<?xml version="1.0" encoding="utf-8" ?>
<svg xmlns="http://www.w3.org/2000/svg" xmlns:xlink="http://www.w3.org/1999/xlink" width="16" height="16">
	<path transform="translate(2 2)" d="M5 6C5.5522847 6 6 6.4477153 6 7L6 11.5C6 11.776142 5.7761426 12 5.5 12C5.2238574 12 5 11.776142 5 11.5L5 7.7059999L0.70744663 12.000446L0.0004466094 11.293447L4.2919998 7L0.5 7C0.22385763 7 0 6.7761426 0 6.5C0 6.2238574 0.22385763 6 0.5 6L5 6ZM11.293447 0.0004466094L12.000446 0.70744663L7.7059999 5L11.5 5C11.776142 5 12 5.2238574 12 5.5C12 5.7761426 11.776142 6 11.5 6L7 6C6.4477153 6 6 5.5522847 6 5L6 0.5C6 0.22385763 6.2238574 5.5511151e-17 6.5 0C6.7761426 0 7 0.22385763 7 0.5L7 4.2919998L11.293447 0.0004466094Z"/>
</svg>
