<?xml version="1.0" encoding="utf-8" ?>
<svg xmlns="http://www.w3.org/2000/svg" xmlns:xlink="http://www.w3.org/1999/xlink" width="20" height="20">
	<path fill-opacity="0.7019608" transform="translate(2.99621 3)" d="M5.5037885 1.5L12.503788 1.5C12.779931 1.5 13.003788 1.7238576 13.003788 2C13.003788 2.2761424 12.779931 2.5 12.503788 2.5L5.5037885 2.5C5.2276459 2.5 5.0037885 2.2761424 5.0037885 2C5.0037885 1.7238576 5.2276459 1.5 5.5037885 1.5ZM2.0840001 0C2.255115 0.97882199 3.021183 1.7448862 3.992285 1.9147576L4 2.0840001C3.021183 2.2551138 2.255115 3.021178 2.0852425 3.9922833L1.9152 4C1.744885 3.021178 0.97881705 2.2551138 0 2.0840001L0 1.9152C0.97881705 1.7448862 1.744885 0.97882199 1.9152 0L2.0840001 0ZM0.50378847 5.25L8.503788 5.25C8.7799311 5.25 9.003788 5.4738574 9.003788 5.75C9.003788 6.0261426 8.7799311 6.25 8.503788 6.25L0.50378847 6.25C0.22764608 6.25 0.0037884624 6.0261426 0.0037884624 5.75C0.0037884624 5.4738574 0.22764608 5.25 0.50378847 5.25ZM0.50378847 8.75L8.503788 8.75C8.7799311 8.75 9.003788 8.9738579 9.003788 9.25C9.003788 9.5261421 8.7799311 9.75 8.503788 9.75L0.50378847 9.75C0.22764608 9.75 0.0037884624 9.5261421 0.0037884624 9.25C0.0037884624 8.9738579 0.22764608 8.75 0.50378847 8.75ZM0.50378847 12.5L12.503788 12.5C12.779931 12.5 13.003788 12.723858 13.003788 13C13.003788 13.276142 12.779931 13.5 12.503788 13.5L0.50378847 13.5C0.22764608 13.5 0.0037884624 13.276142 0.0037884624 13C0.0037884624 12.723858 0.22764608 12.5 0.50378847 12.5ZM12.978662 7.8535533L11.210896 9.6213207C11.015633 9.8165827 10.699051 9.8165827 10.503788 9.6213207C10.308526 9.4260578 10.308526 9.1094761 10.503788 8.9142132L11.918002 7.5L11.918002 7.5L10.503788 6.0857863C10.308526 5.8905244 10.308526 5.5739417 10.503788 5.3786798C10.699051 5.1834173 11.015633 5.1834173 11.210896 5.3786798L12.978662 7.1464467C13.173924 7.3417087 13.173924 7.6582913 12.978662 7.8535533Z" fill-rule="evenodd"/>
</svg>
