<?xml version="1.0" encoding="utf-8" ?>
<svg xmlns="http://www.w3.org/2000/svg" xmlns:xlink="http://www.w3.org/1999/xlink" width="14" height="15">
	<path fill-opacity="1" transform="translate(0 -2.38419e-05)" d="M1 8.0010004L1 11.566L3.2226498 10.084975L3.3486121 10.001L4 10L4 11L3.651 11.001L0.77735013 12.917026L0 13.435259L0 8.0010004L1 8.0010004ZM9 10L9 11L5 11L5 10L9 10ZM14 8.0010004L14 9.5010004C14 10.329427 13.328427 11.001 12.5 11.001L10 11L10 10L12.5 10.001C12.776142 10.001 13 9.7771425 13 9.5010004L13 8.0010004L14 8.0010004ZM1 4.0009999L1 7.0009999L0 7.0009999L0 4.0009999L1 4.0009999ZM14 4.0009999L14 7.0009999L13 7.0009999L13 4.0009999L14 4.0009999ZM4 0L4 1L1.5 1.001C1.2238576 1.001 1 1.2248576 1 1.501L1 3.0009999L0 3.0009999L0 1.501C0 0.67257285 0.67157286 0.001 1.5 0.001L4 0ZM12.5 0.001C13.328427 0.001 14 0.67257285 14 1.501L14 3.0009999L13 3.0009999L13 1.501C13 1.2248576 12.776142 1.001 12.5 1.001L10 1L10 0L12.5 0.001ZM9 0L9 1L5 1L5 0L9 0Z"/>
</svg>
