<?xml version="1.0" encoding="UTF-8"?>
<svg width="13.1px" height="13.1px" viewBox="0 0 13.1 13.1" version="1.1" xmlns="http://www.w3.org/2000/svg" xmlns:xlink="http://www.w3.org/1999/xlink">
    <g id="v1.1.3" stroke="none" stroke-width="1" fill-rule="evenodd" >
        <g id="copy" transform="translate(-1.400000, -1.500000)" fill-rule="nonzero">
            <path d="M12.6428571,6.24285714 C13.6685288,6.24285714 14.5,7.07432832 14.5,8.1 L14.5,12.7428571 C14.5,13.7685288 13.6685288,14.6 12.6428571,14.6 L8,14.6 C6.97432832,14.6 6.14285714,13.7685288 6.14285714,12.7428571 L6.14285714,8.1 C6.14285714,7.07432832 6.97432832,6.24285714 8,6.24285714 L12.6428571,6.24285714 Z M12.6428571,7.44285714 L8,7.44285714 C7.63707002,7.44285714 7.34285714,7.73707002 7.34285714,8.1 L7.34285714,12.7428571 C7.34285714,13.1057871 7.63707002,13.4 8,13.4 L12.6428571,13.4 C13.0057871,13.4 13.3,13.1057871 13.3,12.7428571 L13.3,8.1 C13.3,7.73707002 13.0057871,7.44285714 12.6428571,7.44285714 Z M8,1.5 C9.08090015,1.5 9.95714286,2.3762427 9.95714286,3.45715055 L9.957,5.31400769 L9.857,5.414 L8.928,5.414 L8.828,5.31396923 L8.82857143,3.45714286 C8.82857143,3.03552677 8.51196638,2.68237713 8.10253174,2.63465262 L8,2.62857143 L3.35714286,2.62857143 C2.93552677,2.62857143 2.58237713,2.94517647 2.53465262,3.35461112 L2.52857143,3.45714286 L2.52857143,8.1 C2.52857143,8.52161609 2.84517647,8.87476573 3.25461112,8.92249024 L3.35711208,8.92857143 L5.21396923,8.928 L5.314,9.028 L5.314,9.957 L5.21400769,10.057 L3.35714286,10.0571429 C2.2762427,10.0571429 1.4,9.18090015 1.4,8.1 L1.4,3.45714286 C1.4,2.3762427 2.2762427,1.5 3.35714286,1.5 L8,1.5 Z"></path>
        </g>
    </g>
</svg>