<svg id="图层_1" data-name="图层 1" xmlns="http://www.w3.org/2000/svg" viewBox="0 0 14 14"><defs><style>.cls-1{fill:none;}</style></defs><path d="M7.79,1a.92.92,0,0,1,.92.92V4.23H8V1.92a.19.19,0,0,0-.19-.18H1.92a.18.18,0,0,0-.18.18V7.79A.19.19,0,0,0,1.92,8H4.23v.73H1.92A.92.92,0,0,1,1,7.79V1.92A.92.92,0,0,1,1.92,1Zm4.29,5H6.21A.2.2,0,0,0,6,6.21v5.87a.19.19,0,0,0,.19.18h5.87a.18.18,0,0,0,.18-.18V6.21A.19.19,0,0,0,12.08,6Zm0-.73a.92.92,0,0,1,.92.92v5.87a.92.92,0,0,1-.92.92H6.21a.92.92,0,0,1-.92-.92V6.21a.92.92,0,0,1,.92-.92Z"/><rect class="cls-1" width="14" height="14"/></svg>