<?xml version="1.0" encoding="utf-8" ?>
<svg xmlns="http://www.w3.org/2000/svg" xmlns:xlink="http://www.w3.org/1999/xlink" width="18" height="18">
	<path fill-opacity="1" transform="translate(2.67406 2.67406)" d="M6.3683052 1.2399112C8.6712999 -0.1280636 10.882227 -0.43148196 11.982795 0.66908652C13.09005 1.7763414 12.776206 4.0074878 11.386919 6.3255615C12.776116 8.6437521 13.090209 10.875381 11.982795 11.982795C10.875381 13.090209 8.6437521 12.776116 6.3253198 11.38632C4.0074878 12.776206 1.7763414 13.09005 0.66908652 11.982795C-0.43832767 10.875381 -0.12423465 8.6437521 1.2655618 6.3253198C-0.12432493 4.0074878 -0.43816847 1.7763414 0.66908652 0.66908652C1.7765007 -0.43832767 4.0081296 -0.12423465 6.3265615 1.2655618L6.3683052 1.2399112ZM10.769826 7.2615476L10.668389 7.4008408C10.229021 7.9959898 9.7224035 8.5863323 9.1543674 9.1543674C8.5420742 9.7666616 7.9038615 10.307595 7.2616487 10.769861C9.0378618 11.735435 10.610458 11.940918 11.275688 11.275688C11.940918 10.610458 11.735435 9.0378618 10.769826 7.2615476ZM1.88202 7.2616487L1.8414104 7.3370385C0.91079026 9.0823078 0.72040296 10.619898 1.3761933 11.275688C2.0414231 11.940918 3.6140201 11.735435 5.3903337 10.769826C4.7480197 10.307595 4.1098075 9.7666616 3.4975135 9.1543674C2.8852201 8.5420742 2.3442867 7.9038615 1.88202 7.2616487ZM6.3255148 2.4499624L6.2252994 2.5184746C5.549345 2.9813941 4.8639359 3.545305 4.2046204 4.2046204C3.5124207 4.8968201 2.9253795 5.6177816 2.4499624 6.3263669C2.9259317 7.0347781 3.5127463 7.7553868 4.2046204 8.4472609C4.8968201 9.1394606 5.6177816 9.7265024 6.3263669 10.20192C7.0347781 9.7259493 7.7553868 9.1391354 8.4472609 8.4472609C9.1394606 7.7550611 9.7265024 7.0340996 10.20192 6.3255148C9.7259493 5.6171036 9.1391354 4.8964944 8.4472609 4.2046204C7.7550611 3.5124207 7.0340996 2.9253795 6.3255148 2.4499624ZM6.3259406 4.8259406C7.1543679 4.8259406 7.8259406 5.4975138 7.8259406 6.3259406C7.8259406 7.1543679 7.1543679 7.8259406 6.3259406 7.8259406C5.4975138 7.8259406 4.8259406 7.1543679 4.8259406 6.3259406C4.8259406 5.4975138 5.4975138 4.8259406 6.3259406 4.8259406ZM5.3903337 1.882056C3.6140201 0.91644645 2.0414231 0.71096355 1.3761933 1.3761933C0.71096355 2.0414231 0.91644645 3.6140201 1.882056 5.3903337C2.3442867 4.7480197 2.8852201 4.1098075 3.4975135 3.4975135C4.0655489 2.9294784 4.6558914 2.4228599 5.2510409 1.9834923L5.3903337 1.882056ZM11.275688 1.3761933C10.610458 0.71096355 9.0378618 0.91644645 7.2615476 1.882056C7.9038615 2.3442867 8.5420742 2.8852201 9.1543674 3.4975135C9.7666616 4.1098075 10.307595 4.7480197 10.769861 5.3902326C11.735435 3.6140201 11.940918 2.0414231 11.275688 1.3761933Z" fill-rule="evenodd"/>
</svg>
