<?xml version="1.0" encoding="utf-8" ?>
<svg xmlns="http://www.w3.org/2000/svg" xmlns:xlink="http://www.w3.org/1999/xlink" width="16" height="16">
	<path fill-opacity="0.7019608" transform="translate(1 2)" d="M6.5193753 0C6.8231587 0 7.1104717 0.13808972 7.3002439 0.37530497L8.6000004 2L14 2C14.552285 2 15 2.4477153 15 3L15 12C15 12.552285 14.552285 13 14 13L1 13C0.44771525 13 0 12.552285 0 12L0 1C0 0.44771525 0.44771525 0 1 0L6.5193753 0ZM6.5193753 1L1 1L1 12L14 12L14 3L8.1193752 3L7.8191314 2.6246951L6.5193753 1ZM8.5 5L11.5 7.5L8.5 10L8.5 8L4 8L4 7L8.5 7L8.5 5Z"/>
</svg>
