<?xml version="1.0" encoding="utf-8" ?>
<svg xmlns="http://www.w3.org/2000/svg" xmlns:xlink="http://www.w3.org/1999/xlink" width="7" height="12">
	<path transform="translate(0 5)" d="M2 1Q1.9999999 1.0984913 1.9807851 1.1950902Q1.9615703 1.291689 1.9238793 1.3826833Q1.8861883 1.4736774 1.8314693 1.5555699Q1.7767504 1.6374626 1.7071066 1.7071066Q1.6374626 1.7767504 1.5555699 1.8314693Q1.4736774 1.8861883 1.3826833 1.9238794Q1.291689 1.9615704 1.1950902 1.9807851Q1.0984913 1.9999999 1 2Q0.90150857 1.9999999 0.80490965 1.9807851Q0.70831072 1.9615703 0.61731648 1.9238793Q0.52632231 1.8861883 0.44442973 1.8314693Q0.36253715 1.7767504 0.2928932 1.7071066Q0.22324926 1.6374626 0.16853037 1.5555699Q0.11381148 1.4736774 0.076120459 1.3826833Q0.038429435 1.291689 0.019214718 1.1950902Q0 1.0984913 0 1Q0 0.90150857 0.019214718 0.80490965Q0.038429435 0.70831072 0.076120459 0.61731648Q0.11381148 0.52632231 0.16853037 0.44442973Q0.22324926 0.36253715 0.2928932 0.2928932Q0.36253715 0.22324926 0.44442976 0.16853037Q0.52632231 0.11381148 0.61731648 0.076120459Q0.70831072 0.038429435 0.80490965 0.019214718Q0.90150857 0 1 0Q1.0984913 0 1.1950902 0.019214718Q1.291689 0.038429435 1.3826833 0.076120459Q1.4736774 0.11381148 1.5555699 0.16853037Q1.6374626 0.22324926 1.7071066 0.2928932Q1.7767504 0.36253715 1.8314693 0.44442976Q1.8861883 0.52632231 1.9238794 0.61731648Q1.9615704 0.70831072 1.9807851 0.80490965Q1.9999999 0.90150857 2 1Z"/>
	<path transform="translate(0 10)" d="M2 1Q1.9999999 1.0984913 1.9807851 1.1950902Q1.9615703 1.291689 1.9238793 1.3826833Q1.8861883 1.4736774 1.8314693 1.5555699Q1.7767504 1.6374626 1.7071066 1.7071066Q1.6374626 1.7767504 1.5555699 1.8314693Q1.4736774 1.8861883 1.3826833 1.9238794Q1.291689 1.9615704 1.1950902 1.9807851Q1.0984913 1.9999999 1 2Q0.90150857 1.9999999 0.80490965 1.9807851Q0.70831072 1.9615703 0.61731648 1.9238793Q0.52632231 1.8861883 0.44442973 1.8314693Q0.36253715 1.7767504 0.2928932 1.7071066Q0.22324926 1.6374626 0.16853037 1.5555699Q0.11381148 1.4736774 0.076120459 1.3826833Q0.038429435 1.291689 0.019214718 1.1950902Q0 1.0984913 0 1Q0 0.90150857 0.019214718 0.80490965Q0.038429435 0.70831072 0.076120459 0.61731648Q0.11381148 0.52632231 0.16853037 0.44442973Q0.22324926 0.36253715 0.2928932 0.2928932Q0.36253715 0.22324926 0.44442976 0.16853037Q0.52632231 0.11381148 0.61731648 0.076120459Q0.70831072 0.038429435 0.80490965 0.019214718Q0.90150857 0 1 0Q1.0984913 0 1.1950902 0.019214718Q1.291689 0.038429435 1.3826833 0.076120459Q1.4736774 0.11381148 1.5555699 0.16853037Q1.6374626 0.22324926 1.7071066 0.2928932Q1.7767504 0.36253715 1.8314693 0.44442976Q1.8861883 0.52632231 1.9238794 0.61731648Q1.9615704 0.70831072 1.9807851 0.80490965Q1.9999999 0.90150857 2 1Z"/>
	<path transform="translate(5 0)" d="M2 1Q1.9999999 1.0984913 1.9807851 1.1950902Q1.9615703 1.291689 1.9238793 1.3826833Q1.8861883 1.4736774 1.8314693 1.5555699Q1.7767504 1.6374626 1.7071066 1.7071066Q1.6374626 1.7767504 1.5555699 1.8314693Q1.4736774 1.8861883 1.3826833 1.9238794Q1.291689 1.9615704 1.1950902 1.9807851Q1.0984913 1.9999999 1 2Q0.90150857 1.9999999 0.80490965 1.9807851Q0.70831072 1.9615703 0.61731648 1.9238793Q0.52632231 1.8861883 0.44442973 1.8314693Q0.36253715 1.7767504 0.2928932 1.7071066Q0.22324926 1.6374626 0.16853037 1.5555699Q0.11381148 1.4736774 0.076120459 1.3826833Q0.038429435 1.291689 0.019214718 1.1950902Q0 1.0984913 0 1Q0 0.90150857 0.019214718 0.80490965Q0.038429435 0.70831072 0.076120459 0.61731648Q0.11381148 0.52632231 0.16853037 0.44442973Q0.22324926 0.36253715 0.2928932 0.2928932Q0.36253715 0.22324926 0.44442976 0.16853037Q0.52632231 0.11381148 0.61731648 0.076120459Q0.70831072 0.038429435 0.80490965 0.019214718Q0.90150857 0 1 0Q1.0984913 0 1.1950902 0.019214718Q1.291689 0.038429435 1.3826833 0.076120459Q1.4736774 0.11381148 1.5555699 0.16853037Q1.6374626 0.22324926 1.7071066 0.2928932Q1.7767504 0.36253715 1.8314693 0.44442976Q1.8861883 0.52632231 1.9238794 0.61731648Q1.9615704 0.70831072 1.9807851 0.80490965Q1.9999999 0.90150857 2 1Z"/>
	<path transform="translate(5 5)" d="M2 1Q1.9999999 1.0984913 1.9807851 1.1950902Q1.9615703 1.291689 1.9238793 1.3826833Q1.8861883 1.4736774 1.8314693 1.5555699Q1.7767504 1.6374626 1.7071066 1.7071066Q1.6374626 1.7767504 1.5555699 1.8314693Q1.4736774 1.8861883 1.3826833 1.9238794Q1.291689 1.9615704 1.1950902 1.9807851Q1.0984913 1.9999999 1 2Q0.90150857 1.9999999 0.80490965 1.9807851Q0.70831072 1.9615703 0.61731648 1.9238793Q0.52632231 1.8861883 0.44442973 1.8314693Q0.36253715 1.7767504 0.2928932 1.7071066Q0.22324926 1.6374626 0.16853037 1.5555699Q0.11381148 1.4736774 0.076120459 1.3826833Q0.038429435 1.291689 0.019214718 1.1950902Q0 1.0984913 0 1Q0 0.90150857 0.019214718 0.80490965Q0.038429435 0.70831072 0.076120459 0.61731648Q0.11381148 0.52632231 0.16853037 0.44442973Q0.22324926 0.36253715 0.2928932 0.2928932Q0.36253715 0.22324926 0.44442976 0.16853037Q0.52632231 0.11381148 0.61731648 0.076120459Q0.70831072 0.038429435 0.80490965 0.019214718Q0.90150857 0 1 0Q1.0984913 0 1.1950902 0.019214718Q1.291689 0.038429435 1.3826833 0.076120459Q1.4736774 0.11381148 1.5555699 0.16853037Q1.6374626 0.22324926 1.7071066 0.2928932Q1.7767504 0.36253715 1.8314693 0.44442976Q1.8861883 0.52632231 1.9238794 0.61731648Q1.9615704 0.70831072 1.9807851 0.80490965Q1.9999999 0.90150857 2 1Z"/>
	<path transform="translate(5 10)" d="M2 1Q1.9999999 1.0984913 1.9807851 1.1950902Q1.9615703 1.291689 1.9238793 1.3826833Q1.8861883 1.4736774 1.8314693 1.5555699Q1.7767504 1.6374626 1.7071066 1.7071066Q1.6374626 1.7767504 1.5555699 1.8314693Q1.4736774 1.8861883 1.3826833 1.9238794Q1.291689 1.9615704 1.1950902 1.9807851Q1.0984913 1.9999999 1 2Q0.90150857 1.9999999 0.80490965 1.9807851Q0.70831072 1.9615703 0.61731648 1.9238793Q0.52632231 1.8861883 0.44442973 1.8314693Q0.36253715 1.7767504 0.2928932 1.7071066Q0.22324926 1.6374626 0.16853037 1.5555699Q0.11381148 1.4736774 0.076120459 1.3826833Q0.038429435 1.291689 0.019214718 1.1950902Q0 1.0984913 0 1Q0 0.90150857 0.019214718 0.80490965Q0.038429435 0.70831072 0.076120459 0.61731648Q0.11381148 0.52632231 0.16853037 0.44442973Q0.22324926 0.36253715 0.2928932 0.2928932Q0.36253715 0.22324926 0.44442976 0.16853037Q0.52632231 0.11381148 0.61731648 0.076120459Q0.70831072 0.038429435 0.80490965 0.019214718Q0.90150857 0 1 0Q1.0984913 0 1.1950902 0.019214718Q1.291689 0.038429435 1.3826833 0.076120459Q1.4736774 0.11381148 1.5555699 0.16853037Q1.6374626 0.22324926 1.7071066 0.2928932Q1.7767504 0.36253715 1.8314693 0.44442976Q1.8861883 0.52632231 1.9238794 0.61731648Q1.9615704 0.70831072 1.9807851 0.80490965Q1.9999999 0.90150857 2 1Z"/>
	<path d="M2 1Q1.9999999 1.0984913 1.9807851 1.1950902Q1.9615703 1.291689 1.9238793 1.3826833Q1.8861883 1.4736774 1.8314693 1.5555699Q1.7767504 1.6374626 1.7071066 1.7071066Q1.6374626 1.7767504 1.5555699 1.8314693Q1.4736774 1.8861883 1.3826833 1.9238794Q1.291689 1.9615704 1.1950902 1.9807851Q1.0984913 1.9999999 1 2Q0.90150857 1.9999999 0.80490965 1.9807851Q0.70831072 1.9615703 0.61731648 1.9238793Q0.52632231 1.8861883 0.44442973 1.8314693Q0.36253715 1.7767504 0.2928932 1.7071066Q0.22324926 1.6374626 0.16853037 1.5555699Q0.11381148 1.4736774 0.076120459 1.3826833Q0.038429435 1.291689 0.019214718 1.1950902Q0 1.0984913 0 1Q0 0.90150857 0.019214718 0.80490965Q0.038429435 0.70831072 0.076120459 0.61731648Q0.11381148 0.52632231 0.16853037 0.44442973Q0.22324926 0.36253715 0.2928932 0.2928932Q0.36253715 0.22324926 0.44442976 0.16853037Q0.52632231 0.11381148 0.61731648 0.076120459Q0.70831072 0.038429435 0.80490965 0.019214718Q0.90150857 0 1 0Q1.0984913 0 1.1950902 0.019214718Q1.291689 0.038429435 1.3826833 0.076120459Q1.4736774 0.11381148 1.5555699 0.16853037Q1.6374626 0.22324926 1.7071066 0.2928932Q1.7767504 0.36253715 1.8314693 0.44442976Q1.8861883 0.52632231 1.9238794 0.61731648Q1.9615704 0.70831072 1.9807851 0.80490965Q1.9999999 0.90150857 2 1Z"/>
</svg>
