<?xml version="1.0" encoding="utf-8" ?>
<svg xmlns="http://www.w3.org/2000/svg" xmlns:xlink="http://www.w3.org/1999/xlink" width="16" height="16">
	<path fill-opacity="1" transform="translate(2 2)" d="M5.2934465 6.0004468L6.0004468 6.7074466L1.706 11L5.5 11C5.7761426 11 6 11.223858 6 11.5C6 11.776142 5.7761426 12 5.5 12L1 12C0.44771525 12 0 11.552285 0 11L0 6.5C0 6.2238574 0.22385763 6 0.5 6C0.77614236 6 1 6.2238574 1 6.5L1 10.292L5.2934465 6.0004468ZM11 0C11.552285 0 12 0.44771525 12 1L12 5.5C12 5.7761426 11.776142 6 11.5 6C11.223858 6 11 5.7761426 11 5.5L11 1.706L6.7074466 6.0004468L6.0004468 5.2934465L10.292 1L6.5 1C6.2238574 1 6 0.77614236 6 0.5C6 0.22385763 6.2238574 5.5511151e-17 6.5 0L11 0Z"/>
</svg>
