<?xml version="1.0" encoding="utf-8" ?>
<svg xmlns="http://www.w3.org/2000/svg" xmlns:xlink="http://www.w3.org/1999/xlink" width="20" height="20">
	<path fill-opacity="0.7019608" transform="translate(3 4)" d="M4.6326146 0C4.9317689 0 5.1742816 0.24251242 5.1742816 0.54166669C5.1742816 0.84082091 4.9317689 1.0833334 4.6326146 1.0833334L1.625 1.0833334C1.3258457 1.0833334 1.0833334 1.3258457 1.0833334 1.625L1.0833334 11.375C1.0833334 11.674154 1.3258457 11.916667 1.625 11.916667L11.375 11.916667C11.674154 11.916667 11.916667 11.674154 11.916667 11.375L11.916667 8.3755655C11.916667 8.0764112 12.159179 7.833899 12.458333 7.833899C12.757487 7.833899 13 8.0764112 13 8.3755655L13 11.375C13 12.272463 12.272463 13 11.375 13L1.625 13C0.72753727 13 0 12.272463 0 11.375L0 1.625C0 0.72753727 0.72753727 0 1.625 0L4.6326146 0ZM12.458333 0C12.757487 0 13 0.24251242 13 0.54166669L13 3.7916667C13 4.0908208 12.757487 4.3333335 12.458333 4.3333335C12.159179 4.3333335 11.916667 4.0908208 11.916667 3.7916667L11.916 1.849L6.1820002 7.5830002L8.125 7.5833335C8.3909149 7.5833335 8.6120758 7.7749481 8.6579399 8.0276346L8.666667 8.125C8.666667 8.4241543 8.4241543 8.666667 8.125 8.666667L4.875 8.666667C4.5758457 8.666667 4.3333335 8.4241543 4.3333335 8.125L4.3333335 4.875C4.3333335 4.5758457 4.5758457 4.3333335 4.875 4.3333335C5.1741543 4.3333335 5.4166665 4.5758457 5.4166665 4.875L5.4159999 6.8169999L11.15 1.0829999L9.208333 1.0833334C8.9424181 1.0833334 8.7212572 0.89171857 8.6753941 0.63903195L8.666667 0.54166669C8.666667 0.24251242 8.9091787 0 9.208333 0L12.458333 0Z" fill-rule="evenodd"/>
</svg>
