<?xml version="1.0" encoding="utf-8" ?>
<svg xmlns="http://www.w3.org/2000/svg" xmlns:xlink="http://www.w3.org/1999/xlink" width="20" height="20">
	<path fill-opacity="0.7019608" transform="translate(4 3)" d="M9.8214283 0C10.471269 0 11 0.59042633 11 1.3213159L11 10.257804C11 10.347165 10.982568 10.427866 10.94543 10.51081L10.552899 11.387474C10.415611 11.693845 10.415611 12.054161 10.552937 12.360613L10.943905 13.235399C11.022195 13.40198 11.016988 13.596422 10.932682 13.752265C10.849257 13.906479 10.700898 14 10.541667 14L1.8988096 14C0.85119277 14 0 13.049485 0 11.874405L0 2.1255951C0 0.95051444 0.85119277 0 1.8988096 0L9.8214283 0ZM9.7492037 10.782883L1.8985138 10.782883C1.3777832 10.783528 0.94939733 11.235143 0.91913766 11.810736C0.88890141 12.385885 1.2664442 12.889597 1.783054 12.958213L1.8828846 12.965395L9.7632275 12.965927L9.6424627 12.584467C9.5135813 12.177369 9.498498 11.735983 9.5992384 11.319035L9.7492037 10.782883ZM10.083333 1.0340734L1.8988096 1.0340734C1.3997751 1.0340734 0.98135209 1.4495827 0.92344409 1.9984792L0.91711766 2.1087456L0.91666669 10.006376L1.2669344 9.8686953C1.4267148 9.8058901 1.5948621 9.7669859 1.7666585 9.7537317L1.9077357 9.7486429L10.083333 9.7488098L10.083333 1.0340734ZM5.5000024 7.5249305C5.8471532 7.5249305 6.1285715 7.8335333 6.1285715 8.2142124C6.1285715 8.7448215 5.604764 9.0764494 5.1857176 8.8111448C4.7666669 8.5458403 4.7666669 7.8825846 5.1857176 7.61728C5.2812724 7.5567803 5.3896646 7.5249305 5.5000024 7.5249305ZM5.5 2.0106981C6.6555238 2.0106981 7.5952382 2.938354 7.5952382 4.0785346C7.5952382 5.0768433 6.8744793 5.9125929 5.9190483 6.1050158L5.9190483 6.1463761C5.9190483 6.3105445 5.83918 6.4622459 5.7095251 6.5443277C5.430161 6.7211976 5.080956 6.5001106 5.080956 6.1463761L5.080956 5.6868529C5.080956 5.4330587 5.2685609 5.2273254 5.5 5.227335C6.1930017 5.227335 6.7571454 4.7103744 6.7571454 4.0785346C6.7571454 3.4466949 6.1930017 2.9297345 5.5 2.9297345C4.807003 2.9297345 4.2428589 3.4466949 4.2428589 4.0785346L4.2428589 4.3082938C4.2428589 4.4724674 4.1629901 4.6241684 4.0333357 4.7062502C3.7539716 4.8831239 3.4047618 4.6620331 3.4047618 4.3082938L3.4047618 4.0785346C3.4047618 2.938354 4.3444762 2.0106981 5.5 2.0106981Z"/>
</svg>
