<?xml version="1.0" encoding="utf-8" ?>
<svg xmlns="http://www.w3.org/2000/svg" xmlns:xlink="http://www.w3.org/1999/xlink" width="20" height="20">
	<path fill-opacity="1" transform="translate(4 3)" d="M8.1266651 0C8.8945532 0 9.6301441 0.31240383 10.171262 0.86717105C10.710008 1.4195065 11.012002 2.1668971 11.012002 2.9454505C11.012002 3.7240524 10.710013 4.4714456 10.171267 5.0237827L5.2732735 10.045467C4.9558449 10.370904 4.5235434 10.554492 4.0720105 10.554492C3.6204386 10.554492 3.1881883 10.370916 2.8707473 10.045467C2.5556595 9.7224321 2.3793418 9.2860832 2.3793418 8.8317375C2.3793418 8.377471 2.5556843 7.9410186 2.8707421 7.6180134L7.3455505 3.0301878C7.538363 2.8325062 7.8549209 2.8285584 8.0526028 3.0213704C8.2502842 3.2141826 8.2542324 3.5307405 8.0614195 3.7284224L3.586606 8.3162537C3.4543455 8.4518499 3.3793418 8.6374855 3.3793418 8.8317375C3.3793418 9.0260563 3.4543118 9.2115917 3.586606 9.3472223C3.7165177 9.4804115 3.890949 9.554492 4.0720105 9.554492C4.2530394 9.554492 4.4275198 9.4803944 4.5574102 9.3472271L9.4554033 4.3255424C9.8113565 3.9606097 10.012002 3.4640317 10.012002 2.9454505C10.012002 2.4269209 9.8113527 1.9303447 9.4554033 1.5654162C9.1018152 1.2029088 8.6240425 1 8.1266651 1C7.6292725 1 7.1514778 1.2029014 6.7981415 1.5651963L1.905892 6.5870242C1.3262764 7.1813102 1 7.9888778 1 8.8317375C1 9.6746168 1.3262887 10.482228 1.905892 11.076452C2.4830854 11.668255 3.2642748 12 4.0779495 12C4.8916583 12 5.6727982 11.66827 6.249805 11.076659L11.141854 6.0549788C11.334547 5.8571806 11.651102 5.8530412 11.848901 6.0457335C12.046699 6.2384262 12.050838 6.5549817 11.858146 6.75278L6.9658947 11.774667C6.2011447 12.558774 5.1621685 13 4.0779495 13C2.993767 13 1.9547404 12.55876 1.1900188 11.774682C0.42762357 10.993055 0 9.9346266 0 8.8317375C0 7.7288733 0.42760673 6.6705031 1.1898043 5.8890138L6.082046 0.86719346C6.6231232 0.31239834 7.3587627 0 8.1266651 0Z"/>
</svg>
