<?xml version="1.0" encoding="utf-8" ?>
<svg xmlns="http://www.w3.org/2000/svg" xmlns:xlink="http://www.w3.org/1999/xlink" width="12" height="14">
	<path fill-opacity="1" d="M7.5857863 -8.8817842e-16C7.8510027 -8.8817842e-16 8.1053572 0.10535684 8.2928934 0.29289323L11.707107 3.7071068C11.894643 3.8946431 12 4.1489973 12 4.4142137L12 13C12 13.552285 11.552285 14 11 14L1 14C0.44771525 14 0 13.552285 0 13L0 1C0 0.44771525 0.44771525 1.110223e-16 1 0L7.5857863 -8.8817842e-16ZM7.5 1L1 1L1 13L11 13L11 4.4990001L8.5 4.5C7.9477153 4.5 7.5 4.0522847 7.5 3.5L7.5 1ZM9 10L9 11L3 11L3 10L9 10ZM9 7L9 8L3 8L3 7L9 7ZM6 4L6 5L3 5L3 4L6 4ZM8.4989996 1.914L8.5 3.5L10.085 3.4990001L8.4989996 1.914Z"/>
</svg>
