<?xml version="1.0" encoding="utf-8" ?>
<svg xmlns="http://www.w3.org/2000/svg" xmlns:xlink="http://www.w3.org/1999/xlink" width="16" height="18">
	<path transform="translate(-4.86374e-05 0.000391006)" d="M9.1029434 -1.3322676e-15C9.4212036 -1.3322676e-15 9.726428 0.1264282 9.9514723 0.35147187L14.048528 4.4485283C14.273572 4.6735716 14.4 4.9787965 14.4 5.2970562L14.4 15.6C14.4 16.262741 13.862741 16.799999 13.2 16.799999L1.2 16.799999C0.53725833 16.799999 2.220446e-16 16.262741 2.220446e-16 15.6L0 1.2C0 0.53725833 0.53725833 -4.4408921e-16 1.2 -4.4408921e-16L9.1029434 -1.3322676e-15ZM9 1.199L1.2 1.2L1.2 15.6L13.2 15.6L13.2 5.3990002L10.2 5.4000001C9.5372581 5.4000001 9 4.8627415 9 4.1999998L9 1.199ZM10.8 12L10.8 13.2L3.5999999 13.2L3.5999999 12L10.8 12ZM10.8 8.3999996L10.8 9.6000004L3.5999999 9.6000004L3.5999999 8.3999996L10.8 8.3999996ZM7.1999998 4.8000002L7.1999998 6L3.5999999 6L3.5999999 4.8000002L7.1999998 4.8000002ZM10.1988 2.2955999L10.2 4.1999998L12.102 4.1989999L10.1988 2.2955999Z"/>
</svg>
