<?xml version="1.0" encoding="utf-8" ?>
<svg xmlns="http://www.w3.org/2000/svg" xmlns:xlink="http://www.w3.org/1999/xlink" width="16" height="16">
	<path fill="white" transform="translate(4 4)" d="M4.4115806 0.39898279C4.6322408 -0.13299614 5.367671 -0.13299239 5.5883312 0.39898279L5.9044905 1.162765C6.4443722 2.4656041 7.4518619 3.5059736 8.7181864 4.0690308L9.6153898 4.4680071C10.128235 4.6964183 10.128172 5.4425468 9.6153898 5.6710205L8.6657 6.093173C7.4311371 6.6419997 6.4416723 7.6455379 5.8922782 8.9054976L5.5834436 9.6119461C5.3578959 10.129352 4.6420283 10.129352 4.4164681 9.6119461L4.1076341 8.9054976C3.5582271 7.6455379 2.5687995 6.6419997 1.3342248 6.093173L0.38452199 5.6710205C-0.128144 5.4425592 -0.128204 4.6964183 0.38452199 4.4680071L1.2817378 4.0690308C2.5480373 3.505986 3.5555396 2.4656289 4.0954213 1.162765L4.4115806 0.39898279Z"/>
	<path fill="white" transform="translate(3 1)" d="M1.7646323 0.15959311C1.8528963 -0.053198453 2.1470683 -0.053196955 2.2353325 0.15959311L2.3617961 0.46510601C2.577749 0.98624158 2.9807448 1.4023894 3.4872746 1.6276122L3.8461559 1.7872028C4.0512938 1.8785673 4.0512691 2.1770189 3.8461559 2.2684083L3.4662797 2.4372692C2.972455 2.6568 2.576669 3.0582151 2.3569112 3.5621991L2.2333775 3.8447785C2.1431584 4.0517406 1.8568113 4.0517406 1.7665873 3.8447785L1.6430535 3.5621991C1.4232907 3.0582151 1.0275198 2.6568 0.53368992 2.4372692L0.1538088 2.2684083C-0.051257599 2.1770239 -0.051281597 1.8785673 0.1538088 1.7872028L0.51269513 1.6276122C1.0192149 1.4023944 1.4222158 0.98625159 1.6381686 0.46510601L1.7646323 0.15959311Z"/>
</svg>
