<?xml version="1.0" encoding="utf-8" ?>
<svg xmlns="http://www.w3.org/2000/svg" xmlns:xlink="http://www.w3.org/1999/xlink" width="16" height="16">
	<path transform="translate(1 4.03796)" d="M1 4.9620385C1.5522847 4.9620385 2 4.5143232 2 3.9620383C2 3.4097536 1.5522847 2.9620383 1 2.9620383C0.44771525 2.9620383 0 3.4097536 0 3.9620383C0 4.5143232 0.44771525 4.9620385 1 4.9620385ZM4 4.9620385C4.5522847 4.9620385 5 4.5143232 5 3.9620383C5 3.4097536 4.5522847 2.9620383 4 2.9620383C3.4477153 2.9620383 3 3.4097536 3 3.9620383C3 4.5143232 3.4477153 4.9620385 4 4.9620385ZM11.14396 0.20723949L14.179334 3.2426133C14.569858 3.6331375 14.569858 4.2663026 14.179334 4.656827L11.143781 7.69238C10.895342 7.9408188 10.507978 7.965663 10.231755 7.766912L10.144139 7.69238C9.8679094 7.4159732 9.8679781 6.9682546 10.144134 6.6920929L12.88644 3.9497199L10.143369 1.20719C9.8948402 0.95871103 9.8699522 0.57124954 10.068727 0.29493424L10.143479 0.20707929C10.419825 -0.069088973 10.867703 -0.069017261 11.14396 0.20723949ZM10 2.9620383C10.552285 2.9620383 11 3.4097536 11 3.9620383C11 4.5143232 10.552285 4.9620385 10 4.9620385L7 4.9620385C6.4477153 4.9620385 6 4.5143232 6 3.9620383C6 3.4097536 6.4477153 2.9620383 7 2.9620383L10 2.9620383Z"/>
</svg>
