<?xml version="1.0" encoding="UTF-8"?>
<svg width="32px" height="32px" viewBox="0 0 32 32" version="1.1" xmlns="http://www.w3.org/2000/svg" xmlns:xlink="http://www.w3.org/1999/xlink">
    <defs>
        <linearGradient x1="50%" y1="106.87104%" x2="50%" y2="-8.08228935%" id="linearGradient-1">
            <stop stop-color="#001563" offset="0%"></stop>
            <stop stop-color="#0065CB" offset="99.0763631%"></stop>
        </linearGradient>
        <linearGradient x1="87.1610068%" y1="28.2548315%" x2="24.8289069%" y2="88.4663437%" id="linearGradient-2">
            <stop stop-color="#006CFF" offset="0%"></stop>
            <stop stop-color="#4B95EA" stop-opacity="0" offset="100%"></stop>
        </linearGradient>
        <linearGradient x1="66.63035%" y1="50%" x2="15.7551025%" y2="35.0958664%" id="linearGradient-3">
            <stop stop-color="#5ADB70" stop-opacity="0" offset="0%"></stop>
            <stop stop-color="#11FFA4" offset="100%"></stop>
        </linearGradient>
        <linearGradient x1="28.1019151%" y1="100%" x2="86.565126%" y2="23.5866707%" id="linearGradient-4">
            <stop stop-color="#EEC61F" offset="0%"></stop>
            <stop stop-color="#8EFFC5" stop-opacity="0" offset="100%"></stop>
        </linearGradient>
        <linearGradient x1="86.6530834%" y1="73.9758333%" x2="50%" y2="54.99656%" id="linearGradient-5">
            <stop stop-color="#D840A5" offset="0%"></stop>
            <stop stop-color="#8EFFC5" stop-opacity="0" offset="100%"></stop>
        </linearGradient>
        <linearGradient x1="50%" y1="109.360765%" x2="50%" y2="-8.83481406%" id="linearGradient-6">
            <stop stop-color="#0069D2" offset="0%"></stop>
            <stop stop-color="#130B75" offset="100%"></stop>
        </linearGradient>
        <radialGradient cx="47.2363886%" cy="28.1009337%" fx="47.2363886%" fy="28.1009337%" r="85.8138107%" gradientTransform="translate(0.472364,0.281009),scale(1.000000,0.977173),rotate(90.000000),translate(-0.472364,-0.281009)" id="radialGradient-7">
            <stop stop-color="#EFF5FF" offset="0%"></stop>
            <stop stop-color="#E4EEFF" offset="40.9128%"></stop>
            <stop stop-color="#B6D1FF" offset="100%"></stop>
            <stop stop-color="#B6D1FF" offset="100%"></stop>
        </radialGradient>
    </defs>
    <g id="UosAiAssistant" stroke="none" stroke-width="1" fill="none" fill-rule="evenodd">
        <g transform="translate(2.000000, 2.000000)">
            <path d="M6.18018018,0 L21.8198198,0 C25.2330391,0 28,2.76696092 28,6.18018018 L28,21.8198198 C28,25.2330391 25.2330391,28 21.8198198,28 L6.18018018,28 C2.76696092,28 0,25.2330391 0,21.8198198 L0,6.18018018 C0,2.76696092 2.76696092,0 6.18018018,0 Z" id="蒙版" fill="url(#linearGradient-1)" fill-rule="nonzero"></path>
            <g id="路径" transform="translate(1.135135, 1.576577)">
                <g id="path-7-link" fill="url(#linearGradient-2)">
                    <path d="M12.8545294,6.66133815e-16 C18.7273256,6.66133815e-16 23.6528313,4.03521135 24.0759655,12.2749299 L24.0924887,12.6642469 C24.1433706,13.5368498 24.1026677,14.4821405 23.9803367,15.4682462 C24.1171795,15.6746662 24.2505618,15.8895649 24.3791003,16.1119409 C25.9197084,18.7772519 26.1810819,21.5074044 24.962893,22.2099082 C24.3071516,22.5880602 23.3563612,22.3016016 22.3778772,21.5407484 C21.6858323,23.2853611 20.8135266,24.9657017 19.8103644,26.4236686 L5.92732659,26.4243611 C4.9653949,24.9591059 4.13370404,23.2556529 3.46001333,21.4537962 C2.44421736,22.279466 1.44687018,22.6020688 0.766836945,22.2099082 C-0.45135193,21.5074044 -0.189978448,18.7772519 1.35062966,16.1119409 C1.50914706,15.8377004 1.6750312,15.5748317 1.8464149,15.3246632 C1.70260345,14.4193068 1.60495197,13.5268805 1.55582424,12.6642469 C1.48771554,4.98662068 6.82725786,6.66133815e-16 12.8545294,6.66133815e-16 Z" id="path-7"></path>
                </g>
                <g id="path-7-link" fill="url(#linearGradient-3)">
                    <path d="M12.8545294,6.66133815e-16 C18.7273256,6.66133815e-16 23.6528313,4.03521135 24.0759655,12.2749299 L24.0924887,12.6642469 C24.1433706,13.5368498 24.1026677,14.4821405 23.9803367,15.4682462 C24.1171795,15.6746662 24.2505618,15.8895649 24.3791003,16.1119409 C25.9197084,18.7772519 26.1810819,21.5074044 24.962893,22.2099082 C24.3071516,22.5880602 23.3563612,22.3016016 22.3778772,21.5407484 C21.6858323,23.2853611 20.8135266,24.9657017 19.8103644,26.4236686 L5.92732659,26.4243611 C4.9653949,24.9591059 4.13370404,23.2556529 3.46001333,21.4537962 C2.44421736,22.279466 1.44687018,22.6020688 0.766836945,22.2099082 C-0.45135193,21.5074044 -0.189978448,18.7772519 1.35062966,16.1119409 C1.50914706,15.8377004 1.6750312,15.5748317 1.8464149,15.3246632 C1.70260345,14.4193068 1.60495197,13.5268805 1.55582424,12.6642469 C1.48771554,4.98662068 6.82725786,6.66133815e-16 12.8545294,6.66133815e-16 Z" id="path-7"></path>
                </g>
                <g id="path-7-link" fill="url(#linearGradient-4)">
                    <path d="M12.8545294,6.66133815e-16 C18.7273256,6.66133815e-16 23.6528313,4.03521135 24.0759655,12.2749299 L24.0924887,12.6642469 C24.1433706,13.5368498 24.1026677,14.4821405 23.9803367,15.4682462 C24.1171795,15.6746662 24.2505618,15.8895649 24.3791003,16.1119409 C25.9197084,18.7772519 26.1810819,21.5074044 24.962893,22.2099082 C24.3071516,22.5880602 23.3563612,22.3016016 22.3778772,21.5407484 C21.6858323,23.2853611 20.8135266,24.9657017 19.8103644,26.4236686 L5.92732659,26.4243611 C4.9653949,24.9591059 4.13370404,23.2556529 3.46001333,21.4537962 C2.44421736,22.279466 1.44687018,22.6020688 0.766836945,22.2099082 C-0.45135193,21.5074044 -0.189978448,18.7772519 1.35062966,16.1119409 C1.50914706,15.8377004 1.6750312,15.5748317 1.8464149,15.3246632 C1.70260345,14.4193068 1.60495197,13.5268805 1.55582424,12.6642469 C1.48771554,4.98662068 6.82725786,6.66133815e-16 12.8545294,6.66133815e-16 Z" id="path-7"></path>
                </g>
                <g id="path-7-link" fill="url(#linearGradient-5)">
                    <path d="M12.8545294,6.66133815e-16 C18.7273256,6.66133815e-16 23.6528313,4.03521135 24.0759655,12.2749299 L24.0924887,12.6642469 C24.1433706,13.5368498 24.1026677,14.4821405 23.9803367,15.4682462 C24.1171795,15.6746662 24.2505618,15.8895649 24.3791003,16.1119409 C25.9197084,18.7772519 26.1810819,21.5074044 24.962893,22.2099082 C24.3071516,22.5880602 23.3563612,22.3016016 22.3778772,21.5407484 C21.6858323,23.2853611 20.8135266,24.9657017 19.8103644,26.4236686 L5.92732659,26.4243611 C4.9653949,24.9591059 4.13370404,23.2556529 3.46001333,21.4537962 C2.44421736,22.279466 1.44687018,22.6020688 0.766836945,22.2099082 C-0.45135193,21.5074044 -0.189978448,18.7772519 1.35062966,16.1119409 C1.50914706,15.8377004 1.6750312,15.5748317 1.8464149,15.3246632 C1.70260345,14.4193068 1.60495197,13.5268805 1.55582424,12.6642469 C1.48771554,4.98662068 6.82725786,6.66133815e-16 12.8545294,6.66133815e-16 Z" id="path-7"></path>
                </g>
                <g id="path-7-link"></g>
            </g>
            <g id="编组-3" opacity="0.898049491" stroke-linecap="round" stroke-linejoin="round" transform="translate(8.384600, 5.490967)" stroke="#00244E">
                <path d="M0,0.626126126 C0.228586452,0.402756492 0.556452154,0.373873874 0.728,0.373873874 C0.899547846,0.373873874 1.19911177,0.400349902 1.456,0.626126126" id="路径-2" stroke-width="0.63"></path>
                <path d="M4.92165586,6.42783243 C4.97884271,6.00588376 5.2595502,5.73413874 5.64688109,5.73413874 C6.03421198,5.73413874 6.29129768,6.04703114 6.37210631,6.42083254" id="路径-2" stroke-width="0.6" transform="translate(5.646881, 6.080986) rotate(-180.000000) translate(-5.646881, -6.080986) "></path>
                <path d="M9.77477477,0.626126126 C10.0033612,0.402756492 10.3312269,0.373873874 10.5027748,0.373873874 C10.6743226,0.373873874 10.9738865,0.400349902 11.2307748,0.626126126" id="路径-2" stroke-width="0.63"></path>
            </g>
            <path d="M19.1333333,12.1333333 C20.4219977,12.1333333 21.4666667,11.0886644 21.4666667,9.8 C21.4666667,8.51133558 20.4219977,7.46666667 19.1333333,7.46666667 C17.8446689,7.46666667 16.8,8.51133558 16.8,9.8 C16.8,11.0886644 17.8446689,12.1333333 19.1333333,12.1333333 Z M8.86666667,12.1333333 C10.1553311,12.1333333 11.2,11.0886644 11.2,9.8 C11.2,8.51133558 10.1553311,7.46666667 8.86666667,7.46666667 C7.57800225,7.46666667 6.53333333,8.51133558 6.53333333,9.8 C6.53333333,11.0886644 7.57800225,12.1333333 8.86666667,12.1333333 Z" id="形状结合" fill="#FFFFFF" fill-rule="nonzero"></path>
            <path d="M19.1333333,11.8263158 C20.1846122,11.8263158 21.0368421,10.9740859 21.0368421,9.92280702 C21.0368421,8.87152815 20.1846122,8.01929825 19.1333333,8.01929825 C18.0820545,8.01929825 17.2298246,8.87152815 17.2298246,9.92280702 C17.2298246,10.9740859 18.0820545,11.8263158 19.1333333,11.8263158 Z M8.86666667,11.8263158 C9.91794553,11.8263158 10.7701754,10.9740859 10.7701754,9.92280702 C10.7701754,8.87152815 9.91794553,8.01929825 8.86666667,8.01929825 C7.8153878,8.01929825 6.96315789,8.87152815 6.96315789,9.92280702 C6.96315789,10.9740859 7.8153878,11.8263158 8.86666667,11.8263158 Z" id="形状结合" fill="url(#linearGradient-6)" fill-rule="nonzero"></path>
            <path d="M20.177193,11.2122807 C20.4484908,11.2122807 20.6684211,10.9923504 20.6684211,10.7210527 C20.6684211,10.4497549 20.4484908,10.2298246 20.177193,10.2298246 C19.9058952,10.2298246 19.6859649,10.4497549 19.6859649,10.7210527 C19.6859649,10.9923504 19.9058952,11.2122807 20.177193,11.2122807 Z M9.91052632,11.2122807 C10.1818241,11.2122807 10.4017544,10.9923504 10.4017544,10.7210527 C10.4017544,10.4497549 10.1818241,10.2298246 9.91052632,10.2298246 C9.63922854,10.2298246 9.41929825,10.4497549 9.41929825,10.7210527 C9.41929825,10.9923504 9.63922854,11.2122807 9.91052632,11.2122807 Z" id="形状结合" fill="#FFFFFF" fill-rule="nonzero"></path>
            <path d="M20.7398794,20.1040506 C20.8539107,22.9269717 19.7160255,25.9163533 18.1375567,27.999612 L9.89879165,27.9999486 C8.31303528,25.8970187 7.16444823,22.8822613 7.25752867,20.1040506 C7.42274272,15.1728381 10.2756557,14.1891892 13.998704,14.1891892 C17.7217524,14.1891892 20.5363436,15.0653842 20.7398794,20.1040506 Z" id="形状结合" fill="url(#radialGradient-7)" fill-rule="nonzero"></path>
        </g>
    </g>
</svg>