<?xml version="1.0" encoding="UTF-8"?>
<svg width="13px" height="13px" viewBox="0 0 13 13" version="1.1" xmlns="http://www.w3.org/2000/svg" xmlns:xlink="http://www.w3.org/1999/xlink">
    <g id="草稿4" stroke="none" stroke-width="1" fill="none" fill-rule="evenodd">
        <g id="招投标宝典" transform="translate(-617, -394)" fill="#0081FF" fill-rule="nonzero">
            <g id="应用窗口" transform="translate(52, 57)">
                <g id="编组-35" transform="translate(20, 66)">
                    <g id="编组-23" transform="translate(14, 251.0999)">
                        <g id="编组-9" transform="translate(529, 0)">
                            <g id="编组" transform="translate(2.1, 0)">
                                <path d="M2,24.3750246 L2,32.300075 L1.77515847,32.300075 C1.30434553,32.300075 0.8529085,32.1131167 0.519962191,31.780249 C0.187044696,31.44741 0,30.9958707 0,30.5250755 L0,26.1500766 C0,25.6793412 0.187040025,25.2278531 0.519962191,24.8950094 C0.852867857,24.562132 1.30435889,24.3751303 1.77515847,24.3751303 L2,24.3750246 Z M5.59445302,20.0000246 C5.99606714,19.9982389 6.39197583,20.0937849 6.74826297,20.2785031 C7.10462851,20.4631844 7.41087402,20.7315915 7.64068943,21.0606524 C7.87046964,21.3896628 8.01702551,21.7695429 8.06781835,22.167727 C8.11854477,22.5657909 8.07191856,22.9703029 7.93196249,23.346502 L7.58257413,24.2386664 L7.67568902,24.3751303 L10.525898,24.3751303 C10.7856009,24.3755831 11.0421544,24.4330255 11.2771921,24.543418 C11.5124155,24.653874 11.7204636,24.8145318 11.8867984,25.0142271 C12.0536788,25.2138427 12.1745979,25.4476333 12.2410731,25.6991709 C12.3075652,25.9507727 12.3179384,26.2138449 12.2714174,26.4696636 L11.4776039,30.8447015 C11.4029217,31.2529792 11.1873001,31.6223389 10.8683487,31.8883272 C10.5492768,32.1543237 10.1471675,32.300075 9.73209155,32.300075 L3.2,32.300075 L3.2,24.3750246 L3.24403261,24.3751303 L3.33540668,24.31576 L5.11680723,20.3094898 C5.15806869,20.2177732 5.22518412,20.1395475 5.30993441,20.0845851 C5.39471616,20.0296469 5.49348777,20.0003051 5.59445302,20.0000246 Z" id="形状"></path>
                            </g>
                        </g>
                    </g>
                </g>
            </g>
        </g>
    </g>
</svg>