<?xml version="1.0" encoding="UTF-8"?>
<svg width="13px" height="13px" viewBox="0 0 13 13" version="1.1" xmlns="http://www.w3.org/2000/svg" xmlns:xlink="http://www.w3.org/1999/xlink">
    <g id="草稿4" stroke="none" stroke-width="1" fill-rule="evenodd" fill-opacity="0.7">
        <g id="招投标宝典" transform="translate(-737, -682)" fill-rule="nonzero">
            <path d="M742.694453,682.600025 C743.096067,682.598214 743.491976,682.69376 743.848263,682.878479 C744.204629,683.06316 744.510874,683.331567 744.740689,683.660628 C744.97047,683.989638 745.117026,684.369518 745.167818,684.767702 C745.218545,685.165766 745.171919,685.570278 745.031962,685.946477 L744.682574,686.838642 L744.775689,686.975106 L747.625898,686.975106 C747.885601,686.975559 748.142154,687.033001 748.377192,687.143393 C748.612415,687.253849 748.820464,687.414507 748.986798,687.614202 C749.153679,687.813818 749.274598,688.047609 749.341073,688.299146 C749.407565,688.550748 749.417938,688.81382 749.371417,689.069639 L748.577604,693.444677 C748.502922,693.852955 748.2873,694.222314 747.968349,694.488303 C747.649277,694.754299 747.247168,694.90005 746.832092,694.90005 L738.875158,694.90005 C738.404346,694.90005 737.952909,694.713092 737.619962,694.380224 C737.287045,694.047385 737.1,693.595846 737.1,693.125051 L737.1,688.750052 C737.1,688.279317 737.28704,687.827828 737.619962,687.494985 C737.952868,687.162107 738.404359,686.975106 738.875158,686.975106 L740.344033,686.975106 L740.435407,686.915735 L742.216807,682.909465 C742.258069,682.817749 742.325184,682.739523 742.409934,682.68456 C742.494716,682.629622 742.593488,682.60028 742.694453,682.600025 Z M740.125264,688.025052 L738.875158,688.025052 C738.682917,688.025052 738.498502,688.101448 738.362518,688.237358 C738.226483,688.373444 738.150106,688.557784 738.150106,688.750052 L738.150106,693.125052 C738.150106,693.317364 738.226477,693.501707 738.362486,693.637766 C738.498441,693.773709 738.682844,693.850051 738.875158,693.850051 L740.125264,693.850051 L740.225264,693.750051 L740.225264,688.125052 L740.125264,688.025052 Z M743.103488,683.710331 L742.984123,683.765719 L741.28399,687.590707 L741.27537,693.750136 L741.37537,693.850313 L746.832092,693.850313 C747.00223,693.852861 747.169298,693.794634 747.302062,693.685733 C747.434794,693.57693 747.524625,693.424466 747.555513,693.255549 L748.349566,688.879144 C748.367255,688.773948 748.361481,688.666126 748.332684,688.563278 C748.303808,688.460494 748.252643,688.365389 748.182811,688.284654 C748.115882,688.204259 748.030487,688.138416 747.934044,688.093344 C747.837639,688.048223 747.732407,688.024929 747.625782,688.025052 L744.775689,688.025052 C744.590267,688.024759 744.40759,687.979578 744.243304,687.893335 C744.078994,687.807079 743.937968,687.682343 743.832354,687.52985 C743.726715,687.377323 743.659544,687.201496 743.636616,687.017452 C743.61364,686.833367 743.635562,686.646435 743.700479,686.472588 L744.031852,685.578601 C744.101588,685.396593 744.132975,685.200891 744.123707,685.004896 C744.114321,684.808905 744.064472,684.617089 743.977257,684.441532 C743.890067,684.26591 743.767416,684.110226 743.617093,683.984386 C743.466618,683.858515 743.291762,683.765213 743.103488,683.710331 Z" id="形状"></path>
        </g>
    </g>
</svg>