<?xml version="1.0" encoding="utf-8" ?>
<svg xmlns="http://www.w3.org/2000/svg" xmlns:xlink="http://www.w3.org/1999/xlink" width="20" height="20">
	<path fill-opacity="1"  transform="translate(3 3)" d="M9.232233 9.232233L9.9393396 9.9393396L8.8786793 11L9.9393396 12.06066L9.232233 12.767767L7.4644661 11L9.232233 9.232233ZM11.767767 9.232233L13.535534 11L11.767767 12.767767L11.06066 12.06066L12.121321 11L11.06066 9.9393396L11.767767 9.232233ZM12 0C12.552285 0 13 0.44771525 13 1L13 8L12 8L12 5L1 5L1 11L6 11L6 12L1 12C0.44771525 12 0 11.552285 0 11L0 1C0 0.44771525 0.44771525 0 1 0L12 0ZM12 1L1 1L1 4L12 4L12 1ZM3 2L3 3L2 3L2 2L3 2ZM5 2L5 3L4 3L4 2L5 2Z"/>
</svg>
