<?xml version="1.0" encoding="utf-8" ?>
<svg xmlns="http://www.w3.org/2000/svg" xmlns:xlink="http://www.w3.org/1999/xlink" width="20" height="20">
	<path transform="translate(1 4)" d="M1 0L1 6L8 6L8 0L9 0L9 13L8 13L8 7L1 7L1 13L0 13L0 0L1 0ZM12.482422 10.861328C12.552734 11.462891 12.832031 11.878906 13.320312 12.109375C13.570312 12.226562 13.859375 12.285156 14.1875 12.285156C14.8125 12.285156 15.275391 12.085938 15.576172 11.6875C15.876953 11.289062 16.027344 10.847656 16.027344 10.363281C16.027344 9.7773438 15.848633 9.3242188 15.491211 9.0039062C15.133789 8.6835938 14.705078 8.5234375 14.205078 8.5234375C13.841797 8.5234375 13.530273 8.59375 13.270508 8.734375C13.010742 8.875 12.789062 9.0703125 12.605469 9.3203125L11.691406 9.2675781L12.330078 4.75L16.689453 4.75L16.689453 5.7695312L13.121094 5.7695312L12.763672 8.1015625C12.958984 7.953125 13.144531 7.8417969 13.320312 7.7675781C13.632812 7.6386719 13.994141 7.5742188 14.404297 7.5742188C15.173828 7.5742188 15.826172 7.8222656 16.361328 8.3183594C16.896484 8.8144531 17.164062 9.4433594 17.164062 10.205078C17.164062 10.998047 16.918945 11.697266 16.428711 12.302734C15.938477 12.908203 15.15625 13.210938 14.082031 13.210938C13.398438 13.210938 12.793945 13.018555 12.268555 12.633789C11.743164 12.249023 11.449219 11.658203 11.386719 10.861328L12.482422 10.861328Z"/>
</svg>
