<?xml version="1.0" encoding="utf-8" ?>
<svg xmlns="http://www.w3.org/2000/svg" xmlns:xlink="http://www.w3.org/1999/xlink" width="20" height="20">
	<path transform="translate(2.5 8.5)" d="M1.5 3C2.3284271 3 3 2.3284271 3 1.5C3 0.67157286 2.3284271 0 1.5 0C0.67157286 0 0 0.67157286 0 1.5C0 2.3284271 0.67157286 3 1.5 3ZM7.5 3C8.3284273 3 9 2.3284271 9 1.5C9 0.67157286 8.3284273 0 7.5 0C6.6715727 0 6 0.67157286 6 1.5C6 2.3284271 6.6715727 3 7.5 3ZM13.5 3C14.328427 3 15 2.3284271 15 1.5C15 0.67157286 14.328427 0 13.5 0C12.671573 0 12 0.67157286 12 1.5C12 2.3284271 12.671573 3 13.5 3Z" fill-rule="evenodd"/>
</svg>
