<?xml version="1.0" encoding="utf-8" ?>
<svg xmlns="http://www.w3.org/2000/svg" xmlns:xlink="http://www.w3.org/1999/xlink" width="20" height="20">
	<path transform="translate(3.13184 2.45996)" d="M3.8681641 1.5400391L13.868164 1.5400391L13.868164 2.5400391L3.8681641 2.5400391L3.8681641 1.5400391ZM1.7602539 3.5400391L1.0473633 3.5400391L1.0473633 1.0986328L0.21484375 1.0986328L0.21484375 0.625C0.43457031 0.61523438 0.58837891 0.60058594 0.67626953 0.58105469C0.81624347 0.55013019 0.93017578 0.48828125 1.0180664 0.39550781C1.0782877 0.33203125 1.1238607 0.24739583 1.1547852 0.14160156C1.1726888 0.078125 1.1816406 0.030924479 1.1816406 0L1.7602539 0L1.7602539 3.5400391ZM1.6064453 6.2773438C1.5234375 6.1780601 1.4046224 6.128418 1.25 6.128418C1.0384115 6.128418 0.89436847 6.2073569 0.81787109 6.3652344C0.77392578 6.4563804 0.74788409 6.6012368 0.73974609 6.7998047L0.063476562 6.7998047C0.074869789 6.4986978 0.12939453 6.2553711 0.22705078 6.0698242C0.41259766 5.7166343 0.7421875 5.5400391 1.2158203 5.5400391C1.5901693 5.5400391 1.8880209 5.6437988 2.109375 5.8513184C2.3307292 6.0588379 2.4414062 6.3334961 2.4414062 6.675293C2.4414062 6.9373374 2.3632812 7.1700845 2.2070312 7.3735352C2.1044922 7.5086265 1.9360352 7.6591797 1.7016602 7.8251953L1.4233398 8.0229492C1.2491862 8.1466475 1.1299642 8.236165 1.0656738 8.2915039C1.0013834 8.3468428 0.94726562 8.4111328 0.90332031 8.484375L2.4487305 8.484375L2.4487305 9.097168L0.024414062 9.097168C0.030924479 8.8432617 0.085449219 8.6113281 0.18798828 8.4013672C0.28727213 8.1653643 0.52164716 7.9155273 0.89111328 7.6518555C1.2117513 7.4223633 1.4192709 7.2579751 1.5136719 7.1586914C1.6585287 7.0040689 1.730957 6.8347983 1.730957 6.6508789C1.730957 6.5011392 1.6894531 6.3766274 1.6064453 6.2773438ZM0.82519531 11.705566C0.74707031 11.809733 0.70963544 11.948894 0.71289062 12.123047L0.063476562 12.123047C0.069986977 11.947266 0.10009766 11.780437 0.15380859 11.622559C0.21077473 11.484212 0.30029297 11.356445 0.42236328 11.239258C0.51350909 11.15625 0.62174481 11.092773 0.74707031 11.048828C0.87239581 11.004883 1.0262045 10.98291 1.2084961 10.98291C1.5470377 10.98291 1.8200684 11.070394 2.0275879 11.245361C2.2351074 11.420329 2.3388672 11.65511 2.3388672 11.949707C2.3388672 12.15804 2.2770183 12.333821 2.1533203 12.477051C2.0751953 12.566569 1.9938151 12.627604 1.9091797 12.660156C1.9726562 12.660156 2.063802 12.714681 2.1826172 12.82373C2.3600261 12.988118 2.4487305 13.212728 2.4487305 13.497559C2.4487305 13.797038 2.3449707 14.060303 2.1374512 14.287354C1.9299316 14.514404 1.6227213 14.62793 1.2158203 14.62793C0.71451825 14.62793 0.36621094 14.464355 0.17089844 14.137207C0.068359375 13.963054 0.011393229 13.735188 0 13.453613L0.68359375 13.453613C0.68359375 13.595215 0.70638019 13.712402 0.75195312 13.805176C0.83658856 13.976074 0.99039716 14.061523 1.2133789 14.061523C1.3500977 14.061523 1.4693197 14.014729 1.5710449 13.921143C1.6727701 13.827556 1.7236328 13.692871 1.7236328 13.51709C1.7236328 13.284343 1.6292318 13.128906 1.4404297 13.050781C1.3330078 13.006836 1.1637369 12.984863 0.93261719 12.984863L0.93261719 12.486816C1.1588541 12.483562 1.3167318 12.461589 1.40625 12.420898C1.5608724 12.352539 1.6381836 12.214192 1.6381836 12.005859C1.6381836 11.870769 1.5987142 11.760905 1.5197754 11.67627C1.4408365 11.591634 1.3297526 11.549316 1.1865234 11.549316C1.0221354 11.549316 0.90169269 11.601399 0.82519531 11.705566ZM3.8681641 7.0400391L13.868164 7.0400391L13.868164 8.0400391L3.8681641 8.0400391L3.8681641 7.0400391ZM3.8681641 12.540039L13.868164 12.540039L13.868164 13.540039L3.8681641 13.540039L3.8681641 12.540039Z"/>
</svg>
