<?xml version="1.0" encoding="utf-8" ?>
<svg xmlns="http://www.w3.org/2000/svg" xmlns:xlink="http://www.w3.org/1999/xlink" width="20" height="20">
	<path transform="translate(1 4)" d="M1 0L1 6L8 6L8 0L9 0L9 13L8 13L8 7L1 7L1 13L0 13L0 0L1 0ZM14.117188 13.228516C13.125 13.228516 12.405273 12.956055 11.958008 12.411133C11.510742 11.866211 11.287109 11.203125 11.287109 10.421875L12.388672 10.421875C12.435547 10.964844 12.537109 11.359375 12.693359 11.605469C12.966797 12.046875 13.460938 12.267578 14.175781 12.267578C14.730469 12.267578 15.175781 12.119141 15.511719 11.822266C15.847656 11.525391 16.015625 11.142578 16.015625 10.673828C16.015625 10.095703 15.838867 9.6914062 15.485352 9.4609375C15.131836 9.2304688 14.640625 9.1152344 14.011719 9.1152344C13.941406 9.1152344 13.870117 9.1162109 13.797852 9.1181641C13.725586 9.1201172 13.652344 9.1230469 13.578125 9.1269531L13.578125 8.1953125C13.6875 8.2070312 13.779297 8.2148438 13.853516 8.21875C13.927734 8.2226562 14.007812 8.2246094 14.09375 8.2246094C14.488281 8.2246094 14.8125 8.1621094 15.066406 8.0371094C15.511719 7.8183594 15.734375 7.4277344 15.734375 6.8652344C15.734375 6.4472656 15.585938 6.125 15.289062 5.8984375C14.992188 5.671875 14.646484 5.5585938 14.251953 5.5585938C13.548828 5.5585938 13.0625 5.7929688 12.792969 6.2617188C12.644531 6.5195312 12.560547 6.8867188 12.541016 7.3632812L11.498047 7.3632812C11.498047 6.7382812 11.623047 6.2070312 11.873047 5.7695312C12.302734 4.9882812 13.058594 4.5976562 14.140625 4.5976562C14.996094 4.5976562 15.658203 4.7880859 16.126953 5.1689453C16.595703 5.5498047 16.830078 6.1015625 16.830078 6.8242188C16.830078 7.3398438 16.691406 7.7578125 16.414062 8.078125C16.242188 8.2773438 16.019531 8.4335938 15.746094 8.546875C16.1875 8.6679688 16.532227 8.9013672 16.780273 9.2470703C17.02832 9.5927734 17.152344 10.015625 17.152344 10.515625C17.152344 11.316406 16.888672 11.96875 16.361328 12.472656C15.833984 12.976562 15.085938 13.228516 14.117188 13.228516Z"/>
</svg>
