<?xml version="1.0" encoding="utf-8" ?>
<svg xmlns="http://www.w3.org/2000/svg" xmlns:xlink="http://www.w3.org/1999/xlink" width="20" height="20">
	<path transform="translate(3 3)" d="M11 12L11 13C11 13.552285 10.552285 14 10 14L4 14C3.4477153 14 3 13.552285 3 13L3 12L1 12C0.44771525 12 0 11.552285 0 11L0 4C0 3.4477153 0.44771525 3 1 3L3 3L3 1C3 0.44771525 3.4477153 0 4 0L10 0C10.552285 0 11 0.44771525 11 1L11 3L13 3C13.552285 3 14 3.4477153 14 4L14 11C14 11.552285 13.552285 12 13 12L11 12ZM10 10L4 10L4 13L10 13L10 10ZM4 5L4 6L2 6L2 5L4 5ZM10 1L4 1L4 3L10 3L10 1ZM11 11L13 11L13 4L1 4L1 11L3 11L3 9L11 9L11 11Z" fill-rule="evenodd"/>
</svg>
