<?xml version="1.0" encoding="utf-8" ?>
<svg xmlns="http://www.w3.org/2000/svg" xmlns:xlink="http://www.w3.org/1999/xlink" width="20" height="20">
	<path transform="translate(1 4)" d="M1 0L1 6L8 6L8 0L9 0L9 13L8 13L8 7L1 7L1 13L0 13L0 0L1 0ZM11.375 13C11.414062 12.277344 11.563477 11.648438 11.823242 11.113281C12.083008 10.578125 12.589844 10.091797 13.34375 9.6542969L14.46875 9.0039062C14.972656 8.7109375 15.326172 8.4609375 15.529297 8.2539062C15.849609 7.9296875 16.009766 7.5585938 16.009766 7.140625C16.009766 6.6523438 15.863281 6.2646484 15.570312 5.9775391C15.277344 5.6904297 14.886719 5.546875 14.398438 5.546875C13.675781 5.546875 13.175781 5.8203125 12.898438 6.3671875C12.75 6.6601562 12.667969 7.0664062 12.652344 7.5859375L11.580078 7.5859375C11.591797 6.8554688 11.726562 6.2597656 11.984375 5.7988281C12.441406 4.9863281 13.248047 4.5800781 14.404297 4.5800781C15.365234 4.5800781 16.067383 4.8398438 16.510742 5.359375C16.954102 5.8789062 17.175781 6.4570312 17.175781 7.09375C17.175781 7.765625 16.939453 8.3398438 16.466797 8.8164062C16.193359 9.09375 15.703125 9.4296875 14.996094 9.8242188L14.193359 10.269531C13.810547 10.480469 13.509766 10.681641 13.291016 10.873047C12.900391 11.212891 12.654297 11.589844 12.552734 12.003906L17.134766 12.003906L17.134766 13L11.375 13Z"/>
</svg>
