<?xml version="1.0" encoding="utf-8" ?>
<svg xmlns="http://www.w3.org/2000/svg" xmlns:xlink="http://www.w3.org/1999/xlink" width="20" height="20">
	<path transform="translate(5 3.5)" d="M5.4432626 0C7.4702749 0 9.1134748 1.5769607 9.1134748 3.5222514C9.1134748 4.4402924 8.7463589 5.3021688 8.0992146 5.9532094L7.8197279 6.2343783L8.1698914 6.4294934C9.2938347 7.0557675 10 8.2075958 10 9.4777489C10 11.42305 8.3568068 13 6.3297873 13L0 13L0 0L5.4432626 0ZM6.3297873 7.0445027L1.1347518 7.0445027L1.1347518 11.910995L6.3297873 11.910995C7.730073 11.910995 8.8652487 10.821584 8.8652487 9.4777489C8.8652487 8.133914 7.730073 7.0445027 6.3297873 7.0445027ZM5.4432626 1.0890052L1.1347518 1.0890052L1.1347518 5.9554973L5.4432626 5.9554973C6.8435512 5.9554973 7.9787235 4.8660917 7.9787235 3.5222514C7.9787235 2.178411 6.8435512 1.0890052 5.4432626 1.0890052Z"/>
</svg>
