<?xml version="1.0" encoding="utf-8" ?>
<svg xmlns="http://www.w3.org/2000/svg" xmlns:xlink="http://www.w3.org/1999/xlink" width="20" height="20">
	<path transform="matrix(-1 0 0 1 18 2)" d="M4.1379309 7L0 3.5L4.1379309 0L4.1370001 3L9.3103447 3C12.452655 3 15 5.4624338 15 8.5C15 11.537566 12.452655 14 9.3103447 14L2.5689654 14C2.2928231 14 2.0689654 13.776142 2.0689654 13.5C2.0689654 13.223858 2.2928231 13 2.5689654 13L9.3103447 13C11.881326 13 13.965517 10.985281 13.965517 8.5C13.965517 6.0147185 11.881326 4 9.3103447 4L4.1370001 4L4.1379309 7Z"/>
</svg>
