<?xml version="1.0" encoding="utf-8" ?>
<svg xmlns="http://www.w3.org/2000/svg" xmlns:xlink="http://www.w3.org/1999/xlink" width="20" height="20">
	<path transform="translate(1 4)" d="M1 0L1 6L8 6L8 0L9 0L9 13L8 13L8 7L1 7L1 13L0 13L0 0L1 0ZM14.966797 10.029297L14.966797 6.2265625L12.277344 10.029297L14.966797 10.029297ZM14.984375 13L14.984375 10.949219L11.304688 10.949219L11.304688 9.9179688L15.148438 4.5859375L16.039062 4.5859375L16.039062 10.029297L17.275391 10.029297L17.275391 10.949219L16.039062 10.949219L16.039062 13L14.984375 13Z"/>
</svg>
