<?xml version="1.0" encoding="utf-8" ?>
<svg xmlns="http://www.w3.org/2000/svg" xmlns:xlink="http://www.w3.org/1999/xlink" width="20" height="20">
	<path transform="translate(1 4)" d="M1 0L1 6L8 6L8 0L9 0L9 13L8 13L8 7L1 7L1 13L0 13L0 0L1 0ZM14.509766 4.5742188C15.447266 4.5742188 16.100586 4.8173828 16.469727 5.3037109C16.838867 5.7900391 17.023438 6.2910156 17.023438 6.8066406L15.980469 6.8066406C15.917969 6.4746094 15.818359 6.2148438 15.681641 6.0273438C15.427734 5.6757812 15.042969 5.5 14.527344 5.5C13.9375 5.5 13.46875 5.7724609 13.121094 6.3173828C12.773438 6.8623047 12.580078 7.6425781 12.541016 8.6582031C12.783203 8.3027344 13.087891 8.0371094 13.455078 7.8613281C13.791016 7.7050781 14.166016 7.6269531 14.580078 7.6269531C15.283203 7.6269531 15.896484 7.8515625 16.419922 8.3007812C16.943359 8.75 17.205078 9.4199219 17.205078 10.310547C17.205078 11.072266 16.957031 11.74707 16.460938 12.334961C15.964844 12.922852 15.257812 13.216797 14.339844 13.216797C13.554688 13.216797 12.876953 12.918945 12.306641 12.323242C11.736328 11.727539 11.451172 10.724609 11.451172 9.3144531C11.451172 8.2714844 11.578125 7.3867188 11.832031 6.6601562C12.320312 5.2695312 13.212891 4.5742188 14.509766 4.5742188ZM14.433594 12.279297C14.988281 12.279297 15.40332 12.092773 15.678711 11.719727C15.954102 11.34668 16.091797 10.90625 16.091797 10.398438C16.091797 9.96875 15.96875 9.5595703 15.722656 9.1708984C15.476562 8.7822266 15.029297 8.5878906 14.380859 8.5878906C13.927734 8.5878906 13.530273 8.7382812 13.188477 9.0390625C12.84668 9.3398438 12.675781 9.7929688 12.675781 10.398438C12.675781 10.929688 12.831055 11.375977 13.141602 11.737305C13.452148 12.098633 13.882812 12.279297 14.433594 12.279297Z"/>
</svg>
