<?xml version="1.0" encoding="UTF-8"?>
<svg width="18px" height="18px" viewBox="0 0 18 18" version="1.1" xmlns="http://www.w3.org/2000/svg" xmlns:xlink="http://www.w3.org/1999/xlink">
    <g id="meeting" stroke="none" stroke-width="1" fill-rule="evenodd" fill-opacity="0.7">
        <path d="M7.28526255,13.60035 C7.41276351,13.60035 7.52242577,13.688471 7.54694606,13.8106302 C7.67209904,14.4330385 8.17271098,14.924925 8.7860317,15.045727 C8.91031309,15.0703661 8.99962798,15.1770533 8.99962798,15.3008692 C8.99962798,15.4246852 8.91031309,15.5313724 8.7860317,15.5560115 C8.17271098,15.6764664 7.67174349,16.1680058 7.54694606,16.7897197 C7.52242577,16.911879 7.41276351,17 7.28526255,17 C7.15776159,17 7.04809933,16.911879 7.02357904,16.7897197 C6.89842606,16.1676586 6.39816967,15.6764664 5.7844934,15.5556644 C5.66021201,15.5310253 5.57089712,15.424338 5.57089712,15.3005221 C5.57089712,15.1767062 5.66021201,15.0700189 5.7844934,15.0453799 C6.39781412,14.924925 6.8987816,14.4326913 7.02357904,13.8106302 C7.04809933,13.688471 7.15776159,13.60035 7.28526255,13.60035 Z M13.6423339,7.93426655 C13.8920506,7.93426655 14.1068294,8.1088946 14.1548535,8.35097582 C14.3999716,9.58439281 15.3804438,10.5591568 16.5816615,10.7985484 C16.8250726,10.8473753 17,11.0587958 17,11.30416 C17,11.5495241 16.8250726,11.7609446 16.5816615,11.8097715 C15.3804438,12.0484752 14.3992752,13.0225513 14.1548535,14.2545925 C14.1068294,14.4966737 13.8920506,14.6713017 13.6423339,14.6713017 C13.3926173,14.6713017 13.1778385,14.4966737 13.1298144,14.2545925 C12.8846963,13.0218634 11.9049204,12.0484752 10.7030063,11.8090836 C10.4595953,11.7602567 10.2846679,11.5488362 10.2846679,11.303472 C10.2846679,11.0581079 10.4595953,10.8466874 10.7030063,10.7978605 C11.9042241,10.5591568 12.8853927,9.5837049 13.1298144,8.35097582 C13.1778385,8.1088946 13.3926173,7.93426655 13.6423339,7.93426655 Z M9.81749665,2.11864866 L11.6700544,3.96439365 C11.8880734,4.18161086 11.8887233,4.53443949 11.6715061,4.75245846 L4.23223372,12.1617587 L1.33411383,12.7442536 C1.18325138,12.7745755 1.03637242,12.6768581 1.00605049,12.5259957 C0.998739545,12.4896211 0.998767073,12.4521527 1.00613146,12.4157889 L1.59059457,9.5298341 L9.03092995,2.11860245 C9.24838851,1.9019945 9.60006354,1.90201516 9.81749665,2.11864866 Z M11.7817425,0.16100003 L13.6347212,2.00619127 C13.8534163,2.22549373 13.8529231,2.57832262 13.6350006,2.79563668 L13.1162605,3.31292869 C12.8988236,3.52975854 12.5469515,3.52982126 12.3294373,3.31306893 L10.4769256,1.46704554 C10.2583071,1.24766426 10.2589254,0.894835573 10.4769249,0.677598821 L10.9951981,0.161138962 C11.2126031,-0.0555053681 11.564261,-0.0555674831 11.7817425,0.16100003 Z"></path>
    </g>
</svg>