<?xml version="1.0" encoding="UTF-8"?>
<svg width="9px" height="13px" viewBox="0 0 9 13" version="1.1" xmlns="http://www.w3.org/2000/svg" xmlns:xlink="http://www.w3.org/1999/xlink">
    <g id="桌面版" stroke="none" stroke-width="1" fill="none" fill-rule="evenodd">
        <g id="聊天框各状态" transform="translate(-1517.000000, -832.000000)" fill="#00D37D" fill-rule="nonzero">
            <g id="编组-4" transform="translate(1221.000000, 144.000000)">
                <g id="编组" transform="translate(10.000000, 676.000000)">
                    <g id="编组-58" transform="translate(280.000000, 0.000000)">
                        <path d="M14.9609589,17.0273991 C14.9177205,16.9367434 14.8268456,16.8798833 14.7279959,16.8816348 L10.8205707,16.8816348 L11.8106635,12.352143 C11.8483192,12.2185898 11.7824708,12.0773587 11.6571197,12.0228236 C11.5417609,11.9711466 11.4066669,12.0095357 11.3341483,12.1146011 L6.03953425,19.6727519 C5.98682192,19.758611 5.98682192,19.867624 6.03953425,19.9534832 C6.07508817,20.0465963 6.15906239,20.1113369 6.25661343,20.1208422 L10.1640386,20.1208422 L9.17394576,24.650334 C9.13629011,24.7838872 9.20213854,24.9251183 9.32748957,24.9796534 C9.44310945,25.0271337 9.57559031,24.9894871 9.65046102,24.8878759 L14.9450751,17.3297251 C15.0119939,17.2423065 15.0183353,17.1216073 14.9609589,17.0273991 L14.9609589,17.0273991 Z" id="3.5"></path>
                    </g>
                </g>
            </g>
        </g>
    </g>
</svg>