<?xml version="1.0" encoding="utf-8" ?>
<svg xmlns="http://www.w3.org/2000/svg" xmlns:xlink="http://www.w3.org/1999/xlink" width="24" height="24">
	<defs>
		<linearGradient id="gradient_0" gradientUnits="userSpaceOnUse" x1="10" y1="0.71785927" x2="10" y2="19.443615">
			<stop offset="0" stop-color="#EFF5FF"/>
			<stop offset="1" stop-color="#E1EEFF"/>
		</linearGradient>
	</defs>
	<path fill="url(#gradient_0)" transform="translate(2 1)" d="M4.4144144 0L15.585586 0C18.0236 0 20 1.9764006 20 4.4144144L20 15.585586C20 18.0236 18.0236 20 15.585586 20L4.4144144 20C1.9764006 20 0 18.0236 0 15.585586L0 4.4144144C0 1.9764006 1.9764006 0 4.4144144 0Z" fill-rule="evenodd"/>
	<defs>
		<linearGradient id="gradient_1" gradientUnits="userSpaceOnUse" x1="10" y1="0" x2="10" y2="19.346613">
			<stop offset="0" stop-color="#00DFFF"/>
			<stop offset="1" stop-color="#0088FD"/>
		</linearGradient>
	</defs>
	<path fill="url(#gradient_1)" transform="translate(2 1)" d="M4.4144144 0L15.585586 0C18.0236 0 20 1.9764006 20 4.4144144L20 15.585586C20 18.0236 18.0236 20 15.585586 20L4.4144144 20C1.9764006 20 0 18.0236 0 15.585586L0 4.4144144C0 1.9764006 1.9764006 0 4.4144144 0Z" fill-rule="evenodd"/>
	<path fill="white" transform="translate(7 9.75)" d="M2.0833333 1.0416666Q2.0833333 1.0928404 2.0783172 1.1437678Q2.0733013 1.1946952 2.0633178 1.2448857Q2.0533342 1.2950763 2.0384793 1.3440465Q2.0236244 1.3930168 2.004041 1.4402951Q1.9844577 1.4875736 1.9603345 1.5327048Q1.9362113 1.577836 1.9077805 1.6203855Q1.8793501 1.662935 1.8468858 1.702493Q1.8144215 1.7420509 1.7782362 1.7782362Q1.7420509 1.8144215 1.702493 1.8468858Q1.662935 1.8793501 1.6203854 1.9077805Q1.577836 1.9362112 1.5327048 1.9603343Q1.4875735 1.9844575 1.440295 2.0040407Q1.3930167 2.0236242 1.3440466 2.0384791Q1.2950763 2.0533342 1.2448857 2.0633178Q1.1946952 2.0733013 1.1437678 2.0783174Q1.0928404 2.0833333 1.0416666 2.0833333Q0.99049294 2.0833333 0.93956548 2.0783172Q0.88863802 2.0733013 0.83844745 2.0633178Q0.788257 2.0533342 0.73928672 2.0384793Q0.69031644 2.0236244 0.64303797 2.004041Q0.59575963 1.9844577 0.5506283 1.9603345Q0.5054971 1.9362113 0.46294764 1.9077805Q0.42039818 1.8793501 0.38084033 1.8468858Q0.34128243 1.8144215 0.30509707 1.7782362Q0.26891175 1.7420509 0.23644742 1.702493Q0.20398311 1.662935 0.17555246 1.6203854Q0.14712183 1.577836 0.12299867 1.5327048Q0.098875508 1.4875735 0.079292141 1.440295Q0.059708782 1.3930167 0.044853814 1.3440466Q0.029998843 1.2950763 0.020015329 1.2448857Q0.010031818 1.1946952 0.0050159092 1.1437678Q0 1.0928404 0 1.0416666Q0 0.99049294 0.0050159092 0.93956548Q0.010031818 0.88863802 0.020015329 0.83844745Q0.029998843 0.788257 0.044853814 0.73928672Q0.059708782 0.69031644 0.079292141 0.64303797Q0.098875508 0.59575963 0.12299867 0.5506283Q0.14712183 0.5054971 0.17555246 0.46294764Q0.20398311 0.42039818 0.23644742 0.38084033Q0.26891175 0.34128243 0.30509707 0.30509707Q0.34128243 0.26891175 0.3808403 0.23644742Q0.42039818 0.20398311 0.46294761 0.17555246Q0.5054971 0.14712183 0.55062836 0.12299867Q0.59575963 0.098875508 0.64303803 0.079292141Q0.6903165 0.059708782 0.73928672 0.044853814Q0.788257 0.029998843 0.83844751 0.020015329Q0.88863808 0.010031818 0.93956554 0.0050159092Q0.99049294 0 1.0416666 0Q1.0928404 0 1.1437678 0.0050159092Q1.1946952 0.010031818 1.2448857 0.020015329Q1.2950763 0.029998843 1.3440465 0.044853814Q1.3930168 0.059708782 1.4402951 0.079292141Q1.4875736 0.098875508 1.5327048 0.12299867Q1.577836 0.14712183 1.6203855 0.17555246Q1.662935 0.20398311 1.702493 0.23644742Q1.7420509 0.26891175 1.7782362 0.30509707Q1.8144215 0.34128243 1.8468858 0.3808403Q1.8793501 0.42039818 1.9077805 0.46294761Q1.9362112 0.5054971 1.9603343 0.55062836Q1.9844575 0.59575963 2.0040407 0.64303803Q2.0236242 0.6903165 2.0384791 0.73928672Q2.0533342 0.788257 2.0633178 0.83844751Q2.0733013 0.88863808 2.0783174 0.93956554Q2.0833333 0.99049294 2.0833333 1.0416666Z"/>
	<path fill="white" transform="translate(10.75 9.75)" d="M2.0833333 1.0416666Q2.0833333 1.0928404 2.0783172 1.1437678Q2.0733013 1.1946952 2.0633178 1.2448857Q2.0533342 1.2950763 2.0384793 1.3440465Q2.0236244 1.3930168 2.004041 1.4402951Q1.9844577 1.4875736 1.9603345 1.5327048Q1.9362113 1.577836 1.9077805 1.6203855Q1.8793501 1.662935 1.8468858 1.702493Q1.8144215 1.7420509 1.7782362 1.7782362Q1.7420509 1.8144215 1.702493 1.8468858Q1.662935 1.8793501 1.6203854 1.9077805Q1.577836 1.9362112 1.5327048 1.9603343Q1.4875735 1.9844575 1.440295 2.0040407Q1.3930167 2.0236242 1.3440466 2.0384791Q1.2950763 2.0533342 1.2448857 2.0633178Q1.1946952 2.0733013 1.1437678 2.0783174Q1.0928404 2.0833333 1.0416666 2.0833333Q0.99049294 2.0833333 0.93956548 2.0783172Q0.88863802 2.0733013 0.83844745 2.0633178Q0.788257 2.0533342 0.73928672 2.0384793Q0.69031644 2.0236244 0.64303797 2.004041Q0.59575963 1.9844577 0.5506283 1.9603345Q0.5054971 1.9362113 0.46294764 1.9077805Q0.42039818 1.8793501 0.38084033 1.8468858Q0.34128243 1.8144215 0.30509707 1.7782362Q0.26891175 1.7420509 0.23644742 1.702493Q0.20398311 1.662935 0.17555246 1.6203854Q0.14712183 1.577836 0.12299867 1.5327048Q0.098875508 1.4875735 0.079292141 1.440295Q0.059708782 1.3930167 0.044853814 1.3440466Q0.029998843 1.2950763 0.020015329 1.2448857Q0.010031818 1.1946952 0.0050159092 1.1437678Q0 1.0928404 0 1.0416666Q0 0.99049294 0.0050159092 0.93956548Q0.010031818 0.88863802 0.020015329 0.83844745Q0.029998843 0.788257 0.044853814 0.73928672Q0.059708782 0.69031644 0.079292141 0.64303797Q0.098875508 0.59575963 0.12299867 0.5506283Q0.14712183 0.5054971 0.17555246 0.46294764Q0.20398311 0.42039818 0.23644742 0.38084033Q0.26891175 0.34128243 0.30509707 0.30509707Q0.34128243 0.26891175 0.3808403 0.23644742Q0.42039818 0.20398311 0.46294761 0.17555246Q0.5054971 0.14712183 0.55062836 0.12299867Q0.59575963 0.098875508 0.64303803 0.079292141Q0.6903165 0.059708782 0.73928672 0.044853814Q0.788257 0.029998843 0.83844751 0.020015329Q0.88863808 0.010031818 0.93956554 0.0050159092Q0.99049294 0 1.0416666 0Q1.0928404 0 1.1437678 0.0050159092Q1.1946952 0.010031818 1.2448857 0.020015329Q1.2950763 0.029998843 1.3440465 0.044853814Q1.3930168 0.059708782 1.4402951 0.079292141Q1.4875736 0.098875508 1.5327048 0.12299867Q1.577836 0.14712183 1.6203855 0.17555246Q1.662935 0.20398311 1.702493 0.23644742Q1.7420509 0.26891175 1.7782362 0.30509707Q1.8144215 0.34128243 1.8468858 0.3808403Q1.8793501 0.42039818 1.9077805 0.46294761Q1.9362112 0.5054971 1.9603343 0.55062836Q1.9844575 0.59575963 2.0040407 0.64303803Q2.0236242 0.6903165 2.0384791 0.73928672Q2.0533342 0.788257 2.0633178 0.83844751Q2.0733013 0.88863808 2.0783174 0.93956554Q2.0833333 0.99049294 2.0833333 1.0416666Z"/>
	<path fill="white" transform="translate(14.5 9.75)" d="M2.0833333 1.0416666Q2.0833333 1.0928404 2.0783172 1.1437678Q2.0733013 1.1946952 2.0633178 1.2448857Q2.0533342 1.2950763 2.0384793 1.3440465Q2.0236244 1.3930168 2.004041 1.4402951Q1.9844577 1.4875736 1.9603345 1.5327048Q1.9362113 1.577836 1.9077805 1.6203855Q1.8793501 1.662935 1.8468858 1.702493Q1.8144215 1.7420509 1.7782362 1.7782362Q1.7420509 1.8144215 1.702493 1.8468858Q1.662935 1.8793501 1.6203854 1.9077805Q1.577836 1.9362112 1.5327048 1.9603343Q1.4875735 1.9844575 1.440295 2.0040407Q1.3930167 2.0236242 1.3440466 2.0384791Q1.2950763 2.0533342 1.2448857 2.0633178Q1.1946952 2.0733013 1.1437678 2.0783174Q1.0928404 2.0833333 1.0416666 2.0833333Q0.99049294 2.0833333 0.93956548 2.0783172Q0.88863802 2.0733013 0.83844745 2.0633178Q0.788257 2.0533342 0.73928672 2.0384793Q0.69031644 2.0236244 0.64303797 2.004041Q0.59575963 1.9844577 0.5506283 1.9603345Q0.5054971 1.9362113 0.46294764 1.9077805Q0.42039818 1.8793501 0.38084033 1.8468858Q0.34128243 1.8144215 0.30509707 1.7782362Q0.26891175 1.7420509 0.23644742 1.702493Q0.20398311 1.662935 0.17555246 1.6203854Q0.14712183 1.577836 0.12299867 1.5327048Q0.098875508 1.4875735 0.079292141 1.440295Q0.059708782 1.3930167 0.044853814 1.3440466Q0.029998843 1.2950763 0.020015329 1.2448857Q0.010031818 1.1946952 0.0050159092 1.1437678Q0 1.0928404 0 1.0416666Q0 0.99049294 0.0050159092 0.93956548Q0.010031818 0.88863802 0.020015329 0.83844745Q0.029998843 0.788257 0.044853814 0.73928672Q0.059708782 0.69031644 0.079292141 0.64303797Q0.098875508 0.59575963 0.12299867 0.5506283Q0.14712183 0.5054971 0.17555246 0.46294764Q0.20398311 0.42039818 0.23644742 0.38084033Q0.26891175 0.34128243 0.30509707 0.30509707Q0.34128243 0.26891175 0.3808403 0.23644742Q0.42039818 0.20398311 0.46294761 0.17555246Q0.5054971 0.14712183 0.55062836 0.12299867Q0.59575963 0.098875508 0.64303803 0.079292141Q0.6903165 0.059708782 0.73928672 0.044853814Q0.788257 0.029998843 0.83844751 0.020015329Q0.88863808 0.010031818 0.93956554 0.0050159092Q0.99049294 0 1.0416666 0Q1.0928404 0 1.1437678 0.0050159092Q1.1946952 0.010031818 1.2448857 0.020015329Q1.2950763 0.029998843 1.3440465 0.044853814Q1.3930168 0.059708782 1.4402951 0.079292141Q1.4875736 0.098875508 1.5327048 0.12299867Q1.577836 0.14712183 1.6203855 0.17555246Q1.662935 0.20398311 1.702493 0.23644742Q1.7420509 0.26891175 1.7782362 0.30509707Q1.8144215 0.34128243 1.8468858 0.3808403Q1.8793501 0.42039818 1.9077805 0.46294761Q1.9362112 0.5054971 1.9603343 0.55062836Q1.9844575 0.59575963 2.0040407 0.64303803Q2.0236242 0.6903165 2.0384791 0.73928672Q2.0533342 0.788257 2.0633178 0.83844751Q2.0733013 0.88863808 2.0783174 0.93956554Q2.0833333 0.99049294 2.0833333 1.0416666Z"/>
</svg>
