<?xml version="1.0" encoding="UTF-8"?>
<svg width="18px" height="18px" viewBox="0 0 18 18" version="1.1" xmlns="http://www.w3.org/2000/svg" xmlns:xlink="http://www.w3.org/1999/xlink">
    <g id="naobao" stroke="none" stroke-width="1" fill-rule="evenodd" fill-opacity="0.7">
        <path d="M16.5148088,4.22620842 C17.4316199,7.07977492 17.0535935,9.65763796 15.3427857,11.9442146 C14.6873222,12.6541994 13.7622868,13.3030212 12.4935283,13.9284306 C11.6837542,14.1915615 11.5424183,14.3239984 11.5682341,14.3803997 C12.0019269,15.4391505 12.3871231,16.0411805 12.6088609,16.1461441 L12.1373218,17.1428571 C11.5765574,16.8774091 11.085163,16.1094 10.5914647,14.8827091 C10.0355403,13.9974304 10.7375585,13.3396137 12.0774924,12.9105504 C13.1595237,12.3714398 13.9775672,11.7976623 14.4962271,11.240268 C15.9518954,9.29044531 16.2753386,7.08480039 15.5042667,4.65537638 C14.1241537,2.07994423 12.124386,0.924341562 9.39477282,1.12610962 C7.10005939,1.18896973 5.67537856,2.15527438 5.03128529,3.98443855 C4.89762908,4.77929629 4.52063395,5.34949414 3.84452462,5.64641447 C3.58709676,5.7294472 3.58709676,5.7294472 2.3109058,6.14095245 C2.02155346,6.24102068 2.00607497,6.32318654 2.30705582,6.79812834 L2.32247524,6.82091309 L2.35055239,6.86240176 C2.39404896,6.92667519 2.45618692,7.01849437 2.70473876,7.3857711 L2.79448759,7.62076312 C2.8954792,8.36582656 2.83243593,9.08315923 2.60501748,9.76619773 L2.538,9.949 L2.52300277,10.1045442 C2.42495168,11.2287555 2.77546897,11.7954762 3.62906268,11.981159 L3.79502024,12.0115524 L3.96861036,12.0684491 C5.99503001,13.1317859 7.194471,14.6550484 7.51941516,16.6103836 L6.43197144,16.7912034 C6.16660191,15.1943555 5.1906212,13.9548824 3.45651111,13.0449312 L3.52476512,13.0820626 L3.41746708,13.063492 C1.96558822,12.7577368 1.28241212,11.6695451 1.42701224,9.99014902 L1.45330691,9.74623414 L1.4879078,9.61269569 C1.69006115,9.10500221 1.77012192,8.57337786 1.72776551,8.0115621 L1.71406079,7.88937627 L1.7019804,7.87108829 C1.58234109,7.69429937 1.52013143,7.60236376 1.47965113,7.54249035 L1.43922005,7.48265348 C1.42769651,7.46558539 1.41736485,7.45026861 1.40594026,7.43332453 L1.38521716,7.40258538 C0.730750403,6.3708348 0.902060952,5.46145165 1.96164825,5.09513697 C3.02164532,4.7532375 3.20870363,4.69290229 3.35503614,4.64751755 L3.41768294,4.62820498 L3.45168554,4.61777776 C3.70298066,4.50616154 3.86756385,4.25723266 3.96713186,3.71190334 C4.79010261,1.34454201 6.62671948,0.0988374413 9.33894397,0.0251390818 C12.4869783,-0.20825016 14.8941274,1.18276531 16.5148088,4.22620842 Z M8.85690294,4.01875548 C10.1584016,3.10430877 11.2770304,3.44323525 12.2127894,5.03553491 C13.0899197,5.25694726 13.5036714,5.90073024 13.4540445,6.96688385 C13.9543138,7.22659955 14.1047237,7.75055803 13.9052742,8.53875931 C13.4137125,9.36933149 12.5513144,9.69211014 11.3180801,9.50709526 C11.0970692,10.2993896 10.5102879,11.0698404 9.55773609,11.8184476 L8.32236832,12.0314952 C9.04059275,11.3895208 9.3776207,10.7021545 9.33345216,9.96939633 C9.40501752,9.66119562 9.16632099,9.44544404 8.61736256,9.3221416 C6.81291732,8.54148948 5.98393232,7.38945344 6.13040758,5.86603348 C6.17183714,4.76530811 7.08066892,4.14954878 8.85690294,4.01875548 Z"></path>
    </g>
</svg>