<?xml version="1.0" encoding="UTF-8"?>
<svg width="14.4210116px" height="12.0920983px" viewBox="0 0 14.4210116 12.0920983" version="1.1" xmlns="http://www.w3.org/2000/svg" xmlns:xlink="http://www.w3.org/1999/xlink">
    <g id="桌面版" stroke="none" stroke-width="1" fill="none" fill-rule="evenodd">
        <g id="聊天框各状态" transform="translate(-497.789564, -955.907902)">
            <g id="编组-4" transform="translate(202.000000, 144.000000)">
                <g id="编组" transform="translate(10.000000, 800.000000)">
                    <g id="编组-20" transform="translate(280.000000, 0.000000)">
                        <g id="warning" transform="translate(5.789564, 11.907902)">
                            <path d="M8.06209389,0.476043028 L14.2725295,10.5680008 C14.5619805,11.0383587 14.4153265,11.6543056 13.9449686,11.9437566 C13.7873609,12.0407459 13.6059309,12.0920983 13.4208712,12.0920983 L1,12.0920983 C0.44771525,12.0920983 9.692247e-14,11.644383 9.68114477e-14,11.0920983 C9.68114477e-14,10.9070385 0.0513523311,10.7256085 0.148341683,10.5680008 L6.35877726,0.476043028 C6.64822827,0.00568512793 7.2641751,-0.140968878 7.734533,0.148482137 C7.86785344,0.230525487 7.98005054,0.342722586 8.06209389,0.476043028 Z" id="形状结合" fill="#F8CB00"></path>
                            <path d="M6.51043558,3.6129316 L7.91043558,3.6129316 L7.91043558,7.8379316 L6.51043558,7.8379316 L6.51043558,3.6129316 Z M6.51043558,9.24626493 L7.91043558,9.24626493 L7.91043558,10.6545983 L6.51043558,10.6545983 L6.51043558,9.24626493 Z" id="Combined-Shape" fill="#FFFFFF" fill-rule="nonzero"></path>
                        </g>
                    </g>
                </g>
            </g>
        </g>
    </g>
</svg>