<?xml version="1.0" encoding="utf-8" ?>
<svg xmlns="http://www.w3.org/2000/svg" xmlns:xlink="http://www.w3.org/1999/xlink" width="20" height="20">
	<path fill-opacity="0.7019608" transform="translate(2 2.49484)" d="M8.1689644 0.25671446C8.1950274 0.28017068 8.2198381 0.30498141 8.2432938 0.33104387L11.1 3.5050001L13 3.5051615C14.104569 3.5051615 15 4.4005919 15 5.5051613L15 12.505161C15 13.609731 14.104569 14.505161 13 14.505161L2 14.505161C0.89543051 14.505161 0 13.609731 0 12.505161L0 5.5051613C0 4.4005919 0.89543051 3.5051615 2 3.5051615L3.901 3.5050001L6.7567058 0.33104387C7.1261649 -0.079466157 7.7584548 -0.11274456 8.1689644 0.25671446ZM13 4.5051613L2 4.5051613C1.4477153 4.5051613 1 4.9528766 1 5.5051613L1 12.505161C1 13.057446 1.4477153 13.505161 2 13.505161L13 13.505161C13.552285 13.505161 14 13.057446 14 12.505161L14 5.5051613C14 4.9528766 13.552285 4.5051613 13 4.5051613ZM8.5 10.005161C8.7761421 10.005161 9 10.229019 9 10.505161C9 10.781303 8.7761421 11.005161 8.5 11.005161L4.5 11.005161C4.2238574 11.005161 4 10.781303 4 10.505161C4 10.229019 4.2238574 10.005161 4.5 10.005161L8.5 10.005161ZM11.5 7.0051613C11.776142 7.0051613 12 7.2290192 12 7.5051613C12 7.7813039 11.776142 8.0051613 11.5 8.0051613L4.5 8.0051613C4.2238574 8.0051613 4 7.7813039 4 7.5051613C4 7.2290192 4.2238574 7.0051613 4.5 7.0051613L11.5 7.0051613ZM7.5 1.0000086L5.244 3.5051615L9.7550001 3.5051615L7.5 1.0000086Z" fill-rule="evenodd"/>
</svg>
