<?xml version="1.0" encoding="utf-8" ?>
<svg xmlns="http://www.w3.org/2000/svg" xmlns:xlink="http://www.w3.org/1999/xlink" width="20" height="20">
	<path fill-opacity="1" transform="translate(4 3)" d="M6.5 0C10.08985 0 13 2.9101491 13 6.5C13 10.08985 10.08985 13 6.5 13C2.9101491 13 0 10.08985 0 6.5L1 6.5C1 9.5375662 3.4624338 12 6.5 12C9.5375662 12 12 9.5375662 12 6.5C12 3.4624338 9.5375662 1 6.5 1C5.009963 1 3.6231225 1.5970304 2.6099877 2.6110201L4.5 4.5L0.5 4.5L0.5 0.5L1.9028637 1.9039334C3.1000469 0.70589715 4.739428 0 6.5 0ZM6.5 3.5L6.5 6.5L9.5 6.5L9.5 7.5L5.5 7.5L5.5 3.5L6.5 3.5Z"/>
</svg>
