<?xml version="1.0" encoding="utf-8" ?>
<svg xmlns="http://www.w3.org/2000/svg" xmlns:xlink="http://www.w3.org/1999/xlink" width="20" height="20">
	<path fill-opacity="0.7019608" transform="translate(3.38344 4.5)" d="M14.000527 0.125C14.27667 0.125 14.500527 0.34885761 14.500527 0.625C14.500527 0.90114236 14.27667 1.125 14.000527 1.125L4.0005274 1.125C3.724385 1.125 3.5005274 0.90114236 3.5005274 0.625C3.5005274 0.34885761 3.724385 0.125 4.0005274 0.125L14.000527 0.125ZM14.000527 5.2701674C14.27667 5.2701674 14.500527 5.4940248 14.500527 5.7701674C14.500527 6.0463095 14.27667 6.2701674 14.000527 6.2701674L4.0005274 6.2701674C3.724385 6.2701674 3.5005274 6.0463095 3.5005274 5.7701674C3.5005274 5.4940248 3.724385 5.2701674 4.0005274 5.2701674L14.000527 5.2701674ZM14.000527 10.415335C14.27667 10.415335 14.500527 10.639192 14.500527 10.915335C14.500527 11.191477 14.27667 11.415335 14.000527 11.415335L4.0005274 11.415335C3.724385 11.415335 3.5005274 11.191477 3.5005274 10.915335C3.5005274 10.639192 3.724385 10.415335 4.0005274 10.415335L14.000527 10.415335ZM0.625 0C0.97017795 0 1.25 0.27982202 1.25 0.625C1.25 0.97875327 0.97017795 1.2585753 0.625 1.2585753C0.27982202 1.2585753 0 0.97875327 0 0.63357526C0 0.27982202 0.27982202 0 0.625 0ZM0.625 5.1451674C0.97017795 5.1451674 1.25 5.4249892 1.25 5.7701674C1.25 6.1239204 0.97017795 6.4037423 0.625 6.4037423C0.27982202 6.4037423 0 6.1239204 0 5.7787423C0 5.4249892 0.27982202 5.1451674 0.625 5.1451674ZM0.625 10.290335C0.97017795 10.290335 1.25 10.570156 1.25 10.915335C1.25 11.269088 0.97017795 11.54891 0.625 11.54891C0.27982202 11.54891 0 11.269088 0 10.92391C0 10.570156 0.27982202 10.290335 0.625 10.290335Z"/>
</svg>
