<?xml version="1.0" encoding="utf-8" ?>
<svg xmlns="http://www.w3.org/2000/svg" xmlns:xlink="http://www.w3.org/1999/xlink" width="20" height="20">
	<path transform="translate(3 3)" d="M5 0C5.5975699 0 6.1339297 0.26207376 6.500412 0.67755467C6.8660703 0.26207376 7.4024301 0 8 0L12 0C12.552285 0 13 0.44771525 13 1L13 11C13 11.552285 12.552285 12 12 12L7 12L7 13L6 13L6 12L1 12C0.44771525 12 0 11.552285 0 11L0 1C0 0.44771525 0.44771525 0 1 0L5 0ZM5 1L1 1L1 11L6 11L6 2C6 1.4477153 5.5522847 1 5 1ZM12 1L8 1C7.4477153 1 7 1.4477153 7 2L7 11L12 11L12 1ZM11 5L11 6L8 6L8 5L11 5ZM11 3L11 4L8 4L8 3L11 3Z"/>
</svg>
