<?xml version="1.0" encoding="UTF-8"?>
<svg width="17px" height="17px" viewBox="0 0 17 17" version="1.1" xmlns="http://www.w3.org/2000/svg" xmlns:xlink="http://www.w3.org/1999/xlink">
    <g id="v1.1.2" stroke="none" stroke-width="1" fill-rule="evenodd">
        <g id="语音状态" transform="translate(-2274.000000, -508.000000)" fill-rule="nonzero">
            <g id="编组-4" transform="translate(2239.000000, 129.000000)">
                <g id="编组-2" transform="translate(20.000000, 144.000000)">
                    <g id="编组-5" transform="translate(15.000000, 235.000000)">
                        <path d="M8.5,0 C13.1920004,0 17,3.80800002 17,8.5 C17,13.1920004 13.1920004,17 8.5,17 C3.89330911,17 0.138764959,13.3292143 0.00375895419,8.75503302 L0,8.5 C0,3.80800002 3.80800002,0 8.5,0 Z M8.5,1.41666667 C4.59040341,1.41666667 1.41666667,4.59040341 1.41666667,8.5 L1.42061146,8.73842291 C1.54651342,12.5378153 4.67019095,15.5833333 8.5,15.5833333 C12.409597,15.5833333 15.5833333,12.409597 15.5833333,8.5 C15.5833333,4.59040326 12.4095968,1.41666667 8.5,1.41666667 Z M6.8,5.1 L11.3333333,8.5 L6.8,11.9 L6.8,5.1 Z" id="形状结合"></path>
                    </g>
                </g>
            </g>
        </g>
    </g>
</svg>