<?xml version="1.0" encoding="utf-8" ?>
<svg xmlns="http://www.w3.org/2000/svg" xmlns:xlink="http://www.w3.org/1999/xlink" width="20" height="20">
	<path fill-opacity="0.7019608" transform="translate(3.17169 3.75708)" d="M12.192271 1.2931761C12.97332 2.0742247 12.97332 3.3405547 12.192271 4.121603L3.7069895 12.606885C2.925941 13.387933 1.6596111 13.387933 0.87856251 12.606885C0.097513914 11.825836 0.097513914 10.559506 0.87856251 9.7784576L9.3638439 1.2931761C10.144893 0.51212746 11.411222 0.51212746 12.192271 1.2931761ZM7.9496303 4.121603L1.5856693 10.485564C1.195145 10.876088 1.195145 11.509254 1.5856693 11.899777C1.9761935 12.290302 2.6093585 12.290302 2.9998829 11.899777L9.3638439 5.5358167L7.9496303 4.121603ZM10.885573 8.885973C11.001671 9.5500793 11.521428 10.069835 12.180297 10.185089L12.185532 10.299915C11.521428 10.416012 11.001671 10.935767 10.886416 11.594638L10.771047 11.599874C10.655492 10.935767 10.135735 10.416012 9.4716311 10.299915L9.4716311 10.185389C10.135735 10.069835 10.655492 9.5500793 10.771047 8.885973L10.885573 8.885973ZM10.070951 2.0002828L8.6567373 3.4144964L10.070951 4.8287101L11.485165 3.4144964C11.875689 3.023972 11.875689 2.3908072 11.485165 2.0002828C11.09464 1.6097585 10.461475 1.6097585 10.070951 2.0002828ZM2.0840001 -7.2608586e-14C2.255115 0.97882199 3.021183 1.7448862 3.992285 1.9147576L4 2.0840001C3.021183 2.2551138 2.255115 3.021178 2.0852425 3.9922833L1.9152 4C1.744885 3.021178 0.97881705 2.2551138 2.6548208e-14 2.0840001L2.6728619e-14 1.9152C0.97881705 1.7448862 1.744885 0.97882199 1.9152 -7.4829032e-14L2.0840001 -7.2608586e-14Z" fill-rule="evenodd"/>
</svg>
