<?xml version="1.0" encoding="utf-8" ?>
<svg xmlns="http://www.w3.org/2000/svg" xmlns:xlink="http://www.w3.org/1999/xlink" width="20" height="20">
	<path fill-opacity="0.7019608" transform="translate(1.66667 3.33333)" d="M6.1458335 0C7.7604165 0 9.28125 0.55208331 10.4375 1.5729166C11.470665 2.4769359 12.103543 3.6505356 12.256558 4.9273262C14.676367 5.2828918 16.531389 7.1723952 16.531389 9.4497671C16.531389 10.460183 16.156389 11.449767 15.468889 12.25185L15.687639 13.553933C15.718889 13.710183 15.645972 13.866433 15.520973 13.960183C15.448056 14.00185 15.364723 14.0331 15.281389 14.0331C15.218889 14.0331 15.145972 14.012267 15.083473 13.981017L13.989723 13.4081C13.208473 13.81435 12.333473 14.0331 11.427223 14.0331C9.2249308 14.0331 7.3419862 12.774871 6.6285963 11.013597C6.4747515 11.025833 6.3207092 11.03125 6.1666665 11.03125C5.0520835 11.03125 3.9791667 10.760417 3.03125 10.260417L1.65625 10.989583C1.5729166 11 1.5 11.020833 1.4375 11.020833C1.3541666 11.020833 1.2604166 10.989583 1.1875 10.9375C1.0625 10.84375 1 10.6875 1.0208334 10.53125L1.3020834 8.90625C0.45833334 7.9375 0 6.7395835 0 5.5104165C0 2.46875 2.7604167 0 6.1458335 0ZM11.427223 5.8664336C11.170424 5.8664336 10.919513 5.8870435 10.676408 5.9263997C8.971508 6.2470946 7.6404934 7.4619727 7.3577323 8.9870319C7.334743 9.1389971 7.3230562 9.2933559 7.3230562 9.4497671C7.3230562 11.401111 9.1420717 13.0331 11.427223 13.0331C12.164438 13.0331 12.882089 12.85695 13.52837 12.520884L13.991411 12.280102L14.45373 12.522268L14.504056 12.548433L14.48271 12.417528L14.40521 11.95622L14.709633 11.601059C15.243448 10.978274 15.531389 10.218777 15.531389 9.4497671C15.531389 7.4984236 13.712374 5.8664336 11.427223 5.8664336ZM6.1458335 1C3.2872829 1 1 3.0491915 1 5.5104165C1 6.4963179 1.3698833 7.4615164 2.056165 8.2494688L2.3685482 8.6081314L2.2874339 9.0767918L2.2019999 9.5670004L2.5627475 9.376955L3.029999 9.1291695L3.4977975 9.3759203C4.3112822 9.8050108 5.2252865 10.03125 6.1666665 10.03125L6.3270001 10.028L6.3115602 9.8673887L6.3020835 9.59375C6.3020835 9.3063469 6.33009 9.0254965 6.3836961 8.753149L6.4011693 8.6476088C6.7739534 6.7559967 8.4414158 5.2645893 10.546474 4.9346747C10.734944 4.9004307 10.927199 4.8758807 11.122281 4.8609405L11.234 4.8540001L11.216842 4.7495127C11.052559 3.9109843 10.624838 3.1360271 9.962183 2.4942372L9.7756548 2.3225574C8.8089781 1.4690952 7.5258651 1 6.1458335 1ZM9.8647547 7.7521582C10.058147 7.8638282 10.177262 8.070199 10.177223 8.2935171C10.177262 8.5168343 10.058147 8.7232056 9.8647547 8.8348761C9.6713629 8.9465466 9.4330826 8.9465466 9.2396908 8.8348761C9.046298 8.7232056 8.9271832 8.5168343 8.9272232 8.2935171C8.9271832 8.070199 9.046298 7.8638282 9.2396908 7.7521582C9.4330826 7.6404877 9.6713629 7.6404877 9.8647547 7.7521582ZM13.302223 7.6685171C13.647401 7.6685171 13.927223 7.948339 13.927223 8.2935171C13.927223 8.6386948 13.647401 8.9185171 13.302223 8.9185171C12.957045 8.9185171 12.677222 8.6386948 12.677222 8.2935171C12.677222 7.948339 12.957045 7.6685171 13.302223 7.6685171ZM3.5937152 3.108006C3.8193378 2.9777262 4.0973287 2.9777262 4.3229513 3.108006C4.548574 3.2382858 4.6875429 3.4790485 4.6875 3.7395833C4.6875429 4.0001183 4.548574 4.240881 4.3229513 4.3711605C4.0973287 4.5014405 3.8193378 4.5014405 3.5937152 4.3711605C3.3680925 4.240881 3.2291236 4.0001183 3.2291667 3.7395833C3.2291236 3.4790485 3.3680925 3.2382858 3.5937152 3.108006ZM7.96875 3.1081064C8.194355 2.9778533 8.472312 2.9778533 8.697917 3.1081064C8.923522 3.2383595 9.0625 3.4790771 9.0625 3.7395833C9.0625 4.0000896 8.923522 4.2408071 8.697917 4.3710604C8.472312 4.5013132 8.194355 4.5013132 7.96875 4.3710604C7.743145 4.2408071 7.6041665 4.0000896 7.6041665 3.7395833C7.6041665 3.4790771 7.743145 3.2383595 7.96875 3.1081064Z" fill-rule="evenodd"/>
</svg>
