<?xml version="1.0" encoding="utf-8" ?>
<svg xmlns="http://www.w3.org/2000/svg" xmlns:xlink="http://www.w3.org/1999/xlink" width="20" height="20">
	<path fill-opacity="1" transform="translate(5 2)" d="M4.8540797 0.0009611334C5.7401981 -0.016791694 6.6144681 0.21167679 7.3856721 0.66221297C8.1552095 1.1117817 8.7938681 1.7659236 9.2357712 2.5563214C9.6768112 3.3451872 9.906003 4.2412696 9.8998804 5.1519227C9.896059 6.0958667 9.6380539 7.0215306 9.1544123 7.8240848C8.766654 8.4675207 8.2459612 9.0116062 7.6319962 9.4187117L7.3990002 9.5629997L7.3999066 10.852622C7.3999066 11.063871 7.3321958 11.268588 7.2083716 11.435884L7.1274362 11.531525C6.949295 11.716322 6.7053695 11.82114 6.4499059 11.82114L3.4499013 11.82114C3.1944304 11.82114 2.9505041 11.716324 2.7725277 11.531697C2.5973942 11.350213 2.4999006 11.106122 2.4999006 10.852622L2.4990001 9.5609999L2.2840569 9.427927C1.7655972 9.085391 1.3129288 8.6455517 0.94981492 8.1305971L0.79974693 7.9053674C0.3193053 7.1413507 0.045076534 6.2587476 0.0051006232 5.3488603C-0.034878146 4.4391456 0.16072547 3.5347195 0.57193571 2.7290168C0.9839505 1.9217709 1.5975366 1.2427922 2.3494761 0.76292807C3.1031158 0.28197086 3.9680429 0.018710963 4.8540797 0.0009611334ZM4.8721066 0.90078056C4.1519189 0.91520798 3.4482043 1.1293993 2.8336411 1.5216007C2.2174034 1.9148642 1.7130979 2.4729159 1.3735627 3.1381555C1.0332381 3.8049686 0.87107247 4.5547848 0.90423304 5.3093519C0.93737596 6.0637145 1.1645167 6.7947655 1.5616263 7.4262643C1.9576988 8.0560989 2.5082579 8.5637188 3.1557922 8.8969097L3.3999007 9.0225172L3.3999007 10.852622C3.3999007 10.874187 3.4077766 10.893907 3.4203205 10.906905C3.4297204 10.916656 3.4401557 10.921141 3.4499013 10.921141L6.4499059 10.921141C6.4596419 10.921141 6.470077 10.916656 6.4796433 10.906733C6.4920287 10.893898 6.499907 10.874176 6.499907 10.852622L6.499907 9.0216331L6.7451601 8.8963232C7.4175396 8.5527754 7.985105 8.0207415 8.3835659 7.3595471C8.783124 6.6965208 8.9967222 5.9301763 8.9998941 5.1470752C9.0049782 4.390687 8.8150377 3.6480658 8.4502096 2.9955175C8.086319 2.3446541 7.5618415 1.807462 6.9316845 1.4393198C6.3031893 1.0721539 5.5921974 0.88635403 4.8721066 0.90078056ZM5.7611637 2.9682772C5.8333335 3.0020959 5.872364 3.0756078 5.8568625 3.1485207L5.5227337 4.677702L6.8326559 5.1278534C6.8893671 5.1475697 6.9316173 5.1919022 6.9453058 5.2460546C6.9589944 5.3002071 6.9423194 5.3570495 6.9008455 5.3976107L4.3560095 7.897294C4.3005857 7.9514999 4.2127056 7.9655414 4.1405363 7.9317226C4.0683665 7.8979044 4.029336 7.8243923 4.0448375 7.7514791L4.3780575 6.2239647L3.0681348 5.7731881C3.010993 5.7536001 2.9683781 5.7090559 2.9546597 5.6545768C2.9409413 5.6000977 2.9579482 5.5429444 2.9999452 5.5023894L5.545691 3.0027061C5.6011143 2.9485004 5.6889944 2.9344587 5.7611637 2.9682772ZM2.9498806 14.381481L6.9498806 14.381481L6.9498806 13.481482L2.9498806 13.481482L2.9498806 14.381481Z"/>
</svg>
