<?xml version="1.0" encoding="utf-8" ?>
<svg xmlns="http://www.w3.org/2000/svg" xmlns:xlink="http://www.w3.org/1999/xlink" width="20" height="20">
	<path fill-opacity="0.7019608" transform="translate(3 3)" d="M6.6104741 0C10.261338 0 13.220948 2.95961 13.220948 6.6104741C13.220948 8.1840343 12.671142 9.62918 11.753153 10.764287L13.638653 12.650522C13.951073 12.962941 13.951073 13.469473 13.638653 13.781893C13.326234 14.094313 12.819701 14.094313 12.507282 13.781893L10.603994 11.87877C9.494544 12.72107 8.1108856 13.220948 6.6104741 13.220948C2.95961 13.220948 0 10.261338 0 6.6104741C0 2.95961 2.95961 0 6.6104741 0ZM6.6104741 1.1017457C3.5680873 1.1017457 1.1017457 3.5680873 1.1017457 6.6104741C1.1017457 9.6528606 3.5680873 12.119203 6.6104741 12.119203C9.6528606 12.119203 12.119203 9.6528606 12.119203 6.6104741C12.119203 3.5680873 9.6528606 1.1017457 6.6104741 1.1017457ZM5.4418964 4.6628447L6.6104741 5.8307276L7.7790518 4.6628447C7.9941812 4.4477153 8.3429747 4.4477153 8.5581036 4.6628447C8.7732325 4.8779736 8.7732325 5.2267671 8.5581036 5.4418964L7.3897057 6.6099591L8.5581036 7.7790518C8.7732325 7.9941812 8.7732325 8.3429747 8.5581036 8.5581036C8.3429747 8.7732325 7.9941812 8.7732325 7.7790518 8.5581036L6.6104741 7.3891907L5.4418964 8.5581036C5.2267671 8.7732325 4.8779736 8.7732325 4.6628447 8.5581036C4.4477153 8.3429747 4.4477153 7.9941812 4.6628447 7.7790518L5.8312426 6.6099591L4.6628447 5.4418964C4.4477153 5.2267671 4.4477153 4.8779736 4.6628447 4.6628447C4.8779736 4.4477153 5.2267671 4.4477153 5.4418964 4.6628447Z"/>
</svg>
