<?xml version="1.0" encoding="utf-8" ?>
<svg xmlns="http://www.w3.org/2000/svg" xmlns:xlink="http://www.w3.org/1999/xlink" width="16" height="16">
	<path transform="translate(2.75 2.75001)" d="M7.17027 1.6929842L7.217895 1.7327791C7.2283521 1.7415169 7.2384133 1.750718 7.2480483 1.7603548L8.7545938 3.267169C8.9132538 3.4258549 8.9308643 3.6721616 8.8074369 3.8502982L8.7676477 3.8979146C8.7589111 3.9083688 8.7497129 3.9184272 8.740078 3.9280596L2.74879 9.9182043C2.6851707 9.9818115 2.6041958 10.025231 2.51601 10.043024L0.27374983 10.495435C0.15001979 10.520399 0.029479088 10.440334 0.00451463 10.316604C-0.0015045322 10.286772 -0.00150488 10.256038 0.0045136064 10.226205L0.45693415 7.9836345C0.47472969 7.8954253 0.51816559 7.8144307 0.58179778 7.750803L6.5871434 1.7458544C6.7458215 1.5871873 6.9921274 1.5695658 7.17027 1.6929842ZM6.5867543 2.806381L1.2715374 8.1208611C1.2079101 8.1844797 1.1644738 8.2654629 1.1466719 8.3536606L1.0303185 8.9301243C0.98037195 9.1775808 1.1404854 9.4186745 1.3879418 9.4686203C1.4475524 9.4806528 1.5089647 9.4806681 1.5685815 9.468668L2.1448812 9.3526592C2.2331381 9.3348932 2.3141837 9.291461 2.377851 9.2278099L7.6937547 3.9133809C7.8499684 3.7572079 7.869524 3.5161016 7.7524023 3.3386638L7.6937966 3.2669082L7.2331638 2.806402C7.0546651 2.6279035 6.765265 2.6278939 6.5867543 2.806381ZM8.1984892 0.13393562C8.3769646 -0.044600606 8.666379 -0.044651724 8.8449163 0.13382143L10.366035 1.6546041C10.544531 1.833035 10.544634 2.1223657 10.366264 2.3009231L9.9396591 2.7286501L9.8677187 2.7874355C9.6902771 2.9045506 9.4491711 2.8849854 9.293004 2.7287652L7.7722664 1.2068402C7.593833 1.0283462 7.5938325 0.73901445 7.7722659 0.56052011L8.1984892 0.13393562Z"/>
</svg>
