<?xml version="1.0" encoding="utf-8" ?>
<svg xmlns="http://www.w3.org/2000/svg" xmlns:xlink="http://www.w3.org/1999/xlink" width="16" height="16">
	<path transform="translate(3 3)" d="M3.9078948 0L9.9868422 0C10.546393 0 11 0.45360625 11 1.0131578L11 7.0921054C11 7.6516571 10.546393 8.1052628 9.9868422 8.1052628L3.9078948 8.1052628C3.3483431 8.1052628 2.8947368 7.6516571 2.8947368 7.0921054L2.8947368 1.0131578C2.8947368 0.45360625 3.3483431 0 3.9078948 0ZM3.9078948 0.86842108C3.8279588 0.86842108 3.7631578 0.93322194 3.7631578 1.0131578L3.7631578 7.0921054C3.7631578 7.1720414 3.8279588 7.2368422 3.9078948 7.2368422L9.9868422 7.2368422C10.066778 7.2368422 10.131579 7.1720414 10.131579 7.0921054L10.131579 1.0131578C10.131579 0.93322194 10.066778 0.86842108 9.9868422 0.86842108L3.9078948 0.86842108ZM7.2368422 8.9736843C7.2368422 8.7338762 7.4312449 8.5394735 7.6710525 8.5394735C7.9108605 8.5394735 8.1052628 8.7338762 8.1052628 8.9736843L8.1052628 9.9868422C8.1052628 10.546393 7.6516571 11 7.0921054 11L1.0131578 11C0.45360625 11 0 10.546393 0 9.9868422L0 3.9078948C0 3.3483431 0.45360625 2.8947368 1.0131578 2.8947368L2.0263157 2.8947368C2.2661235 2.8947368 2.4605262 3.0891395 2.4605262 3.3289473C2.4605262 3.5687551 2.2661235 3.7631578 2.0263157 3.7631578L1.0131578 3.7631578C0.93322194 3.7631578 0.86842108 3.8279588 0.86842108 3.9078948L0.86842108 9.9868422C0.86842108 10.066778 0.93322194 10.131579 1.0131578 10.131579L7.0921054 10.131579C7.1720414 10.131579 7.2368422 10.066778 7.2368422 9.9868422L7.2368422 8.9736843Z"/>
</svg>
