<?xml version="1.0" encoding="utf-8" ?>
<svg xmlns="http://www.w3.org/2000/svg" xmlns:xlink="http://www.w3.org/1999/xlink" width="16" height="17">
	<path  transform="matrix(0.707107 -0.707107 0.707107 0.707107 0.0251265 11.1317)" d="M11.5 9.094947e-13C13.432997 9.094947e-13 15 1.5670034 15 3.5C15 5.4329967 13.432997 7 11.5 7L9.5 7C7.5670033 7 6 5.4329967 6 3.5C6 3.2238576 6.2238574 3 6.5 3C6.7761426 3 7 3.2238576 7 3.5C7 4.880712 8.1192884 6 9.5 6L11.5 6C12.880712 6 14 4.880712 14 3.5C14 2.1192882 12.880712 1 11.5 1L9.5 1C9.2238579 1 9 0.77614236 9 0.5C9 0.22385763 9.2238579 9.094947e-13 9.5 9.094947e-13L11.5 9.094947e-13ZM5.5 0C7.4329967 0 9 1.5670034 9 3.5C9 3.7761424 8.7761421 4 8.5 4C8.2238579 4 8 3.7761424 8 3.5C8 2.1192882 6.880712 1 5.5 1L3.5 1C2.1192882 1 1 2.1192882 1 3.5C1 4.880712 2.1192882 6 3.5 6L5.5 6C5.7761426 6 6 6.2238574 6 6.5C6 6.7761426 5.7761426 7 5.5 7L3.5 7C1.5670034 7 -4.5474735e-13 5.4329967 -4.5474735e-13 3.5C-4.5474735e-13 1.5670034 1.5670034 0 3.5 0L5.5 0Z"/>
</svg>
