<?xml version="1.0" encoding="utf-8" ?>
<svg xmlns="http://www.w3.org/2000/svg" xmlns:xlink="http://www.w3.org/1999/xlink" width="20" height="20">
	<path fill-opacity="0.7019608" transform="translate(2 4)" d="M13 0C14.104569 0 15 0.89543051 15 2L15 11C15 12.104569 14.104569 13 13 13L2 13C0.89543051 13 0 12.104569 0 11L0 2C0 0.89543051 0.89543051 0 2 0L13 0ZM13 1L2 1C1.4477153 1 1 1.4477153 1 2L1 11C1 11.552285 1.4477153 12 2 12L13 12C13.552285 12 14 11.552285 14 11L14 2C14 1.4477153 13.552285 1 13 1ZM7.4666667 2.5453229C7.643681 2.5453229 7.7871795 2.6888213 7.7871795 2.8658357L7.7830129 2.8857074L7.7871795 2.9058998L7.7871795 6.3914766L11.237821 6.3914766C11.250961 6.3914766 11.2625 6.3975663 11.27532 6.399169C11.288141 6.3975663 11.299359 6.3914766 11.31282 6.3914766C11.489835 6.3914766 11.633333 6.5349751 11.633333 6.7119894C11.633333 9.0094252 9.7641029 10.878656 7.4666667 10.878656C5.1692309 10.878656 3.3 9.0094252 3.3 6.7119894C3.3 4.4145536 5.1692309 2.5453229 7.4666667 2.5453229ZM6.7870002 3.6193228L6.7658877 3.6235747C5.3564177 3.9436221 4.3000002 5.2075491 4.3000002 6.7119894C4.3000002 8.4571409 5.7215157 9.8786564 7.4666667 9.8786564C8.9711075 9.8786564 10.235034 8.8222389 10.555081 7.4127684L10.559 7.3913226L6.7871795 7.3914766L6.7870002 3.6193228ZM8.8923969 2.5306573C10.155462 2.9585626 11.15623 3.9363322 11.611154 5.1832442C11.686962 5.3758397 11.652514 5.5943875 11.521138 5.7543263C11.389762 5.9142647 11.182066 5.9905047 10.978415 5.9535465C10.774762 5.9165883 10.6071 5.7722301 10.5403 5.5763273L10.462768 5.3875937C10.091071 4.55546 9.3906136 3.9101708 8.5243473 3.6104379C8.2262278 3.5086484 8.06707 3.1844575 8.1688595 2.8863373C8.270649 2.588217 8.59484 2.4290595 8.8923969 2.5306573Z"/>
</svg>
