<?xml version="1.0" encoding="UTF-8"?>
<svg width="14.1px" height="13.1px" viewBox="0 0 14.1 13.1" version="1.1" xmlns="http://www.w3.org/2000/svg" xmlns:xlink="http://www.w3.org/1999/xlink">
    <g id="v1.1.3" stroke="none" stroke-width="1" fill-rule="evenodd" >
        <g id="save" transform="translate(-0.950000, -1.450000)" fill-rule="nonzero">
            <path d="M14.4749975,13.4256117 C14.792183,13.4255943 15.05,13.6771335 15.05,13.9878218 C15.05,14.2984779 14.7921839,14.55 14.4750002,14.55 L1.5249998,14.55 C1.20769588,14.55 0.95,14.2985357 0.95,13.9878218 C0.95,13.6770866 1.20770128,13.4256117 1.5249998,13.4256117 L14.4749975,13.4256117 Z M8.02631612,1.45 C8.34329063,1.45 8.60131592,1.70297598 8.60131592,2.01353243 L8.551,6.902 L8.551,10.291 L11.5491925,7.36614627 C11.77459,7.14659621 12.1371057,7.14569357 12.3623963,7.36548896 C12.58857,7.58614587 12.5890344,7.94064725 12.3613837,8.16203175 L8.65099505,11.7819011 C8.60999249,11.8222651 8.5633255,11.8560741 8.53410097,11.861481 C8.43521704,12.0439151 8.241896,12.1597394 8.02633246,12.1597394 C7.82699677,12.1597394 7.64433669,12.0583884 7.56540607,11.9155916 C7.48484586,11.8878974 7.41090786,11.8426255 7.3490181,11.782058 L3.63865973,8.16209003 C3.41112549,7.94064512 3.41158988,7.58616564 3.63759022,7.36550213 C3.86291088,7.14571219 4.22523486,7.1466145 4.45082159,7.3661918 L7.451,10.293 L7.45131632,2.01353243 C7.45131632,1.73273467 7.65902599,1.50091161 7.93280407,1.45735498 L8.02631612,1.45 Z"></path>
        </g>
    </g>
</svg>