<?xml version="1.0" encoding="utf-8" ?>
<svg xmlns="http://www.w3.org/2000/svg" xmlns:xlink="http://www.w3.org/1999/xlink" width="12" height="13">
	<path fill-opacity="1" transform="translate(0 -1.25736)" d="M10.949747 1.2573593C11.340272 1.6478837 11.340272 2.2810485 10.949747 2.6715729L6.7069998 6.914L8.4174776 8.6245661C8.7450228 8.4669781 9.1121998 8.3786793 9.5 8.3786793C10.880712 8.3786793 12 9.4979677 12 10.878679C12 12.259392 10.880712 13.378679 9.5 13.378679C8.1192884 13.378679 7 12.259392 7 10.878679C7 10.250035 7.2320309 9.6755848 7.6151223 9.2362986L6 7.6209998L4.3848777 9.2362986C4.7679691 9.6755848 5 10.250035 5 10.878679C5 12.259392 3.8807118 13.378679 2.5 13.378679C1.1192881 13.378679 0 12.259392 0 10.878679C0 9.4979677 1.1192881 8.3786793 2.5 8.3786793C2.8878 8.3786793 3.2549767 8.4669781 3.5825226 8.6245661L5.2930002 6.914L1.0502526 2.6715729C0.68976855 2.3110888 0.66203904 1.7438579 0.9670639 1.3515667L1.0502526 1.2573593L6 6.2069998L10.949747 1.2573593ZM2.5 9.3786793C1.6715729 9.3786793 1 10.050253 1 10.878679C1 11.707107 1.6715729 12.378679 2.5 12.378679C3.3284271 12.378679 4 11.707107 4 10.878679C4 10.050253 3.3284271 9.3786793 2.5 9.3786793ZM9.5 9.3786793C8.6715727 9.3786793 8 10.050253 8 10.878679C8 11.707107 8.6715727 12.378679 9.5 12.378679C10.328427 12.378679 11 11.707107 11 10.878679C11 10.050253 10.328427 9.3786793 9.5 9.3786793Z"/>
</svg>
