<?xml version="1.0" encoding="utf-8" ?>
<svg xmlns="http://www.w3.org/2000/svg" xmlns:xlink="http://www.w3.org/1999/xlink" width="18" height="18">
	<path fill-opacity="1" transform="translate(2 2)" d="M7 0C10.698085 0 13.726385 2.8676851 13.982461 6.5006132L14 6.5L14 7.5L13.98239 7.5003924C13.725826 11.132844 10.697743 14 7 14C3.3022566 14 0.27417335 11.132844 0.017609732 7.5003924L0 7.5L0 6.5L0.017538765 6.5006132C0.27361444 2.8676851 3.3019154 0 7 0ZM8.9919033 7.5013118L5.0080962 7.5013118C5.0586686 9.06215 5.3438263 10.496498 5.7978249 11.555828C6.2165952 12.532959 6.6898274 13 7 13C7.3101726 13 7.7834048 12.532959 8.2021751 11.555828C8.6561737 10.496498 8.9413319 9.06215 8.9919033 7.5013118ZM4.0075521 7.5005608L1.0206115 7.5009036C1.2270386 9.9985237 2.9632411 12.062231 5.2899995 12.752807C4.565783 11.578702 4.0734568 9.6770105 4.0075521 7.5005608ZM12.979388 7.5009036L9.9924479 7.5005608C9.9265432 9.6770105 9.4342175 11.578702 8.7092371 12.75351C11.036758 12.062231 12.772962 9.9985237 12.979388 7.5009036ZM5.2907629 1.24649L5.2671208 1.2540342C2.9515564 1.9514068 1.2258989 4.0102215 1.0205289 6.5000973L4.0075221 6.5004349C4.0733066 4.3235693 4.5656724 2.4214768 5.2907629 1.24649ZM7 1C6.6898274 1 6.2165952 1.4670413 5.7978249 2.4441719C5.343729 3.5037286 5.0585465 4.9384646 5.0080638 6.4996905L8.9919357 6.4996905C8.9414539 4.9384646 8.656271 3.5037286 8.2021751 2.4441719C7.8113232 1.5321833 7.3730283 1.0645392 7.0641441 1.00624L7 1ZM8.71 1.2471938L8.7352276 1.2890836C9.4460773 2.4671462 9.9274826 4.3496799 9.9924784 6.5004349L12.979471 6.5000973C12.773425 4.002028 11.037069 1.9378614 8.71 1.2471938Z" fill-rule="evenodd"/>
</svg>
