<?xml version="1.0" encoding="UTF-8"?>
<svg width="12px" height="13px" viewBox="0 0 12 13" version="1.1" xmlns="http://www.w3.org/2000/svg" xmlns:xlink="http://www.w3.org/1999/xlink">
    <g id="桌面版" stroke="none" stroke-width="1" fill-rule="evenodd">
        <g id="聊天框各状态" transform="translate(-1583.000000, -1081.000000)">
            <g id="编组-4" transform="translate(1221.000000, 144.000000)">
                <g id="编组" transform="translate(10.000000, 676.000000)">
                    <g id="编组-16" transform="translate(0.000000, 46.000000)">
                        <path d="M363.502253,220.646902 L353.374994,215.114697 C352.670246,214.729775 351.851721,215.371927 352.02309,216.175429 L352.848588,220.045043 C352.936736,220.458042 353.275172,220.763792 353.683654,220.799461 L358.94978,221.259532 C359.235244,221.28448 359.235401,221.715368 358.949777,221.740485 L353.683327,222.201283 C353.274906,222.236948 352.936556,222.542739 352.84857,222.955711 L352.023023,226.82468 C351.851644,227.627856 352.67032,228.270161 353.374913,227.885394 L363.502083,222.353218 C364.165941,221.990447 364.165947,221.0095 363.502253,220.646902 Z" id="路径"></path>
                    </g>
                </g>
            </g>
        </g>
    </g>
</svg>