<?xml version="1.0" encoding="UTF-8"?>
<svg width="16px" height="16px" viewBox="0 0 16 16" version="1.1" xmlns="http://www.w3.org/2000/svg" xmlns:xlink="http://www.w3.org/1999/xlink">
    <title>source-dark</title>
    <g id="source-dark" stroke="none" stroke-width="1" fill="none" fill-rule="evenodd" fill-opacity="0.7">
        <path d="M8,2.12857143 C11.2427005,2.12857143 13.8714286,4.75729954 13.8714286,8 C13.8714286,11.2427005 11.2427005,13.8714286 8,13.8714286 C4.75729954,13.8714286 2.12857143,11.2427005 2.12857143,8 C2.12857143,4.75729954 4.75729954,2.12857143 8,2.12857143 Z M8,2.99642857 C5.23660381,2.99642857 2.99642857,5.23660381 2.99642857,8 C2.99642857,10.7633962 5.23660381,13.0035714 8,13.0035714 C10.7633962,13.0035714 13.0035714,10.7633962 13.0035714,8 C13.0035714,5.23660381 10.7633962,2.99642857 8,2.99642857 Z M10.2399045,5.19968908 C10.5906907,5.06407603 10.935924,5.40930925 10.8003908,5.7598885 L9.49952967,9.1421268 C9.43772127,9.30629614 9.30860784,9.43489517 9.1421268,9.49952967 L5.76009555,10.8003109 C5.40930925,10.935924 5.06407603,10.5906907 5.19960924,10.2401115 L6.50047033,6.8578732 C6.56460378,6.69268273 6.69268273,6.56460378 6.85825093,6.50032437 L10.2399045,5.19968908 Z M8,7.12142857 C7.5147784,7.12142857 7.12142857,7.5147784 7.12142857,8 C7.12142857,8.4852216 7.5147784,8.87857143 8,8.87857143 C8.4852216,8.87857143 8.87857143,8.4852216 8.87857143,8 C8.87857143,7.5147784 8.4852216,7.12142857 8,7.12142857 Z" id="形状" fill="#FFFFFF" fill-rule="nonzero"></path>
    </g>
</svg>