<?xml version="1.0" encoding="utf-8" ?>
<svg xmlns="http://www.w3.org/2000/svg" xmlns:xlink="http://www.w3.org/1999/xlink" width="20" height="20">
	<path fill-opacity="0.7019608" transform="translate(2 1.75)" d="M4.7011871 0C5.3639288 0 5.9011874 0.53725833 5.9011874 1.2C5.9011874 1.8627417 5.3639288 2.4000001 4.7011871 2.4000001C4.2815347 2.4000001 3.9121945 2.1845856 3.6977108 1.8583004C3.2934008 1.9848686 3 2.3634288 3 2.8105166L3 3.8099999L13 3.8105166C13.552285 3.8105166 14 4.2582316 14 4.8105164L14 6.8105164C14 7.3628016 13.552285 7.8105164 13 7.8105164L13 14.81L14.5 14.810516C14.776142 14.810516 15 15.034374 15 15.310516C15 15.586659 14.776142 15.810516 14.5 15.810516L0.5 15.810516C0.22385763 15.810516 1.6908844e-17 15.586659 0 15.310516C-3.3817688e-17 15.034374 0.22385763 14.810516 0.5 14.810516L2 14.81L2 7.8105164C1.4477153 7.8105164 1 7.3628016 1 6.8105164L1 4.8105164C1 4.2582316 1.4477153 3.8105166 2 3.8105166L2 2.8105166C2 1.8605435 2.6623209 1.0652636 3.5503829 0.86125678C3.6961107 0.3632665 4.1562262 0 4.7011871 0ZM12 7.8105164L3 7.8105164L3 14.810516L12 14.810516L12 7.8105164ZM13 4.8105164L2 4.8105164L2 6.8105164L13 6.8105164L13 4.8105164Z" fill-rule="evenodd"/>
</svg>
