<?xml version="1.0" encoding="UTF-8"?>
<svg width="13px" height="13px" viewBox="0 0 13 13" version="1.1" xmlns="http://www.w3.org/2000/svg" xmlns:xlink="http://www.w3.org/1999/xlink">
    <g id="草稿4" stroke="none" stroke-width="1" fill="none" fill-rule="evenodd">
        <g id="招投标宝典" transform="translate(-617, -374)" fill="#0081FF" fill-rule="nonzero">
            <g id="应用窗口" transform="translate(52, 57)">
                <g id="编组-35" transform="translate(20, 66)">
                    <g id="编组-23" transform="translate(14, 251.0999)">
                        <g id="编组-9" transform="translate(529, 0)">
                            <g id="编组" transform="translate(2.1, 0)">
                                <path d="M2,4.37502458 L2,12.300075 L1.77515847,12.300075 C1.30434553,12.300075 0.8529085,12.1131167 0.519962191,11.780249 C0.187044696,11.44741 0,10.9958707 0,10.5250755 L0,6.15007663 C0,5.6793412 0.187040025,5.22785307 0.519962191,4.89500943 C0.852867857,4.56213199 1.30435889,4.37513027 1.77515847,4.37513027 L2,4.37502458 Z M5.59445302,2.45772317e-05 C5.99606714,-0.00176111778 6.39197583,0.0937848735 6.74826297,0.278503123 C7.10462851,0.463184447 7.41087402,0.731591536 7.64068943,1.06065236 C7.87046964,1.38966278 8.01702551,1.76954285 8.06781835,2.16772701 C8.11854477,2.56579091 8.07191856,2.97030293 7.93196249,3.34650197 L7.58257413,4.23866636 L7.67568902,4.37513027 L10.525898,4.37513027 C10.7856009,4.37558309 11.0421544,4.43302552 11.2771921,4.54341798 C11.5124155,4.65387403 11.7204636,4.81453178 11.8867984,5.01422706 C12.0536788,5.21384274 12.1745979,5.44763325 12.2410731,5.6991709 C12.3075652,5.95077266 12.3179384,6.21384492 12.2714174,6.46966357 L11.4776039,10.8447015 C11.4029217,11.2529792 11.1873001,11.6223389 10.8683487,11.8883272 C10.5492768,12.1543237 10.1471675,12.300075 9.73209155,12.300075 L3.2,12.300075 L3.2,4.37502458 L3.24403261,4.37513027 L3.33540668,4.31576004 L5.11680723,0.309489831 C5.15806869,0.217773193 5.22518412,0.139547545 5.30993441,0.0845850743 C5.39471616,0.0296468765 5.49348777,0.000305068062 5.59445302,2.45772317e-05 Z" id="形状" transform="translate(6.15, 6.15) scale(1, -1) translate(-6.15, -6.15)"></path>
                            </g>
                        </g>
                    </g>
                </g>
            </g>
        </g>
    </g>
</svg>