<?xml version="1.0" encoding="UTF-8"?>
<svg width="13px" height="13px" viewBox="0 0 13 13" version="1.1" xmlns="http://www.w3.org/2000/svg" xmlns:xlink="http://www.w3.org/1999/xlink">
    <g id="草稿4" stroke="none" stroke-width="1" fill-rule="evenodd" fill-opacity="0.7">
        <g id="招投标宝典" transform="translate(-643, -682)" fill-rule="nonzero">
            <g id="应用窗口" transform="translate(52, 57)">
                <g id="编组-35" transform="translate(20, 66)">
                    <g id="编组-33" transform="translate(0, 374)">
                        <g id="编组-26" transform="translate(14, 182)">
                            <g id="编组-9" transform="translate(563, 9) scale(1, -1) translate(-563, -9)translate(555, 1)">
                                <g id="编组" transform="translate(2.1, 1.1)">
                                    <path d="M5.59445302,1.25886714e-15 C5.99606714,-0.00181096636 6.39197583,0.0937350249 6.74826297,0.278453274 C7.10462851,0.463134599 7.41087402,0.731541688 7.64068943,1.06060251 C7.87046964,1.38961293 8.01702551,1.76949301 8.06781835,2.16767716 C8.11854477,2.56574106 8.07191856,2.97025308 7.93196249,3.34645212 L7.58257413,4.23861651 L7.67568902,4.37508042 L10.525898,4.37508042 C10.7856009,4.37553324 11.0421544,4.43297568 11.2771921,4.54336813 C11.5124155,4.65382418 11.7204636,4.81448193 11.8867984,5.01417721 C12.0536788,5.2137929 12.1745979,5.4475834 12.2410731,5.69912105 C12.3075652,5.95072281 12.3179384,6.21379507 12.2714174,6.46961372 L11.4776039,10.8446516 C11.4029217,11.2529294 11.1873001,11.622289 10.8683487,11.8882773 C10.5492768,12.1542739 10.1471675,12.3000251 9.73209155,12.3000251 L1.77515847,12.3000251 C1.30434553,12.3000251 0.8529085,12.1130669 0.519962191,11.7801991 C0.187044696,11.4473602 1.09157128e-12,10.9958208 1.09157128e-12,10.5250256 L1.09157128e-12,6.15002678 C1.09157128e-12,5.67929136 0.187040025,5.22780322 0.519962191,4.89495959 C0.852867857,4.56208214 1.30435889,4.37508042 1.77515847,4.37508042 L3.24403261,4.37508042 L3.33540668,4.31571019 L5.11680723,0.309439982 C5.15806869,0.217723345 5.22518412,0.139497696 5.30993441,0.0845352258 C5.39471616,0.0295970279 5.49348777,0.00025521949 5.59445302,1.25886714e-15 Z M3.02526412,5.42502695 L1.77515847,5.42502695 C1.58291719,5.42502695 1.39850198,5.50142245 1.26251834,5.6373329 C1.12648295,5.77341841 1.05010565,5.95775841 1.05010565,6.15002678 L1.05010565,10.5250269 C1.05010565,10.7173392 1.12647732,10.9016815 1.26248628,11.0377406 C1.39844114,11.1736839 1.58284416,11.2500255 1.77515847,11.2500255 L3.02526412,11.2500255 L3.12526412,11.1500255 L3.12526412,5.52502695 L3.02526412,5.42502695 Z M6.00348832,1.11030574 L5.88412289,1.16569336 L4.18398984,4.99068173 L4.17536977,11.1501108 L4.27536977,11.2502878 L9.73209155,11.2502878 C9.9022296,11.2528354 10.0692979,11.194609 10.2020618,11.0857075 C10.3347936,10.976905 10.4246248,10.8244404 10.4555132,10.6555242 L11.2495665,6.27911916 C11.2672548,6.17392248 11.2614812,6.06610068 11.2326839,5.96325306 C11.203808,5.86046827 11.1526428,5.76536326 11.0828109,5.68462889 C11.0158823,5.6042335 10.9304873,5.5383912 10.8340444,5.49331847 C10.7376389,5.4481976 10.6324071,5.42490362 10.5257823,5.42502701 L7.67568902,5.42502695 C7.49026696,5.42473369 7.30759036,5.37955232 7.1433045,5.29330955 C6.97899382,5.20705376 6.83796821,5.08231764 6.73235371,4.92982519 C6.62671494,4.77729769 6.55954377,4.60147078 6.53661576,4.41742681 C6.51363981,4.23334151 6.53556233,4.04641012 6.6004794,3.87256257 L6.93185212,2.97857614 C7.00158785,2.79656778 7.03297541,2.60086604 7.02370688,2.40487042 C7.01432142,2.20887935 6.96447153,2.01706358 6.87725696,1.84150628 C6.79006744,1.66588432 6.66741588,1.51020092 6.51709292,1.38436114 C6.36661771,1.25848964 6.19176247,1.16518818 6.00348832,1.11030574 Z" id="形状"></path>
                                </g>
                            </g>
                        </g>
                    </g>
                </g>
            </g>
        </g>
    </g>
</svg>