<?xml version="1.0" encoding="UTF-8"?>
<svg width="13px" height="13px" viewBox="0 0 13 13" version="1.1" xmlns="http://www.w3.org/2000/svg" xmlns:xlink="http://www.w3.org/1999/xlink">
    <g id="草稿4" stroke="none" stroke-width="1" fill-rule="evenodd" fill-opacity="0.7">
        <g id="招投标宝典" transform="translate(-763, -682)" fill-rule="nonzero">
            <path d="M768.694453,682.099924 C769.096067,682.098113 769.491976,682.193659 769.848263,682.378378 C770.204629,682.563059 770.510874,682.831466 770.740689,683.160527 C770.97047,683.489537 771.117026,683.869417 771.167818,684.267601 C771.218545,684.665665 771.171919,685.070177 771.031962,685.446376 L770.682574,686.338541 L770.775689,686.475005 L773.625898,686.475005 C773.885601,686.475458 774.142154,686.5329 774.377192,686.643292 C774.612415,686.753748 774.820464,686.914406 774.986798,687.114102 C775.153679,687.313717 775.274598,687.547508 775.341073,687.799045 C775.407565,688.050647 775.417938,688.313719 775.371417,688.569538 L774.577604,692.944576 C774.502922,693.352854 774.2873,693.722213 773.968349,693.988202 C773.649277,694.254198 773.247168,694.399949 772.832092,694.399949 L764.875158,694.399949 C764.404346,694.399949 763.952909,694.212991 763.619962,693.880123 C763.287045,693.547284 763.1,693.095745 763.1,692.62495 L763.1,688.249951 C763.1,687.779216 763.28704,687.327728 763.619962,686.994884 C763.952868,686.662006 764.404359,686.475005 764.875158,686.475005 L766.344033,686.475005 L766.435407,686.415635 L768.216807,682.409364 C768.258069,682.317648 768.325184,682.239422 768.409934,682.18446 C768.494716,682.129521 768.593488,682.10018 768.694453,682.099924 Z M766.125264,687.524951 L764.875158,687.524951 C764.682917,687.524951 764.498502,687.601347 764.362518,687.737257 C764.226483,687.873343 764.150106,688.057683 764.150106,688.249951 L764.150106,692.624951 C764.150106,692.817264 764.226477,693.001606 764.362486,693.137665 C764.498441,693.273608 764.682844,693.34995 764.875158,693.34995 L766.125264,693.34995 L766.225264,693.24995 L766.225264,687.624951 L766.125264,687.524951 Z M769.103488,683.21023 L768.984123,683.265618 L767.28399,687.090606 L767.27537,693.250035 L767.37537,693.350212 L772.832092,693.350212 C773.00223,693.35276 773.169298,693.294533 773.302062,693.185632 C773.434794,693.076829 773.524625,692.924365 773.555513,692.755448 L774.349566,688.379043 C774.367255,688.273847 774.361481,688.166025 774.332684,688.063177 C774.303808,687.960393 774.252643,687.865288 774.182811,687.784553 C774.115882,687.704158 774.030487,687.638316 773.934044,687.593243 C773.837639,687.548122 773.732407,687.524828 773.625782,687.524951 L770.775689,687.524951 C770.590267,687.524658 770.40759,687.479477 770.243304,687.393234 C770.078994,687.306978 769.937968,687.182242 769.832354,687.02975 C769.726715,686.877222 769.659544,686.701395 769.636616,686.517351 C769.61364,686.333266 769.635562,686.146334 769.700479,685.972487 L770.031852,685.0785 C770.101588,684.896492 770.132975,684.70079 770.123707,684.504795 C770.114321,684.308804 770.064472,684.116988 769.977257,683.941431 C769.890067,683.765809 769.767416,683.610125 769.617093,683.484285 C769.466618,683.358414 769.291762,683.265112 769.103488,683.21023 Z" id="形状" transform="translate(769.25, 688.2499) scale(1, -1) translate(-769.25, -688.2499)"></path>
        </g>
    </g>
</svg>