<?xml version="1.0" encoding="UTF-8"?>
<svg width="15px" height="15px" fill="currentColor" viewBox="0 0 15 15" version="1.1" xmlns="http://www.w3.org/2000/svg" xmlns:xlink="http://www.w3.org/1999/xlink">
    <g id="桌面版" stroke="none" stroke-width="1" fill-rule="evenodd">
        <g id="聊天框各状态" transform="translate(-916.000000, -2311.000000)" fill="currentColor" fill-rule="nonzero">
            <g id="编组-4" transform="translate(738.000000, 1548.000000)">
                <g id="编组-5" transform="translate(162.000000, 755.000000)">
                    <g id="刷新-(15)" transform="translate(15.000000, 7.000000)">
                        <g id="停止" transform="translate(1.000000, 1.000000)">
                            <path d="M7.5,0 C11.6400003,0 15,3.36000001 15,7.5 C15,11.6400003 11.6400003,15 7.5,15 C3.44117648,15 0.132064591,11.7704732 0.00385598301,7.74261033 L0,7.5 C0,3.36000001 3.36000001,0 7.5,0 Z M7.5,1.5 C4.19250011,1.5 1.5,4.19250011 1.5,7.5 C1.5,10.8074999 4.19250011,13.5 7.5,13.5 L7.72453397,13.4958521 C10.9284955,13.377296 13.5,10.7323294 13.5,7.5 C13.5,4.19250011 10.8074999,1.5 7.5,1.5 Z M5.5,8.75 L5.5,6.25 C5.5,5.83578644 5.83578644,5.5 6.25,5.5 L8.75,5.5 C9.16421356,5.5 9.5,5.83578644 9.5,6.25 L9.5,8.75 C9.5,9.16421356 9.16421356,9.5 8.75,9.5 L6.25,9.5 C5.83578644,9.5 5.5,9.16421356 5.5,8.75 Z" id="形状"></path>
                        </g>
                    </g>
                </g>
            </g>
        </g>
    </g>
</svg>