<?xml version="1.0" encoding="utf-8" ?>
<svg xmlns="http://www.w3.org/2000/svg" xmlns:xlink="http://www.w3.org/1999/xlink" width="20" height="20">
	<path fill-opacity="0.7019608" transform="translate(2.5 4)" d="M12.251311 0.00040706593C13.078033 -0.015880939 13.845593 0.45775259 14.236488 1.2197053C14.625808 1.9785857 14.577093 2.8976467 14.134323 3.5527103L9.5843306 11.983994L9.3956823 12.18354L6.543582 13.924129C6.1982827 14.134859 5.7598505 13.881803 5.7577682 13.470569L5.7399845 9.9590769L5.8046613 9.6995583L10.335452 1.3076231C10.678778 0.52457482 11.420932 0.01676712 12.251311 0.00040706593ZM10.191647 3.7650714L6.778419 10.092577L6.7912855 12.53416L8.7401304 11.344861L12.173343 4.9877687L10.191647 3.7650714ZM2.9679863 9.6287155C3.2441287 9.6287155 3.4679863 9.8525724 3.4679863 10.128716C3.4679863 10.404858 3.2441287 10.628716 2.9679863 10.628716L0.5 10.628716C0.22385763 10.628716 0 10.404858 0 10.128716C0 9.8525724 0.22385763 9.6287155 0.5 9.6287155L2.9679863 9.6287155ZM5.6470232 5.2038407C5.9231658 5.2038407 6.1470232 5.4276981 6.1470232 5.7038407C6.1470232 5.9799829 5.9231658 6.2038407 5.6470232 6.2038407L0.5 6.2038407C0.22385763 6.2038407 0 5.9799829 0 5.7038407C0 5.4276981 0.22385763 5.2038407 0.5 5.2038407L5.6470232 5.2038407ZM12.271326 1.0629696C11.95176 1.0692656 11.657027 1.2178415 11.453841 1.4646021L11.360186 1.5959603L11.264439 1.7818063L10.695245 2.8342507L12.67694 4.0569477L13.251101 2.9951661C13.469931 2.6692176 13.517469 2.2476563 13.384411 1.8714927L13.316301 1.7134705C13.106623 1.3047543 12.701071 1.0545027 12.271326 1.0629696ZM8.3260603 0.6462729C8.6022024 0.6462729 8.8260603 0.87013054 8.8260603 1.1462729C8.8260603 1.4224153 8.6022024 1.6462729 8.3260603 1.6462729L0.71105081 1.6462729C0.43490845 1.6462729 0.21105082 1.4224153 0.21105082 1.1462729C0.21105082 0.87013054 0.43490845 0.6462729 0.71105081 0.6462729L8.3260603 0.6462729Z"/>
</svg>
