<?xml version="1.0" encoding="utf-8" ?>
<svg xmlns="http://www.w3.org/2000/svg" xmlns:xlink="http://www.w3.org/1999/xlink" width="16" height="16">
	<path transform="translate(1.9 1.9)" d="M11.242857 4.742857C12.268529 4.742857 13.1 5.5743284 13.1 6.5999999L13.1 11.242857C13.1 12.268529 12.268529 13.1 11.242857 13.1L6.5999999 13.1C5.5743284 13.1 4.742857 12.268529 4.742857 11.242857L4.742857 6.5999999C4.742857 5.5743284 5.5743284 4.742857 6.5999999 4.742857L11.242857 4.742857ZM11.242857 5.9428573L6.5999999 5.9428573C6.2370701 5.9428573 5.9428573 6.2370701 5.9428573 6.5999999L5.9428573 11.242857C5.9428573 11.605787 6.2370701 11.9 6.5999999 11.9L11.242857 11.9C11.605787 11.9 11.9 11.605787 11.9 11.242857L11.9 6.5999999C11.9 6.2370701 11.605787 5.9428573 11.242857 5.9428573ZM6.5999999 0C7.6809001 0 8.5571432 0.8762427 8.5571432 1.9571506L8.5570002 3.8140078L8.4569998 3.914L7.5279999 3.914L7.428 3.8139691L7.4285712 1.9571428C7.4285712 1.5355268 7.1119666 1.1823771 6.7025318 1.1346526L6.5999999 1.1285714L1.9571428 1.1285714C1.5355268 1.1285714 1.1823771 1.4451765 1.1346526 1.8546112L1.1285714 1.9571428L1.1285714 6.5999999C1.1285714 7.021616 1.4451765 7.3747659 1.8546112 7.4224901L1.9571121 7.4285712L3.8139691 7.428L3.914 7.5279999L3.914 8.4569998L3.8140078 8.5570002L1.9571428 8.5571432C0.8762427 8.5571432 0 7.6809001 0 6.5999999L0 1.9571428C0 0.8762427 0.8762427 0 1.9571428 0L6.5999999 0Z"/>
</svg>
