<?xml version="1.0" encoding="UTF-8"?>
<svg width="12px" height="16px" viewBox="0 0 12 16" version="1.1" xmlns="http://www.w3.org/2000/svg" xmlns:xlink="http://www.w3.org/1999/xlink">
    <g id="草稿4" stroke="none" stroke-width="1" fill-rule="evenodd">
        <g id="指令" transform="translate(-986, -938)" fill-rule="nonzero">
            <g id="能听能说" transform="translate(670, 16)">
                <g id="编组-13" transform="translate(10, 787)">
                    <g id="编组-10" transform="translate(297, 128)">
                        <g id="编组" transform="translate(9, 7.5)">
                            <path d="M11.4989118,6.99999867 C11.7750535,6.99938632 11.9994091,7.2227449 12.0000498,7.49888659 C12.0015915,8.20280482 11.8611791,8.9000498 11.5869291,9.5505358 C11.3127839,10.2004851 10.9104625,10.7906503 10.4031911,11.2871733 C9.89640454,11.7833286 9.29490743,12.1763557 8.63342689,12.4436582 C8.06675338,12.672755 7.46539464,12.8059545 6.85554273,12.8383837 L6.5,12.846 L6.50001994,14.4999987 C6.50001994,14.7761424 6.27616231,14.9999987 6.00001994,14.9999987 C5.72387756,14.9999987 5.50001994,14.7761424 5.50001994,14.4999987 L5.5,12.846 L5.45109879,12.8461781 C4.73608363,12.8476905 4.02775408,12.7109378 3.36670636,12.443687 C2.70516862,12.1763566 2.10366623,11.783334 1.59684633,11.2871817 C1.08958169,10.7905821 0.687276896,10.2004096 0.413181629,9.55052118 C0.138870794,8.9001216 -0.00156503268,8.20285271 5.72319969e-14,7.4988696 C0.000650834191,7.22272793 0.225013983,6.99937698 0.501155653,6.99999867 C0.777297322,7.00062558 1.00064828,7.22498873 1.00002398,7.5011304 C0.998736158,8.07076026 1.11240028,8.63510671 1.33458459,9.16191267 C1.55699819,9.68926226 1.88380598,10.1686823 2.29639704,10.5725987 C2.70969154,10.9771942 3.20077674,11.29807 3.74144678,11.5165572 C4.28270632,11.7353796 4.86302096,11.8474173 5.4500316,11.8461655 L6.55109747,11.8461667 C7.13704092,11.8474173 7.71735556,11.7353796 8.25868942,11.5165272 C8.79929341,11.2980706 9.2903618,10.9771993 9.70365746,10.5725737 C10.1162698,10.1687039 10.4430812,9.68930431 10.6655076,9.16197115 C10.8876398,8.63510206 11.0012949,8.07072547 11.0000265,7.50111341 C10.9994116,7.22497172 11.2227702,7.00061616 11.4989118,6.99999867 Z M6.00001994,0 C6.85975384,0 7.68490582,0.334616933 8.29435063,0.931274363 C8.90585602,1.52995168 9.25002325,2.3434117 9.25002325,3.19230769 L9.25002325,6.96153846 C9.25002325,7.81043445 8.90585602,8.62389447 8.29435063,9.22257179 C7.68490767,9.81922996 6.85975585,10.1538462 6.00001994,10.1538462 C5.14028403,10.1538462 4.31513221,9.81922996 3.70568924,9.22257179 C3.09418597,8.62389654 2.75002325,7.81043735 2.75002325,6.96153846 L2.75002325,3.19230769 C2.75002325,2.34340881 3.09418597,1.52994962 3.70569001,0.931273617 C4.31513406,0.334616933 5.14028603,0 6.00001994,0 Z M6.00001994,1 C5.40106621,1 4.82726228,1.23268988 4.40526132,1.64583641 C3.98532158,2.05696672 3.75002325,2.61311524 3.75002325,3.19230769 L3.75002325,6.96153846 C3.75002325,7.54073092 3.98532158,8.09687944 4.40526132,8.50800975 C4.82726136,8.92115714 5.40106431,9.15384615 6.00001994,9.15384615 C6.59897557,9.15384615 7.17277851,8.92115714 7.59477856,8.50800975 C8.01472151,8.09687629 8.25002325,7.54072644 8.25002325,6.96153846 L8.25002325,3.19230769 C8.25002325,2.61311971 8.01472151,2.05696986 7.59477932,1.64583715 C7.1727776,1.23268988 6.59897367,1 6.00001994,1 Z" id="形状"></path>
                        </g>
                    </g>
                </g>
            </g>
        </g>
    </g>
</svg>