<?xml version="1.0" encoding="UTF-8"?>
<svg width="12px" height="17px" viewBox="0 0 12 17" version="1.1" xmlns="http://www.w3.org/2000/svg" xmlns:xlink="http://www.w3.org/1999/xlink">
    <g id="v1.1.2" stroke="none" stroke-width="1" fill-rule="evenodd">
        <g id="语音状态" transform="translate(-378.000000, -1046.000000)" fill-rule="nonzero">
            <g id="编组-4" transform="translate(62.000000, 129.000000)">
                <g id="编组-6" transform="translate(10.000000, 782.000000)">
                    <g id="编组-10" transform="translate(297.000000, 128.000000)">
                        <path d="M14.9876413,20.2465999 C17.231709,20.2531538 19.1450771,18.6380876 19.4932866,16.4434032 C19.5345647,16.1785211 19.7154504,15.9555608 19.9678058,15.8585094 C20.2201613,15.761458 20.5056476,15.8050599 20.716725,15.9728906 C20.9278024,16.1407214 21.0324031,16.4072835 20.991125,16.6721656 C20.5753469,19.3164572 18.4415938,21.3688704 15.7596762,21.7041881 L15.7589186,23.2507719 C15.758474,23.6476135 15.4458571,23.9754347 15.0456878,23.9986915 C14.6455185,24.0219482 14.2963032,23.7325908 14.2489581,23.3385267 L14.2436547,23.2507719 L14.2436547,21.7041881 C11.5482433,21.367471 9.40809027,19.2968796 9.00614485,16.6369137 C8.95405656,16.231915 9.23874393,15.8600587 9.64669307,15.8002349 C10.0546422,15.7404111 10.4359958,16.0145957 10.5047409,16.4171518 C10.8398643,18.6138319 12.7435735,20.240046 14.9876413,20.2465999 Z M18.0318145,10.0001625 L18.0318145,15.7503656 C18.0318145,17.4073097 16.675001,18.7505282 15.0012866,18.7505282 C13.3275723,18.7505282 11.9707587,17.4073097 11.9707587,15.7503656 L11.9707587,10.0001625 C11.9707587,8.34321851 13.3275723,7 15.0012866,7 C16.675001,7 18.0318145,8.34321851 18.0318145,10.0001625 Z" id="voice"></path>
                    </g>
                </g>
            </g>
        </g>
    </g>
</svg>