<?xml version="1.0" encoding="utf-8" ?>
<svg xmlns="http://www.w3.org/2000/svg" xmlns:xlink="http://www.w3.org/1999/xlink" width="20" height="20">
	<path fill-opacity="0.7019608" transform="translate(2 4)" d="M13.333333 0C14.253808 0 15 0.74619204 15 1.6666666L15 11.333333C15 12.253808 14.253808 13 13.333333 13L1.6666666 13C0.74619204 13 0 12.253808 0 11.333333L0 1.6666666C0 0.74619204 0.74619204 0 1.6666666 0L13.333333 0ZM13.333333 1L1.6666666 1C1.2984768 1 1 1.2984768 1 1.6666666L1 11.333333C1 11.701523 1.2984768 12 1.6666666 12L13.333333 12C13.701523 12 14 11.701523 14 11.333333L14 1.6666666C14 1.2984768 13.701523 1 13.333333 1ZM4.25 8L4.25 11L3.25 11L3.25 8L4.25 8ZM11.75 5L11.75 11L10.75 11L10.75 5L11.75 5ZM6.75 7L6.75 11L5.75 11L5.75 7L6.75 7ZM9.25 6L9.25 11L8.25 11L8.25 6L9.25 6ZM10.673891 2L11.035088 3.4052448L10.421053 2.9970312C8.4992542 5.4512615 4.791729 5.6379437 3.99156 5.6491294L3.8369453 5.6491838C7.9907122 4.9861455 9.6780186 2.5170708 9.6805983 2.5170708L9.0846233 2.0989609L10.673891 2Z"/>
</svg>
