<?xml version="1.0" encoding="UTF-8"?>
<svg width="18px" height="18px" viewBox="0 0 18 18" version="1.1" xmlns="http://www.w3.org/2000/svg" xmlns:xlink="http://www.w3.org/1999/xlink">
    <g id="xiangmu" stroke="none" stroke-width="1" fill-rule="evenodd" fill-opacity="0.7">
        <path d="M2.93283582,2 C2.41764482,2 2,2.41992051 2,2.93791871 L2,7.37364895 C2,7.89164715 2.41764482,8.31156766 2.93283582,8.31156766 L7.34452736,8.31156766 C7.85971836,8.31156766 8.27736318,7.89164715 8.27736318,7.37364895 L8.27736318,2.93791871 C8.27736318,2.41992051 7.85971836,2 7.34452736,2 L2.93283582,2 L2.93283582,2 Z M2.93283582,9.68905762 C2.41764482,9.68905762 2,10.1089781 2,10.6269763 L2,15.0620813 C2,15.5800795 2.41764482,16 2.93283582,16 L7.34452736,16 C7.85971836,16 8.27736318,15.5800795 8.27736318,15.0620813 L8.27736318,10.6269763 C8.27736318,10.1089781 7.85971836,9.68905762 7.34452736,9.68905762 L2.93283582,9.68905762 Z M10.6554726,9.68905762 C10.1402816,9.68905762 9.72263682,10.1089781 9.72263682,10.6269763 L9.72263682,15.0620813 C9.72263682,15.5800795 10.1402816,16 10.6554726,16 L15.0671642,16 C15.5823552,16 16,15.5800795 16,15.0620813 L16,10.6269763 C16,10.1089781 15.5823552,9.68905762 15.0671642,9.68905762 L10.6554726,9.68905762 L10.6554726,9.68905762 Z M13.3190299,2.380795 C13.2761413,2.16075309 13.0843307,2.00202335 12.8613184,2.00202335 C12.6383061,2.00202335 12.4464955,2.16075309 12.403607,2.380795 C12.175995,3.54631532 11.2655473,4.46797678 10.1473881,4.69432782 C9.93000709,4.73870943 9.77378614,4.93088203 9.77378614,5.15390799 C9.77378614,5.37693396 9.93000709,5.56910656 10.1473881,5.61348816 C11.2649254,5.83858866 12.1753731,6.76150067 12.4029851,7.92764627 C12.4458736,8.14768818 12.6376842,8.30641792 12.8606965,8.30641792 C13.0837088,8.30641792 13.2755194,8.14768818 13.318408,7.92764627 C13.5460199,6.76212595 14.4564677,5.84046449 15.5746269,5.61473872 C15.7920078,5.57035712 15.9482288,5.37818452 15.9482288,5.15515855 C15.9482288,4.93213259 15.7920078,4.73995999 15.5746269,4.69557838 C14.4570896,4.46922733 13.5466418,3.5469406 13.3190299,2.380795 L13.3190299,2.380795 Z"></path>
    </g>
</svg>