<?xml version="1.0" encoding="UTF-8"?>
<svg width="72px" height="20px" viewBox="0 0 72 20" version="1.1" xmlns="http://www.w3.org/2000/svg" xmlns:xlink="http://www.w3.org/1999/xlink">
    <g id="5" stroke="none" stroke-width="1" fill-rule="evenodd">
        <path d="M16.571429,4.85 C17.2065565,4.85 17.721429,5.36487254 17.721429,6 L17.721429,14 C17.721429,14.6351275 17.2065565,15.15 16.571429,15.15 C15.9363015,15.15 15.421429,14.6351275 15.421429,14 L15.421429,6 C15.421429,5.36487254 15.9363015,4.85 16.571429,4.85 Z M26.285715,5.85 C26.9208425,5.85 27.435715,6.36487254 27.435715,7 L27.435715,13 C27.435715,13.6351275 26.9208425,14.15 26.285715,14.15 C25.6505875,14.15 25.135715,13.6351275 25.135715,13 L25.135715,7 C25.135715,6.36487254 25.6505875,5.85 26.285715,5.85 Z M36.000001,5.85 C36.6351285,5.85 37.150001,6.36487254 37.150001,7 L37.150001,13 C37.150001,13.6351275 36.6351285,14.15 36.000001,14.15 C35.3648735,14.15 34.850001,13.6351275 34.850001,13 L34.850001,7 C34.850001,6.36487254 35.3648735,5.85 36.000001,5.85 Z M21.428572,6.35 C22.0636995,6.35 22.578572,6.86487254 22.578572,7.5 L22.578572,12.5 C22.578572,13.1351275 22.0636995,13.65 21.428572,13.65 C20.7934445,13.65 20.278572,13.1351275 20.278572,12.5 L20.278572,7.5 C20.278572,6.86487254 20.7934445,6.35 21.428572,6.35 Z M11.714286,6.85 C12.3494135,6.85 12.864286,7.36487254 12.864286,8 L12.864286,12 C12.864286,12.6351275 12.3494135,13.15 11.714286,13.15 C11.0791585,13.15 10.564286,12.6351275 10.564286,12 L10.564286,8 C10.564286,7.36487254 11.0791585,6.85 11.714286,6.85 Z M31.142858,7.35 C31.7779855,7.35 32.292858,7.86487254 32.292858,8.5 L32.292858,11.5 C32.292858,12.1351275 31.7779855,12.65 31.142858,12.65 C30.5077305,12.65 29.992858,12.1351275 29.992858,11.5 L29.992858,8.5 C29.992858,7.86487254 30.5077305,7.35 31.142858,7.35 Z M40.857144,8.35 C41.4922715,8.35 42.007144,8.86487254 42.007144,9.5 L42.007144,10.5 C42.007144,11.1351275 41.4922715,11.65 40.857144,11.65 C40.2220165,11.65 39.707144,11.1351275 39.707144,10.5 L39.707144,9.5 C39.707144,8.86487254 40.2220165,8.35 40.857144,8.35 Z M50.57143,8.35 C51.2065575,8.35 51.72143,8.86487254 51.72143,9.5 L51.72143,10.5 C51.72143,11.1351275 51.2065575,11.65 50.57143,11.65 C49.9363025,11.65 49.42143,11.1351275 49.42143,10.5 L49.42143,9.5 C49.42143,8.86487254 49.9363025,8.35 50.57143,8.35 Z M45.714287,8.35 C46.3494145,8.35 46.864287,8.86487254 46.864287,9.5 L46.864287,10.5 C46.864287,11.1351275 46.3494145,11.65 45.714287,11.65 C45.0791595,11.65 44.564287,11.1351275 44.564287,10.5 L44.564287,9.5 C44.564287,8.86487254 45.0791595,8.35 45.714287,8.35 Z M6.857143,8.35 C7.49227046,8.35 8.007143,8.86487254 8.007143,9.5 L8.007143,10.5 C8.007143,11.1351275 7.49227046,11.65 6.857143,11.65 C6.22201554,11.65 5.707143,11.1351275 5.707143,10.5 L5.707143,9.5 C5.707143,8.86487254 6.22201554,8.35 6.857143,8.35 Z M2,8.6 C2.63512746,8.6 3.15,9.11487254 3.15,9.75 L3.15,10.25 C3.15,10.8851275 2.63512746,11.4 2,11.4 C1.36487254,11.4 0.85,10.8851275 0.85,10.25 L0.85,9.75 C0.85,9.11487254 1.36487254,8.6 2,8.6 Z M70.000002,8.6 C70.6351295,8.6 71.150002,9.11487254 71.150002,9.75 L71.150002,10.25 C71.150002,10.8851275 70.6351295,11.4 70.000002,11.4 C69.3648745,11.4 68.850002,10.8851275 68.850002,10.25 L68.850002,9.75 C68.850002,9.11487254 69.3648745,8.6 70.000002,8.6 Z M65.142859,8.6 C65.7779865,8.6 66.292859,9.11487254 66.292859,9.75 L66.292859,10.25 C66.292859,10.8851275 65.7779865,11.4 65.142859,11.4 C64.5077315,11.4 63.992859,10.8851275 63.992859,10.25 L63.992859,9.75 C63.992859,9.11487254 64.5077315,8.6 65.142859,8.6 Z M55.428573,8.6 C56.0637005,8.6 56.578573,9.11487254 56.578573,9.75 L56.578573,10.25 C56.578573,10.8851275 56.0637005,11.4 55.428573,11.4 C54.7934455,11.4 54.278573,10.8851275 54.278573,10.25 L54.278573,9.75 C54.278573,9.11487254 54.7934455,8.6 55.428573,8.6 Z M60.285716,8.85 C60.9208435,8.85 61.435716,9.36487254 61.435716,10 C61.435716,10.6351275 60.9208435,11.15 60.285716,11.15 C59.6505885,11.15 59.135716,10.6351275 59.135716,10 C59.135716,9.36487254 59.6505885,8.85 60.285716,8.85 Z" id="形状"fill-rule="nonzero"></path>
    </g>
</svg>