<?xml version="1.0" encoding="UTF-8"?>
<svg width="72px" height="20px" viewBox="0 0 72 20" version="1.1" xmlns="http://www.w3.org/2000/svg" xmlns:xlink="http://www.w3.org/1999/xlink">
    <g id="2" stroke="none" stroke-width="1" fill-rule="evenodd">
        <path d="M21.428572,5.35 C22.0636995,5.35 22.578572,5.86487254 22.578572,6.5 L22.578572,13.5 C22.578572,14.1351275 22.0636995,14.65 21.428572,14.65 C20.7934445,14.65 20.278572,14.1351275 20.278572,13.5 L20.278572,6.5 C20.278572,5.86487254 20.7934445,5.35 21.428572,5.35 Z M31.142858,7.35 C31.7779855,7.35 32.292858,7.86487254 32.292858,8.5 L32.292858,11.5 C32.292858,12.1351275 31.7779855,12.65 31.142858,12.65 C30.5077305,12.65 29.992858,12.1351275 29.992858,11.5 L29.992858,8.5 C29.992858,7.86487254 30.5077305,7.35 31.142858,7.35 Z M50.57143,7.35 C51.2065575,7.35 51.72143,7.86487254 51.72143,8.5 L51.72143,11.5 C51.72143,12.1351275 51.2065575,12.65 50.57143,12.65 C49.9363025,12.65 49.42143,12.1351275 49.42143,11.5 L49.42143,8.5 C49.42143,7.86487254 49.9363025,7.35 50.57143,7.35 Z M60.285716,7.85 C60.9208435,7.85 61.435716,8.36487254 61.435716,9 L61.435716,11 C61.435716,11.6351275 60.9208435,12.15 60.285716,12.15 C59.6505885,12.15 59.135716,11.6351275 59.135716,11 L59.135716,9 C59.135716,8.36487254 59.6505885,7.85 60.285716,7.85 Z M6.857143,8.35 C7.49227046,8.35 8.007143,8.86487254 8.007143,9.5 L8.007143,10.5 C8.007143,11.1351275 7.49227046,11.65 6.857143,11.65 C6.22201554,11.65 5.707143,11.1351275 5.707143,10.5 L5.707143,9.5 C5.707143,8.86487254 6.22201554,8.35 6.857143,8.35 Z M55.428573,8.35 C56.0637005,8.35 56.578573,8.86487254 56.578573,9.5 L56.578573,10.5 C56.578573,11.1351275 56.0637005,11.65 55.428573,11.65 C54.7934455,11.65 54.278573,11.1351275 54.278573,10.5 L54.278573,9.5 C54.278573,8.86487254 54.7934455,8.35 55.428573,8.35 Z M40.857144,8.35 C41.4922715,8.35 42.007144,8.86487254 42.007144,9.5 L42.007144,10.5 C42.007144,11.1351275 41.4922715,11.65 40.857144,11.65 C40.2220165,11.65 39.707144,11.1351275 39.707144,10.5 L39.707144,9.5 C39.707144,8.86487254 40.2220165,8.35 40.857144,8.35 Z M45.714287,8.35 C46.3494145,8.35 46.864287,8.86487254 46.864287,9.5 L46.864287,10.5 C46.864287,11.1351275 46.3494145,11.65 45.714287,11.65 C45.0791595,11.65 44.564287,11.1351275 44.564287,10.5 L44.564287,9.5 C44.564287,8.86487254 45.0791595,8.35 45.714287,8.35 Z M26.285715,8.35 C26.9208425,8.35 27.435715,8.86487254 27.435715,9.5 L27.435715,10.5 C27.435715,11.1351275 26.9208425,11.65 26.285715,11.65 C25.6505875,11.65 25.135715,11.1351275 25.135715,10.5 L25.135715,9.5 C25.135715,8.86487254 25.6505875,8.35 26.285715,8.35 Z M16.571429,8.35 C17.2065565,8.35 17.721429,8.86487254 17.721429,9.5 L17.721429,10.5 C17.721429,11.1351275 17.2065565,11.65 16.571429,11.65 C15.9363015,11.65 15.421429,11.1351275 15.421429,10.5 L15.421429,9.5 C15.421429,8.86487254 15.9363015,8.35 16.571429,8.35 Z M2,8.85 C2.63512746,8.85 3.15,9.36487254 3.15,10 C3.15,10.6351275 2.63512746,11.15 2,11.15 C1.36487254,11.15 0.85,10.6351275 0.85,10 C0.85,9.36487254 1.36487254,8.85 2,8.85 Z M11.714286,8.85 C12.3494135,8.85 12.864286,9.36487254 12.864286,10 C12.864286,10.6351275 12.3494135,11.15 11.714286,11.15 C11.0791585,11.15 10.564286,10.6351275 10.564286,10 C10.564286,9.36487254 11.0791585,8.85 11.714286,8.85 Z M36.000001,8.85 C36.6351285,8.85 37.150001,9.36487254 37.150001,10 C37.150001,10.6351275 36.6351285,11.15 36.000001,11.15 C35.3648735,11.15 34.850001,10.6351275 34.850001,10 C34.850001,9.36487254 35.3648735,8.85 36.000001,8.85 Z M65.142859,8.85 C65.7779865,8.85 66.292859,9.36487254 66.292859,10 C66.292859,10.6351275 65.7779865,11.15 65.142859,11.15 C64.5077315,11.15 63.992859,10.6351275 63.992859,10 C63.992859,9.36487254 64.5077315,8.85 65.142859,8.85 Z M70.000002,8.85 C70.6351295,8.85 71.150002,9.36487254 71.150002,10 C71.150002,10.6351275 70.6351295,11.15 70.000002,11.15 C69.3648745,11.15 68.850002,10.6351275 68.850002,10 C68.850002,9.36487254 69.3648745,8.85 70.000002,8.85 Z" id="形状" fill-rule="nonzero"></path>
    </g>
</svg>