<?xml version="1.0" encoding="UTF-8"?>
<svg width="72px" height="20px" viewBox="0 0 72 20" version="1.1" xmlns="http://www.w3.org/2000/svg" xmlns:xlink="http://www.w3.org/1999/xlink">
    <g id="4" stroke="none" stroke-width="1" fill-rule="evenodd">
        <path d="M21.428572,6.35 C22.0636995,6.35 22.578572,6.86487254 22.578572,7.5 L22.578572,12.5 C22.578572,13.1351275 22.0636995,13.65 21.428572,13.65 C20.7934445,13.65 20.278572,13.1351275 20.278572,12.5 L20.278572,7.5 C20.278572,6.86487254 20.7934445,6.35 21.428572,6.35 Z M40.857144,6.35 C41.4922715,6.35 42.007144,6.86487254 42.007144,7.5 L42.007144,12.5 C42.007144,13.1351275 41.4922715,13.65 40.857144,13.65 C40.2220165,13.65 39.707144,13.1351275 39.707144,12.5 L39.707144,7.5 C39.707144,6.86487254 40.2220165,6.35 40.857144,6.35 Z M45.714287,7.1 C46.3494145,7.1 46.864287,7.61487254 46.864287,8.25 L46.864287,11.75 C46.864287,12.3851275 46.3494145,12.9 45.714287,12.9 C45.0791595,12.9 44.564287,12.3851275 44.564287,11.75 L44.564287,8.25 C44.564287,7.61487254 45.0791595,7.1 45.714287,7.1 Z M31.142858,7.85 C31.7779855,7.85 32.292858,8.36487254 32.292858,9 L32.292858,11 C32.292858,11.6351275 31.7779855,12.15 31.142858,12.15 C30.5077305,12.15 29.992858,11.6351275 29.992858,11 L29.992858,9 C29.992858,8.36487254 30.5077305,7.85 31.142858,7.85 Z M50.57143,7.85 C51.2065575,7.85 51.72143,8.36487254 51.72143,9 L51.72143,11 C51.72143,11.6351275 51.2065575,12.15 50.57143,12.15 C49.9363025,12.15 49.42143,11.6351275 49.42143,11 L49.42143,9 C49.42143,8.36487254 49.9363025,7.85 50.57143,7.85 Z M26.285715,7.85 C26.9208425,7.85 27.435715,8.36487254 27.435715,9 L27.435715,11 C27.435715,11.6351275 26.9208425,12.15 26.285715,12.15 C25.6505875,12.15 25.135715,11.6351275 25.135715,11 L25.135715,9 C25.135715,8.36487254 25.6505875,7.85 26.285715,7.85 Z M16.571429,7.85 C17.2065565,7.85 17.721429,8.36487254 17.721429,9 L17.721429,11 C17.721429,11.6351275 17.2065565,12.15 16.571429,12.15 C15.9363015,12.15 15.421429,11.6351275 15.421429,11 L15.421429,9 C15.421429,8.36487254 15.9363015,7.85 16.571429,7.85 Z M11.714286,8.35 C12.3494135,8.35 12.864286,8.86487254 12.864286,9.5 L12.864286,10.5 C12.864286,11.1351275 12.3494135,11.65 11.714286,11.65 C11.0791585,11.65 10.564286,11.1351275 10.564286,10.5 L10.564286,9.5 C10.564286,8.86487254 11.0791585,8.35 11.714286,8.35 Z M55.428573,8.35 C56.0637005,8.35 56.578573,8.86487254 56.578573,9.5 L56.578573,10.5 C56.578573,11.1351275 56.0637005,11.65 55.428573,11.65 C54.7934455,11.65 54.278573,11.1351275 54.278573,10.5 L54.278573,9.5 C54.278573,8.86487254 54.7934455,8.35 55.428573,8.35 Z M36.000001,8.35 C36.6351285,8.35 37.150001,8.86487254 37.150001,9.5 L37.150001,10.5 C37.150001,11.1351275 36.6351285,11.65 36.000001,11.65 C35.3648735,11.65 34.850001,11.1351275 34.850001,10.5 L34.850001,9.5 C34.850001,8.86487254 35.3648735,8.35 36.000001,8.35 Z M60.285716,8.6 C60.9208435,8.6 61.435716,9.11487254 61.435716,9.75 L61.435716,10.25 C61.435716,10.8851275 60.9208435,11.4 60.285716,11.4 C59.6505885,11.4 59.135716,10.8851275 59.135716,10.25 L59.135716,9.75 C59.135716,9.11487254 59.6505885,8.6 60.285716,8.6 Z M70.000002,8.85 C70.6351295,8.85 71.150002,9.36487254 71.150002,10 C71.150002,10.6351275 70.6351295,11.15 70.000002,11.15 C69.3648745,11.15 68.850002,10.6351275 68.850002,10 C68.850002,9.36487254 69.3648745,8.85 70.000002,8.85 Z M65.142859,8.85 C65.7779865,8.85 66.292859,9.36487254 66.292859,10 C66.292859,10.6351275 65.7779865,11.15 65.142859,11.15 C64.5077315,11.15 63.992859,10.6351275 63.992859,10 C63.992859,9.36487254 64.5077315,8.85 65.142859,8.85 Z M6.857143,8.85 C7.49227046,8.85 8.007143,9.36487254 8.007143,10 C8.007143,10.6351275 7.49227046,11.15 6.857143,11.15 C6.22201554,11.15 5.707143,10.6351275 5.707143,10 C5.707143,9.36487254 6.22201554,8.85 6.857143,8.85 Z M2,8.85 C2.63512746,8.85 3.15,9.36487254 3.15,10 C3.15,10.6351275 2.63512746,11.15 2,11.15 C1.36487254,11.15 0.85,10.6351275 0.85,10 C0.85,9.36487254 1.36487254,8.85 2,8.85 Z" id="形状" fill-rule="nonzero"></path>
    </g>
</svg>