<?xml version="1.0" encoding="UTF-8"?>
<svg width="72px" height="20px" viewBox="0 0 72 20" version="1.1" xmlns="http://www.w3.org/2000/svg" xmlns:xlink="http://www.w3.org/1999/xlink">
    <g id="end" stroke="none" stroke-width="1" fill-rule="evenodd">
        <path d="M40.857144,6.85 C41.4922715,6.85 42.007144,7.36487254 42.007144,8 L42.007144,13 C42.007144,13.6351275 41.4922715,14.15 40.857144,14.15 C40.2220165,14.15 39.707144,13.6351275 39.707144,13 L39.707144,8 C39.707144,7.36487254 40.2220165,6.85 40.857144,6.85 Z M11.714286,7.35 C12.3494135,7.35 12.864286,7.86487254 12.864286,8.5 L12.864286,12.5 C12.864286,13.1351275 12.3494135,13.65 11.714286,13.65 C11.0791585,13.65 10.564286,13.1351275 10.564286,12.5 L10.564286,8.5 C10.564286,7.86487254 11.0791585,7.35 11.714286,7.35 Z M21.428572,7.35 C22.0636995,7.35 22.578572,7.86487254 22.578572,8.5 L22.578572,12.5 C22.578572,13.1351275 22.0636995,13.65 21.428572,13.65 C20.7934445,13.65 20.278572,13.1351275 20.278572,12.5 L20.278572,8.5 C20.278572,7.86487254 20.7934445,7.35 21.428572,7.35 Z M50.57143,7.35 C51.2065575,7.35 51.72143,7.86487254 51.72143,8.5 L51.72143,12.5 C51.72143,13.1351275 51.2065575,13.65 50.57143,13.65 C49.9363025,13.65 49.42143,13.1351275 49.42143,12.5 L49.42143,8.5 C49.42143,7.86487254 49.9363025,7.35 50.57143,7.35 Z M45.714287,7.85 C46.3494145,7.85 46.864287,8.36487254 46.864287,9 L46.864287,12 C46.864287,12.6351275 46.3494145,13.15 45.714287,13.15 C45.0791595,13.15 44.564287,12.6351275 44.564287,12 L44.564287,9 C44.564287,8.36487254 45.0791595,7.85 45.714287,7.85 Z M16.571429,7.85 C17.2065565,7.85 17.721429,8.36487254 17.721429,9 L17.721429,12 C17.721429,12.6351275 17.2065565,13.15 16.571429,13.15 C15.9363015,13.15 15.421429,12.6351275 15.421429,12 L15.421429,9 C15.421429,8.36487254 15.9363015,7.85 16.571429,7.85 Z M60.285716,8.85 C60.9208435,8.85 61.435716,9.36487254 61.435716,10 L61.435716,11 C61.435716,11.6351275 60.9208435,12.15 60.285716,12.15 C59.6505885,12.15 59.135716,11.6351275 59.135716,11 L59.135716,10 C59.135716,9.36487254 59.6505885,8.85 60.285716,8.85 Z M26.285715,8.85 C26.9208425,8.85 27.435715,9.36487254 27.435715,10 L27.435715,11 C27.435715,11.6351275 26.9208425,12.15 26.285715,12.15 C25.6505875,12.15 25.135715,11.6351275 25.135715,11 L25.135715,10 C25.135715,9.36487254 25.6505875,8.85 26.285715,8.85 Z M6.857143,8.85 C7.49227046,8.85 8.007143,9.36487254 8.007143,10 L8.007143,11 C8.007143,11.6351275 7.49227046,12.15 6.857143,12.15 C6.22201554,12.15 5.707143,11.6351275 5.707143,11 L5.707143,10 C5.707143,9.36487254 6.22201554,8.85 6.857143,8.85 Z M2,9.35 C2.63512746,9.35 3.15,9.86487254 3.15,10.5 C3.15,11.1351275 2.63512746,11.65 2,11.65 C1.36487254,11.65 0.85,11.1351275 0.85,10.5 C0.85,9.86487254 1.36487254,9.35 2,9.35 Z M31.142858,9.35 C31.7779855,9.35 32.292858,9.86487254 32.292858,10.5 C32.292858,11.1351275 31.7779855,11.65 31.142858,11.65 C30.5077305,11.65 29.992858,11.1351275 29.992858,10.5 C29.992858,9.86487254 30.5077305,9.35 31.142858,9.35 Z M36.000001,9.35 C36.6351285,9.35 37.150001,9.86487254 37.150001,10.5 C37.150001,11.1351275 36.6351285,11.65 36.000001,11.65 C35.3648735,11.65 34.850001,11.1351275 34.850001,10.5 C34.850001,9.86487254 35.3648735,9.35 36.000001,9.35 Z M55.428573,9.35 C56.0637005,9.35 56.578573,9.86487254 56.578573,10.5 C56.578573,11.1351275 56.0637005,11.65 55.428573,11.65 C54.7934455,11.65 54.278573,11.1351275 54.278573,10.5 C54.278573,9.86487254 54.7934455,9.35 55.428573,9.35 Z M65.142859,9.35 C65.7779865,9.35 66.292859,9.86487254 66.292859,10.5 C66.292859,11.1351275 65.7779865,11.65 65.142859,11.65 C64.5077315,11.65 63.992859,11.1351275 63.992859,10.5 C63.992859,9.86487254 64.5077315,9.35 65.142859,9.35 Z M70.000002,9.35 C70.6351295,9.35 71.150002,9.86487254 71.150002,10.5 C71.150002,11.1351275 70.6351295,11.65 70.000002,11.65 C69.3648745,11.65 68.850002,11.1351275 68.850002,10.5 C68.850002,9.86487254 69.3648745,9.35 70.000002,9.35 Z" id="形状" fill-rule="nonzero"></path>
    </g>
</svg>