<?xml version="1.0" encoding="UTF-8"?>
<svg width="72px" height="20px" viewBox="0 0 72 20" version="1.1" xmlns="http://www.w3.org/2000/svg" xmlns:xlink="http://www.w3.org/1999/xlink">
    <g id="7" stroke="none" stroke-width="1" fill-rule="evenodd">
        <path d="M50.57143,3.35 C51.2065575,3.35 51.72143,3.86487254 51.72143,4.5 L51.72143,15.5 C51.72143,16.1351275 51.2065575,16.65 50.57143,16.65 C49.9363025,16.65 49.42143,16.1351275 49.42143,15.5 L49.42143,4.5 C49.42143,3.86487254 49.9363025,3.35 50.57143,3.35 Z M21.428572,4.85 C22.0636995,4.85 22.578572,5.36487254 22.578572,6 L22.578572,14 C22.578572,14.6351275 22.0636995,15.15 21.428572,15.15 C20.7934445,15.15 20.278572,14.6351275 20.278572,14 L20.278572,6 C20.278572,5.36487254 20.7934445,4.85 21.428572,4.85 Z M11.714286,5.85 C12.3494135,5.85 12.864286,6.36487254 12.864286,7 L12.864286,13 C12.864286,13.6351275 12.3494135,14.15 11.714286,14.15 C11.0791585,14.15 10.564286,13.6351275 10.564286,13 L10.564286,7 C10.564286,6.36487254 11.0791585,5.85 11.714286,5.85 Z M36.000001,5.85 C36.6351285,5.85 37.150001,6.36487254 37.150001,7 L37.150001,13 C37.150001,13.6351275 36.6351285,14.15 36.000001,14.15 C35.3648735,14.15 34.850001,13.6351275 34.850001,13 L34.850001,7 C34.850001,6.36487254 35.3648735,5.85 36.000001,5.85 Z M31.142858,6.85 C31.7779855,6.85 32.292858,7.36487254 32.292858,8 L32.292858,12 C32.292858,12.6351275 31.7779855,13.15 31.142858,13.15 C30.5077305,13.15 29.992858,12.6351275 29.992858,12 L29.992858,8 C29.992858,7.36487254 30.5077305,6.85 31.142858,6.85 Z M60.285716,7.6 C60.9208435,7.6 61.435716,8.11487254 61.435716,8.75 L61.435716,11.25 C61.435716,11.8851275 60.9208435,12.4 60.285716,12.4 C59.6505885,12.4 59.135716,11.8851275 59.135716,11.25 L59.135716,8.75 C59.135716,8.11487254 59.6505885,7.6 60.285716,7.6 Z M55.428573,7.6 C56.0637005,7.6 56.578573,8.11487254 56.578573,8.75 L56.578573,11.25 C56.578573,11.8851275 56.0637005,12.4 55.428573,12.4 C54.7934455,12.4 54.278573,11.8851275 54.278573,11.25 L54.278573,8.75 C54.278573,8.11487254 54.7934455,7.6 55.428573,7.6 Z M45.714287,7.85 C46.3494145,7.85 46.864287,8.36487254 46.864287,9 L46.864287,11 C46.864287,11.6351275 46.3494145,12.15 45.714287,12.15 C45.0791595,12.15 44.564287,11.6351275 44.564287,11 L44.564287,9 C44.564287,8.36487254 45.0791595,7.85 45.714287,7.85 Z M40.857144,7.85 C41.4922715,7.85 42.007144,8.36487254 42.007144,9 L42.007144,11 C42.007144,11.6351275 41.4922715,12.15 40.857144,12.15 C40.2220165,12.15 39.707144,11.6351275 39.707144,11 L39.707144,9 C39.707144,8.36487254 40.2220165,7.85 40.857144,7.85 Z M26.285715,7.85 C26.9208425,7.85 27.435715,8.36487254 27.435715,9 L27.435715,11 C27.435715,11.6351275 26.9208425,12.15 26.285715,12.15 C25.6505875,12.15 25.135715,11.6351275 25.135715,11 L25.135715,9 C25.135715,8.36487254 25.6505875,7.85 26.285715,7.85 Z M6.857143,8.1 C7.49227046,8.1 8.007143,8.61487254 8.007143,9.25 L8.007143,10.75 C8.007143,11.3851275 7.49227046,11.9 6.857143,11.9 C6.22201554,11.9 5.707143,11.3851275 5.707143,10.75 L5.707143,9.25 C5.707143,8.61487254 6.22201554,8.1 6.857143,8.1 Z M2,8.35 C2.63512746,8.35 3.15,8.86487254 3.15,9.5 L3.15,10.5 C3.15,11.1351275 2.63512746,11.65 2,11.65 C1.36487254,11.65 0.85,11.1351275 0.85,10.5 L0.85,9.5 C0.85,8.86487254 1.36487254,8.35 2,8.35 Z M16.571429,8.35 C17.2065565,8.35 17.721429,8.86487254 17.721429,9.5 L17.721429,10.5 C17.721429,11.1351275 17.2065565,11.65 16.571429,11.65 C15.9363015,11.65 15.421429,11.1351275 15.421429,10.5 L15.421429,9.5 C15.421429,8.86487254 15.9363015,8.35 16.571429,8.35 Z M70.000002,8.6 C70.6351295,8.6 71.150002,9.11487254 71.150002,9.75 L71.150002,10.25 C71.150002,10.8851275 70.6351295,11.4 70.000002,11.4 C69.3648745,11.4 68.850002,10.8851275 68.850002,10.25 L68.850002,9.75 C68.850002,9.11487254 69.3648745,8.6 70.000002,8.6 Z M65.142859,8.6 C65.7779865,8.6 66.292859,9.11487254 66.292859,9.75 L66.292859,10.25 C66.292859,10.8851275 65.7779865,11.4 65.142859,11.4 C64.5077315,11.4 63.992859,10.8851275 63.992859,10.25 L63.992859,9.75 C63.992859,9.11487254 64.5077315,8.6 65.142859,8.6 Z" id="形状" fill-rule="nonzero"></path>
    </g>
</svg>