<?xml version="1.0" encoding="UTF-8"?>
<svg width="72px" height="20px" viewBox="0 0 72 20" version="1.1" xmlns="http://www.w3.org/2000/svg" xmlns:xlink="http://www.w3.org/1999/xlink">
    <g id="1" stroke="none" stroke-width="1" fill-rule="evenodd">
        <path d="M16.571429,4.35 C17.2065565,4.35 17.721429,4.86487254 17.721429,5.5 L17.721429,14.5 C17.721429,15.1351275 17.2065565,15.65 16.571429,15.65 C15.9363015,15.65 15.421429,15.1351275 15.421429,14.5 L15.421429,5.5 C15.421429,4.86487254 15.9363015,4.35 16.571429,4.35 Z M40.857144,5.85 C41.4922715,5.85 42.007144,6.36487254 42.007144,7 L42.007144,13 C42.007144,13.6351275 41.4922715,14.15 40.857144,14.15 C40.2220165,14.15 39.707144,13.6351275 39.707144,13 L39.707144,7 C39.707144,6.36487254 40.2220165,5.85 40.857144,5.85 Z M21.428572,6.35 C22.0636995,6.35 22.578572,6.86487254 22.578572,7.5 L22.578572,12.5 C22.578572,13.1351275 22.0636995,13.65 21.428572,13.65 C20.7934445,13.65 20.278572,13.1351275 20.278572,12.5 L20.278572,7.5 C20.278572,6.86487254 20.7934445,6.35 21.428572,6.35 Z M31.142858,6.85 C31.7779855,6.85 32.292858,7.36487254 32.292858,8 L32.292858,12 C32.292858,12.6351275 31.7779855,13.15 31.142858,13.15 C30.5077305,13.15 29.992858,12.6351275 29.992858,12 L29.992858,8 C29.992858,7.36487254 30.5077305,6.85 31.142858,6.85 Z M45.714287,6.85 C46.3494145,6.85 46.864287,7.36487254 46.864287,8 L46.864287,12 C46.864287,12.6351275 46.3494145,13.15 45.714287,13.15 C45.0791595,13.15 44.564287,12.6351275 44.564287,12 L44.564287,8 C44.564287,7.36487254 45.0791595,6.85 45.714287,6.85 Z M11.714286,7.85 C12.3494135,7.85 12.864286,8.36487254 12.864286,9 L12.864286,11 C12.864286,11.6351275 12.3494135,12.15 11.714286,12.15 C11.0791585,12.15 10.564286,11.6351275 10.564286,11 L10.564286,9 C10.564286,8.36487254 11.0791585,7.85 11.714286,7.85 Z M55.428573,7.85 C56.0637005,7.85 56.578573,8.36487254 56.578573,9 L56.578573,11 C56.578573,11.6351275 56.0637005,12.15 55.428573,12.15 C54.7934455,12.15 54.278573,11.6351275 54.278573,11 L54.278573,9 C54.278573,8.36487254 54.7934455,7.85 55.428573,7.85 Z M26.285715,7.85 C26.9208425,7.85 27.435715,8.36487254 27.435715,9 L27.435715,11 C27.435715,11.6351275 26.9208425,12.15 26.285715,12.15 C25.6505875,12.15 25.135715,11.6351275 25.135715,11 L25.135715,9 C25.135715,8.36487254 25.6505875,7.85 26.285715,7.85 Z M60.285716,8.1 C60.9208435,8.1 61.435716,8.61487254 61.435716,9.25 L61.435716,10.75 C61.435716,11.3851275 60.9208435,11.9 60.285716,11.9 C59.6505885,11.9 59.135716,11.3851275 59.135716,10.75 L59.135716,9.25 C59.135716,8.61487254 59.6505885,8.1 60.285716,8.1 Z M2,8.35 C2.63512746,8.35 3.15,8.86487254 3.15,9.5 L3.15,10.5 C3.15,11.1351275 2.63512746,11.65 2,11.65 C1.36487254,11.65 0.85,11.1351275 0.85,10.5 L0.85,9.5 C0.85,8.86487254 1.36487254,8.35 2,8.35 Z M36.000001,8.35 C36.6351285,8.35 37.150001,8.86487254 37.150001,9.5 L37.150001,10.5 C37.150001,11.1351275 36.6351285,11.65 36.000001,11.65 C35.3648735,11.65 34.850001,11.1351275 34.850001,10.5 L34.850001,9.5 C34.850001,8.86487254 35.3648735,8.35 36.000001,8.35 Z M50.57143,8.35 C51.2065575,8.35 51.72143,8.86487254 51.72143,9.5 L51.72143,10.5 C51.72143,11.1351275 51.2065575,11.65 50.57143,11.65 C49.9363025,11.65 49.42143,11.1351275 49.42143,10.5 L49.42143,9.5 C49.42143,8.86487254 49.9363025,8.35 50.57143,8.35 Z M65.142859,8.6 C65.7779865,8.6 66.292859,9.11487254 66.292859,9.75 L66.292859,10.25 C66.292859,10.8851275 65.7779865,11.4 65.142859,11.4 C64.5077315,11.4 63.992859,10.8851275 63.992859,10.25 L63.992859,9.75 C63.992859,9.11487254 64.5077315,8.6 65.142859,8.6 Z M70.000002,8.85 C70.6351295,8.85 71.150002,9.36487254 71.150002,10 C71.150002,10.6351275 70.6351295,11.15 70.000002,11.15 C69.3648745,11.15 68.850002,10.6351275 68.850002,10 C68.850002,9.36487254 69.3648745,8.85 70.000002,8.85 Z M6.857143,8.85 C7.49227046,8.85 8.007143,9.36487254 8.007143,10 C8.007143,10.6351275 7.49227046,11.15 6.857143,11.15 C6.22201554,11.15 5.707143,10.6351275 5.707143,10 C5.707143,9.36487254 6.22201554,8.85 6.857143,8.85 Z" id="形状" fill-rule="nonzero"></path>
    </g>
</svg>