<?xml version="1.0" encoding="UTF-8"?>
<svg width="72px" height="20px" viewBox="0 0 72 20" version="1.1" xmlns="http://www.w3.org/2000/svg" xmlns:xlink="http://www.w3.org/1999/xlink">
    <g id="3" stroke="none" stroke-width="1" fill-rule="evenodd">
        <path d="M50.57143,3.85 C51.2065575,3.85 51.72143,4.36487254 51.72143,5 L51.72143,15 C51.72143,15.6351275 51.2065575,16.15 50.57143,16.15 C49.9363025,16.15 49.42143,15.6351275 49.42143,15 L49.42143,5 C49.42143,4.36487254 49.9363025,3.85 50.57143,3.85 Z M21.428572,4.85 C22.0636995,4.85 22.578572,5.36487254 22.578572,6 L22.578572,14 C22.578572,14.6351275 22.0636995,15.15 21.428572,15.15 C20.7934445,15.15 20.278572,14.6351275 20.278572,14 L20.278572,6 C20.278572,5.36487254 20.7934445,4.85 21.428572,4.85 Z M11.714286,5.85 C12.3494135,5.85 12.864286,6.36487254 12.864286,7 L12.864286,13 C12.864286,13.6351275 12.3494135,14.15 11.714286,14.15 C11.0791585,14.15 10.564286,13.6351275 10.564286,13 L10.564286,7 C10.564286,6.36487254 11.0791585,5.85 11.714286,5.85 Z M36.000001,6.1 C36.6351285,6.1 37.150001,6.61487254 37.150001,7.25 L37.150001,12.75 C37.150001,13.3851275 36.6351285,13.9 36.000001,13.9 C35.3648735,13.9 34.850001,13.3851275 34.850001,12.75 L34.850001,7.25 C34.850001,6.61487254 35.3648735,6.1 36.000001,6.1 Z M40.857144,7.35 C41.4922715,7.35 42.007144,7.86487254 42.007144,8.5 L42.007144,11.5 C42.007144,12.1351275 41.4922715,12.65 40.857144,12.65 C40.2220165,12.65 39.707144,12.1351275 39.707144,11.5 L39.707144,8.5 C39.707144,7.86487254 40.2220165,7.35 40.857144,7.35 Z M31.142858,7.6 C31.7779855,7.6 32.292858,8.11487254 32.292858,8.75 L32.292858,11.25 C32.292858,11.8851275 31.7779855,12.4 31.142858,12.4 C30.5077305,12.4 29.992858,11.8851275 29.992858,11.25 L29.992858,8.75 C29.992858,8.11487254 30.5077305,7.6 31.142858,7.6 Z M55.428573,8.1 C56.0637005,8.1 56.578573,8.61487254 56.578573,9.25 L56.578573,10.75 C56.578573,11.3851275 56.0637005,11.9 55.428573,11.9 C54.7934455,11.9 54.278573,11.3851275 54.278573,10.75 L54.278573,9.25 C54.278573,8.61487254 54.7934455,8.1 55.428573,8.1 Z M60.285716,8.1 C60.9208435,8.1 61.435716,8.61487254 61.435716,9.25 L61.435716,10.75 C61.435716,11.3851275 60.9208435,11.9 60.285716,11.9 C59.6505885,11.9 59.135716,11.3851275 59.135716,10.75 L59.135716,9.25 C59.135716,8.61487254 59.6505885,8.1 60.285716,8.1 Z M45.714287,8.1 C46.3494145,8.1 46.864287,8.61487254 46.864287,9.25 L46.864287,10.75 C46.864287,11.3851275 46.3494145,11.9 45.714287,11.9 C45.0791595,11.9 44.564287,11.3851275 44.564287,10.75 L44.564287,9.25 C44.564287,8.61487254 45.0791595,8.1 45.714287,8.1 Z M26.285715,8.1 C26.9208425,8.1 27.435715,8.61487254 27.435715,9.25 L27.435715,10.75 C27.435715,11.3851275 26.9208425,11.9 26.285715,11.9 C25.6505875,11.9 25.135715,11.3851275 25.135715,10.75 L25.135715,9.25 C25.135715,8.61487254 25.6505875,8.1 26.285715,8.1 Z M6.857143,8.1 C7.49227046,8.1 8.007143,8.61487254 8.007143,9.25 L8.007143,10.75 C8.007143,11.3851275 7.49227046,11.9 6.857143,11.9 C6.22201554,11.9 5.707143,11.3851275 5.707143,10.75 L5.707143,9.25 C5.707143,8.61487254 6.22201554,8.1 6.857143,8.1 Z M2,8.6 C2.63512746,8.6 3.15,9.11487254 3.15,9.75 L3.15,10.25 C3.15,10.8851275 2.63512746,11.4 2,11.4 C1.36487254,11.4 0.85,10.8851275 0.85,10.25 L0.85,9.75 C0.85,9.11487254 1.36487254,8.6 2,8.6 Z M16.571429,8.6 C17.2065565,8.6 17.721429,9.11487254 17.721429,9.75 L17.721429,10.25 C17.721429,10.8851275 17.2065565,11.4 16.571429,11.4 C15.9363015,11.4 15.421429,10.8851275 15.421429,10.25 L15.421429,9.75 C15.421429,9.11487254 15.9363015,8.6 16.571429,8.6 Z M65.142859,8.6 C65.7779865,8.6 66.292859,9.11487254 66.292859,9.75 L66.292859,10.25 C66.292859,10.8851275 65.7779865,11.4 65.142859,11.4 C64.5077315,11.4 63.992859,10.8851275 63.992859,10.25 L63.992859,9.75 C63.992859,9.11487254 64.5077315,8.6 65.142859,8.6 Z M70.000002,8.6 C70.6351295,8.6 71.150002,9.11487254 71.150002,9.75 L71.150002,10.25 C71.150002,10.8851275 70.6351295,11.4 70.000002,11.4 C69.3648745,11.4 68.850002,10.8851275 68.850002,10.25 L68.850002,9.75 C68.850002,9.11487254 69.3648745,8.6 70.000002,8.6 Z" id="形状" fill-rule="nonzero"></path>
    </g>
</svg>