<?xml version="1.0" encoding="UTF-8"?>
<svg width="72px" height="20px" viewBox="0 0 72 20" version="1.1" xmlns="http://www.w3.org/2000/svg" xmlns:xlink="http://www.w3.org/1999/xlink">
    <g id="6" stroke="none" stroke-width="1" fill-rule="evenodd">
        <path d="M31.142858,5.6 C31.7779855,5.6 32.292858,6.11487254 32.292858,6.75 L32.292858,13.25 C32.292858,13.8851275 31.7779855,14.4 31.142858,14.4 C30.5077305,14.4 29.992858,13.8851275 29.992858,13.25 L29.992858,6.75 C29.992858,6.11487254 30.5077305,5.6 31.142858,5.6 Z M21.428572,6.85 C22.0636995,6.85 22.578572,7.36487254 22.578572,8 L22.578572,12 C22.578572,12.6351275 22.0636995,13.15 21.428572,13.15 C20.7934445,13.15 20.278572,12.6351275 20.278572,12 L20.278572,8 C20.278572,7.36487254 20.7934445,6.85 21.428572,6.85 Z M26.285715,6.85 C26.9208425,6.85 27.435715,7.36487254 27.435715,8 L27.435715,12 C27.435715,12.6351275 26.9208425,13.15 26.285715,13.15 C25.6505875,13.15 25.135715,12.6351275 25.135715,12 L25.135715,8 C25.135715,7.36487254 25.6505875,6.85 26.285715,6.85 Z M45.714287,7.1 C46.3494145,7.1 46.864287,7.61487254 46.864287,8.25 L46.864287,11.75 C46.864287,12.3851275 46.3494145,12.9 45.714287,12.9 C45.0791595,12.9 44.564287,12.3851275 44.564287,11.75 L44.564287,8.25 C44.564287,7.61487254 45.0791595,7.1 45.714287,7.1 Z M50.57143,7.1 C51.2065575,7.1 51.72143,7.61487254 51.72143,8.25 L51.72143,11.75 C51.72143,12.3851275 51.2065575,12.9 50.57143,12.9 C49.9363025,12.9 49.42143,12.3851275 49.42143,11.75 L49.42143,8.25 C49.42143,7.61487254 49.9363025,7.1 50.57143,7.1 Z M55.428573,7.35 C56.0637005,7.35 56.578573,7.86487254 56.578573,8.5 L56.578573,11.5 C56.578573,12.1351275 56.0637005,12.65 55.428573,12.65 C54.7934455,12.65 54.278573,12.1351275 54.278573,11.5 L54.278573,8.5 C54.278573,7.86487254 54.7934455,7.35 55.428573,7.35 Z M16.571429,7.35 C17.2065565,7.35 17.721429,7.86487254 17.721429,8.5 L17.721429,11.5 C17.721429,12.1351275 17.2065565,12.65 16.571429,12.65 C15.9363015,12.65 15.421429,12.1351275 15.421429,11.5 L15.421429,8.5 C15.421429,7.86487254 15.9363015,7.35 16.571429,7.35 Z M60.285716,7.85 C60.9208435,7.85 61.435716,8.36487254 61.435716,9 L61.435716,11 C61.435716,11.6351275 60.9208435,12.15 60.285716,12.15 C59.6505885,12.15 59.135716,11.6351275 59.135716,11 L59.135716,9 C59.135716,8.36487254 59.6505885,7.85 60.285716,7.85 Z M36.000001,7.85 C36.6351285,7.85 37.150001,8.36487254 37.150001,9 L37.150001,11 C37.150001,11.6351275 36.6351285,12.15 36.000001,12.15 C35.3648735,12.15 34.850001,11.6351275 34.850001,11 L34.850001,9 C34.850001,8.36487254 35.3648735,7.85 36.000001,7.85 Z M11.714286,7.85 C12.3494135,7.85 12.864286,8.36487254 12.864286,9 L12.864286,11 C12.864286,11.6351275 12.3494135,12.15 11.714286,12.15 C11.0791585,12.15 10.564286,11.6351275 10.564286,11 L10.564286,9 C10.564286,8.36487254 11.0791585,7.85 11.714286,7.85 Z M40.857144,8.35 C41.4922715,8.35 42.007144,8.86487254 42.007144,9.5 L42.007144,10.5 C42.007144,11.1351275 41.4922715,11.65 40.857144,11.65 C40.2220165,11.65 39.707144,11.1351275 39.707144,10.5 L39.707144,9.5 C39.707144,8.86487254 40.2220165,8.35 40.857144,8.35 Z M65.142859,8.35 C65.7779865,8.35 66.292859,8.86487254 66.292859,9.5 L66.292859,10.5 C66.292859,11.1351275 65.7779865,11.65 65.142859,11.65 C64.5077315,11.65 63.992859,11.1351275 63.992859,10.5 L63.992859,9.5 C63.992859,8.86487254 64.5077315,8.35 65.142859,8.35 Z M6.857143,8.6 C7.49227046,8.6 8.007143,9.11487254 8.007143,9.75 L8.007143,10.25 C8.007143,10.8851275 7.49227046,11.4 6.857143,11.4 C6.22201554,11.4 5.707143,10.8851275 5.707143,10.25 L5.707143,9.75 C5.707143,9.11487254 6.22201554,8.6 6.857143,8.6 Z M70.000002,8.85 C70.6351295,8.85 71.150002,9.36487254 71.150002,10 C71.150002,10.6351275 70.6351295,11.15 70.000002,11.15 C69.3648745,11.15 68.850002,10.6351275 68.850002,10 C68.850002,9.36487254 69.3648745,8.85 70.000002,8.85 Z M2,8.85 C2.63512746,8.85 3.15,9.36487254 3.15,10 C3.15,10.6351275 2.63512746,11.15 2,11.15 C1.36487254,11.15 0.85,10.6351275 0.85,10 C0.85,9.36487254 1.36487254,8.85 2,8.85 Z" id="形状" fill-rule="nonzero"></path>
    </g>
</svg>