<?xml version="1.0" encoding="UTF-8"?>
<svg width="15px" height="15px" viewBox="0 0 15 15" version="1.1" xmlns="http://www.w3.org/2000/svg" xmlns:xlink="http://www.w3.org/1999/xlink">
    <title>agency</title>
    <g id="AI助手设置备份" stroke="none" stroke-width="1" fill="none" fill-rule="evenodd">
        <g id="画板" transform="translate(-36.000000, -171.000000)" fill="#536076" fill-rule="nonzero">
            <path d="M51,178.886719 C50.9912049,179.053711 50.9780123,179.220703 50.9574905,179.384766 C50.5192026,183.109863 47.350044,186 43.5051305,186 C41.8516564,186 40.3227792,185.465332 39.0826737,184.560059 C39.0079156,184.259766 38.9478159,183.953613 38.9038405,183.645996 C39.0650836,183.638672 39.2263266,183.626953 39.3846379,183.61084 C40.4942832,183.500977 41.5452946,183.196289 42.5054236,182.730469 C42.6842568,182.869629 42.9085312,182.953125 43.1533275,182.953125 C43.6150689,182.953125 44.0064497,182.657227 44.1501026,182.245605 C46.3430079,182.176758 48.3438874,181.347656 49.897684,180.011719 C50.1146291,179.825684 50.3213134,179.629395 50.5206684,179.424316 C50.686309,179.251465 50.847552,179.072754 51,178.886719 Z M36.0205218,177.933105 C36.3019642,178.378418 36.6215186,178.798828 36.9733216,179.188477 C37.3192612,179.572266 37.6974494,179.926758 38.1020229,180.247559 C37.986221,180.783691 37.9129288,181.335938 37.8865435,181.901367 C37.8792143,182.055176 37.8762826,182.211914 37.8762826,182.367188 C37.8762826,182.478516 37.8777485,182.588379 37.882146,182.699707 C37.8909411,182.982422 37.9129288,183.262207 37.9451774,183.537598 C37.6886544,183.254883 37.4526532,182.95166 37.2401055,182.630859 C36.455878,181.445801 36,180.026367 36,178.5 C36,178.30957 36.0073292,178.120605 36.0205218,177.933105 Z M38.9419525,180.84082 C39.8097332,181.385742 40.7742597,181.788574 41.8032835,182.021484 L41.7021401,182.06543 C40.7859865,182.453613 39.8170624,182.67041 38.8202873,182.711426 C38.8158898,182.597168 38.8144239,182.48291 38.8144239,182.367188 C38.8144239,181.851562 38.8569335,181.341797 38.9419525,180.84082 Z M46.6992084,178.640625 C47.4629141,179.024414 48.299912,179.282227 49.1852829,179.38623 C48.9698036,179.566406 48.7440633,179.734863 48.5109938,179.893066 C48.0653767,180.193359 47.5904427,180.451172 47.0964527,180.660645 C46.3195544,180.98877 45.5045441,181.195312 44.6660803,181.275879 C45.4928174,180.530273 46.1846966,179.638184 46.6992084,178.640625 Z M43.0917619,174.695801 C43.651715,176.115234 44.6367634,177.32373 45.8885957,178.164551 C45.7332161,178.469238 45.5587804,178.765137 45.3667546,179.049316 C45.0691879,179.490234 44.72618,179.904785 44.3494576,180.28125 C44.1149223,180.515625 43.8642627,180.738281 43.6018763,180.943359 C43.4655526,180.878906 43.3131047,180.84375 43.1518616,180.84375 C42.8454999,180.84375 42.5699208,180.974121 42.377895,181.182129 C41.7739666,181.07373 41.1846966,180.899414 40.6159484,180.65918 C40.1234242,180.451172 39.6470243,180.191895 39.2014072,179.891602 C39.1896804,179.882812 39.1764878,179.874023 39.1647611,179.866699 C39.2629727,179.523926 39.3831721,179.187012 39.5238933,178.855957 C39.7496335,178.321289 40.0296101,177.805664 40.3564937,177.32373 C40.4737614,177.149414 40.5983583,176.979492 40.7288185,176.8125 C40.828496,176.843262 40.9340369,176.86084 41.0425095,176.86084 C41.6259162,176.86084 42.0979185,176.38916 42.0979185,175.806152 C42.0979185,175.68457 42.0773967,175.565918 42.0392847,175.45752 C42.2811492,175.253906 42.5347405,175.062012 42.7971269,174.88623 C42.8938728,174.820312 42.9920844,174.757324 43.0917619,174.695801 Z M42.6182938,171.05127 C42.5845793,171.341309 42.5669892,171.637207 42.5669892,171.9375 L42.5669892,172.003418 C42.5728525,172.615723 42.6505424,173.208984 42.7941953,173.777344 C42.2855468,174.076172 41.807681,174.418945 41.3620639,174.799805 C41.2609206,174.767578 41.1539138,174.75 41.0425095,174.75 C40.4591029,174.75 39.9871006,175.22168 39.9871006,175.804688 C39.9871006,175.929199 40.0090882,176.049316 40.0486661,176.15918 C39.3186749,177.073242 38.746995,178.117676 38.3732043,179.25293 C38.233949,179.131348 38.0990912,179.005371 37.9700967,178.875 C37.6080328,178.513184 37.2767517,178.114746 36.9879801,177.692871 C36.9762533,177.676758 36.9645265,177.65918 36.9527998,177.643066 C36.6977426,177.265137 36.4734682,176.866699 36.2829082,176.452148 C37.0964527,173.581055 39.5795954,171.408691 42.6182938,171.05127 Z M47.8425682,173.345215 C48.2412782,173.345215 48.6355907,173.370117 49.0255057,173.421387 C50.020815,174.498047 50.7024333,175.867676 50.9281736,177.386719 C50.8739373,177.473145 50.8182351,177.55957 50.7610671,177.643066 C50.5587804,177.941895 50.3374377,178.229004 50.097039,178.5 L50.0721196,178.5 C49.1852829,178.5 48.3248314,178.327148 47.5156845,177.984375 C47.3691,177.922852 47.2269129,177.855469 47.0861917,177.785156 C47.2723541,177.313477 47.4204046,176.822754 47.5259455,176.317383 C47.9173263,176.163574 48.1943712,175.78125 48.1943712,175.335938 C48.1943712,174.969727 48.0082087,174.647461 47.7253005,174.458496 L47.7253005,174.398438 C47.7253005,174.071777 47.7077103,173.749512 47.6754617,173.431641 C47.67253,173.403809 47.6695984,173.374512 47.6666667,173.34668 C47.7253005,173.345215 47.7839343,173.345215 47.8425682,173.345215 Z M46.7329229,173.411133 C46.769569,173.71875 46.788625,174.027832 46.7900909,174.341309 C46.3811199,174.486328 46.0864849,174.875977 46.0864849,175.335938 C46.0850191,175.715332 46.2858399,176.047852 46.5863383,176.233887 C46.5057168,176.592773 46.4001759,176.945801 46.2726473,177.291504 C45.9736148,177.079102 45.6921724,176.840332 45.429786,176.578125 C44.8258575,175.974609 44.3523893,175.272949 44.022574,174.492188 C43.9873937,174.408691 43.9536793,174.32373 43.9214307,174.23877 C44.0562885,174.172852 44.1926121,174.111328 44.3318675,174.052734 C45.1029024,173.727539 45.9061859,173.512207 46.7329229,173.411133 Z M43.5710935,171 C44.5282908,171.008789 45.4415128,171.194824 46.2799765,171.528809 C46.6860158,171.689941 47.074465,171.88623 47.4423923,172.113281 C47.5919085,172.205566 47.7384931,172.303711 47.8806802,172.40625 L47.844034,172.40625 C47.7326297,172.40625 47.6226913,172.407715 47.5127529,172.412109 C47.1931985,172.422363 46.8795075,172.447266 46.5687482,172.486816 C46.4602756,172.5 46.351803,172.516113 46.2447962,172.533691 C45.3330402,172.680176 44.4637936,172.951172 43.651715,173.327637 C43.5535034,172.875 43.5051305,172.40918 43.5051305,171.9375 C43.5051305,171.621094 43.5271181,171.309082 43.5710935,171 Z" id="agency"></path>
        </g>
    </g>
</svg>