<?xml version="1.0" encoding="UTF-8"?>
<svg width="24px" height="24px" viewBox="0 0 24 24" version="1.1" xmlns="http://www.w3.org/2000/svg" xmlns:xlink="http://www.w3.org/1999/xlink">
    <title>speech draft 2</title>
    <g id="speech-draft" stroke="none" stroke-width="1" fill="none" fill-rule="evenodd">
        <path d="M8.375,2.3 C9.09422946,2.3 9.68324607,2.87164125 9.68324607,3.58440367 C9.68324607,4.29716609 9.09422946,4.86880734 8.375,4.86880734 C7.95804874,4.86880734 7.5848587,4.67669325 7.34481815,4.37634285 C6.80104125,4.70646782 6.44175393,5.29127032 6.44175393,5.95412844 L6.441,7.815 L19.1832461,7.81559633 C19.7355308,7.81559633 20.1832461,8.26331158 20.1832461,8.81559633 L20.1832461,10.9697248 C20.1832461,11.5220095 19.7355308,11.9697248 19.1832461,11.9697248 L18.566,11.969 L18.566,20.639 L20.5,20.6394495 C20.7761424,20.6394495 21,20.8633072 21,21.1394495 C21,21.4155919 20.7761424,21.6394495 20.5,21.6394495 L3.5,21.6394495 C3.22385763,21.6394495 3,21.4155919 3,21.1394495 C3,20.8633072 3.22385763,20.6394495 3.5,20.6394495 L5.441,20.639 L5.441,11.969 L4.81675393,11.9697248 C4.26446918,11.9697248 3.81675393,11.5220095 3.81675393,10.9697248 L3.81675393,8.81559633 C3.81675393,8.26331158 4.26446918,7.81559633 4.81675393,7.81559633 L5.441,7.815 L5.44175393,5.95412844 C5.44175393,4.822018 6.11268484,3.84541368 7.08578606,3.3780913 C7.18421342,2.76443725 7.72671016,2.3 8.375,2.3 Z M17.5657539,11.9697248 L6.44175393,11.9697248 L6.44175393,20.6387248 L17.5657539,20.6387248 L17.5657539,11.9697248 Z M19.1832461,8.81559633 L4.81675393,8.81559633 L4.81675393,10.9697248 L19.1832461,10.9697248 L19.1832461,8.81559633 Z" id="形状" fill="#000000" fill-rule="nonzero"></path>
    </g>
</svg>