<?xml version="1.0" encoding="UTF-8"?>
<svg width="16px" height="16px" viewBox="0 0 16 16" version="1.1" xmlns="http://www.w3.org/2000/svg" xmlns:xlink="http://www.w3.org/1999/xlink">
    <title>again</title>
    <g id="again" stroke="none" stroke-width="1" fill="none" fill-rule="evenodd">
        <path d="M13.039676,8.10195121 C13.2595021,8.12384726 13.4199561,8.31980178 13.3980601,8.53962788 C13.1242954,11.288097 10.7999729,13.4 8.01223564,13.4 C6.10863425,13.4 4.38906246,12.5948493 3.39975049,11.2336 L3.40002973,12.4999724 C3.40002973,12.693272 3.26291693,12.8545473 3.08064368,12.8918458 L3.00002973,12.8999724 C2.77911583,12.8999724 2.60002973,12.7208863 2.60002973,12.4999724 L2.60002973,10.3000074 C2.60002973,9.91289521 2.91425563,9.59926748 3.3005714,9.6000165 L5.50615571,9.6000165 C5.72706961,9.6000165 5.90615571,9.77910395 5.90615571,10.0000178 C5.90615571,10.2209317 5.72706961,10.4000178 5.50615571,10.4000178 L3.81348167,10.400138 C4.58383622,11.7622463 6.18761024,12.6 8.01223564,12.6 C10.3882309,12.6 12.3689219,10.800324 12.6019994,8.46033527 C12.6238954,8.24050917 12.8198499,8.08005516 13.039676,8.10195121 Z M7.98782382,2.6 C9.89095772,2.6 11.6101524,3.40475526 12.59958,4.76539726 L12.599477,3.50002764 C12.599477,3.30672797 12.7365898,3.14545272 12.9188631,3.10815421 L12.999477,3.10002764 C13.2203909,3.10002764 13.399477,3.27911374 13.399477,3.50002764 L13.399477,5.69999263 C13.399477,6.08658444 13.0860799,6.39998158 12.6994881,6.39998158 L10.4939037,6.39998158 C10.2729898,6.39998158 10.0939037,6.22089548 10.0939037,5.99998158 C10.0939037,5.77906768 10.2729898,5.59998158 10.4939037,5.59998158 L12.1860166,5.59887002 C11.4154445,4.23734702 9.81200624,3.4 7.98782382,3.4 C5.6118286,3.4 3.63113758,5.19967596 3.39806009,7.53966473 C3.37616404,7.75949083 3.18020952,7.91994484 2.96038342,7.89804879 C2.74055732,7.87615274 2.58010331,7.68019822 2.60199937,7.46037212 C2.87576405,4.71190298 5.20008652,2.6 7.98782382,2.6 Z" id="形状" fill="#000000" fill-rule="nonzero"></path>
    </g>
</svg>